<svg xmlns="http://www.w3.org/2000/svg" width="465.112" height="116.308"><g data-name="Group 1"><path data-name="Path 4" d="M435.615 79.277c-85.38 37.052-184.1-71.761-207.468-78.159s-37.625 40.117-21.051 78.159 100.929-55.25 0-63.259S94.649 93.908 26.5 99.308" fill="none" stroke="#fd5d3d" stroke-dasharray="6"/><g data-name="Icon feather-music" fill="none" stroke="#fd5d3d" stroke-linecap="round" stroke-linejoin="round" stroke-width="3"><path data-name="Path 1" d="M10.5 110.308v-19.5l18-3v19.5"/><path data-name="Path 2" d="M10.5 110.308a4.5 4.5 0 11-4.5-4.5 4.5 4.5 0 014.5 4.5z"/><path data-name="Path 3" d="M28.5 107.308a4.5 4.5 0 11-4.5-4.5 4.5 4.5 0 014.5 4.5z"/></g><path data-name="Icon ionic-ios-play" d="M437.615 62.829v32.585a.839.839 0 001.257.774l25.83-16.292a.923.923 0 000-1.536l-25.83-16.294a.831.831 0 00-1.257.763z" fill="#fd5d3d"/></g></svg>