<svg xmlns="http://www.w3.org/2000/svg" width="426.421" height="263.78"><g data-name="Group 1"><g data-name="Path 1" fill="none" stroke-dasharray="4 8"><path d="M377.797 243.969c-5.6 0-9.964-1.954-12.984-5.814a20.262 20.262 0 01-3.322-6.635 33.013 33.013 0 01-1.257-6.827 39.961 39.961 0 01.053-7.48V34.434c0-7.527-1.553-13.964-4.617-19.132a27.548 27.548 0 00-10.154-9.929 34.321 34.321 0 00-10.2-3.78 28.588 28.588 0 00-4.617-.591H-.001v-1h330.712a28.757 28.757 0 014.763.607 35.438 35.438 0 0110.443 3.873 28.467 28.467 0 0110.489 10.264c3.163 5.336 4.766 11.96 4.766 19.688v182.885a39.321 39.321 0 00-.05 7.307 31.858 31.858 0 001.215 6.587 19.217 19.217 0 003.145 6.285c2.934 3.746 7.249 5.584 12.821 5.468 14.6-.309 24.72-.185 32.853-.085 3.559.044 6.92.085 10.173.085v1c-3.259 0-6.622-.041-10.183-.085-8.126-.1-18.24-.224-32.827.085q-.264.003-.522.003z"/><path d="M377.797 243.969h-.033c-.35 0-.696-.009-1.037-.025l-.032-.001-.031-.002-.032-.001-.032-.002-.031-.002-.032-.001-.032-.002-.031-.002-.032-.002a3.63 3.63 0 00-.031-.002l-.032-.002-.031-.002-.032-.002-.03-.002-.032-.002-.032-.002-.03-.002-.032-.003-.031-.002-.032-.002-.03-.003-.032-.002-.03-.002-.032-.003-.031-.003-.031-.002-.031-.003-.03-.002-.032-.003a3.833 3.833 0 00-.03-.003l-.03-.003h-.002a19.26 19.26 0 01-1.807-.251 4.5 4.5 0 01-.028-.006h-.002l-.027-.005h-.003c-.008-.003-.017-.004-.025-.006h-.004l-.025-.005a.865.865 0 00-.015-.003l.193-.98c.866.17 1.774.277 2.722.322l.033.002.027.001.03.001.031.002.03.001.031.001.031.001.03.002h.031l.03.002h.03l.028.002h.027a24.742 24.742 0 00.175.005h.03l.032.001h.031l.032.001h.031l.032.001h.031l.031.001h.064l.032.001h.063a1.38 1.38 0 00.096 0c.165 0 .33-.001.496-.005 1.575-.033 3.1-.061 4.573-.085l.017 1-.374.006a920.803 920.803 0 00-4.383.082c-.112.002-.226.001-.336.003zM2.985.999H.001v-1h2.984v1zm12 0H8.017v-1h6.968v1zm12 0h-6.968v-1h6.968v1zm12 0h-6.968v-1h6.968v1zm12 0h-6.968v-1h6.968v1zm12 0h-6.968v-1h6.968v1zm12 0h-6.968v-1h6.968v1zm12 0h-6.968v-1h6.968v1zm12 0h-6.968v-1h6.968v1zm12 0h-6.968v-1h6.968v1zm12 0h-6.968v-1h6.968v1zm12 0h-6.968v-1h6.968v1zm12 0h-6.968v-1h6.968v1zm12 0h-6.968v-1h6.968v1zm12 0h-6.968v-1h6.968v1zm12 0h-6.968v-1h6.968v1zm12 0h-6.968v-1h6.968v1zm12 0h-6.968v-1h6.968v1zm12 0h-6.968v-1h6.968v1zm12 0h-6.968v-1h6.968v1zm12 0h-6.968v-1h6.968v1zm12 0h-6.968v-1h6.968v1zm12 0h-6.968v-1h6.968v1zm12 0h-6.968v-1h6.968v1zm12 0h-6.968v-1h6.968v1zm12 0h-6.968v-1h6.968v1zm12 0h-6.968v-1h6.968v1zm12 0h-6.968v-1h6.968v1zm11.563 1.402a35.77 35.77 0 00-3.228-.81 33.518 33.518 0 00-3.08-.478h-.006l-.008-.001a29.261 29.261 0 00-.213-.022l.098-.995.211.021a34.349 34.349 0 013.853.64c.392.087.808.186 1.243.3h.002l.037.01c.005 0 .009.002.013.003l.008.002.033.008.014.004.016.005c.006 0 .011.002.016.004h.004l.012.004.007.002.014.003h.002l.016.005.017.005.016.004.013.003.015.004.013.004h.004a13.117 13.117 0 00.039.011l.013.004h.003l.017.005.004.002c.005 0 .01.002.014.003l.004.001.016.005h.001l.018.005h.002l.016.005h.002l.037.01h.001a18.783 18.783 0 01.072.02l.005.002.033.009.007.002c.004 0 .008.002.011.003l.006.002.017.004.017.005.005.002.012.003.007.002.015.004.016.004.017.005.009.003.015.004.016.004.014.005c.218.06.439.125.664.194l-.287.947zm10.334 5.216a29.174 29.174 0 00-3.217-2.162l-.014-.007a1.939 1.939 0 01-.01-.007l-.014-.007-.01-.007-.015-.008-.01-.006-.015-.008a.644.644 0 01-.034-.02l-.024-.014a30.945 30.945 0 00-2.009-1.053l.424-.884a30.59 30.59 0 014.232 2.466l.004.002.017.012a.764.764 0 00.009.006l.014.01.01.007.014.01.012.008.012.009.013.008a.749.749 0 01.035.025l.017.012a.651.651 0 00.007.005l.018.013.007.005.018.013.007.004.02.015.004.002c.363.258.719.523 1.068.795l-.59.756zm7.422 8.807a27.42 27.42 0 00-2.57-3.971v-.002l-.018-.023-.002-.002-.017-.022-.002-.002-.075-.096a.263.263 0 00-.005-.007.065.065 0 01-.013-.016l-.007-.008a1.578 1.578 0 00-.02-.025l-.01-.013-.008-.01a.7.7 0 01-.019-.024l-.009-.012-.009-.01-.009-.012-.043-.055h-.001l-.014-.017a1.309 1.309 0 01-.005-.007l-.013-.016-.005-.006-.013-.016-.005-.006a1.663 1.663 0 01-.013-.017l-.004-.005-.015-.018-.002-.003a26.573 26.573 0 00-.39-.47l.712-.605a28.303 28.303 0 012.574 3.592l.042.07a.157.157 0 00.003.006l.012.02.006.01.015.024.012.02.008.014.011.018.007.012.018.03.016.027a.175.175 0 01.004.007l.015.026.005.007.012.02c.001.004.003.006.005.009l.014.024.006.01.014.024.004.008.012.02.005.01.014.023.006.01.011.02.007.012.012.02.005.009.015.025a.215.215 0 01.004.008l.013.022a.16.16 0 01.003.006l.015.026.005.008.015.026.002.005a2.514 2.514 0 01.018.03l.016.028.002.005.034.059.001.002c.134.237.265.477.392.719l-.806.425zm3.505 11.095a38.901 38.901 0 00-.777-3.934l-.008-.03c-.13-.513-.27-1.017-.42-1.514l.856-.259a38.055 38.055 0 011.019 4.31l.02.12.001.002c.01.053.018.107.027.16l.02.12.001.003.02.118v.005a3.773 3.773 0 00.007.039l.013.078v.005l.006.034v.007l.007.037.006.04v.004c.003.011.004.023.006.034l.001.008.005.032.001.006.012.077.002.008.004.03.002.01.005.035v.002l.006.038.001.009.005.028.001.012.005.028.001.01.005.036.002.01.004.027.002.014.004.024.001.014.006.036-.879.127zm1.365 11.85h-.885v-5.051c0-.145-.001-.291-.003-.436l.885-.009c.002.186.003.372.003.56v4.936zm0 12h-.885v-5.486h.885v5.486zm0 12h-.885v-5.486h.885v5.486zm0 12h-.885v-5.486h.885v5.486zm0 12h-.885v-5.486h.885v5.486zm0 12h-.885v-5.486h.885v5.486zm0 12h-.885v-5.486h.885v5.486zm0 12h-.885v-5.486h.885v5.486zm0 12h-.885v-5.486h.885v5.486zm0 12h-.885v-5.486h.885v5.486zm0 12h-.885v-5.486h.885v5.486zm0 12h-.885v-5.486h.885v5.486zm0 12h-.885v-5.486h.885v5.486zm0 12h-.885v-5.486h.885v5.486zm0 12h-.885v-5.486h.885v5.486zm-.156 11.994l-.887-.04a29.99 29.99 0 01.158-2.11v-3.33h.885v3.4l-.004.035c-.002.015-.096.785-.152 2.045zm.468 12.133a30.458 30.458 0 01-.913-4.017 36.234 36.234 0 01-.22-1.613l.88-.1a32.581 32.581 0 00.819 4.447l.001.004.006.02v.005a21 21 0 00.024.089l.002.007.005.018.002.007.005.019a9.608 9.608 0 00.02.075l.005.016.002.01.005.016c0 .004.002.008.003.011l.004.015.003.012.008.028a.368.368 0 01.003.01l.004.015.003.012.004.014.004.013.003.013.004.015a.385.385 0 00.004.012l.007.025.003.01.004.016a56420201.483 56420201.483 0 00.008.027l.003.012.005.015.003.012.005.016a.31.31 0 00.003.01l.007.025.003.01.005.017.003.01.004.017.003.01.005.018.003.009.008.026.001.004.006.022.003.009.005.018a.323.323 0 01.008.026l.003.01.006.02.002.007.008.026.002.006.006.02.003.01.005.017.003.01.005.017.003.009.008.026.007.023-.856.262zm7.162 10.118a14.548 14.548 0 01-3.69-3.28h-.001a31.044 31.044 0 01-.053-.066l-.002-.002-.016-.02v-.001l-.035-.043c0-.002-.002-.003-.003-.005l-.013-.016-.004-.005a6.16 6.16 0 01-.017-.021l-.014-.019-.005-.007a.567.567 0 01-.01-.011l-.005-.008-.013-.016-.008-.01a.302.302 0 00-.006-.008l-.008-.011-.003-.004-.02-.024c0-.002 0-.003-.002-.004l-.01-.013-.003-.004-.032-.042a.03.03 0 00-.002-.002c-.01-.015-.022-.03-.033-.044l-.001-.002-.01-.014-.003-.002a6.795 6.795 0 01-.03-.042l-.005-.005-.01-.013-.019-.026-.005-.007-.008-.011-.007-.01-.01-.013-.009-.012-.006-.009-.009-.012-.005-.007-.014-.018c0-.002-.002-.003-.003-.005l-.012-.016c0-.002-.002-.003-.003-.005l-.03-.04-.002-.003a17.107 17.107 0 01-.35-.504l.767-.512c.2.296.409.58.624.856a14.084 14.084 0 001.855 1.958l.018.015.003.003.017.015.002.002.018.015h.001l.018.016.003.003.018.015.002.002.018.015.019.016.002.002.019.015.001.002.019.015.018.016.003.002.018.016h.002l.019.016.019.016.002.002.019.015.001.002.038.03.002.002.019.016.002.001.038.03.002.003.019.015h.001l.039.032.001.001.02.015v.001l.04.031.001.001.02.016.04.031.002.001.02.015v.001l.04.03.001.002.02.015h.001l.04.031.001.001a4.209 4.209 0 00.061.046l.001.001.02.015h.001l.04.03.002.001.02.015.001.001.04.03h.002l.02.015.001.001.04.03h.002l.02.014.001.002a6.693 6.693 0 00.061.044l.003.002.02.013.02.014.002.002.018.013.004.003.019.013.002.001.017.013.003.002.019.013.004.002.018.013.003.002.017.012.004.002a1.32 1.32 0 00.022.016l.018.012.004.003.016.01.004.003.018.012.005.004.017.011.005.003.015.01.005.004.017.011.006.004.017.011.006.004.012.009.007.004.016.01.008.006.014.01.009.005.01.007a.749.749 0 00.01.007l.013.008.01.006.012.008.01.007a.773.773 0 01.01.006l.014.009.009.006.01.006a.491.491 0 00.009.006l.015.01.007.004.018.012.006.003.011.007.005.003.02.013.004.003a3.42 3.42 0 00.025.015l.038.024.002.001.118.073-.506.832zm20.129 2.189l-.01-1 .221-.002a798.564 798.564 0 015.9-.032l.002 1a782.673 782.673 0 00-2.812.01h-.025l-1.164.007c-.704.004-1.41.01-2.112.017zm30.111.153c-.47-.002-.944-.006-1.42-.01h-.192c-.02-.001-.04-.002-.062-.001h-.062l-.394-.004c-1.31-.012-2.643-.027-4.003-.043l.012-1c1.359.016 2.69.031 4 .043.759.007 1.457.012 2.127.015l-.006 1zm-12-.128l-.693-.007c-.924-.01-1.873-.018-2.852-.026l-.454-.003c-.721-.006-1.426-.01-2.126-.014l.005-1a983.378 983.378 0 016.131.05l-.01 1z" fill="#fd5d3d"/></g><path data-name="Icon ionic-ios-play" d="M394.588 225.021v37.719a.971.971 0 001.455.9l29.9-18.862a1.069 1.069 0 000-1.778l-29.9-18.86a.962.962 0 00-1.455.881z" fill="#fd5d3d"/></g></svg>