<svg xmlns="http://www.w3.org/2000/svg" viewBox="0 0 519.43 508.24">
  <defs>
    <style>
      .a {
        fill: #FFF;
      }

      .b {
        fill: #e52336;
      }

      .c {
        fill: #fff;
      }
    </style>
  </defs>
  <g>
    <path class="a" d="M186,151.79a16.86,16.86,0,0,1-3.25,10.71,11.78,11.78,0,0,1-6.21,4.25,16.86,16.86,0,0,1-5,.67,14.19,14.19,0,0,1-8.79-2.63,14.59,14.59,0,0,1-4.61-5.85,23.43,23.43,0,0,1-2-8.48l8.6-.63c.39,3.5,1.31,6,2.77,7.59a4.64,4.64,0,0,0,3.73,1.69,5.62,5.62,0,0,0,4.73-2.92,7.22,7.22,0,0,0,.91-4q0-3.74-3.39-7.41l-8-7.61a34.18,34.18,0,0,1-6.35-7.8,18,18,0,0,1-2-8.41q0-8.17,5.49-12.39a13.68,13.68,0,0,1,8.41-2.53,15.23,15.23,0,0,1,8.27,2.15,12.38,12.38,0,0,1,4.32,4.68,17.46,17.46,0,0,1,2,6.93l-8.65,1.57a10.51,10.51,0,0,0-2.1-5.73,4.42,4.42,0,0,0-3.59-1.48,4.12,4.12,0,0,0-3.77,2.2,8.47,8.47,0,0,0-1.05,4.39c0,2.74,1.17,5.53,3.53,8.37a30,30,0,0,0,4,3.82q3.15,2.63,4.15,3.68a30.76,30.76,0,0,1,5.16,6.59,24.25,24.25,0,0,1,1.39,2.82,16.61,16.61,0,0,1,1.34,5.73Z" transform="translate(0 0)"/>
    <path class="a" d="M211.4,120.21a5.19,5.19,0,0,0-8.84-3.66,5,5,0,0,0-1.53,3.66V153a4.92,4.92,0,0,0,1.53,3.65,5,5,0,0,0,3.68,1.51A5.16,5.16,0,0,0,211.4,153V120.21Zm-4.92-14.14a14.31,14.31,0,0,1,14.33,14.33v32.68a14.31,14.31,0,1,1-28.62,0V120.4a14.31,14.31,0,0,1,14.29-14.33Z" transform="translate(0 0)"/>
    <path class="a" d="M241.36,167.47A14.27,14.27,0,0,1,227,153.18V120.5a14.31,14.31,0,1,1,28.62,0v6.83h-9.36v-7a5.19,5.19,0,0,0-8.87-3.68,5.06,5.06,0,0,0-1.5,3.68v32.77a5.12,5.12,0,0,0,5.16,5.16,5.07,5.07,0,0,0,3.68-1.5,4.93,4.93,0,0,0,1.53-3.66v-8.26h9.36v8.36a13.71,13.71,0,0,1-4.2,10.13,13.86,13.86,0,0,1-10.08,4.16Z" transform="translate(0 0)"/>
    <path class="a" d="M276.19,167.47a14.27,14.27,0,0,1-14.33-14.29V120.5a14.31,14.31,0,1,1,28.62,0v6.83h-9.37v-7a5.22,5.22,0,0,0-5.21-5.21,4.92,4.92,0,0,0-3.65,1.53,5,5,0,0,0-1.51,3.68v32.77a5.14,5.14,0,0,0,5.16,5.16,5.06,5.06,0,0,0,3.68-1.5,4.93,4.93,0,0,0,1.53-3.66v-8.26h9.37v8.36a14.29,14.29,0,0,1-14.29,14.29Z" transform="translate(0 0)"/>
    <polygon class="a" points="296.69 166.7 296.69 106.78 322.39 106.78 322.39 115.86 305.72 115.86 305.72 132.2 317.9 132.2 317.9 141.28 305.72 141.28 305.72 157.63 322.39 157.63 322.39 166.7 296.69 166.7 296.69 166.7"/>
    <path class="a" d="M348.24,121.26q0-5.2-5.16-5.21h-5.44v19.16h5.44a5,5,0,0,0,3.66-1.53,5,5,0,0,0,1.5-3.67v-8.75Zm-5.4-14.43q7.56,0,11.09,4.16,3.1,3.63,3.11,10.13v8.69a14,14,0,0,1-4.83,10.76l6.69,26.13h-9.77l-5.47-22.55h-6V166.7h-9V106.83Z" transform="translate(0 0)"/>
    <path class="a" d="M223.59,225.72a10.35,10.35,0,0,1-10.39-10.34V191.71a10.37,10.37,0,1,1,20.73,0v4.95h-6.78v-5.09a3.76,3.76,0,0,0-6.42-2.67,3.7,3.7,0,0,0-1.09,2.67v23.74a3.72,3.72,0,0,0,3.74,3.73A3.64,3.64,0,0,0,226,218a3.54,3.54,0,0,0,1.11-2.64v-6h6.78v6.06a9.9,9.9,0,0,1-3,7.33,10,10,0,0,1-7.3,3Z" transform="translate(0 0)"/>
    <polygon class="a" points="256.25 225.17 238.43 225.17 238.43 181.81 244.97 181.81 244.97 218.66 256.25 218.66 256.25 225.17 256.25 225.17"/>
    <path class="a" d="M271.1,225.65a10.28,10.28,0,0,1-10.35-10.31V181.81h6.4v33.46a3.58,3.58,0,0,0,1.11,2.65,3.65,3.65,0,0,0,2.66,1.09,3.72,3.72,0,0,0,3.74-3.74V181.81h6.82v33.53a9.87,9.87,0,0,1-3.05,7.34,10.11,10.11,0,0,1-7.33,3Z" transform="translate(0 0)"/>
    <path class="a" d="M293,218.7h2.73a4.64,4.64,0,0,0,4.6-3.43,7.49,7.49,0,0,0,.45-2.7q0-3.63-1.38-5.29a4.46,4.46,0,0,0-3.67-1.52H293V218.7Zm0-19.21h2.73a4,4,0,0,0,4.08-3,8.34,8.34,0,0,0,.38-2.74,5.73,5.73,0,0,0-1.31-4.08,4.16,4.16,0,0,0-3.15-1.28H293v11.07ZM286,225.17V181.78h9.79a12.5,12.5,0,0,1,7,2,9.56,9.56,0,0,1,3.81,5.36,15.28,15.28,0,0,1,.62,4.6,10.2,10.2,0,0,1-2.32,7,6.62,6.62,0,0,1-2.28,1.7,7.61,7.61,0,0,1,3.7,3.29,12.8,12.8,0,0,1,1.49,4.29,17.24,17.24,0,0,1,.24,3,14.5,14.5,0,0,1-1.56,7,9.38,9.38,0,0,1-3.42,3.6,9.53,9.53,0,0,1-5,1.52Z" transform="translate(0 0)"/>
    <path class="a" d="M205.09,79.82h-3.32c0-.12,0-.25-.05-.39s0-.28,0-.41,0-.26,0-.4,0-.26.05-.38h8.44c0,.12,0,.25,0,.38s0,.26,0,.39,0,.26,0,.41a4,4,0,0,1,0,.4h-3.32V91A6,6,0,0,1,206,91a6.56,6.56,0,0,1-.92-.06V79.82Z" transform="translate(0 0)"/>
    <path class="a" d="M216.44,89.64a3.27,3.27,0,0,0,1.54-.35,2.92,2.92,0,0,0,1.07-1,4.93,4.93,0,0,0,.63-1.58,10,10,0,0,0,0-4.17,4.93,4.93,0,0,0-.63-1.58A3,3,0,0,0,218,80a3.27,3.27,0,0,0-1.54-.34,3.2,3.2,0,0,0-1.53.34,2.89,2.89,0,0,0-1.07,1,4.72,4.72,0,0,0-.64,1.58,10.46,10.46,0,0,0,0,4.17,4.72,4.72,0,0,0,.64,1.58,2.84,2.84,0,0,0,1.07,1,3.2,3.2,0,0,0,1.53.35Zm0,1.56a5.51,5.51,0,0,1-2.39-.49,4.55,4.55,0,0,1-1.67-1.37,5.83,5.83,0,0,1-1-2.08,10.38,10.38,0,0,1-.32-2.64,10.49,10.49,0,0,1,.32-2.64,6,6,0,0,1,1-2.08,4.65,4.65,0,0,1,1.67-1.37,6,6,0,0,1,4.78,0,4.6,4.6,0,0,1,1.68,1.37,6,6,0,0,1,1,2.08,10.49,10.49,0,0,1,.32,2.64,10.38,10.38,0,0,1-.32,2.64,5.81,5.81,0,0,1-1,2.08,4.5,4.5,0,0,1-1.68,1.37,5.51,5.51,0,0,1-2.39.49Z" transform="translate(0 0)"/>
    <path class="a" d="M224.33,78.24a8.65,8.65,0,0,1,.92,0,7.89,7.89,0,0,1,.88,0v7.23a10.14,10.14,0,0,0,.15,1.88,3.27,3.27,0,0,0,.46,1.27,2,2,0,0,0,.84.72,3.68,3.68,0,0,0,2.56,0,2,2,0,0,0,.83-.72,3.44,3.44,0,0,0,.46-1.27,10.23,10.23,0,0,0,.14-1.88V78.24a9.08,9.08,0,0,1,.91,0,8.81,8.81,0,0,1,.92,0v7.55a10,10,0,0,1-.24,2.29,4.37,4.37,0,0,1-.78,1.7,3.4,3.4,0,0,1-1.41,1,6.17,6.17,0,0,1-4.21,0,3.34,3.34,0,0,1-1.41-1,4.1,4.1,0,0,1-.78-1.7,10,10,0,0,1-.24-2.29V78.24Z" transform="translate(0 0)"/>
    <path class="a" d="M236.43,78.23l.71-.07.63-.07.64,0,.75,0a9.06,9.06,0,0,1,1.79.18,4.45,4.45,0,0,1,1.57.62A3.4,3.4,0,0,1,243.65,80a3.8,3.8,0,0,1,.43,1.91,3.4,3.4,0,0,1-.23,1.26,4.16,4.16,0,0,1-.58,1,4.54,4.54,0,0,1-.81.77,5.65,5.65,0,0,1-.88.54l-.21.1,3.7,5.37A8.77,8.77,0,0,1,244,91a7.46,7.46,0,0,1-1-.06L239,85.08V85l.14,0a10,10,0,0,0,1-.34,4.21,4.21,0,0,0,1-.56,3.13,3.13,0,0,0,.75-.83,2.2,2.2,0,0,0,.3-1.18,2.3,2.3,0,0,0-.75-1.89,3.08,3.08,0,0,0-2-.62h-.56l-.58.06V91l-.43,0-.45,0h-.46a3.08,3.08,0,0,1-.46,0V78.23Z" transform="translate(0 0)"/>
    <path class="a" d="M247,78.24l.42,0,.41,0,.42,0,.41,0,5.55,9.57V78.24l.44,0,.46,0,.41,0,.41,0V91c-.13,0-.27,0-.42.06h-.83c-.15,0-.29,0-.42-.06l-5.56-9.51V91c-.13,0-.27,0-.42.06h-.88A3.8,3.8,0,0,1,247,91V78.24Z" transform="translate(0 0)"/>
    <path class="a" d="M260.93,86.47h3.88L262.86,80l-1.93,6.51ZM265.29,88h-4.84L259.58,91c-.15,0-.3,0-.46.06h-.95c-.15,0-.3,0-.43-.06l4.15-12.74.49,0,.55,0,.52,0,.51,0L268.09,91c-.14,0-.3,0-.48.06h-1c-.16,0-.31,0-.46-.06L265.29,88Z" transform="translate(0 0)"/>
    <path class="a" d="M270.3,78.24l.49,0,.52,0,.54,0a4.69,4.69,0,0,1,.49,0l3.29,8,3.32-8a3.88,3.88,0,0,1,.44,0l.51,0,.52,0,.48,0L281.5,91c-.14,0-.29,0-.43.06h-.91c-.15,0-.28,0-.41-.06l-.41-9.9-3.12,7.26a4.4,4.4,0,0,1-.73.06,3.88,3.88,0,0,1-.67-.06l-3-7.31-.41,10c-.13,0-.27,0-.41.06h-.85l-.41-.06.57-12.74Z" transform="translate(0 0)"/>
    <path class="a" d="M284.4,78.24h7a4.75,4.75,0,0,1,.06.78c0,.13,0,.27,0,.41a2.3,2.3,0,0,1-.05.39h-5.19v3.65h4.15c0,.12,0,.25.05.38s0,.27,0,.4,0,.27,0,.41,0,.27-.05.39h-4.15v4.36h5.34a6,6,0,0,1,.05.78c0,.13,0,.26,0,.4s0,.27,0,.39H284.4V78.24Z" transform="translate(0 0)"/>
    <path class="a" d="M293.9,78.24l.42,0,.41,0,.42,0,.42,0,5.54,9.57V78.24l.45,0,.46,0,.4,0,.41,0V91c-.13,0-.27,0-.41.06h-.84c-.15,0-.28,0-.41-.06l-5.57-9.51V91c-.13,0-.27,0-.41.06h-.89a3.8,3.8,0,0,1-.4-.06V78.24Z" transform="translate(0 0)"/>
    <path class="a" d="M308.15,79.82h-3.32c0-.12,0-.25-.05-.39s0-.28,0-.41,0-.26,0-.4,0-.26.05-.38h8.44c0,.12,0,.25.05.38s0,.26,0,.39,0,.26,0,.41a4,4,0,0,1-.05.4H310V91a6,6,0,0,1-.88.06,6.56,6.56,0,0,1-.92-.06V79.82Z" transform="translate(0 0)"/>
    <path class="a" d="M259.71,0C197.08,61.23,87.42,84.53,81.48,84.53c0,0-26.55,225.64,178.23,347C464.5,310.17,438,84.53,438,84.53,432,84.53,322.35,61.23,259.71,0Zm0,30.81c33.17,26.83,72.88,45,102.29,56A497.72,497.72,0,0,0,416,103.6a378.24,378.24,0,0,1-12.62,103C393,245.6,376.72,281.41,355,313c-24.71,35.9-56.71,66.6-95.24,91.39-38.21-24.59-70-55-94.63-90.51C143.33,282.53,127,247,116.55,208.29a380.55,380.55,0,0,1-13-104.7,499.29,499.29,0,0,0,53.91-16.76c29.4-11,69.12-29.19,102.28-56" transform="translate(0 0)"/>
    <polygon class="b" points="267.55 471.58 258.67 453.6 249.79 471.58 229.94 474.47 244.31 488.47 240.92 508.24 258.67 498.9 276.43 508.24 273.04 488.47 287.4 474.47 267.55 471.58 267.55 471.58"/>
    <path class="a" d="M140.64,433.14c3.68-21.06-6.34-52.43-16.35-67.09-9,14.81-13.21,42.23,3.18,58.52-11.66-5.69-26.59-7.78-54.38-4.94a67.81,67.81,0,0,0-11.67,1.95c21.09,19.88,57.48,29.83,79.22,11.56Z" transform="translate(0 0)"/>
    <path class="a" d="M105.48,406.87c8-18.34,5.78-48.52-2.22-67C88.93,356.31,84,380.06,95.65,397.06c-17-13.4-41.37-18.11-61.71-16.34,16,23,48.54,37.74,71.54,26.15Z" transform="translate(0 0)"/>
    <path class="a" d="M77.29,373.92c11.28-15.63,14.78-45.5,9.79-64.05-15.45,13.06-24.22,35.44-16.63,53.54C55.38,345.8,28.37,338.23,15,337c11.34,24.62,39.19,43.12,62.32,36.94Z" transform="translate(0 0)"/>
    <path class="a" d="M56.6,337c13.49-12.84,19.94-40.1,17.6-58.76-15.36,9.69-26.87,26.81-23.72,44.36C41,306.71,24.6,297.12,5.91,292.15,12.12,315.45,34,339,56.6,337Z" transform="translate(0 0)"/>
    <path class="a" d="M42.36,295.46C57.07,285.9,70,259.87,70.13,242.65c-21.23,9.41-31,27.74-30.1,42.93-5-13.05-18.09-29.88-40-40,2.46,26.95,23.86,48.23,42.36,49.9Z" transform="translate(0 0)"/>
    <path class="a" d="M35.64,253.68c12-5.07,31.76-25,32.56-49.38-22.84,10.74-31.7,28.28-33,40.62-2.08-11.51-10.06-29.48-33.74-40.62C2.05,223.25,17.2,249,35.64,253.68Z" transform="translate(0 0)"/>
    <path class="a" d="M34.81,211.33c12.44-4,31.3-23.74,31.68-46.84-10.8,5.25-22.44,14-26.62,24-2.31,5.54-4.29,11.08-5,15.88-1.15-10-7.23-28-31.69-39.91.38,23.1,19.23,42.81,31.67,46.84Z" transform="translate(0 0)"/>
    <path class="a" d="M34.81,169c10.52-3.26,30-21.34,30-44.3-22.92,11.53-28.86,29-30,38.34-1.11-9.36-7-26.81-30-38.34,0,23,19.45,41,30,44.3Z" transform="translate(0 0)"/>
    <path class="a" d="M180,402.5c-1.11,8.75,0,46.08,27,64.47-30.79-10.83-61.52,10.41-67.91,16.49,23.18,7.88,58.75,10.07,80.51-10.12C222.87,443.86,200,416.5,180,402.5Z" transform="translate(0 0)"/>
    <path class="a" d="M148.55,386.18c-8.53,22.43-3.25,47.37,18.36,60.91-29-9-67.59,7.41-70.6,9,30,18.15,63.94,13.91,82.49-3.38,3-25.74-18.66-54.36-30.25-66.57Z" transform="translate(0 0)"/>
    <path class="a" d="M36,134.18c16-11,12.22-33.94-.45-49.34-12.48,15.9-15.66,38.6.45,49.34Z" transform="translate(0 0)"/>
    <path class="a" d="M392,424.57c16.39-16.29,12.18-43.71,3.18-58.52-10,14.66-20,46-16.35,67.09,21.74,18.27,58.13,8.32,79.22-11.56a68,68,0,0,0-11.67-1.95c-27.79-2.84-42.72-.75-54.38,4.94Z" transform="translate(0 0)"/>
    <path class="a" d="M423.77,397.06c11.71-17,6.73-40.75-7.6-57.19-8,18.48-10.23,48.66-2.22,67,23,11.59,55.51-3.14,71.54-26.15-20.34-1.77-44.69,2.94-61.72,16.34Z" transform="translate(0 0)"/>
    <path class="a" d="M449,363.41c7.6-18.1-1.17-40.48-16.62-53.54-5,18.55-1.49,48.42,9.79,64.05,23.13,6.18,51-12.32,62.32-36.94-13.4,1.25-40.41,8.82-55.49,26.43Z" transform="translate(0 0)"/>
    <path class="a" d="M469,322.61c3.15-17.55-8.36-34.67-23.72-44.36-2.34,18.66,4.11,45.92,17.6,58.76,22.6,2,44.48-21.56,50.69-44.86-18.69,5-35.08,14.56-44.57,30.46Z" transform="translate(0 0)"/>
    <path class="a" d="M477.07,295.46c18.5-1.67,39.9-22.95,42.36-49.9-21.94,10.14-35,27-40,40,.91-15.19-8.87-33.52-30.11-42.93.11,17.22,13.07,43.25,27.78,52.81Z" transform="translate(0 0)"/>
    <path class="a" d="M483.78,253.68c18.45-4.65,33.6-30.43,34.22-49.38-23.68,11.14-31.67,29.11-33.74,40.62-1.33-12.34-10.19-29.88-33-40.62.8,24.4,20.58,44.31,32.55,49.38Z" transform="translate(0 0)"/>
    <path class="a" d="M484.61,211.33c12.44-4,31.3-23.74,31.68-46.84-24.46,11.9-30.54,29.88-31.69,39.91-.75-4.8-2.73-10.34-5-15.88-4.18-10-15.83-18.78-26.62-24,.38,23.1,19.24,42.81,31.67,46.84Z" transform="translate(0 0)"/>
    <path class="a" d="M484.61,169c10.52-3.26,30-21.34,30-44.3-22.92,11.53-28.86,29-30,38.34-1.1-9.36-7-26.81-30-38.34,0,23,19.45,41,30,44.3Z" transform="translate(0 0)"/>
    <path class="a" d="M312.52,467c27-18.39,28.06-55.72,27-64.47-20.09,14-42.92,41.36-39.56,70.84,21.76,20.19,57.32,18,80.51,10.12-6.4-6.08-37.12-27.32-67.91-16.49Z" transform="translate(0 0)"/>
    <path class="a" d="M352.52,447.09c21.61-13.54,26.89-38.48,18.36-60.91-11.59,12.21-33.25,40.83-30.25,66.57,18.55,17.29,52.46,21.53,82.48,3.38-3-1.63-41.63-18.06-70.59-9Z" transform="translate(0 0)"/>
    <path class="a" d="M483.44,134.18c16.11-10.74,12.93-33.44.45-49.34-12.68,15.4-16.47,38.34-.45,49.34Z" transform="translate(0 0)"/>
    <path class="a" d="M308.42,319.1l3.28-22.69,3-.7a56.27,56.27,0,0,1-3.64,32.11l-2.63-8.72Zm-5.87,3.33,4.37-.79,3.69,8.26-8.06-7.47ZM282,305.93l3-21.58,13.27-4.47,12.29,16.35-3.19,22.06-13.56,4.14L282,305.93Zm-1.14,37.4-16.27,2.25L248.5,327l9.59-19.29,22.74-1.55,11.94,16.64-11.89,20.51ZM281.7,357a54.32,54.32,0,0,1-32.2,3l-.74-2.76L265,346.65l16.12-2.23,10.56,7.19A53.94,53.94,0,0,1,281.7,357Zm-59.33-11.32,1-1,24.34,12.85.59,2.19a56.35,56.35,0,0,1-25.91-14Zm-13.28-19.34A56.76,56.76,0,0,1,204.77,306l10.88,1.87,8,18.66h-.2l-.65,17.15-1.19,1.25a56.47,56.47,0,0,1-12.48-18.58Zm8.44-57.42a57.5,57.5,0,0,1,19.36-14.84l.4,1,.51,1.24.53,1.27-19.2,17.58.15.17-7.21,1.53a55.46,55.46,0,0,1,5.46-7.92Zm-4.22,11,6.42-1.49,5.47,7.31L219.26,282l-5.95-2.16Zm15.26,6.51,16.46.44,12.29,19.95-9.63,19.38-22.89.34L216.49,307l12.08-20.61Zm28.6-27.06,5.12,12.75-18,13.51.07.11L228,285.26,221,275,239,258.42l18.14.91ZM281.8,285l-2.27,16.18L278,286.39l-12.3-10L281.8,285Zm-23.37-25.59L271,252.51c9.36.84,14.58,3.16,14.58,3.16s4.53,2.65,10.29,9.11l1.92,14.11-12.57,4.23,0-.07-22-11.56-4.86-12.1ZM261.19,245a60.86,60.86,0,1,0,60.86,60.85A60.92,60.92,0,0,0,261.19,245Z" transform="translate(0 0)"/>
    <path class="b" d="M371.7,108.12v68.65H334.05L316,257l27.87,42.73s56.3-85.39,54.08-183.53l-26.2-8.12Z" transform="translate(0 0)"/>
    <path class="b" d="M146.21,108.12v68.65h37.65L202,257l-27.88,42.73S117.79,214.38,120,116.24l26.21-8.12Z" transform="translate(0 0)"/>
    <polygon class="c" points="164.09 185.74 167.26 195.51 177.54 195.51 169.23 201.56 172.4 211.33 164.09 205.29 155.77 211.33 158.95 201.56 150.63 195.51 160.91 195.51 164.09 185.74 164.09 185.74"/>
    <polygon class="c" points="351.96 185.74 355.14 195.51 365.42 195.51 357.1 201.56 360.28 211.33 351.96 205.29 343.64 211.33 346.82 201.56 338.5 195.51 348.79 195.51 351.96 185.74 351.96 185.74"/>
  </g>
</svg>
