<svg xmlns="http://www.w3.org/2000/svg" width="1228.48" height="245.291"><path fill="#96000C" d="M608.668 123.404h-89.923l-29.476 62.539h89.922zm102.523 62.539l29.476-62.539h-89.921l-29.477 62.539zm32.732-70.74L798.026 0h-89.923L679 62.433h-41.791L666.687 0h-89.923l-54.103 115.203zm115.075 0L913.1 0h-92.161l-54.104 115.203zm-95.42 8.201l-10.074 21.29c-5.224 11.52 2.985 41.25 33.208 41.25h151.861l29.104-62.54H763.578zM442.984 72.095l-15.671 34.189c-2.612 4.831-1.493 8.919 4.104 8.919h75.371l20.522-43.48C539.623 44.966 516.862 0 476.565 0H291.869l-29.477 62.433h175.741c5.97 0 7.09 4.831 4.851 9.662z"/><path fill="#96000C" d="M401.122 78.676c1.493-3.345 0-8.176-5.224-8.176H314.93l-54.476 115.203h158.204c36.317 0 69.028-28.109 84.699-62.299H389.555c-6.343 0-7.089-4.964-4.477-10.167l16.044-34.561zm148.387 125.736l-19.216 40.879h10.634l19.216-40.879zM411.84 237.115c-2.985 0-4.104-2.787-2.612-6.132l12.5-26.571h-10.634l-13.246 28.058c-3.731 8.362 2.425 12.821 6.903 12.821h17.351l3.731-8.176H411.84zm-12.499-17.838c1.866-5.018-.746-14.865-9.328-14.865h-22.015l-19.216 40.879h10.634l15.298-32.703h9.702c4.664 0 5.037 2.602 4.477 5.018-.56 2.415-2.425 5.017-6.903 5.017h-8.208l8.768 22.669h9.888l-6.343-16.537c8.395-.373 11.381-4.461 13.246-9.478zm422.875 0c1.865-5.018-.746-14.865-9.328-14.865h-22.015l-19.216 40.879h10.635l15.297-32.703h9.701c4.664 0 5.037 2.602 4.479 5.018-.561 2.415-2.426 5.017-6.903 5.017h-8.208l8.768 22.669h9.889l-6.344-16.537c8.394-.373 11.38-4.461 13.245-9.478zm-74.659-14.865h-14.738l-15.111 12.635-4.291-12.635h-10.355l6.623 19.324-26.118 21.555h14.644l14.646-12.078 4.104 12.078h10.261l-6.344-18.768zm-150.103 28.615c-1.306 2.508-2.985 12.264 5.97 12.264h22.667l3.918-8.176H610.42c-2.612 0-2.985-2.508-2.145-4.459l1.679-3.717h20.988l3.825-8.176h-20.989l3.917-8.176h20.896l3.824-8.176h-31.623l-13.338 28.616zm70.06 4.088c-2.612 0-2.985-2.508-2.146-4.459l1.679-3.717h20.988l3.824-8.176h-20.987l3.918-8.176h20.895l3.824-8.176h-31.622l-13.339 28.615c-1.307 2.508-2.985 12.264 5.969 12.264h22.668l3.918-8.176h-19.589zm166.125 0c-2.612 0-2.985-2.508-2.146-4.459l1.679-3.717h20.988l3.824-8.176h-20.987l3.918-8.176h20.895l3.824-8.176h-31.622l-13.339 28.615c-1.307 2.508-2.985 12.264 5.969 12.264h22.668l3.918-8.176h-19.589zm-521.691-32.703l-17.723 26.943-1.493-26.943h-8.115l-17.724 26.85-1.586-26.85h-9.141l2.425 40.879h9.328l16.604-25.178 1.493 25.178 9.281-.047 27.098-40.832zm223.5 0l-17.723 26.943-1.493-26.943h-8.115l-17.723 26.85-1.586-26.85h-9.142l2.425 40.879h9.328l16.604-25.178 1.493 25.178 9.281-.047 27.099-40.832zm349.759 24.713l-6.25-12.449c-1.119-2.044-.373-3.994 1.68-4.088h16.51l3.825-8.176h-25.187c-4.757 0-10.727 6.504-7.182 13.564l7.275 14.4c.652 1.208.746 4.738-2.238 4.738h-17.443l-3.825 8.176h24.533c8.861.001 11.286-10.219 8.302-16.165zm16.771-11.148l7.275 14.4c.652 1.208.746 4.738-2.238 4.738h-17.443l-3.825 8.176h24.533c8.861 0 11.286-10.22 8.302-16.166l-6.25-12.449c-1.119-2.044-.373-3.994 1.68-4.088h16.51l3.825-8.176H909.16c-4.757 0-10.727 6.504-7.182 13.565zm-431.481-13.565h-25.746l-19.216 40.879h27.051c8.582 0 12.873-3.531 15.298-8.547l9.142-19.697c1.493-3.529.933-12.635-6.529-12.635zm-3.907 12.264l-7.183 15.422c-1.772 3.717-5.286 5.018-7.462 5.018h-11.846l11.473-24.527h12.966c3.171-.001 2.798 2.6 2.052 4.087zm125.97-12.264h-25.746l-19.216 40.879h27.051c8.582 0 12.873-3.531 15.298-8.547l9.142-19.697c1.493-3.529.933-12.635-6.529-12.635zm-3.907 12.264l-7.183 15.422c-1.772 3.717-5.286 5.018-7.463 5.018h-11.846l11.473-24.527H586.6c3.172-.001 2.799 2.6 2.053 4.087zm182.521-12.264H750l-19.123 40.879h10.635l8.697-18.592-1.701 3.727h16.79c11.007 0 13.246-5.854 15.298-10.127 2.052-4.274 1.772-15.887-9.422-15.887zm.028 13.311c-1.306 2.881-2.331 4.46-6.622 4.46h-12.263l4.52-9.662h8.582c3.452 0 7.088 2.323 5.783 5.202zm-421.063-13.311h-16.231c-4.478 0-9.794.65-12.873 7.061l-3.731 7.99-5.97 12.821c-2.052 4.088-1.026 13.007 7.929 13.007h14.085c6.53 0 11.847-2.602 13.712-6.689l10.354-22.483c2.239-4.088-.186-11.707-7.275-11.707zm-3.173 11.521l-8.302 17.838c-.56 1.858-2.332 2.974-4.944 3.345h-10.074c-2.612 0-2.892-2.508-2.146-3.809l6.437-13.844 1.959-4.088c.746-1.672 3.078-2.787 4.197-2.787h11.194c1.866 0 2.425 1.858 1.679 3.345zm602.051-29.89h250.314l8.647-18.582H957.664zm10.25-22.025h250.314l8.636-18.561-250.303-.021zm18.9-40.614l-8.647 18.58h250.313l8.647-18.58zM0 186.047h250.313l8.648-18.582H8.646zm10.25-22.026h250.313l8.637-18.56-250.304-.022zm18.899-40.613l-8.646 18.58h250.313l8.647-18.58z"/></svg>