<svg xmlns="http://www.w3.org/2000/svg" viewBox="0 0 60 60"><path d="M42.536 4H36V0H24v4h-6.536A3.468 3.468 0 0014 7.464v49.072A3.468 3.468 0 0017.464 60h25.071A3.468 3.468 0 0046 56.536V7.464A3.468 3.468 0 0042.536 4zM26 2h8v2h-8V2zm18 54.536c0 .808-.657 1.464-1.464 1.464H17.464A1.465 1.465 0 0116 56.536V7.464C16 6.656 16.657 6 17.464 6h25.072C43.343 6 44 6.656 44 7.464v49.072z"/><path d="M34 17.108a1.053 1.053 0 00-.605-1.007l-.78-.319-.494.61L21.204 34H27l.002 12.884c-.022.412.201.813.58 1.003l.795.351.506-.636L38.653 29H34V17.108zM35.347 31l-6.345 12.105L29 32h-4.204L32 20.372V31h3.347z"/></svg>