<svg xmlns="http://www.w3.org/2000/svg" viewBox="0 0 58 58"><path d="M44 28a1 1 0 00-1 1v6c0 7.72-6.28 14-14 14s-14-6.28-14-14v-6a1 1 0 10-2 0v6c0 8.485 6.644 15.429 15 15.949V56h-5a1 1 0 100 2h12a1 1 0 100-2h-5v-5.051c8.356-.52 15-7.465 15-15.949v-6a1 1 0 00-1-1z"/><path d="M29 46c6.065 0 11-4.935 11-11V11c0-6.065-4.935-11-11-11S18 4.935 18 11v24c0 6.065 4.935 11 11 11zM22.469 4.826A.97.97 0 0023 5a1 1 0 001-1 .98.98 0 00-.094-.412C25.356 2.589 27.11 2 29 2s3.644.589 5.094 1.588A.98.98 0 0034 4a1 1 0 001 1 .97.97 0 00.531-.174 9.025 9.025 0 011.484 2.1C37.013 6.952 37 6.974 37 7c0 .319.159.591.392.774A8.937 8.937 0 0138 11v1a1 1 0 000 2v4a1 1 0 000 2v4a1 1 0 000 2v4a1 1 0 000 2v3c0 .343-.023.679-.061 1.012A.994.994 0 0037 37a.99.99 0 00.525.864 9.035 9.035 0 01-4.536 5.192c.001-.02.011-.036.011-.056a1 1 0 00-2 0c0 .271.11.515.285.695-.731.192-1.494.305-2.285.305s-1.554-.113-2.285-.305A.994.994 0 0027 43a1 1 0 00-2 0c0 .02.01.036.011.056a9.034 9.034 0 01-4.536-5.192A.99.99 0 0021 37a.994.994 0 00-.939-.988A8.899 8.899 0 0120 35v-3a1 1 0 000-2v-4a1 1 0 000-2v-4a1 1 0 000-2v-4a1 1 0 000-2v-1c0-1.138.221-2.223.608-3.226A.982.982 0 0021 7c0-.026-.013-.048-.015-.074a9.025 9.025 0 011.484-2.1z"/><circle cx="29" cy="4" r="1"/><circle cx="26" cy="7" r="1"/><circle cx="26" cy="13" r="1"/><circle cx="23" cy="10" r="1"/><circle cx="29" cy="10" r="1"/><circle cx="23" cy="16" r="1"/><circle cx="29" cy="16" r="1"/><circle cx="32" cy="7" r="1"/><circle cx="32" cy="13" r="1"/><circle cx="35" cy="10" r="1"/><circle cx="35" cy="16" r="1"/><circle cx="26" cy="19" r="1"/><circle cx="26" cy="25" r="1"/><circle cx="23" cy="22" r="1"/><circle cx="29" cy="22" r="1"/><circle cx="23" cy="28" r="1"/><circle cx="29" cy="28" r="1"/><circle cx="32" cy="19" r="1"/><circle cx="32" cy="25" r="1"/><circle cx="35" cy="22" r="1"/><circle cx="35" cy="28" r="1"/><circle cx="26" cy="31" r="1"/><circle cx="26" cy="37" r="1"/><circle cx="23" cy="34" r="1"/><circle cx="29" cy="34" r="1"/><circle cx="23" cy="40" r="1"/><circle cx="29" cy="40" r="1"/><circle cx="32" cy="31" r="1"/><circle cx="32" cy="37" r="1"/><circle cx="35" cy="34" r="1"/><circle cx="35" cy="40" r="1"/></svg>