<svg xmlns="http://www.w3.org/2000/svg" viewBox="0 0 59 59"><path d="M10.407 1.707A.999.999 0 108.993.293c-11.307 11.307-11.307 29.705 0 41.012a1 1 0 001.414-1.414C-.12 29.363-.12 12.234 10.407 1.707zM50.005.293a.999.999 0 10-1.414 1.414c5.092 5.091 7.896 11.871 7.896 19.092S53.683 34.8 48.591 39.891a.999.999 0 101.414 1.414c5.47-5.469 8.481-12.751 8.481-20.506S55.475 5.762 50.005.293z"/><path d="M14.651 5.949a.999.999 0 10-1.414-1.414c-8.968 8.968-8.968 23.56 0 32.527a.997.997 0 001.414 0 .999.999 0 000-1.414c-8.188-8.188-8.188-21.51 0-29.699zm31.112-1.414a.999.999 0 10-1.414 1.414c8.188 8.188 8.188 21.511 0 29.699a.999.999 0 101.414 1.414c8.968-8.967 8.968-23.559 0-32.527z"/><path d="M18.893 8.778a.999.999 0 00-1.414 0c-3.206 3.206-4.972 7.475-4.972 12.021s1.766 8.814 4.972 12.021a.997.997 0 001.414 0 .999.999 0 000-1.414c-5.849-5.849-5.849-15.364 0-21.213.39-.391.39-1.024 0-1.415zm22.628 0a.999.999 0 10-1.414 1.414c5.849 5.849 5.849 15.364 0 21.213a.999.999 0 101.414 1.414c3.206-3.206 4.972-7.475 4.972-12.021s-1.766-8.814-4.972-12.02zM29.499 14c-3.859 0-7 3.141-7 7 0 3.519 2.614 6.432 6 6.92V58a1 1 0 102 0V27.92c3.386-.488 6-3.401 6-6.92 0-3.859-3.14-7-7-7zm0 12c-2.757 0-5-2.243-5-5s2.243-5 5-5 5 2.243 5 5-2.243 5-5 5z"/></svg>