<svg height="60" viewBox="0 0 40.193 40.193" xmlns="http://www.w3.org/2000/svg"><path d="M13.332 35.882c1.593.523 3.254.799 4.925.869.951.146 1.921.24 2.924.24.296 0 .594-.018.892-.029.652.178 1.309.369 1.969.545a12.2 12.2 0 002.917.469c.822.188 1.68.293 2.582.293.722 0 1.422-.062 2.102-.189 1.146-.215 2.883-.914 3.831-1.514a10.294 10.294 0 003.888-4.453 9.304 9.304 0 00.832-3.895c0-.963-.145-1.895-.428-2.795a8.97 8.97 0 00-.52-1.291c-.34-.691-.604-1.766-.541-2.475.04-.441.061-.87.061-1.289 0-2.224-.457-4.309-1.37-6.256a16.45 16.45 0 00-3.777-5.123 17.41 17.41 0 00-1.59-1.276c-.086-.25.477.028-.777-1.18a16.603 16.603 0 00-6.017-3.089c-2.242-.574-4.504-.74-6.793-.65l-.072.003h.001l-1.016.135-.265.037-.031.005-.012.002h-.002v.001a2.992 2.992 0 01-.39-.066 19.005 19.005 0 01-1.865-.543l-.083-.028h-.001a20.748 20.748 0 00-3.009-.4c-1.039-.06-2.049.065-3.032.26-.862-.106-2.86.283-4.602 1.445a9.55 9.55 0 00-1.224.952 8.52 8.52 0 00-1.025 1.117C1.223 6.474.852 7.257.666 7.85c.073.136.533-.771 1.146-1.527.601-.785 1.35-1.428 1.38-1.321-.439.574-1.052 1.301-1.619 2.211C1.002 8.123.5 9.201.229 10.342c-.247 1.052-.287 2.12-.156 3.03l.013.104c.006.037.007.079.014.116.005.03.015.055.021.086.083.598.218 1.19.43 1.757.229.65.512 1.28.775 1.899.063.153.128.31.172.453l.027.099c-.003.017.011-.005.007.054.002.015-.021.154-.029.223l-.131 1.021-.001.011v.021a19.977 19.977 0 00.681 5.367c.477 1.787 1.345 3.426 2.414 4.93 2.169 2.992 5.357 5.211 8.866 6.369zm10.718 1.32a59.606 59.606 0 01-1.045-.293c.087-.008.176-.014.263-.023.256-.025.992.268 1.917.584a12.225 12.225 0 01-1.135-.268zM18.456 4.087h-.015l.027-.001-.012.001a26.355 26.355 0 013.844.227c-.371-.02-.74-.049-1.118-.049-.458 0-.923.018-1.393.045-.23.018-.462.039-.695.062-.24.025-.672-.082-1.136-.233zm-5.252 8.605c.714-.857 1.767-1.516 3.158-1.995 1.296-.461 2.885-.69 4.771-.69.748 0 1.424.036 2.043.114a12.78 12.78 0 011.76.347 9.478 9.478 0 012.66 1.224c.726.574 1.251 1.113 1.562 1.621.317.539.478 1.1.478 1.67.011.491-.193.93-.617 1.317a2.18 2.18 0 01-1.574.623c-.553-.017-.994-.147-1.311-.392-.332-.25-.655-.627-.973-1.137a5.134 5.134 0 00-1.524-1.758c-.538-.402-1.494-.602-2.854-.602-1.176-.014-2.165.199-2.975.646-.716.481-1.075 1.02-1.075 1.624 0 .413.112.746.332.994a3.31 3.31 0 001.074.713c.22.095.441.182.65.255.22.081.453.148.704.211.226.06.526.129.903.209l1.407.32c1.285.287 2.499.57 3.643.856 1.139.366 2.069.775 2.784 1.237.778.474 1.381 1.068 1.809 1.779.41.715.618 1.594.618 2.641 0 1.328-.369 2.486-1.117 3.473-.709.959-1.796 1.762-3.255 2.408-1.482.568-3.186.852-5.098.852-2.343-.018-4.293-.422-5.845-1.225a7.045 7.045 0 01-2.606-2.244c-.681-.932-1.026-1.861-1.026-2.791-.011-.535.194-1.01.618-1.414.425-.357.961-.539 1.612-.539.51 0 .945.148 1.316.451.398.299.704.74.929 1.326.258.617.581 1.188.983 1.703.318.451.801.83 1.455 1.129.528.268 1.36.4 2.51.4 1.435.02 2.573-.266 3.417-.85.892-.568 1.343-1.312 1.343-2.234 0-.33-.062-.629-.184-.9-.21-.465-.884-1.086-1.395-1.367a4.524 4.524 0 00-.979-.389 13.583 13.583 0 00-1.348-.332c-.506-.1-1.08-.23-1.735-.385-1.752-.338-3.181-.729-4.298-1.177-1.177-.418-2.106-1.035-2.793-1.852-.683-.755-1.027-1.734-1.027-2.938 0-1.139.356-2.118 1.07-2.932zM1.779 19.914c.075.005.149.715.226.546.039-.432.069-.854.086-1.245l-.003.044c.047-.289.082-.566.105-.812l.026-.343.008-.123-.007-.08a.925.925 0 00-.058-.238c-.165-.383-.304-.488-.328-.381-.28-1.073-.66-2.28-.717-3.473-.064-1.191.151-2.405.452-3.451.026-.355-.336.555-.241-.024.144-.307.315-.624.489-.946l.269-.466c.11-.176.226-.39.322-.521.397-.614.881-1.233 1.35-1.733.248-.268.441-.458.706-.711l.579-.534c.348-.316.573-.537.567-.637-1.125.645-2.167 1.462-3.005 2.484-.833 1.019-1.513 2.26-1.85 3.599a8.933 8.933 0 00-.257 1.911c-.005-.204.006-.405.015-.607.174-2.483 1.362-4.89 3.266-6.514a10.7 10.7 0 012.317-1.531c.432-.21.83-.376 1.304-.546.427-.14.88-.273 1.34-.363.911-.178 1.886-.271 2.803-.201.105.008.212.028.318.039a10.842 10.842 0 00-3.165.72 10.992 10.992 0 00-3.404 2.095 9.646 9.646 0 00-2.283 3.13 9.034 9.034 0 00-.833 3.83c0 .926.147 1.818.441 2.682.486 1.427 1.221 2.672 1.176 3.001-.028.2-.053.399-.075.597-.048.392-.07.814-.07 1.26 0 2.297.456 4.459 1.369 6.48a16.395 16.395 0 003.762 5.287c1.6 1.506 3.458 2.686 5.58 3.555.45.184.909.336 1.372.48a17.326 17.326 0 01-2.407-.613c-3.451-1.168-6.551-3.381-8.641-6.316-1.023-1.475-1.857-3.088-2.297-4.809a19.47 19.47 0 01-.607-4.522z" fill="#999"/></svg>