<svg height="100" width="160" xmlns="http://www.w3.org/2000/svg"><g transform="translate(-1)" fill="none" fill-rule="evenodd"><path d="M149 0H9C5 0 1 4 1 8v80c0 8 4 12 12 12h136c8 0 12-4 12-12V12c0-8-4-12-12-12zm0 0" fill="#F4F4F4"/><circle cx="81" cy="50" fill="#306FC5" r="44"/><path d="M92 58.578v5.315a15.5 15.5 0 01-2.244 1.158c-1.904.798-3.99 1.197-6.258 1.197s-4.354-.399-6.258-1.197-3.535-1.897-4.893-3.297c-1.358-1.4-2.422-3.052-3.192-4.956-.77-1.904-1.155-3.962-1.155-6.174s.385-4.27 1.155-6.174c.77-1.904 1.834-3.556 3.192-4.956 1.358-1.4 2.989-2.499 4.893-3.297S81.23 35 83.498 35s4.354.399 6.258 1.197A15.5 15.5 0 0192 37.355v5.315a10.948 10.948 0 00-3.882-2.945c-1.372-.63-2.912-.945-4.62-.945-1.708 0-3.248.315-4.62.945a10.948 10.948 0 00-3.528 2.541c-.98 1.064-1.736 2.317-2.268 3.759-.532 1.442-.798 2.975-.798 4.599s.266 3.157.798 4.599c.532 1.442 1.288 2.695 2.268 3.759a10.948 10.948 0 003.528 2.541c1.372.63 2.912.945 4.62.945 0 0-1.708 0 0 0s3.248-.315 4.62-.945A10.948 10.948 0 0092 58.578zm-46 2.63l11.928-11.844c.42-.392.826-.819 1.218-1.281.392-.462.742-.945 1.05-1.449a7.49 7.49 0 00.735-1.596c.182-.56.273-1.148.273-1.764 0-.728-.133-1.386-.399-1.974a4.335 4.335 0 00-1.092-1.491 4.977 4.977 0 00-1.638-.945 5.91 5.91 0 00-1.995-.336c-1.456 0-2.66.406-3.612 1.218-.952.812-1.554 1.932-1.806 3.36l-4.368-.378c.196-1.316.581-2.457 1.155-3.423a8.287 8.287 0 012.142-2.415 8.71 8.71 0 012.94-1.428c1.106-.308 2.303-.462 3.591-.462 1.288 0 2.499.175 3.633.525 1.134.35 2.128.868 2.982 1.554a7.266 7.266 0 012.016 2.562c.49 1.022.735 2.219.735 3.591 0 .98-.147 1.897-.441 2.751a11.608 11.608 0 01-1.155 2.415 14.97 14.97 0 01-1.638 2.142c-.616.672-1.26 1.33-1.932 1.974l-9.786 9.45h14.952v3.528H46v-4.284zm63.46 5.04c-2.268 0-4.354-.399-6.258-1.197s-3.535-1.897-4.893-3.297c-1.358-1.4-2.422-3.052-3.192-4.956-.77-1.904-1.155-3.962-1.155-6.174s.385-4.27 1.155-6.174c.77-1.904 1.834-3.556 3.192-4.956 1.358-1.4 2.989-2.499 4.893-3.297S107.192 35 109.46 35s4.354.399 6.258 1.197 3.535 1.897 4.893 3.297c1.358 1.4 2.422 3.052 3.192 4.956.77 1.904 1.155 3.962 1.155 6.174s-.385 4.27-1.155 6.174c-.77 1.904-1.834 3.556-3.192 4.956-1.358 1.4-2.989 2.499-4.893 3.297s-3.99 1.197-6.258 1.197zm0-3.78c1.708 0 3.248-.315 4.62-.945a10.948 10.948 0 003.528-2.541c.98-1.064 1.736-2.317 2.268-3.759.532-1.442.798-2.975.798-4.599s-.266-3.157-.798-4.599c-.532-1.442-1.288-2.695-2.268-3.759a10.948 10.948 0 00-3.528-2.541c-1.372-.63-2.912-.945-4.62-.945-1.708 0-3.248.315-4.62.945a10.948 10.948 0 00-3.528 2.541c-.98 1.064-1.736 2.317-2.268 3.759-.532 1.442-.798 2.975-.798 4.599s.266 3.157.798 4.599c.532 1.442 1.288 2.695 2.268 3.759a10.948 10.948 0 003.528 2.541c1.372.63 2.912.945 4.62.945 0 0-1.708 0 0 0zm0 0" fill="#FFF"/></g></svg>