<svg height="100" width="160" xmlns="http://www.w3.org/2000/svg"><g fill="none" fill-rule="evenodd"><path d="M148 0H8C4 0 0 4 0 8v80c0 8 4 12 12 12h136c8 0 12-4 12-12V12c0-8-4-12-12-12zm0 0" fill="#F6F6F6"/><path d="M151.765 33.457h-4.209c-.962 0-1.938.717-2.21 1.63-.011.036-.03.072-.039.11l-.274 1.214-5.77 25.463c-.133.576-.222.951-.249 1.049l.011.014c-.2.89.35 1.626 1.252 1.708l.012.017h4.36c.955 0 1.925-.71 2.206-1.61.013-.045.034-.085.045-.13l6.293-27.726-.01-.004c.215-.948-.413-1.735-1.418-1.735zM130.22 58.483a12.39 12.39 0 01-1.843.923c-.867.34-1.689.52-2.45.52-1.166 0-2.063-.161-2.669-.505-.607-.326-.925-.892-.915-1.703 0-.936.222-1.663.681-2.232.463-.548 1.15-.99 2.003-1.318.848-.28 1.89-.51 3.095-.676 1.07-.131 3.186-.369 3.457-.37.27-.003.45-.148.33.555-.054.305-.665 2.747-.945 3.858-.081.333-.536.818-.744.948 0 0 .208-.13 0 0zm8.306-17.167c-1.783-.969-4.57-1.458-8.386-1.458a37.94 37.94 0 00-5.685.435c-1.397.208-1.54.242-2.408.426-1.785.378-2.06 2.118-2.06 2.118l-.573 2.295c-.325 1.468.533 1.408.916 1.294.78-.23 1.202-.457 2.792-.807 1.52-.336 3.125-.587 4.406-.577 1.879 0 3.308.2 4.257.586.95.404 1.421 1.09 1.421 2.074.003.233.01.454-.077.647-.078.18-.228.353-.678.413-2.681.155-4.606.393-6.923.722-2.287.314-4.288.85-5.961 1.595-1.783.77-3.117 1.8-4.037 3.106-.895 1.312-1.345 2.901-1.348 4.773 0 1.768.653 3.21 1.916 4.33 1.278 1.106 2.94 1.653 4.952 1.653 1.257-.009 2.24-.097 2.945-.268a15.092 15.092 0 002.263-.754c.6-.245 1.249-.598 1.933-1.042.685-.445 1.16-.76 1.768-1.149l.022.037-.17.736c-.002.007-.012.01-.012.017l.006.014c-.196.886.35 1.623 1.252 1.71l.011.016h.08l.003.003c.599 0 2.653 0 3.613-.003h.67c.044 0 .049-.013.066-.023.92-.11 1.803-.84 2.01-1.717l3.429-14.407c.079-.339.141-.73.178-1.18.043-.455.094-.83.079-1.1.007-2.04-.892-3.546-2.67-4.515zm-20.645-3.282c-.585-1.108-1.468-2-2.585-2.695-1.145-.694-2.506-1.177-4.082-1.46-1.558-.265-3.41-.417-5.522-.422l-9.821.005c-1.012.017-2.004.79-2.237 1.742L87.03 63.182c-.24.95.416 1.743 1.41 1.738l4.712-.009c1 .009 2.018-.778 2.254-1.73l1.593-6.789c.223-.951 1.24-1.748 2.255-1.734h1.34c5.748 0 10.205-1.15 13.396-3.44 3.184-2.3 4.787-5.317 4.787-9.07-.01-1.638-.297-3.019-.896-4.114zm-10.132 9.15c-1.407.997-3.381 1.496-5.922 1.496h-1.168c-1.01.012-1.663-.784-1.423-1.737l1.408-5.939c.21-.939 1.236-1.738 2.232-1.73l1.543-.008c1.801.008 3.149.301 4.08.885.915.59 1.358 1.505 1.365 2.725.004 1.86-.702 3.29-2.115 4.309" fill="#306FC5"/><path d="M84.836 39.858c-.895 0-2.068.709-2.623 1.565 0 0-5.982 10.046-6.57 11.05-.32.54-.643.197-.697-.004-.043-.244-1.854-10.98-1.854-10.98-.203-.864-1.125-1.606-2.278-1.602l-3.73.005c-.9 0-1.46.706-1.26 1.558 0 0 2.851 15.831 3.407 19.555.278 2.059-.028 2.424-.028 2.424l-3.697 6.314c-.541.856-.245 1.557.65 1.557l4.323-.003c.895 0 2.08-.698 2.613-1.556l16.63-27.55s1.59-2.353.124-2.333c-1 .013-5.01 0-5.01 0zM53.614 58.483c-.583.357-1.197.661-1.842.923-.867.339-1.693.518-2.45.518-1.164 0-2.063-.161-2.67-.503-.607-.327-.926-.893-.916-1.705 0-.934.224-1.662.683-2.23.463-.55 1.148-.992 2-1.32.85-.281 1.896-.509 3.096-.674 1.07-.131 3.19-.368 3.46-.372.268 0 .448-.147.328.555-.053.305-.664 2.75-.945 3.86-.084.333-.539.818-.744.948 0 0 .205-.13 0 0zm8.306-17.168c-1.782-.969-4.57-1.457-8.385-1.457a37.93 37.93 0 00-5.686.434c-1.399.207-1.54.242-2.408.426-1.785.38-2.06 2.118-2.06 2.118l-.573 2.296c-.324 1.468.535 1.407.917 1.293.777-.229 1.202-.456 2.792-.808 1.517-.334 3.125-.585 4.404-.576 1.88 0 3.308.2 4.258.585.95.404 1.419 1.093 1.419 2.075.006.234.011.455-.073.646-.08.182-.232.355-.68.413-2.68.158-4.603.395-6.925.724-2.287.314-4.287.85-5.96 1.594-1.784.77-3.116 1.802-4.034 3.107-.899 1.312-1.348 2.9-1.35 4.773 0 1.767.654 3.21 1.916 4.33 1.279 1.105 2.94 1.653 4.95 1.653 1.258-.009 2.241-.098 2.948-.268a15.148 15.148 0 002.26-.754c.603-.245 1.25-.6 1.935-1.043.683-.444 1.16-.76 1.77-1.148l.02.036-.171.735c-.002.007-.011.012-.011.02l.007.012c-.196.888.35 1.624 1.252 1.71l.01.017h.08l.002.005 3.612-.005h.671c.045 0 .052-.015.066-.024.923-.113 1.802-.842 2.012-1.715l3.428-14.408c.078-.339.14-.73.176-1.18.045-.457.095-.83.082-1.1.007-2.04-.894-3.547-2.67-4.516zm-21.444-3.281c-.585-1.108-1.469-2-2.586-2.695-1.145-.694-2.506-1.177-4.082-1.46-1.558-.265-3.41-.417-5.522-.422l-9.821.005c-1.011.017-2.004.79-2.237 1.742L9.624 63.182c-.24.95.416 1.743 1.41 1.738l4.712-.009c1 .009 2.018-.778 2.254-1.73l1.593-6.789c.223-.951 1.24-1.748 2.255-1.734h1.34c5.748 0 10.205-1.15 13.397-3.44 3.183-2.3 4.786-5.317 4.786-9.07-.01-1.638-.297-3.019-.895-4.114zm-10.133 9.15c-1.407.997-3.381 1.496-5.921 1.496h-1.169c-1.01.012-1.663-.784-1.423-1.737l1.408-5.939c.21-.939 1.236-1.738 2.232-1.73l1.543-.008c1.802.008 3.15.301 4.08.885.915.59 1.358 1.505 1.365 2.725.004 1.86-.702 3.29-2.115 4.309" fill="#265697"/></g></svg>