<svg height="100" width="160" xmlns="http://www.w3.org/2000/svg"><g fill="none" fill-rule="evenodd"><path d="M148 0H8C4 0 0 4 0 8v80c0 8 4 12 12 12h136c8 0 12-4 12-12V12c0-8-4-12-12-12zm0 0" fill="#6A3494"/><path d="M109.663 38.571c2.977 0 5.39-2.366 5.39-5.284 0-2.919-2.413-5.287-5.39-5.287-2.974 0-5.386 2.368-5.386 5.287 0 2.918 2.412 5.284 5.386 5.284 0 0-2.974 0 0 0zm-41.284 2.853c-.242.6-1.993 5.45-6.227 10.478V30.405l-11.281 2.188v38.963h11.281V59.512c3.267 4.807 4.88 12.044 4.88 12.044h13.513c-1.336-5.45-7.183-15.5-7.183-15.5 5.247-6.526 7.552-13.48 7.919-14.632H68.379zm29.658-.406c-10.104.318-15.233 4.765-15.233 13.604v16.934h11.023V57.747c0-5.294.707-7.562 7.11-7.778v-8.796c-1.078-.225-2.9-.155-2.9-.155zm-66.086 4.697c-1.381-.09-4.58-.292-4.58-3.117 0-3.409 4.605-3.409 6.333-3.409 3.037 0 6.971.88 9.78 1.704 0 0 1.567.542 2.9 1.098l.125.033v-9.336l-.17-.05c-3.316-1.138-7.17-2.233-14.318-2.233-12.324 0-16.69 7.042-16.69 13.076 0 3.478 1.519 11.662 15.633 12.606 1.196.073 4.371.251 4.371 3.171 0 2.41-2.599 3.832-6.971 3.832-4.792 0-9.44-1.199-12.263-2.335v9.615c4.226 1.087 8.99 1.63 14.575 1.63 12.05 0 17.446-6.663 17.446-13.267 0-7.488-6.04-12.352-16.17-13.018 0 0 10.13.666 0 0zM104.2 71.556h10.934V41.458H104.2v30.098zm31.522-39.232v39.232h10.936v-41.15l-10.936 1.918zm-15.956 0l10.925-1.919v41.151h-10.925V32.324zm0 0" fill="#FFF"/></g></svg>