<svg height="100" width="160" xmlns="http://www.w3.org/2000/svg"><g fill="none" fill-rule="evenodd"><path d="M148 0H8C4 0 0 4 0 8v80c0 8 4 12 12 12h136c8 0 12-4 12-12V12c0-8-4-12-12-12zm0 0" fill="#1C1C1C"/><path d="M54.412 65.823c-1-.218-2.134-.757-2.742-1.307-.271-.245-.665-.797-.88-1.233l-.388-.79-.035-5.398-.034-5.4h5.733v4.622c0 4.164.021 4.661.21 5.03.26.512.502.662.903.56.654-.163.676-.342.676-5.495v-4.716H63.7v4.873c0 2.775-.052 5.146-.12 5.507-.381 2.006-1.752 3.265-4.08 3.742-1.149.236-4.01.238-5.087.005zm46.04-.058c-1.204-.316-1.983-.76-2.844-1.625-1.33-1.335-1.867-2.908-1.867-5.468s.547-4.145 1.9-5.502c1.291-1.295 2.834-1.828 5.293-1.828 2.47 0 4.013.533 5.315 1.835 1.36 1.36 1.893 2.907 1.893 5.495 0 2.598-.524 4.131-1.873 5.48-1.358 1.357-2.818 1.859-5.384 1.848-1.138-.005-1.798-.069-2.433-.235 0 0 .635.166 0 0zm3.048-3.877c.786-.551.986-4.606.296-6.013-.391-.798-1.29-.804-1.694-.01-.73 1.43-.46 5.788.381 6.126.305.122.761.076 1.017-.103zm29.174-11.504V35h2.147v30.768h-2.147V50.384zm11.284.179V35.358h2.027v30.41h-2.027V50.563zm-76.205 8.11v-6.977h6.895l.352.984c.194.54.749 2.12 1.234 3.51l.88 2.527.032-3.51.032-3.511h4.767v13.953l-3.429-.002-3.428-.001-1.253-3.633-1.252-3.632-.031 3.634-.032 3.634h-4.767v-6.977zm18.485 0v-6.977h5.724v13.953h-5.724v-6.977zm27.667 0v-6.977h6.886l1.238 3.548 1.238 3.547.031-3.547.032-3.548h4.767v13.953h-6.87l-1.246-3.602-1.246-3.602-.032 3.602-.031 3.602h-4.767v-6.977zm-59.228-9.128c-1.36-.243-2.74-.953-3.314-1.705-.433-.567-.748-1.43-.85-2.325l-.082-.736h2.817c2.762 0 2.818.005 2.818.244 0 .345.318.919.59 1.064.434.233.958.144 1.328-.226.758-.758.397-1.022-2.64-1.924-3.138-.931-3.741-1.285-4.268-2.497-.48-1.105-.428-2.9.115-3.964.557-1.091 1.869-1.949 3.514-2.297 1.126-.239 3.85-.234 5.026.01 2.235.461 3.427 1.658 3.583 3.597l.06.746h-5.28v-.278c0-.41-.473-.796-.976-.796-.406 0-1.052.369-1.052.6 0 .299.622.6 1.947.945 2.949.767 3.89 1.156 4.695 1.94.772.752 1.036 1.475 1.038 2.836 0 .623-.07 1.348-.156 1.61-.45 1.364-1.53 2.35-3.163 2.88-.862.28-1.179.317-3.049.35-1.148.02-2.363-.014-2.701-.074 0 0 .338.06 0 0zm-38.8-.337c0-.056-.644-3.075-1.43-6.708-.788-3.633-1.432-6.727-1.432-6.876v-.27l2.59.031 2.59.032.477 3.601c.263 1.98.492 3.588.508 3.57.017-.016.247-1.502.511-3.302s.511-3.42.55-3.6l.068-.328h5.919l.125.745c.068.41.292 1.926.498 3.37.205 1.442.41 2.719.454 2.836.045.117.295-1.399.555-3.369l.473-3.582h2.597c2.394 0 2.597.016 2.598.208 0 .115-.657 3.255-1.46 6.977l-1.46 6.768h-6.235l-.126-.865c-.07-.475-.3-2.099-.51-3.607-.21-1.509-.417-2.783-.458-2.83-.041-.048-.31 1.575-.597 3.607l-.522 3.695h-3.14c-1.728 0-3.142-.047-3.142-.103 0 0 0 .056 0 0zm3.292-6.066c-.04-.04-.068.03-.062.156.005.14.034.167.072.072.034-.086.03-.189-.01-.228 0 0 .04.04 0 0zm17.34-.808v-6.976H47.24v3.935h-5.128v1.073h4.771v3.936h-4.771v1.073h5.367v3.936H36.508v-6.977zm33.39 1.968v-5.009H66.56v-3.935h12.404v3.935h-3.339v10.018H69.9V44.3zm12.403-1.968v-6.976h10.733v3.935h-5.128v1.073h4.771v3.936h-4.771v1.073h5.367v3.936H82.302v-6.977zm14.669 0v-6.976h4.824c5.067 0 5.652.047 6.624.54 1.115.563 1.544 1.386 1.548 2.964.002.583-.059 1.264-.133 1.514-.182.605-.732 1.254-1.32 1.553l-.477.244.503.249c.862.426 1.07.938 1.374 3.37.107.853.297 1.974.423 2.492.126.517.229.96.229.983 0 .024-1.286.044-2.858.044h-2.857l-.12-.448c-.067-.246-.231-1.198-.366-2.116-.278-1.895-.409-2.125-1.282-2.266l-.507-.08v4.91H96.97v-6.977zm7.103-1.742c.438-.439.492-.951.143-1.357-.237-.276-.41-.346-.965-.392l-.676-.056v2.206l.607-.058c.428-.041.69-.143.891-.343 0 0-.2.2 0 0zm9.831 1.742v-6.976h6.886l1.238 3.548 1.238 3.547.031-3.547.032-3.548h4.767V49.31h-6.862l-1.25-3.602-1.25-3.602-.032 3.602-.031 3.602h-4.767v-6.977zm0 0" fill="#DFAC16"/></g></svg>