<svg xmlns="http://www.w3.org/2000/svg" width="319.522" height="88"><g data-name="logo@2x"><path data-name="Rectangle 1" fill="none" d="M1.522 0h318v88h-318z"/><g data-name="Group 2"><g data-name="Group 1" transform="translate(1.522 11)"><path data-name="Path 1" d="M26.58 17.037a24.079 24.079 0 11-18.247 5.739" fill="none" stroke="#2b3405" stroke-linecap="round" stroke-linejoin="round" stroke-width="3"/><path data-name="Path 2" d="M29.156 56.572a16.1 16.1 0 01-15.492-27.483" fill="none" stroke="#2b3405" stroke-linecap="round" stroke-linejoin="round" stroke-width="3"/><circle data-name="Ellipse 1" cx="8.419" cy="8.419" r="8.419" transform="translate(18.691)" fill="#f5e2c6"/><path data-name="Path 3" d="M32.538 9.355a8.13 8.13 0 11-8.13-8.13" fill="none" stroke="#2b3405" stroke-linecap="round" stroke-linejoin="round" stroke-width="3"/></g><path data-name="Path 4" d="M66.433 44.209a22.693 22.693 0 016.191-16.687 19.812 19.812 0 0115.293-6.519q10.742 0 16.482 7.462l-3.362 2.952q-5.658-9.188-12.71-9.188-5.9 0-9.676 5.576t-3.772 14.6q0 9.676 4.141 15.129a12.926 12.926 0 0010.783 5.453 16.052 16.052 0 007.67-2.05 18.41 18.41 0 006.437-5.822l.984.574q-7.137 10.824-18.289 10.824a18.755 18.755 0 01-14.473-6.232q-5.699-6.232-5.699-16.072zm83.23 19.352v.492a12.668 12.668 0 01-6.806 2.05q-5.986 0-6.478-6.068a21.788 21.788 0 01-15.17 6.314 12.112 12.112 0 01-8.323-2.788 9.272 9.272 0 01-3.157-7.3 10.854 10.854 0 014.92-9.143q4.92-3.567 13.612-4.469l4.92-.492 3.116-.246v-4.672q0-6.806-2.46-10.168t-8.036-3.362q-6.4 0-12.3 4.92l-.738-.9a26.423 26.423 0 017.5-5.125 21.583 21.583 0 018.569-1.6q15.252 0 15.252 15.5v20.989q0 3.772.656 5t3.365 1.236q.246 0 1.558-.168zm-13.366-5.084V43.143q-9.594 1.066-14.224 3.731a8.723 8.723 0 00-4.633 8.077 8.426 8.426 0 002.214 6.232 7.872 7.872 0 005.819 2.214q5.74 0 10.824-4.92zm58.876-21.976v29.028h-7.79V36.337a20.312 20.312 0 00-1.722-8.528q-1.722-3.854-7.872-3.854-6.56 0-12.546 5.822v35.752h-7.79v-42.23l7.462-2.214h.328v7.052q7.544-7.134 15.908-7.134 14.022 0 14.022 15.498zm40.836-14.514h4.756q-4.674 9.43-11.07 24.6l-8.692 20.172h-.574l-19.27-44.772h8.364l14.514 33.866 4.264-9.758q6.806-15.744 7.708-24.108zm45.838 41.574v.492a12.668 12.668 0 01-6.806 2.05q-5.986 0-6.478-6.068a21.788 21.788 0 01-15.17 6.314 12.112 12.112 0 01-8.32-2.788 9.272 9.272 0 01-3.157-7.3 10.854 10.854 0 014.92-9.143q4.92-3.567 13.612-4.469l4.92-.492 3.116-.246v-4.672q0-6.806-2.46-10.168t-8.036-3.362q-6.4 0-12.3 4.92l-.738-.9a26.423 26.423 0 017.5-5.125 21.583 21.583 0 018.569-1.6q15.252 0 15.252 15.5v20.989q0 3.772.656 5t3.362 1.23q.246.006 1.558-.162zm-13.366-5.084V43.143q-9.594 1.066-14.227 3.731a8.723 8.723 0 00-4.633 8.077 8.426 8.426 0 002.214 6.232 7.872 7.872 0 005.822 2.214q5.74 0 10.824-4.92zm18.368 4.1l1.23-4.182a19.046 19.046 0 0015.088 6.97 12.015 12.015 0 007.749-2.336 7.38 7.38 0 002.911-6.027 7.226 7.226 0 00-2.419-5.33 33.84 33.84 0 00-7.749-4.182l-3.362-1.394a66.233 66.233 0 01-6.4-3.034q-6.224-3.773-6.224-10.087a10.526 10.526 0 014.223-8.61q4.223-3.362 11.029-3.362a27.967 27.967 0 0114.186 3.444l-1.148 3.854q-6.15-6.15-13.776-6.15a10.216 10.216 0 00-6.765 2.091 6.684 6.684 0 00-2.5 5.371 6.094 6.094 0 001.476 4.1 11.849 11.849 0 002.993 2.46 60.021 60.021 0 005.781 2.624l3.28 1.394a47.574 47.574 0 016.232 2.952q6.4 3.772 6.4 10.414a11.421 11.421 0 01-4.51 9.348q-4.519 3.608-12.227 3.608a35.219 35.219 0 01-8.487-1.066 22.289 22.289 0 01-7.011-2.87z" fill="#2b3405"/></g></g></svg>