<svg viewBox="0 0 111 100.8" xmlns="http://www.w3.org/2000/svg"><path d="M111 23.7H0V10.4h111zm-108-3h105v-7.4H3zm108 80.1H0V87.4h111zm-108-3h105v-7.4H3zm100.8-7.4H7.2V20.7h96.5v69.7zm-93.6-3h90.5V23.7H10.2zm27.4-74H16.4V3.9c0-2.1 1.7-3.9 3.9-3.9h13.5c2.1 0 3.9 1.7 3.9 3.9v9.5zm-18.2-3h15.2V3.9c0-.5-.4-.9-.9-.9H20.2c-.5 0-.9.4-.9.9v6.5zm75.3 3H73.4V3.9c0-2.1 1.7-3.9 3.9-3.9h13.4c2.1 0 3.9 1.7 3.9 3.9v9.5zm-18.3-3h15.2V3.9c0-.5-.4-.9-.9-.9H77.3c-.5 0-.9.4-.9.9zM25.5 27.5h3v11.7h-3zm-4.4 4.4h11.7v3H21.1zm57.1 0h11.7v3H78.2zM47.9 79.2c-.2 0-.5-.1-.7-.2-.6-.3-.9-1.1-.7-1.8l5.7-16.7-9.2-.1c-.6 0-1.1-.3-1.3-.8s-.2-1.1.2-1.6l19.9-25.7c.4-.6 1.3-.7 1.9-.4s.9 1.1.7 1.8l-5.7 16.7 9.2.1c.6 0 1.1.3 1.3.8s.2 1.1-.2 1.6L49.1 78.7c-.3.3-.7.5-1.2.5zm-1.7-21.6l8.2.1c.5 0 .9.2 1.2.6s.4.9.2 1.4l-3.5 10.1 12.5-16.1-8.2-.1c-.5 0-.9-.2-1.2-.6s-.4-.9-.2-1.4l3.5-10.1z" fill="#344154"/></svg>