<svg viewBox="0 0 113.8 104.7" xmlns="http://www.w3.org/2000/svg"><path d="M56.9 104.7c-26.4 0-47.8-21.4-47.8-47.8S30.5 9.1 56.9 9.1s47.8 21.4 47.8 47.8c0 26.3-21.5 47.8-47.8 47.8zm0-92.6c-24.7 0-44.8 20.1-44.8 44.8s20.1 44.8 44.8 44.8 44.8-20.1 44.8-44.8-20.1-44.8-44.8-44.8zm55.3 46.3c-.8 0-1.5-.7-1.5-1.5-.3-29.5-24.4-53.2-53.8-53.2h-.7C42 3.9 28.8 9.5 18.8 19.5S3.2 42.8 3 56.9c0 .8-.7 1.5-1.5 1.5S0 57.7 0 56.9c.2-14.9 6.1-29 16.7-39.5S41.2.9 56.1.7c31.4-.4 57.2 24.8 57.6 56.1.1.9-.6 1.6-1.5 1.6.1 0 .1 0 0 0zM56.9 63c-3.3 0-6.1-2.7-6.1-6.1 0-3.3 2.7-6.1 6.1-6.1 3.3 0 6.1 2.7 6.1 6.1 0 3.3-2.8 6.1-6.1 6.1zm0-9.2c-1.7 0-3.1 1.4-3.1 3.1s1.4 3.1 3.1 3.1 3.1-1.4 3.1-3.1-1.4-3.1-3.1-3.1zm0-27.7c-.8 0-1.5-.7-1.5-1.5v-7c0-.8.7-1.5 1.5-1.5s1.5.7 1.5 1.5v7c0 .8-.7 1.5-1.5 1.5zm-10 1.6c-.6 0-1.2-.4-1.4-1L43.3 20c-.3-.8.2-1.6 1-1.9s1.6.2 1.9 1l2.2 6.7c.3.8-.2 1.6-1 1.9-.2-.1-.4 0-.5 0zm-9 4.5c-.5 0-.9-.2-1.2-.6L32.6 26c-.5-.7-.3-1.6.3-2.1.7-.5 1.6-.3 2.1.3l4.1 5.7c.5.7.3 1.6-.3 2.1-.3.1-.6.2-.9.2zm-7.2 7.2c-.3 0-.6-.1-.9-.3L24.2 35c-.7-.5-.8-1.4-.3-2.1s1.4-.8 2.1-.3l5.7 4.1c.7.5.8 1.4.3 2.1-.3.4-.8.6-1.3.6zm-4.5 9c-.2 0-.3 0-.5-.1L19 46.2c-.8-.3-1.2-1.1-1-1.9.3-.8 1.1-1.2 1.9-1l6.6 2.2c.8.3 1.2 1.1 1 1.9-.1.6-.7 1-1.3 1zm-1.6 10h-7c-.8 0-1.5-.7-1.5-1.5s.7-1.5 1.5-1.5h7c.8 0 1.5.7 1.5 1.5s-.7 1.5-1.5 1.5zm-5.1 12.1c-.6 0-1.2-.4-1.4-1-.3-.8.2-1.6 1-1.9l6.6-2.2c.8-.3 1.6.2 1.9 1s-.2 1.6-1 1.9L20 70.4c-.2.1-.3.1-.5.1zm5.6 11c-.5 0-.9-.2-1.2-.6-.5-.7-.3-1.6.3-2.1l5.7-4.1c.7-.5 1.6-.3 2.1.3.5.7.3 1.6-.3 2.1L26 81.2c-.3.2-.6.3-.9.3zm63.6 0c-.3 0-.6-.1-.9-.3l-5.7-4.1c-.7-.5-.8-1.4-.3-2.1s1.4-.8 2.1-.3l5.7 4.1c.7.5.8 1.4.3 2.1-.3.4-.8.6-1.2.6zm5.6-11c-.2 0-.3 0-.5-.1l-6.7-2.2c-.8-.3-1.2-1.1-1-1.9.3-.8 1.1-1.2 1.9-1l6.7 2.2c.8.3 1.2 1.1 1 1.9-.2.7-.8 1.1-1.4 1.1zm1.9-12.1h-7c-.8 0-1.5-.7-1.5-1.5s.7-1.5 1.5-1.5h7c.8 0 1.5.7 1.5 1.5s-.7 1.5-1.5 1.5zm-8.6-10c-.6 0-1.2-.4-1.4-1-.3-.8.2-1.6 1-1.9l6.7-2.2c.8-.3 1.6.2 1.9 1s-.2 1.6-1 1.9l-6.7 2.2h-.5zm-4.6-9c-.5 0-.9-.2-1.2-.6-.5-.7-.3-1.6.3-2.1l5.7-4.1c.7-.5 1.6-.3 2.1.3.5.7.3 1.6-.3 2.1l-5.7 4.1c-.3.2-.6.3-.9.3zm-7.1-7.2c-.3 0-.6-.1-.9-.3-.7-.5-.8-1.4-.3-2.1l4.1-5.7c.5-.7 1.4-.8 2.1-.3s.8 1.4.3 2.1l-4.1 5.7c-.3.4-.8.6-1.2.6zm-9-4.5c-.2 0-.3 0-.5-.1-.8-.3-1.2-1.1-1-1.9l2.2-6.7c.3-.8 1.1-1.2 1.9-1 .8.3 1.2 1.1 1 1.9l-2.2 6.7c-.2.7-.8 1.1-1.4 1.1zm-10 26.1c-.8 0-1.5-.7-1.5-1.5V33.8c0-.8.7-1.5 1.5-1.5s1.5.7 1.5 1.5v18.5c0 .8-.7 1.5-1.5 1.5zm0 13.5c-2.7 0-5.3-1-7.3-3-.6-.6-.6-1.5 0-2.1s1.5-.6 2.1 0c2.9 2.9 7.6 2.9 10.4 0 .6-.6 1.5-.6 2.1 0s.6 1.5 0 2.1c-2 1.9-4.7 3-7.3 3zm15.5 24.4h-31V75.5h31zm-28-3h25V78.5h-25zm4.3-6.6h3v3h-3zm6.7 0h3v3h-3zm6.7 0h3v3h-3z" fill="#344154"/></svg>