<svg viewBox="0 0 83.8 125.8" xmlns="http://www.w3.org/2000/svg"><path d="M50 8.4h-3V8c0-2.8-2.3-5-5-5s-5 2.2-5 5v.4h-3V8c0-4.4 3.6-8 8-8s8 3.6 8 8zM31.4 27.9h-.9c-2.1 0-3.9-1.7-3.9-3.9V10.2c0-1.8 1.5-3.3 3.3-3.3H53c1.8 0 3.3 1.5 3.3 3.3V24c-.1 2.2-1.8 3.9-3.9 3.8-1.9 0-3.5-1.4-3.8-3.3v-.4c-.5-3.3-3.3-5.7-6.7-5.7s-6.2 2.5-6.7 5.8v.4c-.3 1.8-1.9 3.3-3.8 3.3zm-1.5-18c-.2 0-.3.1-.3.3V24c0 .5.4.9.9.9h.9c.4 0 .7-.3.8-.6V24c.6-4.8 4.8-8.5 9.7-8.5 4.9-.1 9 3.6 9.7 8.4v.4c.1.4.4.6.8.6.5 0 .9-.4.9-.8V10.4c0-.2-.1-.3-.3-.3H29.9zm-22 116c-4.3 0-7.9-3.5-7.9-7.9V20.3c0-4.3 3.5-7.9 7.9-7.9h20.2v3H7.9c-2.7 0-4.9 2.2-4.9 4.9V118c0 2.7 2.2 4.9 4.9 4.9H76c2.7 0 4.8-2.2 4.8-4.9V20.3c0-2.7-2.2-4.9-4.8-4.9H54.8v-3H76c4.3 0 7.8 3.6 7.8 7.9V118c0 4.3-3.5 7.8-7.8 7.9zm48.6-9.5H9.4v-93h3v90h42.9l16.1-16.1V23.4h3v75.1zm-29.3-44l-4.7-4.7 2.1-2.1 2.6 2.5 6.4-6.8 2.2 2.1zm-4.28-25.2l8.92-8.92 2.12 2.12-8.92 8.9zm-.07-6.87l2.12-2.12 8.92 8.92-2.13 2.12zm.01 52.77l8.9-8.9 2.13 2.13-8.92 8.9zm0-6.77l2.12-2.12 8.9 8.9-2.1 2.13zM39.2 46.7H65v3H39.2zm0 22.6H65v3H39.2z" fill="#344154"/></svg>