<svg viewBox="0 0 88.9 109" xmlns="http://www.w3.org/2000/svg"><path d="M12.2 52h48.7v3H12.2zM73 109H0v-1.5C0 99.5 6.5 93 14.5 93h44c8 0 14.5 6.5 14.5 14.5zm-69.9-3h66.8c-.7-5.6-5.6-10-11.4-10h-44c-5.8 0-10.7 4.4-11.4 10zm59.2-10H10.7V11.3C10.7 5.1 15.8 0 22 0h29c6.2 0 11.3 5.1 11.3 11.3zm-48.6-3h45.7V11.3C59.3 6.7 55.6 3 51 3H22c-4.6 0-8.3 3.7-8.3 8.3zm40.1-60.9H19.2V11h34.7v21.1zm-31.6-3h28.7V14H22.2zm-3 8.8h3v3h-3zm7.9 0h3v3h-3zm7.9 0h3v3h-3zm7.9 0h3v3h-3zm7.9 0h3v3h-3zm28.7 46.4c-5.2 0-9.5-4.3-9.5-9.5V36.3c0-4.1-3.3-7.4-7.4-7.4h-1.8v-3h1.8c5.7 0 10.4 4.7 10.4 10.4v38.5c0 3.6 2.9 6.5 6.5 6.5s6.5-2.9 6.5-6.5V21.2c0-2.6-1.3-4.9-3.5-6.3L68.5 6l1.6-2.5 14 8.9c3 1.9 4.8 5.2 4.8 8.8v53.6c.1 5.2-4.2 9.5-9.4 9.5zm7.2-53.6l-4.8-2.6c-3.5-1.9-5.6-5.5-5.6-9.4v-8.4h3v8.4c0 2.8 1.5 5.4 4 6.8l4.8 2.6z" fill="#344154"/></svg>