<svg viewBox="0 0 127.2 81.8" xmlns="http://www.w3.org/2000/svg"><path d="M19.5 23.2H3.7c-2.1 0-3.7-1.7-3.7-3.7V3.7C0 1.7 1.7 0 3.7 0h15.7c2.1 0 3.7 1.7 3.7 3.7v15.7c.1 2.1-1.6 3.8-3.6 3.8zM3.7 3c-.4 0-.7.3-.7.7v15.7c0 .4.3.7.7.7h15.7c.4 0 .7-.3.7-.7V3.7c0-.4-.3-.7-.7-.7zm15.8 78.8H3.7c-2.1 0-3.7-1.7-3.7-3.7V62.4c0-2.1 1.7-3.7 3.7-3.7h15.7c2.1 0 3.7 1.7 3.7 3.7v15.7c.1 2.1-1.6 3.7-3.6 3.7zM3.7 61.7c-.4 0-.7.3-.7.7v15.7c0 .4.3.7.7.7h15.7c.4 0 .7-.3.7-.7V62.4c0-.4-.3-.7-.7-.7zm50.4-38.5H38.4c-2.1 0-3.7-1.7-3.7-3.7V3.7c0-2.1 1.7-3.7 3.7-3.7h15.7c2.1 0 3.7 1.7 3.7 3.7v15.7c.1 2.1-1.6 3.8-3.7 3.8zM38.4 3c-.4 0-.7.3-.7.7v15.7c0 .4.3.7.7.7h15.7c.4 0 .7-.3.7-.7V3.7c0-.4-.3-.7-.7-.7zm15.7 78.8H38.4c-2.1 0-3.7-1.7-3.7-3.7V62.4c0-2.1 1.7-3.7 3.7-3.7h15.7c2.1 0 3.7 1.7 3.7 3.7v15.7c.1 2.1-1.6 3.7-3.7 3.7zM38.4 61.7c-.4 0-.7.3-.7.7v15.7c0 .4.3.7.7.7h15.7c.4 0 .7-.3.7-.7V62.4c0-.4-.3-.7-.7-.7zm50.4-38.5H73.1c-2.1 0-3.7-1.7-3.7-3.7V3.7c0-2 1.6-3.7 3.7-3.7h15.7c2.1 0 3.7 1.7 3.7 3.7v15.7c0 2.1-1.6 3.8-3.7 3.8zM73.1 3c-.4 0-.7.3-.7.7v15.7c0 .4.3.7.7.7h15.7c.4 0 .7-.3.7-.7V3.7c0-.4-.3-.7-.7-.7zm15.7 78.8H73.1c-2.1 0-3.7-1.7-3.7-3.7V62.4c0-2.1 1.7-3.7 3.7-3.7h15.7c2.1 0 3.7 1.7 3.7 3.7v15.7c0 2.1-1.6 3.7-3.7 3.7zM73.1 61.7c-.4 0-.7.3-.7.7v15.7c0 .4.3.7.7.7h15.7c.4 0 .7-.3.7-.7V62.4c0-.4-.3-.7-.7-.7zm50.4 20.1h-15.7c-2.1 0-3.7-1.7-3.7-3.7V62.4c0-2.1 1.7-3.7 3.7-3.7h15.7c2.1 0 3.7 1.7 3.7 3.7v15.7c0 2.1-1.6 3.7-3.7 3.7zm-15.7-20.1c-.4 0-.7.3-.7.7v15.7c0 .4.3.7.7.7h15.7c.4 0 .7-.3.7-.7V62.4c0-.4-.3-.7-.7-.7zm9.4-1.5h-3V41.5H11.6v-3h105.6zM10.1 21.7h3v38.5h-3zm34.7 0h3v38.5h-3zm34.7 0h3v38.5h-3zM10.1 9.9h3v3.4h-3zm0 58.7h3V72h-3zM44.8 9.9h3v3.4h-3zm0 58.7h3V72h-3zM79.5 9.9h3v3.4h-3zm0 58.7h3V72h-3zm34.7 0h3V72h-3z" fill="#344154"/></svg>