<svg xmlns="http://www.w3.org/2000/svg" width="1104.469" height="797.515"><defs><linearGradient id="a" x1="-.259" y1=".088" x2="1.139" y2=".822" gradientUnits="objectBoundingBox"><stop offset="0" stop-color="#76e650"/><stop offset=".177" stop-color="#f9d649"/><stop offset=".389" stop-color="#f08e35"/><stop offset=".635" stop-color="#ec5157"/><stop offset=".813" stop-color="#ff18bd"/><stop offset="1" stop-color="#1a4bff"/></linearGradient></defs><path data-name="Rectangle 4" fill="#3f3d56" d="M959.049 388.464h9.832v388.345h-9.832z"/><path data-name="Path 6" d="M1059.614 437.958c.626 135.795-94.913 246.321-94.913 246.321s-96.553-109.641-97.179-245.435 94.912-246.325 94.912-246.325 96.554 109.639 97.18 245.439z" fill="#3f3d56"/><path data-name="Rectangle 5" fill="#3f3d56" d="M767.244 571.186h5.057v199.735h-5.057z"/><path data-name="Path 7" d="M818.967 596.64c.322 69.842-48.816 126.689-48.816 126.689s-49.66-56.391-49.982-126.233 48.816-126.689 48.816-126.689 49.66 56.391 49.982 126.233z" fill="#3f3d56"/><ellipse data-name="Ellipse 1" cx="137" cy="21" rx="137" ry="21" transform="translate(734.969 755.515)" fill="#eaeaea"/><path data-name="Path 8" d="M883.268 287.082c-11.607-19.612-34.57-20.526-34.57-20.526s-22.376-2.861-36.731 27.008c-13.379 27.841-31.845 54.722-2.973 61.239l5.215-16.232 3.23 17.44a112.969 112.969 0 0012.353.211c30.919-1 60.366.292 59.418-10.8-1.261-14.753 5.224-39.47-5.942-58.34z" fill="#2f2e41"/><path data-name="Path 9" d="M841.468 324.016s15 21 6 38 21 35 21 35l22-48s-26-17-19-33z" fill="#fbbebe"/><circle data-name="Ellipse 2" cx="26" cy="26" r="26" transform="translate(825.469 281.015)" fill="#fbbebe"/><path data-name="Path 10" d="M761.489 337.071l21.728-28.034s7.651-29.385 18.731-27.9-4.377 35.24-4.377 35.24l-21.589 31.031z" fill="#fbbebe"/><path data-name="Path 11" d="M871.469 710.015l7 37 15 4-4-44z" fill="#fbbebe"/><path data-name="Path 12" d="M1022.469 670.015l27 37 11 5 9-15-27-35z" fill="#fbbebe"/><path data-name="Path 13" d="M865.468 381.016l-16.681-21.958s-32.319 5.959-35.319 8.959 8 58 8 58 2 15 11 23l9 6 74-15 2.782-32.926a86.41 86.41 0 00-22.782-66.074l-12.876 1.76z" fill="#f08e35"/><path data-name="Path 14" d="M817.468 370.016l-5-2-23-2s-8-2-6-6 4-5 0-6-5-2-4-5 7-9 7-9l-17-14s-.92.651-2.407 1.855c-8.44 6.834-35.147 31.489-15.593 56.145 23 29 50 46 72 40z" fill="#f08e35"/><path data-name="Path 15" d="M839.468 450.016v14s-9 17-6 33 4 24 4 24a136.533 136.533 0 007 40c7 20-16 151 13 153s45 4 54-6-15-182-15-182 82 171 99 164 60-23 55-32-131-209-131-209l-4-9z" fill="#1a4bff"/><path data-name="Path 16" d="M887.468 740.016s-16-1-16 4-8 22-8 22-6 20 10 18 26-20 26-20l-4-19z" fill="#2f2e41"/><path data-name="Path 17" d="M1054.468 705.016s-14-9-13-3 2 22 9 23 28 7 29 9 25 10 25-3-15-23-15-23l-17-13s-11-1-13 6-5 4-5 4z" fill="#2f2e41"/><circle data-name="Ellipse 3" cx="16.604" cy="16.604" r="16.604" transform="translate(834.904 250.051)" fill="#2f2e41"/><path data-name="Path 18" d="M833.156 262.286a16.6 16.6 0 0114.854-16.51 16.778 16.778 0 00-1.746-.094 16.6 16.6 0 101.748 33.114 16.6 16.6 0 01-14.856-16.51z" fill="#2f2e41"/><path data-name="Path 19" d="M878.136 285.191l-22.686-11.884-31.33 4.862-6.482 28.631 16.136-.621 4.508-10.517V306l7.445-.286 4.321-16.745 2.7 17.825 26.468-.54z" fill="#2f2e41"/><path data-name="Path 20" d="M876.778 452.332l-34.987.946s-29.854 5.809-28.179-6.241 30.8-7.835 30.8-7.835l31.88-4.863z" fill="#fbbebe"/><path data-name="Path 21" d="M904.46 339.32a7.467 7.467 0 018.236 5.128c6.849 21.584 27.951 93.813 6.985 103.723-24.694 11.672-42.714 11.158-42.714 11.158l-9.645-23.748 8.781-8.24 9.374-60.275 4.492-25.55z" fill="#f08e35"/><path data-name="Path 22" d="M897.969 379.515l-4 40-35 15 39-9z" opacity=".4"/><path data-name="Path 23" d="M709.214 247.463a46.84 46.84 0 0127.352 19.87l3.271 5.066.165.21 57.385 16.791a4.183 4.183 0 012.861 5.115l-4.455 16.335a4.183 4.183 0 01-5.162 2.928l-57.397-16.045-5.765 2.18a51.515 51.515 0 01-33.122 1.126z" fill="#3f3d56"/><ellipse data-name="Ellipse 4" cx="3.504" cy="6.57" rx="3.504" ry="6.57" transform="rotate(-73.69 574.539 -357.237)" fill="#575a89"/><circle data-name="Ellipse 5" cx="2.409" cy="2.409" r="2.409" transform="translate(764.307 291.731)" fill="#3f3d56"/><ellipse data-name="Ellipse 6" cx="28.09" cy="12.703" rx="28.09" ry="12.703" transform="rotate(-72.05 545.178 -319.788)" fill="#6c63ff"/><path data-name="Path 24" d="M712.228 277.882c4.611-14.22 3.357-27.472-2.711-30.355a5.888 5.888 0 011.076.238c6.673 2.164 8.2 15.881 3.419 30.639s-14.074 24.967-20.748 22.8a5.87 5.87 0 01-.708-.284c6.564.838 15.139-9.062 19.672-23.038z" opacity=".4"/><path data-name="Path 25" d="M757.734 298.758L627.5 197.732a861.957 861.957 0 01-66.215-57.385c-37.125-35.388-87.524-63.681-146.2-78.744C272.519 25 159.582 89.9 108.214 185.181 29.72 330.785-30.436 567.06 317.608 441.291c76.117-27.506 153.165-30.429 211.586-44.918l211.54-43.616z" transform="translate(-47.766 -51.242)" fill="url(#a)"/><circle data-name="Ellipse 7" cx="7" cy="7" r="7" transform="translate(311.969 63.515)" fill="#f2f2f2"/><path data-name="Path 26" d="M454.949 86.695h-1.822v-1.822h-.356v1.822h-1.822v.356h1.822v1.822h.356v-1.822h1.822z" fill="#f2f2f2"/><path data-name="Path 27" d="M637.949 238.7h-1.822v-1.822h-.356v1.822h-1.822v.356h1.822v1.822h.356v-1.822h1.822z" fill="#f2f2f2"/><path data-name="Path 28" d="M624.949 285.7h-1.822v-1.822h-.356v1.822h-1.822v.356h1.822v1.822h.356v-1.822h1.822z" fill="#f2f2f2"/><path data-name="Path 29" d="M65.949 325.7h-1.822v-1.822h-.356v1.822h-1.822v.356h1.822v1.822h.356v-1.822h1.822z" fill="#f2f2f2"/><path data-name="Path 30" d="M145.949 107.695h-1.822v-1.822h-.356v1.822h-1.822v.356h1.822v1.822h.356v-1.822h1.822z" fill="#f2f2f2"/><path data-name="Path 31" d="M456.949 293.7h-1.822v-1.822h-.356v1.822h-1.822v.356h1.822v1.822h.356v-1.822h1.822z" fill="#f2f2f2"/><path data-name="Path 32" d="M265.949 43.695h-1.822v-1.822h-.356v1.822h-1.822v.356h1.822v1.822h.356v-1.822h1.822z" fill="#f2f2f2"/><path data-name="Path 33" d="M266.649 187.673l-2.27.35c.71 4.54 1.27 9.18 1.68 13.77l2.29-.2a211.5 211.5 0 00-1.7-13.92z" fill="#e6e6e6"/><path data-name="Path 34" d="M260.434 160.333l-2.2.67c1.33 4.4 2.52 8.91 3.53 13.4l2.25-.51a199.619 199.619 0 00-3.58-13.56z" fill="#e6e6e6"/><path data-name="Path 35" d="M250.529 134.113l-2.09.96c1.92 4.19 3.72 8.49 5.35 12.79l2.15-.81a203.02 203.02 0 00-5.41-12.94z" fill="#e6e6e6"/><path data-name="Path 36" d="M237.129 109.533l-1.94 1.23c2.47 3.88 4.84 7.9 7.04 11.93l2.02-1.1c-2.22-4.08-4.62-8.135-7.12-12.06z" fill="#e6e6e6"/><path data-name="Path 37" d="M220.469 87.003l-1.75 1.49c2.98 3.5 5.88 7.16 8.62 10.86l1.84-1.37c-2.76-3.74-5.69-7.44-8.71-10.98z" fill="#e6e6e6"/><path data-name="Path 38" d="M200.889 66.943l-1.53 1.71c3.44 3.07 6.81 6.3 10.02 9.59l1.65-1.61c-3.25-3.33-6.66-6.59-10.14-9.69z" fill="#e6e6e6"/><path data-name="Path 39" d="M178.769 49.723l-1.29 1.9c3.82 2.57 7.6 5.31 11.23 8.14l1.42-1.81c-3.68-2.86-7.5-5.63-11.36-8.23z" fill="#e6e6e6"/><path data-name="Path 40" d="M158.634 37.763v2.6c2.39 1.25 4.76 2.56 7.08 3.9l1.15-1.99q-4.045-2.34-8.23-4.51z" fill="#e6e6e6"/><path data-name="Path 41" d="M266.804 215.979l2.3-.042c.042 2.321.045 4.655.009 6.936l-2.3-.036c.035-2.255.032-4.563-.009-6.858z" fill="#e6e6e6"/><path data-name="Path 42" d="M131.649 384.673l-2.27.35c.71 4.54 1.27 9.18 1.68 13.77l2.29-.2a211.5 211.5 0 00-1.7-13.92z" fill="#e6e6e6"/><path data-name="Path 43" d="M125.434 357.333l-2.2.67c1.33 4.4 2.52 8.91 3.53 13.4l2.25-.51a199.619 199.619 0 00-3.58-13.56z" fill="#e6e6e6"/><path data-name="Path 44" d="M115.529 331.113l-2.09.96c1.92 4.19 3.72 8.49 5.35 12.79l2.15-.81a203.02 203.02 0 00-5.41-12.94z" fill="#e6e6e6"/><path data-name="Path 45" d="M102.129 306.533l-1.94 1.23c2.47 3.88 4.84 7.9 7.04 11.93l2.02-1.1c-2.22-4.08-4.62-8.135-7.12-12.06z" fill="#e6e6e6"/><path data-name="Path 46" d="M85.469 284.003l-1.75 1.49c2.98 3.5 5.88 7.16 8.62 10.86l1.84-1.37c-2.76-3.74-5.69-7.44-8.71-10.98z" fill="#e6e6e6"/><path data-name="Path 47" d="M65.889 263.943l-1.53 1.71c3.44 3.07 6.81 6.3 10.02 9.59l1.65-1.61c-3.25-3.33-6.66-6.59-10.14-9.69z" fill="#e6e6e6"/><path data-name="Path 48" d="M43.769 246.723l-1.29 1.9c3.82 2.57 7.6 5.31 11.23 8.14l1.42-1.81c-3.68-2.86-7.5-5.63-11.36-8.23z" fill="#e6e6e6"/><path data-name="Path 49" d="M23.634 234.763v2.6c2.39 1.25 4.76 2.56 7.08 3.9l1.15-1.99q-4.045-2.34-8.23-4.51z" fill="#e6e6e6"/><path data-name="Path 50" d="M131.804 412.979l2.3-.042c.042 2.321.045 4.655.009 6.936l-2.3-.036c.035-2.255.032-4.563-.009-6.858z" fill="#e6e6e6"/><path data-name="Path 51" d="M593.649 285.673l-2.27.35c.71 4.54 1.27 9.18 1.68 13.77l2.29-.2a211.5 211.5 0 00-1.7-13.92z" fill="#e6e6e6"/><path data-name="Path 52" d="M587.434 258.333l-2.2.67c1.33 4.4 2.52 8.91 3.53 13.4l2.25-.51a199.619 199.619 0 00-3.58-13.56z" fill="#e6e6e6"/><path data-name="Path 53" d="M577.529 232.113l-2.09.96c1.92 4.19 3.72 8.49 5.35 12.79l2.15-.81a203.02 203.02 0 00-5.41-12.94z" fill="#e6e6e6"/><path data-name="Path 54" d="M564.129 207.533l-1.94 1.23c2.47 3.88 4.84 7.9 7.04 11.93l2.02-1.1c-2.22-4.08-4.62-8.135-7.12-12.06z" fill="#e6e6e6"/><path data-name="Path 55" d="M547.469 185.003l-1.75 1.49c2.98 3.5 5.88 7.16 8.62 10.86l1.84-1.37c-2.76-3.74-5.69-7.44-8.71-10.98z" fill="#e6e6e6"/><path data-name="Path 56" d="M527.889 164.943l-1.53 1.71c3.44 3.07 6.81 6.3 10.02 9.59l1.65-1.61c-3.25-3.33-6.66-6.59-10.14-9.69z" fill="#e6e6e6"/><path data-name="Path 57" d="M505.769 147.723l-1.29 1.9c3.82 2.57 7.6 5.31 11.23 8.14l1.42-1.81c-3.68-2.86-7.5-5.63-11.36-8.23z" fill="#e6e6e6"/><path data-name="Path 58" d="M485.634 135.763v2.6c2.39 1.25 4.76 2.56 7.08 3.9l1.15-1.99q-4.045-2.34-8.23-4.51z" fill="#e6e6e6"/><path data-name="Path 59" d="M593.804 313.979l2.3-.042c.042 2.321.045 4.655.009 6.936l-2.3-.036c.035-2.255.032-4.563-.009-6.858z" fill="#e6e6e6"/><path data-name="Path 60" d="M149.295 199.9H147.6v-1.7h-.331v1.7h-1.7v.33h1.7v1.7h.331v-1.7h1.695z" fill="#f2f2f2"/><path data-name="Path 61" d="M129.754 302.252h-1.695v-1.7h-.331v1.7h-1.7v.331h1.7v1.7h.331v-1.7h1.695z" fill="#f2f2f2"/><path data-name="Path 62" d="M72.417 391.959h-1.7v-1.7h-.327v1.7h-1.695v.331h1.695v1.7h.331v-1.7h1.7z" fill="#f2f2f2"/><path data-name="Path 63" d="M231.918 278.183a122.811 122.811 0 1156.982 45.751 39.726 39.726 0 11-56.982-45.751z" fill="#3f3d56"/><path data-name="Path 64" d="M333.128 139.437c28.154 0 47.524 15.616 47.524 38.064 0 14.865-7.207 25.151-21.1 33.334-13.063 7.583-17.493 13.139-17.493 22.748a5.931 5.931 0 01-5.931 5.931h-14.394a5.931 5.931 0 01-5.927-5.724l-.026-.732c-1.276-15.466 4.129-25.076 17.718-33.034 12.688-7.583 18.019-12.388 18.019-21.7s-9.009-16.142-20.2-16.142c-8.5 0-15.231 4.139-18.318 10.9a13.252 13.252 0 01-12.112 7.573c-9.752 0-16.194-10.371-11.634-18.99 7.223-13.636 22.445-22.228 43.874-22.228zM313.382 268.12c0-8.634 7.207-15.466 16.067-15.466 8.934 0 16.142 6.757 16.142 15.466s-7.207 15.466-16.142 15.466-16.067-6.757-16.067-15.466z" fill="#fff"/></svg>