<svg xmlns="http://www.w3.org/2000/svg" width="1927.45" height="814.92"><g data-name="Group 2"><path data-name="Rectangle 4" fill="none" d="M0 10.92h1920v804H0z"/><g data-name="Group 1" fill="rgba(255,255,255,0.31)"><path d="M1844.005 147.401c2.619 1.868 3.714 5.883 3.285 9.318-.429 3.414-2.383 6.248-3.951 9.6-1.567 3.371-2.748 7.279-5.368 9.018s-6.7 1.31-9.576-.537c-2.9-1.846-4.616-5.11-6.892-8.352-2.254-3.264-5.089-6.527-5.11-9.812-.021-3.264 2.748-6.57 5.99-8.331s6.978-1.975 10.907-2.233 8.095-.539 10.715 1.329z"/><path data-name="blob" d="M1852.005 220.401c2.619 1.868 3.714 5.883 3.285 9.318-.429 3.414-2.383 6.248-3.951 9.6-1.567 3.371-2.748 7.279-5.368 9.018s-6.7 1.31-9.576-.537c-2.9-1.846-4.616-5.11-6.892-8.352-2.254-3.264-5.089-6.527-5.11-9.812-.021-3.264 2.748-6.57 5.99-8.331s6.978-1.975 10.907-2.233 8.095-.539 10.715 1.329zm61.509-90.568c11.094 2.36 6.379 9.219 5.95 12.654-.429 3.414-4.382 6.2-5.95 9.554-1.567 3.371-3.414 3.986-6.033 5.725s-6.7 1.31-9.576-.537c-2.9-1.846-4.616-5.11-6.892-8.352-2.254-3.264-5.089-6.527-5.11-9.812-.021-3.264 2.748-6.57 5.99-8.331s6.978-1.975 10.907-2.233-.38-1.028 10.714 1.332zm-11 91c11.094 2.36 6.379 9.219 5.95 12.654-.429 3.414-4.382 6.2-5.95 9.554-1.567 3.371-3.414 3.986-6.033 5.725s-6.7 1.31-9.576-.537c-2.9-1.846-4.616-5.11-6.892-8.352-2.254-3.264-5.089-6.527-5.11-9.812-.021-3.264 2.748-6.57 5.99-8.331s6.978-1.975 10.907-2.233-.38-1.028 10.714 1.332zm-22.233-63.171c8.2 1.745 4.717 6.817 4.4 9.358-.318 2.525-3.241 4.588-4.4 7.065-1.159 2.493-2.525 2.948-4.462 4.234s-4.954.969-7.081-.4c-2.143-1.365-3.414-3.779-5.1-6.176-1.667-2.413-3.763-4.827-3.779-7.256-.016-2.413 2.032-4.859 4.43-6.161s5.16-1.461 8.066-1.651-.278-.759 7.926.987zm-61 28c8.2 1.745 4.717 6.817 4.4 9.358-.318 2.525-3.241 4.588-4.4 7.065-1.159 2.493-2.525 2.948-4.462 4.234s-4.954.969-7.081-.4c-2.143-1.365-3.414-3.779-5.1-6.176-1.667-2.413-3.763-4.827-3.779-7.256-.016-2.413 2.032-4.859 4.43-6.161s5.16-1.461 8.066-1.651-.278-.759 7.926.987zm7.919-108.534c7.581 7.464 6.379 9.219 5.95 12.654-6.312 4.42-4.382 6.2-5.95 9.554-1.567 3.371-3.414 3.986-6.033 5.725s-6.7 1.31-9.576-.537c-2.9-1.846-4.616-5.11-6.892-8.352-2.254-3.264-5.089-6.527-5.11-9.812-.021-3.264 2.748-6.57 5.99-8.331s6.978-1.975 10.907-2.233 3.133-6.132 10.714 1.332zm-35-62c7.581 7.464 6.379 9.219 5.95 12.654-6.312 4.42-4.382 6.2-5.95 9.554-1.567 3.371-3.414 3.986-6.033 5.725s-6.7 1.31-9.576-.537c-2.9-1.846-4.616-5.11-6.892-8.352-2.254-3.264-5.089-6.527-5.11-9.812-.021-3.264 2.748-6.57 5.99-8.331s6.978-1.975 10.907-2.233 3.133-6.132 10.714 1.332zm80.067 48.251c11.094 2.36 6.379 9.219 5.95 12.654-.429 3.414-4.382 6.2-5.95 9.554-1.567 3.371-3.414 3.986-6.033 5.725s-6.7 1.31-9.576-.537c-2.9-1.846-4.616-5.11-6.892-8.352-2.254-3.264-5.089-6.527-5.11-9.812-.021-3.264 2.748-6.57 5.99-8.331s6.978-1.975 10.907-2.233-.38-1.028 10.714 1.332zm-98-1c11.094 2.36 6.379 9.219 5.95 12.654-.429 3.414-4.382 6.2-5.95 9.554-1.567 3.371-3.414 3.986-6.033 5.725s-6.7 1.31-9.576-.537c-2.9-1.846-4.616-5.11-6.892-8.352-2.254-3.264-5.089-6.527-5.11-9.812-.021-3.264 2.748-6.57 5.99-8.331s6.978-1.975 10.907-2.233-.38-1.028 10.714 1.332zm104.874-38.72c11.094 2.36 6.379 9.219 5.95 12.654-.429 3.414-4.382 6.2-5.95 9.554-1.567 3.371-3.414 3.986-6.033 5.725s-6.7 1.31-9.576-.537c-2.9-1.846-4.616-5.11-6.892-8.352-2.254-3.264-5.089-6.527-5.11-9.812-.021-3.264 2.748-6.57 5.99-8.331s6.978-1.975 10.907-2.233-.38-1.028 10.714 1.332zm41-22c11.094 2.36 6.379 9.219 5.95 12.654-.429 3.414-4.382 6.2-5.95 9.554-1.567 3.371-3.414 3.986-6.033 5.725s-6.7 1.31-9.576-.537c-2.9-1.846-4.616-5.11-6.892-8.352-2.254-3.264-5.089-6.527-5.11-9.812-.021-3.264 2.748-6.57 5.99-8.331s6.978-1.975 10.907-2.233-.38-1.028 10.714 1.332zm-92.566 39.309c9.365 1.992 5.385 7.782 5.022 10.682-.362 2.882-3.7 5.238-5.022 8.065-1.323 2.846-2.882 3.365-5.093 4.833s-5.655 1.106-8.084-.453c-2.447-1.559-3.9-4.314-5.818-7.05-1.9-2.755-4.3-5.51-4.314-8.283-.018-2.755 2.32-5.546 5.057-7.032s5.89-1.667 9.207-1.885-.32-.869 9.045 1.123zm16-34c9.365 1.992 5.385 7.782 5.022 10.682-.362 2.882-3.7 5.238-5.022 8.065-1.323 2.846-2.882 3.365-5.093 4.833s-5.655 1.106-8.084-.453c-2.447-1.559-3.9-4.314-5.818-7.05-1.9-2.755-4.3-5.51-4.314-8.283-.018-2.755 2.32-5.546 5.057-7.032s5.89-1.667 9.207-1.885-.32-.869 9.045 1.123zm32.511 101.109c2.619 2.351 3.714 7.419 3.289 11.751-.429 4.305-2.383 7.88-3.951 12.1-1.567 4.251-19.56 4.251-21.836.162-2.254-4.116-5.089-8.232-5.11-12.375-.021-4.116 2.748-8.286 5.99-10.506s6.978-2.491 10.907-2.816 8.091-.672 10.711 1.684zm-73 33c2.619 2.351 3.714 7.419 3.289 11.751-.429 4.305-2.383 7.88-3.951 12.1-1.567 4.251-19.56 4.251-21.836.162-2.254-4.116-5.089-8.232-5.11-12.375-.021-4.116 2.748-8.286 5.99-10.506s6.978-2.491 10.907-2.816 8.091-.672 10.711 1.684zm114.247-56.311c2.619 1.868 3.714 5.883 3.285 9.318-.429 3.414-2.383 6.248-3.951 9.6-1.567 3.371-19.56 3.371-21.836.129-2.254-3.264-5.089-6.527-5.11-9.812-.021-3.264 2.748-6.57 5.99-8.331s6.978-1.975 10.907-2.233 8.095-.539 10.715 1.329zm-43 105c2.619 1.868 3.714 5.883 3.285 9.318-.429 3.414-2.383 6.248-3.951 9.6-1.567 3.371-19.56 3.371-21.836.129-2.254-3.264-5.089-6.527-5.11-9.812-.021-3.264 2.748-6.57 5.99-8.331s6.978-1.975 10.907-2.233 8.095-.539 10.715 1.329zm-40.258-73.683c2.619 1.868 3.714 5.883 3.285 9.318-.429 3.414-2.383 6.248-3.951 9.6-1.567 3.371-19.56 3.371-21.836.129-2.254-3.264-5.089-6.527-5.11-9.812-.021-3.264 2.748-6.57 5.99-8.331s3.279-4.125 10.907-2.233 8.095-.539 10.715 1.329zm-49-6c2.619 1.868 3.714 5.883 3.285 9.318-.429 3.414-2.383 6.248-3.951 9.6-1.567 3.371-19.56 3.371-21.836.129-2.254-3.264-5.089-6.527-5.11-9.812-.021-3.264 2.748-6.57 5.99-8.331s3.279-4.125 10.907-2.233 8.095-.539 10.715 1.329zm134.55-55.871c2.619 1.868 3.714 5.883 3.285 9.318-.429 3.414-2.383 6.248-3.951 9.6-1.567 3.371-19.56 3.371-21.836.129-2.254-3.264-5.089-6.527-5.11-9.812-.021-3.264 2.748-6.57 5.99-8.331s3.279-4.125 10.907-2.233 8.095-.539 10.715 1.329zm-3 124c2.619 1.868 3.714 5.883 3.285 9.318-.429 3.414-2.383 6.248-3.951 9.6-1.567 3.371-19.56 3.371-21.836.129-2.254-3.264-5.089-6.527-5.11-9.812-.021-3.264 2.748-6.57 5.99-8.331s3.279-4.125 10.907-2.233 8.095-.539 10.715 1.329z"/></g></g></svg>