<svg xmlns="http://www.w3.org/2000/svg" width="1901.057" height="986.194"><g data-name="Group 1" transform="translate(-17 -94.255)" opacity=".6"><path data-name="Path 6" d="M133.895 177.826s29.34 95.7 83.382 76.069 89.558 14.035 87.1 43.172" fill="none" stroke="#fed730" stroke-width="5" opacity=".588"/><path data-name="Path 7" d="M1817.645 320.434s20.552 149.981 52.136 108.142c17.624-23.346 36.32-54.011 46.838-64.873" fill="none" stroke="#e8a586" stroke-width="4" opacity=".6"/><path data-name="Path 8" d="M1397.951 925.033s42.621 89.17 108.532 99.013 116.57 18.268 113.374 56.193" fill="none" stroke="#EEE" stroke-width="5" opacity="0."/><circle data-name="Ellipse 1" cx="31.5" cy="31.5" r="31.5" transform="translate(1367 875)" fill="#DDD"/><path d="M841.561 297.067a80.448 80.448 0 11-80.439 80.448 80.444 80.444 0 0180.439-80.448z" fill="#94c0d4" opacity=".2"/><path data-name="Shape" d="M219.196 670.727a72.236 72.236 0 110-144.472z" fill="#94c0d4" opacity="0.7f"/><path data-name="Shape" d="M1637 765.214h94.851v94.861a94.832 94.832 0 01-36.3-7.221 94.858 94.858 0 01-30.77-20.564 94.868 94.868 0 01-20.561-30.776 94.869 94.869 0 01-7.22-36.3z" fill="#f11ec1" opacity=".7"/><path data-name="Shape" d="M1829.139 322.695a83.183 83.183 0 01-31.758-6.3 83.009 83.009 0 01-26.923-17.939 82.744 82.744 0 01-17.989-26.847 82.538 82.538 0 010-63.336 82.744 82.744 0 0117.989-26.847 83.009 83.009 0 0126.923-17.939 83.183 83.183 0 0131.758-6.3z" fill="#f45b0f" opacity=".15"/><path data-name="Shape" d="M451.286 120.585a54.516 54.516 0 0154.513 54.519v54.519H396.773v-54.519a54.516 54.516 0 0154.513-54.519z" fill="#e6e6e6" opacity=".2"/><path data-name="Shape" d="M843.291 937.515a109.037 109.037 0 01-8.3 41.727 109.045 109.045 0 01-23.633 35.373 109.031 109.031 0 01-35.37 23.636 109.013 109.013 0 01-41.722 8.301V937.515z" fill="#94c0d4" opacity=".2"/><path data-name="Shape" d="M1132.815 706.36a41.338 41.338 0 01-29.31-12.208 41.742 41.742 0 0113.448-67.979 41.249 41.249 0 0115.862-3.173z" fill="#ffd726" opacity=".2"/><path data-name="Shape" d="M1295.798 540a83.4 83.4 0 0131.845 6.318 83.236 83.236 0 0127 17.992 82.993 82.993 0 0118.036 26.927 82.8 82.8 0 010 63.526 82.991 82.991 0 01-18.039 26.927 83.234 83.234 0 01-27 17.992 83.4 83.4 0 01-31.842 6.318z" fill="#048ecb" opacity=".2"/><path data-name="Shape" d="M17 980.283a54.516 54.516 0 0154.513-54.519h54.513v109.037H71.513A54.516 54.516 0 0117 980.283z" fill="#ffd726" opacity=".8"/><path data-name="Shape" d="M175.775 178.025H92.014v-83.77a83.742 83.742 0 0132.054 6.377 83.772 83.772 0 0127.174 18.16 83.783 83.783 0 0118.157 27.176 83.767 83.767 0 016.376 32.057z" fill="#f5b540" opacity=".6"/></g></svg>