<svg id="Group_623" data-name="Group 623" xmlns="http://www.w3.org/2000/svg" width="41.437" height="116.884" viewBox="0 0 41.437 116.884">
  <path id="Path_1007" data-name="Path 1007" d="M7799.136,2908.2s26.666,7.13,33,0,3.052,27.889,2.159,32.375a20.531,20.531,0,0,1-2.159,6.473h-25.3l-3.8-2.051-5.629-4.422Z" transform="translate(-7795.803 -2832.2)" fill="rgba(100, 34, 34,.3)"/>
  <g id="Group_621" data-name="Group 621" transform="translate(0 15.651)">
    <path id="Path_882" data-name="Path 882" d="M200.027,169.081H181.956A11.7,11.7,0,0,1,170.273,157.4V114.184a11.71,11.71,0,0,1,1.534-5.791l11.5-18.352V69.978a2.13,2.13,0,1,1,4.26,0V90.652a2.122,2.122,0,0,1-.324,1.131l-11.785,18.8a7.387,7.387,0,0,0-.929,3.6V157.4a7.432,7.432,0,0,0,7.423,7.423h18.071a7.432,7.432,0,0,0,7.423-7.423V114.184a7.432,7.432,0,0,0-.976-3.681L194.736,91.783a2.124,2.124,0,0,1-.326-1.131V69.978a2.13,2.13,0,1,1,4.26,0V90.041l11.459,18.278a11.751,11.751,0,0,1,1.58,5.866V157.4A11.7,11.7,0,0,1,200.027,169.081Z" transform="translate(-170.273 -67.848)" fill="rgba(100, 34, 34,1)"/>
  </g>
  <g id="Group_622" data-name="Group 622" transform="translate(13.038)">
    <path id="Path_883" data-name="Path 883" d="M189.624,74.075h-11.1a2.131,2.131,0,0,1-2.13-2.13V62.63a2.131,2.131,0,0,1,2.13-2.13h11.1a2.129,2.129,0,0,1,2.13,2.13v9.315A2.129,2.129,0,0,1,189.624,74.075Zm-8.969-4.26h6.839V64.76h-6.839Z" transform="translate(-176.394 -60.5)" fill="rgba(100, 34, 34,1)"/>
  </g>
</svg>
