<svg height="116.884" viewBox="0 0 41.439 116.884" width="41.439" xmlns="http://www.w3.org/2000/svg"><path d="m290.028 169.081h-18.071a11.7 11.7 0 0 1 -11.685-11.681v-43.216a11.669 11.669 0 0 1 1.538-5.791l11.5-18.352v-20.063a2.13 2.13 0 1 1 4.26 0v20.674a2.122 2.122 0 0 1 -.324 1.131l-11.783 18.8a7.373 7.373 0 0 0 -.933 3.6v43.217a7.434 7.434 0 0 0 7.425 7.423h18.071a7.432 7.432 0 0 0 7.423-7.423v-43.216a7.424 7.424 0 0 0 -.976-3.679l-11.736-18.722a2.124 2.124 0 0 1 -.326-1.131v-20.674a2.13 2.13 0 1 1 4.26 0v20.063l11.459 18.278a11.751 11.751 0 0 1 1.581 5.866v43.215a11.7 11.7 0 0 1 -11.683 11.681z" fill="#242e35" transform="translate(-260.272 -52.197)"/><path d="m279.624 74.075h-11.1a2.131 2.131 0 0 1 -2.13-2.13v-9.315a2.131 2.131 0 0 1 2.13-2.13h11.1a2.129 2.129 0 0 1 2.13 2.13v9.315a2.129 2.129 0 0 1 -2.13 2.13zm-8.969-4.26h6.839v-5.055h-6.839z" fill="#242e35" transform="translate(-253.354 -60.5)"/><path d="m2.498 66.801h26v29h-26z" fill="#dde8fc"/><g fill="#242e35"><path d="m286.541 124.044h-24.141a2.131 2.131 0 0 1 -2.13-2.13v-29.173a2.131 2.131 0 0 1 2.13-2.13h24.139a2.129 2.129 0 0 1 2.13 2.13v29.173a2.129 2.129 0 0 1 -2.128 2.13zm-22.009-4.26h19.879v-24.913h-19.879z" transform="translate(-260.272 -26.474)"/><path d="m288.219 85.982h-22.308a2.13 2.13 0 0 1 0-4.26h22.308a2.13 2.13 0 0 1 0 4.26z" transform="translate(-256.307 -36.519)"/><path d="m279.624 72.108h-11.1a2.13 2.13 0 0 1 0-4.26h11.1a2.13 2.13 0 0 1 0 4.26z" transform="translate(-253.354 -52.197)"/></g></svg>