<svg id="Group_772" data-name="Group 772" xmlns="http://www.w3.org/2000/svg" width="60.991" height="109.4" viewBox="0 0 60.991 109.4">
  <g id="Group_770" data-name="Group 770" transform="translate(0 29.639)">
    <path id="Path_1004" data-name="Path 1004" d="M402.714,352.881c0-2.81-2.641-5.084-10.169-5.084s-17.091,5.084-17.091,5.084-9.564,5.084-17.091,5.084-10.169-2.277-10.169-5.084l.134-.458a28.363,28.363,0,1,0,54.249-.008S402.714,355.689,402.714,352.881Z" transform="translate(-344.959 -345.667)" fill="rgba(100, 34, 34,.3)" />
  </g>
  <g id="Group_769" data-name="Group 769">
    <g id="Group_762" data-name="Group 762" transform="translate(28.365 78.122)">
      <path id="Path_997" data-name="Path 997" d="M361.539,393.534a2.128,2.128,0,0,1-2.13-2.13V371.689a2.13,2.13,0,1,1,4.26,0V391.4A2.128,2.128,0,0,1,361.539,393.534Z" transform="translate(-359.409 -369.559)" fill="#642222"/>
    </g>
    <g id="Group_763" data-name="Group 763" transform="translate(8.999 94.254)">
      <path id="Path_998" data-name="Path 998" d="M371.813,392.278c-7.983,0-21.5-1.644-21.5-7.809,0-4.869,8.46-6.68,13.5-7.323a2.13,2.13,0,1,1,.541,4.226c-6.267.8-9.176,2.377-9.728,3.1.914,1.306,7.257,3.544,17.181,3.544s16.267-2.239,17.183-3.544c-.55-.722-3.449-2.292-9.679-3.095l-.051-.006a2.129,2.129,0,0,1-1.859-2.111,2.366,2.366,0,0,1,.017-.273,2.148,2.148,0,0,1,2.383-1.842c5.042.643,13.5,2.454,13.5,7.323v0C393.3,390.636,379.794,392.278,371.813,392.278Z" transform="translate(-350.317 -377.133)" fill="#642222"/>
    </g>
    <g id="Group_764" data-name="Group 764" transform="translate(8.999 0.471)">
      <path id="Path_999" data-name="Path 999" d="M371.813,348.249c-7.983,0-21.5-1.646-21.5-7.809a2.13,2.13,0,0,1,4.258-.085c.679,1.289,7.082,3.634,17.238,3.634,9.924,0,16.267-2.239,17.183-3.544-.55-.722-3.449-2.292-9.679-3.095l-.051-.006a2.131,2.131,0,0,1-1.859-2.111,2.335,2.335,0,0,1,.017-.273,2.151,2.151,0,0,1,2.383-1.845c5.042.645,13.5,2.456,13.5,7.325v0C393.3,346.605,379.794,348.249,371.813,348.249Z" transform="translate(-350.317 -333.103)" fill="#642222"/>
    </g>
    <g id="Group_765" data-name="Group 765" transform="translate(1.105 29.639)">
      <path id="Path_1000" data-name="Path 1000" d="M358.912,361.226c-10.7,0-12.3-4.52-12.3-7.214s1.6-7.214,12.3-7.214c7.966,0,17.679,5.114,18.09,5.334a2.13,2.13,0,0,1,0,3.76C376.591,356.109,366.878,361.226,358.912,361.226Zm0-10.169c-1.887,0-8.041.213-8.041,2.954s6.154,2.954,8.041,2.954c3.983,0,8.7-1.6,11.994-2.954C367.613,352.652,362.895,351.057,358.912,351.057Z" transform="translate(-346.611 -346.797)" fill="#642222"/>
    </g>
    <g id="Group_766" data-name="Group 766" transform="translate(28.366 29.639)">
      <path id="Path_1001" data-name="Path 1001" d="M361.541,356.141a2.131,2.131,0,0,1-1-4.011c.411-.219,10.124-5.334,18.092-5.334,10.7,0,12.3,4.52,12.3,7.214a2.13,2.13,0,1,1-4.26,0c0-2.741-6.154-2.954-8.039-2.954-6.9,0-16,4.786-16.092,4.833A2.086,2.086,0,0,1,361.541,356.141Z" transform="translate(-359.409 -346.797)" fill="#642222"/>
    </g>
    <g id="Group_767" data-name="Group 767" transform="translate(0 5.679)">
      <path id="Path_1002" data-name="Path 1002" d="M376.587,405.031a30.474,30.474,0,0,1-29.16-39.388l7.936-28.536a2.131,2.131,0,1,1,4.107,1.142l-7.953,28.587a26.231,26.231,0,1,0,50.17.092c-.011-.03-.017-.062-.028-.092L393.7,338.249a2.131,2.131,0,0,1,4.107-1.142l7.943,28.544a30.478,30.478,0,0,1-29.166,39.38Z" transform="translate(-346.092 -335.548)" fill="#642222"/>
    </g>
    <g id="Group_768" data-name="Group 768" transform="translate(8.999)">
      <path id="Path_1003" data-name="Path 1003" d="M352.436,342.882a2.175,2.175,0,0,1-2.119-2.192c0-6.164,13.513-7.809,21.5-7.809a2.13,2.13,0,1,1,0,4.26c-10.256,0-16.686,2.39-17.255,3.672A2.07,2.07,0,0,1,352.436,342.882Z" transform="translate(-350.317 -332.882)" fill="#642222"/>
    </g>
  </g>
  <g id="Group_771" data-name="Group 771" transform="translate(28.898 38.805)">
    <path id="Path_1006" data-name="Path 1006" d="M361.257,378.411a1.6,1.6,0,0,1,0-3.2,18.233,18.233,0,0,0,17.984-15.149,1.6,1.6,0,1,1,3.148.543,21.434,21.434,0,0,1-21.132,17.8Zm19.556-23.185a1.6,1.6,0,0,1-1.572-1.323c-.051-.287-.1-.573-.17-.858a1.6,1.6,0,1,1,3.12-.69c.072.332.141.667.2,1a1.6,1.6,0,0,1-1.3,1.849A1.759,1.759,0,0,1,380.812,355.226Z" transform="translate(-359.659 -351.1)" fill="#fff"/>
  </g>
</svg>
