<svg id="Group_728" data-name="Group 728" xmlns="http://www.w3.org/2000/svg" width="97.314" height="105.083" viewBox="0 0 97.314 105.083">
  <path id="Polygon_1" data-name="Polygon 1" d="M5,0l5,9H0Z" transform="translate(28.372 24.495) rotate(180)" fill="rgba(100, 34, 34,.5)"/>
  <path id="Polygon_2" data-name="Polygon 2" d="M5,0l5,9H0Z" transform="translate(92.372 60.495) rotate(180)" fill="rgba(100, 34, 34,.5)"/>
  <g id="Group_719" data-name="Group 719" transform="translate(28.099)">
    <path id="Path_960" data-name="Path 960" d="M269.862,347.415a2.127,2.127,0,0,1-1.781-.958c-6.409-9.728-9.632-19.679-9.581-29.584.049-9.53,3.084-16.407,6.017-23.06,2.9-6.565,5.632-12.765,5.344-21.232-.3-8.895-3.97-17.913-10.91-26.808a2.129,2.129,0,1,1,3.357-2.62c7.5,9.619,11.479,19.473,11.809,29.283.322,9.438-2.739,16.38-5.7,23.1-2.884,6.541-5.61,12.72-5.655,21.362-.049,9.048,2.939,18.205,8.878,27.219a2.13,2.13,0,0,1-1.776,3.3Z" transform="translate(-258.5 -242.333)" fill="#642222"/>
  </g>
  <g id="Group_720" data-name="Group 720" transform="translate(58.275 17.752)">
    <path id="Path_961" data-name="Path 961" d="M285.8,336.577a2.13,2.13,0,0,1-1.7-.848c-11.432-15.172-11.432-28.035-11.432-32.877,0-12.559,5.858-19.3,11.521-25.816,5.576-6.416,10.844-12.475,10.844-24.24a2.13,2.13,0,0,1,4.26,0c0,13.357-6.043,20.31-11.888,27.034-5.387,6.2-10.477,12.056-10.477,23.021,0,4.454,0,16.28,10.575,30.312a2.13,2.13,0,0,1-1.7,3.412Z" transform="translate(-272.667 -250.667)" fill="#642222"/>
  </g>
  <g id="Group_721" data-name="Group 721" transform="translate(0 30.941)">
    <path id="Path_962" data-name="Path 962" d="M277.974,288.754a2.153,2.153,0,0,1-.792-.151A2.131,2.131,0,0,1,276,285.834c2.249-5.638-.183-16.567-6.582-21.686-.332-.268-8.22-6.433-15.685-.285-3.155,2.6-5.427,7.621-3.427,11.815,1.546,3.24,5.493,6.015,8.918,5,2.424-.726,3.962-2.113,4.443-4.017a6.328,6.328,0,0,0-1.612-5.749,2.13,2.13,0,0,1,3.012-3.012,10.635,10.635,0,0,1,2.731,9.807c-.856,3.387-3.468,5.892-7.355,7.052-5.689,1.7-11.685-2.443-13.979-7.246-2.933-6.149.162-13.317,4.56-16.94,8.071-6.65,17.034-2.976,21.057.249,7.334,5.866,11.087,18.54,7.875,26.591A2.13,2.13,0,0,1,277.974,288.754Z" transform="translate(-245.308 -256.859)" fill="#642222"/>
  </g>
  <g id="Group_722" data-name="Group 722" transform="translate(61.847 67.032)">
    <path id="Path_963" data-name="Path 963" d="M277.245,299.47a2.138,2.138,0,0,1-1.979-1.34c-2.558-6.409.42-16.491,6.247-21.151,3.227-2.584,10.42-5.534,16.91-.187,3.638,2.995,6.064,8.663,3.662,13.7-1.9,3.992-6.69,7.274-11.4,5.866a8.221,8.221,0,0,1-6.026-5.806A8.736,8.736,0,0,1,286.9,282.5a2.13,2.13,0,1,1,3.012,3.012,4.4,4.4,0,0,0-1.122,4,4.049,4.049,0,0,0,3.114,2.769c2.381.716,5.246-1.338,6.335-3.621,1.534-3.214-.552-6.948-2.524-8.575-5.493-4.526-11.3.032-11.542.226-4.8,3.843-6.635,12.028-4.95,16.243a2.134,2.134,0,0,1-1.979,2.922Z" transform="translate(-274.344 -273.803)" fill="#642222"/>
  </g>
  <g id="Group_723" data-name="Group 723" transform="translate(38.984 5.414)">
    <path id="Path_964" data-name="Path 964" d="M265.742,279.062a2.159,2.159,0,0,1-.232-.013,2.133,2.133,0,0,1-1.887-2.349c.922-8.471,7.363-12.97,13.046-16.942,5.365-3.747,10-6.984,10.137-12.8a2.107,2.107,0,0,1,2.179-2.081,2.133,2.133,0,0,1,2.081,2.179c-.19,7.977-6.173,12.154-11.956,16.2-5.419,3.785-10.539,7.361-11.253,13.911A2.13,2.13,0,0,1,265.742,279.062Z" transform="translate(-263.61 -244.874)" fill="#642222"/>
  </g>
  <g id="Group_724" data-name="Group 724" transform="translate(77.1 48.15)">
    <path id="Path_965" data-name="Path 965" d="M291.612,281.435a2.13,2.13,0,0,1-1.785-.969l-7.977-12.237a2.129,2.129,0,0,1,1.785-3.291h15.954a2.129,2.129,0,0,1,1.785,3.291L293.4,280.466A2.13,2.13,0,0,1,291.612,281.435ZM287.567,269.2l4.045,6.207,4.045-6.207Z" transform="translate(-281.505 -264.938)" fill="#642222"/>
  </g>
  <g id="Group_725" data-name="Group 725" transform="translate(5.017 63.867)">
    <path id="Path_966" data-name="Path 966" d="M257.77,288.816h0a2.13,2.13,0,0,1-1.785-.969l-7.977-12.237a2.131,2.131,0,0,1,1.785-3.293h15.956a2.131,2.131,0,0,1,1.785,3.293l-7.979,12.237A2.13,2.13,0,0,1,257.77,288.816Zm-4.045-12.239,4.045,6.207,4.049-6.207Z" transform="translate(-247.663 -272.317)" fill="#642222"/>
  </g>
  <g id="Group_726" data-name="Group 726" transform="translate(48.175 30.969)">
    <path id="Path_967" data-name="Path 967" d="M278.032,273.369a2.133,2.133,0,0,1-1.785-.967l-7.977-12.237a2.131,2.131,0,0,1,1.785-3.293h15.954a2.131,2.131,0,0,1,1.785,3.293L279.817,272.4A2.133,2.133,0,0,1,278.032,273.369Zm-4.047-12.237,4.047,6.207,4.045-6.207Z" transform="translate(-267.925 -256.872)" fill="#642222"/>
  </g>
  <g id="Group_727" data-name="Group 727" transform="translate(12.994 11.633)">
    <path id="Path_968" data-name="Path 968" d="M261.517,264.291a2.133,2.133,0,0,1-1.785-.967l-7.979-12.237a2.13,2.13,0,0,1,1.785-3.293h15.956a2.13,2.13,0,0,1,1.785,3.293L263.3,263.324A2.13,2.13,0,0,1,261.517,264.291Zm-4.047-12.237,4.047,6.207,4.047-6.207Z" transform="translate(-251.408 -247.794)" fill="#642222"/>
  </g>
</svg>
