<svg id="Group_660" data-name="Group 660" xmlns="http://www.w3.org/2000/svg" width="75.901" height="96.824" viewBox="0 0 75.901 96.824">
  <path id="Path_1008" data-name="Path 1008" d="M659.638,127.054c5.242-9.3,20.488,16.675,69.511-2.924,0,0-.218,24.511-14.034,42.185,0,0-27.16,8.022-42.807,0C672.308,166.316,654.4,136.357,659.638,127.054Z" transform="translate(-655.706 -76.282)" fill="rgba(100, 34, 34,.2)"/>
  <g id="Group_649" data-name="Group 649" transform="translate(14.329)">
    <path id="Path_900" data-name="Path 900" d="M372.532,78.59c-5.542,0-23.622-.484-23.622-6.69s18.08-6.69,23.622-6.69,23.622.481,23.622,6.69S378.074,78.59,372.532,78.59ZM353.918,71.9c2.349,1.046,8.744,2.43,18.614,2.43s16.265-1.384,18.614-2.43c-2.349-1.046-8.744-2.43-18.614-2.43S356.267,70.854,353.918,71.9Z" transform="translate(-348.91 -65.209)" fill="#642222"/>
  </g>
  <g id="Group_650" data-name="Group 650" transform="translate(5.361 18.621)">
    <path id="Path_901" data-name="Path 901" d="M377.289,84.673c-3.336,0-32.589-.241-32.589-8.592a2.13,2.13,0,0,1,4.251-.2c1.244,1.666,11.528,4.533,28.338,4.533,2.7,0,5.366-.075,7.936-.224a2.13,2.13,0,0,1,.245,4.254C382.823,84.6,380.069,84.673,377.289,84.673Z" transform="translate(-344.7 -73.951)" fill="#642222"/>
  </g>
  <g id="Group_651" data-name="Group 651" transform="translate(5 72.839)">
    <path id="Path_902" data-name="Path 902" d="M377.481,109.311c-13.96,0-29.445-2.03-32.574-6.565a2.13,2.13,0,1,1,3.506-2.42c1.331,1.932,12.45,4.724,29.068,4.724a130.45,130.45,0,0,0,13.875-.7,2.129,2.129,0,1,1,.456,4.234A134.468,134.468,0,0,1,377.481,109.311Z" transform="translate(-344.53 -99.406)" fill="#642222"/>
  </g>
  <g id="Group_652" data-name="Group 652" transform="translate(56.071 76.77)">
    <path id="Path_903" data-name="Path 903" d="M370.637,105.639a2.13,2.13,0,0,1-.377-4.226l.656-.121a2.129,2.129,0,1,1,.812,4.179l-.711.134A2.109,2.109,0,0,1,370.637,105.639Z" transform="translate(-368.507 -101.251)" fill="#642222"/>
  </g>
  <g id="Group_653" data-name="Group 653" transform="translate(14.468 88.402)">
    <path id="Path_904" data-name="Path 904" d="M372.458,115.134c-3.417,0-20.584-.249-23.228-5.157a2.13,2.13,0,0,1,3.751-2.019c.829.933,7.664,2.916,19.477,2.916s18.648-1.983,19.528-2.995a2.063,2.063,0,0,1,2.805-.946,2.181,2.181,0,0,1,.969,2.9C393.345,114.879,375.926,115.134,372.458,115.134Z" transform="translate(-348.975 -106.712)" fill="#642222"/>
  </g>
  <g id="Group_654" data-name="Group 654" transform="translate(0 4.034)">
    <path id="Path_905" data-name="Path 905" d="M358.784,155.856a2.131,2.131,0,0,1-1.638-.763c-10.071-12.041-14.963-26.308-14.963-43.612s4.893-31.573,14.963-43.614a2.131,2.131,0,0,1,3.27,2.733c-9.4,11.242-13.973,24.614-13.973,40.881s4.569,29.637,13.973,40.879a2.129,2.129,0,0,1-1.632,3.5Z" transform="translate(-342.183 -67.103)" fill="#642222"/>
  </g>
  <g id="Group_655" data-name="Group 655" transform="translate(57.172 4.035)">
    <path id="Path_906" data-name="Path 906" d="M371.152,155.856a2.129,2.129,0,0,1-1.632-3.5c9.4-11.242,13.973-24.614,13.973-40.879S378.924,81.842,369.52,70.6a2.131,2.131,0,0,1,3.27-2.733c10.069,12.041,14.963,26.308,14.963,43.614s-4.895,31.571-14.963,43.612A2.131,2.131,0,0,1,371.152,155.856Z" transform="translate(-369.024 -67.104)" fill="#642222"/>
  </g>
  <g id="Group_656" data-name="Group 656" transform="translate(14.572 35.046)">
    <path id="Path_907" data-name="Path 907" d="M351.156,88.861c-.043,0-.087,0-.13,0a2.131,2.131,0,0,1-2-2.256q.093-1.521.219-2.988a2.129,2.129,0,1,1,4.243.358q-.118,1.419-.211,2.888A2.129,2.129,0,0,1,351.156,88.861Z" transform="translate(-349.024 -81.663)" fill="#642222"/>
  </g>
  <g id="Group_657" data-name="Group 657" transform="translate(14.335 47.849)">
    <path id="Path_908" data-name="Path 908" d="M359.719,135.749a2.127,2.127,0,0,1-1.9-1.176c-5.474-10.906-8.716-27.215-8.9-44.747a2.132,2.132,0,0,1,2.107-2.153h.023a2.13,2.13,0,0,1,2.13,2.109c.179,16.906,3.257,32.538,8.448,42.883a2.129,2.129,0,0,1-1.9,3.084Z" transform="translate(-348.913 -87.673)" fill="#642222"/>
  </g>
  <g id="Group_658" data-name="Group 658" transform="translate(50.43 7.901)">
    <path id="Path_909" data-name="Path 909" d="M374.871,111.56a2.129,2.129,0,0,1-2.13-2.13c0-14.744-2.194-27.023-6.71-37.539a2.13,2.13,0,0,1,3.915-1.681C374.694,81.267,377,94.1,377,109.43A2.129,2.129,0,0,1,374.871,111.56Z" transform="translate(-365.859 -68.919)" fill="#642222"/>
  </g>
  <g id="Group_659" data-name="Group 659" transform="translate(28.892 59.961)">
    <path id="Path_910" data-name="Path 910" d="M360.5,130.131a2.132,2.132,0,0,1-2.1-1.787,270.09,270.09,0,0,1-2.65-32.789,2.132,2.132,0,0,1,2.066-2.194,2.186,2.186,0,0,1,2.194,2.066,265.478,265.478,0,0,0,2.6,32.231,2.13,2.13,0,0,1-2.107,2.473Z" transform="translate(-355.748 -93.359)" fill="#642222"/>
  </g>
</svg>
