<svg height="54.054" viewBox="0 0 126 54.054" width="126" xmlns="http://www.w3.org/2000/svg"><path d="m127.842 13.834c-5.011-4.421-13.322 1.179-9.609 7.427 2.653 4.421 6.131 8.253 9.255 12.379-2.063.059-4.126 0-6.189.059a168.379 168.379 0 0 1 -31.299-2.121c-19.63-3.36-37.491-10.316-55.824-17.684-7.31-2.947-10.847 8.076-5.07 12.025 17.272 11.849 38.788 18.156 59.42 20.868 6.307.825 14.147 1.651 22.164 2-1.061.531-2.24.943-3.3 1.474-8.606 4.48-2.653 18.451 6.6 15.68 11.966-3.537 23.461-10.316 34.249-16.446 4.834-2.653 5.128-9.019 1.65-12.851-7.075-7.837-14.089-15.795-22.047-22.81z" fill="#231f20" transform="matrix(-1 0 0 -1 152.222 66.305)"/></svg>