<svg height="23.705" viewBox="0 0 20.554 23.705" width="20.554" xmlns="http://www.w3.org/2000/svg"><path d="m36.158 15.078a8.685 8.685 0 0 0 1.528-2.427c.49-.9.958-1.805 1.4-2.726.212-.431-.029-1.089-.592-1.045-.95.088-1.893.2-2.836.329a5.714 5.714 0 0 0 -2.639.687.236.236 0 0 0 .058.424 6.806 6.806 0 0 0 2.522-.015c.183-.007.365 0 .541-.007-2.661 1.637-5.35 3.238-8.048 4.81q-2.346 1.371-4.715 2.719c-1.425.819-3.172 1.557-4.261 2.821a.469.469 0 0 0 .453.775c1.652-.263 3.209-1.367 4.641-2.171q2.368-1.338 4.729-2.69c2.244-1.294 4.473-2.617 6.71-3.932a5.5 5.5 0 0 0 -.863 1.652.825.825 0 0 0 1.372.796z" fill="#fff" transform="matrix(.469 -.883 .883 .469 -16.754 30.413)"/></svg>