<svg height="99.207" viewBox="0 0 99.638 99.207" width="99.638" xmlns="http://www.w3.org/2000/svg"><g fill="#ebdac5"><path d="m283.658 387.146a25.774 25.774 0 0 1 -25.745-25.746v-11.45a2.13 2.13 0 0 1 4.26 0v11.45a21.485 21.485 0 0 0 42.971 0v-11.45a2.13 2.13 0 0 1 4.26 0v11.45a25.774 25.774 0 0 1 -25.746 25.746z" transform="translate(-233.84 -326.194)"/><path d="m305.144 351.519a2.312 2.312 0 0 1 -.464-.049 2.136 2.136 0 0 1 -1.619-2.543l1.557-7h-41.918l1.557 7a2.132 2.132 0 1 1 -4.162.924l-2.132-9.591a2.132 2.132 0 0 1 2.081-2.592h47.231a2.129 2.129 0 0 1 2.079 2.592l-2.132 9.591a2.13 2.13 0 0 1 -2.078 1.668z" transform="translate(-233.84 -337.667)"/><path d="m260.778 370.5a14.167 14.167 0 1 1 14.167-14.169 2.13 2.13 0 0 1 -4.26 0 9.907 9.907 0 1 0 -9.907 9.909 2.13 2.13 0 0 1 0 4.26z" transform="translate(-246.611 -332.579)"/><path d="m294.254 370.5a2.13 2.13 0 1 1 0-4.26 9.907 9.907 0 1 0 -9.907-9.909 2.13 2.13 0 0 1 -4.26 0 14.167 14.167 0 1 1 14.167 14.169z" transform="translate(-208.783 -332.579)"/><path d="m276.258 352.811a2.128 2.128 0 0 1 -2.13-2.13v-.731a2.13 2.13 0 0 1 4.26 0v.731a2.128 2.128 0 0 1 -2.13 2.13z" transform="translate(-215.516 -326.194)"/><path d="m276.925 387.146c-7.44 0-13.053-11.068-13.053-25.745v-11.451a2.13 2.13 0 0 1 4.26 0v11.45c0 12.663 4.635 21.485 8.793 21.485s8.793-8.823 8.793-21.485v-3.393a2.13 2.13 0 0 1 4.26 0v3.393c-.001 14.679-5.613 25.746-13.053 25.746z" transform="translate(-227.106 -326.194)"/><path d="m274.24 383.348a7.992 7.992 0 1 1 7.992-7.992 8 8 0 0 1 -7.992 7.992zm0-11.724a3.732 3.732 0 1 0 3.732 3.732 3.736 3.736 0 0 0 -3.732-3.732z" transform="translate(-224.421 -304.109)"/><path d="m307.274 393.356h-47.231a2.13 2.13 0 1 1 0-4.26c7 0 16.369-5.131 17.33-11.121a2.129 2.129 0 1 1 4.2.673c-.66 4.134-3.821 7.806-7.919 10.448h20c-4.1-2.641-7.259-6.313-7.919-10.448a2.129 2.129 0 1 1 4.2-.673c.961 5.99 10.333 11.121 17.33 11.121a2.13 2.13 0 0 1 0 4.26z" transform="translate(-233.84 -294.148)"/></g></svg>