<svg height="96.824" viewBox="0 0 75.901 96.824" width="75.901" xmlns="http://www.w3.org/2000/svg"><g fill="#ebdac5"><path d="m372.532 78.59c-5.542 0-23.622-.484-23.622-6.69s18.08-6.69 23.622-6.69 23.622.481 23.622 6.69-18.08 6.69-23.622 6.69zm-18.614-6.69c2.349 1.046 8.744 2.43 18.614 2.43s16.265-1.384 18.614-2.43c-2.349-1.046-8.744-2.43-18.614-2.43s-16.265 1.384-18.614 2.43z" transform="translate(-334.581 -65.209)"/><path d="m377.289 84.673c-3.336 0-32.589-.241-32.589-8.592a2.13 2.13 0 0 1 4.251-.2c1.244 1.666 11.528 4.533 28.338 4.533 2.7 0 5.366-.075 7.936-.224a2.13 2.13 0 0 1 .245 4.254c-2.647.156-5.401.229-8.181.229z" transform="translate(-339.339 -55.33)"/><path d="m377.481 109.311c-13.96 0-29.445-2.03-32.574-6.565a2.13 2.13 0 1 1 3.506-2.42c1.331 1.932 12.45 4.724 29.068 4.724a130.45 130.45 0 0 0 13.875-.7 2.129 2.129 0 1 1 .456 4.234 134.468 134.468 0 0 1 -14.331.727z" transform="translate(-339.53 -26.567)"/><path d="m370.637 105.639a2.13 2.13 0 0 1 -.377-4.226l.656-.121a2.129 2.129 0 1 1 .812 4.179l-.711.134a2.109 2.109 0 0 1 -.38.034z" transform="translate(-312.436 -24.481)"/><path d="m372.458 115.134c-3.417 0-20.584-.249-23.228-5.157a2.13 2.13 0 0 1 3.751-2.019c.829.933 7.664 2.916 19.477 2.916s18.648-1.983 19.528-2.995a2.063 2.063 0 0 1 2.805-.946 2.181 2.181 0 0 1 .969 2.9c-2.415 5.046-19.834 5.301-23.302 5.301z" transform="translate(-334.507 -18.31)"/><path d="m358.784 155.856a2.131 2.131 0 0 1 -1.638-.763c-10.071-12.041-14.963-26.308-14.963-43.612s4.893-31.573 14.963-43.614a2.131 2.131 0 0 1 3.27 2.733c-9.4 11.242-13.973 24.614-13.973 40.881s4.569 29.637 13.973 40.879a2.129 2.129 0 0 1 -1.632 3.5z" transform="translate(-342.183 -63.069)"/><path d="m371.152 155.856a2.129 2.129 0 0 1 -1.632-3.5c9.4-11.242 13.973-24.614 13.973-40.879s-4.569-29.635-13.973-40.877a2.131 2.131 0 0 1 3.27-2.733c10.069 12.041 14.963 26.308 14.963 43.614s-4.895 31.571-14.963 43.612a2.131 2.131 0 0 1 -1.638.763z" transform="translate(-311.852 -63.069)"/><path d="m351.156 88.861c-.043 0-.087 0-.13 0a2.131 2.131 0 0 1 -2-2.256q.093-1.521.219-2.988a2.129 2.129 0 1 1 4.243.358q-.118 1.419-.211 2.888a2.129 2.129 0 0 1 -2.121 1.998z" transform="translate(-334.452 -46.617)"/><path d="m359.719 135.749a2.127 2.127 0 0 1 -1.9-1.176c-5.474-10.906-8.716-27.215-8.9-44.747a2.132 2.132 0 0 1 2.107-2.153h.023a2.13 2.13 0 0 1 2.13 2.109c.179 16.906 3.257 32.538 8.448 42.883a2.129 2.129 0 0 1 -1.9 3.084z" transform="translate(-334.578 -39.824)"/><path d="m374.871 111.56a2.129 2.129 0 0 1 -2.13-2.13c0-14.744-2.194-27.023-6.71-37.539a2.13 2.13 0 0 1 3.915-1.681c4.748 11.057 7.054 23.89 7.054 39.22a2.129 2.129 0 0 1 -2.129 2.13z" transform="translate(-315.429 -61.018)"/><path d="m360.5 130.131a2.132 2.132 0 0 1 -2.1-1.787 270.09 270.09 0 0 1 -2.65-32.789 2.132 2.132 0 0 1 2.066-2.194 2.186 2.186 0 0 1 2.194 2.066 265.478 265.478 0 0 0 2.6 32.231 2.13 2.13 0 0 1 -2.107 2.473z" transform="translate(-326.856 -33.398)"/></g></svg>