<svg xmlns="http://www.w3.org/2000/svg" width="343.007" height="303.127" viewBox="0 0 343.007 303.127">
  <g id="Group_775" data-name="Group 775" transform="translate(-408.632 433.061) rotate(-90)">
    <path id="Path_1009" data-name="Path 1009" d="M235.267,417.484a4.077,4.077,0,1,1,2.47-5.209A4.076,4.076,0,0,1,235.267,417.484Z" transform="translate(14.934 7.541)" fill="rgba(86,30,30,0.47)"/>
    <path id="Path_1010" data-name="Path 1010" d="M379.213,396.061a4.077,4.077,0,1,1,2.47-5.209A4.076,4.076,0,0,1,379.213,396.061Z" transform="translate(38.283 260.489)" fill="rgba(86,30,30,0.47)"/>
    <path id="Path_1011" data-name="Path 1011" d="M488.691,452a14.49,14.49,0,0,1-6.241-1.248,13.275,13.275,0,0,1-8.523-12.183,23.1,23.1,0,0,1,4.936-14.678c3.021-4.029,7.288-5.4,12.187-5.079a2,2,0,0,1,1.114.315c.471.4,1.078.912,1.156,1.446.105.722-.667,1.062-1.322,1.148-.91.12-1.836.127-2.756.164a10.308,10.308,0,0,0-8.591,4.837,20.086,20.086,0,0,0-3.567,11.1A9.759,9.759,0,0,0,481,446.07c6.692,5.087,16.919,2.769,19.565-5.952a7.955,7.955,0,0,0-5.89-10.006,3.71,3.71,0,0,0-3.9,1.292,3.365,3.365,0,0,0-.172,4.363c.3.419.819.689,1.1,1.118a2.313,2.313,0,0,1,.474,1.392c-.1.722-.757,1.009-1.452,1.1a3.476,3.476,0,0,1-2.611-.637,6.111,6.111,0,0,1-2.138-6,7.864,7.864,0,0,1,9.081-5.73c7.424,1.211,10.491,9.279,8.368,14.735A15.36,15.36,0,0,1,488.691,452Z" transform="translate(-113.871 -10.139)" fill="rgba(86,30,30,0.47)"/>
    <path id="Path_1012" data-name="Path 1012" d="M528.865,587.839c5.274,3.51,5.915,8.276,4.37,13.633a34.58,34.58,0,0,1-7.889,13.78c-2.232,2.444-4.764,4.623-7.236,6.838a40.671,40.671,0,0,0-5.891,6.161,16.828,16.828,0,0,0-3.025,6,21.446,21.446,0,0,0-.428,4.215,4.639,4.639,0,0,0,1.345,3.21c1.076,1.224,2.081,1.417,3.435.488a23.165,23.165,0,0,0,3.023-2.47c1.7-1.652,3.323-3.389,4.975-5.092a34.166,34.166,0,0,1,8.658-6.767,17.693,17.693,0,0,1,4.629-1.737c4.2-.83,7.308,2.3,6.438,6.494a32.243,32.243,0,0,1-1.935,5.7c-1.042,2.518-2.329,4.934-3.36,7.456a15.46,15.46,0,0,0-1.3,9.2c.708.386,1.531.8,2.319,1.277a.8.8,0,0,1-.021,1.235A3.318,3.318,0,0,1,532,656.73a7.4,7.4,0,0,1-1.021-2.967,14.284,14.284,0,0,1,1.029-6.975c.88-2.325,1.9-4.6,2.892-6.881.613-1.414,1.331-2.784,1.905-4.211a19.857,19.857,0,0,0,1.066-3.382c.361-1.758-.66-2.739-2.475-2.343a11.345,11.345,0,0,0-2.956,1.151,34.524,34.524,0,0,0-7.883,6.044c-1.591,1.6-3.125,3.255-4.755,4.811a32.054,32.054,0,0,1-3.788,3.223c-3.613,2.5-7.439,1.589-9.686-2.226a10.424,10.424,0,0,1-1.371-6.154,20.03,20.03,0,0,1,3.057-9.01,32.983,32.983,0,0,1,6.189-7.31c1.843-1.677,3.747-3.288,5.579-4.978a38.172,38.172,0,0,0,9.151-13,14.008,14.008,0,0,0,1.319-6.561,5.17,5.17,0,0,0-2.534-4.356c-1.235.766-1.42,2.021-1.927,3.054a46.554,46.554,0,0,1-9.677,13.534,17.512,17.512,0,0,1-5.231,3.637,8.218,8.218,0,0,1-6.23.38,6.236,6.236,0,0,1-4.119-7.034,9.473,9.473,0,0,1,1.789-4.224,37.649,37.649,0,0,1,3.265-3.747,41.957,41.957,0,0,1,19.9-10.062,12.621,12.621,0,0,0,.753-1.418,73.624,73.624,0,0,0,4.694-30.715,14.407,14.407,0,0,0-1.879-6.435,7.3,7.3,0,0,0-8.4-3.814,14.555,14.555,0,0,0-5.829,2.549,55.509,55.509,0,0,0-6.281,5.219,63.581,63.581,0,0,0-17.967,35.225,20.248,20.248,0,0,0-.221,3.188c0,1.705.171,1.836,2.308,2.392-1.67,1.509-3.231,1.273-3.63-.646a15.438,15.438,0,0,1-.257-3.887,49.5,49.5,0,0,1,3.641-15.875,66.337,66.337,0,0,1,13.393-21.248,42.542,42.542,0,0,1,7.824-6.694,18.376,18.376,0,0,1,6.862-2.812,10.069,10.069,0,0,1,10.909,4.92,17.35,17.35,0,0,1,2.349,7.4,73.632,73.632,0,0,1-.373,15.271,71.407,71.407,0,0,1-4.192,16.871C529.073,586.956,529.01,587.3,528.865,587.839Zm-5.013,3.552a6.175,6.175,0,0,0-1.214.009,39.7,39.7,0,0,0-15.525,8.887A16.8,16.8,0,0,0,504.5,603.6c-.908,1.468-1.25,3.115-.109,4.641.941,1.258,2.919,1.49,4.911.734a4.748,4.748,0,0,0,.968-.433,29.05,29.05,0,0,0,3.18-2.232A41.094,41.094,0,0,0,523.852,591.391Z" transform="translate(-118.782 -50.927)" fill="rgba(86,30,30,0.47)"/>
    <g id="Group_774" data-name="Group 774" transform="translate(129.934 429.484)">
      <path id="Path_1013" data-name="Path 1013" d="M319.468,466.373a14.951,14.951,0,0,0-.909,1.536c-1.569,3.542-4.63,4.966-8.149,5.552a10.9,10.9,0,0,1-5.96-.535,4.952,4.952,0,0,1-2.454-1.953,3.25,3.25,0,0,1-.336-3.061,7.143,7.143,0,0,1,2.24-3.155,14.723,14.723,0,0,1,7.756-3.251c.939-.082,1.879-.163,2.753-.238.353-.8-.09-1.23-.476-1.654a14.531,14.531,0,0,0-5.6-3.691,34.065,34.065,0,0,0-10.36-2.3,50.844,50.844,0,0,0-21.913,3.646,38.652,38.652,0,0,0-14.74,10.3c-.383.426-.69.921-1.148,1.541,1.676.641,3.208.358,4.693.369a12.182,12.182,0,0,1,4.532.749,2.135,2.135,0,0,1,.982,3,9.171,9.171,0,0,1-.864,1.123c-.294.362-.6.712-1.012,1.195,2.977,1.232,5.93,1.057,8.853.676,3.4-.444,6.779-1.062,10.162-1.631a4.29,4.29,0,0,1,3.983,1.01,6.517,6.517,0,0,0,4.45,1.822,10.01,10.01,0,0,1,4.033,1.228,16.224,16.224,0,0,0,7.826,2.026c5.219.218,10.376.945,15.549,1.56a6.924,6.924,0,0,1,2.031.58,2.008,2.008,0,0,1,.5,3.485,14.2,14.2,0,0,1-2.71,1.659c-1.79.923-3.62,1.766-5.417,2.675-.509.258-.959.631-1.878,1.247a13.916,13.916,0,0,1,1.427.894c2,1.665,2.5,3.75.8,6.3-.45.669-.826,1.387-1.18,1.99a4.359,4.359,0,0,0,2.589,2.547c2.008,1.01,4.074,1.9,6.113,2.854a35.19,35.19,0,0,1,3.521,1.691,2.581,2.581,0,0,1,.419,4.444c-.876.792-1.9,1.42-2.818,2.165-1.468,1.189-1.606,1.925-.409,3.242a24.815,24.815,0,0,0,3.605,3.416c2.582,1.887,5.234,3.694,7.965,5.356,4.051,2.465,8.2,4.77,12.3,7.157a17.675,17.675,0,0,1,2.382,1.541,2.477,2.477,0,0,1-.14,3.986,13.451,13.451,0,0,1-3.164,1.574,17.649,17.649,0,0,0-5.227,2.973,3.534,3.534,0,0,0-1.515,4.017,4.531,4.531,0,0,1-.768,4.372,3.447,3.447,0,0,0-.547,1.975,35.834,35.834,0,0,0,.136,3.909,5.067,5.067,0,0,1-2.093,4.633,12.69,12.69,0,0,1-5.043,2.522c-1.494.346-2.992.673-4.639,1.042a43.508,43.508,0,0,1-5.946,10.136c.148,1.084.947,1.281,1.468,1.708A33.325,33.325,0,0,1,337.3,598.629a32.238,32.238,0,0,1,.375,3.881c.056.946,0,1.9,0,2.847,0,.82,0,1.641,0,2.346.75.908,1.632.594,2.415.549a23.679,23.679,0,0,1,9.115,1.138c9.059,3.1,14.452,9.569,16.96,18.62,1.312,4.733.725,9.405-.722,14.01-.284.9-.659,1.776-1.067,2.864.711.365,1.4.756,2.111,1.078a19.3,19.3,0,0,1,8.626,7.193,49.519,49.519,0,0,1,3.56,6.547c1.595,3.6,1.447,7.393.728,11.182-.108.573-.274,1.135-.455,1.87a10.607,10.607,0,0,0,1.417.981,19.262,19.262,0,0,1,6.724,5.711,17.319,17.319,0,0,1,3.491,13.712c-.1.7-.2,1.4-.292,2.033.436,1.2,1.544,1.527,2.38,2.154a22.043,22.043,0,0,1,7.717,9.56,22.9,22.9,0,0,1,1.092,12.24c-.184,1.153-.484,2.288-.709,3.327.778.955,1.765.93,2.675,1.156a22.157,22.157,0,0,1,16.583,27.25,29.822,29.822,0,0,1-11.643,17.774,17.966,17.966,0,0,1-9.941,3.392,28.386,28.386,0,0,1-15.121-3.154c-7.529-3.968-11.73-10.15-12.292-18.684-.116-1.768.023-3.554.04-5.33.007-.7,0-1.391,0-2.13l-8.782-2.648a20.837,20.837,0,0,0-1.583,1.515c-2.894,3.327-6.718,4.824-10.932,5.34-7.513.921-13.745-1.714-18.793-7.245-1.036-1.135-1.895-2.431-2.835-3.652-.424-.551-.849-1.1-1.342-1.741-11.709,3.556-21.272.474-29.021-9.286-1.955,0-4.2.041-6.439-.008a29.959,29.959,0,0,1-24.68-13.927A19.586,19.586,0,0,1,263.9,696.1c.176-.922.366-1.842.534-2.682-.945-.922-1.968-.573-2.813-.379-4.376,1.009-8.5.007-12.478-1.609a34.276,34.276,0,0,1-10.961-7.162c-4.285-4.143-6.753-9.1-6.6-15.191a14.555,14.555,0,0,0-.206-2.1c-.01-.085-.136-.156-.318-.351-1.01.484-2.062,1-3.122,1.493a29.6,29.6,0,0,1-22.76.343,26.368,26.368,0,0,1-12.8-13.315,32.153,32.153,0,0,1-2.346-19.8,3.384,3.384,0,0,0,.034-.7,1.361,1.361,0,0,0-.09-.329c-8.987-4.384-11.21-8.225-10.732-18.764-1.682-.32-3.426-.549-5.115-.99-8.016-2.1-13.9-6.71-16.208-14.873a23.315,23.315,0,0,1,1.442-15.991c2.443-5.548,6.357-9.964,10.9-13.876.715-.616,1.458-1.2,2.167-1.781-.308-1.41-1.621-1.391-2.473-1.909a22.006,22.006,0,0,1-10.445-14.2c-1.028-4.289-.535-8.476.435-12.67,1.55-6.7,5.615-11.653,10.97-15.7.472-.357,1-.64,1.492-.968s.957-.654,1.41-.965c-.6-1.581-.83-1.738-1.915-1.274-.872.373-1.723.793-2.577,1.206-1.774.858-3.416.872-4.857-.686-.127-.138-.417-.125-.816-.231a25.131,25.131,0,0,0-3.569,4.682,77.906,77.906,0,0,0-6.01,11.694,154.058,154.058,0,0,0-10.608,35.7c-.51,3.031-.666,6.123-.963,9.19a90.62,90.62,0,0,0-.48,12.793c.54,12.019,2.068,23.855,6.849,35.045A47.065,47.065,0,0,0,159.175,644.8c.908.165,1.16-.442,1.484-.907a23.692,23.692,0,0,1,5.467-5.558,11.771,11.771,0,0,1,4.506-2.03,6.092,6.092,0,0,1,7.668,5.782c.406,7.783-7.31,12.125-12.4,10.54-1.468-.458-2.931-.933-4.625-1.473a8.174,8.174,0,0,0-.936,1.6,30.026,30.026,0,0,0-.134,19.542,19.18,19.18,0,0,0,6.84,9.312,14.291,14.291,0,0,0,6.163,2.62,64.76,64.76,0,0,0,8.116.854c2.961.155,5.934.068,8.9.112a26.909,26.909,0,0,1,12.358,2.793,6.874,6.874,0,0,0,3.439.678,33.811,33.811,0,0,1,10.164,1.442c8.514,2.515,14.236,9.036,15.325,18.936a75.983,75.983,0,0,1-.211,13.148c-.128,2.01-.239,4.024-.248,6.036a12.111,12.111,0,0,0,.406,2.8c.716,3.018,2.412,4.152,5.428,3.726a24.183,24.183,0,0,1,3.168-.357c3.678-.028,6.079,1.673,7.178,5.171a16.508,16.508,0,0,1,.636,3.829c.109,1.654-.08,3.332.075,4.98a21.66,21.66,0,0,0,.918,4.865c1.02,3.028,3.661,4.344,6.791,3.586a13.6,13.6,0,0,0,2.022-.676,17.924,17.924,0,0,0,1.59-.852,26.963,26.963,0,0,1,.873-2.727,7.5,7.5,0,0,1,1.286-2.1,2.291,2.291,0,0,1,3.76.855,3.127,3.127,0,0,1,.1,2.423,13.648,13.648,0,0,1-1.111,2.2c-.458.687-1.14,1.262-1.074,2.172a6.022,6.022,0,0,0,1.241,3.644c1.588,1.839,3.551,2.806,6,2.054,1.464-.45,2.868-1.1,4.3-1.668,1.978-.787,3.938-1.619,5.931-2.363a8.831,8.831,0,0,1,7.836.973c.819.476,1.567,1.086,2.412,1.508a47.617,47.617,0,0,0,4.519,2.035,8.1,8.1,0,0,0,7.2-.286,1.6,1.6,0,0,1,2.206.347,2,2,0,0,1-.3,2.589,6.118,6.118,0,0,1-3.512,1.552,17.442,17.442,0,0,1-10.295-2.074,30.022,30.022,0,0,1-3.358-2,7.054,7.054,0,0,0-7.094-.645c-1.973.8-3.9,1.725-5.845,2.6a12.143,12.143,0,0,1-5.125,1.31c-4.186-.042-7.281-1.822-9.065-5.683-.294-.636-.523-1.3-.856-2.141-.72.135-1.388.24-2.046.388a11.48,11.48,0,0,1-7.323-.417,7.447,7.447,0,0,1-3.647-3.256,13.84,13.84,0,0,1-1.882-6.056c-.11-2.132-.078-4.273-.229-6.4a18.077,18.077,0,0,0-.662-3.828,2.881,2.881,0,0,0-2.984-2.1c-1.42,0-2.841.148-4.259.27-3.907.334-7.363-1.795-8.464-6.474-.777-3.3-.471-6.6-.307-9.911.17-3.432.409-6.862.506-10.3a21.017,21.017,0,0,0-1.427-7.656,15.879,15.879,0,0,0-7.1-8.6,22.888,22.888,0,0,0-6.98-2.541,17.121,17.121,0,0,0-3.134-.03c4.88,6.286,7.528,13.027,6.254,20.744-1.264,7.654-5.171,13.668-12.116,17.464a13.081,13.081,0,0,0-.291,1.457c-.475,5.687-3.012,10.4-6.819,14.523a30.985,30.985,0,0,1-9.67,7.157,106.366,106.366,0,0,1-17.11,5.873,2.9,2.9,0,0,1-2.666-.521,1.594,1.594,0,0,1,.039-2.466,5.038,5.038,0,0,1,1.612-.688,91.861,91.861,0,0,0,14.193-4.512,27.9,27.9,0,0,0,12.851-9.769,23.2,23.2,0,0,0,3.741-8.386,4.578,4.578,0,0,0-.05-1.139c-1.071-.045-2.107-.054-3.135-.146-.464-.042-.905-.287-1.369-.375a7.272,7.272,0,0,1-4.124-2.624,5.449,5.449,0,0,1,1.408-8.281,5.85,5.85,0,0,1,5.148-.145,8.679,8.679,0,0,1,4.265,3.629c.442.692.8,1.439,1.278,2.322a17.15,17.15,0,0,0,1.825-1.1c6.1-4.813,9.452-14.393,6.4-22.488a22.382,22.382,0,0,0-6.963-10.111,4.726,4.726,0,0,0-3.259-1.131,63.642,63.642,0,0,0-8.516.46c-2.794.481-5.653.568-8.474.906-2.584.31-5.149.787-7.735,1.078a96.927,96.927,0,0,1-10.96,1.009c-10.579-.012-18.763-4.383-24.43-13.312a61.339,61.339,0,0,1-8.081-20.012,121.837,121.837,0,0,1-2.653-22.931,109.561,109.561,0,0,1,.922-15.612c1.412-11.9,3.891-23.611,6.429-35.307,1.007-4.64,1.555-9.343,2.176-14.041a139.4,139.4,0,0,1,6.163-25.9,144.418,144.418,0,0,1,8.133-19.7c.358-.7.627-1.453.912-2.122-.662-.638-1.034-.163-1.351.086-1.586,1.245-3.121,2.555-4.712,3.8-.934.727-1.918,1.4-2.916,2.032a5.584,5.584,0,0,1-1.61.72c-1.965.494-3.386-.816-2.917-2.765a12.764,12.764,0,0,1,1.226-2.933c1-1.884,2.1-3.716,3.138-5.582a51.912,51.912,0,0,0,4.383-9.7,4.721,4.721,0,0,0-.146-3.769,18.867,18.867,0,0,1-.83-3.045,11.071,11.071,0,0,0-.846-2.3,2.993,2.993,0,0,1,.235-3.356,31.1,31.1,0,0,1,2.694-3.3c1.913-2.111,3.889-4.163,5.807-6.269.547-.6.983-1.3,1.591-2.117-.822-.5-1.531-.87-2.177-1.331a2.791,2.791,0,0,1-1.268-3.383,8.048,8.048,0,0,0,.211-4.536,2.955,2.955,0,0,1,1.254-3.136c1.838-1.294,3.732-2.513,5.637-3.709,2-1.254,4.22-2.157,5.975-3.673.142-.847-.458-1.065-.91-1.418a29.076,29.076,0,0,1-3.02-2.48,2.459,2.459,0,0,1,1.322-4.328,11.363,11.363,0,0,1,2.123-.175q10.138-.367,20.276-.723a7.132,7.132,0,0,0,1.769-.147,13.815,13.815,0,0,1,8.057.166,31.478,31.478,0,0,0,10.237.862,7.957,7.957,0,0,0,2.811-.328c2.161-.949,3.553-.068,4.946,1.491a27.85,27.85,0,0,0,3.458,3.061,10.055,10.055,0,0,0,9.727,1.687,34.739,34.739,0,0,0,3.37-1.114c3.912-1.634,8.041-1.941,12.2-2.04,2.794-.067,3.594.652,4.351,3.562a6.6,6.6,0,0,0,.334.789c1.761,1.365,4,1.587,6.084,1.969.32-.207.59-.287.7-.465,3.805-6.33,9.436-10.594,15.937-13.739a50.607,50.607,0,0,1,20.171-5.113,43.651,43.651,0,0,1,15.107,1.556c.9.284,1.81.568,2.683.93,4.955,2.058,7.383,4.431,9.726,9.565,3.175,1.031,5.327,3.5,7.248,6.283a47.482,47.482,0,0,0,3.911,5.047,13.337,13.337,0,0,0,9.1,4.336,11.369,11.369,0,0,0,5.844-1.206,3.571,3.571,0,0,0,.9-5.934,13.743,13.743,0,0,0-4.04-2.865c-.539-.234-1.122-.364-1.672-.579a1.97,1.97,0,0,1-1.4-1.83,1.931,1.931,0,0,1,2.007-1.624,5.141,5.141,0,0,1,1.744.246,15.812,15.812,0,0,1,6.6,4.687c3.081,3.86,2.084,8.939-2.321,11.146-5.152,2.582-10.334,2.145-15.328-.585a22.141,22.141,0,0,1-7.173-6.8c-.833-1.154-1.571-2.377-2.431-3.509A5.771,5.771,0,0,0,319.468,466.373ZM148.216,525.207l.459.46c.567-.4,1.161-.769,1.7-1.206,2.761-2.244,5.5-4.513,8.262-6.756a20.561,20.561,0,0,1,2.294-1.677c2.217-1.339,3.2-1.221,5.067.509.591.547,1.16,1.117,1.711,1.648.908-.425,1.648-.8,2.411-1.126,3.03-1.291,4.759-.876,6.9,1.652.68.8,1.111,1.844,2.178,2.289a7.166,7.166,0,0,0,2.906-2.545c1.3-1.686,2.487-3.466,3.739-5.193a27.532,27.532,0,0,1,2.153-2.817,3.75,3.75,0,0,1,4.255-.923,11.989,11.989,0,0,1,2.226,1.1c2.219,1.374,3.019.95,4.658-.66,2.115-2.078,4.251-4.136,6.383-6.2a26.659,26.659,0,0,1,2.082-1.935,4.86,4.86,0,0,1,4.7-.843,8.389,8.389,0,0,1,1.327.512,5.676,5.676,0,0,0,5.133.3,4.27,4.27,0,0,1,4.344.7c.834.563,1.491,1.433,2.665,1.711a18.517,18.517,0,0,0,.68-1.761c1.024-3.771,2.016-7.55,3.035-11.322.494-1.83.993-3.659,1.544-5.472a4.283,4.283,0,0,1,4.424-3.387,8.349,8.349,0,0,0,2.812-.245,10.481,10.481,0,0,1,6.274.014,41.372,41.372,0,0,0,7.175,1.424c1.962-1.76,3.772-3.461,5.667-5.061,1.936-1.635,4.366-2.639,6.447-4.816a66.464,66.464,0,0,0-8.144-.62,18.405,18.405,0,0,1-6.245-1.205c-2.33-.85-4.285-2.036-4.639-4.792-.011-.088-.167-.157-.322-.292a15.992,15.992,0,0,1-3.088.374,20.565,20.565,0,0,0-8.3,1.629c-1,.358-2.008.712-3.025,1.029-3.634,1.135-7.207,1.227-10.663-.655-.378-.206-.8-.563-1.246-.126-.06.117-.169.227-.151.31a8.864,8.864,0,0,0,.362,1.361,29.993,29.993,0,0,1,1.925,14.992c-.233,1.874-.136,3.788-.235,5.682a1.641,1.641,0,0,1-1.341,1.459,1.759,1.759,0,0,1-1.99-1.119,11.387,11.387,0,0,1-.311-2.8c.046-2.014.16-4.029.33-6.036a24.159,24.159,0,0,0-2.119-11.419,10.507,10.507,0,0,0-2.987-4.3c-2.846,2.025-5.538,3.936-8.22,5.859a4.5,4.5,0,0,0-.608.8c.192,1.065.41,2.337.65,3.6.916,4.836,1.161,9.656-.523,14.385-.794,2.23-1.7,4.421-2.614,6.607a7.1,7.1,0,0,1-1.1,1.795,1.251,1.251,0,0,1-1.6.364,2.151,2.151,0,0,1-1.021-1.291,5.786,5.786,0,0,1,.366-2.406c.678-1.9,1.46-3.754,2.218-5.619a16.861,16.861,0,0,0,1.242-6.239,23.27,23.27,0,0,0-1.323-9.095c-.588.314-1.017.5-1.4.755a29.863,29.863,0,0,0-8.333,8.653A45.183,45.183,0,0,1,175.98,498.8a43.621,43.621,0,0,0-9.878,8.636,5.828,5.828,0,0,1-.757.747,1.761,1.761,0,0,1-2-.029,1.868,1.868,0,0,1-.676-1.893,4.323,4.323,0,0,1,.653-1.254,43.512,43.512,0,0,1,3.152-3.368,82.629,82.629,0,0,1,9.794-7.672,33.788,33.788,0,0,0,7.565-7.464,6.731,6.731,0,0,0,.6-1.238,8.834,8.834,0,0,0-4.629-.805,21.809,21.809,0,0,0-6.842,1.765c-.945.488-1.942.882-2.932,1.274a5.676,5.676,0,0,1-1.365.334,1.684,1.684,0,0,1-1.277-2.947,2.4,2.4,0,0,1,.556-.437,77.73,77.73,0,0,1,7.234-2.909,17.456,17.456,0,0,1,9.822-.13,18.622,18.622,0,0,0,2,.341c1.27-1.418,2.414-2.78,3.649-4.052,1.217-1.255,2.527-2.421,3.891-3.715a14.58,14.58,0,0,0-7.128-.086c-1.957.457-3.9,1-5.849,1.472a11.448,11.448,0,0,1-2.079.357,1.355,1.355,0,0,1-1.377-.918,1.7,1.7,0,0,1,.4-1.947,8.552,8.552,0,0,1,2.2-1.1c2.047-.584,4.109-1.154,6.2-1.537a22.348,22.348,0,0,1,9.5-.083c1.02.253,2.038.514,2.91.734,5.55-3.117,7.17-4.34,8.62-6.587a55.887,55.887,0,0,1-13.771-1.907,6.2,6.2,0,0,0-2.1.141c-.7.086-1.4.307-2.1.33-4.736.153-9.441.906-14.2.713-1.539-.063-3.085.025-4.626.072a15.185,15.185,0,0,0-1.593.246c.591.521.925.826,1.272,1.118a14.156,14.156,0,0,1,1.357,1.131,2.5,2.5,0,0,1,.038,3.794,17.4,17.4,0,0,1-3.059,2.41c-2.011,1.25-4.137,2.315-6.15,3.563-1.384.858-2.984,1.48-3.993,3.063.894,1.582.251,3.184-.122,4.886.492.224.919.387,1.316.6,2.354,1.288,2.959,2.967,1.678,5.257a21.876,21.876,0,0,1-2.728,3.71c-1.567,1.778-3.271,3.436-4.891,5.168-.881.942-1.71,1.932-2.513,2.844.331,1.1.632,1.99.86,2.895a15.035,15.035,0,0,0,.608,2.747,9.007,9.007,0,0,1,.137,6.911,57.983,57.983,0,0,1-4.037,9.083Q148.769,524.137,148.216,525.207ZM284.125,657.032a20.607,20.607,0,0,1,2.22,8.286,19.239,19.239,0,0,1-2.145,10.313,5.572,5.572,0,0,0-.105,5.414c.522,1.062.973,2.159,1.5,3.216a16.5,16.5,0,0,0,8.328,7.933c8.648,3.762,17.061,3.3,25.088-1.775a36.792,36.792,0,0,0,8.676-7.842,27.158,27.158,0,0,0,6.431-18.377c-.153-7.087-2.894-12.792-8.813-16.956-3.083-2.169-6.516-3.273-10.122-4.318-1.078.724-2.127,1.489-3.232,2.159-5.807,3.513-11.915,5.768-18.872,4.461a9.936,9.936,0,0,0-1.794-.015C287,652.412,285.989,653.454,284.125,657.032Zm-49.652-35.341c-1.2.568-2.166,1.013-3.121,1.478a16.305,16.305,0,0,1-7.217,1.573,15.963,15.963,0,0,1-6.906-1.351c-2.891-1.348-5.785-2.694-8.623-4.149a3.109,3.109,0,0,0-3.633.216c-1.03.792-2.068,1.585-3.015,2.472a31.761,31.761,0,0,0-4.805,6.135,24.465,24.465,0,0,0-3.323,19.72,27.22,27.22,0,0,0,5.9,11.977,19,19,0,0,0,11.063,6.6,50.527,50.527,0,0,0,7.789.359,16.254,16.254,0,0,0,7.828-1.992c1.468-.765,2.889-1.62,4.35-2.4a5.566,5.566,0,0,0,2.7-3.128,29.1,29.1,0,0,1,11.306-13.781c.772-.529,1.521-1.092,2.392-1.719.041-1.916.069-3.8.124-5.685a17.926,17.926,0,0,0-2.681-9.437,11.245,11.245,0,0,0-4.187-4.25A25.268,25.268,0,0,0,234.473,621.691Zm71.219-89.818a29.457,29.457,0,0,1,10.783,3.193,26.709,26.709,0,0,1,8.288,6.613,25.318,25.318,0,0,1,5.182,9.608c.955,3.592.729,7.24.755,11.141a28.324,28.324,0,0,0,4.268-1.213c2.887-1.343,2.9-1.939,2.629-4.332-.08-.705-.081-1.418-.122-2.128-.112-1.943.1-3.8,1.465-5.178a4.6,4.6,0,0,0-.087-.868c-.917-2.712.068-4.853,1.979-6.735a19.179,19.179,0,0,1,5.231-3.628,5.475,5.475,0,0,0,2.16-1.236c-2.253-1.314-4.31-2.469-6.322-3.7-4.247-2.588-8.532-5.121-12.674-7.868a42.393,42.393,0,0,1-5.079-4.425,9.763,9.763,0,0,1-1.558-1.93,4.707,4.707,0,0,1,.737-6.424c.65-.639,1.387-1.189,2.3-1.962-.714-.407-1.186-.719-1.692-.959-1.926-.91-3.874-1.773-5.791-2.7a11.722,11.722,0,0,1-3.913-3.022,3.985,3.985,0,0,1-.525-5.214c.506-.917,1.094-1.791,1.706-2.782-1.148-.947-2.188-1.721-3.128-2.6a2.6,2.6,0,0,1,.2-4.264A16.605,16.605,0,0,1,314.623,488c1.046-.553,2.127-1.042,3.162-1.614.238-.131.353-.486.591-.835a4.777,4.777,0,0,0-1.076-.407c-3.655-.312-7.311-.63-10.972-.878A14.405,14.405,0,0,1,300.476,483a20.82,20.82,0,0,0-7.4-2.212,3.977,3.977,0,0,1-2.547-1.135c-1.23-1.359-2.721-1.27-4.271-1.026-2.1.332-4.184.813-6.295,1.046-4.725.522-9.451.688-14.1-.613l-2.014-.563-3.63,2.446c8.786,7.543,7.86,6.842,11.629,15.274a.883.883,0,0,0,.328.076,10.184,10.184,0,0,0,1.017-.244,27.382,27.382,0,0,1,15.073-.232,23.4,23.4,0,0,1,13.12,8.575,31.916,31.916,0,0,1,5.593,12.159,22.255,22.255,0,0,1,.018,10.91C306.634,528.83,306.194,530.177,305.692,531.873Zm-59.915,67.364c.105-8.329-3.59-17.894-11.33-22.729-6.808-4.255-13.925-5.017-21.266-1.523a43.372,43.372,0,0,0-6.394,3.8,21.776,21.776,0,0,0-9.284,15.349,15.645,15.645,0,0,0,1.321,9.356,29.4,29.4,0,0,0,9.013,10.815,42.676,42.676,0,0,0,12.678,6.249,14.905,14.905,0,0,0,3.122.555,13.041,13.041,0,0,0,6.83-1.618,28.3,28.3,0,0,0,11.9-10.882C244.419,605.254,245.715,601.56,245.777,599.237Zm49.18,1.009c-3.134-.549-6.352.551-9.255,2.583a27.492,27.492,0,0,0-10.637,14.309A17.8,17.8,0,0,0,274.959,628a26.752,26.752,0,0,0,9.391,13.921,19.9,19.9,0,0,0,12.22,4.2c6.255.053,11.583-2.345,16.2-6.306,6.642-5.7,8.466-13.148,7.24-21.545a13.785,13.785,0,0,0-.763-2.727,22.5,22.5,0,0,0-11.425-12.593A26.891,26.891,0,0,0,294.957,600.246ZM184.673,521.487c-.781.693-1.382,1.267-2.024,1.789-1.526,1.24-3.133,2.069-5.232,1.434a2.949,2.949,0,0,0-1.982.394,25.479,25.479,0,0,0-8.016,6.924,23.756,23.756,0,0,0-4.724,14.272,18.073,18.073,0,0,0,12.686,18.175,51.469,51.469,0,0,0,5.88,1.3,21.676,21.676,0,0,0,11.215-.741c8.77-2.79,14.583-8.563,17.132-17.486a16.249,16.249,0,0,0-2.209-14.244,22.58,22.58,0,0,0-6.846-6.631,31.79,31.79,0,0,0-10.1-4.264C188.615,522.019,186.734,521.81,184.673,521.487Zm73.5,168.176a36.972,36.972,0,0,0,4.565-.583c8.771-2.206,14.846-7.7,18.441-15.85,2.65-6,1.831-11.821-2.095-17.108a25.866,25.866,0,0,0-6.435-6.072,32.707,32.707,0,0,0-14.595-5.118,11.435,11.435,0,0,0-6.227.82c-7.783,3.578-13.545,9.058-15.787,17.625-1.745,6.665-.723,12.741,4.251,17.755a31.67,31.67,0,0,0,11.261,7.284A18.066,18.066,0,0,0,258.169,689.662Zm4.718-158.023a42.251,42.251,0,0,0-5.25.714,21.313,21.313,0,0,0-10.658,6.72c-4.644,5.222-7.274,14.1-2.842,22.131a26.117,26.117,0,0,0,15.13,12.694c6.583,2.149,12.878,1.373,18.5-2.885a54.955,54.955,0,0,0,5.338-4.672,17.8,17.8,0,0,0,4.963-9.626,22.341,22.341,0,0,0-.458-9.15,16.7,16.7,0,0,0-9.377-11.81A38.235,38.235,0,0,0,262.887,531.64Zm23.429,37.1c-1.668,1.436-3.172,2.755-4.7,4.043a25,25,0,0,1-9.294,5.064,19.9,19.9,0,0,1-8.763.9,30.583,30.583,0,0,1-15.11-6.622,16.925,16.925,0,0,0-1.742-1.141c-2.477,1.629-4.342,3.5-5.118,6.421.628.826,1.294,1.649,1.9,2.513,3.706,5.257,6,10.976,5.923,17.534a20.83,20.83,0,0,1-1.194,7.323,3.209,3.209,0,0,0,.916,3.84c.258.245.487.522.754.755a20.683,20.683,0,0,0,12.9,5.248,23.556,23.556,0,0,0,9.382-1.629c1.936-2.768,3.571-5.385,5.492-7.772a29.759,29.759,0,0,1,6.907-6.1c2.617-1.727,5.693-2.187,8.521-3.213,2.017-6.4,1.427-12.516-.683-18.612A17.116,17.116,0,0,0,286.316,568.745ZM221.654,506.3c-.324.363-.443.435-.464.528-1.1,4.832.206,9.115,3.006,13.048A3.127,3.127,0,0,0,227.9,521.1a27.356,27.356,0,0,1,8.432-.921c1.532.128,3.059.322,4.585.511,5.207.646,9.885,2.377,13.391,6.523.525.622,1.113,1.191,1.539,1.643a6.683,6.683,0,0,0,5.079-2.563c.562-.609,1.191-1.155,1.777-1.741a22.791,22.791,0,0,0,6.715-15.242,35.537,35.537,0,0,0-2.428-14.963,19.067,19.067,0,0,0-8.549-9.667,1.942,1.942,0,0,0-2.836.379c-1.824,2.271-4.218,2.371-6.783,1.792-1.268-.287-2.52-.644-3.788-.932a14.06,14.06,0,0,0-3.818-.725,60.122,60.122,0,0,0-6.387,1.074c-.379,1.222-.792,2.441-1.135,3.679-1.358,4.9-2.679,9.817-4.052,14.716a13.556,13.556,0,0,1-1.131,2.97,2.53,2.53,0,0,1-3.923.923C223.614,507.918,222.732,507.137,221.654,506.3ZM336.842,656.416a18.917,18.917,0,0,0,7.853-.207,24.421,24.421,0,0,0,14.492-10.168,20.4,20.4,0,0,0,3.515-16.189,21.912,21.912,0,0,0-11.314-15.535,18.621,18.621,0,0,0-10.934-2.42,38.324,38.324,0,0,0-12.908,3.634,20.43,20.43,0,0,0-2.153,1.24,2.548,2.548,0,0,0-1.31,2.357c.039.947.038,1.895.034,2.842-.027,6.059-1.305,11.736-5.083,16.657a7.357,7.357,0,0,0-.626,1.358,28.094,28.094,0,0,1,11.3,6.02A26.067,26.067,0,0,1,336.842,656.416ZM374.2,738.87c1.446-.118,2.748-.2,4.044-.342a9.891,9.891,0,0,0,1.724-.395c9.041-2.7,14.709-8.778,17.376-17.681a17.634,17.634,0,0,0-6.6-19.85,20.705,20.705,0,0,0-26.264,2.181,32.156,32.156,0,0,0-8.811,16.743,16.352,16.352,0,0,0,7.444,16.5A22.448,22.448,0,0,0,374.2,738.87ZM289.071,540.505c3.622,8.244,4.559,16.562-.246,24.742a58.054,58.054,0,0,1,5.1,6.472,64.783,64.783,0,0,1,3.39,7.854,30.568,30.568,0,0,0,11.876,1.018,16.852,16.852,0,0,0,9.529-4.324,26.424,26.424,0,0,0,7.076-10.918,21.189,21.189,0,0,0-6.714-24.019c-7.379-6.032-15.715-7.24-24.715-4.432A8.989,8.989,0,0,0,289.071,540.505Zm-76.27-5.51c.1.513.123.752.193.977a22.262,22.262,0,0,1-1.087,16.281,36.667,36.667,0,0,1-1.941,3.793,5.324,5.324,0,0,0-.681,4.048,16.525,16.525,0,0,0,4.464,8.336,3.756,3.756,0,0,0,3.838,1.208c6.464-1.449,12.439.018,18.081,3.238.906.516,1.776,1.1,2.491,1.539l5.7-6.481c-1.074-1.808-2.324-3.677-3.335-5.667a19.912,19.912,0,0,1-2.419-10.974c.6-6.335,2.834-11.979,7.756-16.28,1.423-1.244,2.963-2.354,4.459-3.515.535-.414,1.1-.795,1.679-1.216a14.235,14.235,0,0,0-8.685-5.408,38.4,38.4,0,0,0-8.824-.832,28.438,28.438,0,0,0-17.734,6.316A13.066,13.066,0,0,0,212.8,534.995Zm-17.1,71.244c-4.017-9.681-2.333-21.081,7.828-29.953a13.59,13.59,0,0,0-1.133-1.737,19.007,19.007,0,0,0-7.327-4.891,7.065,7.065,0,0,0-4.159-.4,23.972,23.972,0,0,1-4.932.49c-2.712-.054-5.419-.34-8.341-.543a37.488,37.488,0,0,0-11.423,10.219,23.23,23.23,0,0,0-5.264,15.5,15.313,15.313,0,0,0,2.842,8.644c4.436,6.15,10.786,8.173,18.023,8.086a21.53,21.53,0,0,0,4.209-.658A18.985,18.985,0,0,0,195.7,606.239Zm-38.037,42.486c-.415-.482-.625-.768-.876-1.013A54.081,54.081,0,0,1,142.9,624.47a93.749,93.749,0,0,1-3.241-14.9c-.323-2.356-.652-4.71-1.082-7.82-.476,1.879-.807,3.005-1.042,4.151-.426,2.087-.869,4.174-1.174,6.28-.831,5.739-1.888,11.465-2.316,17.237a110.56,110.56,0,0,0,1.32,27.616,67.961,67.961,0,0,0,7.12,21.1,31.513,31.513,0,0,0,6.848,8.558,20.609,20.609,0,0,0,10.866,4.85,48.6,48.6,0,0,0,12.742-.143c5.393-.619,10.75-1.553,16.121-2.351a48.269,48.269,0,0,0-5.965-.322,62.582,62.582,0,0,1-9.549-.683c-7.569-1.214-12.742-5.5-15.919-12.221-3.151-6.664-3.456-13.7-1.811-20.833C156.293,652.929,157.006,650.923,157.659,648.725Zm218.135,94.033a3.625,3.625,0,0,0-1.1,2.771,40.758,40.758,0,0,0,.032,4.969c.574,5.421,2.762,10.014,7.321,13.237a24.521,24.521,0,0,0,16.729,4.64,13.3,13.3,0,0,0,7.249-2.623c6.953-5.529,11.118-12.521,10.837-21.664a17.832,17.832,0,0,0-17.972-17.058,32.14,32.14,0,0,1-9.463,10.759C385.283,740.8,380.526,742.03,375.795,742.758Zm-13.585-94.195c-6.38,7.72-14.038,12.514-24.469,11.883-.013,2.038.059,3.918-.058,5.785a36.992,36.992,0,0,1-.685,5.625,53.621,53.621,0,0,1-1.783,5.749c-.6,1.747-1.993,3.14-2.54,5.17a22.513,22.513,0,0,1,10.22,6.49,38.229,38.229,0,0,0,12.362-1.007,32.328,32.328,0,0,0,9.186-3.676A24.744,24.744,0,0,0,375.1,672.117a14.069,14.069,0,0,0,.184-10.754,33.179,33.179,0,0,0-3.564-6.528A14.551,14.551,0,0,0,362.209,648.563ZM313,697.447a35.722,35.722,0,0,0-4.279.631c-2.968.8-5.882.326-8.795-.169-8.2-1.395-14.569-5.368-18.255-13.076-.393-.823-.823-1.628-1.369-2.7a36.3,36.3,0,0,1-9.7,8.017,2.97,2.97,0,0,0-1.185,1.272c-1.894,4.047-3,8.212-1.781,12.711,1.258,4.653,4.128,8.213,7.7,11.243a26.932,26.932,0,0,0,14.925,5.982,23.887,23.887,0,0,0,15.989-3.431c5.316-3.422,8.522-8.092,8.665-14.593A8.783,8.783,0,0,0,313,697.447Zm-11.813-165.6a17.632,17.632,0,0,0,2.7-10.313,25.728,25.728,0,0,0-2.941-10.895,20.857,20.857,0,0,0-7.666-8.685,23.1,23.1,0,0,0-18.113-2.638,16.933,16.933,0,0,0-2.363,1.015c.11,1.763.212,3.4.316,5.037.5,7.919-1.474,15.013-6.967,20.944-.367.4-.983.7-.755,1.645,2.408.561,4.907,1.126,7.4,1.727a26.762,26.762,0,0,1,7.552,3.027c2.2,1.322,4.26,2.865,6.4,4.325C290.888,533.532,295.749,532.256,301.19,531.851Zm56.746,172.612a20.986,20.986,0,0,0-1.849-1.176,18.514,18.514,0,0,0-5.827-1.476c-9.068-1.244-16.513,2.188-21.016,10.014a16.276,16.276,0,0,0-2.244,9.2,24.709,24.709,0,0,0,9.818,18.948c5.211,3.99,11.044,4.552,17.117,2.046a9.649,9.649,0,0,0,4.766-3.934c-.06-.21-.06-.351-.129-.433-.381-.45-.776-.886-1.169-1.326-5.326-5.967-6.846-12.817-4.708-20.488a35.687,35.687,0,0,1,3.617-8.47C356.839,706.466,357.331,705.546,357.936,704.463Zm-61-107.981c1.96.214,3.5.25,4.975.566,8.949,1.916,15.82,6.637,19.971,14.973.305.613.7,1.179.955,1.594l10.522-4.476c2.47-11.088-3.2-23.946-12.828-29.188a2.738,2.738,0,0,0-.646.246,23.317,23.317,0,0,1-18.524,3.947,28.951,28.951,0,0,0-3.441-.2A38.635,38.635,0,0,1,296.936,596.482Zm4.86,127.779a24.005,24.005,0,0,0,11.384,7.258,14.688,14.688,0,0,0,7.38.38c5.327-1.206,4.681-.13,3.526-5.2-.106-.462-.267-.915-.33-1.382-.468-3.417-.775-6.85.222-10.218,2.511-8.484,7.9-14.117,16.553-16.435.912-.245,1.882-.3,2.574-1.3-.408-2.789-2.315-4.753-4.2-6.7a16.45,16.45,0,0,0-8.772-4.738c-2.166,1.923-4.115,3.836-6.255,5.5-2.207,1.719-4.6,3.2-6.861,4.75a26.279,26.279,0,0,1,1.338,4.208,19.252,19.252,0,0,1-2.616,13.305,23.981,23.981,0,0,1-10.342,8.94C304.356,723.132,303.3,723.585,301.8,724.261Zm-50.591-82.42c6.017-1.691,11.386-.233,16.648,1.6a32.663,32.663,0,0,1,13.978,9.891c1.285-2.311,3.527-3.425,4.621-5.347-2.491-1.9-4.96-3.556-7.141-5.526a27.239,27.239,0,0,1-5.489-7.384,23.072,23.072,0,0,1-2.972-8.311c-.339-3.01-.218-6.072-.3-9.064a36.232,36.232,0,0,1-6.057.462c-3.173-.278-5.8.875-8.34,2.45a28.686,28.686,0,0,0-6.508,5.468,10.441,10.441,0,0,0-.981,1.521,60.533,60.533,0,0,1,1.989,6.713A72.529,72.529,0,0,1,251.206,641.841Zm-64.079-123.76a36.048,36.048,0,0,1,13.245,4.146,27.754,27.754,0,0,1,10.063,8.892c1.774-1.578,3.342-3.182,5.122-4.5,1.864-1.38,3.932-2.486,6.068-3.809a21.23,21.23,0,0,1-4.325-16.082l-6.919-2.36c-.964.927-1.885,1.83-2.824,2.713-2.412,2.268-4.8,4.568-7.261,6.776a4.992,4.992,0,0,1-6.493.684c-.97-.595-1.9-1.441-3.407-1.27ZM360.52,701.422c7.314-7.439,15.984-9.679,25.8-7.711a11.769,11.769,0,0,0-.749-9.711c-1.837-3.4-4.289-6.174-8.23-7.383-.609.883-1.136,1.662-1.677,2.432a30.466,30.466,0,0,1-10.474,9.424,38,38,0,0,1-16.633,4.51c-.877.04-1.828-.23-2.67.423l1.341,4.432A27.416,27.416,0,0,1,360.52,701.422ZM191.462,630.384c.744-1.27,1.373-2.4,2.052-3.492s1.383-2.206,2.143-3.26a31.041,31.041,0,0,1,2.221-2.762c.875-.961,1.863-1.818,2.757-2.763.85-.9,2.155-1.333,2.835-2.524-2.128-1.925-3.657-4.182-5.665-5.9a7.645,7.645,0,0,0-.783.433,23.556,23.556,0,0,1-11.358,4.628,11.3,11.3,0,0,0-2.194.712A11.168,11.168,0,0,0,191.462,630.384Zm63.3-13.492c-.736-.421-1.326-.781-1.936-1.1a27.539,27.539,0,0,1-5.849-3.988,6.782,6.782,0,0,0-1.237-.769c-2.345,2.517-4.527,4.843-6.679,7.2a1.945,1.945,0,0,0-.276.8l7.575,4.948c1.25-1.155,2.507-2.4,3.855-3.536C251.624,619.248,253.126,618.159,254.757,616.892ZM162.99,647.3a7.437,7.437,0,0,0,5.6,1.668,6.267,6.267,0,0,0,6.01-6.176c.038-1.895-.872-2.736-2.83-2.693a5.211,5.211,0,0,0-2.978.933A18.548,18.548,0,0,0,162.99,647.3Zm35.868-80.236c1.321.947,2.8,1.867,4.111,2.985,1.419,1.21,2.68,2.6,4.045,3.954l4.524-2.515a23.2,23.2,0,0,1-5.828-9.562c-2.355,1.6-4.567,3.1-6.771,4.618C198.879,566.586,198.9,566.752,198.858,567.064ZM315.4,465.215a10.936,10.936,0,0,0-9.316,2.659c-.3.254-.368.771-.539,1.152,2.43,1.692,4.714.839,6.9-.039A4.543,4.543,0,0,0,315.4,465.215ZM198.77,728.354c-.209-2.089-1.5-3.146-3.162-3.883a1.741,1.741,0,0,0-1.939,2.819C195.109,728.856,196.823,728.969,198.77,728.354Z" transform="translate(-129.934 -449.941)" fill="#561e1e"/>
      <path id="Path_1014" data-name="Path 1014" d="M454.141,707.391a3.01,3.01,0,0,1,2.332,2.222c2.584,6.237,2.9,12.45-.722,18.406a23.345,23.345,0,0,1-14.133,10.619,15.641,15.641,0,0,1-6.34.352,5.117,5.117,0,0,1-3.679-1.9,1.441,1.441,0,0,1-.1-.979.687.687,0,0,1,.5-.4,12.407,12.407,0,0,1,1.763-.053,19.979,19.979,0,0,0,12.876-4.3,24.322,24.322,0,0,0,7.379-8.515,15.3,15.3,0,0,0,1.005-11.393c-.253-.91-.622-1.789-.86-2.7A5.724,5.724,0,0,1,454.141,707.391Z" transform="translate(-229.749 -535.165)" fill="#561e1e"/>
      <path id="Path_1015" data-name="Path 1015" d="M409.022,765.654a20.808,20.808,0,0,0-2.572-9.436c-.31-.576-.834-1.206-.33-1.959.336-.5,1.357-.439,2.209.353a11.369,11.369,0,0,1,2.279,2.673c4.944,8.937,3.186,19.646-6.541,25.191a50.741,50.741,0,0,1-6.8,3.007,6.088,6.088,0,0,1-4.179.222c-.6-.2-1.092-.628-.979-1.28a1.729,1.729,0,0,1,.807-1.029,11.59,11.59,0,0,1,1.674-.548,31.34,31.34,0,0,0,9.228-5.22A14.151,14.151,0,0,0,409.022,765.654Z" transform="translate(-216.716 -550.574)" fill="#561e1e"/>
      <path id="Path_1016" data-name="Path 1016" d="M319.561,524.271a24.682,24.682,0,0,0-1.642-9.379,13.514,13.514,0,0,1-.645-2.375.966.966,0,0,1,1.438-.939,10.867,10.867,0,0,1,2.377,2.043,14.526,14.526,0,0,1,2.727,6.467,25.207,25.207,0,0,1-.343,10.9,41.311,41.311,0,0,1-2.936,8.711,21.038,21.038,0,0,1-2.114,3.255,3.633,3.633,0,0,1-1.456.937,1.147,1.147,0,0,1-1.46-1.4c.27-1.021.662-2.012,1.034-3A46.486,46.486,0,0,0,319.561,524.271Z" transform="translate(-191.352 -470.297)" fill="#561e1e"/>
      <path id="Path_1017" data-name="Path 1017" d="M239.444,721.477a3.156,3.156,0,0,1-.014,3.03c-.408,1.107-.95,2.164-1.407,3.254a24.906,24.906,0,0,0-1.979,10.013,9.641,9.641,0,0,0,2.887,7.016c1.171,1.167,2.444,2.232,3.661,3.354.446.41.906.966.477,1.508a2.037,2.037,0,0,1-1.486.712,7.714,7.714,0,0,1-2.721-.675,12.837,12.837,0,0,1-7.446-13.626c.689-3.988,1.565-7.9,3.864-11.315a22.716,22.716,0,0,1,2.234-2.733,3.118,3.118,0,0,1,1.239-.632C238.936,721.316,239.189,721.436,239.444,721.477Z" transform="translate(-163.474 -539.79)" fill="#561e1e"/>
      <path id="Path_1018" data-name="Path 1018" d="M394.167,624.179c.09-1.539,1.088-2.1,1.834-2.813a52.476,52.476,0,0,0,6.337-7.646,15.313,15.313,0,0,0,2.333-14.156c-.561-1.808-1.216-3.586-1.779-5.393a11.622,11.622,0,0,1-.381-2.058c-.049-.407.685-.833,1.048-.6a6.389,6.389,0,0,1,1.664,1.259c3.743,4.852,5.581,10.175,3.55,16.267a30.634,30.634,0,0,1-10.552,14.406A3.564,3.564,0,0,1,394.167,624.179Z" transform="translate(-217.404 -496.784)" fill="#561e1e"/>
      <path id="Path_1019" data-name="Path 1019" d="M375.5,549.713c-.019,1.914-.868,3.5-1.757,3.418-1.255-.113-1.716-1.167-2.18-2.121-1.3-2.661-2.452-5.395-3.847-8a37.045,37.045,0,0,0-6.844-9.477,3.8,3.8,0,0,1-.854-1.115,1.243,1.243,0,0,1,.406-1.58,2.541,2.541,0,0,1,2.349-.508,11.839,11.839,0,0,1,2.9,1.276,11.608,11.608,0,0,1,2.634,2.362,37.452,37.452,0,0,1,7.044,14.608A7.852,7.852,0,0,1,375.5,549.713Z" transform="translate(-206.058 -476.515)" fill="#561e1e"/>
      <path id="Path_1020" data-name="Path 1020" d="M503.288,833.414c.773-.326,1.125-.627,1.38-.561,4.414,1.161,7.583,3.623,8.8,8.262a11.229,11.229,0,0,1-1.579,9.146,22.069,22.069,0,0,1-7.683,7.205,4.133,4.133,0,0,1-3.036.687,1.052,1.052,0,0,1-.641-1.644c.556-.6,1.228-1.089,1.808-1.668a48.784,48.784,0,0,0,4.42-4.566,14.909,14.909,0,0,0,2.2-4.389,7.482,7.482,0,0,0-1.366-7.343c-.811-1.011-1.725-1.94-2.567-2.927C504.5,835.005,504.022,834.353,503.288,833.414Z" transform="translate(-252.54 -576.694)" fill="#561e1e"/>
      <path id="Path_1021" data-name="Path 1021" d="M522.856,903.905c.974-.382,1.826-.759,2.7-1.052a20.092,20.092,0,0,0,5.36-2.7,14.353,14.353,0,0,0,5.241-7.805,6.144,6.144,0,0,0-.276-4.512c-.8-1.707-1.674-3.384-2.543-5.06a17.024,17.024,0,0,1-1.062-1.833,1.393,1.393,0,0,1,.241-1.24,1.356,1.356,0,0,1,1.266-.171,9.944,9.944,0,0,1,2.2,1.734c8.452,9.1,1.6,21.656-7.234,23.663a23.541,23.541,0,0,1-4.2.49C523.892,905.45,523.126,905.257,522.856,903.905Z" transform="translate(-260.004 -592.121)" fill="#561e1e"/>
      <path id="Path_1022" data-name="Path 1022" d="M352.75,595.568a32.308,32.308,0,0,1-.756,3.782,22.542,22.542,0,0,1-6.4,9.614,3.36,3.36,0,0,1-2.83,1.177c-.421-.062-.906-.675-.708-1.016.352-.606.763-1.177,1.145-1.767,1.087-1.681,2.3-3.3,3.23-5.059a12.175,12.175,0,0,0,.464-10.608c-.523-1.31-1.218-2.55-1.837-3.82-.309-.634-.675-1.246-.925-1.9a1.251,1.251,0,0,1,1.391-1.55,5.386,5.386,0,0,1,3.337,1.835,11.948,11.948,0,0,1,3.671,9.279Z" transform="translate(-200.138 -494.456)" fill="#561e1e"/>
      <path id="Path_1023" data-name="Path 1023" d="M278.26,648.427c.795,0,1.468-.2,1.874.039a16.979,16.979,0,0,1,3.423,2.474,13.714,13.714,0,0,1,3.971,9.263,28.307,28.307,0,0,1-2.246,12.481,14.978,14.978,0,0,1-1.842,3.013,2.917,2.917,0,0,1-1.444.945,1.732,1.732,0,0,1-1.261-.322,1.147,1.147,0,0,1-.251-.941,4.45,4.45,0,0,1,.469-1.331,26.81,26.81,0,0,0,2.481-10.658,17.227,17.227,0,0,0-2.959-10.422C279.665,651.688,278.566,650.541,278.26,648.427Z" transform="translate(-179.035 -515.62)" fill="#561e1e"/>
      <path id="Path_1024" data-name="Path 1024" d="M396.775,701.265c-.211,3.081-.526,5.437-1.626,7.585a24.091,24.091,0,0,1-8.079,8.819,4.063,4.063,0,0,1-1.614.707,2.855,2.855,0,0,1-1.638-.256c-.533-.274-.33-1.072.393-1.819,1.482-1.532,3.067-2.975,4.435-4.6,4.774-5.68,5.585-11.839,2-18.453a2.625,2.625,0,0,1-.418-.97,1.481,1.481,0,0,1,.34-.9.733.733,0,0,1,.65-.138,4.674,4.674,0,0,1,1.282.571,7.362,7.362,0,0,1,2.933,3.919C396.06,697.751,396.442,699.849,396.775,701.265Z" transform="translate(-213.878 -529.81)" fill="#561e1e"/>
      <path id="Path_1025" data-name="Path 1025" d="M480.244,769.886a11.76,11.76,0,0,1-1.563,5.762,27.047,27.047,0,0,1-7.044,8.322,10.343,10.343,0,0,1-2.8,1.424,1.08,1.08,0,0,1-1.226-1.652,13.711,13.711,0,0,1,1.664-1.814,30.423,30.423,0,0,0,5.5-7.331,9.462,9.462,0,0,0-.167-9.771A18.769,18.769,0,0,1,473.18,762a1.15,1.15,0,0,1,1.626-1.37C478.475,762.611,480.068,765.843,480.244,769.886Z" transform="translate(-241.664 -552.756)" fill="#561e1e"/>
      <path id="Path_1026" data-name="Path 1026" d="M359.714,835.572a8.864,8.864,0,0,1,1.941-.607c1.765-.118,3.546-.027,5.307-.179a17.551,17.551,0,0,0,11.589-5.438,10.654,10.654,0,0,0,3.143-6.569c.042-.47.035-.946.1-1.412.084-.6.292-1.3.984-1.223a2.094,2.094,0,0,1,1.359.936,6.054,6.054,0,0,1-.046,5.781,17.447,17.447,0,0,1-10.6,9.814,24.414,24.414,0,0,1-10.506.938C361.209,837.418,361.126,837.319,359.714,835.572Z" transform="translate(-205.999 -572.489)" fill="#561e1e"/>
      <path id="Path_1027" data-name="Path 1027" d="M333.861,776.981c.667-.945,1.118-1.611,1.6-2.256,4-5.395,3.663-11.506-.908-16.464a24.641,24.641,0,0,1-2.086-2.392,1.4,1.4,0,0,1,.07-1.29,1.476,1.476,0,0,1,1.194-.514,7.033,7.033,0,0,1,3.976,2.18c3.694,3.832,5.434,8.269,3.767,13.586a14.488,14.488,0,0,1-3.96,6.614A2.915,2.915,0,0,1,333.861,776.981Z" transform="translate(-196.936 -550.614)" fill="#561e1e"/>
      <path id="Path_1028" data-name="Path 1028" d="M323.483,671.1a25.726,25.726,0,0,0,15.279-5.6c4.352-3.4,6.88-8.182,9.045-14.1a15.1,15.1,0,0,1,.748,2.158,8.215,8.215,0,0,1-.749,4.149,30.177,30.177,0,0,1-5.451,8.691,20.6,20.6,0,0,1-15.195,6.625,11.872,11.872,0,0,1-3.43-.678C323.3,672.23,323.01,671.767,323.483,671.1Z" transform="translate(-193.924 -516.632)" fill="#561e1e"/>
      <path id="Path_1029" data-name="Path 1029" d="M228.5,572.651a5.307,5.307,0,0,1,1.536.49,10.685,10.685,0,0,1,4.424,7.767c.661,5.338-1.117,10-4.071,14.319a4.633,4.633,0,0,1-2.77,2.077,1.217,1.217,0,0,1-.948-.288,1.091,1.091,0,0,1-.32-.913,10.2,10.2,0,0,1,.959-1.876,27.073,27.073,0,0,0,3.455-9.985,12.221,12.221,0,0,0-1.551-8.543c-.474-.783-.816-1.646-1.219-2.473Z" transform="translate(-161.846 -490.562)" fill="#561e1e"/>
      <path id="Path_1030" data-name="Path 1030" d="M402.945,557.46c1.123.65,1.862,1,2.515,1.468a104.181,104.181,0,0,0,16.269,9.415,55.176,55.176,0,0,1,4.948,2.77,1.435,1.435,0,0,1,.591,1.153,1.2,1.2,0,0,1-1.338.919,10.721,10.721,0,0,1-2.1-.26,19.548,19.548,0,0,1-7.154-3.023c-4.1-3.016-8.118-6.142-12.133-9.27A3.333,3.333,0,0,1,402.945,557.46Z" transform="translate(-220.308 -485.533)" fill="#561e1e"/>
      <path id="Path_1031" data-name="Path 1031" d="M183.534,662.229c.379-1.952.769-4.155,1.245-6.339a4.064,4.064,0,0,1,1.682-2.62,1.188,1.188,0,0,1,.939-.167,1.1,1.1,0,0,1,.615.772,17.872,17.872,0,0,1-.154,2.8,22.114,22.114,0,0,0,.377,9.487A43.8,43.8,0,0,0,190,670.386a1.614,1.614,0,0,1-1.419,2.266,2.846,2.846,0,0,1-2.236-.868,7.693,7.693,0,0,1-2.221-4.343C183.843,665.818,183.745,664.161,183.534,662.229Z" transform="translate(-147.677 -517.181)" fill="#561e1e"/>
      <path id="Path_1032" data-name="Path 1032" d="M420.617,680.068a2.022,2.022,0,0,1-1.255-2.109c-.279-5.679-2.167-10.887-4.548-15.959-.151-.322-.342-.629-.46-.962-.239-.678-.5-1.44.241-1.928a1.775,1.775,0,0,1,1.982.258,8.719,8.719,0,0,1,3.705,5.063,36.236,36.236,0,0,1,1.725,12.261A4.307,4.307,0,0,1,420.617,680.068Z" transform="translate(-224.005 -519.112)" fill="#561e1e"/>
      <path id="Path_1033" data-name="Path 1033" d="M433.55,842.131a2.212,2.212,0,0,1,.306,2.5A22,22,0,0,0,432.7,850.9a15.676,15.676,0,0,0,2.2,9.869c.694,1.065.642,1.985.121,2.2a1.926,1.926,0,0,1-1.95-.5,9.07,9.07,0,0,1-3.879-6.519,22.753,22.753,0,0,1,.8-9.491,12.4,12.4,0,0,1,1.853-3.382C432.209,842.59,433,842.421,433.55,842.131Z" transform="translate(-228.945 -579.769)" fill="#561e1e"/>
      <path id="Path_1034" data-name="Path 1034" d="M215.523,518.921c-.434-.287-.906-.431-.957-.665a3.661,3.661,0,0,1-.112-2.046c2.419-5.334,5.929-9.679,11.461-12.064a3.287,3.287,0,0,1,1.7-.354,2.194,2.194,0,0,1,1.339.927c.147.235-.156.908-.437,1.222a10.471,10.471,0,0,1-1.634,1.362,42.16,42.16,0,0,0-9.674,9.854A15.376,15.376,0,0,1,215.523,518.921Z" transform="translate(-157.875 -467.76)" fill="#561e1e"/>
      <path id="Path_1035" data-name="Path 1035" d="M290.976,732.691a50.65,50.65,0,0,1-.545,5.144,12.667,12.667,0,0,1-1.387,3.191,1.046,1.046,0,0,1-.921.338,1.075,1.075,0,0,1-.711-.686,15.506,15.506,0,0,1-.084-2.45c.035-1.533.227-3.072.146-4.6a18.269,18.269,0,0,0-2.66-9.079,8.883,8.883,0,0,1-1.011-1.862,1.689,1.689,0,0,1,.246-1.232c.089-.148.672-.145.944-.019a8.993,8.993,0,0,1,5.577,7.226C290.751,729.951,290.834,731.25,290.976,732.691Z" transform="translate(-180.856 -539.785)" fill="#561e1e"/>
      <path id="Path_1036" data-name="Path 1036" d="M365.574,660.474c-.767-1.113-.441-2.319-.215-3.444a24.567,24.567,0,0,0,.082-9.5,12.622,12.622,0,0,1,.023-3.51,1.133,1.133,0,0,1,1.907-.64,9.641,9.641,0,0,1,1.9,2.92c1.415,4.383.631,8.635-1.231,12.718C367.616,659.954,366.925,660.888,365.574,660.474Z" transform="translate(-207.779 -513.865)" fill="#561e1e"/>
      <path id="Path_1037" data-name="Path 1037" d="M301.363,767.719c.912.9.473,1.985.264,2.968a20.088,20.088,0,0,0,.832,10.095c.368,1.231,1.014,2.377,1.506,3.573.258.625.456,1.276.654,1.839a1.691,1.691,0,0,1-2.377.191,7.588,7.588,0,0,1-2.722-3.177c-1.6-3.036-1.782-6.3-1.57-9.633a9.282,9.282,0,0,1,1.407-4.681C299.814,768.21,300.335,767.533,301.363,767.719Z" transform="translate(-185.529 -555.126)" fill="#561e1e"/>
      <path id="Path_1038" data-name="Path 1038" d="M361.9,690.181a17.2,17.2,0,0,1-1.013,2.093,27.421,27.421,0,0,0-4.394,11.855c-.1.7-.184,1.41-.331,2.1a1.448,1.448,0,0,1-1.433,1.3,1.571,1.571,0,0,1-1.348-1.422,8.69,8.69,0,0,1-.2-1.4c-.307-5.293,1.891-9.644,5.2-13.531a5.446,5.446,0,0,1,2.077-1.262C360.784,689.777,361.274,690.049,361.9,690.181Z" transform="translate(-203.826 -529.367)" fill="#561e1e"/>
      <path id="Path_1039" data-name="Path 1039" d="M405.852,710.77a29.521,29.521,0,0,1-1.553,4.641,24.423,24.423,0,0,1-5.324,6.552,7.1,7.1,0,0,1-2.134,1.167,1.03,1.03,0,0,1-1.159-1.25,9.614,9.614,0,0,1,1-1.85q1.184-1.758,2.452-3.46a19.509,19.509,0,0,0,3.241-6.621,8.436,8.436,0,0,1,.836-1.9,1.017,1.017,0,0,1,1.537.032C405.158,708.9,405.454,709.779,405.852,710.77Z" transform="translate(-217.895 -535.271)" fill="#561e1e"/>
      <path id="Path_1040" data-name="Path 1040" d="M459.909,714.835c-.5,2.173-.929,4.368-1.543,6.51a7.477,7.477,0,0,1-1.407,2.4,1.415,1.415,0,0,1-1.229.415,1.486,1.486,0,0,1-.811-1.021,5.692,5.692,0,0,1,.044-2.1,38.4,38.4,0,0,0,.5-8.816c-.008-.472-.069-.943-.066-1.414.006-.747.193-1.44,1-1.676a1.8,1.8,0,0,1,1.878.694,5.19,5.19,0,0,1,1.359,3.192c.046.587.007,1.179.007,1.769Z" transform="translate(-237.489 -535.718)" fill="#561e1e"/>
      <path id="Path_1041" data-name="Path 1041" d="M425.991,777.378a6.867,6.867,0,0,1-.2-1.97,36.717,36.717,0,0,0,.126-11.234,24.1,24.1,0,0,1,.047-3.079,10.012,10.012,0,0,1,2.083,1.065,6.63,6.63,0,0,1,1.892,4.091,16.939,16.939,0,0,1-1.579,9.948A1.793,1.793,0,0,1,425.991,777.378Z" transform="translate(-227.862 -552.943)" fill="#561e1e"/>
      <path id="Path_1042" data-name="Path 1042" d="M189.848,580.631a14.174,14.174,0,0,1,.048,2.675,26.421,26.421,0,0,0,.44,11.194,3.708,3.708,0,0,1,.14,1.393c-.068.423-.284,1.053-.583,1.155a2.313,2.313,0,0,1-1.628-.106,3.5,3.5,0,0,1-1.739-2.555,19.911,19.911,0,0,1,.69-11.461A3.319,3.319,0,0,1,189.848,580.631Z" transform="translate(-148.497 -493.204)" fill="#561e1e"/>
      <path id="Path_1043" data-name="Path 1043" d="M185.772,536.425a7.7,7.7,0,0,1,.7-1.848,40.508,40.508,0,0,0,5.6-10.551,3.241,3.241,0,0,1,.583-.872,1.046,1.046,0,0,1,1.525.116,2.217,2.217,0,0,1,.432.937,9.992,9.992,0,0,1-.2,3.127,21.194,21.194,0,0,1-5.673,8.8C187.929,536.889,187.014,537.388,185.772,536.425Z" transform="translate(-148.418 -474.085)" fill="#561e1e"/>
      <path id="Path_1044" data-name="Path 1044" d="M522.3,847.967a12.7,12.7,0,0,1-.319-2.186,20.216,20.216,0,0,0-2.715-10.8,6.224,6.224,0,0,1-.5-1.3c-.147-.5.45-1.287.965-1.219a4.284,4.284,0,0,1,1.656.453,6.884,6.884,0,0,1,2.9,3.861,11.716,11.716,0,0,1,.481,5.224c-.175,1.4-.333,2.8-.594,4.188A1.87,1.87,0,0,1,522.3,847.967Z" transform="translate(-258.644 -576.568)" fill="#561e1e"/>
      <path id="Path_1045" data-name="Path 1045" d="M370.417,562.447c-.312,1.239-.6,2.617-1.038,3.945-.1.318-.7.585-1.1.654-.223.038-.649-.328-.768-.6a9.089,9.089,0,0,1-.61-2.027q-.748-4.374-1.412-8.763a7.025,7.025,0,0,1-.045-1.765,1.4,1.4,0,0,1,2.181-.922,4.483,4.483,0,0,1,1.812,2.961C369.839,558.013,370.079,560.133,370.417,562.447Z" transform="translate(-207.884 -483.964)" fill="#561e1e"/>
      <path id="Path_1046" data-name="Path 1046" d="M279.3,488.667c-.306.666-.383,1.242-.681,1.4a8.966,8.966,0,0,1-2.61,1.005,31.338,31.338,0,0,1-11.966.013,6.534,6.534,0,0,1-3.493-1.575,1.05,1.05,0,0,1-.2-.921,1.2,1.2,0,0,1,.785-.563,2.684,2.684,0,0,1,1.032.127,43.98,43.98,0,0,0,14.442.429A18.367,18.367,0,0,1,279.3,488.667Z" transform="translate(-173.092 -462.542)" fill="#561e1e"/>
      <path id="Path_1047" data-name="Path 1047" d="M238.851,597.375a9.158,9.158,0,0,1-.09-2.377,40.915,40.915,0,0,0,1.363-10.12c.011-.952.085-1.935,1.108-2.41.678-.315,1.656.688,2.039,2.035a1.913,1.913,0,0,1,.091.34,17.751,17.751,0,0,1-2.576,11.466C240.485,596.781,239.685,596.934,238.851,597.375Z" transform="translate(-165.938 -493.792)" fill="#561e1e"/>
      <path id="Path_1048" data-name="Path 1048" d="M369.979,515.626c-.66-.116-1.335-.179-1.977-.359-1.929-.542-3.831-1.183-5.768-1.688a34.173,34.173,0,0,0-9.134-.858,8.654,8.654,0,0,1-2.389-.395c-.2-.055-.332-.553-.373-.864a.67.67,0,0,1,.322-.562,11.686,11.686,0,0,1,3.059-.66,34.719,34.719,0,0,1,14.735,3.263,11.39,11.39,0,0,1,1.855,1.422Z" transform="translate(-202.894 -469.902)" fill="#561e1e"/>
      <path id="Path_1049" data-name="Path 1049" d="M384.265,846.961c-.254-.071-.6-.149-.926-.262a1.176,1.176,0,0,1-.569-1.959c.493-.5,1.052-.933,1.594-1.381,1.63-1.35,3.255-2.7,4.9-4.031a7.788,7.788,0,0,1,1.751-1.156,1.519,1.519,0,0,1,1.289.116,1.487,1.487,0,0,1,.49,1.214,10.285,10.285,0,0,1-7.741,7.4C384.827,846.943,384.591,846.94,384.265,846.961Z" transform="translate(-213.519 -578.428)" fill="#561e1e"/>
      <path id="Path_1050" data-name="Path 1050" d="M439.416,853.981c.071-1.267.056-2.6,1.016-3.618a1.672,1.672,0,0,1,1.179-.555,1.5,1.5,0,0,1,.991.821,6.028,6.028,0,0,1,.426,2.055,22.94,22.94,0,0,0,1.387,7.589,3.7,3.7,0,0,1,.108,1.383c-.017.548-.745.963-1.3.868a2.826,2.826,0,0,1-1.882-1.47A13.279,13.279,0,0,1,439.416,853.981Z" transform="translate(-232.383 -582.309)" fill="#561e1e"/>
      <path id="Path_1051" data-name="Path 1051" d="M263.811,613.745c-.6.33-.967.681-1.36.71a1.794,1.794,0,0,1-1.285-.4,5.757,5.757,0,0,1-1.4-1.977,22.075,22.075,0,0,1-.846-10.783,5.951,5.951,0,0,1,.882-1.717c.752-.09,1.034.232,1.15.733a7.781,7.781,0,0,1,.258,1.382C261.4,605.811,261.886,609.871,263.811,613.745Z" transform="translate(-172.53 -499.47)" fill="#561e1e"/>
      <path id="Path_1052" data-name="Path 1052" d="M337.105,790.615c.677-.929,1.036-1.506,1.478-2.01,1.017-1.157,2.094-2.261,3.111-3.418a15.24,15.24,0,0,0,3.414-6.165c.122-.458.211-.928.373-1.371.288-.793,1.141-1.472,1.518-1.173a2.757,2.757,0,0,1,.99,1.353,5.143,5.143,0,0,1-.621,4.113,25.206,25.206,0,0,1-9.2,8.666A5.493,5.493,0,0,1,337.105,790.615Z" transform="translate(-198.514 -558.011)" fill="#561e1e"/>
      <path id="Path_1053" data-name="Path 1053" d="M195.945,665.876c.32.187.722.29.893.547a21.687,21.687,0,0,1,1.414,2.451c1.145,2.331,2.252,4.681,3.371,7.025a5.893,5.893,0,0,1,.266.654,1.13,1.13,0,0,1-1.215,1.342,3.6,3.6,0,0,1-1.6-.686,14.761,14.761,0,0,1-4.4-8.683,4.8,4.8,0,0,1,.4-2.048C195.172,666.22,195.622,666.089,195.945,665.876Z" transform="translate(-151.362 -521.422)" fill="#561e1e"/>
      <path id="Path_1054" data-name="Path 1054" d="M308.821,602.857c-1.227.225-1.8-.574-2.21-1.425a12.715,12.715,0,0,1-.791-8.333,7.822,7.822,0,0,1,1.371-2.434,1.653,1.653,0,0,1,.853-.6,1.33,1.33,0,0,1,.981.07c.258.162.572.61.512.846a32.068,32.068,0,0,0-.35,10.921C309.218,602.208,308.948,602.543,308.821,602.857Z" transform="translate(-188.043 -496.306)" fill="#561e1e"/>
      <path id="Path_1055" data-name="Path 1055" d="M477.809,846.616a5.412,5.412,0,0,1,.339,1.8,22.089,22.089,0,0,0-.221,8.735,2.547,2.547,0,0,1-.126,1.03,1.23,1.23,0,0,1-1.723.662,5.122,5.122,0,0,1-1.431-1.476c-1.5-2.776-.608-7.961,1.725-10.16A5.025,5.025,0,0,1,477.809,846.616Z" transform="translate(-243.801 -581.253)" fill="#561e1e"/>
      <path id="Path_1056" data-name="Path 1056" d="M328.454,548.334c-.11-.478-.373-.94-.274-1.3a74.938,74.938,0,0,0,2.2-10.7,1.685,1.685,0,0,1,1.185-1.586c.585-.158,1.343.672,1.478,1.682a8.757,8.757,0,0,1,.087,2.105,22.913,22.913,0,0,1-2.247,7.757A3.1,3.1,0,0,1,328.454,548.334Z" transform="translate(-195.553 -478.007)" fill="#561e1e"/>
      <path id="Path_1057" data-name="Path 1057" d="M213.453,480.751c-4.4-.952-8.413-1.814-12.419-2.707-.17-.038-.278-.359-.553-.741.5-.409.967-1.113,1.528-1.2a14.232,14.232,0,0,1,10.48,2.175C213.031,478.647,213.14,478.981,213.453,480.751Z" transform="translate(-153.287 -458.534)" fill="#561e1e"/>
      <path id="Path_1058" data-name="Path 1058" d="M344.589,818.849c.108-2.37.243-4.135,1.137-5.721a5.072,5.072,0,0,1,1.061-1.387,1.576,1.576,0,0,1,1.236-.391c.279.09.5.706.536,1.108a3.777,3.777,0,0,1-.239,1.381,15.776,15.776,0,0,0-.172,8.018,8.111,8.111,0,0,1,.169,1.387c.023.547-.753.973-1.3.784a3.123,3.123,0,0,1-2-2.294A20.665,20.665,0,0,1,344.589,818.849Z" transform="translate(-200.992 -569.57)" fill="#561e1e"/>
      <path id="Path_1059" data-name="Path 1059" d="M350.888,617.681c.092.688.324,1.192.172,1.515a8.984,8.984,0,0,1-1.611,2.681,25.305,25.305,0,0,1-8.3,5.273c-.492.2-.591.149-2.055-.506a4.137,4.137,0,0,1,.751-1.086c.949-.694,1.992-1.26,2.947-1.947C345.361,621.758,347.905,619.869,350.888,617.681Z" transform="translate(-199.173 -505.468)" fill="#561e1e"/>
      <path id="Path_1060" data-name="Path 1060" d="M315.362,728.554c.247-1.253.5-2.76.862-4.24a3.419,3.419,0,0,1,.84-1.525,2.221,2.221,0,0,1,1.448-.727c.65.041.8.745.828,1.36a1.507,1.507,0,0,1-.005.352,32.583,32.583,0,0,0-.324,7.735c.029.688-.016,1.45-.851,1.747A1.82,1.82,0,0,1,316,731.924a7.657,7.657,0,0,1-.4-1.353C315.5,730,315.462,729.408,315.362,728.554Z" transform="translate(-191.317 -540.022)" fill="#561e1e"/>
      <path id="Path_1061" data-name="Path 1061" d="M298.04,730.605a5.491,5.491,0,0,1-.978-1.252c-1.009-2.515-1.955-5.055-2.9-7.6a3.876,3.876,0,0,1-.167-1.042,1.242,1.242,0,0,1,1.693-1.208,3.687,3.687,0,0,1,1.573,1.31,20.033,20.033,0,0,1,2.134,7.789A1.7,1.7,0,0,1,298.04,730.605Z" transform="translate(-184.242 -539.141)" fill="#561e1e"/>
      <path id="Path_1062" data-name="Path 1062" d="M396.256,533.706a12.921,12.921,0,0,1,1.8.442,15.816,15.816,0,0,1,5.166,2.9,1.694,1.694,0,0,1,.417,1.935,1.5,1.5,0,0,1-1.732.89,11.727,11.727,0,0,1-6.563-3.751.528.528,0,0,1-.159-.308,2.975,2.975,0,0,1,.038-1.326C395.4,534.137,395.906,533.954,396.256,533.706Z" transform="translate(-217.722 -477.67)" fill="#561e1e"/>
      <path id="Path_1063" data-name="Path 1063" d="M404.2,608.66c-.4,2.764-.814,5.21-2.392,7.262a2.327,2.327,0,0,1-.8.689,1.307,1.307,0,0,1-.977.115c-.245-.122-.387-.537-.476-.852a1.162,1.162,0,0,1,.1-.688,20.606,20.606,0,0,0,1.327-7.288,4.846,4.846,0,0,1,.407-1.7,1.122,1.122,0,0,1,.779-.572,1.086,1.086,0,0,1,.907.372C403.541,606.927,403.892,607.915,404.2,608.66Z" transform="translate(-219.181 -501.476)" fill="#561e1e"/>
      <path id="Path_1064" data-name="Path 1064" d="M552.611,886.618c-.153.454-.247.792-.381,1.114a.952.952,0,0,1-1.489.273,2.6,2.6,0,0,1-.459-.529q-1.788-3.67-3.548-7.353c-.285-.593-.3-1.275.3-1.544a2.287,2.287,0,0,1,1.644.069A3.406,3.406,0,0,1,550,879.788,19.012,19.012,0,0,1,552.611,886.618Z" transform="translate(-267.845 -591.793)" fill="#561e1e"/>
      <path id="Path_1065" data-name="Path 1065" d="M431.673,817.372a5.963,5.963,0,0,1,1.528.811,9.786,9.786,0,0,1,2.99,5.893,1.186,1.186,0,0,1-.806,1.416,1.479,1.479,0,0,1-1.257-.349c-1.48-1.834-2.934-3.695-4.279-5.629C429.2,818.585,430.144,817.3,431.673,817.372Z" transform="translate(-229.147 -571.572)" fill="#561e1e"/>
      <path id="Path_1066" data-name="Path 1066" d="M465.466,781.683a14.513,14.513,0,0,1,.585-1.539,12.106,12.106,0,0,0,1.551-6.777c-.1-1.313.535-2.165,1.274-2.157.789.009,1.515.754,1.818,1.9a2.572,2.572,0,0,1,.171,1.034c-.551,3.079-1.556,5.917-4.373,7.706C466.356,781.933,466.077,781.789,465.466,781.683Z" transform="translate(-241.006 -556.291)" fill="#561e1e"/>
      <path id="Path_1067" data-name="Path 1067" d="M409.982,857.7c1.4.092,2.8.15,4.2.294.53.054.759,1.081.348,1.442a3.733,3.733,0,0,1-1.125.8,13.287,13.287,0,0,1-7.287.485,2.428,2.428,0,0,1-1.2-.682,1.623,1.623,0,0,1-.475-1.2,1.354,1.354,0,0,1,.953-.848c1.521-.093,3.052-.04,4.578-.04Q409.978,857.828,409.982,857.7Z" transform="translate(-220.801 -584.924)" fill="#561e1e"/>
      <path id="Path_1068" data-name="Path 1068" d="M257.776,499.767c-.62,1.873-2.346,2.846-3.5,4.257-1.1,1.345-2.2,2.7-3.238,3.978-.991-.051-1.03-.674-1.02-1.239a3.478,3.478,0,0,1,.278-1.366,14.73,14.73,0,0,1,4.562-5.708A1.953,1.953,0,0,1,257.776,499.767Z" transform="translate(-169.684 -466.203)" fill="#561e1e"/>
      <path id="Path_1069" data-name="Path 1069" d="M374.109,761.884a6.838,6.838,0,0,1-.354,1.6,27.826,27.826,0,0,0-3.553,7.294c-.058.207-.276.371-.423.552a.869.869,0,0,1-1.23-.164,3.418,3.418,0,0,1-.129-3.075,12.448,12.448,0,0,1,4.018-5.714A6.111,6.111,0,0,1,374.109,761.884Z" transform="translate(-208.781 -553.204)" fill="#561e1e"/>
      <path id="Path_1070" data-name="Path 1070" d="M503.657,809.43c-.267.919-.409,1.606-.67,2.246-.227.557-.684,1.061-1.333.791a1.842,1.842,0,0,1-.771-1.043c-.437-1.207-.817-2.436-1.17-3.67a10.3,10.3,0,0,1-.393-2.041,1.155,1.155,0,0,1,1.5-1.018,2.834,2.834,0,0,1,1.359,1C502.791,806.937,503.214,808.271,503.657,809.43Z" transform="translate(-252.212 -567.352)" fill="#561e1e"/>
      <path id="Path_1071" data-name="Path 1071" d="M429.838,681.146a4.079,4.079,0,0,1-.7-1.193c-.305-1.952-.533-3.917-.775-5.88a1.13,1.13,0,0,1,.061-.68,1.486,1.486,0,0,1,.706-.674,1.143,1.143,0,0,1,.916.262,2.53,2.53,0,0,1,.753,1.139,10.879,10.879,0,0,1-.11,6.2C430.588,680.6,430.212,680.793,429.838,681.146Z" transform="translate(-228.716 -523.682)" fill="#561e1e"/>
      <path id="Path_1072" data-name="Path 1072" d="M426.079,707.766a9.965,9.965,0,0,1-.9.543,12.938,12.938,0,0,0-4.71,3.656,1.369,1.369,0,0,1-.566.411.839.839,0,0,1-.637.014.711.711,0,0,1-.313-.571,3.445,3.445,0,0,1,.469-1.3A6.38,6.38,0,0,1,426.079,707.766Z" transform="translate(-225.607 -535.256)" fill="#561e1e"/>
      <path id="Path_1073" data-name="Path 1073" d="M295.561,674.623a16.169,16.169,0,0,1-.243-5.68,1.02,1.02,0,0,1,.673-.669c.25-.053.772.177.829.38.566,2.028.848,4.053-.6,5.88C296.172,674.591,296.023,674.565,295.561,674.623Z" transform="translate(-184.636 -522.214)" fill="#561e1e"/>
      <path id="Path_1074" data-name="Path 1074" d="M575.342,897.39a28.884,28.884,0,0,1,.014-2.95,57.057,57.057,0,0,0,.165-10.982,32.229,32.229,0,0,0-3.228-11.542q-.606-1.281-1.241-2.549c-.3-.605-.29-1.27.325-1.515a1.924,1.924,0,0,1,1.622.155,11.755,11.755,0,0,1,2.177,2.3,17.992,17.992,0,0,1,2.875,6.816,36.305,36.305,0,0,1,.256,15.486C577.866,894.732,577.445,895.456,575.342,897.39Z" transform="translate(-275.895 -588.247)" fill="#561e1e"/>
      <path id="Path_1075" data-name="Path 1075" d="M444.15,905.863a1.25,1.25,0,0,1-.977,1.473,11.9,11.9,0,0,1-3.41.885c-5.991.2-11.815-.5-16.984-3.9a13.537,13.537,0,0,1-2.729-2.233,11.312,11.312,0,0,1-1.563-2.732c-.094-.2.178-.636.38-.882.091-.111.461-.094.642-.007a3.45,3.45,0,0,1,.854.617,23.667,23.667,0,0,0,11.622,5.7,36.493,36.493,0,0,0,9.857.905A17.425,17.425,0,0,1,444.15,905.863Z" transform="translate(-225.449 -598.396)" fill="#561e1e"/>
    </g>
  </g>
</svg>
