<svg height="105.913" viewBox="0 0 98.074 105.913" width="98.074" xmlns="http://www.w3.org/2000/svg"><g fill="#3d2d32"><path d="m94.124 214.75a16.526 16.526 0 0 1 -16.508-16.508 2.13 2.13 0 1 1 4.26 0 12.248 12.248 0 0 0 24.5 0 2.13 2.13 0 1 1 4.26 0 16.525 16.525 0 0 1 -16.512 16.508z" transform="translate(-54.957 -108.837)"/><path d="m128.8 201.653a16.375 16.375 0 0 1 -11.33-4.516 16.47 16.47 0 0 1 -22.659 0 16.507 16.507 0 1 1 0-23.986 16.476 16.476 0 0 1 22.659 0 16.5 16.5 0 1 1 11.33 28.5zm-11.33-9.807a2.135 2.135 0 0 1 1.681.818 12.247 12.247 0 1 0 0-15.04 2.205 2.205 0 0 1 -3.357 0 12.219 12.219 0 0 0 -19.3 0 2.205 2.205 0 0 1 -3.357 0 12.249 12.249 0 1 0 0 15.04 2.205 2.205 0 0 1 3.357 0 12.215 12.215 0 0 0 19.3 0 2.127 2.127 0 0 1 1.68-.817z" transform="translate(-66.978 -139.883)"/><path d="m111.486 204.388a16.367 16.367 0 0 1 -11.33-4.516 16.5 16.5 0 0 1 -27.839-11.992 2.13 2.13 0 0 1 4.26 0 12.239 12.239 0 0 0 21.9 7.521 2.2 2.2 0 0 1 3.357 0 12.237 12.237 0 0 0 21.9-7.521 2.13 2.13 0 0 1 4.26 0 16.527 16.527 0 0 1 -16.508 16.508z" transform="translate(-60.945 -120.546)"/><path d="m94.124 188.153a16.508 16.508 0 1 1 13.01-26.649 2.129 2.129 0 1 1 -3.357 2.62 12.243 12.243 0 1 0 -9.653 19.769 2.13 2.13 0 0 1 0 4.26z" transform="translate(-54.957 -155.138)"/><path d="m110.168 223.205c-.484 0-8.567-.075-12.39-4.741a2.13 2.13 0 0 1 3.3-2.7c1.527 1.864 4.6 2.688 6.891 3.005l-.169-4.769a2.131 2.131 0 0 1 3.259-1.879c2.718 1.7 9.01 4.605 12.018 3.368 1.24-3.02-1.666-9.3-3.368-12.015a2.133 2.133 0 0 1 -.04-2.2 2.053 2.053 0 0 1 1.919-1.065l4.769.162c-.32-2.288-1.142-5.363-3.008-6.891a10.807 10.807 0 0 0 -8.1-2.516 2.13 2.13 0 0 1 -1.5-3.917l5.152-3.089a33.563 33.563 0 0 0 -3.713-3.661 2.129 2.129 0 1 1 2.729-3.27 37.291 37.291 0 0 1 5.915 6.264 2.131 2.131 0 0 1 -.641 3.063l-1.9 1.137a15.623 15.623 0 0 1 4.763 2.692c4.709 3.86 4.741 12.054 4.741 12.4a2.125 2.125 0 0 1 -.652 1.527 2.025 2.025 0 0 1 -1.551.6l-3.438-.117c1.772 3.734 3.8 9.653 1.3 13.607a2.112 2.112 0 0 1 -.667.665c-3.951 2.494-9.87.471-13.6-1.3l.113 3.435a2.128 2.128 0 0 1 -2.121 2.2z" transform="translate(-32.719 -130.956)"/></g></svg>