<svg height="95.631" viewBox="0 0 101.832 95.631" width="101.832" xmlns="http://www.w3.org/2000/svg"><g fill="#ebdac5"><path d="m88.269 252.538a2.12 2.12 0 0 1 -.775-.147c-.356-.138-.716-.271-1.08-.39a2.131 2.131 0 0 1 1.355-4.041c.428.147.854.3 1.276.462a2.131 2.131 0 0 1 -.775 4.115z" transform="translate(-55.434 -247.852)"/><path d="m107.26 341.546a26.862 26.862 0 0 1 -7.941-1.21 26.7 26.7 0 0 1 -4.533-49.131 22.45 22.45 0 0 0 3.02-37.806 2.13 2.13 0 0 1 2.554-3.41 26.706 26.706 0 0 1 -3.591 44.986 22.441 22.441 0 1 0 27.858 34.037 2.131 2.131 0 0 1 3.3 2.692 26.806 26.806 0 0 1 -20.672 9.841z" transform="translate(-60.458 -245.915)"/><path d="m104.8 288.6a2.083 2.083 0 0 1 -.837-.172 2.128 2.128 0 0 1 -1.118-2.795c.147-.345.285-.7.415-1.048a2.13 2.13 0 0 1 4 1.472c-.155.422-.322.841-.5 1.252a2.125 2.125 0 0 1 -1.96 1.291z" transform="translate(-35.425 -207.917)"/><path d="m121.894 311.561a19.538 19.538 0 0 1 -4.075-.394 66.42 66.42 0 0 1 -7.6-2.245 23.829 23.829 0 0 1 -12.719-12.733c-3.3-8.3 1.911-19.162 2.134-19.62a2.13 2.13 0 0 1 3-.9l1.9 1.125a15.606 15.606 0 0 1 .089-5.472c1.14-5.981 8.324-9.926 8.629-10.09a2.128 2.128 0 0 1 2.918.922l1.54 3.074c2.432-3.34 6.631-7.887 11.327-7.647a2.166 2.166 0 0 1 .9.266c4.079 2.283 5.127 8.448 5.357 12.576l2.963-1.745a2.131 2.131 0 0 1 2.948.812c.168.307 4.056 7.519 1.762 13.161a15.664 15.664 0 0 1 -2.895 4.641l2.209.092a2.13 2.13 0 0 1 2.026 2.386c-.062.5-1.6 12.454-8.869 17.63a23.538 23.538 0 0 1 -13.544 4.161zm-19.317-30.981c-1.193 3.214-2.965 9.385-1.118 14.037a19.682 19.682 0 0 0 10.311 10.337 62.893 62.893 0 0 0 6.959 2.053 19.457 19.457 0 0 0 14.245-3.08c4.079-2.9 5.945-9.046 6.688-12.392l-6-.249a2.13 2.13 0 0 1 -.55-4.16 10.646 10.646 0 0 0 5.919-6.083c.907-2.232.162-5.327-.652-7.491l-4.113 2.422a2.13 2.13 0 0 1 -3.206-1.964c.192-3.2-.262-10.109-2.784-12.167-3.235.358-7.372 5.913-8.95 8.7a1.972 1.972 0 0 1 -1.908 1.082 2.127 2.127 0 0 1 -1.851-1.176l-2.136-4.266c-1.857 1.374-4.166 3.566-4.616 5.934a10.657 10.657 0 0 0 1.674 8.337 2.132 2.132 0 0 1 -2.735 3.18z" transform="translate(-42.496 -236.873)"/><path d="m105.857 294.815a2.105 2.105 0 0 1 -.812-.162 2.127 2.127 0 0 1 -1.154-2.78c.669-1.617 1.34-3.2 2-4.765a149.827 149.827 0 0 0 5.576-14.49 2.13 2.13 0 0 1 4.081 1.223 152.262 152.262 0 0 1 -5.736 14.927c-.654 1.551-1.321 3.127-1.985 4.731a2.128 2.128 0 0 1 -1.97 1.316z" transform="translate(-34.225 -221.582)"/><path d="m91.229 292.573a21.266 21.266 0 0 1 -15.029-6.187 17.425 17.425 0 0 1 -.023-24.61 14.364 14.364 0 0 1 20.293-.019 11.921 11.921 0 0 1 .013 16.838 9.875 9.875 0 0 1 -7.031 2.918h-.011a9.884 9.884 0 0 1 -7.031-2.913 8.4 8.4 0 0 1 -.011-11.86 7.088 7.088 0 0 1 5.042-2.092h.009a7.081 7.081 0 0 1 5.04 2.085 2.13 2.13 0 1 1 -3.012 3.012 2.846 2.846 0 0 0 -2.028-.837 2.848 2.848 0 0 0 -2.032.844 4.128 4.128 0 0 0 .006 5.832 5.644 5.644 0 0 0 4.017 1.664h.006a5.647 5.647 0 0 0 4.021-1.67 7.653 7.653 0 0 0 -.009-10.81 10.094 10.094 0 0 0 -14.267.013 13.158 13.158 0 0 0 .017 18.584 17.014 17.014 0 0 0 20.254 2.807 2.131 2.131 0 0 1 2.081 3.719 21.1 21.1 0 0 1 -10.315 2.682z" transform="translate(-71.098 -236.872)"/></g></svg>