<svg height="200" viewBox="0 0 153 200" width="153" xmlns="http://www.w3.org/2000/svg"><path d="m0 0h153a0 0 0 0 1 0 0v190a10 10 0 0 1 -10 10h-133a10 10 0 0 1 -10-10v-190a0 0 0 0 1 0 0z" fill="#ebdac5"/><path d="m332.806 230.791a13.284 13.284 0 0 0 -24.94 4.984 28.18 28.18 0 1 1 -15.246-28.529c.143.07.3.134.434.208.055.029.108.056.158.078a13.245 13.245 0 0 0 11.614-23.808l.007-.024a54.7 54.7 0 1 0 29.2 56.239 13.194 13.194 0 0 0 -1.227-9.148z" fill="#3b444a" transform="translate(-203.259 -160.31)"/><path d="m367.636 269.68a22.515 22.515 0 0 1 -19.632.772 21.311 21.311 0 1 0 9.492 19.306 22.537 22.537 0 0 1 11.751-17.06c6.853-3.66 5.244-6.679-1.611-3.018z" fill="#b8aea1" transform="translate(-259.413 -216.139)"/><g fill="#3b444a"><path d="m6.355-15.78a8.188 8.188 0 0 0 .706 2.744 6.086 6.086 0 0 0 1.332 1.857 5.06 5.06 0 0 0 1.756 1.07 5.883 5.883 0 0 0 1.978.343 6.991 6.991 0 0 0 3.309-.726 4.892 4.892 0 0 0 2.139-2.422 2.135 2.135 0 0 1 .585-.868 1.228 1.228 0 0 1 .747-.218h1.211a1.115 1.115 0 0 1 .787.323.9.9 0 0 1 .3.767 5.211 5.211 0 0 1 -.626 2.119 7.074 7.074 0 0 1 -1.735 2.139 10.261 10.261 0 0 1 -2.825 1.675 10.221 10.221 0 0 1 -3.895.686 10.014 10.014 0 0 1 -3.935-.726 8.562 8.562 0 0 1 -2.903-1.983 8.993 8.993 0 0 1 -1.857-2.946 11.129 11.129 0 0 1 -.747-3.632q-.04-.646-.061-1.594a12.04 12.04 0 0 1 .061-1.635 12.782 12.782 0 0 1 .828-3.633 9.17 9.17 0 0 1 1.836-2.946 8.393 8.393 0 0 1 2.866-1.978 9.865 9.865 0 0 1 3.915-.726 10.221 10.221 0 0 1 3.895.686 10.261 10.261 0 0 1 2.825 1.675 7.074 7.074 0 0 1 1.735 2.139 5.211 5.211 0 0 1 .626 2.119.9.9 0 0 1 -.3.767 1.115 1.115 0 0 1 -.787.323h-1.214a1.228 1.228 0 0 1 -.747-.222 2.135 2.135 0 0 1 -.585-.868 4.892 4.892 0 0 0 -2.139-2.422 6.991 6.991 0 0 0 -3.309-.726 6.058 6.058 0 0 0 -2 .343 5.021 5.021 0 0 0 -1.776 1.07 6.086 6.086 0 0 0 -1.33 1.856 7.614 7.614 0 0 0 -.666 2.744 16.5 16.5 0 0 0 0 2.826zm16.588 3.794a5.916 5.916 0 0 1 .646-2.825 6.193 6.193 0 0 1 1.776-2.058 9.624 9.624 0 0 1 2.644-1.372 19.636 19.636 0 0 1 3.209-.807l5.691-.928v-.524a3.635 3.635 0 0 0 -1.352-3.087 5.4 5.4 0 0 0 -3.37-1.029 4.621 4.621 0 0 0 -2.684.646 6.727 6.727 0 0 0 -1.554 1.534 1.327 1.327 0 0 1 -.525.444 1.987 1.987 0 0 1 -.767.121h-1.212a1.115 1.115 0 0 1 -.787-.323.9.9 0 0 1 -.3-.767 3.9 3.9 0 0 1 .706-1.816 6.221 6.221 0 0 1 1.7-1.655 9.962 9.962 0 0 1 2.462-1.191 9.321 9.321 0 0 1 2.966-.464 10.471 10.471 0 0 1 3.37.525 7.443 7.443 0 0 1 2.664 1.534 6.961 6.961 0 0 1 1.735 2.5 8.816 8.816 0 0 1 .619 3.428v12.31a1.048 1.048 0 0 1 -.323.767 1.048 1.048 0 0 1 -.767.323h-1.49a1.048 1.048 0 0 1 -.767-.323 1.048 1.048 0 0 1 -.323-.767v-1.654a3.692 3.692 0 0 1 -1.13 1.352 7.626 7.626 0 0 1 -1.756.989 10.664 10.664 0 0 1 -2.058.605 10.811 10.811 0 0 1 -2 .2 8.954 8.954 0 0 1 -2.886-.442 6.979 6.979 0 0 1 -2.22-1.191 5.239 5.239 0 0 1 -1.413-1.8 5.148 5.148 0 0 1 -.504-2.256zm7.426 2.22a7.685 7.685 0 0 0 2.664-.444 6.263 6.263 0 0 0 2.079-1.231 5.313 5.313 0 0 0 1.332-1.877 6.119 6.119 0 0 0 .464-2.422v-1.009l-4.762.767a11.478 11.478 0 0 0 -4.036 1.291 2.628 2.628 0 0 0 -1.493 2.3 2.13 2.13 0 0 0 .2.888 2.635 2.635 0 0 0 .646.848 3.255 3.255 0 0 0 1.15.646 5.472 5.472 0 0 0 1.756.242zm33.131 1.977a1.048 1.048 0 0 1 -.323.767 1.048 1.048 0 0 1 -.767.323h-1.489a1.048 1.048 0 0 1 -.767-.323 1.048 1.048 0 0 1 -.323-.767v-10.655a6.416 6.416 0 0 0 -1.493-4.641 5.534 5.534 0 0 0 -4.157-1.534 5.579 5.579 0 0 0 -4.1 1.534 6.259 6.259 0 0 0 -1.554 4.641v10.655a1.048 1.048 0 0 1 -.323.767 1.048 1.048 0 0 1 -.767.323h-1.489a1.048 1.048 0 0 1 -.767-.323 1.048 1.048 0 0 1 -.323-.767v-18.811a1.048 1.048 0 0 1 .323-.767 1.048 1.048 0 0 1 .767-.323h1.493a1.048 1.048 0 0 1 .767.323 1.048 1.048 0 0 1 .323.767v1.251a7.5 7.5 0 0 1 2.28-1.877 7.952 7.952 0 0 1 3.975-.868 9.636 9.636 0 0 1 3.511.626 7.882 7.882 0 0 1 2.765 1.776 7.974 7.974 0 0 1 1.8 2.845 10.587 10.587 0 0 1 .638 3.797zm11.1 1.089a1.015 1.015 0 0 1 -.807-.323 2.716 2.716 0 0 1 -.444-.686l-8.029-18.726a.894.894 0 0 1 -.04-.283.934.934 0 0 1 .283-.686.934.934 0 0 1 .686-.283h1.493a1.187 1.187 0 0 1 .908.323 1.975 1.975 0 0 1 .424.646l6.256 14.65 6.256-14.65a2.129 2.129 0 0 1 .4-.646.967.967 0 0 1 .767-.323h1.657a.934.934 0 0 1 .686.283.934.934 0 0 1 .283.686.9.9 0 0 1 -.04.283l-8.032 18.726a3.051 3.051 0 0 1 -.424.686.954.954 0 0 1 -.783.323zm11.058-5.287a5.916 5.916 0 0 1 .646-2.825 6.193 6.193 0 0 1 1.776-2.058 9.624 9.624 0 0 1 2.644-1.372 19.636 19.636 0 0 1 3.209-.807l5.691-.928v-.523a3.635 3.635 0 0 0 -1.352-3.087 5.4 5.4 0 0 0 -3.37-1.029 4.621 4.621 0 0 0 -2.684.646 6.727 6.727 0 0 0 -1.554 1.534 1.327 1.327 0 0 1 -.525.444 1.987 1.987 0 0 1 -.767.121h-1.208a1.115 1.115 0 0 1 -.787-.323.9.9 0 0 1 -.3-.767 3.9 3.9 0 0 1 .706-1.816 6.221 6.221 0 0 1 1.7-1.655 9.962 9.962 0 0 1 2.462-1.191 9.321 9.321 0 0 1 2.955-.467 10.471 10.471 0 0 1 3.37.525 7.443 7.443 0 0 1 2.664 1.534 6.961 6.961 0 0 1 1.735 2.5 8.816 8.816 0 0 1 .631 3.431v12.31a1.048 1.048 0 0 1 -.323.767 1.048 1.048 0 0 1 -.767.323h-1.493a1.048 1.048 0 0 1 -.767-.323 1.048 1.048 0 0 1 -.323-.767v-1.654a3.692 3.692 0 0 1 -1.127 1.352 7.626 7.626 0 0 1 -1.76.992 10.664 10.664 0 0 1 -2.058.605 10.811 10.811 0 0 1 -2 .2 8.954 8.954 0 0 1 -2.882-.445 6.979 6.979 0 0 1 -2.22-1.191 5.239 5.239 0 0 1 -1.413-1.8 5.148 5.148 0 0 1 -.506-2.256zm7.426 2.22a7.685 7.685 0 0 0 2.664-.444 6.263 6.263 0 0 0 2.078-1.231 5.314 5.314 0 0 0 1.332-1.877 6.12 6.12 0 0 0 .464-2.422v-1.009l-4.762.767a11.478 11.478 0 0 0 -4.036 1.291 2.628 2.628 0 0 0 -1.493 2.3 2.13 2.13 0 0 0 .2.888 2.635 2.635 0 0 0 .646.848 3.255 3.255 0 0 0 1.15.646 5.472 5.472 0 0 0 1.761.243zm26.435-2.744a1.909 1.909 0 0 0 -.424-1.271 3.351 3.351 0 0 0 -1.271-.868 14.231 14.231 0 0 0 -2.159-.686q-1.312-.323-3.047-.686a7.852 7.852 0 0 1 -4.581-2.28 5.7 5.7 0 0 1 -1.312-3.733 5.6 5.6 0 0 1 .484-2.3 5.568 5.568 0 0 1 1.453-1.937 6.955 6.955 0 0 1 2.442-1.332 11.07 11.07 0 0 1 3.451-.484 12.007 12.007 0 0 1 3.451.444 9.032 9.032 0 0 1 2.482 1.13 5.566 5.566 0 0 1 1.534 1.473 3.057 3.057 0 0 1 .565 1.513.9.9 0 0 1 -.3.767 1.115 1.115 0 0 1 -.787.323h-1.332a2.132 2.132 0 0 1 -.585-.1 1.255 1.255 0 0 1 -.626-.464 3.946 3.946 0 0 0 -1.554-1.15 7.076 7.076 0 0 0 -2.845-.464 5.819 5.819 0 0 0 -3.007.686 2.115 2.115 0 0 0 -1.15 1.9 2.116 2.116 0 0 0 .323 1.231 2.583 2.583 0 0 0 1.049.807 10 10 0 0 0 1.917.626q1.191.283 2.966.686a13.332 13.332 0 0 1 3.108 1.029 7.423 7.423 0 0 1 2.018 1.413 4.6 4.6 0 0 1 1.09 1.735 6.157 6.157 0 0 1 .323 2 5.029 5.029 0 0 1 -.585 2.341 5.985 5.985 0 0 1 -1.675 1.978 8.909 8.909 0 0 1 -2.644 1.372 11.012 11.012 0 0 1 -3.531.525 11.659 11.659 0 0 1 -3.511-.484 10.778 10.778 0 0 1 -2.623-1.191 6.027 6.027 0 0 1 -1.675-1.538 3.035 3.035 0 0 1 -.626-1.554.92.92 0 0 1 .283-.767 1.1 1.1 0 0 1 .807-.323h1.453a3.118 3.118 0 0 1 .565.061 1 1 0 0 1 .605.464 4.165 4.165 0 0 0 1.776 1.372 7.565 7.565 0 0 0 2.946.484 7.726 7.726 0 0 0 1.756-.2 6.055 6.055 0 0 0 1.534-.565 3.478 3.478 0 0 0 1.07-.868 1.737 1.737 0 0 0 .403-1.115z" transform="translate(13.782 174.913)"/><path d="m21.855-6.259c-4.868 2.485-7.975 2.313-9.666 1.313a6.044 6.044 0 0 1 -.691-.518 8 8 0 0 0 1-1.933 2.494 2.494 0 0 0 .138-1.278 1.146 1.146 0 0 0 -.586-.825 1 1 0 0 0 -.553-.1 1.75 1.75 0 0 0 -1.697 1.341 3.128 3.128 0 0 0 .173 2.14 3.85 3.85 0 0 0 .414.724q-.512.675-1.237 1.555a6.488 6.488 0 0 1 -2.072 1.829.439.439 0 0 0 -.1.07l-.038-.035a1.748 1.748 0 0 1 -.034-.656 16.7 16.7 0 0 1 1.036-4.074.478.478 0 0 0 -.277-.587.478.478 0 0 0 -.518.173c-.07.139-.207.31-.31.483-1 1.519-3.212 4.8-4.35 4.7a.034.034 0 0 1 -.034-.034c-.068-.035-.068-.242-.034-.553a9.331 9.331 0 0 1 .518-1.726 25.5 25.5 0 0 1 2.519-4.63.47.47 0 0 0 -.07-.621.376.376 0 0 0 -.518 0c-.828.587-1.622 1.174-2.382 1.692-.793.518-1.621 1.07-2.519 1.553a.443.443 0 0 0 -.138.621.4.4 0 0 0 .587.135c.9-.518 1.727-1.035 2.555-1.588.207-.139.414-.312.621-.45a23.059 23.059 0 0 0 -1.45 2.938 7.918 7.918 0 0 0 -.587 1.933c-.1.691.034 1.21.448 1.451l.034.034c.1.034.242.07.38.1 1.14.1 2.693-1.623 3.867-3.245a10.5 10.5 0 0 0 -.276 1.627 2.817 2.817 0 0 0 .173 1.174l.034.034a.877.877 0 0 0 1.174.31 7.489 7.489 0 0 0 2.382-2.074 17.652 17.652 0 0 0 1.208-1.484 6.059 6.059 0 0 0 .76.553c1.9 1.14 5.317 1.347 10.53-1.312a.407.407 0 0 0 .173-.587.433.433 0 0 0 -.587-.173zm-11.081-.207a2.168 2.168 0 0 1 -.138-1.518.986.986 0 0 1 .9-.76.209.209 0 0 1 .138.034.562.562 0 0 1 .1.207 1.93 1.93 0 0 1 -.1.828 8.192 8.192 0 0 1 -.724 1.485 1.993 1.993 0 0 0 -.173-.277zm33.27.2a90.669 90.669 0 0 1 -14.982 4.04 15.282 15.282 0 0 1 -4 .207c-.828-.139-1.346-.38-1.415-.863a2.067 2.067 0 0 1 .173-.794c.931-2.072 3.935-4.971 3.935-4.971a.439.439 0 0 0 .034-.621.43.43 0 0 0 -.589-.032 25.066 25.066 0 0 1 -2.452 1.622c-.9.517-1.76.966-2.624 1.415a.456.456 0 0 0 -.207.587.456.456 0 0 0 .587.207q1.14-.569 2.279-1.242a13.3 13.3 0 0 0 -1.761 2.693 2.548 2.548 0 0 0 -.241 1.242c.1.931.9 1.449 2.175 1.622a15.512 15.512 0 0 0 4.244-.206 86.877 86.877 0 0 0 15.155-4.108.431.431 0 0 0 .241-.587.417.417 0 0 0 -.553-.207zm-14.017-5.9a1.315 1.315 0 0 0 -1.1.794c-.207.45.035.794.449.794a1.319 1.319 0 0 0 1.139-.794c.169-.45-.039-.795-.488-.795zm17.545 5.218c.483-.277 1-.553 1.484-.828l-.207.31c-1.449 2.038-3.521 4.938-3.556 5.766a.534.534 0 0 0 .76.551 10.989 10.989 0 0 0 2.624-2.865c1.623-2.14 3.623-4.73 4.523-4.73.07 0-.759 2.727-.828 2.9-.207.657-.448 1.312-.621 1.9-.346 1.244.1 1.934 1.071 2.21 2.828.828 10.978-2.625 13.323-3.626l.277-.1a.45.45 0 0 0 .241-.553.431.431 0 0 0 -.587-.241l-.241.1c-2.313.967-10.254 4.315-12.773 3.591-.449-.138-.656-.484-.482-1.14.172-.552.414-1.208.621-1.829a11.791 11.791 0 0 0 .828-3c.034-.656-.207-1.036-.794-1.071-1.347-.034-3.486 2.762-5.248 5.041q-.517.672-.932 1.242c.691-1.1 1.692-2.486 2.486-3.625.655-.9 1.173-1.658 1.346-1.968a.413.413 0 0 0 .033-.487.449.449 0 0 0 -.621-.138c-1.036.655-2.107 1.276-3.142 1.829s-2.037 1.037-2.934 1.451a.431.431 0 0 0 -.241.587.444.444 0 0 0 .587.207c.932-.414 1.967-.931 3-1.484zm19.476.705c-.068.07-.138.173-.21.242a4.594 4.594 0 0 0 -.967 1.8 2.11 2.11 0 0 0 .276 1.761c.553.794 1.831 1.312 4.04 1.312a35.379 35.379 0 0 0 7.8-1.1 111.75 111.75 0 0 0 11.013-3.288.424.424 0 0 0 .277-.553.425.425 0 0 0 -.553-.277 109.417 109.417 0 0 1 -10.942 3.246 36.017 36.017 0 0 1 -7.595 1.1c-1.9 0-2.9-.38-3.314-.967a1.19 1.19 0 0 1 -.137-1.033 3.927 3.927 0 0 1 .76-1.451l.1-.1c4.281-.311 6.732-1.1 7.768-1.865a1.619 1.619 0 0 0 .691-.794.839.839 0 0 0 -.173-.932 2.111 2.111 0 0 0 -1.482-.518 10.6 10.6 0 0 0 -7.318 3.384zm1.52-.275a9.269 9.269 0 0 1 5.8-2.243c.45 0 .76.069.863.207h.034l-.034.034a.773.773 0 0 1 -.38.38c-.863.621-2.8 1.278-6.283 1.622zm43.169.518a.5.5 0 0 0 -.621-.173c-7.147 4.246-14.051 4.386-18.78 4.178.967-.863 1.071-2.348 1.14-3.728.069-1.519.173-2.9 1.761-2.9h.173a.822.822 0 0 1 .38.207.423.423 0 0 1 .1.31v.07a.4.4 0 0 0 .343.482.416.416 0 0 0 .518-.346v-.207a1.352 1.352 0 0 0 -.31-.9 1.528 1.528 0 0 0 -.9-.483.961.961 0 0 0 -.31-.034h-.1a2.922 2.922 0 0 0 -.794.1 10.612 10.612 0 0 0 -4.037 2.424 6.378 6.378 0 0 1 -1.069.83.476.476 0 0 0 -.1.621.441.441 0 0 0 .587.138c.344-.207.724-.553 1.174-.9a15.507 15.507 0 0 1 1.968-1.519 9.7 9.7 0 0 0 -.241 2.072c-.1 1.692-.207 3.486-2.45 3.624h-.07a.84.84 0 0 1 -.725-.207 1.121 1.121 0 0 1 -.347-.76v-.034a.407.407 0 0 0 -.448-.414.428.428 0 0 0 -.414.448v.034a1.932 1.932 0 0 0 .621 1.382 2.043 2.043 0 0 0 1.347.449h.518c4.73.277 12.636.725 20.921-4.177a.451.451 0 0 0 .165-.587z" transform="translate(21.198 188.326)"/></g></svg>