<svg height="96.383" viewBox="0 0 78.585 96.383" width="78.585" xmlns="http://www.w3.org/2000/svg"><g fill="#ebdac5"><path d="m226.965 273.571h-54.565a12.022 12.022 0 0 1 -12.009-12.009v-1.881a12.022 12.022 0 0 1 12.009-12.007h54.567a12.023 12.023 0 0 1 12.009 12.007v1.881a12.023 12.023 0 0 1 -12.011 12.009zm-54.565-21.637a7.757 7.757 0 0 0 -7.749 7.747v1.881a7.758 7.758 0 0 0 7.749 7.749h54.567a7.758 7.758 0 0 0 7.749-7.749v-1.881a7.757 7.757 0 0 0 -7.749-7.747z" transform="translate(-160.389 -247.674)"/><path d="m184.64 332.578a2.13 2.13 0 1 1 0-4.26 6.682 6.682 0 0 0 0-13.364 10.94 10.94 0 1 1 0-21.879 6.681 6.681 0 0 0 0-13.362 10.941 10.941 0 0 1 0-21.882 2.13 2.13 0 0 1 0 4.26 6.681 6.681 0 0 0 0 13.362 10.941 10.941 0 0 1 0 21.882 6.68 6.68 0 1 0 0 13.359 10.942 10.942 0 0 1 0 21.884z" transform="translate(-145.347 -236.195)"/></g></svg>