<svg height="88.792" viewBox="0 0 124.433 88.792" width="124.433" xmlns="http://www.w3.org/2000/svg"><path d="m16.758 57.923h26v19h-26z" fill="none"/><path d="m197.225 401.183h-35.154a9.914 9.914 0 0 1 -9.9-9.9v-14.7a9.915 9.915 0 0 1 9.9-9.9h35.154a9.939 9.939 0 0 1 4.905 1.3l14.85 9.308h16.205a2.13 2.13 0 1 1 0 4.26h-16.817a2.141 2.141 0 0 1 -1.131-.324l-15.291-9.587a5.592 5.592 0 0 0 -2.72-.7h-35.155a5.649 5.649 0 0 0 -5.642 5.642v14.7a5.649 5.649 0 0 0 5.642 5.642h35.154a5.631 5.631 0 0 0 2.795-.741l15.217-9.542a2.124 2.124 0 0 1 1.131-.326h16.819a2.13 2.13 0 1 1 0 4.26h-16.206l-14.774 9.263a9.971 9.971 0 0 1 -4.982 1.345z" fill="#ebdac5" transform="translate(-152.169 -312.391)"/><path d="m202.543 384.946h-7.576a2.129 2.129 0 0 1 -2.13-2.13v-9.027a2.129 2.129 0 0 1 2.13-2.13h7.576a2.129 2.129 0 0 1 2.13 2.13v9.027a2.129 2.129 0 0 1 -2.13 2.13zm-5.446-4.26h3.316v-4.767h-3.313z" fill="#ebdac5" transform="translate(-106.214 -306.764)"/><path d="m185.406 390.574h-23.73a2.129 2.129 0 0 1 -2.13-2.13v-19.635a2.129 2.129 0 0 1 2.13-2.13h23.73a2.129 2.129 0 0 1 2.13 2.13v19.634a2.129 2.129 0 0 1 -2.13 2.131zm-21.6-4.26h19.47v-15.375h-19.47z" fill="#ebdac5" transform="translate(-143.833 -312.391)"/><path d="m29.758 30.923h26v19h-26z" fill="none"/><g fill="#ebdac5"><path d="m182.688 376.453a2.131 2.131 0 0 1 -1.135-3.936l14.416-9.038a2.124 2.124 0 0 1 1.131-.326h16.819a2.13 2.13 0 0 1 0 4.26h-16.206l-13.9 8.714a2.112 2.112 0 0 1 -1.125.326z" transform="translate(-120.093 -316.376)"/><path d="m160.313 378.083a2.129 2.129 0 0 1 -2.13-2.13v-12.118a9.913 9.913 0 0 1 9.9-9.9h35.156a9.9 9.9 0 0 1 4.905 1.3l14.848 9.3h16.208a2.13 2.13 0 1 1 0 4.26h-16.821a2.141 2.141 0 0 1 -1.131-.324l-15.291-9.585a5.578 5.578 0 0 0 -2.718-.7h-35.156a5.647 5.647 0 0 0 -5.64 5.64v12.118a2.129 2.129 0 0 1 -2.13 2.139z" transform="translate(-145.373 -326.792)"/><path d="m208.557 372.2h-7.576a2.128 2.128 0 0 1 -2.13-2.13v-9.029a2.128 2.128 0 0 1 2.13-2.13h7.576a2.129 2.129 0 0 1 2.13 2.13v9.029a2.13 2.13 0 0 1 -2.13 2.13zm-5.446-4.26h3.316v-4.769h-3.316z" transform="translate(-99.418 -321.166)"/><path d="m191.42 377.83h-23.73a2.128 2.128 0 0 1 -2.13-2.13v-19.635a2.128 2.128 0 0 1 2.13-2.13h23.73a2.129 2.129 0 0 1 2.13 2.13v19.635a2.129 2.129 0 0 1 -2.13 2.13zm-21.6-4.26h19.47v-15.37h-19.47z" transform="translate(-137.037 -326.792)"/></g><path d="m42.758 3.923h26v19h-26z" fill="none"/><path d="m189.081 363.425a2.132 2.132 0 0 1 -1.135-3.936l13.96-8.752a2.124 2.124 0 0 1 1.131-.326h16.819a2.13 2.13 0 1 1 0 4.26h-16.205l-13.441 8.429a2.112 2.112 0 0 1 -1.129.325z" fill="#ebdac5" transform="translate(-112.868 -330.774)"/><path d="m166.493 365.342a2.129 2.129 0 0 1 -2.13-2.13v-12.118a9.914 9.914 0 0 1 9.9-9.9h35.154a9.881 9.881 0 0 1 4.905 1.3l14.848 9.306h16.205a2.13 2.13 0 0 1 0 4.26h-16.816a2.141 2.141 0 0 1 -1.131-.324l-15.291-9.587a5.573 5.573 0 0 0 -2.718-.7h-35.154a5.649 5.649 0 0 0 -5.642 5.642v12.118a2.129 2.129 0 0 1 -2.13 2.133z" fill="#ebdac5" transform="translate(-138.39 -341.192)"/><path d="m214.737 359.46h-7.576a2.128 2.128 0 0 1 -2.13-2.13v-9.03a2.128 2.128 0 0 1 2.13-2.13h7.576a2.129 2.129 0 0 1 2.13 2.13v9.027a2.129 2.129 0 0 1 -2.13 2.133zm-5.446-4.26h3.316v-4.767h-3.316z" fill="#ebdac5" transform="translate(-92.435 -335.563)"/><path d="m197.6 365.089h-23.73a2.128 2.128 0 0 1 -2.13-2.13v-19.637a2.129 2.129 0 0 1 2.13-2.13h23.73a2.131 2.131 0 0 1 2.13 2.13v19.637a2.129 2.129 0 0 1 -2.13 2.13zm-21.6-4.26h19.47v-15.377h-19.47z" fill="#ebdac5" transform="translate(-130.054 -341.192)"/></svg>