<svg height="273.532" viewBox="0 0 274.374 273.532" width="274.374" xmlns="http://www.w3.org/2000/svg"><g transform="translate(-61.95 -274.041)"><path d="m257.352 363.5c8.892-9.8 21.481-16.824 24.081-18.22.087-.045.177-.094.264-.143l.24-.125c.153-.066.31-.108.459-.178 5.823 8.969 13.414 20.858 18.439 25.88 9.822 9.822 31.38 23.462 34.916 19.925s-10.1-25.094-19.925-34.919c-5.1-5.1-17.287-12.853-26.3-18.707a13.023 13.023 0 0 0 -17.308-16.824c-5.078-7.124-11.92-18.262-16.017-23.246-10.476-12.738-32.184-25.957-36.144-22s9.261 25.668 22 36.144c4.9 4.034 15.759 10.716 22.894 15.77-.153.233-.324.459-.459.7l-.01-.011s-.049.1-.129.24c-.049.091-.1.181-.143.275-1.4 2.61-8.4 15.161-18.168 24.026a123.417 123.417 0 0 1 -20.442 15.321c-7.918 4.594-17.475 7.793-26.368 10-8.9-2.207-18.453-5.405-26.368-10a123.4 123.4 0 0 1 -20.4-15.265c-9.8-8.889-16.824-21.481-18.22-24.081-.045-.087-.094-.174-.143-.265l-.129-.244-.01.011c-.177-.317-.4-.616-.6-.919 7.135-5.05 17.959-11.719 22.856-15.745 12.742-10.476 25.961-32.184 22-36.144s-25.668 9.258-36.144 22c-4.1 4.984-10.935 16.121-16.017 23.246a13.021 13.021 0 0 0 -17.308 16.824c-9.011 5.851-21.2 13.608-26.3 18.707-9.825 9.825-23.462 31.38-19.925 34.916s25.094-10.1 34.919-19.925c5.022-5.022 12.613-16.911 18.436-25.88.077.038.157.056.233.09.139.087.271.191.414.271l-.01.01.24.129c.09.049.181.1.275.146 2.607 1.4 15.161 8.4 24.025 18.164a123.436 123.436 0 0 1 15.312 20.446c4.594 7.915 7.793 17.472 10 26.368-2.207 8.892-5.405 18.45-10 26.368a123.406 123.406 0 0 1 -15.314 20.448c-8.865 9.766-21.415 16.769-24.025 18.168-.094.045-.184.094-.275.146l-.24.125.01.01c-.327.188-.637.407-.954.623-5.047-7.135-11.712-17.952-15.738-22.849-10.476-12.738-32.184-25.961-36.144-22s9.258 25.668 22 36.144c4.984 4.1 16.121 10.939 23.246 16.017a13.022 13.022 0 0 0 16.824 17.308c5.854 9.011 13.608 21.2 18.707 26.3 9.825 9.825 31.38 23.462 34.916 19.925s-10.1-25.094-19.922-34.916c-5.022-5.022-16.915-12.617-25.88-18.439.028-.066.045-.136.077-.2.1-.16.219-.313.31-.477l.01.01.129-.244c.049-.087.1-.178.143-.265 1.4-2.6 8.419-15.189 18.22-24.081a123.407 123.407 0 0 1 20.4-15.265c7.914-4.594 17.472-7.793 26.368-10 8.892 2.207 18.45 5.405 26.368 10a123.411 123.411 0 0 1 20.448 15.314c9.766 8.865 16.769 21.418 18.168 24.025.042.083.087.167.132.251.087.212.146.428.247.637-8.969 5.819-20.862 13.414-25.884 18.436-9.822 9.825-23.458 31.383-19.922 34.919s25.09-10.1 34.916-19.925c5.1-5.1 12.853-17.287 18.707-26.3a13.024 13.024 0 0 0 16.824-17.312c7.124-5.078 18.262-11.917 23.246-16.013 12.738-10.476 25.957-32.184 22-36.144s-25.668 9.258-36.144 22c-4.037 4.911-10.73 15.78-15.784 22.915l-.031-.014c-.195-.125-.383-.268-.585-.383l.01-.01-.244-.129c-.087-.049-.177-.094-.264-.143-2.6-1.4-15.189-8.419-24.081-18.22a123.562 123.562 0 0 1 -15.265-20.4c-4.594-7.918-7.793-17.475-10-26.368 2.207-8.9 5.405-18.453 10-26.368a123.4 123.4 0 0 1 15.254-20.392z"/><path d="m257.352 363.5c8.892-9.8 21.481-16.824 24.081-18.22.087-.045.177-.094.264-.143l.24-.125c.153-.066.31-.108.459-.178 5.823 8.969 16.142-1.966 7.131-7.82a13.023 13.023 0 0 0 -17.308-16.824c-5.078-7.124-14.4 1.618-7.267 6.672-.153.233-.324.459-.459.7l-.01-.011s-.049.1-.129.24c-.049.091-.1.181-.143.275-1.4 2.61-8.4 15.161-18.168 24.026a123.417 123.417 0 0 1 -20.443 15.316c-7.918 4.594-17.475 7.793-26.368 10-8.9-2.207-18.453-5.405-26.368-10a123.4 123.4 0 0 1 -20.4-15.265c-9.8-8.889-16.824-21.481-18.22-24.081-.045-.087-.094-.174-.143-.265l-.129-.244-.01.011c-.177-.317-.4-.616-.6-.919 7.135-5.05-2.224-13.772-7.305-6.648a13.021 13.021 0 0 0 -17.308 16.824c-9.011 5.851 1.309 16.786 7.131 7.817.077.038.157.056.233.09.139.087.271.191.414.271l-.01.01.24.129c.09.049.181.1.275.146 2.607 1.4 15.161 8.4 24.025 18.164a123.436 123.436 0 0 1 15.311 20.452c4.594 7.915 7.793 17.472 10 26.368-2.207 8.892-5.405 18.45-10 26.368a123.406 123.406 0 0 1 -15.314 20.448c-8.865 9.766-21.415 16.769-24.025 18.168-.094.045-.184.094-.275.146l-.24.125.01.01c-.327.188-.637.407-.954.623-5.047-7.135-13.765 2.234-6.641 7.312a13.022 13.022 0 0 0 16.824 17.308c5.854 9.011 16.786-1.309 7.821-7.131.028-.066.045-.136.077-.2.1-.16.219-.313.31-.477l.01.01.129-.244c.049-.087.1-.178.143-.265 1.4-2.6 8.419-15.189 18.22-24.081a123.407 123.407 0 0 1 20.4-15.265c7.914-4.594 17.472-7.793 26.368-10 8.892 2.207 18.45 5.405 26.368 10a123.411 123.411 0 0 1 20.448 15.314c9.766 8.865 16.769 21.418 18.168 24.025.042.083.087.167.132.251.087.212.146.428.247.637-8.969 5.819 1.963 16.142 7.817 7.131a13.024 13.024 0 0 0 16.824-17.312c7.124-5.078-1.632-14.378-6.686-7.243l-.031-.014c-.195-.125-.383-.268-.585-.383l.01-.01-.244-.129c-.087-.049-.177-.094-.264-.143-2.6-1.4-15.189-8.419-24.081-18.22a123.562 123.562 0 0 1 -15.265-20.4c-4.594-7.918-7.793-17.475-10-26.368 2.207-8.9 5.405-18.453 10-26.368a123.4 123.4 0 0 1 15.263-20.391z" fill="#0d6efd"/></g></svg>