<svg xmlns="http://www.w3.org/2000/svg" width="1490.35" height="958"><g data-name="Group 191"><path data-name="Rectangle 37" fill="none" d="M0 0h1490v958H0z"/><g data-name="Group 190"><g data-name="Group 189"><path data-name="Path 9" d="M1490.35 268.944v688.681H.373c35.817-93.018 110.685-171.229 200.936-219.909 104.037-56.066 226.692-75.15 345.555-67.222 77.793 5.174 154.819 21.435 232.785 20.561 77.965-.907 160.384-21.9 212.212-78.141 32.613-35.375 50.015-81.062 73.961-122.417 23.355-40.246 54.019-76.394 89.627-107.1 63.346-54.625 142.391-92.251 225.855-107.534 36.373-6.686 72.433-7.556 109.046-6.919z" fill="#F9F9F9"/><g data-name="Group 28" transform="translate(457.62 526.759)"><g data-name="Group 21"><path data-name="Rectangle 1" fill="#c9bcb5" d="M409.285 0h19.575v82.961h-19.575z"/><path data-name="Rectangle 2" fill="#ddc9bf" d="M428.86 17.321h21.979v65.64H428.86z"/><path data-name="Rectangle 3" fill="#ddc9bf" d="M389.292 10.769l19.994 3.016-10.628 70.448-19.994-3.016z"/><path data-name="Rectangle 4" fill="#ede4dd" d="M409.285 7.924h19.575v3.31h-19.575z"/></g><g data-name="Group 22"><path data-name="Rectangle 5" fill="#c9bcb5" d="M615.529 82.587h-19.575V16.685h19.575z"/><path data-name="Rectangle 6" fill="#ddc9bf" d="M595.954 82.587h-21.979V30.445h21.979z"/><path data-name="Path 10" d="M626.157 83.598l19.994-2.4-10.627-55.962-19.994 2.4z" fill="#ddc9bf"/><path data-name="Rectangle 7" fill="#ede4dd" d="M615.529 48.778h-19.575v-2.63h19.575z"/></g><g data-name="Group 23"><path data-name="Rectangle 8" fill="#ceb9ae" d="M150.207 82.961h772.94v203.535h-772.94z"/><path data-name="Rectangle 9" fill="#ddc8bc" d="M175.66 100.18h725.539v164.881H175.66z"/><path data-name="Line 1" fill="none" stroke="#ceb9ae" stroke-miterlimit="10" stroke-width=".75" d="M175.66 216.574h732.181"/><path data-name="Line 2" fill="none" stroke="#ceb9ae" stroke-miterlimit="10" stroke-width=".75" d="M175.66 158.551h732.181"/></g><ellipse data-name="Ellipse 2" cx="479.668" cy="19.639" rx="479.668" ry="19.639" transform="translate(40.392 329.754)" fill="#c9bcb5"/><g data-name="Group 26"><g data-name="Group 25" fill="#ddc8bc"><g data-name="Group 24"><path data-name="Path 11" d="M957.251 262.202c.676-28.64-1.361-81.958-4.108-110.443-1.157-11.981-2.755-24.372-8.615-34.5"/><path data-name="Path 12" d="M958.715 262.237l-2.929-.068c.657-27.978-1.334-81.566-4.105-110.269-1.133-11.75-2.717-24.046-8.422-33.906l2.538-1.47c6 10.373 7.64 23.022 8.805 35.093 2.781 28.793 4.776 82.553 4.113 110.62z"/></g><path data-name="Path 13" d="M955.694 134.056c2.76-5.213 7.121-9.457 11.734-13.228a109.172 109.172 0 0138.807-20.292 53.082 53.082 0 01-18 37.592c-6.988 6.118-15.986 10.449-25.435 11.106-2.893.2-7.305.581-9.166-2.135-2.336-3.407.394-9.903 2.06-13.043z"/><path data-name="Path 14" d="M999.368 201.799a59.437 59.437 0 01-14.94 12.562 49.067 49.067 0 01-15.23 5.923c-3.621.733-9.1 1.951-11.9-1.261-3.518-4.016-1.174-12.856.41-17.181 2.595-7.2 7.39-13.386 12.565-19.015a137.426 137.426 0 0145.49-32.544c.03.307.057.6.073.907a69.918 69.918 0 01-16.468 50.609z"/><path data-name="Path 15" d="M940.977 231.453c-7.072-2.91-13.054-7.952-18.453-13.367a137.553 137.553 0 01-30.591-46.832 69.9 69.9 0 0150.774 18.558c8.7 8.159 15.312 19.061 17.195 30.942.579 3.641 1.554 9.18-1.766 11.84-4.168 3.339-12.899.614-17.159-1.141z"/><path data-name="Path 16" d="M936.733 110.058c-1.768-4.578-2.092-9.5-1.989-14.288a82.223 82.223 0 017.939-33.688 46.789 46.789 0 0113.769 31.928c.1 7.493-1.978 15.086-6.564 20.808-1.4 1.752-3.5 4.469-6.164 3.95-3.343-.649-5.924-5.953-6.991-8.71z"/><path data-name="Path 17" d="M952.218 152.378c-3.018-5.847-7.784-10.6-12.826-14.831a118.38 118.38 0 00-42.42-22.756 60.13 60.13 0 0019.675 42.157c7.64 6.857 17.474 11.715 27.8 12.451 3.162.226 7.987.652 10.02-2.393 2.557-3.821-.429-11.104-2.249-14.628z"/><path data-name="Path 18" d="M1015.832 151.19c-1.32 2.184-4.119 4.325-5.219 5.439-6.863 6.993-13.032 14.6-19.2 22.2-3.2 3.929-6.406 7.9-8.694 12.419s-3.592 9.691-2.711 14.673a15.558 15.558 0 004.425 8.444 49.067 49.067 0 01-15.23 5.923c-3.621.733-9.1 1.951-11.9-1.261-3.518-4.016-1.174-12.856.41-17.181 2.595-7.2 7.39-13.386 12.565-19.015a137.426 137.426 0 0145.49-32.544c.024.303.048.595.064.903z"/><path data-name="Path 19" d="M977.069 349.64h-39.367l-11.3-82.074h61.708z"/><path data-name="Rectangle 10" d="M920.678 258.602h71.553v11.673h-71.553z"/></g></g><g data-name="Group 27"><path data-name="Path 20" d="M127.545 345.867H82.672l-12.885-57.709h70.337z" fill="#ddc8bc"/><path data-name="Rectangle 11" fill="#ddc8bc" d="M63.268 278.561h81.559v13.305H63.268z"/><path data-name="Path 21" d="M68.27 195.741a203.089 203.089 0 0126.022 88.3" fill="none" stroke="#ddc8bc" stroke-miterlimit="10"/><path data-name="Path 22" d="M16.977 181.304c-3.323 4.453-1.649 10.688-2 16.236A21.582 21.582 0 01.002 216.346c8.275 4.583 18.072 5.822 27.508 5.148s18.637-3.149 27.771-5.613c7.664-2.068 15.82-4.436 20.952-10.495a19.705 19.705 0 00-19.365-31.96c-7.257 1.636-11.992 12.766-18.727 9.778-6.444-2.862-14.863-10.344-21.164-1.9z" fill="#ddc8bc"/><path data-name="Path 23" d="M102.249 133.689c-5.425 2.88-10.1 7.862-11.017 13.937-1.13 7.485 3.464 14.505 7.841 20.68q16.753 23.64 33.5 47.28c-1.25-8.012 4.067-15.589 10.077-21.036s13.117-9.954 17.442-16.817a27.719 27.719 0 00-2.244-31.8c-7.9-9.313-19.863-10.7-30.939-7.664-2.624-4.572-2.991-8.357-8.623-9.194-4.814-.716-11.891 2.672-16.037 4.614z" fill="#ddc8bc"/><path data-name="Path 24" d="M109.914 181.336a522.376 522.376 0 00-6.124 106.822" fill="none" stroke="#ddc8bc" stroke-miterlimit="10"/><path data-name="Path 25" d="M127.795 228.147c-1.157 2.106-1.068 4.638-1.307 7.028-.4 3.929-1.755 7.743-1.834 11.693-.139 6.977 3.684 13.342 7.376 19.262-.783-4.333 2.891-8.191 6.678-10.441s8.194-3.918 10.682-7.55c2.782-4.059 2.269-9.889-.72-13.8a14.3 14.3 0 00-5.254-4.176c-2.225-1.054-4.621-.81-6.792-1.592-1.516-.546-1.709-2.429-3.486-2.956-1.958-.576-4.425.861-5.343 2.532z" fill="#ddc8bc"/><path data-name="Path 26" d="M130.007 228.644a72.071 72.071 0 00-25.478 53.831" fill="none" stroke="#ddc8bc" stroke-miterlimit="10"/></g></g><g data-name="Group 35"><path data-name="Rectangle 12" fill="#e8d9cf" d="M691.106 141.846h438.78v281.051h-438.78z"/><path data-name="Path 27" d="M1129.199 154.646h-435.6a9.951 9.951 0 01-9.949-9.949 9.951 9.951 0 019.949-9.949h435.6a9.951 9.951 0 019.949 9.949 9.95 9.95 0 01-9.949 9.949z" fill="#bb937e"/><g data-name="Group 29"><path data-name="Path 28" d="M973.552 110.061H847.44a22.57 22.57 0 01-22.573-22.57 22.568 22.568 0 0122.568-22.568h126.117a22.57 22.57 0 0122.571 22.568 22.573 22.573 0 01-22.571 22.57z" fill="#be793a"/><path data-name="Path 29" d="M867.047 85.113a11.15 11.15 0 11-11.15-11.15 11.151 11.151 0 0111.15 11.15z" fill="#ede4dd"/><text data-name="ON AIR" transform="translate(878.315 94.449)" fill="#ede4dd" font-size="24" font-family="Montserrat-Bold, Montserrat" font-weight="700"><tspan x="0" y="0">ON AIR</tspan></text></g><g data-name="Group 34"><g data-name="Group 33"><g data-name="Group 32"><path data-name="Path 224" d="M911.397 218.639a41.737 41.737 0 11-41.737 41.737 41.737 41.737 0 0141.737-41.737z" fill="#be793a"/><g data-name="Group 30" fill="none" stroke="#bb937e" stroke-miterlimit="10"><path data-name="Line 3" d="M777.064 208.157v101.434"/><path data-name="Line 4" d="M793.923 228.813v60.122"/><path data-name="Line 5" d="M812.008 244.939v27.869"/><path data-name="Line 6" d="M755.067 244.939v27.869"/><path data-name="Line 7" d="M827.085 216.718v84.311"/><path data-name="Line 8" d="M843.035 228.813v60.122"/></g><g data-name="Group 31" fill="none" stroke="#bb937e" stroke-miterlimit="10"><path data-name="Line 9" d="M1001.757 208.157v101.434"/><path data-name="Line 10" d="M1018.616 228.813v60.122"/><path data-name="Line 11" d="M1036.701 244.939v27.869"/><path data-name="Line 12" d="M979.76 244.939v27.869"/><path data-name="Line 13" d="M1051.778 216.718v84.311"/><path data-name="Line 14" d="M1067.728 228.813v60.122"/></g></g><path data-name="Path 30" d="M894.715 260.906v-18.674a3.016 3.016 0 014.523-2.611l16.168 9.335 16.168 9.335a3.016 3.016 0 010 5.222l-16.172 9.338-16.168 9.332a3.015 3.015 0 01-4.523-2.611z" fill="#f7ede8"/></g><path data-name="Path 31" d="M1041.112 358.082H782.201a10.667 10.667 0 01-10.666-10.666 10.665 10.665 0 0110.666-10.666h258.911a10.665 10.665 0 0110.666 10.666 10.667 10.667 0 01-10.666 10.666z" fill="#bb937e"/><path data-name="Rectangle 13" fill="#e8d9cf" d="M792.733 344.292h237.328v5.767H792.733z"/></g><path data-name="Path 32" d="M871.625 347.334a8.66 8.66 0 11-8.661-8.658 8.659 8.659 0 018.661 8.658z" fill="#f4efec"/></g><g data-name="Group 36"><path data-name="Rectangle 14" fill="#d4d4d4" d="M1339.817 531.65h23.725v78.032h-23.725z"/><path data-name="Rectangle 15" fill="#F9F9F9" d="M1339.817 537.291h23.725v3.115h-23.725z"/><path data-name="Rectangle 16" fill="#F9F9F9" d="M1339.817 544.547h23.725v3.115h-23.725z"/></g><g data-name="Group 37" transform="translate(1316.344 561.027)"><path data-name="Rectangle 17" fill="#d4d4d4" d="M0 0h23.725v49.323H0z"/><path data-name="Rectangle 18" fill="#F9F9F9" d="M0 34.77h23.725v1.969H0z"/><path data-name="Rectangle 19" fill="#F9F9F9" d="M0 39.356h23.725v1.969H0z"/><circle data-name="Ellipse 4" cx="6.17" cy="6.17" r="6.17" transform="translate(4.162 11.446)" fill="#F9F9F9"/></g><g data-name="Group 104"><path data-name="Path 33" d="M598.805 387.099a2.567 2.567 0 00-1.339 1.4 2.5 2.5 0 00.174 1.771 4.152 4.152 0 001.038 1.288 7.834 7.834 0 006 2.048 8.517 8.517 0 005.646-3.287c.524-.657 1.4-1.948.921-2.942-.413-.869-1.752-1.128-2.453-1.345a12.539 12.539 0 00-6.528-.266 12.89 12.89 0 00-3.459 1.333z" fill="#23343f"/><g data-name="Group 39" transform="translate(614.644 427.171)"><g data-name="Group 38" fill="#213644"><ellipse data-name="Ellipse 5" cx="11.321" cy="14.815" rx="11.321" ry="14.815"/><path data-name="Path 34" d="M18.751.301l-7.43-.3-8.019 6.93 6.074 22.48 7.094.219z"/></g><ellipse data-name="Ellipse 6" cx="11.321" cy="14.815" rx="11.321" ry="14.815" transform="translate(5.148)" fill="#42525f"/></g><g data-name="Group 100"><g data-name="Group 99"><path data-name="Path 35" d="M614.015 656.998s44.92-12.981 96.566 23.136 43.243 67.113 43.243 67.113H607.31s-41.07-69.469 6.705-90.249z" fill="#77635f"/><g data-name="Group 43"><g data-name="Group 42"><g data-name="Group 40"><path data-name="Path 36" d="M458.921 705.785s-7.21-153.165 0-175.35 61-52.654 100.337-55.129c58.794-3.7 88.394 22.68 97.18 41.746s18.955 179.567 18.955 179.567z" fill="#77635f"/></g><g data-name="Group 41" fill="#77635f"><path data-name="Path 37" d="M500.764 684.285c39.331-5.412 78.909-6.517 118.33-1.239.19.024.206.315 0 .31-39.171-1.4-78.309-.356-117.165 5.165-2.767.394-3.952-3.85-1.165-4.236z"/><path data-name="Path 38" d="M506.046 650.203c24.924-5.089 49.739-7.487 74.644-6.121-25.429-8.582-49.829-20.436-69.906-38.269-12.424-11.036-19.71-23.245-15.41-40.094a60.149 60.149 0 0125.472-35.156c.8-.53 1.475.715.739 1.266-12.9 9.642-23.283 26.383-23.028 42.955.293 18.914 20.754 32.466 35.093 41.5 25.011 15.752 53.059 24.576 81.4 32.167 3.268.875 1.885 5.942-1.4 5.075-34.848-9.2-71.479-6.145-106.4 1.027-2.834.578-4.043-3.769-1.204-4.35z"/></g></g></g><g data-name="Group 50"><g data-name="Group 49"><g data-name="Group 48"><g data-name="Group 47"><path data-name="Path 39" d="M774.501 546.771l-8.71 4.475s-2.766 13.22-4.121 14.771c-.546.6-3.937 1.644-7.854 2.668h-.014c-1.758.454-8.305 2.13-10.661 2.7h-.016c-.141.024-.28.065-.391.084l-2.143-2.421-3.722-4.211.337-8.881.09-2.388c.011-1.334.044-3.094.158-5.064.057-.967.125-1.97.223-3.01a40.644 40.644 0 012.13-10.707 9.759 9.759 0 011.785-3.089c4.849-5.377 12.313-13.549 14.739-11.842s-11.172 17.1-11.172 17.1l2.682 5.04 6.281-5.9 12.149-3.19s1.549 1.891 3.32 4.314c.171.244.348.508.538.766l.128.171c.024.046.065.087.09.133a49.211 49.211 0 012.79 4.355c.071.133.16.28.234.413a16.416 16.416 0 01.9 2.021 3.425 3.425 0 01.23 1.692z" fill="#f3a080"/><path data-name="Path 40" d="M753.816 568.683h-.013c-1.187.937-70.343 55.553-79.225 57.36-5.819 1.193-18.974-13.981-29.882-28.181-.144-.187-.274-.375-.421-.56a372.028 372.028 0 01-2.388-3.176 601.708 601.708 0 01-8.732-12.063c-3.309-4.735-5.415-7.862-5.415-7.862l7.452-5.165L657.91 553.3l5.621 10.261 9.4 17.1 4.993 9.074 59.283-33.773h.016l9.547 7.322 3.13 2.4z" fill="#f3a080"/><path data-name="Path 41" d="M774.501 546.774l-8.71 4.475s-2.766 13.22-4.121 14.771c-.546.6-3.937 1.644-7.854 2.668h-.013c-1.187.937-70.343 55.553-79.225 57.36-5.819 1.193-18.974-13.981-29.882-28.181-.144-.187-.274-.375-.421-.56a372.028 372.028 0 01-2.388-3.176 601.708 601.708 0 01-8.732-12.063c-3.309-4.735-5.415-7.862-5.415-7.862l7.452-5.165c9.147 13.614 33.012 49.506 42.119 45.273 7.86-3.662 47.987-29.157 65.814-42.92h.016a79.516 79.516 0 006.757-5.711 10.581 10.581 0 001.5-1.755c4.765-7.623 7.292-15.975 10.354-19.838 1.839-2.32 5.646-4.624 8.379-6.091l.128.171c.024.046.065.087.09.133a49.2 49.2 0 012.79 4.355c.071.133.16.28.234.413a16.416 16.416 0 01.9 2.021 3.424 3.424 0 01.228 1.682z" fill="#ea7c6f"/><g data-name="Group 46"><g data-name="Group 44"><path data-name="Path 42" d="M773.369 543.066c-.38.15-.888.318-1.5.538a124.137 124.137 0 00-5.195 1.978 31.546 31.546 0 00-4.939 2.437c-.321.2-.6.38-.848.538-.158.122-.285.228-.416.315-.071.06-.125.119-.182.163l-.532.4s.106-.228.315-.622c.111-.2.247-.435.413-.706.2-.261.408-.543.66-.861a13.06 13.06 0 014.931-3.589 15.384 15.384 0 015.7-1.073c.535 0 1 .035 1.361.071.069.131.162.278.232.411z" fill="#b54b57"/></g><g data-name="Group 45"><path data-name="Path 43" d="M769.587 537.233c.223.3.44.611.666.926a2.546 2.546 0 01-.239.09 158.73 158.73 0 00-5.2 1.983 32.348 32.348 0 00-4.942 2.434c-.31.2-.587.378-.829.538-.236.185-.44.345-.606.47l-.535.4s.106-.215.321-.614c.112-.193.245-.44.413-.712.185-.258.408-.549.655-.867a12.807 12.807 0 014.939-3.581 15.044 15.044 0 015.357-1.067z" fill="#b54b57"/></g></g></g></g></g></g><g data-name="Group 51" fill="#9b704c"><path data-name="Path 44" d="M692.93 762.497l7.111 99.013h-17.658l-20.788-99.013z"/><path data-name="Path 45" d="M498.509 762.497l-7.11 99.013h17.658l20.789-99.013z"/></g><path data-name="Rectangle 20" fill="#b88b61" d="M707.639 764.595H484.18v-12.126h223.459z"/><g data-name="Group 54"><g data-name="Group 53"><g data-name="Group 52"><path data-name="Path 46" d="M729.723 752.468H474.936s-1.027-47.221 11.3-51.481 46.927-6.822 46.927-6.822h170.75z" fill="#77635f"/></g></g></g><path data-name="Path 47" d="M491.636 717.264c2.774-7.088 183.756-20.645 183.756-20.645l2.717 25.573s-98.036 25.269-113.443 21.571-75.803-19.414-73.03-26.499z" fill="#77635f"/><g data-name="Group 59"><g data-name="Group 57"><g data-name="Group 56"><path data-name="Path 48" d="M836.757 770.812a5.073 5.073 0 00-4.684-1.7c-5.974 1.185-27.084 6.689-34.131 6.292-5.472-.307-12.834-4.192-15.852-5.914l-29.906 23.53c3.885 9.338 13.655 25.709 15.714 29.127z" fill="#3f455d"/><path data-name="Rectangle 21" fill="#ffefdf" d="M767.897 822.148l68.86-51.336 5.153 6.912-68.86 51.336z"/><g data-name="Group 55" fill="#ffefdf"><path data-name="Path 49" d="M793.587 781.668c.011.117.024.231.038.345.114.856.592 1.948 1.663 1.717a2.719 2.719 0 001.356-.94 17.669 17.669 0 002.978-4.866 13.506 13.506 0 001.589-6.007c-.114-2.176-2.453-2.546-3.841-.986a15.363 15.363 0 00-3.783 10.737z"/><path data-name="Path 50" d="M801.52 781.514c.011.114.024.228.038.345.114.853.592 1.948 1.663 1.717a2.755 2.755 0 001.356-.94 17.71 17.71 0 002.978-4.866 13.519 13.519 0 001.589-6.01c-.114-2.176-2.456-2.543-3.842-.983a15.357 15.357 0 00-3.782 10.737z"/><path data-name="Path 51" d="M809.714 779.202c.011.117.022.231.038.345.114.856.592 1.948 1.663 1.717a2.713 2.713 0 001.353-.937 17.593 17.593 0 002.978-4.869 13.519 13.519 0 001.592-6.007c-.117-2.176-2.456-2.546-3.842-.984a15.351 15.351 0 00-3.782 10.735z"/></g></g></g><g data-name="Group 58"><path data-name="Path 52" d="M699.318 741.15l10.719 11.315 42.143 40.543 25.032-19.684-38.156-48.774-10.282-13.468z" fill="#f3a080"/><path data-name="Path 53" d="M777.214 773.329l-25.034 19.684-20.724-17.728 32.046-25.652z" fill="#ffefdf"/><path data-name="Path 54" d="M699.318 741.15l10.719 11.315 29.019-27.915-10.282-13.468z" fill="#ea7c6f"/></g></g><g data-name="Group 84"><g data-name="Group 83"><g data-name="Group 82"><g data-name="Group 81"><g data-name="Group 80"><g data-name="Group 79"><g data-name="Group 78"><g data-name="Group 77"><g data-name="Group 76"><g data-name="Group 73"><path data-name="Path 55" d="M618.052 498.171c-2.366 6.854-4.195 17.1-14.736 18.684-16.04 2.4-27.48-17.58-31.7-25.459 3.529-1.815 6.947-3.3 8.58-3.3a115.051 115.051 0 0137.856 10.075z" fill="#f3a080"/><g data-name="Group 72"><g data-name="Group 61"><g data-name="Group 60"><path data-name="Path 56" d="M580.196 488.094c.6.6 27.065 20.18 27.065 20.18s-.609-12.06-.9-18.344c-.084-1.945-.144-3.339-.144-3.646 0-2.51 2.143-13.391 2.143-13.391l-26.7-12.212s-.421 5.507-.831 11.584c-.492 7.334-.969 15.498-.633 15.829z" fill="#f3a080"/><path data-name="Path 57" d="M580.83 472.266c7.417 5.387 23.756 17.17 25.388 17.635.049.011.1.024.144.03-.084-1.945-.144-3.339-.144-3.646 0-2.51 2.143-13.391 2.143-13.391l-26.7-12.212s-.422 5.507-.831 11.584z" fill="#ea7c6f"/></g></g><g data-name="Group 71"><g data-name="Group 67"><path data-name="Path 58" d="M578.006 461.616s.668 1.929 3.651 4.567h.005a27 27 0 002.138 1.7c3.132 2.249 32.46 14.815 36.978 14.214s8.778-16.13 9.014-17.762c1.451-10.02 5.447-45.884 5.447-45.884-11.147-33.737-50.91-11.362-55.428-8.047s-1.805 51.212-1.805 51.212z" fill="#f3a080"/><g data-name="Group 62"><path data-name="Path 59" d="M571.27 428.308a5.378 5.378 0 00-2 3.994 7.428 7.428 0 00.935 3.056 4.824 4.824 0 001.258 1.578l8.629 8.406 4.238-24.011a8.528 8.528 0 008.381-8.159 13.727 13.727 0 009.935 5.053q-.371-2.4-.739-4.806a9.266 9.266 0 0016.564 3.032 23.35 23.35 0 0038.7 3.45c-.245-.418-.492-.861-.739-1.282a3251.004 3251.004 0 01-6.681-11.511 28.374 28.374 0 00-5.2-7.172c-2.2-2-5.227-3.3-8.134-2.739-4.119-4.928-10.7-9.71-17.108-10.253a24.618 24.618 0 00-17.847 5.817 14.961 14.961 0 00-24.258 9.441 12.66 12.66 0 00-10.327 8.9 12.475 12.475 0 004.461 12.793c-1.627-.739-3.279-1.478-4.907-2.244a5.777 5.777 0 004.839 6.657z" fill="#2a2b2b"/><path data-name="Path 60" d="M571.27 428.308a5.378 5.378 0 00-2 3.994 7.428 7.428 0 00.935 3.056 11.162 11.162 0 006.115-6.656c.641.519 1.28 1.062 1.945 1.578a9.276 9.276 0 00-2.217-8.552c1.282-.223 2.538-.47 3.8-.693-1.258-1.157-2.513-2.342-3.8-3.5a5.286 5.286 0 005.768-8.849 9.778 9.778 0 0014.421-6.433 18.984 18.984 0 0011.093 6.7l-1.774-5.1a17.2 17.2 0 0021.419 4.488 20.242 20.242 0 0029.458 10.278c-1.429-2.464-2.858-4.9-4.265-7.346-.812-1.38-1.6-2.785-2.415-4.165a28.374 28.374 0 00-5.2-7.172c-2.2-2-5.227-3.3-8.134-2.739-4.119-4.928-10.7-9.71-17.108-10.253a24.618 24.618 0 00-17.847 5.817 14.961 14.961 0 00-24.258 9.441 12.66 12.66 0 00-10.327 8.9 12.028 12.028 0 00.443 7.273 11.875 11.875 0 004.018 5.521c-1.627-.739-3.279-1.478-4.907-2.244a5.777 5.777 0 004.837 6.656z" fill="#444"/><path data-name="Path 61" d="M567.326 418.375a10.221 10.221 0 003.056.935 7.313 7.313 0 01-1.356-5.594c1.206.467 2.415.959 3.624 1.429-.345-1.627-.666-3.255-1.011-4.882a4.067 4.067 0 005.694-5.792 11.92 11.92 0 0011.239-7.987 14.2 14.2 0 0013.09.421q5.583 2.217 11.117 4.436a7.586 7.586 0 01-1.847-5.5 23.792 23.792 0 0023.123 5.325 16.213 16.213 0 0018.117 10.109c-.812-1.38-1.6-2.785-2.415-4.165a28.373 28.373 0 00-5.2-7.172c-2.2-2-5.227-3.3-8.134-2.739-4.119-4.928-10.7-9.71-17.108-10.253a24.618 24.618 0 00-17.847 5.817 14.961 14.961 0 00-24.258 9.441 12.66 12.66 0 00-10.327 8.9 12.028 12.028 0 00.443 7.271z" fill="#595959"/></g><g data-name="Group 64"><g data-name="Group 63"><path data-name="Path 62" d="M602.821 464.898a11.914 11.914 0 009.465 2.967 5.119 5.119 0 01-5.026 1.128 8.468 8.468 0 01-4.439-4.095z" fill="#dd5b67"/></g></g><path data-name="Path 63" d="M601.142 458.579a26.65 26.65 0 0016.909 5.833 15.733 15.733 0 01-9.6.429c-3.139-.951-5.312-3.665-7.309-6.262z" fill="#dd5b67"/><g data-name="Group 66"><path data-name="Path 64" d="M618.31 455.748l-.943-2.991a11.668 11.668 0 01-6.273-3.8 8.936 8.936 0 00-.758 2.3 3.34 3.34 0 00.443 2.334 4.181 4.181 0 001.785 1.339 10.377 10.377 0 005.746.818z" fill="#ea7c6f"/><g data-name="Group 65"><path data-name="Path 65" d="M610.39 453.422a7.332 7.332 0 00.766.758 9.209 9.209 0 002.543 1.546 9.542 9.542 0 002.016.576 9.376 9.376 0 003.037.014l.283-.03c.041-.008.111 0 .128-.022l-.043-.12-.179-.481c-.125-.331-.25-.666-.378-1a4.858 4.858 0 01-.136-.394l-.092-.3-.19-.6a25.929 25.929 0 01-.571-2.567 24.137 24.137 0 01.236-9.251 23.339 23.339 0 01.793-2.766l.375-1-.584.9a17.211 17.211 0 00-1.291 2.652 18.49 18.49 0 00-.989 9.71 18.825 18.825 0 00.679 2.744l.437 1.155c.024.065.174.258.128.274a5.445 5.445 0 01-1.532.081 10.2 10.2 0 01-1.9-.274 10.428 10.428 0 01-2.638-1.03 13.563 13.563 0 01-.898-.575z" fill="#dd5b67"/></g></g><path data-name="Path 66" d="M581.663 466.181a27.015 27.015 0 002.138 1.7c3.132 2.249 32.46 14.815 36.978 14.214s8.778-16.13 9.014-17.762c-2.815 6.819-6 16.249-9.194 15.948-4.818-.453-35.374-12.228-38.936-14.1z" fill="#f8bf92"/></g><g data-name="Group 70"><path data-name="Path 67" d="M631.03 432.875s-5.382-7.243-8.4-4.388-1.665 3.157-1.665 3.157z" fill="#444"/><path data-name="Path 68" d="M589.998 428.105s11.766-9.626 15.1-4.915c1.943 2.747.038 4.064.038 4.064z" fill="#444"/><g data-name="Group 68"><path data-name="Path 69" d="M595.188 437.988c-.269 2.986 1.019 5.542 2.877 5.711s3.586-2.116 3.858-5.1-1.016-5.542-2.877-5.711-3.587 2.111-3.858 5.1z" fill="#1d1e1e"/><path data-name="Path 70" d="M592.244 434.676a6.952 6.952 0 007.159 3.681 6.957 6.957 0 00-7.159-3.681z" fill="#ffefdf"/></g><g data-name="Group 69"><path data-name="Path 71" d="M628.515 444.099c-.22 2.605-1.611 4.6-3.108 4.45s-2.535-2.377-2.317-4.983 1.608-4.594 3.108-4.447 2.531 2.377 2.317 4.98z" fill="#1d1e1e"/><path data-name="Path 72" d="M631.029 442.039a6.5 6.5 0 01-2.687 1.828 6.038 6.038 0 01-3.171.092 6.508 6.508 0 012.687-1.826 6.023 6.023 0 013.171-.094z" fill="#ffefdf"/></g><path data-name="Path 73" d="M625.441 455.06c.462 1.236 3.13 1.377 5.958.318s4.749-2.918 4.284-4.154-3.13-1.377-5.958-.318-4.747 2.918-4.284 4.154z" fill="#ea7c6f"/><path data-name="Path 74" d="M584.765 446.956c-.481 1.864 2.584 4.271 6.852 5.377s8.115.489 8.6-1.372-2.586-4.271-6.852-5.377-8.116-.489-8.6 1.372z" fill="#ea7c6f"/></g></g></g></g><g data-name="Group 75"><path data-name="Path 75" d="M582.32 462.807a18.4 18.4 0 01-12.791-7.058 14.772 14.772 0 01-1.274-1.9c-1.722-3.127-2.22-13.975 2.222-16.5 3.111-1.763 5.376.8 6.455 2.491v.005a10.281 10.281 0 01.7 1.282z" fill="#f8bf92"/><path data-name="Path 76" d="M582.32 462.807a18.4 18.4 0 01-12.791-7.06c-.2-.307-.38-.6-.533-.875-1.725-3.127-2.222-13.978 2.22-16.5 2.521-1.432 4.485-.024 5.716 1.464v.005a10.283 10.283 0 01.7 1.282z" fill="#f3a080"/><path data-name="Path 77" d="M569.075 445.968a4.664 4.664 0 00.2 2.63c1.214 3.641 4.849 6.42 8.33 9a9.146 9.146 0 01-1.22-5.7c.076-.674.22-1.348.228-2.024.029-2.735-6.223-9.036-7.538-3.906z" fill="#ea7c6f"/><g data-name="Group 74"><path data-name="Path 78" d="M579.358 458.631l-.2-.111c-.125-.076-.329-.177-.56-.334a7.9 7.9 0 01-1.717-1.551 6.979 6.979 0 01-1.413-2.891 6.029 6.029 0 01.437-3.825 3.35 3.35 0 01.253-.478l.071-.117c.016-.03.005-.011.008-.014s.005.005-.008-.019l-.06-.106-.117-.206c-.079-.136-.158-.274-.242-.4a16.08 16.08 0 00-1.049-1.5 18 18 0 00-1.119-1.288 10.117 10.117 0 00-1.1-1.024 2.464 2.464 0 00-1.127-.5 1.794 1.794 0 00-.959.16.913.913 0 00-.427.386.611.611 0 00-.06.182.435.435 0 01.008-.193.864.864 0 01.359-.494 1.974 1.974 0 011.1-.348 3.1 3.1 0 011.494.427 10.084 10.084 0 011.356.973 15.379 15.379 0 011.337 1.255 13.131 13.131 0 011.243 1.537c.1.139.187.28.28.424l.136.217.177.31.122.215c-.033.073-.082.144-.12.217l-.177.307a2.638 2.638 0 00-.217.416 6.366 6.366 0 00-.562 3.382 7.238 7.238 0 00.918 2.763 8.092 8.092 0 001.315 1.676c.188.187.356.315.459.41z" fill="#b54b57"/></g></g></g></g></g></g></g></g></g></g></g><path data-name="Path 79" d="M629.793 503.51s19.955 9.267 21.6 13.543 14.79 52.347 14.79 52.347l-40.559 8.126z" fill="#e27f3d"/><path data-name="Path 80" d="M533.16 694.166a307.118 307.118 0 0042.021 5.061c27.214 1.331 59.713-10.362 73.443-19.827l-18.833-175.883-5.792-2.638-5.942-2.711s-6.262 19.844-18.833 17.9-27.608-24.652-27.608-24.652a2.886 2.886 0 01-.345.049c-.937.174-3.746.69-7.444 1.456-1.875.37-3.945.837-6.14 1.328a.147.147 0 01-.1.024 70.7 70.7 0 00-10.97 4.488z" fill="#e27f3d"/><path data-name="Path 81" d="M563.827 492.919c4.706 7.221 20.854 29.9 38.06 30.936 13.975.837 19.819-13.682 22.112-22.976l-5.942-2.711s-6.262 19.844-18.833 17.9-27.608-24.652-27.608-24.652a2.886 2.886 0 01-.345.049c-.937.174-3.746.688-7.444 1.454z" fill="#ffefdf"/><g data-name="Group 91"><g data-name="Group 90"><g data-name="Group 89"><g data-name="Group 88"><path data-name="Path 82" d="M646.105 585.51c1.193 2.725-18.436 8.8-18.436 8.8l-.345 5.7 8.441-1.769 12.038 3.6s.342 2.421.584 5.409c.035.372.06.753.087 1.138a48.706 48.706 0 01.12 5.339c0 .16-.011.323-.014.475a15.311 15.311 0 01-.28 2.2 3.421 3.421 0 01-.666 1.548l-9.772-.7s-9.248 9.84-11.2 10.462c-.78.244-4.233-.644-8.115-1.8-1.861-.56-9.085-2.787-10.9-3.374l-1.57-8.732 6.235-9.387a98.75 98.75 0 012.763-4.241l-.005-.005c.549-.8 1.138-1.622 1.752-2.459a41.329 41.329 0 017.39-8.031 10.056 10.056 0 013.135-1.722c6.938-2.073 17.568-5.17 18.758-2.451z" fill="#f3a080"/><path data-name="Path 83" d="M618.551 625.906a1.708 1.708 0 00-.193.016c-4.61.56-88.948 10.772-97.318 7.748-5.586-2-8.93-21.8-10.837-39.616a458.046 458.046 0 01-1.646-19.479c-.386-5.762-.546-9.541-.546-9.541l5.491-.321 31.148-1.839-.527 11.7-.88 19.479-.448 10.34 68.2 2z" fill="#f3a080"/><g data-name="Group 87"><g data-name="Group 85"><path data-name="Path 84" d="M648.594 613.722c0 .16-.011.323-.014.475-.4-.079-.924-.2-1.554-.326-1.429-.293-3.369-.66-5.472-1.016a32.953 32.953 0 00-5.488-.489c-.367.011-.7.024-.994.03-.293.038-.549.063-.758.09l-.671.065s.206-.133.6-.359c.193-.111.437-.25.723-.4.293-.12.628-.253 1.011-.394a12.835 12.835 0 016.077-.492 15.278 15.278 0 015.415 2.04c.459.287.835.553 1.125.776z" fill="#b54b57"/></g><g data-name="Group 86"><path data-name="Path 85" d="M648.388 607.244c.035.372.06.753.087 1.138-.084-.011-.168-.03-.253-.049-1.429-.294-3.369-.66-5.469-1.011a32.184 32.184 0 00-5.488-.492c-.37.011-.7.019-.989.03-.3.033-.554.065-.761.084-.429.046-.668.068-.668.068s.2-.128.592-.356c.2-.109.437-.25.725-.394.291-.125.633-.258 1.008-.4a12.844 12.844 0 016.083-.489 15.074 15.074 0 015.133 1.871z" fill="#b54b57"/></g></g><path data-name="Path 86" d="M618.358 625.922c-4.61.56-88.948 10.772-97.318 7.748-5.586-2-8.93-21.8-10.837-39.616a458.046 458.046 0 01-1.646-19.479c-.386-5.762-.546-9.541-.546-9.541l5.491-.321c.609 13.589.033 59.962 10.308 62.459 10.499 2.559 90.114-1.057 94.548-1.25z" fill="#f8bf92"/></g></g></g></g><path data-name="Path 87" d="M652.902 672.818s42.553-8.862 50.932 0c3.064 3.239 16.773 19.2 32.936 38.133l-46.324 34.132-42.067-51.9z" fill="#a897a5"/><g data-name="Group 92"><path data-name="Path 88" d="M533.16 694.166s0 45.061 37.223 45.061c14.741 0 95.446-18.784 95.446-18.784l3.45 23.69 11.538-2.662 46.59-10.772c-7.64-36.582-17.377-69.344-28-72.079-24.75-6.336-126.679 28.127-126.679 28.127l-27.19 5.1z" fill="#bcacb8"/><path data-name="Path 89" d="M702.251 670.15c2.815 4.257 3.643 9.566 3.306 14.6-.282 4.233-1.883 9.012-5.852 10.286a8.326 8.326 0 01-6.523-.978 20.322 20.322 0 01-5.124-4.553 30.361 30.361 0 01-5.61-8.724 14.551 14.551 0 01-.437-10.1c3.553-9.692 15.124-8.259 20.24-.531z" fill="#d1c3ce"/><path data-name="Path 90" d="M533.16 694.166s0 45.061 37.223 45.061c14.741 0 95.446-18.784 95.446-18.784l3.45 23.69 11.538-2.662-6.36-36.017s-102.842 31.6-109.647 24.9c-3.8-3.749-12.375-22.53-19.276-38.505z" fill="#a897a5"/></g><path data-name="Path 91" d="M544.37 581.11l-42.32 1.766s6.985-58.05 12.533-65.823c6.746-9.449 32.036-18.292 32.036-18.292l12.639 15.176-3.592 38.209z" fill="#e27f3d"/><path data-name="Path 92" d="M553.568 526.777a.445.445 0 01.81.342 225.02 225.02 0 00-7.906 45.248c-.106 1.424-2.434 1.989-2.687.364a67.1 67.1 0 019.783-45.954z" fill="#b25d24"/><g data-name="Group 98"><g data-name="Group 97"><g data-name="Group 95"><g data-name="Group 94"><path data-name="Path 93" d="M779.164 862.108a5.059 5.059 0 00-3.032-3.953c-5.67-2.222-26.418-8.957-32.14-13.087-4.445-3.208-8.555-10.449-10.169-13.527l-37.872 3.708c-1.76 9.96-2.35 29.015-2.456 33z" fill="#3f455d"/><path data-name="Rectangle 22" fill="#ffefdf" d="M693.496 868.254l85.632-6.184.621 8.595-85.632 6.184z"/><g data-name="Group 93" fill="#ffefdf"><path data-name="Path 94" d="M736.948 847.991c-.052.106-.1.209-.152.313-.364.782-.552 1.961.475 2.342a2.734 2.734 0 001.646-.06 17.668 17.668 0 005.132-2.5 13.536 13.536 0 004.578-4.2c1.073-1.9-.7-3.467-2.706-2.9a15.363 15.363 0 00-8.973 7.005z"/><path data-name="Path 95" d="M743.716 852.137c-.054.1-.1.206-.152.313-.367.782-.554 1.959.473 2.342a2.722 2.722 0 001.649-.063 17.645 17.645 0 005.129-2.494 13.539 13.539 0 004.578-4.206c1.076-1.894-.7-3.464-2.706-2.9a15.371 15.371 0 00-8.971 7.008z"/><path data-name="Path 96" d="M751.863 854.607c-.054.1-.106.206-.152.31-.367.782-.554 1.962.473 2.342a2.742 2.742 0 001.649-.06 17.686 17.686 0 005.129-2.5 13.531 13.531 0 004.578-4.2c1.076-1.9-.7-3.467-2.706-2.9a15.352 15.352 0 00-8.971 7.008z"/></g></g></g><g data-name="Group 96"><path data-name="Path 97" d="M678.101 742.087l2.934 15.308 14.914 77.847 33.77-3.3-9.193-82.436-1.4-16.885z" fill="#f3a080"/><path data-name="Path 98" d="M678.101 742.087l2.934 15.308 39.49-7.888-1.4-16.885z" fill="#ea7c6f"/></g></g><path data-name="Path 99" d="M729.728 831.942l-2.316-38.93-41.03 4.19 9.576 38.038z" fill="#ffefdf"/></g><path data-name="Path 100" d="M481.639 661.798s44.92-12.981 96.566 23.134 43.243 67.113 43.243 67.113H474.939s-41.073-69.466 6.7-90.247z" fill="#77635f"/></g></g><g data-name="Group 103"><g data-name="Group 102"><g data-name="Group 101" fill="#213644"><path data-name="Path 101" d="M583.434 439.781c0 8.183-5.067 14.815-11.321 14.815s-11.318-6.632-11.318-14.815 5.067-14.815 11.318-14.815 11.321 6.634 11.321 14.815z"/><path data-name="Path 102" d="M564.685 425.269l7.43-.3 8.02 6.93-6.074 22.48-7.093.219z"/></g><path data-name="Path 103" d="M578.289 439.781c0 8.183-5.07 14.815-11.321 14.815s-11.321-6.632-11.321-14.815 5.067-14.815 11.321-14.815 11.321 6.634 11.321 14.815z" fill="#42525f"/></g><path data-name="Path 104" d="M573.79 427.968s5.2-34.169 33.764-42.17l-9.3-1.739a3.781 3.781 0 00-1.94.348 37.1 37.1 0 00-20.35 18.849 108.772 108.772 0 00-8.213 22.2z" fill="#42525f"/></g></g><g data-name="Group 156"><path data-name="Path 105" d="M1365.459 711.488s-5.58 34.558-25.258 46.683H1168.85s148.739-93.45 196.609-46.683z" fill="#77635f"/><path data-name="Path 106" d="M1278.331 387.157s-11.079.361-14.893 3.062 20.8 3.8 20.8 3.8z" fill="#223644"/><path data-name="Path 107" d="M1203.204 662.695s-42.89-13.671-92.205 24.367-41.293 70.686-41.293 70.686h139.9s39.216-73.164-6.402-95.053z" fill="#77635f"/><g data-name="Group 108"><g data-name="Group 107"><g data-name="Group 105"><path data-name="Path 108" d="M1365.459 711.488s7.21-153.165 0-175.353-61-52.652-100.337-55.129c-58.792-3.7-88.391 22.68-97.18 41.749s-18.955 179.566-18.955 179.566z" fill="#77635f"/></g><g data-name="Group 106" fill="#77635f"><path data-name="Path 109" d="M1323.618 689.988c-39.334-5.415-78.912-6.518-118.333-1.239-.187.024-.2.315 0 .307 39.174-1.4 78.312-.356 117.165 5.165 2.768.393 3.952-3.855 1.168-4.233z"/><path data-name="Path 110" d="M1318.331 655.906c-24.924-5.091-49.736-7.488-74.641-6.121 25.427-8.582 49.829-20.436 69.906-38.272 12.424-11.036 19.71-23.245 15.407-40.092a60.125 60.125 0 00-25.464-35.155c-.8-.532-1.475.712-.739 1.263 12.9 9.642 23.283 26.386 23.025 42.955-.291 18.917-20.751 32.466-35.09 41.5-25.011 15.755-53.062 24.579-81.4 32.167-3.268.875-1.883 5.942 1.4 5.075 34.851-9.2 71.482-6.143 106.4 1.03 2.832.575 4.041-3.769 1.196-4.35z"/></g></g></g><g data-name="Group 109" fill="#9b704c"><path data-name="Path 111" d="M1131.453 768.198l-7.111 99.013H1142l20.788-99.013z"/><path data-name="Path 112" d="M1325.873 768.198l7.111 99.013h-17.658l-20.789-99.013z"/></g><path data-name="Rectangle 23" fill="#b88b61" d="M1116.743 758.17h223.459v12.126h-223.459z"/><g data-name="Group 155"><g data-name="Group 111" transform="translate(1230.674 429.911)"><g data-name="Group 110" transform="translate(5.148)" fill="#213644"><ellipse data-name="Ellipse 7" cx="11.321" cy="14.815" rx="11.321" ry="14.815"/><path data-name="Path 113" d="M3.89.301l7.43-.3 8.019 6.93-6.074 22.48-7.094.219z"/></g><ellipse data-name="Ellipse 8" cx="11.321" cy="14.815" rx="11.321" ry="14.815" fill="#42525f"/></g><g data-name="Group 151"><g data-name="Group 146"><g data-name="Group 117"><g data-name="Group 113"><path data-name="Path 114" d="M1122.613 797.087l17.173 2.915 4.906.825 8.318-23.554-8.151-2.607-16.975-5.446z" fill="#f3a080"/><g data-name="Group 112"><path data-name="Path 115" d="M1143.602 826.377c-1.836 1.94-6.789 7.039-11.992 4.85s-6.24-1.331-11.829.027c-5.569 1.361-25.111-.883-25.111-.883s-4.3.179-6.058.481-12.389-5.116-13.652-5.167c-.454-.005-.625-1.233-.552-2.744.122-2.652 1.03-6.164 2.616-5.569a8.6 8.6 0 00.88.277c3.187.9 10.544 1.861 14.682.274 4.524-1.72 25.7-13.945 30.031-20.838l22.068 3.741c1.094 5.98.404 23.951-1.083 25.551z" fill="#f3a080"/><path data-name="Path 116" d="M1143.602 826.378c-1.836 1.94-6.789 7.039-11.992 4.85s-6.24-1.331-11.829.027c-5.569 1.361-25.111-.883-25.111-.883s-4.3.179-6.058.481-12.389-5.116-13.652-5.167c-.454-.005-.625-1.233-.552-2.744.122-2.652 1.03-6.164 2.616-5.569a8.6 8.6 0 00.88.277c2.3 3.35 6.7 8.982 10.574 9.5 5.548.7 30.648-6.045 36.055-3.766s9.229 3.836 10.579 3.157c1.367-.677 4.665-26.54 4.665-26.54l4.909.831c1.093 5.974.403 23.946-1.084 25.546z" fill="#ea7c6f"/></g><path data-name="Path 117" d="M1139.786 799.997l4.906.825 8.321-23.554-8.151-2.607z" fill="#ea7c6f"/></g><path data-name="Path 118" d="M1235.464 647.7s-74.747-1.627-80.238 2.377-34.662 130.357-34.662 130.357l42.426 5.374 17.186-82.267 78.027-28.4 16.113-27.491z" fill="#a897a5"/><g data-name="Group 116"><g data-name="Group 115"><path data-name="Path 119" d="M1181.452 830.367l17.361-1.413 4.958-.411 2.249-24.878-8.542-.515-17.794-1.088z" fill="#f3a080"/><g data-name="Group 114"><path data-name="Path 120" d="M1209.02 853.582c-1.3 2.334-4.841 8.5-10.424 7.659s-6.374.25-11.454 2.945c-5.064 2.7-24.554 5.341-24.554 5.341s-4.121 1.236-5.751 1.961c-1.646.725-13.269-1.9-14.505-1.638-.44.106-.91-1.04-1.212-2.527-.535-2.6-.524-6.227 1.16-6.039.255.033.562.044.921.052 3.312.09 10.677-.8 14.3-3.358 3.956-2.789 21.463-19.861 23.956-27.609l22.307-1.818c2.534 5.523 6.305 23.109 5.256 25.031z" fill="#f3a080"/><path data-name="Path 121" d="M1209.02 853.582c-1.3 2.334-4.841 8.5-10.424 7.659s-6.374.25-11.454 2.945c-5.064 2.7-24.554 5.341-24.554 5.341s-4.121 1.236-5.751 1.961c-1.646.725-13.269-1.9-14.505-1.638-.44.106-.91-1.04-1.212-2.527-.535-2.6-.524-6.227 1.16-6.039.255.033.562.044.921.052 3.057 2.679 8.713 7.05 12.592 6.591 5.548-.687 28.206-13.421 34.009-12.546s9.889 1.44 11.03.448c1.16-.992-2.027-26.872-2.027-26.872l4.961-.4c2.532 5.517 6.303 23.103 5.254 25.025z" fill="#ea7c6f"/></g><path data-name="Path 122" d="M1198.813 828.954l4.958-.411 2.249-24.878-8.542-.515z" fill="#ea7c6f"/></g><path data-name="Path 123" d="M1177.177 812.966l21.574 1.587 14.559 1.065 7.232-114.279s93.615 3.151 103.931-12.421c6.963-10.533 3.746-52.184 3.746-52.184l-5.6 1.1-62.883 12.38s-72.677 12.342-84.585 25.7c-11.922 13.352 2.026 137.052 2.026 137.052z" fill="#bcacb8"/><path data-name="Path 124" d="M1198.75 814.549l14.559 1.065 7.232-114.279s93.615 3.151 103.931-12.421c6.963-10.533 3.746-52.184 3.746-52.184l-5.6 1.1c-.345 8.218-2.179 43.7-8.43 45.33-7.061 1.858-103.431 9.243-103.431 9.243z" fill="#a897a5"/></g></g><path data-name="Path 125" d="M1312.611 520.633c-4.075 4.056-10.082 5.352-15.8 6.042a115.531 115.531 0 01-37.277-1.57c-8.08-1.657-16.076-4.249-23.017-8.7s-12.774-10.949-15.418-18.768c-2.624-7.805-1.709-16.991 3.35-23.517 3.176-4.111 7.754-6.993 10.826-11.19 4.643-6.336 5.214-14.779 4.559-22.6-.432-5.3-1.364-10.6-1.693-15.885a48.554 48.554 0 01.068-7.6c.693-7.509 5.2-17.768 11.777-22.2 7.545-5.11 20.164-5.368 28.8-4.488 9.927.983 19.735 4.972 26.66 12.155 6.526 6.787 10.153 16.024 11.256 25.38.242 2.073.38 4.162.416 6.235a89.636 89.636 0 01-2.641 21.805c-1.521 6.6-3.54 13.209-3.265 19.977.329 7.822 3.662 15.179 5.406 22.81s1.536 16.584-4.007 22.114z" fill="#38102b"/><g data-name="Group 124"><path data-name="Path 126" d="M1246.634 576.5s-21.482 5.5-38.668 8.365c-10.239 1.722-18.969 2.5-20.672.628-4.591-5.023-37.258-44.406-37.258-44.406l3.431-3.632 5.515-5.86.992-1.06 1.649-1.739.005.014 1.361 1.138c.054.038.117.09.177.141l.552.451 39.3 32.735c13.633-4.23 43.716-12.223 43.716-12.223l-.033 8.686z" fill="#ea8d71"/><path data-name="Path 127" d="M1207.966 584.866c-10.239 1.722-18.969 2.5-20.672.628-4.591-5.023-37.258-44.406-37.258-44.406l3.431-3.632 1.856-.03s32.653 38.761 33.677 39.619c.557.469 10.19 4.338 18.966 7.821z" fill="#ea7c6f"/><path data-name="Path 128" d="M1246.7 559.738l-49.342 9.408c-2.383-1.269-37.494-36.359-37.494-36.359l.111-2.252 1.649-1.739.005.014 1.361 1.138c.054.038.117.09.177.141l.551.451 39.3 32.735c13.633-4.23 43.716-12.223 43.716-12.223z" fill="#f8bf92"/><g data-name="Group 123"><g data-name="Group 121"><path data-name="Path 129" d="M1129.97 490.723c1.562-1.206 25.636 19.422 25.636 19.422a22.462 22.462 0 012.823-14.559l.073-.12c.25-.38.587-.753 1.021-.736a1.237 1.237 0 01.582.226 6.292 6.292 0 012.5 4.586 48.633 48.633 0 01.033 5.377c.033 3.437 1.361 6.659 2.684 9.829 2.222 5.371-3.7 14.059-3.7 14.059s.532.652 1.244 1.557l-11.7 10.96-4.774-5.181-4.4-.9c-3.053-1.06-24.052-23-23.038-24.766a13.039 13.039 0 01.97-1.432 29.78 29.78 0 011.5-1.777c.285-.307.47-.486.47-.486a20.159 20.159 0 01.647-2.347 11.111 11.111 0 01.907-2.157c.389-.69.856-1.193 1.372-1.271s2.23.8 4.407 2.081c5.379 3.157 13.587 8.71 13.584 7.974-.016-1.024-14.527-17.412-14.527-17.412a4.278 4.278 0 01.481-1.483 4.447 4.447 0 011.205-1.444z" fill="#f3a080"/><path data-name="Path 130" d="M1124.816 501.006c.519-.081 2.23.8 4.407 2.081-.073 1.823-.7 3.817-.649 5.507a17.336 17.336 0 002 7.588c2.043 3.809 5.434 6.721 9 9.166s7.371 4.553 10.729 7.265a44.486 44.486 0 015.026 4.811l-4.643 4.45-4.292-5.732-4.4-.9c-3.053-1.06-24.052-23-23.038-24.766a13.045 13.045 0 01.97-1.432 29.78 29.78 0 011.5-1.777c.285-.307.47-.486.47-.486a20.158 20.158 0 01.647-2.347 11.117 11.117 0 01.907-2.157c.383-.689.85-1.192 1.366-1.271z" fill="#ea7c6f"/><g data-name="Group 120"><g data-name="Group 118"><path data-name="Path 131" d="M1122.531 504.434c.429.372.872.747 1.334 1.114a48.631 48.631 0 007.346 4.831c1.869 1 3.135 1.527 3.287 1.587a74.978 74.978 0 00-2.611-2.532 116.672 116.672 0 00-6.569-5.7c-.638-.508-1.266-.994-1.875-1.459a11.57 11.57 0 00-.912 2.159z" fill="#b54b57"/></g><g data-name="Group 119"><path data-name="Path 132" d="M1119.926 509.045a51.629 51.629 0 008.417 5.7 51.66 51.66 0 00-6.925-7.477 28.314 28.314 0 00-1.492 1.777z" fill="#b54b57"/></g></g><path data-name="Path 133" d="M1160.051 533.01c-.057-.073-.133-.149-.187-.223a11.643 11.643 0 01-.88-1.193 3.9 3.9 0 01-.429-1.111 5.133 5.133 0 01.69-3.108c1.462-3.184 3.255-6.36 3.456-9.867.236-4.138-1.793-8.061-2.325-12.177-.386-2.986-.027-6.17-1.334-8.884-.158-.323-.348-.644-.532-.989.242-.367.579-.753 1.016-.734a1.394 1.394 0 01.582.231 6.248 6.248 0 012.491 4.591 47.838 47.838 0 01.035 5.368c.038 3.448 1.361 6.662 2.676 9.829 2.23 5.376-3.679 14.065-3.679 14.065s.606.557 1.361 1.138c.054.038.117.09.177.141l.552.451z" fill="#f8bf92"/></g><g data-name="Group 122"><path data-name="Path 134" d="M1151.449 531.103l-.448-.443a8.163 8.163 0 01-1.068-1.367 10.178 10.178 0 01.082-11.033 8.447 8.447 0 011.087-1.353l.457-.437-.155.609c-.112.38-.234.937-.364 1.606a30.126 30.126 0 00-.076 10.2c.12.668.237 1.231.34 1.611z" fill="#b54b57"/></g></g></g><path data-name="Path 135" d="M1256.423 498.336s-13.127 10.509-15.527 15.393-21.539 48.237-21.539 48.237l34.126 24.033 5.5-20.792z" fill="#bb937e"/><g data-name="Group 139"><g data-name="Group 138"><g data-name="Group 137"><path data-name="Path 136" d="M1225.487 647.532c50.47 13.981 108.1 5.178 108.248 5.137-.212-1.983-19.411-92.746-15.619-108.183 1.592-6.477 10.028-36.1 9.286-38.217-.8-2.244-12.356-9.911-17.254-12.323a41.836 41.836 0 00-4.624-2.019 91.1 91.1 0 00-9.017-2.508l-21 .345a12.37 12.37 0 00-4.309.579v.019c-3.2.864-8.172 2.969-14.79 7.974-1.48 1.108-3.032 2.38-4.689 3.8-15.529 13.5-5.792 58.447-4.428 64.421.753 3.291-21.399 79.144-21.804 80.975z" fill="#bb937e"/><g data-name="Group 134"><g data-name="Group 133"><g data-name="Group 125"><path data-name="Path 137" d="M1256.423 498.337c1.981 6.165 7.727 18.3 22.161 17.355 13.932-.9 25.94-14.336 31.564-21.745a41.841 41.841 0 00-4.624-2.019c-.454-.155-.908-.293-1.342-.429-4.178-1.342-7.675-2.078-7.675-2.078l-21 .345a12.371 12.371 0 00-4.309.579v.019a40.8 40.8 0 00-12.255 6.143q-1.211.862-2.52 1.83z" fill="#f3a080"/><path data-name="Path 138" d="M1278 509.296l18.512-19.869c-.081-3.13-.367-4.3-.777-12.046-.445-8.612-.894-16.684-.894-16.684l-24.155 10.014a57.369 57.369 0 014.67 19.539c1.084 13.897 2.644 19.046 2.644 19.046z" fill="#f3a080"/><path data-name="Path 139" d="M1270.686 470.709a57.369 57.369 0 014.67 19.539c.772.307 1.527.592 2.236.826 2.839.935 11.777-7.265 18.143-13.7-.445-8.612-.894-16.684-.894-16.684z" fill="#ea7c6f"/></g><g data-name="Group 132"><g data-name="Group 129"><path data-name="Path 140" d="M1244.703 442.24q.79 3.362 2.018 7.05s-.888 12.2.435 14.9 9.8 19.585 18.387 18.393c7.167-.994 24.554-11.8 30.556-18.173a7.224 7.224 0 002.073-3.16c.758-4.847 3.285-26.2 3.526-27.991.652-4.844 2.076-41.469-42-30.561a21.314 21.314 0 00-15.8 16.255c-1.2 5.78-1.499 13.515.805 23.287z" fill="#f3a080"/><g data-name="Group 126"><path data-name="Path 141" d="M1285.325 443.668a7.833 7.833 0 00-14.924 1.864 12.339 12.339 0 017.167-3.122 12.472 12.472 0 017.757 1.258z" fill="#1d1e1e"/></g><path data-name="Path 142" d="M1246.721 449.29s-.888 12.2.435 14.9 9.8 19.585 18.387 18.393c7.167-.994 24.554-11.8 30.556-18.173-7.39 5.314-27.111 18.89-32.99 16.953-7.286-2.4-15.739-18.3-15.608-19.887s.432-11.992.432-11.992-1.516-3.26-3.23-7.246q.791 3.364 2.018 7.052z" fill="#f8bf92"/><g data-name="Group 127"><path data-name="Path 143" d="M1255.967 445.804a5.912 5.912 0 00-11.264 1.407 9.285 9.285 0 015.409-2.355 9.382 9.382 0 015.855.948z" fill="#1d1e1e"/></g><g data-name="Group 128"><path data-name="Path 144" d="M1275.512 466.197s-10.952-4.562-20.561 1.44c0 0 5.195 8.123 10.514 7.61 6.455-.623 10.047-9.05 10.047-9.05z" fill="#dd5b67"/><path data-name="Path 145" d="M1274.927 466.49s-7.433-1.527-19.354 1.261c0 0 3.3 6.561 10.3 5.754a11.039 11.039 0 009.054-7.015z" fill="#fff"/></g></g><g data-name="Group 131"><path data-name="Path 146" d="M1296.184 460.671a16.931 16.931 0 0011.655-6.683 13.593 13.593 0 001.141-1.766c1.538-2.9 1.828-12.886-2.293-15.138-2.888-1.573-4.934.815-5.9 2.388v.005a9.57 9.57 0 00-.627 1.19z" fill="#f8bf92"/><path data-name="Path 147" d="M1296.184 460.67a16.931 16.931 0 0011.66-6.687c.182-.285.339-.557.475-.812 1.538-2.9 1.831-12.886-2.293-15.135-2.339-1.28-4.124.046-5.233 1.432v.005a9.568 9.568 0 00-.627 1.19z" fill="#f3a080"/><path data-name="Path 148" d="M1308.106 444.985a4.267 4.267 0 01-.147 2.421c-1.06 3.366-4.363 5.977-7.523 8.4a8.4 8.4 0 001.035-5.26c-.079-.622-.223-1.236-.239-1.861-.065-2.506 5.589-8.4 6.874-3.7z" fill="#ea7c6f"/><g data-name="Group 130"><path data-name="Path 149" d="M1298.844 456.788l.179-.109c.114-.071.3-.166.511-.315a7.235 7.235 0 001.557-1.453 6.456 6.456 0 001.255-2.679 5.553 5.553 0 00-.462-3.51 3.093 3.093 0 00-.239-.435l-.068-.106c-.016-.027-.005-.011-.008-.014h-.006l.008-.019.052-.1.106-.19c.071-.128.141-.255.217-.378a14.688 14.688 0 01.94-1.394c.331-.435.671-.834 1.011-1.2a8.968 8.968 0 011-.956 2.215 2.215 0 011.027-.475 1.634 1.634 0 01.886.13.819.819 0 01.4.35.633.633 0 01.06.166.382.382 0 00-.014-.177.775.775 0 00-.337-.451 1.8 1.8 0 00-1.016-.3 2.823 2.823 0 00-1.367.416 8.828 8.828 0 00-1.231.913 13.6 13.6 0 00-1.212 1.176 12.123 12.123 0 00-1.114 1.429c-.087.128-.168.261-.25.394l-.119.2-.16.288-.109.2c.03.065.076.13.114.2l.168.283a2.787 2.787 0 01.2.378 5.859 5.859 0 01.571 3.1 6.62 6.62 0 01-.807 2.551 7.388 7.388 0 01-1.182 1.565c-.169.174-.321.293-.416.383z" fill="#b54b57"/></g></g></g></g></g><g data-name="Group 136"><path data-name="Path 150" d="M1244.57 437.722s2.019-9.218 6.124-7.794 2.945 2.3 2.945 2.3z" fill="#4a0f2f"/><path data-name="Path 151" d="M1283.969 432.071s-11.65-10.813-15.434-6.116c-2.209 2.741-.307 4.241-.307 4.241z" fill="#4a0f2f"/><g data-name="Group 135"><path data-name="Path 152" d="M1263.089 456.846a6.439 6.439 0 012.75-.772 9.209 9.209 0 01-4.934 4.915 1.338 1.338 0 01-.53.133 1.371 1.371 0 01-.63-.22 10.87 10.87 0 01-3.211-2.768 2.083 2.083 0 01-.421-.747c-.234-.926.408-.734.965-.524a8.6 8.6 0 006.012-.016z" fill="#ea7c6f"/><path data-name="Path 153" d="M1260.697 460.462c-.573-.495-1.217-.913-1.807-1.4a14.511 14.511 0 01-2-1.978c2.986-2.13 2.9-5.281 2.7-8.854a10.419 10.419 0 00-2.9-6.615 10.305 10.305 0 00-.953-.872 3.683 3.683 0 00-1.054-.562c.19.209.32.454.492.668a20.855 20.855 0 011.307 1.7 12.933 12.933 0 011 1.924 12.753 12.753 0 01.973 4.219 10.484 10.484 0 01-.611 4.192 8.235 8.235 0 01-2.959 3.947c-.011.008 2.1 2.369 2.309 2.562a10.941 10.941 0 001.733 1.323 3.8 3.8 0 002.048.771 1.2 1.2 0 00.652-.206 2.22 2.22 0 01-.359-.28 1.545 1.545 0 01-.141-.139 6.956 6.956 0 00-.43-.4z" fill="#dd5b67"/></g><path data-name="Path 154" d="M1251.737 458.299c-.462 1.3-3.249 1.494-6.224.437s-5.015-2.972-4.553-4.271 3.249-1.494 6.227-.437 5.012 2.972 4.55 4.271z" fill="#ea7c6f"/><path data-name="Path 155" d="M1288.845 451.657c.538 1.94-2.63 4.507-7.072 5.738s-8.476.652-9.012-1.288 2.627-4.507 7.069-5.738 8.475-.652 9.015 1.288z" fill="#ea7c6f"/></g><path data-name="Path 156" d="M1255.572 498.972s10.082-12.66 14.255-12.85a60.909 60.909 0 0014.8 2.532c7.2.133 19.7-6.01 19.7-6.01l7.248 13.88s2.331 22.408-15.842 23.875-44.16-3.282-40.161-21.427z" fill="#bb937e"/></g></g></g><path data-name="Path 157" d="M1327.402 506.269s10 7.49 13.741 17.988-1.983 59.183-1.983 59.183l-45.536-.814 24.31-71.6z" fill="#bb937e"/><path data-name="Path 158" d="M1302.185 576.572c2.584-20.745 13.793-42.32 27.081-58.207.293-.353.772.057.546.429a244.4 244.4 0 00-15.649 29.2c-4.149 9.487-6.773 19.36-10.215 29.083-.359 1.016-1.891.507-1.763-.505z" fill="#a85f42"/><path data-name="Path 159" d="M1253.915 512.363c.163-.258.524 0 .435.258-7.045 19.626-10.642 37.6-7.352 58.493.223 1.426-1.923 1.646-2.209.264-3.945-19.263-1.665-42.169 9.126-59.015z" fill="#a85f42"/><path data-name="Path 160" d="M1252.294 570.548c5.855-.334 10.587-3.535 16.464-1.741 2.668.815 5.043 2.347 7.724 3.146 5.216 1.559 9.375.451 14.4-1.236a.612.612 0 01.6 1.049c-4.4 3.871-10.376 4.586-15.94 3.062-4.469-1.225-7.528-3.578-12.421-3.07-4 .418-6.912 1.717-10.856.753-1.009-.249-1.166-1.895.029-1.963z" fill="#a85f42"/><path data-name="Path 161" d="M1241.842 414.683a21.762 21.762 0 016.078-12.861 23.561 23.561 0 0113.166-5.9 48.845 48.845 0 0114.679.6 56.578 56.578 0 0116.991 5.262c5.224 2.738 9.8 6.77 12.348 11.878 3.605 7.246 2.969 15.57 1.929 23.571-3.986 1.206-7.642 4.711-8.006 8.634a14.875 14.875 0 00-.541-6.061c-2.027.945-4.4-.772-5.2-2.741s-.685-4.195-1.4-6.194c-1.32-3.665-5.173-5.936-9-7.314s-7.963-2.184-11.381-4.309a18 18 0 01-6.74-7.887 27.154 27.154 0 01-3.122 2c-3.214 1.777-6.716 3.244-9.278 5.8-3.192 3.184-5.643 8.069-9.93 9.729a50.443 50.443 0 01-.593-14.207z" fill="#38102b"/><g data-name="Group 140"><path data-name="Path 162" d="M1317.118 433.923a49.42 49.42 0 01-4.436-3.643c-4.974-4.629-9.256-10.481-15.627-12.829-4.662-1.728-9.946-1.348-14.486-3.4-4.73-2.125-8.115-6.683-13-8.444-5.787-2.089-12.364.293-17.216 4.092s-8.5 8.892-12.777 13.329a47.77 47.77 0 01-1.432 1.415 48.547 48.547 0 01.068-7.6 35.236 35.236 0 013.437-11.723c2.038-4.265 4.9-8.167 8.341-10.481 7.545-5.11 20.164-5.368 28.8-4.488 9.927.983 19.735 4.972 26.66 12.155a39.815 39.815 0 018.5 13.812 50.408 50.408 0 012.76 11.568 65.33 65.33 0 01.408 6.237z" fill="#4a0e2f"/><path data-name="Path 163" d="M1313.943 416.12q-13.884-5.412-27.747-10.843c-8.531-3.333-17.355-6.716-26.486-6.319-5.113.225-12.277 2.589-18.061 6.164 2.038-4.265 4.9-8.167 8.341-10.481 7.545-5.11 20.164-5.368 28.8-4.488 9.927.983 19.735 4.972 26.66 12.155a39.816 39.816 0 018.493 13.812z" fill="#5f1234"/></g><path data-name="Path 164" d="M1329.481 583.274s-4.662 56.132-31.993 42.784c-35.707-12.5-70.463-37.674-86.59-50.486l.087-.139 8.373-13.467 81.306 33.531 2.228-12.706 20.77.38z" fill="#f3a080"/><g data-name="Group 145"><g data-name="Group 144"><path data-name="Path 165" d="M1219.358 561.967l-8.373 13.467-.087.139-5.42-3.437a4.04 4.04 0 01-.467-.293.18.18 0 01-.068-.033l-4.472.258c-3.23-.225-29.181-16-28.662-17.974a13.047 13.047 0 01.57-1.622c.345-.845.723-1.606.984-2.106a6.179 6.179 0 01.329-.59 17.614 17.614 0 01.016-2.434 11.38 11.38 0 01.31-2.331 2.258 2.258 0 011-1.57c.484-.225 2.366.19 4.8.864 6.007 1.657 15.366 4.9 15.176 4.195-.277-.983-18.526-13.07-18.526-13.07a4.388 4.388 0 01.068-1.554 4.543 4.543 0 01.812-1.709c1.174-1.554 28.937 11.742 29.765 12.122a22.432 22.432 0 01-1.019-14.782.352.352 0 01.035-.12 1.282 1.282 0 01.793-.983 1.119 1.119 0 01.622.068 6.28 6.28 0 013.592 3.782 45.167 45.167 0 011.415 5.178c.934 3.317 3.04 6.1 5.145 8.808 3.54 4.608.052 14.538.052 14.538s.696.498 1.61 1.189z" fill="#f3a080"/><g data-name="Group 143"><g data-name="Group 141"><path data-name="Path 166" d="M1173.699 547.336c.511.25 1.035.5 1.576.731a48.477 48.477 0 008.346 2.768c2.062.481 3.423.666 3.586.682-.138-.081-1.32-.78-3.176-1.769a114.099 114.099 0 00-7.822-3.806c-.747-.326-1.478-.633-2.187-.926a11.559 11.559 0 00-.323 2.32z" fill="#b54b57"/></g><g data-name="Group 142"><path data-name="Path 167" d="M1172.376 552.463a51.434 51.434 0 009.6 3.331 51.63 51.63 0 00-8.623-5.431 29.698 29.698 0 00-.977 2.1z" fill="#b54b57"/></g></g></g><path data-name="Path 168" d="M1329.481 583.274s-4.662 56.132-31.993 42.784c-35.707-12.5-70.463-37.674-86.59-50.486l-5.42-3.437c.88.519 2.779 1.676 5.507 3.3 20.338 12.052 85.726 50.054 96.292 46.672 9.308-3 14.383-26.85 16.385-38.934z" fill="#f8bf92"/></g></g><g data-name="Group 148"><path data-name="Path 169" d="M1133.695 862.68a4.973 4.973 0 012.564-4.007c5.061-2.491 23.652-10.256 28.662-14.595 3.893-3.372 6.7-15.233 8.015-18.309h36.555c2.111 9.533 2.388 33.868 2.687 37.72z" fill="#bd4761"/><path data-name="Path 170" d="M1133.571 871.041l78.483.809.124-8.359-78.482-.809z" fill="#f7e4d9"/><g data-name="Group 147" fill="#f7e4d9"><path data-name="Path 171" d="M1171.496 846.486q.081.147.155.293c.372.736.6 1.864-.313 2.3a2.362 2.362 0 01-1.508.041 15.612 15.612 0 01-4.809-2.108 12.44 12.44 0 01-4.391-3.8c-1.076-1.769.462-3.4 2.323-2.967a13.947 13.947 0 018.543 6.241z"/><path data-name="Path 172" d="M1165.535 850.903l.155.293c.372.736.6 1.864-.315 2.3a2.374 2.374 0 01-1.505.041 15.583 15.583 0 01-4.809-2.108 12.412 12.412 0 01-4.39-3.8c-1.079-1.769.459-3.4 2.32-2.967a13.959 13.959 0 018.544 6.241z"/><path data-name="Path 173" d="M1158.227 853.783c.052.1.1.193.155.291.372.736.6 1.864-.315 2.3a2.355 2.355 0 01-1.505.041 15.587 15.587 0 01-4.809-2.108 12.415 12.415 0 01-4.39-3.8c-1.079-1.769.459-3.4 2.32-2.967a13.953 13.953 0 018.544 6.243z"/></g></g><g data-name="Group 150"><path data-name="Path 174" d="M1066.253 816.148a4.975 4.975 0 013.651-3.054c5.575-.853 25.638-2.673 31.724-5.309 4.725-2.046 10.965-12.516 13.144-15.054l34.865 10.984c-.85 9.729-7.9 33.02-8.77 36.785z" fill="#bd4761"/><path data-name="Path 175" d="M1063.623 824.084l74.613 24.355 2.631-7.935-74.613-24.359z" fill="#f7e4d9"/><g data-name="Group 149" fill="#f7e4d9"><path data-name="Path 176" d="M1107.173 812.06c.022.109.043.217.06.326.136.812.016 1.959-.986 2.095a2.348 2.348 0 01-1.451-.416 15.545 15.545 0 01-3.953-3.453 12.426 12.426 0 01-3.045-4.939c-.5-2.013 1.456-3.1 3.1-2.133a13.928 13.928 0 016.275 8.52z"/><path data-name="Path 177" d="M1100.161 814.481c.022.106.041.215.06.323.133.815.014 1.962-.989 2.1a2.371 2.371 0 01-1.448-.416 15.511 15.511 0 01-3.953-3.456 12.394 12.394 0 01-3.048-4.939c-.5-2.01 1.459-3.1 3.105-2.133a13.961 13.961 0 016.273 8.521z"/><path data-name="Path 178" d="M1092.326 815.028c.022.109.041.217.06.326.133.815.014 1.959-.989 2.095a2.35 2.35 0 01-1.448-.413 15.561 15.561 0 01-3.953-3.456 12.4 12.4 0 01-3.048-4.939c-.5-2.01 1.459-3.1 3.105-2.133a13.956 13.956 0 016.273 8.52z"/></g></g><path data-name="Path 179" d="M1262.588 501.599a67.466 67.466 0 0045.634-1.361" fill="none" stroke="#a85f42" stroke-linecap="round" stroke-linejoin="round" stroke-width="2"/></g><g data-name="Group 154"><g data-name="Group 153" transform="translate(1292.097 428.827)"><g data-name="Group 152" fill="#213644"><ellipse data-name="Ellipse 9" cx="11.321" cy="14.815" rx="11.321" ry="14.815"/><path data-name="Path 180" d="M18.75.302l-7.43-.3-8.019 6.93 6.074 22.48 7.094.219z"/></g><ellipse data-name="Ellipse 10" cx="11.321" cy="14.815" rx="11.321" ry="14.815" transform="translate(5.148)" fill="#42525f"/></g><path data-name="Path 181" d="M1305.271 432.442c-1.13-19.118-12.334-38.326-31.542-44.727 25.611-4.8 36.815 22.408 38.258 42.667z" fill="#42525f"/></g></g><path data-name="Path 182" d="M1342.741 653.936s-44.92-12.981-96.566 23.133-43.243 67.113-43.243 67.113h146.514s41.07-69.465-6.705-90.246z" fill="#77635f"/><path data-name="Rectangle 24" d="M1202.933 744.182h81.212v13.564h-78.844a2.368 2.368 0 01-2.368-2.364v-11.2z" fill="#77635f"/></g><g data-name="Group 163"><g data-name="Group 160"><g data-name="Group 158"><g data-name="Group 157" fill="#bb937e" transform="translate(598.855 247.058)"><rect data-name="Rectangle 25" width="150.459" height="70.052" rx="4.212"/><path data-name="Path 184" d="M83.284 70.052l23.351 28.119V70.052H83.284"/></g></g><g data-name="Group 159" fill="none" stroke="#e5e5e5" stroke-miterlimit="10"><path data-name="Line 15" d="M621.347 264.481h105.476"/><path data-name="Line 16" d="M699.856 282.084h26.967"/><path data-name="Line 17" d="M621.347 282.084h65.6"/><path data-name="Line 18" d="M678.791 300.171h48.031"/><path data-name="Line 19" d="M621.347 300.171h40.909"/></g></g><g data-name="Group 161" transform="translate(1332.154 293.817)" fill="#be793a"><rect data-name="Rectangle 26" width="129.1" height="60.107" rx="3.614" transform="rotate(180 64.55 30.054)"/><path data-name="Path 185" d="M57.639 60.107L37.603 84.235V60.107h20.036"/></g><g data-name="Group 162" transform="translate(1359.532 317.531)" fill="#ede4dd"><circle data-name="Ellipse 11" cx="5.023" cy="5.023" r="5.023" transform="translate(0 .001)"/><circle data-name="Ellipse 12" cx="5.023" cy="5.023" r="5.023" transform="translate(32.149 .001)"/><path data-name="Path 186" d="M74.344 5.023A5.023 5.023 0 1169.321 0a5.024 5.024 0 015.023 5.023z"/></g></g><g data-name="Group 170"><g data-name="Group 164"><path data-name="Path 187" d="M551.868 411.31a23.893 23.893 0 0119.591 42.575l3.966 9.794-12.443-5.9a23.892 23.892 0 11-11.117-46.473z" fill="#ca4f29"/><path data-name="Path 188" d="M544.995 435.327a9.136 9.136 0 003.757 5.249 51.8 51.8 0 007.257 4.143c.989.505 2.111 1.076 3.279 1.69a1.445 1.445 0 001.845-.44 264.043 264.043 0 012.16-2.991 52.017 52.017 0 004.6-6.979 9.128 9.128 0 00.975-6.382 7.678 7.678 0 00-3.113-4.643 6.594 6.594 0 00-5.271-.935 6.192 6.192 0 00-3.442 2.19 7.949 7.949 0 00-1.136 1.948 7.836 7.836 0 00-1.9-1.22 6.165 6.165 0 00-4.059-.4 6.61 6.61 0 00-4.279 3.222 7.662 7.662 0 00-.673 5.548z" fill="#f3f3f3"/></g><g data-name="Group 165"><path data-name="Path 189" d="M1367.353 107.648a23.894 23.894 0 00-21.536 41.627l-4.415 9.6 12.7-5.317a23.892 23.892 0 0013.25-45.911z" fill="#ca4f29"/><path data-name="Path 190" d="M1373.11 131.955a9.12 9.12 0 01-4 5.07 51.749 51.749 0 01-7.439 3.806c-1.011.459-2.157.975-3.352 1.535a1.436 1.436 0 01-1.823-.524 255.838 255.838 0 00-2.021-3.086 52.144 52.144 0 01-4.268-7.186 9.127 9.127 0 01-.679-6.42 7.666 7.666 0 013.323-4.494 6.6 6.6 0 015.309-.693 6.184 6.184 0 013.336 2.35 7.83 7.83 0 011.046 2 7.949 7.949 0 011.951-1.133 6.166 6.166 0 014.075-.209 6.6 6.6 0 014.124 3.415 7.665 7.665 0 01.418 5.569z" fill="#f3f3f3"/></g><g data-name="Group 166"><path data-name="Path 191" d="M717.126 90.079a19.941 19.941 0 017.634 38.361l1.318 8.718-8.952-7.2a19.939 19.939 0 110-39.877z" fill="#ca4f29"/><path data-name="Path 192" d="M706.883 108.238a7.628 7.628 0 002.032 4.991 43.243 43.243 0 005.086 4.771c.7.6 1.5 1.282 2.331 2.008a1.207 1.207 0 001.584 0c.829-.725 1.627-1.4 2.334-2.008a43.413 43.413 0 005.083-4.771 7.628 7.628 0 002.032-4.991 6.4 6.4 0 00-1.625-4.371 5.5 5.5 0 00-4.1-1.785 5.15 5.15 0 00-3.217 1.111 6.6 6.6 0 00-1.3 1.358 6.669 6.669 0 00-1.3-1.358 5.163 5.163 0 00-3.219-1.111 5.506 5.506 0 00-4.1 1.785 6.409 6.409 0 00-1.621 4.371z" fill="#f3f3f3"/></g><g data-name="Group 168" transform="translate(550.212 101.42)"><circle data-name="Ellipse 13" cx="37.636" cy="37.636" r="37.636" transform="rotate(-45 64.248 26.613)" fill="#e27f3d"/><g data-name="Group 167"><path data-name="Path 193" d="M33.264 53.863A21.816 21.816 0 1055.08 32.044c-.369 0-.758.019-1.127.035l2.673 20.824-22.941-3.361a22.57 22.57 0 00-.421 4.321z" fill="#ffddcf"/><path data-name="Path 194" d="M29.556 45.365l22.941 3.363-2.671-20.827a21.828 21.828 0 00-20.27 17.464z" fill="#9b644c"/></g></g><g data-name="Group 169" transform="translate(1260.537 195.349)"><circle data-name="Ellipse 14" cx="29.675" cy="29.675" r="29.675" fill="#ddc8bc"/><path data-name="Path 195" d="M25.067 29.676v-12.7a2.049 2.049 0 013.075-1.777l11 6.349 11 6.352a2.052 2.052 0 010 3.554l-11 6.349-11 6.349a2.049 2.049 0 01-3.075-1.774z" fill="#bb937e"/><path data-name="Path 196" d="M18.694 43.222a2.406 2.406 0 01-2.407-2.407v-23.49a2.406 2.406 0 012.407-2.4 2.406 2.406 0 012.407 2.4v23.489a2.406 2.406 0 01-2.407 2.408z" fill="#bb937e"/></g></g><g data-name="Group 178"><g data-name="Group 171"><path data-name="Rectangle 27" fill="#5b4541" d="M763.263 651.192h258.699v12.225H763.263z"/><path data-name="Path 197" d="M973.888 676.13H811.335l1.374-12.717h161.179z" fill="#bb937e"/><path data-name="Rectangle 28" fill="#bb937e" d="M885.327 676.133h14.571v195.53h-14.571z"/></g><g data-name="Group 172"><path data-name="Path 198" d="M977.003 651.189h-50.546v-5.6h56.14a5.6 5.6 0 01-5.594 5.6z" fill="#754037"/><path data-name="Path 199" d="M950.816 651.191H832.95l-18.271-73.269-.492-1.986a6.716 6.716 0 016.509-8.346h102.188a9.077 9.077 0 018.8 6.865l17.254 69.2z" fill="#915549"/><path data-name="Path 200" d="M950.815 651.191H832.947l-18.271-73.269c3.429 3.141 6.183 8.553 8.512 11.074a87.393 87.393 0 0021.5 16.6 328.26 328.26 0 0043.808 20.623c19.352 7.417 40.179 14.638 60.435 17.436z" fill="#754037"/></g><g data-name="Group 174"><path data-name="Rectangle 29" fill="#77635f" d="M1006.629 651.192h-17.104v-3.016h17.104z"/><g data-name="Group 173"><path data-name="Rectangle 30" d="M989.183 611.161l12.08-37.704a3.6 3.6 0 014.526-2.33l12.073 3.868a3.595 3.595 0 012.327 4.52l-12.078 37.703a3.6 3.6 0 01-4.527 2.33l-12.074-3.868a3.594 3.594 0 01-2.327-4.519z" fill="#77635f"/><path data-name="Rectangle 31" d="M1016.835 595.751l-8.923 27.855a3.251 3.251 0 01-4.088 2.104l-16.082-5.152a3.252 3.252 0 01-2.105-4.09l8.923-27.853 22.275 7.136z" fill="#263238"/></g><path data-name="Rectangle 32" fill="#77635f" d="M999.825 648.176h-3.496v-36.62h3.496z"/><path data-name="Path 201" d="M995.417 611.557a2.66 2.66 0 102.66-2.663 2.659 2.659 0 00-2.66 2.663z" fill="#e27f3d"/></g><g data-name="Group 177"><g data-name="Group 176"><path data-name="Rectangle 33" fill="#77635f" d="M787.063 648.176h17.104v3.016h-17.104z"/><g data-name="Group 175"><path data-name="Rectangle 34" d="M785.583 617.224l-12.08-37.704a3.6 3.6 0 012.33-4.527l12.074-3.868a3.595 3.595 0 014.52 2.327l12.08 37.704a3.6 3.6 0 01-2.33 4.526l-12.075 3.869a3.594 3.594 0 01-4.52-2.327z" fill="#77635f"/><path data-name="Rectangle 35" d="M799.131 588.616l8.923 27.855a3.251 3.251 0 01-2.104 4.087l-16.082 5.152a3.251 3.251 0 01-4.088-2.104l-8.923-27.854 22.274-7.136z" fill="#263238"/></g><path data-name="Rectangle 36" fill="#77635f" d="M793.867 611.556h3.496v36.62h-3.496z"/></g><path data-name="Path 202" d="M798.276 611.557a2.661 2.661 0 11-2.662-2.663 2.661 2.661 0 012.662 2.663z" fill="#e27f3d"/></g><path data-name="Path 203" d="M896.388 614.215h-23.585a2.619 2.619 0 01-2.54-1.983l-.329-1.323a2.618 2.618 0 012.54-3.252h23.582a2.624 2.624 0 012.543 1.986l.329 1.32a2.62 2.62 0 01-2.54 3.252z" fill="#ede4dd"/></g><g data-name="Group 188" transform="translate(622.513 84.87)"><path data-name="Path 204" d="M340.118 346.841l-3.966 7.251a.415.415 0 01-.731 0l-3.967-7.251a.406.406 0 00-.166-.166l-7.251-3.966a.415.415 0 010-.731l7.251-3.966a.423.423 0 00.166-.166l3.967-7.254a.417.417 0 01.731 0l3.966 7.254a.423.423 0 00.166.166l7.251 3.966a.415.415 0 010 .731l-7.251 3.966a.406.406 0 00-.166.166z" fill="#ca4f29"/><path data-name="Path 205" d="M637.882 16.464l-3.966 7.251a.418.418 0 01-.734 0l-3.967-7.251a.422.422 0 00-.166-.166l-7.251-3.967a.417.417 0 010-.731l7.251-3.967a.406.406 0 00.166-.166l3.966-7.251a.418.418 0 01.734 0l3.966 7.251a.406.406 0 00.166.166l7.251 3.967a.417.417 0 010 .731l-7.251 3.967a.423.423 0 00-.165.166z" fill="#ca4f29"/><path data-name="Path 206" d="M797.452 148.441l-3.966 7.251a.415.415 0 01-.731 0l-3.966-7.251a.407.407 0 00-.166-.166l-7.251-3.967a.415.415 0 010-.731l7.251-3.967a.407.407 0 00.166-.166l3.966-7.251a.415.415 0 01.731 0l3.966 7.251a.406.406 0 00.166.166l7.251 3.967a.415.415 0 010 .731l-7.251 3.967a.406.406 0 00-.166.166z" fill="#ca4f29"/><path data-name="Path 207" d="M10.46 288.551l-2.546 4.654a.267.267 0 01-.47 0l-2.546-4.654a.249.249 0 00-.106-.106l-4.654-2.546a.269.269 0 010-.47l4.654-2.546a.266.266 0 00.106-.106l2.546-4.657a.269.269 0 01.47 0l2.546 4.657a.273.273 0 00.109.106l4.654 2.546a.269.269 0 010 .47l-4.654 2.546a.256.256 0 00-.109.106z" fill="#ca4f29"/><g data-name="Group 181" fill="#915549"><g data-name="Group 179" transform="translate(187.098 2.62)"><path data-name="Path 208" d="M5.181 2.589A2.59 2.59 0 112.592 0a2.591 2.591 0 012.589 2.589z"/><circle data-name="Ellipse 15" cx="2.589" cy="2.589" r="2.589" transform="translate(10.302 .001)"/><path data-name="Path 209" d="M25.778 2.589A2.589 2.589 0 1123.189 0a2.591 2.591 0 012.589 2.589z"/></g><g data-name="Group 180"><path data-name="Path 210" d="M216.249 18.724a2.59 2.59 0 11-2.592-2.589 2.591 2.591 0 012.592 2.589z"/><path data-name="Path 211" d="M226.548 18.724a2.589 2.589 0 11-2.589-2.589 2.59 2.59 0 012.589 2.589z"/><path data-name="Path 212" d="M236.85 18.724a2.589 2.589 0 11-2.589-2.589 2.59 2.59 0 012.589 2.589z"/></g></g><g data-name="Group 184" fill="#915549"><g data-name="Group 182"><path data-name="Path 213" d="M770.869 328.124a2.589 2.589 0 11-2.589-2.585 2.59 2.59 0 012.589 2.585z"/><path data-name="Path 214" d="M781.171 328.124a2.59 2.59 0 11-2.592-2.589 2.591 2.591 0 012.592 2.589z"/><path data-name="Path 215" d="M791.471 328.124a2.589 2.589 0 11-2.589-2.589 2.59 2.59 0 012.589 2.589z"/></g><g data-name="Group 183" transform="translate(789.66 339.048)"><circle data-name="Ellipse 16" cx="2.589" cy="2.589" r="2.589"/><path data-name="Path 216" d="M15.476 2.589A2.589 2.589 0 1112.887 0a2.589 2.589 0 012.589 2.589z"/><path data-name="Path 217" d="M25.786 2.589A2.589 2.589 0 1123.197 0a2.59 2.59 0 012.589 2.589z"/></g></g><circle data-name="Ellipse 17" cx="4.757" cy="4.757" r="4.757" transform="translate(366.432 362.332)" fill="#ca4f29"/><g data-name="Group 187"><g data-name="Group 185" fill="#e8bd0c"><path data-name="Path 218" d="M221.803 319.392l32.351-20.455-16.209-13.827z"/><path data-name="Path 219" d="M221.433 331.819l22.32 8.961 1.788-13.122z"/><path data-name="Path 220" d="M205.967 313.843l6.616-24.654-11.976-2.054z"/></g><g data-name="Group 186" fill="#f2cb2a"><path data-name="Path 221" d="M556.486 296.638l-30.739-19.436 15.4-13.138z"/><path data-name="Path 222" d="M556.837 308.448l-21.2 8.513-1.7-12.468z"/><path data-name="Path 223" d="M571.534 291.368l-6.287-23.426 11.379-1.952z"/></g></g></g></g></g></g></svg>