<svg xmlns="http://www.w3.org/2000/svg" width="930" height="620.414" viewBox="0 0 930 620.414">
  <g id="_2" data-name="2" transform="translate(0.612 0.415)">
    <path id="Path_520" data-name="Path 520" d="M0,0H930V620H0Z" transform="translate(-0.612 -0.415)" fill="rgba(255,193,7,0.14)"/>
    <g id="Group_354" data-name="Group 354" transform="translate(-24.98)">
      <g id="BACKGROUND" transform="translate(69.368 59.579)">
        <rect id="Rectangle_57" data-name="Rectangle 57" width="230.496" height="153.664" transform="translate(0 0)" fill="rgba(253,193,45,0.2)"/>
      </g>
      <g id="OBJECTS" transform="translate(69.368 59.579)">
        <g id="Group_313" data-name="Group 313" transform="translate(689.741 433.718)">
          <path id="Path_451" data-name="Path 451" d="M2262.722,1562.377a9.542,9.542,0,0,0,1.19-.163,40.3,40.3,0,0,0,5.379,10.766,10.117,10.117,0,0,0-.847.853,9.888,9.888,0,1,0,14.934,12.964,10.2,10.2,0,0,0,.726-.958,40.368,40.368,0,0,0,11.417,3.811,9.886,9.886,0,1,0,19.731-.19,10.133,10.133,0,0,0-.166-1.191,40.389,40.389,0,0,0,10.766-5.378,9.732,9.732,0,0,0,.856.847,9.888,9.888,0,1,0,12.964-14.934,9.777,9.777,0,0,0-.961-.726,40.364,40.364,0,0,0,3.811-11.417,9.886,9.886,0,1,0-.19-19.731,10.112,10.112,0,0,0-1.191.166,40.244,40.244,0,0,0-5.378-10.766,10.133,10.133,0,0,0,.847-.856,9.888,9.888,0,1,0-14.934-12.964,9.3,9.3,0,0,0-.726.961,40.266,40.266,0,0,0-11.417-3.811,9.886,9.886,0,1,0-19.731.19,10.19,10.19,0,0,0,.166,1.191,40.261,40.261,0,0,0-10.766,5.378,10.115,10.115,0,0,0-.856-.847,9.889,9.889,0,1,0-12,15.648,40.246,40.246,0,0,0-3.811,11.417,9.882,9.882,0,1,0,.19,19.728Zm38.511-31.041a19.8,19.8,0,1,0,0,.009Z" transform="translate(-2252.149 -1474.032)" fill="#ffc107"/>
          <g id="Group_312" data-name="Group 312" transform="translate(91.908)">
            <path id="Path_452" data-name="Path 452" d="M2559.893,1455.313a6.271,6.271,0,0,0,.684-.1,23.055,23.055,0,0,0,3.068,6.158,6.057,6.057,0,0,0-.485.488,5.656,5.656,0,0,0,8.542,7.416,5.731,5.731,0,0,0,.414-.549,23.048,23.048,0,0,0,6.529,2.178,6.511,6.511,0,0,0,0,.69,5.655,5.655,0,0,0,11.281-.8,5.421,5.421,0,0,0-.092-.681,22.973,22.973,0,0,0,6.158-3.068,5.164,5.164,0,0,0,.488.485,5.655,5.655,0,0,0,7.413-8.542,6.414,6.414,0,0,0-.546-.414,23.124,23.124,0,0,0,2.178-6.529,5.1,5.1,0,0,0,.687,0,5.655,5.655,0,0,0-.795-11.281,5.416,5.416,0,0,0-.681.095,23.217,23.217,0,0,0-3.068-6.161,5.2,5.2,0,0,0,.485-.488,5.655,5.655,0,0,0-8.542-7.413,4.957,4.957,0,0,0-.414.549,23.062,23.062,0,0,0-6.529-2.182,6.387,6.387,0,0,0,0-.687,5.655,5.655,0,1,0-11.19,1.479,23.049,23.049,0,0,0-6.158,3.068,5.652,5.652,0,1,0-7.9,8.057,5.912,5.912,0,0,0,.546.417,23.118,23.118,0,0,0-2.178,6.529,5.161,5.161,0,0,0-.687,0,5.655,5.655,0,1,0,.795,11.282Zm22.026-17.756a11.683,11.683,0,1,0,0,.009Z" transform="translate(-2553.187 -1418.562)" fill="#fff"/>
            <path id="Path_453" data-name="Path 453" d="M2582.8,1476.026a6.327,6.327,0,0,1-6.305-5.885,1.742,1.742,0,0,1,0-.175,23.743,23.743,0,0,1-5.642-1.884c-.037.049-.076.092-.114.135a6.33,6.33,0,0,1-9.56-8.284l.116-.132a23.708,23.708,0,0,1-2.657-5.32h-.175a6.323,6.323,0,1,1-.881-12.616h.175a23.759,23.759,0,0,1,1.884-5.642c-.046-.037-.092-.074-.135-.114a6.33,6.33,0,0,1,8.3-9.56l.132.117a23.818,23.818,0,0,1,5.32-2.657.673.673,0,0,0-.015-.175,6.33,6.33,0,0,1,12.628-.89,1.608,1.608,0,0,1,0,.175,23.871,23.871,0,0,1,5.642,1.881l.114-.135a6.331,6.331,0,1,1,9.56,8.3l-.116.129a23.7,23.7,0,0,1,2.657,5.32h.175a6.332,6.332,0,1,1,.893,12.633h-.175a23.678,23.678,0,0,1-1.884,5.639l.135.114a6.333,6.333,0,0,1-8.284,9.563c-.043-.04-.089-.077-.132-.12a23.556,23.556,0,0,1-5.32,2.657v.175a6.333,6.333,0,0,1-5.869,6.75C2583.107,1476.022,2582.954,1476.026,2582.8,1476.026Zm-12.165-9.474a.684.684,0,0,1,.307.074,22.362,22.362,0,0,0,6.339,2.114.674.674,0,0,1,.558.7,5.249,5.249,0,0,0,0,.614,4.98,4.98,0,1,0,9.849-1.3.68.68,0,0,1,.457-.77,22.3,22.3,0,0,0,5.976-2.985.675.675,0,0,1,.89.1,5.647,5.647,0,0,0,.43.427,4.979,4.979,0,0,0,6.529-7.52,4.5,4.5,0,0,0-.482-.365.672.672,0,0,1-.224-.868,22.3,22.3,0,0,0,2.114-6.339.678.678,0,0,1,.7-.558,5.783,5.783,0,0,0,.614,0,4.98,4.98,0,0,0-.7-9.935,4.2,4.2,0,0,0-.6.083.684.684,0,0,1-.773-.454,22.384,22.384,0,0,0-2.985-5.98.678.678,0,0,1,.1-.89,4.751,4.751,0,0,0,.426-.43,4.98,4.98,0,0,0-7.52-6.529,5.438,5.438,0,0,0-.365.485.675.675,0,0,1-.865.224,22.466,22.466,0,0,0-6.339-2.117.672.672,0,0,1-.558-.7,4.978,4.978,0,1,0-9.938.1,4.855,4.855,0,0,0,.086.614.678.678,0,0,1-.457.77,22.4,22.4,0,0,0-5.977,2.985.675.675,0,0,1-.89-.1,5.663,5.663,0,0,0-.43-.426,4.979,4.979,0,1,0-6.529,7.52,4.51,4.51,0,0,0,.481.365.672.672,0,0,1,.224.868,22.5,22.5,0,0,0-2.114,6.336.684.684,0,0,1-.7.562,4.417,4.417,0,0,0-.614,0,4.98,4.98,0,0,0,.715,9.935,5.45,5.45,0,0,0,.613-.083.674.674,0,0,1,.77.454,22.421,22.421,0,0,0,2.986,5.98.676.676,0,0,1-.1.89,4.641,4.641,0,0,0-.426.429,4.98,4.98,0,1,0,7.888,6.044A.668.668,0,0,1,2570.638,1466.551Zm-12.23-12.742Zm22.751,3.9a11.179,11.179,0,1,1,.8-.028C2581.7,1457.7,2581.426,1457.709,2581.159,1457.709Zm-.675-20.98a9.818,9.818,0,1,0,7.134,2.381,9.819,9.819,0,0,0-7.134-2.381Z" transform="translate(-2551.702 -1417.058)"/>
          </g>
        </g>
        <g id="Group_322" data-name="Group 322" transform="translate(441.466 0)">
          <g id="Group_316" data-name="Group 316">
            <g id="Group_314" data-name="Group 314">
              <rect id="Rectangle_58" data-name="Rectangle 58" width="291.945" height="530.841" rx="78.45" transform="translate(292.62 531.516) rotate(180)" fill="#fff"/>
              <path id="Path_454" data-name="Path 454" d="M1711.5,532.188H1467.694a24.748,24.748,0,0,1-24.745-24.7V24.7A24.748,24.748,0,0,1,1467.694,0H1711.5a24.748,24.748,0,0,1,24.745,24.7V507.5A24.748,24.748,0,0,1,1711.5,532.188ZM1467.694,1.347A23.4,23.4,0,0,0,1444.3,24.7V507.5a23.4,23.4,0,0,0,23.395,23.348H1711.5a23.4,23.4,0,0,0,23.395-23.348V24.7A23.4,23.4,0,0,0,1711.5,1.347Z" transform="translate(-1442.95 0)"/>
            </g>
            <g id="Group_315" data-name="Group 315" transform="translate(14.319 15.418)">
              <rect id="Rectangle_59" data-name="Rectangle 59" width="263.3" height="498.536" rx="59.45" transform="translate(263.978 499.211) rotate(180)" fill="#fff"/>
              <path id="Path_455" data-name="Path 455" d="M1735.358,550.146H1508.535a18.917,18.917,0,0,1-18.915-18.872V69.125a18.917,18.917,0,0,1,18.915-18.875h226.823a18.917,18.917,0,0,1,18.915,18.875V531.264a18.914,18.914,0,0,1-18.915,18.881ZM1508.535,51.6a17.565,17.565,0,0,0-17.571,17.528V531.264a17.565,17.565,0,0,0,17.562,17.525h226.823a17.565,17.565,0,0,0,17.565-17.525V69.125A17.565,17.565,0,0,0,1735.349,51.6Z" transform="translate(-1489.62 -50.25)"/>
            </g>
            <path id="Path_456" data-name="Path 456" d="M1877.584,100.653h-58.013a.678.678,0,0,1,0-1.353h58.022a.678.678,0,0,1,0,1.353Z" transform="translate(-1703.579 -68.833)"/>
          </g>
          <path id="Path_522" data-name="Path 522" d="M0,0H203.232V146.986H0Z" transform="translate(45.031 93.258)" fill="#ffecbc"/>
          <g id="Group_318" data-name="Group 318" transform="translate(45.031 400.214)">
            <rect id="Rectangle_61" data-name="Rectangle 61" width="203.232" height="51.112" rx="25.556" fill="#ffecbc"/>
            <g id="Group_317" data-name="Group 317" transform="translate(62.957 71.356)">
              <path id="Path_457" data-name="Path 457" d="M1978.26,1572.04a9.14,9.14,0,1,1,9.14-9.14,9.14,9.14,0,0,1-9.14,9.14Zm0-16.93a7.79,7.79,0,1,0,7.787,7.789A7.79,7.79,0,0,0,1978.26,1555.11Z" transform="translate(-1915.671 -1549.67)"/>
              <path id="Path_458" data-name="Path 458" d="M1897.75,1572.04a9.14,9.14,0,1,1,9.14-9.14A9.14,9.14,0,0,1,1897.75,1572.04Zm0-16.93a7.79,7.79,0,1,0,7.79,7.79,7.79,7.79,0,0,0-7.79-7.79Z" transform="translate(-1859.863 -1549.67)"/>
              <path id="Path_521" data-name="Path 521" d="M9.588,0A9.588,9.588,0,1,1,0,9.588,9.588,9.588,0,0,1,9.588,0Z" transform="matrix(0.851, -0.526, 0.526, 0.851, 0, 10.082)" fill="#ffc107"/>
            </g>
          </g>
          <g id="Group_321" data-name="Group 321" transform="translate(43.556 269.765)">
            <g id="Group_319" data-name="Group 319">
              <rect id="Rectangle_62" data-name="Rectangle 62" width="204.045" height="98.117" transform="translate(0.663 0.675)" fill="#fff"/>
              <path id="Path_459" data-name="Path 459" d="M1789.618,980.857H1585.585a.675.675,0,0,1-.675-.675V882.065a.672.672,0,0,1,.675-.675h204.033a.672.672,0,0,1,.675.675v98.117A.675.675,0,0,1,1789.618,980.857Zm-203.37-1.353h202.695V882.74H1586.248Z" transform="translate(-1584.91 -881.39)" fill="#e2eaff"/>
            </g>
            <g id="Group_320" data-name="Group 320" transform="translate(91.462 28.798)">
              <path id="Path_460" data-name="Path 460" d="M2068.444,976.6h-53.079a.675.675,0,1,1,0-1.35h53.079a.675.675,0,0,1,0,1.35Z" transform="translate(-1974.288 -975.25)"/>
              <path id="Path_461" data-name="Path 461" d="M1911.249,976.6h-27.564a.675.675,0,1,1,0-1.35h27.564a.675.675,0,0,1,0,1.35Z" transform="translate(-1883.01 -975.25)"/>
              <path id="Path_462" data-name="Path 462" d="M2152.9,1036.67h-15.647a.678.678,0,1,1,0-1.353H2152.9a.678.678,0,1,1,0,1.353Z" transform="translate(-2058.747 -1016.886)"/>
              <path id="Path_463" data-name="Path 463" d="M1941.481,1036.673h-57.7a.678.678,0,0,1,0-1.353h57.7a.678.678,0,0,1,0,1.353Z" transform="translate(-1883.106 -1016.89)"/>
              <path id="Path_464" data-name="Path 464" d="M2089.115,1096.75h-43.93a.675.675,0,1,1,0-1.35h43.93a.675.675,0,0,1,0,1.35Z" transform="translate(-1994.959 -1058.536)"/>
              <path id="Path_465" data-name="Path 465" d="M1913.339,1096.75h-29.654a.675.675,0,1,1,0-1.35h29.654a.675.675,0,1,1,0,1.35Z" transform="translate(-1883.01 -1058.536)"/>
            </g>
            <circle id="Ellipse_35" data-name="Ellipse 35" cx="26.349" cy="26.349" r="26.349" transform="translate(11.01 48.896) rotate(-45)" fill="#ffecbc"/>
          </g>
          <ellipse id="Ellipse_36" data-name="Ellipse 36" cx="10.689" cy="10.689" rx="10.689" ry="10.689" transform="translate(55.117 203.342) rotate(-76.72)" fill="#fdc12d"/>
        </g>
        <g id="Group_332" data-name="Group 332" transform="translate(191.236 146.061)">
          <g id="Group_323" data-name="Group 323" transform="translate(42.405 191.085)">
            <path id="Path_466" data-name="Path 466" d="M964.05,1326.365l-73.4-197.635-55.178-24.22L769.393,1151.2l-4.243,175.17Z" transform="translate(-764.49 -1103.833)" fill="#fff"/>
            <path id="Path_467" data-name="Path 467" d="M763.674,1324.87h-.015a.675.675,0,0,1-.66-.693l4.225-174.529a.684.684,0,0,1,.285-.534l66.082-46.685a.675.675,0,0,1,.663-.068l55.178,24.22a.684.684,0,0,1,.362.383l73.126,196.9a.676.676,0,1,1-1.267.473L888.631,1127.7l-54.57-23.959-65.493,46.277-4.219,174.189A.678.678,0,0,1,763.674,1324.87Z" transform="translate(-762.999 -1102.303)"/>
            <path id="Path_468" data-name="Path 468" d="M1065.94,1555.079a.678.678,0,0,1-.672-.614l-12.2-105.456a10.849,10.849,0,0,1,4.022-9.769l5.854-4.685a.676.676,0,1,1,.844,1.055l-5.854,4.682a9.512,9.512,0,0,0-3.522,8.56l12.2,105.48a.675.675,0,0,1-.6.749Z" transform="translate(-964.019 -1332.513)"/>
          </g>
          <g id="Group_326" data-name="Group 326" transform="translate(83.006)">
            <g id="Group_324" data-name="Group 324">
              <path id="Path_469" data-name="Path 469" d="M953.126,507.6c2.494-3.752,4.553-8.385,3.123-12.656a9.026,9.026,0,0,0-11.579-5.243,51.207,51.207,0,0,0,4.455-10.162c-12-.347-24.337,1.773-34.6,8s-18.157,16.967-19.112,28.933c-.4,4.977.479,10.229,3.446,14.249,3.114,4.222,8.164,6.615,13.239,7.879,6.624,1.657,13.926,1.608,19.961-1.583a18.392,18.392,0,0,0,8.836-10.312,14.934,14.934,0,0,0,.7-3.452c.067-.847-.362-2.405-.037-3.151.387-.884,2.037-1.764,2.761-2.408q1.556-1.381,2.995-2.878A52.013,52.013,0,0,0,953.126,507.6Z" transform="translate(-895.328 -479.503)"/>
              <path id="Path_470" data-name="Path 470" d="M1046.076,548.933a.672.672,0,0,1-.479-1.151,21.5,21.5,0,0,0,5.335-9.036.675.675,0,1,1,1.295.38,22.847,22.847,0,0,1-5.67,9.606A.669.669,0,0,1,1046.076,548.933Z" transform="translate(-999.353 -520.222)"/>
            </g>
            <path id="Path_471" data-name="Path 471" d="M948.569,696.965l-6.713-.733,1.77-22.913s-5.578-27.92-27.055-7.057l-3.927,31.1-6.314.795s2.559,14.509,20.584,14.469C942.227,712.588,948.842,707.421,948.569,696.965Z" transform="translate(-902.954 -603.596)" fill="#fff"/>
            <path id="Path_472" data-name="Path 472" d="M913.094,696.959a.675.675,0,0,1-.083-1.347l3.234-.408,3.869-30.59a.672.672,0,0,1,.2-.4c6.71-6.517,12.647-9.033,17.63-7.48,7.977,2.485,10.456,14.4,10.558,14.905a.609.609,0,0,1,0,.184l-1.718,22.262,3.3.359a.676.676,0,1,1-.147,1.344l-3.955-.433a.678.678,0,0,1-.614-.724l1.764-22.815c-.236-1.074-2.728-11.659-9.619-13.807-4.437-1.378-9.858.976-16.114,7l-3.884,30.887a.675.675,0,0,1-.583.586l-3.74.473Z" transform="translate(-907.159 -602.049)"/>
            <g id="Group_325" data-name="Group 325" transform="translate(9.019 28.22)">
              <path id="Path_473" data-name="Path 473" d="M940.805,608.476a24.416,24.416,0,0,0,11.214,5.685,16.714,16.714,0,0,0,12.2-2.2c5.909-3.924,8.054-11.88,7.011-18.894s-4.688-13.334-8.318-19.431c0,0-13.837,10.607-26.546,12.319a19.765,19.765,0,0,0-.868,12.095s-2.823-2.565-5.415-.871a7.335,7.335,0,0,0-2.58,8.833,8.2,8.2,0,0,0,8.18,4.6A7.31,7.31,0,0,0,940.805,608.476Z" transform="translate(-926.257 -572.977)" fill="#fff"/>
              <path id="Path_474" data-name="Path 474" d="M953.891,613.673a18.944,18.944,0,0,1-3.531-.334,24.883,24.883,0,0,1-11.045-5.437,8.358,8.358,0,0,1-5.087,1.911,8.906,8.906,0,0,1-8.867-5.01,7.958,7.958,0,0,1,2.829-9.674A4.628,4.628,0,0,1,933,595.1a20.557,20.557,0,0,1,1.227-10.874.672.672,0,0,1,.537-.423c12.389-1.669,26.079-12.079,26.227-12.184a.669.669,0,0,1,.54-.129.677.677,0,0,1,.451.307c3.255,5.461,7.3,12.273,8.407,19.676,1.209,8.131-1.657,15.807-7.305,19.553A16.607,16.607,0,0,1,953.891,613.673Zm-14.62-7.364a.69.69,0,0,1,.442.163,23.72,23.72,0,0,0,10.9,5.523,15.939,15.939,0,0,0,11.705-2.1c5.928-3.933,7.643-11.99,6.713-18.231-1.022-6.864-4.725-13.291-7.845-18.538-2.81,2.056-14.6,10.269-25.861,11.941a18.952,18.952,0,0,0-.7,11.328.675.675,0,0,1-1.111.657c-.1-.089-2.476-2.188-4.6-.807a6.662,6.662,0,0,0-2.332,8,7.478,7.478,0,0,0,7.5,4.213,6.711,6.711,0,0,0,4.694-1.942.672.672,0,0,1,.491-.206Z" transform="translate(-924.723 -571.479)"/>
            </g>
            <path id="Path_475" data-name="Path 475" d="M951.644,669.965a.674.674,0,0,1-.153-.018,16.168,16.168,0,0,1-4.753-1.936.675.675,0,0,1,.7-1.154,14.754,14.754,0,0,0,4.369,1.773.675.675,0,0,1-.15,1.335Z" transform="translate(-930.74 -609.305)"/>
          </g>
          <g id="Group_331" data-name="Group 331" transform="translate(0 47.269)">
            <g id="Group_327" data-name="Group 327" transform="translate(0 45.717)">
              <path id="Path_476" data-name="Path 476" d="M796.013,854.168s58.231,8.861,106.588-36.861c-11.546-6.609-18.633-18.443-22.4-34.173,0,0-19.7,19.194-38.524,19.207-16.332,0-51.646-17.317-88.219-19.771a19.128,19.128,0,0,1-3.289,6.443c-2.961,3.642-7.689,5.646-12.224,6.367a31.3,31.3,0,0,1-13.193-.727,23.769,23.769,0,0,1-10.38-5.83,16.946,16.946,0,0,1-3.163-4.372c-26.429,2.1-43.074,5.3-57.037,22.352-17.995,21.968-32.992,63.3-28.623,89.388s16.365,34.167,31.673,39.193l-.669,14.113A21.829,21.829,0,0,0,685.949,971l122.236-45.283a11.723,11.723,0,0,0,7.032-14.742Z" transform="translate(-624.788 -782.57)" fill="#ffc107"/>
              <path id="Path_477" data-name="Path 477" d="M1172.972,989.147a.675.675,0,0,1-.641-.46l-3.289-9.846a.676.676,0,0,1,1.282-.427l3.286,9.843a.675.675,0,0,1-.427.856.639.639,0,0,1-.212.034Z" transform="translate(-1002.032 -918.005)"/>
            </g>
            <g id="Group_328" data-name="Group 328" transform="translate(253.858)">
              <path id="Path_478" data-name="Path 478" d="M1454.864,680.907c16.212-14.807,31.114-31.387,49.778-42.954a12.345,12.345,0,0,1,5.314-2.185c1.939-.163,4.084.761,4.734,2.58s-.368,3.835-1.467,5.455a51.224,51.224,0,0,1-13.656,13.693s8.548,1.31,8.109,9.358c0,0,5.044.9,2.761,10.625,0,0,2.859,7.615-3.955,11.874-4.909,3.068-8.128,1.841-8.128,1.841s-16.39,20.511-27.067,27.54S1446.135,688.878,1454.864,680.907Z" transform="translate(-1452.183 -635.08)" fill="#fff"/>
              <path id="Path_479" data-name="Path 479" d="M1481.7,713.3a.675.675,0,0,1-.448-1.181c9.781-8.683,21.023-22.7,21.136-22.855a.678.678,0,0,1,.767-.209c.024,0,3.016,1.034,7.529-1.789,6.253-3.906,3.786-10.775,3.682-11.064a.688.688,0,0,1-.025-.393c1.1-4.7.411-7.127-.365-8.336a3.307,3.307,0,0,0-1.859-1.47.681.681,0,0,1-.549-.7c.4-7.327-7.216-8.591-7.542-8.652a.678.678,0,0,1-.261-1.227,50.691,50.691,0,0,0,13.46-13.5c.881-1.3,1.982-3.212,1.393-4.848-.558-1.562-2.5-2.267-4.041-2.148a11.756,11.756,0,0,0-5.017,2.083c-13.834,8.572-26.773,21-39.272,33.007-3.59,3.449-6.98,6.7-10.389,9.864a.675.675,0,0,1-.921-.988c3.4-3.157,6.784-6.406,10.371-9.849,12.579-12.064,25.557-24.545,39.515-33.185a13,13,0,0,1,5.612-2.28c2.065-.175,4.63.807,5.428,3.025s-.5,4.522-1.534,6.063a52.921,52.921,0,0,1-12.6,13.037c2.51.819,7.247,3.16,7.189,9.152a4.78,4.78,0,0,1,2.148,1.841c1.347,2.047,1.555,5.155.614,9.244.4,1.295,2.261,8.382-4.3,12.481-4.078,2.547-7.1,2.283-8.235,2.04-1.8,2.221-12.012,14.678-21.017,22.674A.662.662,0,0,1,1481.7,713.3Z" transform="translate(-1456.749 -633.566)"/>
              <path id="Path_480" data-name="Path 480" d="M1578.2,757.632a5.523,5.523,0,0,1-3.329-1.043,4.62,4.62,0,0,1-1.758-3.507,3.7,3.7,0,0,1,1.246-2.979.676.676,0,1,1,.872,1.034,2.334,2.334,0,0,0-.767,1.905,3.249,3.249,0,0,0,1.227,2.455,5.1,5.1,0,0,0,5.216.092,13.286,13.286,0,0,0,4.3-4.053,27.115,27.115,0,0,0,4.6-8.118,14.391,14.391,0,0,0,.641-3.375.677.677,0,0,1,1.35.089,15.9,15.9,0,0,1-.7,3.682,28.26,28.26,0,0,1-4.814,8.539,15.022,15.022,0,0,1-4.765,4.43A7.285,7.285,0,0,1,1578.2,757.632Z" transform="translate(-1536.009 -706.935)"/>
              <path id="Path_481" data-name="Path 481" d="M1531.911,736.7a4.156,4.156,0,0,1-3.838-2.062.678.678,0,1,1,1.206-.614c.7,1.365,2.761,1.629,4.219,1.025a11.788,11.788,0,0,0,3.66-2.844l.6-.6c1.329-1.3,3.139-2.817,5.36-2.952a10,10,0,0,1,3.562.66,7.865,7.865,0,0,0,3.308.565,3.646,3.646,0,0,0,2.565-1.767,5.354,5.354,0,0,0,.613-4.366c-.985-3.117-4.179-4.823-6-5.563A19.566,19.566,0,0,0,1536.639,717a.676.676,0,1,1-.218-1.335,20.907,20.907,0,0,1,11.254,1.27c2.04.828,5.627,2.761,6.778,6.406a6.75,6.75,0,0,1-.764,5.5,4.982,4.982,0,0,1-3.522,2.387,8.956,8.956,0,0,1-3.9-.614A9.039,9.039,0,0,0,1543.2,730c-1.773.107-3.332,1.427-4.492,2.568-.2.193-.393.387-.589.583a12.9,12.9,0,0,1-4.105,3.142A5.592,5.592,0,0,1,1531.911,736.7Z" transform="translate(-1504.722 -690.284)"/>
              <path id="Path_482" data-name="Path 482" d="M1587.227,787.029a5.546,5.546,0,0,1-2.188-.43,4.308,4.308,0,0,1-2.66-3.645.675.675,0,0,1,1.35-.049,2.977,2.977,0,0,0,1.841,2.455,4.909,4.909,0,0,0,3.436.025,12.248,12.248,0,0,0,3.3-1.841,20.238,20.238,0,0,0,6.618-7.232.678.678,0,0,1,1.209.614,21.5,21.5,0,0,1-7.035,7.729,13.671,13.671,0,0,1-3.682,2.013A7.116,7.116,0,0,1,1587.227,787.029Z" transform="translate(-1542.433 -732.257)"/>
              <path id="Path_483" data-name="Path 483" d="M1598.165,811a.672.672,0,0,1-.476-.2,5.365,5.365,0,0,1-1.129-1.657.675.675,0,1,1,1.227-.54,4.086,4.086,0,0,0,.844,1.243.678.678,0,0,1-.479,1.154Z" transform="translate(-1552.198 -754.568)"/>
            </g>
            <path id="Path_484" data-name="Path 484" d="M992.381,877.66H930.775a1.991,1.991,0,0,0-1.908,1.421l-23.4,78.852a1.988,1.988,0,0,0,1.905,2.556h61.606a1.985,1.985,0,0,0,1.905-1.424l23.407-78.852a1.988,1.988,0,0,0-1.905-2.553Z" transform="translate(-819.29 -802.768)"/>
            <g id="Group_330" data-name="Group 330" transform="translate(33.117 105.075)">
              <g id="Group_329" data-name="Group 329" transform="translate(38.588 2.726)">
                <path id="Path_485" data-name="Path 485" d="M928.245,1013.426c2.648-2.553,4.262-5.323,2.574-8.042a5.772,5.772,0,0,0-8.352-1.227,16.815,16.815,0,0,0,4.7-4.863c1.083-2,1.227-4.682-.261-6.391a5.722,5.722,0,0,0-5.523-1.445,11.182,11.182,0,0,0-2.743,1.049,4.538,4.538,0,0,0,.362-4.455c-1.227-2.369-4.21-3.375-6.86-3.083s-5.056,1.638-7.364,2.952c-15.543,8.75-46.259,26.527-46.259,26.527-.81,4.421,15.375,40.024,21.5,45.973,3.964-1.191,33.658-24.981,44.912-34.633,1.887-1.617,3.826-3.332,4.786-5.624S930.309,1014.807,928.245,1013.426Z" transform="translate(-858.494 -984.92)" fill="#fff"/>
                <path id="Path_486" data-name="Path 486" d="M993.6,1022.672a.675.675,0,0,1-.353-1.249c5.673-3.492,11.352-7.146,16.9-10.861a.676.676,0,1,1,.752,1.123c-5.556,3.725-11.257,7.388-16.942,10.889A.684.684,0,0,1,993.6,1022.672Z" transform="translate(-951.682 -1002.615)"/>
                <path id="Path_487" data-name="Path 487" d="M1017.047,1058.236a.675.675,0,0,1-.4-1.227l14.672-10.493a.676.676,0,1,1,.785,1.1l-14.669,10.49A.672.672,0,0,1,1017.047,1058.236Z" transform="translate(-967.927 -1027.53)"/>
                <path id="Path_488" data-name="Path 488" d="M1039.492,1088.618a.675.675,0,0,1-.38-1.227c4.446-3.01,8.806-6.262,12.954-9.674a.678.678,0,0,1,.859,1.046c-4.182,3.436-8.591,6.713-13.055,9.747A.687.687,0,0,1,1039.492,1088.618Z" transform="translate(-983.496 -1049.156)"/>
              </g>
              <path id="Path_489" data-name="Path 489" d="M745.837,1251.4a78.326,78.326,0,0,1-12.547-1.011.676.676,0,1,1,.222-1.333,78.184,78.184,0,0,0,58.528-14.114.676.676,0,1,1,.8,1.089,79.611,79.611,0,0,1-47,15.369Z" transform="translate(-732.725 -1155.415)"/>
              <path id="Path_490" data-name="Path 490" d="M743.992,1102.847a.675.675,0,0,1-.341-1.261l32.964-19.05a.676.676,0,1,1,.675,1.172l-32.961,19.047A.681.681,0,0,1,743.992,1102.847Z" transform="translate(-740.063 -1049.797)"/>
              <path id="Path_491" data-name="Path 491" d="M778.412,1020.632a.707.707,0,0,1-.135-.016.678.678,0,0,1-.528-.8l8.873-43.286a.678.678,0,0,1,1.325.273l-8.873,43.286a.675.675,0,0,1-.663.54Z" transform="translate(-763.926 -976.035)"/>
            </g>
          </g>
        </g>
        <g id="Group_340" data-name="Group 340" transform="translate(0.552 265.133)">
          <g id="Group_339" data-name="Group 339" transform="translate(13.893)">
            <g id="Group_334" data-name="Group 334" transform="translate(50.928)">
              <g id="Group_333" data-name="Group 333">
                <path id="Path_492" data-name="Path 492" d="M238.006,970.461a101.092,101.092,0,0,1,2.053-15.574,73.57,73.57,0,0,1,4.826-16.074c6.621-14.681,15.853-18.974,15.734-36.959-.025-3.565-.138-20.753-11.53-28.632-1.476-1.022-6.609-4.571-11.72-3.068-4.952,1.451-7.333,6.891-12.3,22.484-5.216,16.35-7.812,24.527-8.649,29.589-1.675,10.153-1.123,18.065-.785,24.9a170.4,170.4,0,0,0,3.283,25.2c2.648,13.012,4.967,24.438,8.422,24.619C228.648,997.009,232.422,995.589,238.006,970.461Z" transform="translate(-214.596 -869.115)" fill="#fff"/>
                <path id="Path_493" data-name="Path 493" d="M226.02,996.1h-.239c-3.792-.2-5.808-9.2-9.045-25.141a174.653,174.653,0,0,1-3.3-25.321l-.064-1.3c-.338-6.637-.721-14.157.859-23.735.844-5.115,3.461-13.325,8.671-29.687,5.139-16.138,7.569-21.407,12.751-22.925,3.6-1.052,7.732,0,12.294,3.166,7.532,5.216,11.733,15.574,11.822,29.181.08,12.064-3.961,18.056-8.64,25a79.719,79.719,0,0,0-7.155,12.248,70.393,70.393,0,0,0-4.627,15.215l-.153.721a101.077,101.077,0,0,0-2.037,15.47.276.276,0,0,1-.015.111C231.41,994.866,227.535,996.1,226.02,996.1Zm12.414-127.157a8.54,8.54,0,0,0-2.4.337c-4.6,1.347-6.87,6.425-11.846,22.042-5.188,16.28-7.8,24.472-8.622,29.473-1.559,9.438-1.181,16.875-.844,23.447l.064,1.31a173.447,173.447,0,0,0,3.271,25.1c2.393,11.769,4.866,23.932,7.8,24.079.948.049,4.565-1.669,9.956-25.9a102.229,102.229,0,0,1,2.062-15.62l.153-.718A71.21,71.21,0,0,1,242.741,937a79.974,79.974,0,0,1,7.265-12.451c4.553-6.75,8.487-12.579,8.41-24.238-.089-13.156-4.081-23.128-11.239-28.08C243.984,870.047,241.054,868.946,238.433,868.946Zm-1.954,100Z" transform="translate(-213.068 -867.594)"/>
              </g>
              <path id="Path_494" data-name="Path 494" d="M252.052,1000.582a.675.675,0,0,1-.669-.58,220.575,220.575,0,0,1-1.378-23.665c.067-8.591,1.985-15.81,3.528-21.606q.276-1.034.531-2c1.034-3.989,1.868-6.477,2.924-9.64.739-2.215,1.577-4.722,2.654-8.259,2.338-7.67,4.4-15.6,6.136-23.582a.675.675,0,1,1,1.319.288c-1.743,8.023-3.817,15.991-6.161,23.689-1.083,3.553-1.924,6.069-2.666,8.284-1.049,3.142-1.878,5.621-2.9,9.551q-.255.97-.531,2.013c-1.534,5.719-3.418,12.84-3.482,21.265a218.236,218.236,0,0,0,1.362,23.462.675.675,0,0,1-.571.767Z" transform="translate(-238.671 -897.487)"/>
            </g>
            <g id="Group_336" data-name="Group 336" transform="translate(0 48.784)">
              <g id="Group_335" data-name="Group 335">
                <path id="Path_495" data-name="Path 495" d="M115.42,1091.748c-2.832-36.671-34.879-57.126-37.183-58.295-.025,0-4.136-2.087-4.136-2.087-5.664-2.323-16.1-4.535-21.33.289-3.605,3.32-3.525,8.861-3.467,10.932.555,19.556,36.631,29.761,48.83,61.112a59.879,59.879,0,0,1,3.946,18.925c1.273,2.534,3,5.145,4.863,5.029C111.806,1127.338,116.7,1108.512,115.42,1091.748Z" transform="translate(-48.611 -1028.112)" fill="#fff"/>
                <path id="Path_496" data-name="Path 496" d="M105.286,1126.82c-1.77,0-3.519-1.77-5.342-5.406a.678.678,0,0,1-.071-.27,59.059,59.059,0,0,0-3.9-18.716c-6.192-15.9-18.51-26.245-29.381-35.37-10.309-8.655-19.216-16.133-19.5-25.969-.055-1.942-.221-7.851,3.682-11.447,5.606-5.164,16.494-2.691,22.042-.417.049.021,4.13,2.083,4.182,2.111.347.175,34.6,20.486,37.554,58.844,1.154,14.954-2.473,30.476-6.443,35.054a3.9,3.9,0,0,1-2.657,1.574,1.556,1.556,0,0,1-.172.012Zm-4.068-5.885c2.046,4.041,3.5,4.565,4.151,4.532a2.771,2.771,0,0,0,1.724-1.114c3.792-4.366,7.216-19.863,6.121-34.057-2.906-37.656-36.477-57.574-36.818-57.743l-4.133-2.089c-4.845-1.982-15.451-4.529-20.557.181-3.455,3.182-3.3,8.628-3.252,10.432.264,9.229,8.953,16.525,19.023,24.972,11,9.229,23.456,19.692,29.761,35.9a60.442,60.442,0,0,1,3.979,18.989Z" transform="translate(-47.08 -1026.594)"/>
              </g>
              <path id="Path_497" data-name="Path 497" d="M143.915,1129.48a.675.675,0,0,1-.654-.506c-6.882-26.622-22.091-48.974-42.819-62.94-.92-.614-1.062-.718-1.175-.942a.678.678,0,0,1,1.12-.742c.107.089.451.307.813.561,21,14.15,36.407,36.781,43.368,63.726a.675.675,0,0,1-.485.822A.645.645,0,0,1,143.915,1129.48Z" transform="translate(-83.209 -1052.606)"/>
            </g>
            <g id="Group_338" data-name="Group 338" transform="translate(53.53 78.002)">
              <g id="Group_337" data-name="Group 337">
                <path id="Path_498" data-name="Path 498" d="M285.95,1125.74c-.81-.543-4.495-2.838-12.181-1.077-15.648,3.587-27.939,19.437-29.123,21-19.9,26.211-23.493,59.927-19.394,61.431.92.341,4.4-3.9,11.3-12.4,16.991-20.925,16.761-20.722,18.01-22.207,19.75-23.465,37.613-26.141,36.726-37.738A12.594,12.594,0,0,0,285.95,1125.74Z" transform="translate(-223.074 -1123.339)" fill="#fff"/>
                <path id="Path_499" data-name="Path 499" d="M223.851,1206.275a.987.987,0,0,1-.356-.068,2.774,2.774,0,0,1-1.464-2c-2.108-7.2,2.338-36.465,20.557-60.467,1.362-1.8,13.758-17.633,29.506-21.247,7.364-1.684,11.352.258,12.708,1.175a13.317,13.317,0,0,1,5.639,9.533c.506,6.618-4.685,10.432-12.546,16.215-6.811,5.007-15.289,11.239-24.34,22-.522.614-.785.945-2.175,2.666-1.921,2.378-5.983,7.413-15.829,19.532C227.3,1203.765,225.152,1206.275,223.851,1206.275Zm53.736-83.1a23.2,23.2,0,0,0-5.191.638c-15.286,3.5-27.4,18.992-28.733,20.744-17.666,23.281-22.324,52.465-20.333,59.274a2.085,2.085,0,0,0,.555,1.071c1.126-.454,5.329-5.63,10.619-12.144,9.84-12.116,13.9-17.151,15.826-19.526,1.4-1.736,1.663-2.062,2.191-2.691,9.155-10.877,18.068-17.43,24.573-22.214,7.762-5.707,12.447-9.152,12-15.034a11.906,11.906,0,0,0-5.044-8.511A11.609,11.609,0,0,0,277.587,1123.171Z" transform="translate(-221.55 -1121.825)"/>
              </g>
              <path id="Path_500" data-name="Path 500" d="M244.878,1213.5a.728.728,0,0,1-.212-.034.675.675,0,0,1-.433-.853c4.74-14.387,14.727-34.33,35.379-47.658a80.082,80.082,0,0,1,16.715-8.189.678.678,0,0,1,.451,1.276,78.675,78.675,0,0,0-16.436,8.048c-20.32,13.113-30.157,32.768-34.827,46.943A.681.681,0,0,1,244.878,1213.5Z" transform="translate(-237.25 -1146.03)"/>
            </g>
            <path id="Path_501" data-name="Path 501" d="M203.53,1334.66H140.9l4.268,47.885h54.1Z" transform="translate(-112.115 -1191.357)" fill="#ffdf91"/>
          </g>
          <path id="Path_502" data-name="Path 502" d="M198.024,1593.77H2.475a.678.678,0,0,1-.675-.675V1489.888a.678.678,0,0,1,.675-.678H148.8a.675.675,0,0,1,.675.678v53.107a.675.675,0,0,1-1.35,0v-52.432H3.162v101.863H198.024a.675.675,0,1,1,0,1.35Z" transform="translate(-1.8 -1298.488)"/>
        </g>
        <g id="Group_353" data-name="Group 353" transform="translate(0 62.314)">
          <g id="Group_345" data-name="Group 345">
            <g id="Group_343" data-name="Group 343" transform="translate(190.582)">
              <g id="Group_341" data-name="Group 341" transform="translate(82.595)">
                <path id="Path_503" data-name="Path 503" d="M1224.961,284.027a.675.675,0,0,1-.678-.675V232.473H918.5a.678.678,0,0,1,0-1.353h306.46a.678.678,0,0,1,.675.678v51.545a.675.675,0,0,1-.675.684Z" transform="translate(-909.428 -222.523)"/>
                <ellipse id="Ellipse_37" data-name="Ellipse 37" cx="9.269" cy="9.275" rx="9.269" ry="9.275" fill="#ffc107"/>
              </g>
              <g id="Group_342" data-name="Group 342" transform="translate(0 0.144)">
                <ellipse id="Ellipse_38" data-name="Ellipse 38" cx="9.177" cy="9.171" rx="9.177" ry="9.171" transform="translate(53.555)" fill="#ffdf91"/>
                <ellipse id="Ellipse_39" data-name="Ellipse 39" cx="9.177" cy="9.171" rx="9.177" ry="9.171" transform="translate(26.779)" fill="#ffdf91"/>
                <ellipse id="Ellipse_40" data-name="Ellipse 40" cx="9.177" cy="9.171" rx="9.177" ry="9.171" fill="#ffdf91"/>
              </g>
            </g>
            <g id="Group_344" data-name="Group 344" transform="translate(0 8.595)">
              <path id="Path_504" data-name="Path 504" d="M180.034,232.47H.771a.678.678,0,0,1,0-1.353H180.034a.678.678,0,1,1,0,1.353Z" transform="translate(-0.096 -231.115)"/>
              <path id="Path_505" data-name="Path 505" d="M71.335,276.5H.675a.675.675,0,1,1,0-1.35h70.66a.675.675,0,1,1,0,1.35Z" transform="translate(0 -261.639)"/>
              <path id="Path_506" data-name="Path 506" d="M349.323,276.5h-43.1a.675.675,0,0,1,0-1.35h43.1a.675.675,0,1,1,0,1.35Z" transform="translate(-211.802 -261.639)"/>
              <path id="Path_507" data-name="Path 507" d="M30.069,320.523H.771a.678.678,0,0,1,0-1.353h29.3a.678.678,0,0,1,0,1.353Z" transform="translate(-0.096 -292.153)"/>
              <path id="Path_508" data-name="Path 508" d="M252.7,320.523H166.791a.678.678,0,0,1,0-1.353H252.7a.678.678,0,0,1,0,1.353Z" transform="translate(-115.178 -292.153)"/>
              <path id="Path_509" data-name="Path 509" d="M71.335,364.55H.675a.675.675,0,1,1,0-1.35h70.66a.675.675,0,1,1,0,1.35Z" transform="translate(0 -322.674)"/>
              <path id="Path_510" data-name="Path 510" d="M359.631,364.55H321.1a.675.675,0,1,1,0-1.35h38.536a.675.675,0,0,1,0,1.35Z" transform="translate(-222.11 -322.674)"/>
            </g>
          </g>
          <g id="Group_346" data-name="Group 346" transform="translate(388.416 22.106)">
            <path id="Path_511" data-name="Path 511" d="M1312.351,276.5h-43.666a.675.675,0,0,1,0-1.35h43.666a.675.675,0,1,1,0,1.35Z" transform="translate(-1268.01 -275.15)"/>
            <path id="Path_512" data-name="Path 512" d="M1343.169,319.213H1313.1a.678.678,0,0,1,0-1.353h30.068a.678.678,0,0,1,0,1.353Z" transform="translate(-1298.828 -304.756)"/>
          </g>
          <g id="Group_347" data-name="Group 347" transform="translate(141.286 93.347)">
            <path id="Path_513" data-name="Path 513" d="M525.763,598.171H461.945a.672.672,0,0,1-.675-.675V533.678a.675.675,0,0,1,.675-.678h60.167a.678.678,0,0,1,0,1.353h-59.5v62.465h62.471v-46a.678.678,0,0,1,1.353,0V597.5A.675.675,0,0,1,525.763,598.171Z" transform="translate(-461.27 -525.128)"/>
            <path id="Path_514" data-name="Path 514" d="M509.44,569.433a.681.681,0,0,1-.549-.282l-25.006-35.008a.675.675,0,1,1,1.1-.785l24.456,34.237,43.031-59.958a.675.675,0,1,1,1.1.788L510,569.15A.675.675,0,0,1,509.44,569.433Z" transform="translate(-476.859 -507.343)"/>
          </g>
          <g id="Group_352" data-name="Group 352" transform="translate(758.872 48.394)">
            <g id="Group_348" data-name="Group 348" transform="translate(50.972 164.459)">
              <path id="Path_515" data-name="Path 515" d="M2645.8,899.05Z" transform="translate(-2645.125 -898.375)" fill="#fff"/>
              <path id="Path_516" data-name="Path 516" d="M2644.275,1032.263a.671.671,0,0,1-.675-.675V897.525a.675.675,0,1,1,1.35,0V1031.6a.672.672,0,0,1-.675.66Z" transform="translate(-2643.6 -896.85)"/>
            </g>
            <path id="Path_517" data-name="Path 517" d="M2529.115,424.479a.671.671,0,0,1-.675-.675V362.183H2478.1a.678.678,0,0,1,0-1.353h51.014a.675.675,0,0,1,.675.675v62.3a.671.671,0,0,1-.675.675Z" transform="translate(-2477.469 -360.83)"/>
            <g id="Group_351" data-name="Group 351" transform="translate(43.731 75.032)">
              <g id="Group_349" data-name="Group 349">
                <ellipse id="Ellipse_41" data-name="Ellipse 41" cx="7.21" cy="7.222" rx="7.21" ry="7.222" transform="translate(0.706 0.678)" fill="#fff"/>
                <path id="Path_518" data-name="Path 518" d="M2627.916,621.181a7.9,7.9,0,1,1,7.885-7.9A7.9,7.9,0,0,1,2627.916,621.181Zm0-14.448a6.547,6.547,0,1,0,6.535,6.547A6.547,6.547,0,0,0,2627.916,606.733Z" transform="translate(-2620 -605.38)"/>
              </g>
              <g id="Group_350" data-name="Group 350" transform="translate(0 29.844)">
                <ellipse id="Ellipse_42" data-name="Ellipse 42" cx="7.21" cy="7.222" rx="7.21" ry="7.222" transform="translate(0.706 0.681)" fill="#fff"/>
                <path id="Path_519" data-name="Path 519" d="M2627.916,718.451a7.9,7.9,0,1,1,7.885-7.9A7.9,7.9,0,0,1,2627.916,718.451Zm0-14.448a6.551,6.551,0,1,0,6.535,6.551A6.55,6.55,0,0,0,2627.916,704Z" transform="translate(-2620 -702.65)"/>
              </g>
              <ellipse id="Ellipse_43" data-name="Ellipse 43" cx="7.21" cy="7.222" rx="7.21" ry="7.222" transform="translate(0.706 60.369)" fill="#ffc107"/>
            </g>
          </g>
        </g>
      </g>
    </g>
  </g>
</svg>
