<svg version="1.1" id="Layer_1" xmlns="http://www.w3.org/2000/svg" x="0" y="0" viewBox="0 0 122.88 122.88" xml:space="preserve"><style>.st1{fill:#fff}</style><path d="M122.88 61.44C122.88 27.51 95.37 0 61.44 0 27.51 0 0 27.51 0 61.44c0 33.93 27.51 61.44 61.44 61.44 33.93 0 61.44-27.51 61.44-61.44z" fill="red"/><path class="st1" d="M61.44 32.12c16.13 0 29.32 13.13 29.32 29.32 0 16.2-13.13 29.32-29.32 29.32S32.12 77.64 32.12 61.44c0-16.2 13.19-29.32 29.32-29.32zm0-2.8c-17.73 0-32.12 14.38-32.12 32.12 0 17.73 14.38 32.12 32.12 32.12s32.12-14.38 32.12-32.12c0-17.73-14.39-32.12-32.12-32.12z"/><path class="st1" d="M50.27 77.5L77.5 60.74 50.27 45.38V77.5z"/></svg>