<svg height="82.545" viewBox="0 0 83.064 82.545" width="83.064" xmlns="http://www.w3.org/2000/svg"><g fill="#0a3c3f" transform="translate(-709.261 -303.824)"><path d="m792.317 343.719a50.181 50.181 0 0 1 -11.129 26.945 41.959 41.959 0 0 1 -48.928 12.491 50.188 50.188 0 0 1 -22.683-18.313 1.674 1.674 0 0 1 .08-2.067 1.017 1.017 0 0 1 1.365-.042l.014.012a61.324 61.324 0 0 0 22.456 11.025 46.112 46.112 0 0 0 42.116-10.751 61.334 61.334 0 0 0 14.423-20.441l.006-.014a1.028 1.028 0 0 1 1.633-.412 1.8 1.8 0 0 1 .647 1.567z"/><g><path d="m733.327 329.518c1.849 10.291.6 19.127-2.779 19.734s-7.625-7.242-9.473-17.533-.6-19.127 2.78-19.735 7.624 7.243 9.472 17.534z"/><ellipse cx="6.224" cy="18.932" rx="6.224" ry="18.932" transform="matrix(.98425428 -.17675836 .17675836 .98425428 757.039 306.025)"/></g></g></svg>