<svg height="252.141" viewBox="0 0 229.352 252.141" width="229.352" xmlns="http://www.w3.org/2000/svg"><g fill="#fec160" transform="matrix(.64278761 -.76604444 .76604444 .64278761 -1119.192 -263.183)"><path d="m392.192 1172.651c13.19 26.455 19.71 38.595 31.7 58.755 13.34 22.483 13.64 23.008 16.188 24.432a9.047 9.047 0 0 0 12.441-3.522c2.847-4.8 2.548-5.7-13.34-32.3-11.841-20.085-19.111-33.575-31.177-58.081-7.869-15.888-9.667-18.736-13.04-20.61-2.023-1.124-6.969-1.274-6.969-.224 0 .449-.45.749-.975.749-1.124 0-3.822 2.773-4.5 4.5-1.27 3.518-.22 6.441 9.672 26.301z"/><path d="m488.569 1223.013c-.075 3.447.225 6.445.75 7.419 3.148 5.471 8.468 7.27 13.265 4.572 4.5-2.623 4.422-2.324 5.321-44.067.45-20.984 1.124-47.439 1.574-58.756.9-22.033.9-22.183-2.923-26.305-1.424-1.574-2.323-1.873-5.995-1.873-4.572 0-5.4.449-7.794 4.121-1.275 2.1-2.324 26.455-3.523 82.438-.3 14.614-.675 29.228-.675 32.451z"/><path d="m535.634 1241c0 1.5.3 2.773.749 2.773a.924.924 0 0 1 .75.974 9.174 9.174 0 0 0 1.573 2.773c1.424 1.649 2.174 1.874 6.371 1.874 4.421 0 4.871-.15 6.67-2.4 1.124-1.275 7.569-12.591 14.389-25.032 6.82-12.515 16.337-29.3 21.134-37.4 4.871-8.019 11.091-18.811 13.94-23.982s5.77-10.492 6.52-11.841c2.248-4.122 1.5-8.094-2.249-12.066-1.648-1.649-7.494-2.024-10.192-.525-3.073 1.724-3.672 2.548-12.516 18.511-4.2 7.57-7.869 14.165-8.168 14.539-.3.45-2.848 4.5-5.621 8.994-4.721 7.719-8.544 14.539-26.38 47.214-5.172 9.594-6.97 13.42-6.97 15.594z"/></g></svg>