<svg id="Layer_1" height="512" viewBox="0 0 24 24" width="512" xmlns="http://www.w3.org/2000/svg" data-name="Layer 1"><path d="m6 21h4a2 2 0 0 0 2-2v-4a2 2 0 0 0 -2-2h-4a2 2 0 0 0 -2 2v4a2 2 0 0 0 2 2zm-1-6a1 1 0 0 1 1-1h4a1 1 0 0 1 1 1v4a1 1 0 0 1 -1 1h-4a1 1 0 0 1 -1-1zm12-2a4 4 0 1 0 4 4 4 4 0 0 0 -4-4zm0 7a3 3 0 1 1 3-3 3 3 0 0 1 -3 3zm-7.39-8h5.78a1.892 1.892 0 0 0 1.563-2.956l-2.867-4.206a1.92 1.92 0 0 0 -3.172 0l-2.867 4.2a1.892 1.892 0 0 0 1.563 2.962zm-.737-2.394 2.867-4.206a.92.92 0 0 1 1.52 0l2.867 4.206a.892.892 0 0 1 -.737 1.394h-5.78a.893.893 0 0 1 -.737-1.394z"/></svg>