<svg xmlns="http://www.w3.org/2000/svg" width="1132.52" height="1011.485" viewBox="0 0 1132.52 1011.485">
  <g id="Group_67" data-name="Group 67" transform="translate(-280.261 -370.954)">
    <g id="Group_43" data-name="Group 43" transform="translate(284.322 717.464)">
      <g id="Group_42" data-name="Group 42" transform="translate(0 130.656)">
        <path id="Path_65" data-name="Path 65" d="M1381.214,1246.3c-18.522-42.13-54.093-77.286-96.822-94.589-44.507-18.024-95.61-11.463-142.488-17.5-40.715-5.243-70.091-23.419-94.4-55.735-23.293-30.964-44.179-65.255-82.264-79.577-30.094-11.317-64.306-8.18-94.216,3.613-55.113,21.731-96.739,67.935-131.8,113.966-32.007,42.026-58.115,88.046-117.319,89.547-59.242,1.5-115.642-32.292-175.291-23.337-78.836,11.835-144.49,77.463-158.248,155.594-12.894,73.225,19.461,144.244,75.046,185.972h955.416C1388.869,1449.956,1425.623,1347.313,1381.214,1246.3Z" transform="translate(-285.545 -991.86)" fill="#e7f0ec"/>
        <g id="Group_41" data-name="Group 41" transform="translate(30.566 14.773)">
          <path id="Path_66" data-name="Path 66" d="M578.867,1581.708H581.5a201.6,201.6,0,0,0,41.64-71.427c14.711-43.737,14.091-89.636-1.746-129.246-8-20.017-19.561-38.672-30.738-56.714-11.335-18.3-23.056-37.216-31.011-57.491a128.247,128.247,0,0,1-7.181-26.568c-.659-.086-1.318-.157-1.977-.237a130,130,0,0,0,7.37,27.506c8.018,20.437,19.786,39.432,31.167,57.8,11.134,17.97,22.646,36.555,30.587,56.414,15.668,39.187,16.275,84.616,1.709,127.921A199.39,199.39,0,0,1,578.867,1581.708Z" transform="translate(-377.443 -1064.084)" fill="#fff"/>
          <path id="Path_67" data-name="Path 67" d="M1421.1,1445.385c19.685,4.194,38.656,7.957,57,10.323.315-.606.62-1.215.931-1.823-18.5-2.351-37.646-6.142-57.531-10.379-30.279-6.451-63.051-13.433-95.554-13.433-20.125,0-40.146,2.677-59.407,9.814a121.2,121.2,0,0,0-21.023,10.219c-17.389-7.411-34.871-15.5-52.19-24.385,12.567-9.467,25.265-18.738,38.1-27.7,95.278-66.53,183.208-104.248,268.158-114.953-.171-.622-.349-1.244-.525-1.867-85.177,10.793-173.3,48.606-268.732,115.244-13.108,9.154-26.074,18.628-38.9,28.3a643.833,643.833,0,0,1-57.345-33.324c-33.779-22.134-73.96-53.727-109.052-95.706,135.985-15.255,274.433-34.477,387.492-110.04,4.294-2.87,9.05-6.253,13.977-10.091-.546-.388-1.1-.768-1.646-1.15-4.722,3.657-9.275,6.886-13.4,9.642-113.031,75.544-251.734,94.618-387.9,109.872-24.8-29.993-46.952-65.223-62.348-106.008-23.983-63.53-22.718-125.876,3.474-171.049,1.138-1.962,2.339-3.893,3.577-5.805-1.094.5-2.178,1.023-3.262,1.544q-1.011,1.637-1.978,3.3c-26.482,45.677-27.8,108.62-3.61,172.693,15.314,40.564,37.271,75.655,61.866,105.583q-11.823,1.322-23.625,2.619c-28.354,3.129-57.674,6.366-86.144,10.031-10.392,1.337-20.96,2.9-31.475,4.854-22.542-47.576-47.3-93.99-79.312-133.793-.457.456-.924.9-1.386,1.349,31.734,39.5,56.342,85.569,78.746,132.812-45.864,8.747-90.4,25.191-114.179,63.464-22.208,35.742-22.188,85.148.06,146.848q1.154,3.2,2.365,6.326h2.058c-.881-2.284-1.757-4.595-2.617-6.979-22.038-61.118-22.117-109.963-.234-145.182,23.5-37.817,67.788-54.041,113.4-62.683,7.958,16.834,15.645,33.806,23.286,50.673l.831,1.834c26.533,58.574,53.976,115.1,89.91,162.336h2.4C959.1,1481.386,931.5,1424.52,904.8,1365.581l-.832-1.835c-7.575-16.724-15.2-33.552-23.084-50.245,10.313-1.907,20.677-3.434,30.871-4.745,28.452-3.662,57.763-6.9,86.108-10.027q12.417-1.369,24.879-2.757c35.426,42.635,76.118,74.667,110.284,97.055a644.888,644.888,0,0,0,56.7,33c-32.682,24.72-64.473,50.728-95.511,76.122q-16.121,13.19-32.577,26.558h3.046q15.5-12.578,30.746-25.072c31.258-25.571,63.274-51.765,96.188-76.631,17.222,8.86,34.607,16.938,51.9,24.338-23.664,15.05-42.948,38.354-54.61,66.653-1.459,3.543-2.735,7.12-3.915,10.711h2.023c1.114-3.344,2.309-6.677,3.669-9.98,11.693-28.375,31.14-51.658,54.985-66.467,48.353,20.541,95.873,35.791,136.705,47.872l1.537.453c17.207,5.088,34.807,10.3,50.374,18.678.436-.5.873-.991,1.3-1.489-15.82-8.583-33.68-13.869-51.135-19.03l-1.537-.454c-40.418-11.959-87.392-27.021-135.227-47.258a119.05,119.05,0,0,1,19.507-9.346C1317.057,1423.216,1372.334,1435,1421.1,1445.385Z" transform="translate(-422.999 -1011.084)" fill="#fff"/>
          <path id="Path_68" data-name="Path 68" d="M377.437,1393.779c8.487,34.735,4.7,72.246-10.388,102.918-9.882,20.091-24.153,38.278-41.731,53.9.35.545.707,1.084,1.062,1.624,17.863-15.825,32.362-34.278,42.393-54.674,15.284-31.07,19.122-69.057,10.529-104.221-6.713-27.475-20.208-50.748-38.852-67.586q-.624.734-1.239,1.473C357.546,1343.788,370.823,1366.709,377.437,1393.779Z" transform="translate(-325.318 -1083.926)" fill="#fff"/>
        </g>
      </g>
      <path id="Path_69" data-name="Path 69" d="M922.551,837.116c16.738,17.1,24.238,45.916,15.01,72.48-8.935,25.722-28.523,47.028-52.057,60.724-18.934,11.02-43.634,17.1-62.257,5.559-13.916-8.623-21.132-25.543-21.533-41.909s5.1-32.317,11.906-47.208c9.589-20.991,22.495-41.346,41.72-54.111C881.841,815.056,906.463,820.676,922.551,837.116Z" transform="translate(-405.033 -821.845)" fill="#f4f4f4"/>
    </g>
    <g id="Group_44" data-name="Group 44" transform="translate(351.229 370.954)">
      <path id="Path_70" data-name="Path 70" d="M628.519,432.867H489.928V370.954H628.519ZM492.81,429.986H625.637v-56.15H492.81Z" transform="translate(-399.767 -370.954)" fill="#e8e8e8"/>
      <path id="Path_71" data-name="Path 71" d="M511.2,509.91H372.607V448H511.2Zm-135.709-2.882H508.316v-56.15H375.489Z" transform="translate(-372.607 -388.789)" fill="#e8e8e8"/>
    </g>
    <g id="Group_47" data-name="Group 47" transform="translate(765.823 385.897)">
      <g id="Group_45" data-name="Group 45" transform="translate(0)">
        <path id="Path_72" data-name="Path 72" d="M1525.8,563.532q-13.46-44.76-47.353-82.283-33.961-37.569-92.635-62.076-58.674-24.529-149.1-24.53-72.133,0-147.029,19.455-74.964,19.525-130.094,55.592l47.859,131.4L981.8,621.866,1019,632.8q55.084-28.83,100.366-41.87,45.213-12.97,96.132-12.969,50.873,0,77.035,24.53,26.161,24.6,26.138,59.21,0,41.87-26.829,74.342-26.92,32.495-59.41,65.694-22.572,23.05-43.809,47.6a341.721,341.721,0,0,0-37.459,52.725,286.665,286.665,0,0,0-26.139,60.619q-9.939,32.5-9.894,72.885c0,8.693.184,19.032.69,31.061.085,2.219.2,4.383.334,6.519H1080.99l38.378,25.952h186.6a123.962,123.962,0,0,1-1.427-20.206v-17.34a125.345,125.345,0,0,1,9.895-48.355,250.081,250.081,0,0,1,24.758-45.488,335.989,335.989,0,0,1,33.224-41.118q18.362-19.525,35.343-36.842,22.572-23.049,46.616-49.06a385.61,385.61,0,0,0,42.429-54.84,308.083,308.083,0,0,0,30.373-62.828q12.011-33.9,12.056-74.342Q1539.239,608.292,1525.8,563.532Z" transform="translate(-923.088 -391.381)" fill="#f06495"/>
        <path id="Path_73" data-name="Path 73" d="M1165,567.81q-50.345,0-95,12.552-44.751,12.62-99.189,40.521L912.092,463.028q54.505-34.928,128.568-53.8,74.016-18.828,145.3-18.828,89.365,0,147.35,23.74t91.548,60.077q33.494,36.36,46.8,79.633,13.235,43.318,13.28,82.407,0,39.157-11.916,71.947a295.632,295.632,0,0,1-30.015,60.8,374.366,374.366,0,0,1-41.932,53.073q-23.74,25.173-46.069,47.479-16.782,16.782-34.927,35.655a326.531,326.531,0,0,0-32.835,39.793,240.475,240.475,0,0,0-24.468,44.023,119.134,119.134,0,0,0-9.779,46.8v16.782a117.542,117.542,0,0,0,1.41,19.556H1069.993a195.48,195.48,0,0,1-3.5-31.425c-.5-11.643-.682-21.648-.682-30.061q0-39.089,9.778-70.537a274.471,274.471,0,0,1,25.832-58.667,330.81,330.81,0,0,1,37.019-51.027q20.942-23.74,43.295-46.07,32.131-32.131,58.713-63.579,26.468-31.448,26.514-71.947,0-33.562-25.832-57.3Q1215.273,567.81,1165,567.81Z" transform="translate(-912.092 -390.399)" fill="#fd91b7"/>
      </g>
      <g id="Group_46" data-name="Group 46" transform="translate(150.027 783.446)">
        <path id="Path_74" data-name="Path 74" d="M1362.731,1515.615q0,50.465-32.673,77.917-32.674,27.526-73.888,27.489-41.289,0-73.926-27.489-32.617-27.471-32.636-77.917,0-50.409,32.637-77.917c33.53-28.3,83.134-34.6,122.39-14.741C1339.47,1440.58,1362.731,1476.366,1362.731,1515.615Z" transform="translate(-1113.104 -1410.21)" fill="#f06495"/>
        <path id="Path_75" data-name="Path 75" d="M1315.231,1515.253q0,50.465-32.674,77.917-32.674,27.526-73.888,27.489-41.289,0-73.926-27.489-32.617-27.471-32.636-77.917,0-50.409,32.636-77.917,32.674-27.47,73.926-27.488,41.234,0,73.888,27.488Q1315.231,1464.863,1315.231,1515.253Z" transform="translate(-1102.108 -1409.848)" fill="#fd91b7"/>
      </g>
    </g>
    <g id="Group_66" data-name="Group 66" transform="translate(342.589 581.013)">
      <g id="Group_50" data-name="Group 50" transform="translate(48.708)">
        <circle id="Ellipse_9" data-name="Ellipse 9" cx="20.096" cy="20.096" r="20.096" transform="matrix(0.184, -0.983, 0.983, 0.184, 138.036, 229.135)" fill="#fde8c5"/>
        <ellipse id="Ellipse_10" data-name="Ellipse 10" cx="11.303" cy="11.383" rx="11.303" ry="11.383" transform="translate(166.383 261.451) rotate(-79.386)" fill="#fde8c5"/>
        <g id="Group_49" data-name="Group 49">
          <circle id="Ellipse_11" data-name="Ellipse 11" cx="79.126" cy="79.126" r="79.126" transform="translate(0 111.9) rotate(-45)" fill="#fde8c5"/>
          <g id="Group_48" data-name="Group 48" transform="translate(71.549 101.931)">
            <circle id="Ellipse_12" data-name="Ellipse 12" cx="9.969" cy="9.969" r="9.969" fill="#fff"/>
            <circle id="Ellipse_13" data-name="Ellipse 13" cx="9.969" cy="9.969" r="9.969" transform="translate(30.382)" fill="#fff"/>
            <circle id="Ellipse_14" data-name="Ellipse 14" cx="9.969" cy="9.969" r="9.969" transform="translate(60.765)" fill="#fff"/>
          </g>
        </g>
      </g>
      <g id="Group_65" data-name="Group 65" transform="translate(0 284.837)">
        <g id="Group_53" data-name="Group 53" transform="translate(46.342 314.753)">
          <g id="Group_51" data-name="Group 51" transform="translate(57.095 129.598)">
            <path id="Path_76" data-name="Path 76" d="M496.449,1623.48l7.393,28.5a16.331,16.331,0,0,0,17.065,11.915c24.241-1.648,74.607-7.586,103.514-28.892l-8.218-41.077c-39.745-2.245-76.914-.035-109.1,10.8C499.045,1607.441,494.384,1615.519,496.449,1623.48Z" transform="translate(-495.961 -1593.136)" fill="#102048"/>
            <path id="Path_77" data-name="Path 77" d="M553.595,1650.857a.961.961,0,0,1-.924-.7l-9.927-35.543a.961.961,0,0,1,1.851-.516l9.926,35.543a.961.961,0,0,1-.926,1.219Z" transform="translate(-506.783 -1597.826)" fill="#fff"/>
            <path id="Path_78" data-name="Path 78" d="M581.511,1644.607a.962.962,0,0,1-.925-.7l-9.926-35.543a.961.961,0,0,1,1.851-.516l9.927,35.543a.962.962,0,0,1-.667,1.183A.974.974,0,0,1,581.511,1644.607Z" transform="translate(-513.245 -1596.379)" fill="#fff"/>
          </g>
          <path id="Path_79" data-name="Path 79" d="M589.386,1430.373l-92.376,27.416,68.6,94,98.489,7.833,135.847-57.443L748.328,1424.5Z" transform="translate(-439.109 -1424.498)" fill="#fbc343"/>
          <path id="Path_80" data-name="Path 80" d="M732.122,1445.453c202.865-60.054,235.469,119.238-81.055,151.876-11.18-12.58-24.245-34.41-29.434-52.656l167.152-77.244Z" transform="translate(-467.959 -1426.523)" fill="#fbc343"/>
          <path id="Path_81" data-name="Path 81" d="M761.2,1613.612a87.759,87.759,0,0,1-18.579-9.041l-32.6,10.226,7.472,35.467,33.869,6.882C761.676,1638.274,762.278,1622.78,761.2,1613.612Z" transform="translate(-488.42 -1466.185)" fill="#f9b384"/>
          <path id="Path_82" data-name="Path 82" d="M622.139,1554.013l-1.448-2.491c34.871-20.266,124.192-68.952,200.292-83.312l.534,2.833C745.856,1485.318,656.881,1533.822,622.139,1554.013Z" transform="translate(-467.741 -1434.618)" fill="#e49b31"/>
          <path id="Path_83" data-name="Path 83" d="M571.944,1430.734c-188.827-35.9-237.732,145.566,78.792,178.2a114.976,114.976,0,0,0,25.131-45.693c-48.621-32.533-102.984-63.454-162.564-92.91Z" transform="translate(-421.667 -1424.859)" fill="#fbc343"/>
          <path id="Path_84" data-name="Path 84" d="M696.528,1572.993c-8.982-5.717-18.342-11.76-28.251-18.159-49.743-32.116-106.122-68.518-154.023-89.275l1.147-2.644c48.118,20.852,104.6,57.322,154.439,89.5,9.905,6.4,19.261,12.437,28.235,18.148Z" transform="translate(-443.101 -1433.392)" fill="#e49b31"/>
          <path id="Path_85" data-name="Path 85" d="M436.178,1541.055l-2.523-1.393c7.088-12.832,18.441-21.487,33.743-25.724l.769,2.777C453.435,1520.795,442.972,1528.757,436.178,1541.055Z" transform="translate(-424.442 -1445.204)" fill="#e49b31"/>
          <path id="Path_86" data-name="Path 86" d="M940.134,1526.839c-6.793-12.3-17.257-20.259-31.99-24.341l.769-2.776c15.3,4.237,26.655,12.893,33.743,25.724Z" transform="translate(-534.286 -1441.913)" fill="#e49b31"/>
          <path id="Path_87" data-name="Path 87" d="M696.1,1645.635l-2.107-1.966c15.1-16.178,24.382-33.256,28.362-52.211l2.82.592C721.082,1611.534,711.571,1629.063,696.1,1645.635Z" transform="translate(-484.71 -1463.15)" fill="#e49b31"/>
          <g id="Group_52" data-name="Group 52" transform="translate(262.939 132.222)">
            <path id="Path_88" data-name="Path 88" d="M867.828,1601.191c-24.193-14.947-71.094,10.88-82.867,12.185a28.339,28.339,0,0,1-11.307-1.621c1.078,9.168.476,24.663-9.841,43.535l5.753,1.169s39.771,14.578,81.961,6.093C890.468,1654.718,886.846,1612.941,867.828,1601.191Z" transform="translate(-763.812 -1596.551)" fill="#102048"/>
            <path id="Path_89" data-name="Path 89" d="M854.658,1653.617a.974.974,0,0,1-.29-.044.96.96,0,0,1-.626-1.205c2.874-9.1,4.128-27.005-4.2-39.03a.961.961,0,0,1,1.58-1.094c8.718,12.593,7.437,31.241,4.449,40.7A.962.962,0,0,1,854.658,1653.617Z" transform="translate(-783.62 -1600.088)" fill="#fff"/>
            <path id="Path_90" data-name="Path 90" d="M829.971,1658.3a.971.971,0,0,1-.29-.045.96.96,0,0,1-.626-1.2c2.873-9.1,4.128-27.006-4.2-39.031a.961.961,0,0,1,1.579-1.094c8.718,12.592,7.438,31.24,4.449,40.7A.96.96,0,0,1,829.971,1658.3Z" transform="translate(-777.905 -1601.173)" fill="#fff"/>
          </g>
        </g>
        <g id="Group_61" data-name="Group 61">
          <g id="Group_55" data-name="Group 55" transform="translate(107.057 1.695)">
            <path id="Path_91" data-name="Path 91" d="M556.827,1102.089s47.556-40.439,45.795-48.124c-1.258-5.492-14.729,2.562-14.729,2.562s18.892-22.415,17.931-25.137c-1.717-4.864-14.783,4.2-14.783,4.2s8.832-12.712,4.609-14.783-13.427,5.762-13.427,5.762,5.378-7.058,2.851-8.909-13.427,5.762-13.427,5.762,3.912-8.9-4.4-5.526-66.577,56.845-66.577,56.845Z" transform="translate(-500.671 -1017.136)" fill="#f9b384"/>
            <g id="Group_54" data-name="Group 54" transform="translate(53.519 5.328)">
              <path id="Path_92" data-name="Path 92" d="M592.406,1061a.959.959,0,0,1-.648-.252c-8.162-7.458-11.762-9.268-20.768-12.039a.96.96,0,1,1,.565-1.835c9.331,2.87,13.058,4.744,21.5,12.457a.961.961,0,0,1-.649,1.67Z" transform="translate(-570.312 -1029.339)" fill="#e28b6d"/>
              <path id="Path_93" data-name="Path 93" d="M580.128,1089.3a.961.961,0,0,1-.952-1.094c.935-6.687,3.039-10.866,6.435-12.775,2.9-1.633,6.68-1.466,11.227.5a.961.961,0,0,1-.762,1.764c-3.966-1.713-7.17-1.911-9.524-.587-2.8,1.573-4.64,5.4-5.475,11.365A.961.961,0,0,1,580.128,1089.3Z" transform="translate(-572.362 -1035.702)" fill="#e28b6d"/>
              <path id="Path_94" data-name="Path 94" d="M577.211,1037.238a.96.96,0,0,1-.659-1.659l11.932-11.247a.96.96,0,1,1,1.318,1.4l-11.933,11.247A.951.951,0,0,1,577.211,1037.238Z" transform="translate(-571.687 -1024.07)" fill="#e28b6d"/>
              <path id="Path_95" data-name="Path 95" d="M591.586,1042.029a.961.961,0,0,1-.693-1.625l11.462-11.943a.96.96,0,0,1,1.386,1.33l-11.462,11.942A.959.959,0,0,1,591.586,1042.029Z" transform="translate(-575.015 -1025.018)" fill="#e28b6d"/>
              <path id="Path_96" data-name="Path 96" d="M606.273,1051.47a.96.96,0,0,1-.7-1.615l8.993-9.647a.961.961,0,0,1,1.406,1.31l-8.993,9.647A.961.961,0,0,1,606.273,1051.47Z" transform="translate(-578.415 -1027.735)" fill="#e28b6d"/>
            </g>
          </g>
          <g id="Group_56" data-name="Group 56" transform="translate(0 48.657)">
            <path id="Path_97" data-name="Path 97" d="M749.336,1410.575,575.463,1417.3,556.25,1258.8s58.208-55.211,80.6-75.542l37.806-1.939C791.957,1234.632,772.749,1301.223,749.336,1410.575Z" transform="translate(-406.48 -1102.106)" fill="#3a6bea"/>
            <path id="Path_98" data-name="Path 98" d="M710.329,1181.315s134.2,11.476,176.5,103.418c41.4,89.964-128.724,122-128.724,122Z" transform="translate(-442.15 -1102.106)" fill="#3a6bea"/>
            <path id="Path_99" data-name="Path 99" d="M476.149,1177.156l55.454-67.484-51.857-31.428c-21.632,15.041-63.463,49.109-98.913,87.687-7.825,8.515-13.937,18.462-17.015,29.414a63.292,63.292,0,0,0-1.628,27.615h0c3.848,23.558,22.379,41.739,47.117,44.635,21.127,2.474,101.826-3.843,167.149-23.055l19.212-74.152C585.8,1164.787,512.422,1163.814,476.149,1177.156Z" transform="translate(-361.364 -1078.245)" fill="#3a6bea"/>
          </g>
          <g id="Group_57" data-name="Group 57" transform="translate(28.341 70.977)" opacity="0.8">
            <path id="Path_100" data-name="Path 100" d="M836.263,1220.818l.868-.2c-.606-.359-1.215-.708-1.823-1.06-9.835,2.264-19.982,4.577-29.984,5.784-6.011.724-26.1,2.05-31.965-11.331-2.92-6.657-.711-14.061,2.592-19.258-.483-.14-.96-.275-1.439-.412-3.382,5.5-5.552,13.228-2.472,20.248,6.267,14.293,27.195,12.939,33.457,12.182C815.788,1225.533,826.2,1223.137,836.263,1220.818Z" transform="translate(-484.434 -1127.442)" fill="#fff"/>
            <path id="Path_101" data-name="Path 101" d="M924.5,1362.374c-6.412-2.477-13.035-5.037-20-4.381-12.213,1.154-22.665,13.231-23.3,26.922-.433,9.334,3.133,19.118,9.932,27.723q.615-.384,1.224-.772c-6.647-8.361-10.135-17.853-9.717-26.883.6-13,10.469-24.466,21.995-25.557,6.62-.613,12.8,1.764,19.342,4.291,2.335.9,4.709,1.811,7.122,2.585.125-.464.246-.93.357-1.4C929.1,1364.146,926.781,1363.257,924.5,1362.374Z" transform="translate(-510.04 -1165.303)" fill="#fff"/>
            <path id="Path_102" data-name="Path 102" d="M476.637,1302c-8.378-6.93-21.4-8.781-35.71-5.081-12.756,3.3-23.7,9.835-31.22,18.485.494.159.977.34,1.478.486,7.316-8.205,17.852-14.407,30.1-17.575,13.859-3.587,26.413-1.835,34.432,4.8a31.277,31.277,0,0,1,8.467,11.661l1.489-.171A32.937,32.937,0,0,0,476.637,1302Z" transform="translate(-400.897 -1150.756)" fill="#fff"/>
            <path id="Path_103" data-name="Path 103" d="M398.243,1163.233c15.7-3.9,31.019-9.38,45.148-17.519,5.339-3.075,11.368-7,15.607-12.752,4.51-6.126,6.008-13.419,4.009-19.507a15.25,15.25,0,0,0-3.909-6.166q-.552.451-1.109.909a13.893,13.893,0,0,1,3.649,5.707c1.854,5.645.434,12.45-3.8,18.2-4.081,5.542-9.957,9.359-15.166,12.358-13.327,7.677-27.743,12.988-42.55,16.823Q399.18,1162.256,398.243,1163.233Z" transform="translate(-398.243 -1107.289)" fill="#fff"/>
          </g>
          <g id="Group_59" data-name="Group 59" transform="translate(172.479)">
            <path id="Path_104" data-name="Path 104" d="M711.694,1134.726l-.025,2.461-.39,38.217-.048,4.141a23.8,23.8,0,0,1-47.6-.025l-.463-47.23Z" transform="translate(-603.712 -1042.1)" fill="#f9b384"/>
            <path id="Path_105" data-name="Path 105" d="M717.128,1138.662l-.39,38.217c-21.24-8.647-29.985-31.641-29.985-31.641Z" transform="translate(-609.172 -1043.574)" fill="#102048"/>
            <path id="Path_106" data-name="Path 106" d="M718.594,1050.871c7.612,9.134,29.839,60.894,7.308,78.554-25.354,19.873-63.94-12.788-63.94-12.788l-5.176-60.286,33.492-8.829Z" transform="translate(-602.234 -1022.476)" fill="#f9b384"/>
            <path id="Path_107" data-name="Path 107" d="M623.29,1047.559S549,1086.3,609.575,1197.99c7.78,14.345,25.012,20.607,39.754,13.607h0a30.131,30.131,0,0,0,13.214-42.081c-9.908-17.6-19.471-40.268-15.389-57.133Z" transform="translate(-585.801 -1022.484)" fill="#102048"/>
            <circle id="Ellipse_15" data-name="Ellipse 15" cx="20.095" cy="20.095" r="20.095" transform="translate(16.085 43.416) rotate(-45)" fill="#fbc343"/>
            <path id="Path_108" data-name="Path 108" d="M664.695,1082.492c-2.172-12.537-3.494-21.134,9.177-27.6,0,0,44.656,8.119,53.182-8.729s-4.466-43.438-31.665-24.966c-69.623-13.6-78.96,51.557-57.85,73.276l20.836-3.2A7.585,7.585,0,0,0,664.695,1082.492Z" transform="translate(-595.469 -1014.931)" fill="#102048"/>
            <g id="Group_58" data-name="Group 58" transform="translate(89.845 44.692)">
              <circle id="Ellipse_16" data-name="Ellipse 16" cx="2.969" cy="2.969" r="2.969" transform="translate(10.987 19.936)" fill="#102048"/>
              <circle id="Ellipse_17" data-name="Ellipse 17" cx="2.969" cy="2.969" r="2.969" transform="translate(31.083 10.04)" fill="#102048"/>
              <path id="Path_109" data-name="Path 109" d="M742.395,1110.65a.84.84,0,0,1-.609-1.419c1.19-1.253,2.495-3.016,1.947-4.293-.57-1.326-2.976-1.9-4.078-1.9-2.368,0-3.506-4.214-3.71-5.058a.84.84,0,0,1,1.634-.4c.433,1.781,1.412,3.772,2.076,3.772,1.134,0,4.6.536,5.622,2.917.73,1.7-.035,3.758-2.272,6.114A.84.84,0,0,1,742.395,1110.65Z" transform="translate(-710.398 -1078.608)" fill="#102048"/>
              <path id="Path_110" data-name="Path 110" d="M740.62,1128.326a.835.835,0,0,1-.469-.145,11.234,11.234,0,0,0-11.29-.576.841.841,0,0,1-.838-1.458,12.779,12.779,0,0,1,13.069.642.84.84,0,0,1-.471,1.537Z" transform="translate(-708.472 -1085.018)" fill="#102048"/>
              <path id="Path_111" data-name="Path 111" d="M715.366,1085.741c1.689,3.178-1.254,3.816-4.7,5.648s-6.978,2.5-7.783.987,1.336-4.231,4.784-6.063S714.058,1083.28,715.366,1085.741Z" transform="translate(-702.71 -1075.693)" fill="#102048"/>
              <path id="Path_112" data-name="Path 112" d="M735.516,1077.395c.742,2.837,2.859,1.595,5.937.789s5.563-2.352,5.21-3.7-3.136-1.8-6.214-.993S734.941,1075.2,735.516,1077.395Z" transform="translate(-710.285 -1073.085)" fill="#102048"/>
            </g>
            <circle id="Ellipse_18" data-name="Ellipse 18" cx="8.754" cy="8.754" r="8.754" transform="matrix(0.735, -0.678, 0.678, 0.735, 77.73, 80.95)" fill="#eb5d60" opacity="0.4"/>
            <ellipse id="Ellipse_19" data-name="Ellipse 19" cx="11.855" cy="13.472" rx="11.855" ry="13.472" transform="matrix(0.611, -0.792, 0.792, 0.611, 38.948, 82.637)" fill="#f9b384"/>
            <path id="Path_113" data-name="Path 113" d="M663.322,1123.729a.84.84,0,0,1-.841-.841,7.366,7.366,0,0,0-3.235-6.136,5.933,5.933,0,0,0-5.525-.735.841.841,0,0,1-.635-1.557,7.607,7.607,0,0,1,7.1.9,9.042,9.042,0,0,1,3.979,7.532A.84.84,0,0,1,663.322,1123.729Z" transform="translate(-601.256 -1037.854)" fill="#102048"/>
          </g>
          <g id="Group_60" data-name="Group 60" transform="translate(83.744 146.914)">
            <rect id="Rectangle_21" data-name="Rectangle 21" width="44.684" height="1.922" transform="translate(0 32.812) rotate(-47.248)" fill="#102048"/>
            <path id="Path_114" data-name="Path 114" d="M787.7,1377.266l-.56-1.838c22.081-6.73,43.51-14.781,62.931-39.067l1.5,1.2C831.8,1362.277,810.077,1370.446,787.7,1377.266Z" transform="translate(-543.674 -1236.256)" fill="#102048"/>
          </g>
        </g>
        <g id="Group_64" data-name="Group 64" transform="translate(141.124 213.524)">
          <g id="Group_62" data-name="Group 62">
            <path id="Path_115" data-name="Path 115" d="M745.067,1292.776H557.231c-6.755,0-12.231,5.924-12.231,13.232v134.109c0,7.308,5.476,13.232,12.231,13.232H745.067c6.755,0,12.231-5.924,12.231-13.232V1306.008C757.3,1298.7,751.822,1292.776,745.067,1292.776Z" transform="translate(-545 -1292.776)" fill="#ededed"/>
          </g>
          <g id="Group_63" data-name="Group 63" transform="translate(91.099 67.968)">
            <path id="Path_116" data-name="Path 116" d="M688.508,1385.061a1.347,1.347,0,0,1,1.291,1.4v14.159a1.347,1.347,0,0,1-1.291,1.4H668.676a1.347,1.347,0,0,1-1.291-1.4v-14.159a1.347,1.347,0,0,1,1.291-1.4h19.832m0-3.843H668.676a5.193,5.193,0,0,0-5.134,5.24v14.159a5.193,5.193,0,0,0,5.134,5.24h19.832a5.193,5.193,0,0,0,5.134-5.24v-14.159a5.193,5.193,0,0,0-5.134-5.24Z" transform="translate(-663.542 -1381.218)" fill="#1f3c88"/>
          </g>
        </g>
      </g>
    </g>
    <rect id="Rectangle_22" data-name="Rectangle 22" width="1132.52" height="3.842" transform="translate(280.261 1378.597)" fill="#102048"/>
  </g>
</svg>
