<svg xmlns="http://www.w3.org/2000/svg" xmlns:xlink="http://www.w3.org/1999/xlink" width="877.158" height="830.677" viewBox="0 0 877.158 830.677">
  <defs>
    <clipPath id="clip-path">
      <path id="Path_12" data-name="Path 12" d="M990.783,901.7a31.242,31.242,0,0,0,31.24,31.24h346.986a31.241,31.241,0,0,0,31.24-31.24V690.579H990.783Z" transform="translate(-990.783 -690.579)" fill="none"/>
    </clipPath>
  </defs>
  <g id="Group_40" data-name="Group 40" transform="translate(-102.362 -129.328)">
    <g id="OBJECTS" transform="translate(102.362 129.328)">
      <g id="Group_39" data-name="Group 39">
        <g id="Group_1" data-name="Group 1">
          <path id="Path_1" data-name="Path 1" d="M590.12,981.082l-.932-.976,5.86-5.591.932.976Zm11.7-11.214-.948-.962c1.9-1.875,3.814-3.809,5.678-5.749l.973.936C605.654,966.041,603.735,967.984,601.823,969.868Zm11.248-11.707-1-.909c1.791-1.966,3.594-4,5.361-6.047l1.022.883C616.68,954.143,614.869,956.186,613.071,958.161Zm10.613-12.283-1.043-.857c1.685-2.053,3.385-4.176,5.051-6.31l1.064.831C627.083,941.684,625.377,943.816,623.684,945.878Zm9.991-12.791-1.082-.807c1.584-2.129,3.184-4.329,4.752-6.539l1.1.78C636.871,928.741,635.267,930.949,633.675,933.087Zm9.4-13.232-1.118-.757q2.269-3.348,4.467-6.741l1.132.733Q645.346,916.5,643.07,919.855Zm73.962-9.36a19.766,19.766,0,0,1-7.274-1.386l.5-1.252a18.437,18.437,0,0,0,6.774,1.288c.336-.032.583-.006.873-.02l.066,1.347C717.659,910.488,717.286,910.468,717.032,910.495ZM726,908.188l-.675-1.169a14.659,14.659,0,0,0,5.383-5.437l1.172.67A16.007,16.007,0,0,1,726,908.188Zm-74.1-1.949-1.147-.712q2.129-3.435,4.2-6.913l1.16.69Q654.033,902.793,651.9,906.239Zm51.022-1.881a23.664,23.664,0,0,1-4.444-7l1.244-.523a22.359,22.359,0,0,0,4.188,6.607Zm31.194-10.151-1.35-.029,0-.36a14.02,14.02,0,0,0-1.192-5.732q-.305-.676-.671-1.317l1.175-.666q.394.694.726,1.427a15.37,15.37,0,0,1,1.312,6.288Zm-73.389-1.415-1.035-.868a51.362,51.362,0,0,1,5.752-5.843l.883,1.02A50.079,50.079,0,0,0,660.723,892.792Zm35.664-3.429a32.845,32.845,0,0,1-.232-3.906,34.673,34.673,0,0,1,.275-4.339l1.34.169a33.331,33.331,0,0,0-.265,4.17,31.351,31.351,0,0,0,.223,3.744Zm-23.627-6.985-.711-1.149a55.583,55.583,0,0,1,7.269-3.781l.534,1.241A54.206,54.206,0,0,0,672.76,882.377Zm52.953-1.393a29.7,29.7,0,0,0-6.9-3.841l.5-1.252a31.042,31.042,0,0,1,7.211,4.02Zm-38.308-4.929-.355-1.3a58.024,58.024,0,0,1,8.034-1.586l.167,1.34A56.7,56.7,0,0,0,687.405,876.055Zm23.765-1.119a49,49,0,0,0-7.937-.833l.033-1.35a50.389,50.389,0,0,1,8.156.857Zm-11.539-1.365-1.271-.456a40.379,40.379,0,0,1,3.564-7.413l1.151.705A39,39,0,0,0,699.631,873.571Zm8.252-13.5-.989-.919q.59-.633,1.208-1.247a43.829,43.829,0,0,1,4.94-4.2l.8,1.089a42.4,42.4,0,0,0-4.788,4.074Q708.454,859.459,707.884,860.072Zm12.777-9.414-.6-1.209a50.285,50.285,0,0,1,7.622-3.028l.394,1.291A49.106,49.106,0,0,0,720.661,850.658Zm15.23-4.958-.335-1.308c2.64-.677,5.265-1.385,7.8-2.1l.368,1.3C741.179,844.309,738.542,845.021,735.891,845.7Zm15.616-4.438-.405-1.289c2.6-.819,5.184-1.675,7.668-2.542l.445,1.275C756.719,839.578,754.125,840.438,751.507,841.262Zm15.331-5.363-.488-1.259c2.527-.98,5.041-2.009,7.471-3.058l.535,1.239C771.911,833.877,769.381,834.912,766.838,835.9Zm14.916-6.442-.584-1.217,7.284-3.537.591,1.214Zm14.575-7.082-.591-1.214,7.285-3.541.591,1.214Zm14.57-7.082-.591-1.214,7.285-3.542.591,1.214Zm14.57-7.083L824.877,807l7.286-3.541.59,1.214Zm14.569-7.083-.591-1.214,7.286-3.541.59,1.214Z" transform="translate(-373.388 -495.659)" fill="#ea91ff"/>
          <path id="Path_2" data-name="Path 2" d="M1007.627,293.927a6.9,6.9,0,0,0,.033.824H1185.2c-.462-14.635-13.2-26.37-28.826-26.37a30.125,30.125,0,0,0-13.812,3.313c.214-11.389-5.258-22.3-15.344-28.15-15.13-8.768-34.923-2.818-44.186,13.3a35.463,35.463,0,0,0-4.665,15.278,64.191,64.191,0,0,0-26.452-5.389C1027.454,266.733,1007.627,278.912,1007.627,293.927Z" transform="translate(-565.87 -239.497)" fill="#e5e5e5"/>
          <path id="Path_3" data-name="Path 3" d="M335.954,1069.126H189.559l.017-.522c.39-12.387,10.984-22.09,24.117-22.09a25.419,25.419,0,0,1,10.8,2.4,26.363,26.363,0,0,1,12.824-22.681,25.462,25.462,0,0,1,19.5-2.469,28.54,28.54,0,0,1,17.381,13.55,29.4,29.4,0,0,1,3.83,12.012,53.31,53.31,0,0,1,21.22-4.166c20.281,0,36.78,10.22,36.78,22.781a6.185,6.185,0,0,1-.03.734Zm-145.343-1.013H335.024v-.169c0-12-16.045-21.769-35.767-21.769a51.924,51.924,0,0,0-21.457,4.369l-.667.306-.049-.732a28.355,28.355,0,0,0-3.755-12.3,27.534,27.534,0,0,0-16.765-13.076,24.469,24.469,0,0,0-18.735,2.366,25.408,25.408,0,0,0-12.316,22.611l.016.846-.753-.386a24.343,24.343,0,0,0-11.082-2.658C201.3,1047.526,191.261,1056.528,190.61,1068.114Z" transform="translate(-189.559 -599.84)" fill="#ea91ff"/>
        </g>
        <g id="Group_15" data-name="Group 15" transform="translate(431.986 83.387)">
          <g id="Group_5" data-name="Group 5" transform="translate(0.674 160.198)">
            <g id="Group_4" data-name="Group 4" clip-path="url(#clip-path)">
              <path id="Path_4" data-name="Path 4" d="M990.783,901.7a31.242,31.242,0,0,0,31.24,31.24h346.986a31.241,31.241,0,0,0,31.24-31.24V690.579H990.783Z" transform="translate(-990.783 -690.579)" fill="#fff"/>
              <path id="Path_5" data-name="Path 5" d="M900.712,766.006c4.787-15.346,19.929-27.125,36.474-28.373s33.43,8.118,40.671,22.558a25.313,25.313,0,0,1,21.757,12.242,23.542,23.542,0,0,1-.759,24.3,34.36,34.36,0,0,1,24.535,17.983,32.237,32.237,0,0,1-.658,29.723,39.457,39.457,0,0,1,37.364,1.353c11.072,6.685,18.045,19.269,17.658,31.868,7.187-11.273,20.968-18.3,34.667-17.675s26.76,8.874,32.854,20.752c6.431-19.243,23.58-34.778,43.871-39.742s43.056.8,58.241,14.759c22.838,3.573,39.484,28.372,33.534,49.957,12.337,10.209,18.642,26.807,16.063,42.285s-13.953,29.3-28.976,35.212l-392.951-.255-33.5-149.92Z" transform="translate(-922.14 -712.173)" fill="#bfe3d2"/>
              <g id="Group_2" data-name="Group 2" transform="translate(-84.866 75.108)" opacity="0.8">
                <path id="Path_6" data-name="Path 6" d="M890.828,858.183c4.637-15.351,19.276-27.141,35.261-28.4s32.292,8.091,39.277,22.525a23.743,23.743,0,0,1,20.258,36.521,32.689,32.689,0,0,1,23.03,47.686,36.252,36.252,0,0,1,53.134,33.177,37.331,37.331,0,0,1,65.233,3.023,60.145,60.145,0,0,1,98.674-25.064c22.062,3.555,38.124,28.34,32.358,49.929a45.984,45.984,0,0,1-12.537,77.506l-379.647.057L833.624,925.251Z" transform="translate(-833.624 -829.668)" fill="#fff"/>
              </g>
              <g id="Group_3" data-name="Group 3" transform="translate(-28.563 6.759)">
                <path id="Path_7" data-name="Path 7" d="M1240.616,703.095C1126.888,810.046,1046.24,838.884,944.638,849.2l-6.75,108,106.65,36.45c93.15-2.7,182.592-137.55,237.84-253.235l-41.762-37.316" transform="translate(-937.888 -703.095)" fill="#fff2e0" opacity="0.7"/>
                <path id="Path_8" data-name="Path 8" d="M1460.638,705.669c-18.49,21.875-46.376,42.8-79.267,71.063l44.877-18.291c-5.5,9.12-13.516,21.881-18.01,27.354,10.344-4.775,26.988-15.279,32.5-20.848,0,7.771-9.364,20.769-13.445,27.87,23.937-20.486,45.713-45.5,52.747-67.466l-19.4-19.683" transform="translate(-1141.89 -704.279)" fill="#ffa121"/>
                <path id="Path_9" data-name="Path 9" d="M1498.124,707.717c-10.937,14.5-27.308,28.474-46.654,47.3l26.187-12.426c-3.281,6.022-8.055,14.451-10.715,18.078,6.042-3.23,15.793-10.271,19.043-13.97-.082,5.083-5.638,13.681-8.076,18.368,14.078-13.646,26.951-30.23,31.253-44.673l-11.039-12.675" transform="translate(-1174.136 -705.221)" fill="#fff" opacity="0.4"/>
              </g>
              <path id="Path_10" data-name="Path 10" d="M1208.987,835.921c.145,3.381,0,9.089-3.381,11.044-5.639,3.265-10.075-4.661-12.145-8.646-2.469-4.758-1.838-10.661,3.745-12.782C1204.583,822.736,1208.716,829.611,1208.987,835.921Z" transform="translate(-1083.383 -752.364)" fill="#d1d1ff"/>
              <path id="Path_11" data-name="Path 11" d="M1704.107,1026.029c.145,3.381,0,9.089-3.381,11.044-5.639,3.266-10.075-4.661-12.145-8.646-2.469-4.757-1.838-10.661,3.746-12.782C1699.7,1012.844,1703.836,1019.719,1704.107,1026.029Z" transform="translate(-1311.138 -839.814)" fill="#d1d1ff"/>
              <circle id="Ellipse_1" data-name="Ellipse 1" cx="4.725" cy="4.725" r="4.725" transform="translate(90.912 40.584)" fill="#d1d1ff"/>
              <circle id="Ellipse_2" data-name="Ellipse 2" cx="7.194" cy="7.194" r="7.194" transform="translate(326.292 127.344) rotate(-26.428)" fill="#d1d1ff"/>
            </g>
          </g>
          <g id="Group_10" data-name="Group 10" transform="translate(0 77.73)">
            <path id="Path_13" data-name="Path 13" d="M1368.434,933.035H1021.449a31.951,31.951,0,0,1-31.915-31.915V689.329h410.815V901.121A31.952,31.952,0,0,1,1368.434,933.035ZM990.884,690.679V901.121a30.6,30.6,0,0,0,30.565,30.565h346.985A30.6,30.6,0,0,0,1399,901.121V690.679Z" transform="translate(-989.534 -607.536)" fill="#ffd591"/>
            <g id="Group_6" data-name="Group 6">
              <path id="Path_14" data-name="Path 14" d="M1369.009,539.112H1022.023a31.238,31.238,0,0,0-31.24,31.24V620.9h409.466V570.352A31.237,31.237,0,0,0,1369.009,539.112Z" transform="translate(-990.109 -538.436)" fill="#fff"/>
              <path id="Path_15" data-name="Path 15" d="M1400.349,621H989.534V569.776a31.951,31.951,0,0,1,31.915-31.915h346.985a31.952,31.952,0,0,1,31.915,31.915Zm-409.465-1.35H1399V569.776a30.6,30.6,0,0,0-30.565-30.565H1021.449a30.6,30.6,0,0,0-30.565,30.565Z" transform="translate(-989.534 -537.861)" fill="#ffd591"/>
            </g>
            <g id="Group_9" data-name="Group 9" transform="translate(21.731 17.35)">
              <circle id="Ellipse_3" data-name="Ellipse 3" cx="17.127" cy="17.127" r="17.127" transform="matrix(0.199, -0.98, 0.98, 0.199, 0, 37.599)" fill="#ffd591"/>
              <g id="Group_7" data-name="Group 7" transform="translate(46.417 0)">
                <circle id="Ellipse_4" data-name="Ellipse 4" cx="17.127" cy="17.127" r="17.127" transform="translate(0 24.221) rotate(-45)" fill="#ffd591"/>
                <path id="Path_16" data-name="Path 16" d="M1145.424,617.483a17.8,17.8,0,1,1,17.8-17.8A17.822,17.822,0,0,1,1145.424,617.483Zm0-34.254a16.452,16.452,0,1,0,16.452,16.452A16.47,16.47,0,0,0,1145.424,583.229Z" transform="translate(-1121.203 -575.46)" fill="#ffd591"/>
              </g>
              <g id="Group_8" data-name="Group 8" transform="translate(115.799 7.199)">
                <rect id="Rectangle_2" data-name="Rectangle 2" width="100.888" height="32.695" rx="16.348" transform="translate(0.675 0.675)" fill="#ffd591"/>
                <path id="Path_17" data-name="Path 17" d="M1329.435,617.367h-68.193a17.022,17.022,0,1,1,0-34.045h68.193a17.022,17.022,0,1,1,0,34.045Zm-68.193-32.695a15.672,15.672,0,1,0,0,31.345h68.193a15.672,15.672,0,1,0,0-31.345Z" transform="translate(-1244.219 -583.322)" fill="#ffd591"/>
              </g>
            </g>
          </g>
          <g id="Group_14" data-name="Group 14" transform="translate(269.474)">
            <g id="Group_11" data-name="Group 11" transform="translate(2.244 41.145)">
              <path id="Path_18" data-name="Path 18" d="M1583.8,470.111c-27.345,23.937-74.508,7.439-89.164,26.553l41.878,33.161Z" transform="translate(-1493.598 -470.111)" fill="#198754"/>
              <path id="Path_19" data-name="Path 19" d="M1493.751,519.283h0a16.187,16.187,0,0,0,2.958,16.339l29.675,33.99,9.245-17.168Z" transform="translate(-1492.716 -492.73)" fill="#adcebf"/>
            </g>
            <g id="Group_12" data-name="Group 12" transform="translate(92.544 90.224)">
              <path id="Path_20" data-name="Path 20" d="M1734.246,561c-17.032,32.1,9.838,74.229-5.408,92.876l-41.878-33.161Z" transform="translate(-1672.368 -560.998)" fill="#198754"/>
              <path id="Path_21" data-name="Path 21" d="M1716.407,704.741h0a16.185,16.185,0,0,1-16.582.866l-39.887-21.094,14.592-12.934Z" transform="translate(-1659.938 -611.866)" fill="#adcebf"/>
            </g>
            <path id="Path_22" data-name="Path 22" d="M1782.165,393.916,1744.88,407.6l32.507,25.741Z" transform="translate(-1606.468 -393.916)" fill="#1b1b43"/>
            <path id="Path_23" data-name="Path 23" d="M1677.307,445.005c-5.208,59-48.8,114.047-101.744,144.624l-48.247-38.166c20.244-63.695,57.948-109.274,117.485-132.2Z" transform="translate(-1506.388 -405.576)" fill="#bfe3d2"/>
            <path id="Path_24" data-name="Path 24" d="M1509.488,664.079l-20.928,14.49,59.86,47.4,9.315-23.727Z" transform="translate(-1488.561 -518.191)" fill="#198754"/>
            <g id="Group_13" data-name="Group 13" transform="translate(99.536 39.881)">
              <circle id="Ellipse_5" data-name="Ellipse 5" cx="22.392" cy="22.392" r="22.392" transform="translate(0 5.287) rotate(-6.78)" fill="#fff"/>
              <path id="Path_25" data-name="Path 25" d="M1707.109,516.148l-.142-1.342a14.7,14.7,0,0,0,3.751-.91l.488,1.259A15.993,15.993,0,0,1,1707.109,516.148Zm-4.215-.107a15.81,15.81,0,0,1-4.041-1.209l.556-1.23a14.5,14.5,0,0,0,3.7,1.107Zm12-2.921-.8-1.085a14.671,14.671,0,0,0,2.772-2.687l1.057.839A15.944,15.944,0,0,1,1714.9,513.121Zm-19.622-.517a15.925,15.925,0,0,1-2.877-3.083l1.1-.782a14.625,14.625,0,0,0,2.634,2.822Zm24.3-4.956-1.2-.624a14.565,14.565,0,0,0,1.313-3.628l1.318.287A15.9,15.9,0,0,1,1719.577,507.648Zm-29.142-1.858a16.069,16.069,0,0,1-.917-4.115l1.345-.119a14.692,14.692,0,0,0,.841,3.768Zm29.575-6.241a14.8,14.8,0,0,0-.7-3.8l1.284-.417a16.057,16.057,0,0,1,.765,4.144Zm-28.977-1.848-1.329-.237a15.824,15.824,0,0,1,1.287-4.016l1.218.579A14.535,14.535,0,0,0,1691.032,497.7Zm26.609-5.428a14.6,14.6,0,0,0-2.526-2.919l.9-1.01a15.948,15.948,0,0,1,2.758,3.189Zm-23.331-1.484-1.026-.877a15.971,15.971,0,0,1,3.135-2.819l.762,1.116A14.6,14.6,0,0,0,1694.309,490.788Zm17.608-3.6a14.525,14.525,0,0,0-3.651-1.245l.261-1.325a15.9,15.9,0,0,1,3.992,1.36Zm-11.289-.717-.441-1.276a16.08,16.08,0,0,1,4.129-.841l.1,1.347A14.7,14.7,0,0,0,1700.628,486.475Z" transform="translate(-1680.536 -475.4)" fill="#9192ff"/>
            </g>
            <rect id="Rectangle_3" data-name="Rectangle 3" width="8.626" height="74.907" rx="4.313" transform="translate(56.663 143.373) rotate(38.375)" fill="#1b1b43"/>
          </g>
        </g>
        <g id="Group_17" data-name="Group 17" transform="translate(582.872 577.407)">
          <path id="Path_26" data-name="Path 26" d="M1492.512,1504.437h-8.1v-1.35h8.1Zm-16.2,0h-8.1v-1.35h8.1Zm-16.2,0h-8.1v-1.35h8.1Zm-16.2,0h-8.1v-1.35h8.1Zm-16.2,0h-8.1v-1.35h8.1Zm-16.2,0h-8.1v-1.35h8.1Zm-16.2,0h-8.1v-1.35h8.1Zm-16.2,0h-8.1v-1.35h8.1Zm-16.2,0h-8.1v-1.35h8.1Zm-16.2,0h-8.1v-1.35h8.1Zm-16.207,0a25.813,25.813,0,0,1-8.161-1.392l.438-1.277a24.5,24.5,0,0,0,7.736,1.319Zm162.981-.016-.05-1.35a24.483,24.483,0,0,0,7.694-1.539l.475,1.263A25.86,25.86,0,0,1,1493.486,1504.42Zm-178.442-5.284a26,26,0,0,1-5.7-6.006l1.116-.762a24.584,24.584,0,0,0,5.4,5.7Zm193.746-.453-.849-1.05a24.582,24.582,0,0,0,5.238-5.845l1.137.73A26.011,26.011,0,0,1,1508.79,1498.682Zm-202.955-13.051a25.908,25.908,0,0,1-.983-7.089v-1.1h1.35v1.1a24.6,24.6,0,0,0,.931,6.719Zm211.778-.709-1.308-.333a24.7,24.7,0,0,0,.75-6.047v-1.821h1.35v1.821A25.98,25.98,0,0,1,1517.612,1484.923ZM1306.2,1469.338h-1.35v-8.1h1.35Zm212.2-.716h-1.35v-8.1h1.35Zm-212.2-15.484h-1.35v-8.1h1.35Zm212.2-.716h-1.35v-8.1h1.35Zm-212.2-15.484h-1.35v-8.1h1.35Zm212.2-.716h-1.35v-8.1h1.35Zm-212.2-15.484h-1.35v-8.1h1.35Zm212.2-.716h-1.35v-8.1h1.35Zm-212.2-15.484h-1.35v-8.1h1.35Zm212.2-.716h-1.35v-8.1h1.35Zm-212.2-15.484h-1.35v-5.4a26.268,26.268,0,0,1,.146-2.769l1.342.143a24.942,24.942,0,0,0-.138,2.626Zm212.2-.716h-1.35v-4.68a25.141,25.141,0,0,0-.221-3.319l1.336-.179a26.247,26.247,0,0,1,.235,3.5Zm-209.993-14.875-1.228-.562a25.911,25.911,0,0,1,4.6-6.883l.989.92A24.523,24.523,0,0,0,1308.412,1372.747Zm206.134-.628a24.619,24.619,0,0,0-4.547-6.4l.963-.947a25.911,25.911,0,0,1,4.795,6.749ZM1318.968,1361.4l-.649-1.184a25.706,25.706,0,0,1,7.807-2.759l.24,1.329A24.336,24.336,0,0,0,1318.968,1361.4Zm184.706-.326a24.366,24.366,0,0,0-7.469-2.4l.2-1.334a25.7,25.7,0,0,1,7.883,2.535Zm-15.454-2.679h-8.1v-1.35h8.1Zm-16.2,0h-8.1v-1.35h8.1Zm-16.2,0h-8.1v-1.35h8.1Zm-16.2,0h-8.1v-1.35h8.1Zm-16.2,0h-8.1v-1.35h8.1Zm-16.2,0h-8.1v-1.35h8.1Zm-16.2,0h-8.1v-1.35h8.1Zm-16.2,0h-8.1v-1.35h8.1Zm-16.2,0h-8.1v-1.35h8.1Zm-16.2,0h-8.1v-1.35h8.1Z" transform="translate(-1285.466 -1330.977)" fill="#fd7e14"/>
          <path id="Path_64" data-name="Path 64" d="M36.912,0H175.292A36.912,36.912,0,0,1,212.2,36.912v76.234a36.912,36.912,0,0,1-36.912,36.912H36.912A36.912,36.912,0,0,1,0,113.146V36.912A36.912,36.912,0,0,1,36.912,0Z" fill="#fd7e14"/>
          <g id="Group_16" data-name="Group 16" transform="translate(36.896 45.387)">
            <rect id="Rectangle_5" data-name="Rectangle 5" width="22.976" height="46.662" transform="translate(0 42.266)" fill="#fff"/>
            <rect id="Rectangle_6" data-name="Rectangle 6" width="22.976" height="45.164" transform="translate(38.478 43.764)" fill="#fff"/>
            <rect id="Rectangle_7" data-name="Rectangle 7" width="22.976" height="68.756" transform="translate(76.957 20.172)" fill="#fff"/>
            <rect id="Rectangle_8" data-name="Rectangle 8" width="22.976" height="88.928" transform="translate(115.435)" fill="#fff"/>
          </g>
          <rect id="Rectangle_9" data-name="Rectangle 9" width="123.287" height="5.39" transform="translate(44.459 21.134)" fill="#fff"/>
        </g>
        <g id="Group_34" data-name="Group 34" transform="translate(83.779 300.724)">
          <g id="Group_30" data-name="Group 30" transform="translate(19.486)">
            <g id="Group_18" data-name="Group 18" transform="translate(120.599 93.055)">
              <path id="Path_27" data-name="Path 27" d="M632.206,1005.855a63.991,63.991,0,0,0-23.525-33.78l-4.558-3.358,3.869,80.047,29.916-23.143Z" transform="translate(-604.123 -968.717)" fill="#ffa121"/>
              <path id="Path_28" data-name="Path 28" d="M731.638,1151.085l-6.646-13.015a13.209,13.209,0,0,0-8.24-6.724l-19.556-5.416-50.307-32.119-5.687-19.717-29.916,23.143.272,5.622a29.582,29.582,0,0,0,17.83,25.735l48.847,21.071,23.218.516c7.482,2.58,10.061,9.029,14.705,6.707,1.731-.865-5.031-12-5.031-12l11.222,12.383Z" transform="translate(-607.418 -1017.191)" fill="#ffbc96"/>
              <rect id="Rectangle_10" data-name="Rectangle 10" width="10.158" height="1.548" transform="translate(32.305 83.862) rotate(-49.665)" fill="#d28572"/>
            </g>
            <g id="Group_20" data-name="Group 20" transform="translate(157.325 255.985)">
              <path id="Path_29" data-name="Path 29" d="M672.133,1273.827l36.6-3.231c23.824-2.1,44.549,17.136,45.71,42.435l8.271,180.256-50.487,1.573Z" transform="translate(-672.133 -1270.438)" fill="#26289c"/>
              <g id="Group_19" data-name="Group 19" transform="translate(44.153 217.727)">
                <path id="Path_30" data-name="Path 30" d="M753.9,1678.538l1.548,49.791h74.816l-36.892-30.7-2.322-23.993Z" transform="translate(-753.898 -1673.637)" fill="#1b1b43"/>
                <rect id="Rectangle_11" data-name="Rectangle 11" width="19.867" height="3.096" transform="matrix(0.792, -0.61, 0.61, 0.792, 22.79, 34.891)" fill="#fff"/>
              </g>
            </g>
            <g id="Group_22" data-name="Group 22" transform="translate(12.269 234.302)">
              <g id="Group_21" data-name="Group 21" transform="translate(172.182 239.41)">
                <path id="Path_31" data-name="Path 31" d="M722.366,1678.538l1.548,49.791H798.73l-36.892-30.7-2.322-23.993Z" transform="translate(-722.366 -1673.637)" fill="#d1d1ff"/>
                <rect id="Rectangle_12" data-name="Rectangle 12" width="19.867" height="3.095" transform="matrix(0.792, -0.61, 0.61, 0.792, 22.79, 34.892)" fill="#fff"/>
              </g>
              <path id="Path_32" data-name="Path 32" d="M631.417,1479.5H569.5L525.37,1343.716l-6.176-19.009-88.231-.387c-5.449-.078-10.666-2.6-15.092-6.331a35.922,35.922,0,0,1-12-32.491l7.739-55.214,131.077,17.042a58.865,58.865,0,0,1,50.044,46.375Z" transform="translate(-403.511 -1230.285)" fill="#3335cf"/>
              <path id="Path_33" data-name="Path 33" d="M635.927,1405.141l-12.012,19.008-6.176-19.008Z" transform="translate(-502.056 -1310.719)" fill="#1b1b43"/>
            </g>
            <g id="Group_23" data-name="Group 23" transform="translate(0 88.411)">
              <path id="Path_34" data-name="Path 34" d="M510.724,1096.008q-.952,3.831-1.981,7.678l-4.643,18.962-61.143-2.539-44.022-1.826a18.911,18.911,0,0,1-17.74-22.754l20.525-98.773a37.495,37.495,0,0,1,33.187-31.469l50.23-5.17,16.253,4.644c15.866,8.513,15.882,23.946,16.64,34.054C521.358,1043.054,517.256,1069.848,510.724,1096.008Z" transform="translate(-380.791 -960.117)" fill="#ffa121"/>
              <path id="Path_35" data-name="Path 35" d="M490.581,1148.126c-.634,2.554,40.153,8.266,39.472,10.835l-4.643,18.962-61.143-2.539c-21.361-16.113-29.364-51.173-37.15-95.1Z" transform="translate(-402.101 -1015.392)" fill="#1b1b43" opacity="0.3"/>
              <path id="Path_36" data-name="Path 36" d="M521.746,1013.027a36.762,36.762,0,0,0,9.137,7.244,30.18,30.18,0,0,0,10.918,3.686,18.369,18.369,0,0,0,11.109-1.632,11.422,11.422,0,0,0,5.968-9.124l.6.041a12.488,12.488,0,0,1-1.538,5.891,11.733,11.733,0,0,1-4.369,4.37,19.092,19.092,0,0,1-11.97,1.976,29.772,29.772,0,0,1-11.377-4.076,32.124,32.124,0,0,1-8.946-7.987Z" transform="translate(-445.417 -984.456)" fill="#1b1b43"/>
              <path id="Path_37" data-name="Path 37" d="M633.6,1076.1l-1.158-.082c1.112-15.574-.015-34.714-3.349-56.889l1.148-.171C633.593,1041.218,634.723,1060.443,633.6,1076.1Z" transform="translate(-495.012 -987.185)" fill="#1b1b43"/>
            </g>
            <g id="Group_24" data-name="Group 24" transform="translate(184.967 141.943)">
              <rect id="Rectangle_13" data-name="Rectangle 13" width="57.531" height="11.351" transform="translate(0 90.295)" fill="#1b1b43"/>
              <path id="Path_38" data-name="Path 38" d="M915.817,1160.9H800.24l53.145-101.646H968.962Z" transform="translate(-758.704 -1059.25)" fill="#0d6efd"/>
            </g>
            <g id="Group_27" data-name="Group 27" transform="translate(25.649)">
              <path id="Path_39" data-name="Path 39" d="M491.7,803.539c-13.544-13.351-39.085-7.74-38.7,14.705-27.862,7.352-29.411,37.924-18.188,53.6l9.675.774,2.128-11.416,5.612,11.609,27.088,1.742Z" transform="translate(-428.289 -796.393)" fill="#1b1b43"/>
              <path id="Path_40" data-name="Path 40" d="M554,902.07v42.645c0,.387-.016.759-.046,1.13a14.315,14.315,0,0,1-17.848,12.739,28.789,28.789,0,0,1-21.594-28.11l.217-28.4Z" transform="translate(-467.952 -845.004)" fill="#ffbc96"/>
              <path id="Path_41" data-name="Path 41" d="M563.906,932.7v24.209c0,.387-.016.759-.046,1.13-11.408-1.873-24.6-15.077-27.816-29.456Z" transform="translate(-477.856 -857.202)" fill="#1b1b43"/>
              <path id="Path_42" data-name="Path 42" d="M576.766,875.718a76.835,76.835,0,0,1-2.43,10.154c-3.405,10.82-9.52,19.8-20.463,18.235-25.726-3.684-40.044-30.184-40.044-30.184l17.6-20.123,11.81-15.881,35.4,15.293A133.135,133.135,0,0,1,576.766,875.718Z" transform="translate(-467.637 -815.494)" fill="#ffbc96"/>
              <path id="Path_43" data-name="Path 43" d="M512.994,850.86c11.291-.361,20.024-6.112,23.735-22.445,0,0,26.315,22.7,39.214,10.578,10.8-10.154-7.523-33.514-37.855-36.3a42.976,42.976,0,0,0-30.723,9.374c-14.7,11.78-16.106,39.178-2.368,48.659Z" transform="translate(-459.191 -799.212)" fill="#1b1b43"/>
              <path id="Path_44" data-name="Path 44" d="M503.153,823.184a12.061,12.061,0,0,1,1-8.167,18.15,18.15,0,0,1,5.3-6.522,18.663,18.663,0,0,1,7.583-3.546,13.669,13.669,0,0,1,8.172.628,45.181,45.181,0,0,0-7,2.83,37.984,37.984,0,0,0-5.913,3.757,34.215,34.215,0,0,0-5.06,4.786A28.373,28.373,0,0,0,503.153,823.184Z" transform="translate(-462.573 -800.172)" fill="#ffa121"/>
              <g id="Group_25" data-name="Group 25" transform="translate(38.291 40.309)">
                <ellipse id="Ellipse_6" data-name="Ellipse 6" cx="8.804" cy="10.637" rx="8.804" ry="10.637" transform="translate(0 6.543) rotate(-21.816)" fill="#ffbc96"/>
                <path id="Path_45" data-name="Path 45" d="M518.991,897.4a12.61,12.61,0,0,0-.343-5.311,14.449,14.449,0,0,0-2.783-4.557l.38-.471a7.722,7.722,0,0,1,3.325,10.513Z" transform="translate(-506.864 -878.41)" fill="#1b1b43"/>
              </g>
              <g id="Group_26" data-name="Group 26" transform="translate(70.184 44.366)">
                <path id="Path_46" data-name="Path 46" d="M595.5,893.172a2.628,2.628,0,1,1-2.615-2.893A2.765,2.765,0,0,1,595.5,893.172Z" transform="translate(-572.984 -883.947)" fill="#1b1b43"/>
                <path id="Path_47" data-name="Path 47" d="M621.418,897.423a2.34,2.34,0,1,1-2-2.841A2.461,2.461,0,0,1,621.418,897.423Z" transform="translate(-585.177 -885.919)" fill="#1b1b43"/>
                <path id="Path_48" data-name="Path 48" d="M590.627,880.516c.1,1.352-2.058,1.481-5.244,1.576s-5.388,1.079-5.414.225,2.332-3.051,5.475-3.582C588.686,878.186,590.5,878.907,590.627,880.516Z" transform="translate(-568.246 -878.553)" fill="#1b1b43"/>
                <path id="Path_49" data-name="Path 49" d="M618.539,883.181c-.234,1.332,1.356,1.676,3.711,2.088s3.876,1.61,3.994.764-1.378-3.263-3.65-4.1C620.25,881.061,618.818,881.6,618.539,883.181Z" transform="translate(-585.977 -879.915)" fill="#1b1b43"/>
                <path id="Path_50" data-name="Path 50" d="M611.09,904.311a22.612,22.612,0,0,0,1.963,2.035l1.044.971a5.891,5.891,0,0,1,1.1,1.233,2.221,2.221,0,0,1,.332,1.03,2.037,2.037,0,0,1-.258,1.1,3.814,3.814,0,0,1-1.248,1.261,7.815,7.815,0,0,1-2.894,1.049l-.226-.562a21.4,21.4,0,0,0,2.307-1.576,2.977,2.977,0,0,0,.721-.867c.12-.258.085-.345-.058-.646-.343-.564-1.221-1.316-1.794-2.1a8.76,8.76,0,0,1-1.52-2.637Z" transform="translate(-582.317 -890.402)" fill="#1b1b43"/>
                <path id="Path_51" data-name="Path 51" d="M586.843,921.954a19.414,19.414,0,0,0,5.21,4.534,10.918,10.918,0,0,0,6.581,1.142l.16.583a8.132,8.132,0,0,1-3.741.707,8.548,8.548,0,0,1-3.733-1.077,11.964,11.964,0,0,1-4.986-5.563Z" transform="translate(-571.173 -898.517)" fill="#1b1b43"/>
                <circle id="Ellipse_7" data-name="Ellipse 7" cx="6.387" cy="6.387" r="6.387" transform="translate(0 9.019)" fill="#fe5b52" opacity="0.2"/>
                <path id="Path_52" data-name="Path 52" d="M626.952,907.918a76.838,76.838,0,0,1-2.43,10.154,6.385,6.385,0,0,1,2.43-10.154Z" transform="translate(-588.006 -892.061)" fill="#fe5b52" opacity="0.2"/>
              </g>
            </g>
            <g id="Group_29" data-name="Group 29" transform="translate(25.016 124.93)">
              <g id="Group_28" data-name="Group 28" transform="translate(0 10.822)">
                <path id="Path_53" data-name="Path 53" d="M464.009,1047.784l-36.892,17.543,11.571,27.427,38.681-17.839Z" transform="translate(-427.117 -1047.784)" fill="#ffa121"/>
                <path id="Path_54" data-name="Path 54" d="M747.083,1222.586c-1.023-.513-1.663-.855-1.663-.855l.37-.728s.681.327,1.67.859Z" transform="translate(-573.536 -1127.465)" fill="#c5c5ff"/>
                <path id="Path_55" data-name="Path 55" d="M625.812,1169.832c-1.192,2.353-10.325-1.811-14.581-3.9,3.3,1.826,8.977,5.417,6.455,7.384-2.028,1.563-6.517-1.765-21.222-7.864,2.229,1.052,15.371,7.306,12.058,9.675-3.607,2.569-19.086-3.1-19.086-3.1l-13.42,7.213H560.537l-55.694.356a40.6,40.6,0,0,1-10.325-1.3,46.306,46.306,0,0,1-18.111-9.38,45.478,45.478,0,0,1-8.591-9.643,51.508,51.508,0,0,1-4.6-8.606l-14.69-34.8,38.682-17.847L507.4,1139l66.56,14.458,18.575-4.644c3.994-1.006,9.643.681,13.157,2.833C614.265,1156.891,626.927,1167.587,625.812,1169.832Z" transform="translate(-436.967 -1070.894)" fill="#ffbc96"/>
              </g>
              <path id="Path_56" data-name="Path 56" d="M511.954,1221.513a16.864,16.864,0,0,1-1.007,5.758,46.306,46.306,0,0,1-18.111-9.38,45.479,45.479,0,0,1-8.591-9.643,17.032,17.032,0,0,1,27.708,13.266Z" transform="translate(-453.396 -1109.045)" fill="#fe5b52" opacity="0.2"/>
              <path id="Path_57" data-name="Path 57" d="M680.626,1195.934a126.362,126.362,0,0,1,14.064-3.855,50.357,50.357,0,0,1,7.265-1.036,21.952,21.952,0,0,1,3.735.1c.621.124,1.24.288,1.861.434.591.208,1.167.446,1.752.67a60.032,60.032,0,0,1,12.289,8.008c3.814,3.041,7.415,6.306,10.915,9.71l.161.157.034.2a2.933,2.933,0,0,1-.367,2.094,2.494,2.494,0,0,1-.841.742,2.4,2.4,0,0,1-.967.337,7.983,7.983,0,0,1-3.477-.341,34.508,34.508,0,0,1-6.009-2.522c-1.894-1.013-3.762-2.068-5.572-3.2-1.841-1.092-3.59-2.312-5.383-3.471l.818-1.307a96.108,96.108,0,0,1,9.191,6.085,24.633,24.633,0,0,1,4.153,3.815,5.481,5.481,0,0,1,.807,1.363,2.524,2.524,0,0,1,.185.943,1.808,1.808,0,0,1-.4,1.056,2.831,2.831,0,0,1-1.571.878,9.165,9.165,0,0,1-1.489.212l-.152.016-.165-.069-16.8-7.04.5-1.18a58.527,58.527,0,0,1,7.681,4.145,10.462,10.462,0,0,1,3.34,3.111,1.813,1.813,0,0,1,.138,1.48,1.994,1.994,0,0,1-1,1.027,5.575,5.575,0,0,1-2.312.518,32.611,32.611,0,0,1-8.648-1.331c-2.8-.74-5.549-1.61-8.269-2.6l.2-.57c2.714.909,5.478,1.711,8.261,2.374a31.928,31.928,0,0,0,8.391,1.1c1.317-.052,2.886-.631,2.246-1.5a9.786,9.786,0,0,0-2.994-2.64,57.511,57.511,0,0,0-7.556-3.943l.5-1.181,16.864,6.891-.317-.054a7.786,7.786,0,0,0,1.212-.176,1.536,1.536,0,0,0,.791-.38c.236-.093-.081-.925-.61-1.547a23.424,23.424,0,0,0-3.9-3.535,95.049,95.049,0,0,0-9.056-5.936l.818-1.307c1.78,1.138,3.507,2.37,5.32,3.45,1.785,1.13,3.615,2.172,5.463,3.171a33.191,33.191,0,0,0,5.712,2.433,6.744,6.744,0,0,0,2.8.328l.3-.053a1.678,1.678,0,0,0,.227-.116c.179-.052.233-.193.354-.282a1.559,1.559,0,0,0,.165-.976l.195.354c-3.425-3.377-7.029-6.617-10.746-9.678a58.975,58.975,0,0,0-11.9-7.985l-1.634-.65c-.558-.135-1.111-.291-1.673-.414a20.978,20.978,0,0,0-3.521-.132,50.831,50.831,0,0,0-7.139.865,125.624,125.624,0,0,0-14.05,3.518Z" transform="translate(-543.731 -1102.844)" fill="#d28572"/>
              <path id="Path_58" data-name="Path 58" d="M448.565,1084.07l-.486-1.055,38.17-17.611-15.9-37.2,1.068-.456,16.341,38.243Z" transform="translate(-436.759 -1027.744)" fill="#1b1b43"/>
            </g>
          </g>
          <g id="Group_31" data-name="Group 31" transform="translate(0 327.95)">
            <rect id="Rectangle_14" data-name="Rectangle 14" width="2.025" height="174.398" transform="translate(59.743 16.253)" fill="#1b1b43"/>
            <rect id="Rectangle_15" data-name="Rectangle 15" width="121.511" height="23.993" rx="11.996" fill="#ff91b7"/>
            <path id="Rectangle_16" data-name="Rectangle 16" d="M20.02,0h42a20.02,20.02,0,0,1,20.02,20.02v0a0,0,0,0,1,0,0H0a0,0,0,0,1,0,0v0A20.02,20.02,0,0,1,20.02,0Z" transform="translate(19.736 181.982)" fill="#ff91b7"/>
          </g>
          <g id="Group_33" data-name="Group 33" transform="translate(112.868 243.589)">
            <g id="Group_32" data-name="Group 32" transform="translate(64.122 10.652)">
              <rect id="Rectangle_17" data-name="Rectangle 17" width="2.025" height="323.948" transform="translate(0.034 1.081) rotate(-32.247)" fill="#1b1b43"/>
              <rect id="Rectangle_18" data-name="Rectangle 18" width="323.948" height="2.025" transform="translate(0 273.958) rotate(-57.738)" fill="#1b1b43"/>
            </g>
            <rect id="Rectangle_19" data-name="Rectangle 19" width="302.874" height="22.84" fill="#d1d1ff"/>
          </g>
        </g>
        <g id="Group_36" data-name="Group 36" transform="translate(158.741 23.185)">
          <g id="Group_35" data-name="Group 35" transform="translate(37.229)">
            <circle id="Ellipse_8" data-name="Ellipse 8" cx="68.868" cy="68.868" r="68.868" fill="rgba(214,51,132,0.27)"/>
            <path id="Path_60" data-name="Path 60" d="M647.522,385.53,609.343,355.6l1.25-1.594,36.88,28.913L668.039,365.5l1.309,1.545Z" transform="translate(-578.629 -315.356)" fill="#1b1b43"/>
          </g>
        </g>
        <g id="Group_38" data-name="Group 38" transform="translate(40.288 239.897)">
          <g id="Group_37" data-name="Group 37">
            <path id="Path_61" data-name="Path 61" d="M310.577,685H275.606a10.189,10.189,0,0,0-10.189,10.19v34.97a10.189,10.189,0,0,0,10.189,10.19h24.957l10.754,14.85V740.313a10.184,10.184,0,0,0,9.45-10.153V695.19A10.19,10.19,0,0,0,310.577,685Z" transform="translate(-264.741 -684.325)" fill="#fff"/>
            <path id="Path_62" data-name="Path 62" d="M311.416,756.708,299.643,740.45H275.031a10.877,10.877,0,0,1-10.865-10.865v-34.97a10.877,10.877,0,0,1,10.865-10.865H310a10.877,10.877,0,0,1,10.864,10.865v34.97a10.9,10.9,0,0,1-9.45,10.762ZM275.031,685.1a9.525,9.525,0,0,0-9.515,9.515v34.97a9.525,9.525,0,0,0,9.515,9.515h25.3l9.733,13.442V739.109l.626-.045a9.539,9.539,0,0,0,8.824-9.479v-34.97A9.525,9.525,0,0,0,310,685.1Z" transform="translate(-264.166 -683.75)" fill="#ff91b7"/>
          </g>
          <path id="Path_63" data-name="Path 63" d="M303.415,739.414l-14-20.22,3.33-2.306,10.3,14.88L318.563,704l3.536,1.976Z" transform="translate(-275.781 -693.067)" fill="#ff91b7"/>
        </g>
        <rect id="Rectangle_20" data-name="Rectangle 20" width="829.677" height="2.025" transform="translate(27.238 828.651)" fill="#1b1b43"/>
      </g>
    </g>
  </g>
</svg>
