<svg xmlns="http://www.w3.org/2000/svg" xmlns:xlink="http://www.w3.org/1999/xlink" viewBox="0 0 1381.99 1341.71">
  <defs>
    <style>
      .a, .f, .i {
        fill: none;
      }

      .b {
        fill: none;
      }

      .c {
        clip-path: url(#a);
      }

      .d {
        fill: none;
      }

      .e, .h {
        fill: #fff;
      }

      .f {
        stroke: #231f20;
      }

      .f, .i {
        stroke-linecap: round;
        stroke-linejoin: round;
      }

      .f, .h {
        stroke-width: 8px;
      }

      .g {
        fill: #3f95c4;
      }

      .h {
        stroke: #000;
        stroke-miterlimit: 10;
      }

      .i {
        stroke: none;
        stroke-width: 26px;
      }
    </style>
    <clipPath id="a" transform="translate(0 0)">
      <rect class="a" x="16.61" width="1365.38" height="1297.27"/>
    </clipPath>
  </defs>
  <g>
    <path class="b" d="M853.73,43.82c249.48,63.69,450.34,312,484.52,576.44s-116.83,547.1-356.42,643.53c-112.93,45.5-237.29,50.88-358.14,42.58-77.8-5.4-156.07-16.45-228.85-45.52C166.62,1169.77,30.91,913.52,4.55,661.15-2.06,598.1-3,533.43,12.16,472c30.41-123.36,122.59-221.23,225.4-290.63C417.74,59.88,641.45,10,853.73,43.82" transform="translate(0 0)"/>
    <g class="c">
      <path class="d" d="M367.09,1197.61C238.58,1121,149.37,997.37,96.5,858.92c-53.88-141.06-87.37-320.78-27-464C192.24,103.74,581-10,869.05,27.39c13.07,1.69,12.94-18.81,0-20.5C571-31.77,165.36,91.31,46.2,397.26-12.59,548.18,24.81,736.71,83.79,882.34c55.31,136.47,145.47,256.93,273,332.95,11.35,6.78,21.65-10.92,10.33-17.68" transform="translate(0 0)"/>
      <path class="d" d="M926.34,1255.06c-160.28,35.26-345.79,28.72-500.12-28.77-12.35-4.61-17.7,15.2-5.41,19.76,158.1,58.92,347,64.87,511,28.77,12.89-2.82,7.43-22.57-5.43-19.76" transform="translate(0 0)"/>
      <path class="d" d="M1028.14,91.74C1233.58,219.56,1374,459.31,1360.58,704.25c-12.25,223.43-147,437.79-355.24,526-12.09,5.15-1.67,22.8,10.35,17.71,215.12-91.16,352.5-313.61,365.36-543.73,14.09-252-131.46-498.86-342.59-630.18-11.22-7-21.52,10.73-10.32,17.67" transform="translate(0 0)"/>
    </g>
    <path class="e" d="M320.7,755.84s44.5,30,68,68.09l259.47,189.38,29.54,21.32c47.63,28.15,117.62,53.64,124.77-30.13,43.42,15.24,85.24-7.07,79.16-65.89l-14-14.3c39.84,44.07,108.58.28,88-50.73l-28-23.77,28,23.77c37.78,19.6,64.56,11.4,81.34-10.27,15.37-19.85,5.61-49.19,5.61-49.19s-189.59-196.55-212-224.53-184.23-72.5-184.23-72.5A104,104,0,0,0,629,515.55l-100.48-9.66c-14.55,0-46.6-7.45-56.67-15.78" transform="translate(0 0)"/>
    <path class="f" d="M620.45,514.71h0l-91.89-8.84c-14.55,0-46.6-7.45-56.67-15.75" transform="translate(0 0)"/>
    <path class="f" d="M333.69,768.83s31.51,17,55,55.08l259.47,189.41,29.54,21.31c47.63,28.16,117.64,53.63,124.77-30.15,43.42,15.24,85.23-7,79.16-65.87l-14-14.29c39.87,44.06,108.58.28,87.95-50.73l-27.95-23.77,27.95,23.77c37.79,19.6,54.7,10.1,73-10.27,22.83-25.42,4-67.2,4-67.2s-179.59-178.54-202-206.52c-17.53-21.93-120.59-54-164.48-66.84-12.17-3.59-7.3-2.13-7.3-2.13" transform="translate(0 0)"/>
    <path class="e" d="M540.44,1018c-18.49,20.11-44.6,22.65-64.71,4.18s-18.45-44.14,0-64.23l70-77.14c18.5-20.11,43.25-24.06,63.36-5.59s19.65,44.43,1.2,64.51Z" transform="translate(0 0)"/>
    <path class="f" d="M540.44,1018c-18.49,20.11-44.6,22.65-64.71,4.18s-18.45-44.14,0-64.23l70-77.14c18.5-20.11,43.25-24.06,63.36-5.59s19.65,44.43,1.2,64.51Z" transform="translate(0 0)"/>
    <path class="e" d="M471.89,960.24C453.8,980.69,423.78,988,403.31,970s-18.42-45-.33-65.51l83.95-93c18.09-20.44,42.86-22.72,63.33-4.63s21.39,43.63,3.31,64.1Z" transform="translate(0 0)"/>
    <path class="f" d="M471.89,960.24C453.8,980.69,423.78,988,403.31,970s-18.42-45-.33-65.51l83.95-93c18.09-20.44,42.86-22.72,63.33-4.63s21.39,43.63,3.31,64.1Z" transform="translate(0 0)"/>
    <path class="e" d="M614.3,1057.76c-19.32,19.3-43.32,22-62.64,2.67s-11.68-44,7.64-63.28l30.3-37.3c19.32-19.32,43.43-34.26,69.53-20.63,24.21,12.63,24.27,47.68,2.8,71.23Z" transform="translate(0 0)"/>
    <path class="f" d="M614.3,1057.76c-19.32,19.3-43.32,22-62.64,2.67s-11.68-44,7.64-63.28l30.3-37.3c19.32-19.32,43.43-34.26,69.53-20.63,24.21,12.63,24.27,47.68,2.8,71.23Z" transform="translate(0 0)"/>
    <path class="e" d="M420.48,883c-18.24,20.35-42.1,24.32-62.44,6.1s-14.06-43.27,4.15-63.61l26.49-30.9c18.22-20.34,46.63-35.07,66.2-18.73,21,17.53,18.45,47.32-1.69,72Z" transform="translate(0 0)"/>
    <path class="f" d="M420.48,883c-18.24,20.35-42.1,24.32-62.44,6.1s-14.06-43.27,4.15-63.61l26.49-30.9c18.22-20.34,46.63-35.07,66.2-18.73,21,17.53,18.45,47.32-1.69,72Z" transform="translate(0 0)"/>
    <path class="g" d="M248.7,594,172.07,727.67a14.54,14.54,0,0,0,5.3,19.8l92.57,53.73a14.48,14.48,0,0,0,19.9-5.36L480,463.43a14.57,14.57,0,0,0-5.41-19.86l-92.49-52.95A14.51,14.51,0,0,0,362.29,396L301.24,502.42" transform="translate(0 0)"/>
    <path class="f" d="M278.13,541.6,172.07,727.67a14.54,14.54,0,0,0,5.3,19.8l92.57,53.73a14.48,14.48,0,0,0,19.9-5.36L480,463.43a14.57,14.57,0,0,0-5.41-19.86l-92.49-52.95A14.51,14.51,0,0,0,362.29,396L301.24,502.42" transform="translate(0 0)"/>
    <path class="h" d="M278.13,708.56a17.49,17.49,0,1,1-17.5-17.5,17.49,17.49,0,0,1,17.5,17.5" transform="translate(0 0)"/>
    <path class="g" d="M1227.81,712.25l8.72,15.2a14.82,14.82,0,0,1-5.42,20.18l-93.53,54.29a13.17,13.17,0,0,1-18-4.84L928,462.23a13.18,13.18,0,0,1,4.86-18l94.92-54.36a13.19,13.19,0,0,1,18,4.89L1191.1,648.25" transform="translate(0 0)"/>
    <path class="f" d="M1208.85,679.17l27.1,47.27a16,16,0,0,1-5.85,21.77l-92.52,53.71a13.17,13.17,0,0,1-18-4.84L928,462.23a13.18,13.18,0,0,1,4.86-18l94.92-54.36a13.19,13.19,0,0,1,18,4.89L1191.1,648.25" transform="translate(0 0)"/>
    <path class="h" d="M1134,711.1a17.47,17.47,0,1,0,17.47-17.49A17.5,17.5,0,0,0,1134,711.1" transform="translate(0 0)"/>
    <path class="e" d="M914.43,493.44c-4.85.3-9.71.46-14.55.46,0,0-139.27-15.07-174.52-7.59s-63.77,18.6-92.8,47.63l-23,23.06a82.9,82.9,0,0,0-24.34,58.67v69.61c.16,35.89,6.71,56.56,34.79,56.56,50.37,0,78.53-98.35,78.53-98.35s12.29-23.7,65.74-30.28S840.57,608.93,956,724.83l74,68.79,67.94-35L943.27,490.13" transform="translate(0 0)"/>
    <path class="f" d="M914.43,493.44c-4.85.3-9.71.46-14.55.46,0,0-139.27-15.07-174.52-7.59s-63.77,18.6-92.8,47.63l-23,23.06a82.9,82.9,0,0,0-24.34,58.67v69.61c.16,35.89,6.71,56.56,34.79,56.56,50.37,0,78.53-98.35,78.53-98.35s12.29-23.7,65.74-30.28S840.57,608.93,956,724.83l74,68.79,67.94-35L943.27,490.13" transform="translate(0 0)"/>
    <line class="f" x1="927.56" y1="849.81" x2="832.31" y2="768.82"/>
    <line class="f" x1="867.57" y1="924.31" x2="774.8" y2="845.38"/>
    <line class="f" x1="802.44" y1="1004.49" x2="715.11" y2="933.96"/>
    <line class="f" x1="555.3" y1="308.79" x2="590.97" y2="394.95"/>
    <line class="f" x1="821.18" y1="308.79" x2="785.55" y2="394.95"/>
    <line class="f" x1="686.2" y1="356.37" x2="686.2" y2="256.97"/>
    <polyline class="b" points="968.42 1172.38 1047.89 1318.54 903.93 1245.45"/>
    <polyline class="i" points="929.04 1266.4 1052.68 1328.71 1010.51 1239.14"/>
  </g>
</svg>
