<svg height="512pt" viewBox="0 0 512 512.00145" width="512pt" xmlns="http://www.w3.org/2000/svg"><path d="m493.859375 405.703125-161.257813-161.230469-65.480468-65.480468-15.410156-15.398438c-6.671876-6.671875-9.902344-16.179688-8.640626-25.5 4.988282-37.890625-7.640624-75.179688-34.671874-102.328125-27.238282-27.230469-66.25-40.101563-104.28125-34.441406-8.023438 1.148437-14.613282 6.660156-17.191407 14.378906-2.582031 7.75-.609375 16.132813 5.140625 21.882813l32.398438 32.398437c4.640625 4.628906 7.179687 10.78125 7.171875 17.308594-.011719 6.492187-2.542969 12.5625-7.160157 17.160156l-10 10-9.929687 9.921875c-4.621094 4.621094-10.761719 7.167969-17.273437 7.167969h-.050782c-6.476562-.007813-12.558594-2.546875-17.167968-7.1875l-32.492188-32.382813c-5.679688-5.679687-13.960938-7.679687-21.621094-5.207031-7.699218 2.480469-13.289062 8.980469-14.589844 16.957031l-.03125.210938c-5.679687 38.109375 7.191407 77.132812 34.449219 104.378906 27.132813 27.011719 64.414063 39.640625 102.355469 34.652344 9.28125-1.25 18.800781 1.980468 25.460938 8.628906l15.308593 15.320312 65.445313 65.460938 161.394531 161.445312c6.050781 6.050782 13.050781 10.582032 20.519531 13.609376 7.480469 3.023437 15.433594 4.53125 23.390625 4.53125 15.964844 0 31.941407-6.078126 44.101563-18.25 24.230468-24.21875 24.292968-63.6875.113281-88.007813zm-43.761719 59.058594c-3.820312 0-7.632812-1.441407-10.5625-4.339844l-85.800781-85.03125c-5.882813-5.828125-5.929687-15.328125-.101563-21.207031.101563-.101563.199219-.199219.300782-.28125 5.859375-5.609375 15.132812-5.550782 20.921875.179687l85.800781 85.03125c5.882812 5.828125 5.929688 15.328125.089844 21.207031-.070313.070313-.128906.132813-.199219.191407-2.902344 2.839843-6.679687 4.25-10.449219 4.25zm0 0" fill="#0085a9"/><path d="m493.746094 493.710938-33.199219-33.199219c.070313-.058594.128906-.121094.199219-.191407 5.839844-5.878906 5.789062-15.378906-.089844-21.207031l-85.804688-85.03125c-5.789062-5.730469-15.058593-5.789062-20.917968-.179687l-239.457032-239.449219 10-10c4.617188-4.597656 7.148438-10.667969 7.160157-17.160156.007812-6.527344-2.53125-12.679688-7.171875-17.308594l-32.398438-32.398437c-5.75-5.75-7.722656-14.132813-5.140625-21.882813 2.578125-7.71875 9.167969-13.230469 17.191407-14.378906 38.027343-5.660157 77.042968 7.210937 104.28125 34.441406 27.03125 27.148437 39.660156 64.4375 34.671874 102.328125-1.261718 9.320312 1.96875 18.828125 8.640626 25.5l15.410156 15.398438 65.480468 65.480468 161.257813 161.230469c24.179687 24.320313 24.117187 63.789063-.113281 88.007813zm0 0" fill="#00608d"/><path d="m510.257812 52.484375-59.652343 119.128906c-2.4375 4.878907-7.117188 8.210938-12.519531 8.921875l-47.613282 6.296875-57.871094 57.640625-88.261718 87.898438-36.980469 36.929687-32.242187-32.1875-33.261719-33.210937 37.042969-36.988282 88.222656-87.921874 57.863281-57.660157 6.296875-47.558593c.710938-5.398438 4.050781-10.089844 8.941406-12.53125l119.304688-59.507813c6.328125-3.160156 13.929687-1.921875 18.921875 3.070313l16.390625 16.378906 12.347656 12.339844c5.011719 5.011718 6.242188 12.632812 3.070312 18.960937zm0 0" fill="#fff5ea"/><path d="m510.257812 52.484375-59.652343 119.128906c-2.4375 4.878907-7.117188 8.210938-12.519531 8.921875l-47.613282 6.296875-57.871094 57.640625-88.261718 87.898438-36.980469 36.929687-32.242187-32.1875 319.71875-315.929687 12.351562 12.339844c5.011719 5.011718 6.242188 12.632812 3.070312 18.960937zm0 0" fill="#f2e1df"/><path d="m230.21875 346.441406-32.101562-32.050781-33.398438-33.347656c-14.191406-11.082031-34.832031-10.089844-47.882812 2.949219l-93.433594 93.378906c-30.621094 30.601562-31.222656 80.390625-1.320313 110.96875 14.789063 15.128906 34.582031 23.539062 55.703125 23.660156h.46875c20.960938 0 40.652344-8.160156 55.503906-23l94.0625-94.007812c6.839844-6.832032 10.609376-15.929688 10.609376-25.601563 0-8.46875-2.890626-16.488281-8.210938-22.949219zm-72.324219 28.902344-69.960937 69.957031c-2.929688 2.933594-6.769532 4.390625-10.609375 4.390625-3.839844 0-7.679688-1.457031-10.601563-4.390625-.179687-.179687-.359375-.367187-.527344-.558593-5.320312-5.890626-5.152343-14.980469.527344-20.660157l69.953125-69.949219c5.859375-5.859374 15.363281-5.859374 21.222657 0 5.847656 5.859376 5.847656 15.351563-.003907 21.210938zm0 0" fill="#ffc837"/><path d="m238.429688 369.390625c0 9.671875-3.769532 18.773437-10.609376 25.601563l-94.066406 94.007812c-14.847656 14.839844-34.539062 23-55.5 23h-.46875c-21.121094-.117188-40.914062-8.527344-55.703125-23.660156l44.109375-43.597656c.171875.1875.351563.378906.53125.558593 2.917969 2.929688 6.761719 4.390625 10.601563 4.390625 3.839843 0 7.679687-1.460937 10.609375-4.390625l69.960937-69.960937c5.851563-5.859375 5.851563-15.347656 0-21.207032l40.222657-39.742187 32.097656 32.050781c5.324218 6.460938 8.214844 14.480469 8.214844 22.949219zm0 0" fill="#fbb13e"/></svg>