<?xml version="1.0" encoding="UTF-8"?>
<svg xmlns="http://www.w3.org/2000/svg" viewBox="0 0 64 64" width="512" height="512"><g id="creadit-card-marketing-seo-hand"><rect x="45" y="55" width="16" height="6" style="fill:#006df0"/><path d="M36,61H7a4,4,0,0,1-4-4V7A4,4,0,0,1,7,3H28a4,4,0,0,1,4,4V57A4,4,0,0,0,36,61Z" style="fill:#fee9ab"/><path d="M36,61H32a4,4,0,0,1-4-4V7a4,4,0,0,0-4-4h4a4,4,0,0,1,4,4V57A4,4,0,0,0,36,61Z" style="fill:#ffde55"/><path d="M53,15v6H11V15a2.006,2.006,0,0,1,2-2H51A2.006,2.006,0,0,1,53,15Z" style="fill:#898890"/><path d="M11,21V39a2,2,0,0,0,2,2H51a2,2,0,0,0,2-2V21Z" style="fill:#e0e0e2"/><path d="M53,15v6H49V15a2.006,2.006,0,0,0-2-2h4A2.006,2.006,0,0,1,53,15Z" style="fill:#57565c"/><path d="M53,21V39a2.006,2.006,0,0,1-2,2H47a2.006,2.006,0,0,0,2-2V21Z" style="fill:#c6c5ca"/><rect x="43" y="25" width="4" height="4" style="fill:#ff3051"/><rect x="35" y="25" width="4" height="4" style="fill:#ffde55"/><rect x="27" y="25" width="4" height="4" style="fill:#b2fa09"/><rect x="45" y="25" width="2" height="4" style="fill:#cd2a00"/><rect x="37" y="25" width="2" height="4" style="fill:#ebbf00"/><rect x="29" y="25" width="2" height="4" style="fill:#9cdd05"/><path d="M32,53v4a4,4,0,0,0,8,0V53Z" style="fill:#c0ab91"/><path d="M40,53v4a3.994,3.994,0,0,1-6,3.46A3.98,3.98,0,0,0,36,57V53Z" style="fill:#a78966"/><path d="M53,44V19l6.634,5.805A4,4,0,0,1,61,27.815V47.179a4.007,4.007,0,0,1-.323,1.576l-2.158,5.033A2,2,0,0,1,56.681,55H49.07a2,2,0,0,1-1.664-.891l-.734-1.1A4,4,0,0,1,46,50.789V45l-.82-3-1.07-3.929A3.224,3.224,0,0,1,47.22,34h0a3.222,3.222,0,0,1,3.044,2.162Z" style="fill:#ffc477"/><path d="M50.26,36.16a3.128,3.128,0,0,0-.614-1.039c-.034-.039-.067-.077-.1-.115a3.261,3.261,0,0,0-.464-.406.351.351,0,0,0-.08-.05h0A3.19,3.19,0,0,0,47.22,34a3.23,3.23,0,0,0-1.52.38,1.522,1.522,0,0,1,.3.17.351.351,0,0,1,.08.05,3.172,3.172,0,0,1,1.18,1.56L50,44h3Z" style="fill:#ffb655"/><path d="M61,27.82V47.18a4.007,4.007,0,0,1-.32,1.57l-2.16,5.04A2.014,2.014,0,0,1,56.68,55h-3a2.014,2.014,0,0,0,1.84-1.21l2.16-5.04A4.007,4.007,0,0,0,58,47.18V27.82a4.008,4.008,0,0,0-1.37-3.02L53,21.62V19l6.63,5.8A4.008,4.008,0,0,1,61,27.82Z" style="fill:#ffb655"/><path d="M27,30h4a1,1,0,0,0,1-1V25a1,1,0,0,0-1-1H27a1,1,0,0,0-1,1v4A1,1,0,0,0,27,30Zm1-4h2v2H28Z"/><path d="M35,30h4a1,1,0,0,0,1-1V25a1,1,0,0,0-1-1H35a1,1,0,0,0-1,1v4A1,1,0,0,0,35,30Zm1-4h2v2H36Z"/><path d="M48,29V25a1,1,0,0,0-1-1H43a1,1,0,0,0-1,1v4a1,1,0,0,0,1,1h4A1,1,0,0,0,48,29Zm-2-1H44V26h2Z"/><path d="M62,47.18V27.82a4.988,4.988,0,0,0-1.71-3.77L54,18.55V15a3.009,3.009,0,0,0-3-3H33V7a5,5,0,0,0-5-5H7A5,5,0,0,0,2,7V57a5,5,0,0,0,5,5H36a5,5,0,0,0,5-5V53a1,1,0,0,0-1-1H33V42H44.15l.74,2.75a2.955,2.955,0,0,1,.11.79v5.25a4.959,4.959,0,0,0,.84,2.77l.29.44H45a1,1,0,0,0-1,1v6a1,1,0,0,0,1,1H61a1,1,0,0,0,1-1V55a1,1,0,0,0-1-1H59.52l2.08-4.85A5.137,5.137,0,0,0,62,47.18ZM51,14a1,1,0,0,1,1,1v5H12V15a1,1,0,0,1,1-1ZM7,60a3.009,3.009,0,0,1-3-3V7A3.009,3.009,0,0,1,7,4H28a3.009,3.009,0,0,1,3,3v5H13a3.009,3.009,0,0,0-3,3V39a3.009,3.009,0,0,0,3,3H31V57a4.924,4.924,0,0,0,1.03,3Zm32-6v3a3,3,0,0,1-6,0V54Zm4.86-19.34a4.218,4.218,0,0,0-.71,3.68L43.6,40H13a1,1,0,0,1-1-1V22H52V38.1l-.79-2.27a4.229,4.229,0,0,0-7.35-1.17ZM60,56v4H46V56Zm0-8.82a2.964,2.964,0,0,1-.24,1.18L57.34,54h-8.8L47.5,52.45a2.97,2.97,0,0,1-.5-1.66V45.54a4.888,4.888,0,0,0-.18-1.32l-1.74-6.41a2.208,2.208,0,0,1,.37-1.94,2.229,2.229,0,0,1,3.87.62l2.74,7.84A1,1,0,0,0,54,44V21.2l4.98,4.36A3,3,0,0,1,60,27.82Z"/><path d="M19,28a1,1,0,0,1,1,1h2a3,3,0,0,0-2-2.816V25H18v1.184A2.993,2.993,0,0,0,19,32a1,1,0,1,1-1,1H16a3,3,0,0,0,2,2.816V37h2V35.816A2.993,2.993,0,0,0,19,30a1,1,0,0,1,0-2Z"/><rect x="26" y="32" width="15" height="2"/><rect x="26" y="36" width="15" height="2"/><rect x="8" y="46" width="4" height="2"/><rect x="14" y="46" width="13" height="2"/><rect x="8" y="52" width="4" height="2"/><rect x="14" y="52" width="13" height="2"/></g></svg>
