<svg xmlns="http://www.w3.org/2000/svg" xmlns:xlink="http://www.w3.org/1999/xlink" width="297.882" height="127.431" viewBox="0 0 297.882 127.431">
  <defs>
    <linearGradient id="linear-gradient" x1="-0.017" y1="0.805" x2="1" y2="0.611" gradientUnits="objectBoundingBox">
      <stop offset="0" stop-color="#fff"/>
      <stop offset="0.271" stop-color="#f7f7f7" stop-opacity="0.212"/>
      <stop offset="0.7" stop-color="#fff"/>
      <stop offset="1" stop-color="#9f9999"/>
    </linearGradient>
    <linearGradient id="linear-gradient-2" y1="0.5" x2="1.051" y2="0.46" gradientUnits="objectBoundingBox">
      <stop offset="0" stop-color="#fff" stop-opacity="0.09"/>
      <stop offset="0.493" stop-color="#fff"/>
      <stop offset="0.522" stop-color="#fff" stop-opacity="0.686"/>
      <stop offset="1" stop-color="#fff" stop-opacity="0.11"/>
    </linearGradient>
    <linearGradient id="linear-gradient-3" x1="-0.009" y1="0.719" x2="1.043" y2="0.617" gradientUnits="objectBoundingBox">
      <stop offset="0" stop-color="#fff"/>
      <stop offset="0.581" stop-color="#bababa"/>
      <stop offset="1" stop-color="#fff"/>
    </linearGradient>
    <linearGradient id="linear-gradient-4" x1="-0.092" y1="0.469" x2="0.909" y2="0.403" gradientUnits="objectBoundingBox">
      <stop offset="0" stop-color="#fff"/>
      <stop offset="0.453" stop-color="#fff"/>
      <stop offset="1" stop-color="#d1a1a1"/>
    </linearGradient>
  </defs>
  <g id="pricing-bg" transform="translate(0.002 -0.049)" style="isolation: isolate">
    <g id="Group_3" data-name="Group 3">
      <g id="Group_1" data-name="Group 1">
        <path id="Path_1" data-name="Path 1" d="M7.14,99.64l-1.4-.54C16.85,70.17,51.5,52.62,81.4,60.77a144.5,144.5,0,0,1,16.77,6.16c12.57,5.22,24.44,10.15,36.59,6.43,7-2.15,12.85-7.08,18.49-11.85,4.91-4.14,10-8.43,15.92-11,14.51-6.37,30.69-1.75,46.34,2.71,16.6,4.74,32.28,9.22,46.36,1.94A31.08,31.08,0,0,0,278.25,31.5c1.132-10.1,2.7-10.42,1.51.18a32.59,32.59,0,0,1-17.18,24.81C248,64,231.25,59.25,215.09,54.64c-15.39-4.4-31.3-8.94-45.32-2.79C164,54.37,159,58.58,154.22,62.66c-5.75,4.86-11.7,9.89-19,12.14-12.66,3.88-25.33-1.39-37.6-6.48A139.856,139.856,0,0,0,81,62.22C51.81,54.26,18,71.4,7.14,99.64Z" fill="url(#linear-gradient)"/>
        <path id="Path_2" data-name="Path 2" d="M3.08,123c5.16-8.89,14.54-14.28,24.51-19.46C36.38,99,46.35,93.8,51.84,85c3-4.86,4.52-10.59,6-16.13.55-2.1,1.12-4.27,1.76-6.38,3.07-10,7.91-16.45,14.38-19.11,8.47-3.47,17.86.54,22.69,3.24,2.74,1.52,5.37,3.29,7.93,5a77.2,77.2,0,0,0,11.72,6.88,38.85,38.85,0,0,0,39.62-5.63c6.77-5.64,11.38-13.48,15.83-21.06,3.91-6.65,8-13.53,13.48-19C201.43-3.34,249.7-4.31,266.9,10.75l-1,1.13c-16.64-14.57-64-13.63-79.61,2C180.88,19.21,176.89,26,173,32.57c-4.53,7.69-9.2,15.65-16.17,21.45a40.39,40.39,0,0,1-41.19,5.85,78.1,78.1,0,0,1-12-7c-2.52-1.69-5.14-3.44-7.82-4.93-4.6-2.57-13.5-6.39-21.39-3.16-6,2.48-10.58,8.59-13.51,18.16-.64,2.08-1.2,4.23-1.74,6.32-1.48,5.65-3,11.49-6.15,16.54-5.7,9.15-15.87,14.43-24.83,19.09-10.14,5.27-18.94,10.33-23.9,18.89C1.37,129.03-.1,128.622,3.08,123Z" fill="url(#linear-gradient-2)"/>
      </g>
      <g id="Group_2" data-name="Group 2" opacity="0.4" style="mix-blend-mode: color-burn;isolation: isolate">
        <path id="Path_3" data-name="Path 3" d="M.6,103.39C-2.46,91.05,6.62,79,17.17,74.44c9.53-4.1,21.31-4.07,35,.09,5.57,1.68,11.05,3.87,16.35,6s11,4.42,16.73,6.11c13.37,4,24.79,3.9,34-.22,6.3-2.83,11.58-7.65,16.69-12.3S146.48,64.48,153,61.55c14-6.3,30.54-2.29,43.39,1.9,1.66.54,3.33,1.1,5,1.66,12.17,4.08,24.76,8.29,37.39,6.74,13.74-1.68,27.44-10.6,37.57-24.47C285.54,34.79,291.1,20,296.47,5.59l1.41.53c-5.41,14.45-11,29.39-20.32,42.14C267.18,62.47,253.11,71.61,239,73.34c-13,1.59-25.73-2.68-38.06-6.81q-2.49-.84-5-1.65c-12.6-4.11-28.79-8-42.31-2-6.29,2.83-11.57,7.64-16.68,12.29s-10.57,9.64-17.09,12.57c-9.5,4.27-21.28,4.37-35,.28-5.75-1.71-11.39-4-16.86-6.15-5.27-2.1-10.72-4.28-16.22-6-13.37-4-24.8-4.1-34-.14C7.79,80.11-.81,91.46,2.06,103Z" fill="url(#linear-gradient-3)"/>
        <path id="Path_4" data-name="Path 4" d="M40.19,121.81a62.18,62.18,0,0,1-21.95-3.9l.53-1.4C46.14,126.8,80,115.59,95.77,91a148.648,148.648,0,0,0,9-17.33c6.14-13.1,12.46-26.67,25.57-32.57,11.87-5.37,24.95-2.4,37.59.47,8.75,2,17.79,4,26.52,3.42,7.64-.54,15.05-3.16,22.23-5.7,6.09-2.15,12.39-4.37,18.88-5.37a105.477,105.477,0,0,1,15-.84c3.54,0,7.19-.06,10.75-.36,7.09-.59,16.76-2.73,22.56-9.61,3-3.673,4.419-3.032,1.13.97-4.86,5.75-13,9.26-23.59,10.14-3.61.3-7.29.33-10.86.36a104.829,104.829,0,0,0-14.8.82c-6.35,1-12.59,3.18-18.61,5.31-7.27,2.57-14.79,5.22-22.62,5.78-8.95.64-18.11-1.44-27-3.46-13-2.94-25.23-5.73-36.64-.56-12.6,5.7-18.53,18.39-24.8,31.82A149.57,149.57,0,0,1,97,91.8C84.92,110.65,62.46,121.81,40.19,121.81Z" fill="url(#linear-gradient-4)"/>
      </g>
    </g>
  </g>
</svg>
