<svg xmlns="http://www.w3.org/2000/svg" xmlns:xlink="http://www.w3.org/1999/xlink" viewBox="0 0 297.88 151.26">
  <defs>
    <style>
      .a {
        isolation: isolate;
      }

      .b {
        fill: url(#a);
      }

      .c {
        fill: url(#b);
      }

      .d {
        opacity: 0.4;
        mix-blend-mode: color-burn;
      }

      .e {
        fill: url(#c);
      }

      .f {
        fill: url(#d);
      }
    </style>
    <linearGradient id="a" x1="5.74" y1="51.58" x2="279.96" y2="51.58" gradientUnits="userSpaceOnUse">
      <stop offset="0" stop-color="#FFF"/>
      <stop offset="0.03" stop-color="#fddb7e"/>
      <stop offset="0.1" stop-color="#e9bc65"/>
      <stop offset="0.19" stop-color="#d2994a"/>
      <stop offset="0.24" stop-color="#c98c3f"/>
      <stop offset="0.3" stop-color="#dca956"/>
      <stop offset="0.39" stop-color="#fddb7e"/>
      <stop offset="0.47" stop-color="#fee998"/>
      <stop offset="0.52" stop-color="#FFF"/>
      <stop offset="0.69" stop-color="#fddb7e"/>
      <stop offset="0.71" stop-color="#f3cb71"/>
      <stop offset="0.75" stop-color="#dca956"/>
      <stop offset="0.79" stop-color="#ce9445"/>
      <stop offset="0.81" stop-color="#c98c3f"/>
      <stop offset="0.87" stop-color="#dca956"/>
      <stop offset="0.96" stop-color="#fddb7e"/>
      <stop offset="0.98" stop-color="#fee793"/>
      <stop offset="1" stop-color="#ffefa0"/>
    </linearGradient>
    <linearGradient id="b" x1="0.01" y1="75.63" x2="247.86" y2="75.63" xlink:href="#a"/>
    <linearGradient id="c" x1="-731.47" y1="-3047.61" x2="-433.59" y2="-3047.61" gradientTransform="translate(-433.59 -2993.12) rotate(180)" xlink:href="#a"/>
    <linearGradient id="d" x1="-722.96" y1="-3054.05" x2="-451.83" y2="-3054.05" gradientTransform="translate(-433.59 -2993.12) rotate(180)" xlink:href="#a"/>
  </defs>
  <g class="a">
    <g>
      <g>
        <path class="b" d="M7.14,99.64l-1.4-.54C16.85,70.17,51.5,52.62,81.4,60.77a144.5,144.5,0,0,1,16.77,6.16c12.57,5.22,24.44,10.15,36.59,6.43,7-2.15,12.85-7.08,18.49-11.85,4.91-4.14,10-8.43,15.92-11,14.51-6.37,30.69-1.75,46.34,2.71,16.6,4.74,32.28,9.22,46.36,1.94a31.08,31.08,0,0,0,16.38-23.66,31.06,31.06,0,0,0-10.4-26.82l1-1.14a32.6,32.6,0,0,1,10.91,28.14,32.59,32.59,0,0,1-17.18,24.81C248,64,231.25,59.25,215.09,54.64c-15.39-4.4-31.3-8.94-45.32-2.79C164,54.37,159,58.58,154.22,62.66c-5.75,4.86-11.7,9.89-19,12.14-12.66,3.88-25.33-1.39-37.6-6.48A139.86,139.86,0,0,0,81,62.22C51.81,54.26,18,71.4,7.14,99.64Z"/>
        <path class="c" d="M9.24,151.26A15.45,15.45,0,0,1,1,141.49,23.7,23.7,0,0,1,3.08,123c5.16-8.89,14.54-14.28,24.51-19.46C36.38,99,46.35,93.8,51.84,85c3-4.86,4.52-10.59,6-16.13.55-2.1,1.12-4.27,1.76-6.38,3.07-10,7.91-16.45,14.38-19.11,8.47-3.47,17.86.54,22.69,3.24,2.74,1.52,5.37,3.29,7.93,5a77.2,77.2,0,0,0,11.72,6.88,38.85,38.85,0,0,0,39.62-5.63c6.77-5.64,11.38-13.48,15.83-21.06,3.91-6.65,8-13.53,13.48-19,16.18-16.15,45.45-17.12,62.65-2.06l-1,1.13c-16.64-14.57-45-13.63-60.61,2C180.88,19.21,176.89,26,173,32.57c-4.53,7.69-9.2,15.65-16.17,21.45a40.39,40.39,0,0,1-41.19,5.85,78.1,78.1,0,0,1-12-7c-2.52-1.69-5.14-3.44-7.82-4.93-4.6-2.57-13.5-6.39-21.39-3.16-6,2.48-10.58,8.59-13.51,18.16-.64,2.08-1.2,4.23-1.74,6.32-1.48,5.65-3,11.49-6.15,16.54-5.7,9.15-15.87,14.43-24.83,19.09-10.14,5.27-18.94,10.33-23.9,18.89A22.13,22.13,0,0,0,2.45,141a14.14,14.14,0,0,0,7.41,8.87Z"/>
      </g>
      <g class="d">
        <path class="e" d="M.6,103.39C-2.46,91.05,6.62,79,17.17,74.44c9.53-4.1,21.31-4.07,35,.09,5.57,1.68,11.05,3.87,16.35,6s11,4.42,16.73,6.11c13.37,4,24.79,3.9,34-.22,6.3-2.83,11.58-7.65,16.69-12.3S146.48,64.48,153,61.55c14-6.3,30.54-2.29,43.39,1.9,1.66.54,3.33,1.1,5,1.66,12.17,4.08,24.76,8.29,37.39,6.74,13.74-1.68,27.44-10.6,37.57-24.47C285.54,34.79,291.1,20,296.47,5.59l1.41.53c-5.41,14.45-11,29.39-20.32,42.14C267.18,62.47,253.11,71.61,239,73.34c-13,1.59-25.73-2.68-38.06-6.81q-2.49-.84-5-1.65c-12.6-4.11-28.79-8-42.31-2-6.29,2.83-11.57,7.64-16.68,12.29s-10.57,9.64-17.09,12.57c-9.5,4.27-21.28,4.37-35,.28-5.75-1.71-11.39-4-16.86-6.15-5.27-2.1-10.72-4.28-16.22-6-13.37-4-24.8-4.1-34-.14C7.79,80.11-.81,91.46,2.06,103Z"/>
        <path class="f" d="M40.19,121.81a62.18,62.18,0,0,1-21.95-3.9l.53-1.4C46.14,126.8,80,115.59,95.77,91a148.65,148.65,0,0,0,9-17.33C110.91,60.57,117.23,47,130.34,41.1c11.87-5.37,24.95-2.4,37.59.47,8.75,2,17.79,4,26.52,3.42,7.64-.54,15.05-3.16,22.23-5.7,6.09-2.15,12.39-4.37,18.88-5.37a105.48,105.48,0,0,1,15-.84c3.54,0,7.19-.06,10.75-.36,7.09-.59,16.76-2.73,22.56-9.61A17.69,17.69,0,0,0,287.75,10,12.25,12.25,0,0,0,283,1.28l.88-1.22a13.79,13.79,0,0,1,5.39,9.71A19.27,19.27,0,0,1,285,24.08c-4.86,5.75-13,9.26-23.59,10.14-3.61.3-7.29.33-10.86.36a104.83,104.83,0,0,0-14.8.82c-6.35,1-12.59,3.18-18.61,5.31-7.27,2.57-14.79,5.22-22.62,5.78-8.95.64-18.11-1.44-27-3.46-13-2.94-25.23-5.73-36.64-.56-12.6,5.7-18.53,18.39-24.8,31.82A149.57,149.57,0,0,1,97,91.8C84.92,110.65,62.46,121.81,40.19,121.81Z"/>
      </g>
    </g>
  </g>
</svg>
