<svg xmlns="http://www.w3.org/2000/svg" width="467.195" height="313.948" viewBox="0 0 467.195 313.948">
  <g id="Mail_Sending" data-name="Mail Sending" transform="translate(-372.838 -424.966)">
    <g id="Group_44" data-name="Group 44" transform="translate(350 425.971)">
      <g id="Group_39" data-name="Group 39" transform="translate(0 0)">
        <path id="Path_20" data-name="Path 20" d="M451.413,427.729c.085.514-2.058-6.592,49.382,158.418a1.477,1.477,0,0,0,1.821.979l80.779-23.443,72.02,63.593a1.469,1.469,0,0,0,2.245-.354c.249-.373-1.246,6.012,19.608-90.482l71.312-20.7a1.478,1.478,0,0,0,0-2.835L453.172,426A1.469,1.469,0,0,0,451.413,427.729ZM455.6,431.3,618.5,550.41,503.183,583.885ZM586.76,562.716l34.22-9.942,31.147,67.669Zm69.127,58.829c-33.749-73.3-32.732-71.435-33.215-71.726v-.02L466.836,435.841,674.316,536.1Zm20.252-87.855L469.652,433.932l-.036-.018,273.288,80.4Z" transform="translate(-427.538 -425.971)" fill="#8e8efc" stroke="#8e8efc" stroke-width="2"/>
        <g id="Group_45" data-name="Group 45" transform="translate(775.408 -18.99) rotate(114)">
          <path id="Path_21" data-name="Path 21" d="M2009.216,1333.367a.96.96,0,1,0,1.753-.78l-24.489-55.017a.96.96,0,1,0-1.753.78Z" transform="translate(-1623.019 -1091.505)" fill="#8e8efc" stroke="#8e8efc" stroke-width="2"/>
          <path id="Path_22" data-name="Path 22" d="M1908.906,1108.02a.96.96,0,1,0,1.753-.781l-3.491-7.842a.96.96,0,0,0-1.753.781Z" transform="translate(-1555.832 -940.569)" fill="#8e8efc" stroke="#8e8efc" stroke-width="2"/>
          <path id="Path_23" data-name="Path 23" d="M1868.636,1574.5l26.406,16.81a.96.96,0,1,0,1.031-1.619l-26.406-16.81a.96.96,0,0,0-1.031,1.619Z" transform="translate(-1524.368 -1342.029)" fill="#8e8efc" stroke="#8e8efc" stroke-width="2"/>
          <path id="Path_24" data-name="Path 24" d="M1707.284,1466.932a.96.96,0,0,0,.272,1.33l6.376,4.2a.96.96,0,0,0,1.057-1.6l-6.375-4.2A.961.961,0,0,0,1707.284,1466.932Z" transform="translate(-1387.924 -1252.037)" fill="#8e8efc" stroke="#8e8efc" stroke-width="2"/>
          <path id="Path_25" data-name="Path 25" d="M2248.279,1418.578a.961.961,0,0,0,.935-.744l7.859-34.008a.96.96,0,0,0-1.871-.432l-7.859,34.008A.96.96,0,0,0,2248.279,1418.578Z" transform="translate(-1845.539 -1181.005)" fill="#8e8efc" stroke="#8e8efc" stroke-width="2"/>
          <path id="Path_26" data-name="Path 26" d="M2328.294,1222.956a.96.96,0,0,0,1.152-.719l1.539-6.66a.96.96,0,0,0-1.871-.432l-1.539,6.66A.96.96,0,0,0,2328.294,1222.956Z" transform="translate(-1913.506 -1038.475)" fill="#8e8efc" stroke="#8e8efc" stroke-width="2"/>
        </g>
      </g>
      <g id="Group_43" data-name="Group 43" transform="matrix(-0.799, 0.602, -0.602, -0.799, 387.528, 244.443)">
        <g id="Group_42" data-name="Group 42">
          <path id="Path_28" data-name="Path 28" d="M561.631,1517.571a2.953,2.953,0,0,1-1.464-3.912,57.65,57.65,0,0,0-25.23-74.844c-4.757,16.069-18.428,25.941-31.556,26.356-9.984.315-21.458-6.062-22.564-16.915-.707-6.934,3.387-14.292,10.19-18.308,10.99-6.489,27.758-4.318,39.628.367a50.033,50.033,0,0,0-2.591-21.388c-9.334-27.655-40.067-45.871-68.514-40.607a2.953,2.953,0,1,1-1.075-5.808c31.221-5.778,64.948,14.2,75.186,44.527a55.219,55.219,0,0,1,2.617,25.81,64.205,64.205,0,0,1,25.76,23.717c10.8,17.789,9.744,43.8,1.118,62.737C562.452,1520.8,561.631,1517.571,561.631,1517.571Zm-67.621-82.537c-4.04,2.385-7.869,7.213-7.317,12.622.737,7.235,9.1,11.846,16.5,11.612,11.007-.348,22.551-8.949,26.335-23.036C519.324,1431.978,503.527,1429.415,494.01,1435.035Z" transform="translate(-456.038 -1361.517)" fill="#8e8eff"/>
        </g>
      </g>
    </g>
  </g>
</svg>
