<svg xmlns="http://www.w3.org/2000/svg" width="1037.402" height="313.309" viewBox="0 0 1037.402 313.309">
  <g id="Group_1" data-name="Group 1" transform="translate(-481.299 -493.348)">
    <path id="Path_1" data-name="Path 1" d="M1357.637,676.592q0-26.426,15.369-42.425,15.381-15.948,39.1-15.931,21.78,0,38.537,16.344c11.148,10.906,16.688,24.877,16.688,42.012s-5.54,31.058-16.688,41.816q-16.774,16.155-38.537,16.16-23.742,0-39.1-15.769-15.381-15.759-15.369-42.207m135.4-183.244h-25.7V594.885q-25.651-21.384-64.172-21.4-38.141,0-66.728,29.4-28.593,29.367-28.581,73.713t28.385,73.529q28.388,29.195,66.924,29.178,38.142,0,64.172-20.989v15.162H1518.7V519.016A25.75,25.75,0,0,0,1493.032,493.348Zm-658.6,189.666-26.976,16.207a2.287,2.287,0,0,0,2.373,3.91l60.88-36.575V666.4l11.562-6.985a44.023,44.023,0,0,1,3.2-9.714,52.364,52.364,0,0,1,20.668-23.351,48.29,48.29,0,0,1,29.293-7.18,38.831,38.831,0,0,1,9.943,2.122c6.492,2.248,12.686,6.273,18.58,12.02L840.416,707.971,801.649,731.38l-50.293,30.4v2.065L690.58,800.482a2.288,2.288,0,1,0,2.374,3.911l64.183-38.7.056-.022,63.3-38.228a2.34,2.34,0,0,1,3.143.781,2.306,2.306,0,0,1-.78,3.154L743.729,779.3v12.2l55.764-33.823a2.282,2.282,0,0,1,2.351,3.911l-19.268,11.64-.047.024-48.3,29.154a2.311,2.311,0,0,0-.791,3.155,2.282,2.282,0,0,0,3.143.757l14.772-8.912v6.411l50.259-30.347.034-.023,56.281-33.995q21.8,28.886,55.167,37.15l2.087.492c2.615.6,5.254,1.089,7.857,1.491l.023.034c32.928,5.059,65.031-6.777,95.023-32.469,6.664-5.792,13-12.054,19.12-18.523,14.795-15.689,28.111-32.652,41.816-49.272,21.162-25.61,46.749-60.121,83.292-60.121a52.285,52.285,0,0,1,35.486,13.545c1.031.9,2.041,1.824,3.051,2.8,11.147,10.906,16.721,24.877,16.721,42.012s-5.574,31.058-16.721,41.816c-21.4,20.645-56.315,22.25-77.637.391q-15.346-15.759-15.369-42.207a76.2,76.2,0,0,1,1.525-15.576c-49,51.692-10.654,117.032,44,118.283,25.428.6,46.83-6.985,64.206-20.989v15.162h51.337V519.016a25.728,25.728,0,0,0-25.668-25.668h-25.669V594.885a90.552,90.552,0,0,0-11.446-8.11q-22.4-13.3-52.76-13.292a91.772,91.772,0,0,0-19.027,1.951c-46.313,12.156-78.53,58.468-107.25,93.244-18.764,22.765-37.412,44-58.012,56.371-1.02.677-2.076,1.353-3.154,2.008a47.705,47.705,0,0,1-10.906,4.873,45.525,45.525,0,0,1-22.24.792q-17.84-3.561-31.8-19.2L1027.606,637.2l-9.026-14.99q-2.941-4.526-6.125-8.591-22.467-29.04-56.555-37.01-28.953-6.762-55.224,2.912a26.565,26.565,0,1,0-29.947,17.054q-25.788,20.544-33.87,53.126A96.629,96.629,0,0,0,834.429,683.014Zm-32.78-18.03c0-50.957-41.7-92.67-92.661-92.67a92.38,92.38,0,0,0-67.5,29.361,92.454,92.454,0,0,0-67.531-29.361c-50.958,0-92.661,41.713-92.661,92.67V773.208h25.152A25.224,25.224,0,0,0,531.6,748.079V664.984a42.362,42.362,0,1,1,84.724,0c0,36.358.217,72.05.217,108.224H641.7a25.224,25.224,0,0,0,25.153-25.129c0-27.928-.206-55.3-.206-83.095a42.356,42.356,0,1,1,84.712,0v68.139l-40.715,24.442a2.286,2.286,0,1,0,2.35,3.921l38.365-23.029v.08l20.851-12.617,1.664-1.009,27.778-16.779Z" fill="#EEE" fill-rule="evenodd"/>
  </g>
</svg>
