<svg xmlns="http://www.w3.org/2000/svg" viewBox="0 0 1806.48 448.16">
  <defs>
    <style>
      .a, .d {
        fill: #79b52b;
      }

      .a, .b {
        fill-rule: evenodd;
      }

      .b, .c {
        fill: #FFF;
      }
    </style>
  </defs>
  <g>
    <polygon class="a" points="782.05 169.4 1062.2 169.45 1063.14 276.14 782.05 276.09 782.05 169.4"/>
    <polygon class="b" points="485.04 3.96 870.96 3.96 870.96 98.74 629.76 98.74 629.76 169.37 741.24 169.39 741.24 276.08 630.69 276.06 629.76 347.17 878.13 347.17 878.13 447.53 485.04 447.53 485.04 3.96"/>
    <polygon class="b" points="0 4.58 134.61 4.58 309.64 249.5 309.64 4.58 445.89 4.58 445.89 448.16 309.64 448.16 135.59 204.58 135.59 448.16 0 448.16 0 4.58"/>
    <polygon class="b" points="1367.76 1.11 1806.48 1.11 1806.48 110.76 1659.15 110.76 1659.15 444.68 1515.09 444.68 1515.09 110.76 1367.76 110.76 1367.76 1.11"/>
    <polygon class="c" points="1145.11 344.74 1208.25 443.58 1369.28 443.58 1221.01 226.39 1145.11 344.74"/>
    <polygon class="c" points="1354.93 0 1195.88 0 1144.38 79.15 1221.01 192.03 1354.93 0"/>
    <polygon class="d" points="899.83 0.4 1058.89 0.4 1195.63 210.56 1046.51 443.98 885.49 443.98 1046.4 212.79 899.83 0.4"/>
  </g>
</svg>
