<svg xmlns="http://www.w3.org/2000/svg" viewBox="0 0 4129.18 1232.89">
  <defs>
    <style>
      .a {
        fill: #eee;
      }
    </style>
  </defs>
  <g>
    <path class="a" d="M1242.45,0h305.49l-297,834.66q-98.81,279.44-406.11,279.42H231.41q-306.1,0-207.3-279.42l197.59-557Q320.51,0,627.82,0H817.54L569.63,699.48q-54,150.94,64.25,150.93T806,699.48l168.51-477Q1053.31,0,1242.45,0Z"/>
    <path class="a" d="M2336.17,1103.18q-63.65,17.58-140,17.57H1582.74q-306.1,0-206.09-281.24l199.42-560.07Q1675.48,0,1982.79,0h614.63q305.49,0,206.09,279.44l-200,560.07Q2558,966.79,2470.74,1035.9l89.1,101.83-110.32,95.16ZM2164.63,686.76l101.83-286.1q53.34-151.53-64.85-151.54T2030.07,400.66L1922.18,703.73q-54,151.54,64.25,151.54,57.57,0,100.61-36.37L2007,728l110.32-95.15Z"/>
    <path class="a" d="M3250,620.08l-9.09-16.36-157,439.45q-5.45,15.16,6.07,17h21.21L3089.36,1122H2717.19q-89.1,0-58.79-84.86L3001.47,75.77Q3013.59,20,2965.1,0h946.8q280.63,0,198.81,228.51L4061,366.11q-84.26,235.8-366.71,235.79H3627l234,459.45q30.9,60.63-50.31,60.62H3504ZM3530,140q-118.18,0-146.68,80l-57.58,160.63q-28.5,80.63,89.71,80.61t146.68-80.61L3619.73,220Q3648.21,140,3530,140Z"/>
  </g>
</svg>
