<svg xmlns="http://www.w3.org/2000/svg" xmlns:xlink="http://www.w3.org/1999/xlink" viewBox="0 0 2631.92 645.42">
  <defs>
    <style>
      .a {
        fill: url(#a);
      }

      .b {
        fill: url(#b);
      }

      .c {
        fill: url(#c);
      }

      .d {
        fill: url(#d);
      }

      .e {
        fill: url(#e);
      }

      .f {
        fill: url(#f);
      }

      .g {
        fill: url(#g);
      }

      .h {
        fill: url(#h);
      }

      .i {
        fill: url(#i);
      }
    </style>
    <linearGradient id="a" data-name="ÕÓ‚˚È Ó·‡ÁÂˆ „‡‰ËÂÌÚ‡ 9" x1="194.5" y1="253.66" x2="194.5" y2="646.22" gradientUnits="userSpaceOnUse">
      <stop offset="0" stop-color="#00adee"/>
      <stop offset="0.53" stop-color="#1b75bb"/>
      <stop offset="1" stop-color="#232b79"/>
    </linearGradient>
    <linearGradient id="b" x1="598.88" y1="267.03" x2="598.88" y2="630.76" xlink:href="#a"/>
    <linearGradient id="c" x1="949.14" y1="267.03" x2="949.14" y2="630.76" xlink:href="#a"/>
    <linearGradient id="d" x1="1178.07" y1="373.63" x2="1178.07" y2="633.74" xlink:href="#a"/>
    <linearGradient id="e" x1="1173.87" y1="85.54" x2="1173.87" y2="620.35" xlink:href="#a"/>
    <linearGradient id="f" x1="1454.38" y1="267.03" x2="1454.38" y2="630.76" xlink:href="#a"/>
    <linearGradient id="g" x1="1844.85" y1="267.03" x2="1844.85" y2="630.76" xlink:href="#a"/>
    <linearGradient id="h" x1="2187.94" y1="267.03" x2="2187.94" y2="630.76" xlink:href="#a"/>
    <linearGradient id="i" x1="2489.43" y1="267.03" x2="2489.43" y2="630.76" xlink:href="#a"/>
  </defs>
  <g>
    <path class="a" d="M194.5,250.31a193.67,193.67,0,0,0-92.92,23.59V158.18c0-25.34-24-45.83-45.3-45.83h-11C24,112.35,0,129.91,0,158.18V441.9c0,.32,0,.64,0,1,0,.65,0,1.29,0,1.94,0,107.42,87.08,194.5,194.5,194.5S389,552.23,389,444.81,301.92,250.31,194.5,250.31Z"/>
    <path class="b" d="M432.09,312.89q0-25.87,14.69-41.62t36.71-15.73q22.38,0,36.37,15.73,13.64,15.41,13.64,41.62V495.41q0,29.73,19.75,46.51t46.33,16.78a66,66,0,0,0,45.11-17q19.23-16.95,19.23-46.33V312.89q0-25.87,14.51-41.62T715,255.54q22.72,0,36.72,15.73,14,15.41,14,41.62V496.81q0,45.1-19,78.68t-56.82,51.4q-37.42,18.52-89.52,18.53-79.72,0-124-40T432.09,496.81Z"/>
    <path class="c" d="M1082.54,325.12a44.64,44.64,0,0,1-12.06,31.3q-12.06,13.11-29.55,13.11-7,0-29.72-10.14-20.64-9.09-29.72-12.76a90.57,90.57,0,0,0-16.26-5.07,83.58,83.58,0,0,0-15.91-1.4q-14.34,0-23.78,7-9.09,7-9.09,21,0,15,29,28,23.43,10.14,45.63,19.58a393.75,393.75,0,0,1,42.31,21,163.37,163.37,0,0,1,34.45,25.87q23.78,24.13,23.77,63.64,0,33.57-18,60.84t-51.23,42.66q-33.23,15.39-75.88,15.39-29,0-62.06-10.32T829,606.61q-22.38-18.18-22.37-39.52,0-14,12.58-29.37Q831.48,522,851.06,522q17.49,0,49,17.48Q919.6,550,931.14,553.11a90.21,90.21,0,0,0,23.77,3.14q40.22,0,40.22-28.67,0-15-30.08-28.32-20.62-8.4-42.83-18a456.89,456.89,0,0,1-43.53-21.68q-21.33-12.06-35-26.4Q819.6,409,819.59,369.53q0-35,17.31-62.24T885.33,265q31.13-15,71-15,26.24,0,55.77,8.74t50,26.05Q1082.54,302,1082.54,325.12Z"/>
    <path class="d" d="M1126.67,312.89q0-25.87,14.86-41.44t36.89-15.56q22.72,0,36.72,15.38,14.33,15.41,14.33,41.62V584.23q0,25.53-14.33,40.91-14,16.08-36.72,16.08-21.69,0-36.71-15.91t-15-41.08Z"/>
    <path class="e" d="M1173.87,0A110.56,110.56,0,0,0,1109,200.07c.71.52,5.88,4,5.88,4l1.17,54.53,47.49-37.9s6.21.42,10.35.43a110.43,110.43,0,0,0,104.25-73.7c.31-.86.6-1.72.88-2.59a111,111,0,0,0,0-68.53c-.28-.87-.57-1.73-.88-2.59A110.57,110.57,0,0,0,1173.87,0Z"/>
    <path class="f" d="M1287.59,312.89q0-25.87,14.68-41.62T1339,255.54q42.3,0,46.5,38.11,29.37-43.69,99-43.7,38.82,0,70.11,16.6a119.34,119.34,0,0,1,49,48.08q17.65,31.47,17.66,73.43V584.23q0,25.53-14,40.91-14,16.08-36.71,16.08-22,0-36.54-15.91t-14.51-41.08V406.6q0-34.62-18-52.63t-47-18Q1425,336,1407,356.07t-18,50.53V584.23q0,25.53-13.64,40.91-14,16.08-36.36,16.08-22,0-36.72-15.91t-14.68-41.08Z"/>
    <path class="g" d="M1981.75,481.43H1766q5.25,36.7,32.17,55.77t62.59,19q21,0,35-5.42t44.76-22.2Q1966,515,1975.8,515q16.44,0,29,13.64,12.95,13.64,12.94,30.77,0,20.28-25.52,40.39t-64,32.34q-38.82,12.93-75.53,12.94-55.6,0-98.78-25.18a172.52,172.52,0,0,1-66.79-69.76q-23.6-44.58-23.6-100.53a215.22,215.22,0,0,1,23.08-97.55q23.07-46.5,64.86-74.31T1844.68,250q52.1,0,93.71,28a194.5,194.5,0,0,1,64.69,71.86q23.07,43.88,23.07,87.59,0,22.72-10.49,33.39T1981.75,481.43ZM1764.6,413.94h159.8q-4.2-35-25.18-56.47T1844.68,336q-32.88,0-54.9,22.73Q1768.09,381.43,1764.6,413.94Z"/>
    <path class="h" d="M2321.34,325.12a44.64,44.64,0,0,1-12.06,31.3q-12.06,13.11-29.55,13.11-7,0-29.72-10.14-20.64-9.09-29.72-12.76a90.57,90.57,0,0,0-16.26-5.07,83.58,83.58,0,0,0-15.91-1.4q-14.34,0-23.78,7-9.09,7-9.09,21,0,15,29,28,23.43,10.14,45.64,19.58a394.51,394.51,0,0,1,42.3,21,163.37,163.37,0,0,1,34.45,25.87q23.78,24.13,23.77,63.64,0,33.57-18,60.84t-51.23,42.66q-33.22,15.39-75.88,15.39-29,0-62.06-10.32t-55.43-28.14q-22.38-18.18-22.37-39.52,0-14,12.58-29.37Q2070.28,522,2089.86,522q17.49,0,49,17.48,19.57,10.49,31.12,13.64a90.21,90.21,0,0,0,23.77,3.14q40.22,0,40.22-28.67,0-15-30.08-28.32-20.62-8.4-42.83-18a456.89,456.89,0,0,1-43.53-21.68q-21.33-12.06-35-26.4-24.12-24.12-24.13-63.64,0-35,17.31-62.24T2124.13,265q31.13-15,71-15,26.23,0,55.78,8.74t50,26.05Q2321.34,302,2321.34,325.12Z"/>
    <path class="i" d="M2622.82,325.12a44.64,44.64,0,0,1-12.06,31.3q-12.06,13.11-29.55,13.11-7,0-29.72-10.14-20.62-9.09-29.72-12.76a90.08,90.08,0,0,0-16.26-5.07,83.51,83.51,0,0,0-15.91-1.4q-14.34,0-23.78,7-9.09,7-9.09,21,0,15,29,28,23.41,10.14,45.63,19.58a395.6,395.6,0,0,1,42.31,21,163.56,163.56,0,0,1,34.44,25.87q23.78,24.13,23.78,63.64a108.05,108.05,0,0,1-18,60.84q-18,27.29-51.23,42.66t-75.88,15.39q-29,0-62.06-10.32t-55.42-28.14q-22.38-18.18-22.38-39.52,0-14,12.59-29.37Q2371.75,522,2391.35,522q17.47,0,49,17.48,19.57,10.49,31.12,13.64a90.23,90.23,0,0,0,23.78,3.14q40.2,0,40.21-28.67,0-15-30.07-28.32-20.64-8.4-42.84-18A458.07,458.07,0,0,1,2419,459.57q-21.33-12.06-35-26.4-24.12-24.12-24.12-63.64,0-35,17.3-62.24T2425.61,265q31.13-15,71-15,26.23,0,55.78,8.74t50,26.05Q2622.83,302,2622.82,325.12Z"/>
  </g>
</svg>
