<svg viewBox="0 0 387.3 263.7" xmlns="http://www.w3.org/2000/svg" xmlns:xlink="http://www.w3.org/1999/xlink"><symbol id="a" viewBox="-82.1 -12 164.3 24"><path d="M54.7 2.4l-7-9h-2.1v13h2.3v-9.3L55 6.4h1.9v-13h-2.3v9zm15.3-9h-9.7v13h2.3V1.1h6.6V-1h-6.6v-3.6H70zm8 2.1h4.1v-2.1H71.6v2.1h4.1V6.4H78z" fill="#fff"/><path d="M-76.7 0l-2.7 2.7-2.7-2.7 2.7-2.7zm6.6-6.6l4.6 4.6 2.7-2.7-7.4-7.3-7.4 7.4 2.7 2.7zm9.2 3.9L-63.5 0l2.7 2.7 2.7-2.7zm-9.2 9.3l-4.6-4.7-2.7 2.7L-70 12l7.4-7.4-2.7-2.7zm0-3.9l2.7-2.7-2.7-2.7-2.8 2.7zm28.6.3c0-1.8-.9-2.7-2.5-3.3.9-.5 1.7-1.4 1.7-2.8 0-2.1-1.7-3.4-4.3-3.4h-6.1V6.6h6.3c2.9 0 4.9-1.2 4.9-3.6zm-3.6-5.6c0 1-.8 1.4-2.1 1.4h-2.7V-4h2.9c1.2-.1 1.9.4 1.9 1.4zm.7 5.2c0 1-.8 1.4-2 1.4h-3.4V1.1h3.4c1.3 0 2 .6 2 1.5zm8.9 4V-6.6h-2.9V6.6zm15.6 0V-6.6h-2.9v8.1L-29-6.6h-2.7V6.6h2.9v-8.3l6.4 8.4h2.5zm16 0L-9.5-6.7h-2.7l-5.6 13.2h3l1.2-3H-8l1.2 3h2.9zm-5.2-5.5h-3.5l1.8-4.3zm19 5.5V-6.6H7.1v8.1L.9-6.6h-2.7V6.6h2.9v-8.3l6.4 8.4h2.4zm15-2.1L23 2.6c-1 .9-1.9 1.5-3.5 1.5-2.3 0-3.8-1.9-3.8-4.1 0-2.2 1.6-4.1 3.8-4.1 1.3 0 2.3.6 3.4 1.5l1.9-2.1c-1.2-1.2-2.7-2-5.2-2-4 0-6.9 3.1-6.9 6.8 0 3.8 2.9 6.8 6.8 6.8 2.5-.1 4-1 5.4-2.4zm12.3 2.1V4h-7.1V1.2h6.2v-2.6h-6.2V-4h7.1v-2.6h-9.9V6.6z" fill="#f0b90b"/></symbol><use height="24" transform="translate(193.665 131.839) scale(1.8764)" width="164.3" x="-82.1" xlink:href="#a" y="-12"/></svg>