<svg viewBox="0 0 652 652" xmlns="http://www.w3.org/2000/svg"><path d="M84.4 396.2s63.9-21.7 63.9-101.5V266c0-3.1-2.4-5.7-5.5-5.9-11.6-.5-39.1-2.9-58.4-13.2-19.3 10.3-46.8 12.7-58.4 13.2-3.1.2-5.5 2.8-5.5 5.9v28.7c0 79.8 63.9 101.5 63.9 101.5" fill="#009fe8"/><path d="M110.2 305.2c-.8-8.7-8.2-11.7-17.7-12.6v-12.2h-7.4v11.8h-6v-11.9h-7.4l.1 12.1c-1.6 0-14.8.1-14.8.1v7.7h9.4v38.9h-8.3L58 348s11.7-.1 13.4 0v12.2h7.3v-12.1c2 .1 4 .1 5.9.1v12H92V348c12.4-.6 21-3.7 22.2-15.3.9-9.3-3.4-13.6-10.4-15.3 4.3-2 7-5.8 6.4-12.2m-10.5 26c-.1 9.1-15.6 8-20.5 8V323c4.9 0 20.6-1.3 20.5 8.2m-3.3-22.8c-.1 8.3-13 7.3-17.1 7.2v-14.7c4.1 0 17.2-1.2 17.1 7.5m178.8 37.5c0 6.4-1.3 11.7-3.8 16s-5.9 7.8-10 10.4c-4.2 2.6-8.9 4.5-14.2 5.7-5.3 1.1-10.8 1.7-16.3 1.7h-46.3V263.4h46.3c4.5 0 9.1.5 13.8 1.4s9 2.5 12.8 4.8 6.9 5.3 9.4 9.1c2.4 3.8 3.6 8.7 3.6 14.6 0 6.5-1.7 11.8-5.3 16-3.5 4.2-8.1 7.3-13.8 9.1v.3c3.3.6 6.4 1.6 9.3 3.1s5.4 3.4 7.5 5.7 3.8 5 5.1 8.1c1.2 3 1.9 6.4 1.9 10.3m-31.9-48.8c0-3.9-1.5-6.8-4.5-8.6s-7.5-2.7-13.4-2.7h-13.8v24h15.1c5.3 0 9.3-1.1 12.2-3.2 3-2.2 4.4-5.4 4.4-9.5m3.8 46.1c0-4.8-1.8-8.2-5.4-10-3.6-1.9-8.4-2.8-14.5-2.8h-15.6V357h15.8c2.2 0 4.5-.2 6.8-.6s4.5-1.1 6.4-2c1.9-1 3.5-2.4 4.7-4.2s1.8-4.1 1.8-7m65.4-71.4c0 2.1-.4 4-1.2 5.8s-1.9 3.4-3.3 4.7-3 2.3-4.9 3.1-3.9 1.1-6 1.1c-4.4 0-8-1.4-11-4.4-3-2.9-4.4-6.4-4.4-10.4 0-2 .4-3.9 1.2-5.7s1.9-3.4 3.3-4.7 3.1-2.4 4.9-3.2c1.9-.8 3.9-1.2 6.1-1.2 2.1 0 4.1.4 6 1.1 1.9.8 3.6 1.8 4.9 3.1 1.4 1.3 2.5 2.9 3.3 4.7.7 1.9 1.1 3.9 1.1 6m-28.9 26.1h27v81.8h-27zm75.8 20v31.3c0 3.9.7 6.7 2.2 8.7 1.5 1.9 4.1 2.9 8 2.9 1.3 0 2.7-.1 4.2-.3s2.7-.5 3.7-1l.3 19.7c-1.9.7-4.2 1.2-7.1 1.7s-5.7.7-8.6.7c-5.5 0-10.1-.7-13.8-2.1s-6.7-3.3-9-5.9c-2.2-2.6-3.9-5.6-4.9-9.2s-1.5-7.5-1.5-11.9v-34.6H320v-20h13v-21.5h26.5v21.5h19.2v20zm116.8 62c-7.6 1.9-15.9 2.8-24.9 2.8-9.3 0-17.9-1.5-25.7-4.4-7.8-3-14.6-7.1-20.2-12.5s-10.1-11.8-13.2-19.3c-3.2-7.5-4.8-15.9-4.8-25.1 0-9.3 1.6-17.7 4.9-25.3 3.2-7.6 7.7-14 13.4-19.3s12.4-9.4 20-12.2c7.7-2.8 15.9-4.3 24.8-4.3 9.2 0 17.7 1.4 25.6 4.2s14.3 6.5 19.2 11.3L477.6 296c-2.7-3.2-6.4-5.8-10.8-7.8-4.5-2-9.6-3-15.3-3-4.9 0-9.5.9-13.6 2.7-4.2 1.8-7.8 4.3-10.8 7.6-3.1 3.2-5.5 7.1-7.1 11.5-1.7 4.4-2.6 9.3-2.6 14.5 0 5.4.8 10.3 2.3 14.8s3.8 8.4 6.8 11.6 6.7 5.8 11.2 7.6c4.4 1.8 9.5 2.7 15.2 2.7 3.3 0 6.4-.2 9.4-.7 2.9-.5 5.7-1.3 8.2-2.4v-21.2h-22.2V311h48v61.6c-5.9 3-12.5 5.4-20.1 7.3m121.2-41.4c0 6.7-1.2 12.7-3.6 18.2-2.4 5.4-5.7 10-9.9 13.8s-9 6.7-14.5 8.8-11.3 3.1-17.6 3.1c-6.1 0-12-1-17.5-3.1s-10.4-5-14.5-8.8-7.4-8.4-9.8-13.8-3.6-11.5-3.6-18.2 1.2-12.7 3.6-18.1 5.7-9.9 9.8-13.6 8.9-6.6 14.5-8.5c5.5-2 11.4-3 17.5-3 6.2 0 12.1 1 17.6 3s10.3 4.8 14.5 8.5 7.4 8.3 9.9 13.6c2.4 5.4 3.6 11.4 3.6 18.1m-25.9 0c0-2.6-.4-5.2-1.3-7.7s-2.1-4.7-3.8-6.7c-1.6-1.9-3.7-3.5-6.1-4.7s-5.2-1.8-8.4-1.8-6 .6-8.4 1.8-4.4 2.8-6 4.7-2.8 4.1-3.6 6.7c-.8 2.5-1.2 5.1-1.2 7.7s.4 5.2 1.2 7.7 2 4.8 3.7 6.8c1.6 2 3.7 3.7 6.1 4.9s5.2 1.8 8.4 1.8 6-.6 8.4-1.8 4.4-2.8 6.1-4.9c1.6-2 2.9-4.3 3.7-6.8s1.2-5.1 1.2-7.7m39.6 25.2c5.1 0 9.4 4 9.4 9.3 0 5.4-4.4 9.4-9.4 9.4-5.1 0-9.5-4-9.5-9.4s4.3-9.3 9.5-9.3m0 1.5c-4.3 0-7.7 3.4-7.7 7.8 0 4.6 3.4 7.8 7.7 7.8s7.6-3.3 7.6-7.8-3.4-7.8-7.6-7.8m-2 13.2h-1.7v-10.8h4.1c2.6 0 3.8 1 3.8 3.1 0 1.9-1.2 2.8-2.8 3l3.1 4.7h-1.8l-2.9-4.7H609v4.7zm0-6h2c2 0 2.7-.6 2.7-1.8 0-1-.5-1.6-2.4-1.6h-2.2v3.4z" fill="#fff"/></svg>