<svg viewBox="0 0 600 400" xmlns="http://www.w3.org/2000/svg"><path d="M229.2 218.6c-4.5 0-8.7-1-12.5-3-3.7-2-6.7-4.8-9-8.5-2.2-3.7-3.3-7.8-3.3-12.3s1.1-8.6 3.3-12.2 5.2-6.4 9-8.5c3.8-2 7.9-3 12.5-3 4.5 0 8.7 1 12.4 3 3.8 2 6.8 4.8 8.9 8.5 2.2 3.6 3.3 7.7 3.3 12.2s-1.1 8.6-3.3 12.3c-2.2 3.6-5.2 6.4-8.9 8.5-3.7 2-7.9 3-12.4 3zm0-10.3c3.8 0 6.9-1.2 9.2-3.7s3.5-5.7 3.5-9.8-1.2-7.4-3.5-9.8c-2.3-2.5-5.3-3.7-9.2-3.7s-7 1.2-9.3 3.6-3.4 5.7-3.4 9.8 1.1 7.4 3.4 9.8c2.3 2.6 5.4 3.8 9.3 3.8zm42.8-21.8c1.1-1.7 2.7-3.1 4.7-4.2s4.4-1.6 7.1-1.6c3.2 0 6 .8 8.6 2.3s4.6 3.7 6 6.6c1.5 2.9 2.3 6.2 2.3 10s-.8 7.1-2.3 10-3.5 5.1-6 6.7c-2.6 1.5-5.4 2.3-8.6 2.3-2.6 0-5-.5-7.1-1.6-2-1.1-3.6-2.4-4.7-4.1V229h-11.7v-47.8H272zm16.7 13.1c0-2.8-.8-5-2.5-6.6-1.6-1.6-3.6-2.4-6-2.4-2.3 0-4.3.8-6 2.4-1.6 1.6-2.4 3.9-2.4 6.7s.8 5 2.4 6.7c1.6 1.6 3.6 2.4 6 2.4 2.3 0 4.3-.8 6-2.4 1.7-1.7 2.5-3.9 2.5-6.8zm54.1-.5c0 1.1-.1 2.2-.2 3.3h-26.5c.2 2.3.9 4.1 2.3 5.3s3 1.8 5 1.8c2.9 0 5-1.2 6.1-3.6H342c-.6 2.4-1.8 4.6-3.5 6.5-1.6 1.9-3.7 3.5-6.2 4.6s-5.3 1.7-8.4 1.7c-3.7 0-7.1-.8-10-2.3s-5.2-3.7-6.8-6.6-2.5-6.2-2.5-10 .8-7.2 2.4-10c1.6-2.9 3.9-5.1 6.8-6.6s6.3-2.3 10.1-2.3c3.7 0 7 .7 9.9 2.2s5.1 3.6 6.7 6.4c1.5 2.7 2.3 5.9 2.3 9.6zm-12-3c0-1.9-.7-3.5-2.1-4.6s-3.1-1.7-5.1-1.7-3.6.6-5 1.7c-1.3 1.1-2.1 2.7-2.5 4.7h14.7zm41.5-15.2c4.5 0 8 1.4 10.7 4.2s4 6.6 4 11.5v21.5h-11.6v-20c0-2.5-.7-4.4-2-5.7-1.3-1.4-3.1-2-5.3-2s-4 .7-5.3 2c-1.3 1.4-2 3.3-2 5.7v20H349v-36.9h11.7v4.9c1.2-1.6 2.8-2.9 4.8-3.8s4.3-1.4 6.8-1.4zm40.2 37.7c-3.5 0-6.7-.6-9.5-1.7s-5-2.7-6.7-4.9c-1.6-2.2-2.5-4.8-2.6-7.8h12.5c.2 1.7.8 3 1.9 4 1 .9 2.4 1.3 4.1 1.3s3.1-.4 4.1-1.1c1-.8 1.5-1.9 1.5-3.2 0-1.1-.4-2.1-1.2-2.8s-1.8-1.4-2.9-1.8c-1.1-.5-2.8-1-4.9-1.7-3.1-.9-5.6-1.8-7.6-2.8-2-.9-3.7-2.3-5.1-4.1s-2.1-4.2-2.1-7.1c0-4.3 1.6-7.7 4.9-10.1 3.2-2.5 7.5-3.7 12.7-3.7 5.3 0 9.6 1.2 12.8 3.7 3.2 2.4 5 5.8 5.2 10.2h-12.7c-.1-1.5-.7-2.7-1.7-3.5-1-.9-2.4-1.3-4-1.3-1.4 0-2.6.4-3.4 1.1-.9.7-1.3 1.7-1.3 3.1 0 1.5.7 2.7 2.2 3.5s3.7 1.7 6.8 2.7 5.6 2 7.5 2.9c2 .9 3.7 2.3 5.1 4 1.4 1.8 2.1 4 2.1 6.8 0 2.6-.7 5-2.1 7.2s-3.4 3.9-6 5.2c-2.8 1.3-5.9 1.9-9.6 1.9zm60.8-19.5c0 1.1-.1 2.2-.2 3.3h-26.5c.2 2.3.9 4.1 2.3 5.3s3 1.8 5 1.8c2.9 0 5-1.2 6.1-3.6h12.5c-.6 2.4-1.8 4.6-3.5 6.5-1.6 1.9-3.7 3.5-6.2 4.6s-5.3 1.7-8.4 1.7c-3.7 0-7.1-.8-10-2.3s-5.2-3.7-6.8-6.6-2.5-6.2-2.5-10 .8-7.2 2.4-10c1.6-2.9 3.9-5.1 6.8-6.6s6.3-2.3 10.1-2.3c3.7 0 7 .7 9.9 2.2s5.1 3.6 6.7 6.4c1.5 2.7 2.3 5.9 2.3 9.6zm-12-3c0-1.9-.7-3.5-2.1-4.6s-3.1-1.7-5.1-1.7-3.6.6-5 1.7c-1.3 1.1-2.1 2.7-2.5 4.7h14.7zm15.9 3.5c0-3.8.7-7.1 2.2-10s3.5-5.1 6.1-6.6 5.4-2.3 8.6-2.3c2.7 0 5 .5 7.1 1.6s3.6 2.4 4.7 4.2v-5.2h11.7v36.9h-11.7V213c-1.1 1.7-2.7 3.1-4.8 4.2-2 1.1-4.4 1.6-7.1 1.6-3.1 0-5.9-.8-8.5-2.3-2.6-1.6-4.6-3.8-6.1-6.7-1.5-3-2.2-6.4-2.2-10.2zm28.6.1c0-2.8-.8-5-2.5-6.7-1.6-1.6-3.6-2.4-5.9-2.4s-4.3.8-6 2.4c-1.6 1.6-2.4 3.8-2.4 6.6s.8 5.1 2.4 6.7 3.6 2.4 6 2.4c2.3 0 4.3-.8 5.9-2.4 1.7-1.5 2.5-3.8 2.5-6.6z" fill="#fff"/><path d="M183 200.1c0 27.6-22.4 50-50 50s-50-22.4-50-50 22.4-50 50-50 50 22.4 50 50z" fill="#2081e2"/><path d="M107.7 201.8l.2-.3 13-20.3c.2-.3.6-.3.8.1 2.2 4.9 4 10.9 3.2 14.7-.4 1.6-1.4 3.7-2.6 5.6-.1.3-.3.6-.5.8-.1.1-.2.2-.4.2H108c-.3-.1-.5-.5-.3-.8z" fill="#fff"/><path d="M165.6 205.6v3.2c0 .2-.1.3-.3.4-1 .4-4.5 2-5.9 4-3.7 5.1-6.5 12.4-12.7 12.4h-26.1c-9.2 0-16.7-7.5-16.7-16.8v-.3c0-.2.2-.4.4-.4H119c.3 0 .5.3.5.5-.1.9.1 1.9.5 2.8.9 1.8 2.7 2.8 4.6 2.8h7.2v-5.6h-7.1c-.4 0-.6-.4-.4-.7.1-.1.2-.2.3-.4.7-1 1.6-2.4 2.6-4.1.7-1.1 1.3-2.4 1.8-3.6.1-.2.2-.4.3-.7.1-.4.3-.8.4-1.1l.3-.9c.2-1 .3-2.1.3-3.3 0-.4 0-.9-.1-1.4 0-.5-.1-1-.1-1.5 0-.4-.1-.9-.2-1.3-.1-.7-.2-1.3-.4-2l-.1-.2c-.1-.4-.2-.9-.4-1.3-.4-1.4-.9-2.8-1.4-4l-.6-1.5c-.3-.7-.6-1.4-.9-2-.1-.3-.3-.5-.4-.8s-.3-.6-.4-.9l-.3-.6-.9-1.6c-.1-.2.1-.5.3-.4l5.5 1.5.7.2.8.2.3.1V173c0-1.6 1.3-2.9 2.8-2.9.8 0 1.5.3 2 .8s.8 1.2.8 2v4.8l.6.2s.1 0 .1.1c.1.1.3.3.6.5.2.2.4.4.7.6.5.4 1.2 1 1.9 1.6.2.2.4.3.5.5.9.8 1.9 1.8 2.9 2.9.3.3.5.6.8.9s.5.7.8 1c.3.4.7.9 1 1.3.1.2.3.4.4.7.4.6.7 1.2 1.1 1.8.1.3.3.6.4.9.4.8.7 1.6.8 2.5.1.2.1.4.1.5.1.2.1.5.1.8.1.9 0 1.7-.1 2.6-.1.4-.2.7-.3 1.1-.1.3-.2.7-.4 1.1-.3.7-.7 1.4-1.1 2.1-.1.2-.3.5-.5.8s-.4.5-.5.8c-.2.3-.5.6-.7.9s-.4.6-.7.9c-.3.4-.7.8-1 1.2-.2.2-.4.5-.7.7-.2.2-.4.5-.7.7-.3.3-.6.6-.9.8l-.6.5c-.1.1-.2.1-.3.1h-4.4v5.6h5.5c1.2 0 2.4-.4 3.3-1.2.3-.3 1.7-1.5 3.4-3.3.1-.1.1-.1.2-.1l15.2-4.4c.6-.3.8-.1.8.2z" fill="#fff"/></svg>