<svg viewBox="0 0 1000 1000" xmlns="http://www.w3.org/2000/svg"><path d="M264.09 319.81c62.33 48.29 133.81 45.31 154.23 45.31-4.46 274.65-38.5 238.06-154.23 315.07-115.73-77-149.56-40.42-154-315.07 20.18 0 91.67 2.98 154-45.31z" fill="none"/><path d="M264.09 319.81l9-11.63a14.71 14.71 0 00-18 0zm154.23 45.31l14.72.24a14.72 14.72 0 00-14.72-14.95zM264.09 680.19l-8.15 12.25a14.69 14.69 0 0016.3 0zm-154-315.07v-14.71a14.72 14.72 0 00-14.71 14.95zm145-33.68c66.77 51.73 143.17 48.4 163.24 48.4v-29.43c-20.76 0-87.33 2.62-145.22-42.23zm148.53 33.44c-1.1 68.34-4 116.55-9.53 152.26-5.47 35.34-13.28 56.51-23.34 71.39-10.19 15.45-23 24.62-41.91 35.94-19.11 11.44-43.24 23.77-72.89 43.47l16.3 24.5c28.21-18.8 51.73-30.78 71.7-42.72 20.13-12.07 37.83-25.35 51.18-44.71 13.48-19.94 22.24-45.92 28-83.37 5.72-37.08 8.76-87.29 9.89-156.28zM272.24 667.94c-29.65-19.7-53.77-32-72.85-43.47-18.92-11.31-31.68-20.48-41.84-35.93-10-14.87-17.82-36-23.27-71.39-5.52-35.72-8.4-83.93-9.51-152.27l-29.42.48c1.13 69 4.15 119.2 9.85 156.27 5.77 37.45 14.51 63.43 28 83.37 13.31 19.36 31 32.65 51.11 44.72 19.94 11.93 43.45 23.92 71.67 42.72zm-162.18-288.1c19.87 0 96.27 3.33 163-48.4l-18-23.26c-57.9 44.85-124.47 42.23-145 42.23zM560 415.74h-29.64v80.64h-19.95v-80.64h-29.25v-16.15H560zM607.28 461h-15.89v35.43h-19.95v-96.84h36q17.16 0 26.46 7.64t9.31 21.61q0 9.9-4.32 16.55t-13 10.51l20.94 39.55v.93h-21.4zm-15.89-16.16h16.09q7.51 0 11.63-3.79t4.12-10.57q0-6.84-3.92-10.77t-11.9-3.92h-16zm140.28-45.2v63.75q0 15.89-10 25.13t-27.12 9.24q-17 0-26.93-9t-10.17-24.67v-64.5h19.95v63.89q0 9.5 4.51 13.89t12.64 4.32q16.81 0 17.08-17.68v-64.42zM798.21 471a10.16 10.16 0 00-4-8.65q-4-3-14.36-6.38a103.12 103.12 0 01-16.42-6.65q-16.49-8.9-16.49-24a23.39 23.39 0 014.39-14 29 29 0 0112.7-9.64 48.14 48.14 0 0118.61-3.45 43.15 43.15 0 0118.49 3.79 29 29 0 0112.56 10.57 27.53 27.53 0 014.52 15.55h-19.93q0-6.65-4.19-10.3t-11.77-3.72q-7.3 0-11.37 3.12a9.67 9.67 0 00-4.05 8.11q0 4.72 4.72 7.91t14 6q17 5.12 24.79 12.69a25.29 25.29 0 017.78 18.88q0 12.57-9.5 19.75t-25.6 7.11a49.78 49.78 0 01-20.34-4 32.7 32.7 0 01-14-11.24 28.84 28.84 0 01-4.75-16.52h20q0 16 19.15 16 7.11 0 11.1-2.86a9.5 9.5 0 003.96-8.07zm106.44-55.25H875v80.64h-20v-80.65h-29.2v-16.15h78.85zM516.52 584.47l2.34 11.74 2.86-11.21 16.41-55.73h5.77L560.1 585l2.81 11.32 2.49-11.84 13.66-55.21h6.54l-19.37 75.62h-6.13L543 545.72l-2-7.48-1.87 7.48-17.56 59.16h-6.12l-19.33-75.62h6.55zm119.93-.78h-34.33l-7.79 21.19h-6.7l28.62-75.62h6.07l28.62 75.62h-6.65zm-32.36-5.45h30.33l-15.16-41.19zm64.46 21.24h37.34v5.4h-43.78v-75.62h6.44zm56.09 0H762v5.4h-43.8v-75.62h6.44zm91.41-30.85h-35.37v30.85h40.67v5.4H774.3v-75.62h46.79v5.45h-40.41v28.52h35.37zm71.16-33.92h-25.92v70.17h-6.39v-70.17H829v-5.45h58.17z" fill="#fff"/></svg>