<svg height="980.504" width="1048.406" xmlns="http://www.w3.org/2000/svg"><g fill="#ffe036"><path d="M119.193 111.917h8v8h-8zm0 19.124h8v8h-8zm0 19.141h8v8h-8zm0 19.124h8v8h-8zm0 19.141h8v8h-8zm0 19.125h8v8h-8zm0 19.14h8v8h-8zm0 19.124h8v8h-8zm0 19.142h8v8h-8zm0 19.124h8v8h-8zm0 19.125h8v8h-8zm0 19.14h8v8h-8zm0 19.124h8v8h-8zm17.943-229.574h8v8h-8zm0 19.124h8v8h-8zm0 19.141h8v8h-8zm0 19.124h8v8h-8zm0 19.141h8v8h-8zm0 19.125h8v8h-8zm0 19.14h8v8h-8zm0 19.124h8v8h-8zm0 19.142h8v8h-8zm0 19.124h8v8h-8zm0 19.125h8v8h-8zm0 19.14h8v8h-8zm17.942-210.45h8v8h-8zm0 19.124h8v8h-8zm0 19.141h8v8h-8zm0 19.124h8v8h-8zm0 19.141h8v8h-8zm0 19.125h8v8h-8zm0 19.14h8v8h-8zm0 19.124h8v8h-8zm0 19.142h8v8h-8zm0 19.124h8v8h-8zm0 19.125h8v8h-8zm17.926-191.31h8v8h-8zm0 19.124h8v8h-8zm0 19.141h8v8h-8zm0 19.124h8v8h-8zm0 19.141h8v8h-8zm0 19.125h8v8h-8zm0 19.14h8v8h-8zm0 19.124h8v8h-8zm0 19.142h8v8h-8zm0 19.124h8v8h-8zm0 19.125h8v8h-8zm0 19.14h8v8h-8zm17.943-210.45h8v8h-8zm0 19.124h8v8h-8zm0 19.141h8v8h-8zm0 19.124h8v8h-8zm0 19.141h8v8h-8zm0 19.125h8v8h-8zm0 19.14h8v8h-8zm0 19.124h8v8h-8zm0 19.142h8v8h-8zm0 19.124h8v8h-8zm0 19.125h8v8h-8zm0 19.14h8v8h-8zm0 19.124h8v8h-8zm17.925-229.574h8v8h-8zm0 19.124h8v8h-8zm0 19.141h8v8h-8zm0 19.124h8v8h-8zm0 19.141h8v8h-8zm0 19.125h8v8h-8zm0 19.14h8v8h-8zm0 19.124h8v8h-8zm0 19.142h8v8h-8zm0 19.124h8v8h-8zm0 19.125h8v8h-8zm0 19.14h8v8h-8zm0 19.124h8v8h-8zm0 19.142h8v8h-8zm17.943-248.716h8v8h-8zm0 19.124h8v8h-8zm0 19.141h8v8h-8zm0 19.124h8v8h-8zm0 19.141h8v8h-8zm0 19.125h8v8h-8zm0 19.14h8v8h-8zm0 19.124h8v8h-8zm0 19.142h8v8h-8zm0 19.124h8v8h-8zm0 19.125h8v8h-8zm0 19.14h8v8h-8zm0 19.124h8v8h-8zm17.926-229.574h8v8h-8zm0 19.124h8v8h-8zm0 19.141h8v8h-8zm0 19.124h8v8h-8zm0 19.141h8v8h-8zm0 19.125h8v8h-8zm0 19.14h8v8h-8zm0 19.124h8v8h-8zm0 19.142h8v8h-8zm0 19.124h8v8h-8zm0 19.125h8v8h-8zm0 19.14h8v8h-8zm17.943-210.45h8v8h-8zm0 19.124h8v8h-8zm0 19.141h8v8h-8zm0 19.124h8v8h-8zm0 19.141h8v8h-8zm0 19.125h8v8h-8zm0 19.14h8v8h-8zm0 19.124h8v8h-8zm0 19.142h8v8h-8zm0 19.124h8v8h-8zm0 19.125h8v8h-8zm17.925-191.31h8v8h-8zm0 19.124h8v8h-8zm0 19.141h8v8h-8zm0 19.124h8v8h-8zm0 19.141h8v8h-8zm0 19.125h8v8h-8zm0 19.14h8v8h-8zm0 19.124h8v8h-8zm0 19.142h8v8h-8zm0 19.124h8v8h-8zm17.926-172.185h8v8h-8zm0 19.124h8v8h-8zm0 19.141h8v8h-8zm0 19.124h8v8h-8zm0 19.141h8v8h-8zm0 19.125h8v8h-8zm0 19.14h8v8h-8zm0 19.124h8v8h-8zm0 19.142h8v8h-8zm0 19.124h8v8h-8zm17.943-172.185h8v8h-8zm0 19.124h8v8h-8zm0 19.141h8v8h-8zm0 19.124h8v8h-8zm0 19.141h8v8h-8zm0 19.125h8v8h-8zm0 19.14h8v8h-8zm0 19.124h8v8h-8zm0 19.142h8v8h-8zm17.926-153.061h8v8h-8zm0 19.124h8v8h-8zm0 19.141h8v8h-8zm0 19.124h8v8h-8zm0 19.141h8v8h-8zm0 19.125h8v8h-8zm0 19.14h8v8h-8zm0 19.124h8v8h-8zm0 19.142h8v8h-8zm0 19.124h8v8h-8zm17.942-172.185h8v8h-8zm0 19.124h8v8h-8zm0 19.141h8v8h-8zm0 19.124h8v8h-8zm0 19.141h8v8h-8zm0 19.125h8v8h-8zm0 19.14h8v8h-8zm0 19.124h8v8h-8zm17.926-133.919h8v8h-8zm0 19.124h8v8h-8zm0 19.141h8v8h-8zm0 19.124h8v8h-8zm0 19.141h8v8h-8zm0 19.125h8v8h-8zm17.943-95.655h8v8h-8zm0 19.124h8v8h-8zm0 19.141h8v8h-8zm0 19.124h8v8h-8zm17.926-57.389h8v8h-8zm0 19.124h8v8h-8zm0 19.141h8v8h-8zm17.942-38.265h8v8h-8zm0 19.124h8v8h-8zm0 19.141h8v8h-8zm0 19.124h8v8h-8zm17.926-57.389h8v8h-8zm0 19.124h8v8h-8zm0 19.141h8v8h-8zm0 19.124h8v8h-8zm0 19.141h8v8h-8zm17.943-76.53h8v8h-8zm0 19.124h8v8h-8zm0 19.141h8v8h-8zm0 19.124h8v8h-8zm17.926-57.389h8v8h-8zm0 19.124h8v8h-8zm0 19.141h8v8h-8zm17.942-38.265h8v8h-8zm0 19.124h8v8h-8zm17.926-19.124h8v8h-8z" opacity=".4"/><path d="M1016.196 67.971c62.244 113.2 14.293 383.163 18.8 465.29 5.413 82.867-.9 157.595-33.377 236.022-31.57 78.428-90.205 159.815-176.805 192.37-87.5 32.555-202.969 15.537-354.519 3.7-152.452-11.838-340.988-18.5-422.176-94.7-80.285-76.948-54.125-222.7 34.279-312.97C169.9 467.412 323.81 53.889 412.214 33.172s540.836-78.403 603.982 34.799z"/></g></svg>