<svg height="132.494" width="612.879" xmlns="http://www.w3.org/2000/svg"><path d="M585.091 94.08l24.084 15.697-3.381 13.891S584.69 93.846 585.091 94.08zm-4.303.048l4.053 28.458-12.678 6.607s8.537-35.522 8.625-35.065zm3.972-9.141l15.878-.664 2.937 7.34s-19.072-6.653-18.815-6.676z" opacity=".96" fill="#437ad4"/><path d="M296.832 111.527a2.419 2.419 0 11-1.148 3.223 2.419 2.419 0 011.148-3.223zm-6.834-14.4a2.419 2.419 0 11-1.148 3.224 2.419 2.419 0 011.148-3.224zm-6.837-14.4a2.42 2.42 0 11-1.148 3.224 2.421 2.421 0 011.148-3.224zm-6.837-14.4a2.419 2.419 0 11-1.148 3.223 2.419 2.419 0 011.148-3.223zm-6.837-14.407a2.42 2.42 0 11-1.148 3.223 2.419 2.419 0 011.148-3.223zm39.877 51.659a2.42 2.42 0 11-1.149 3.223 2.419 2.419 0 011.149-3.223zm-6.838-14.402a2.42 2.42 0 11-1.148 3.224 2.421 2.421 0 011.148-3.224zm-6.837-14.401a2.419 2.419 0 11-1.148 3.223 2.42 2.42 0 011.148-3.223zm-6.837-14.402a2.42 2.42 0 11-1.148 3.223 2.419 2.419 0 011.148-3.223zm-6.837-14.401a2.419 2.419 0 11-1.148 3.223 2.419 2.419 0 011.148-3.223zm39.877 51.654a2.42 2.42 0 11-1.148 3.224 2.419 2.419 0 011.148-3.224zm-6.837-14.4a2.419 2.419 0 11-1.148 3.223 2.419 2.419 0 011.148-3.223zm-6.838-14.4a2.42 2.42 0 11-1.147 3.223 2.42 2.42 0 011.147-3.223zm-6.836-14.4a2.419 2.419 0 11-1.148 3.223 2.419 2.419 0 011.148-3.223zm-6.838-14.4a2.419 2.419 0 11-1.148 3.223 2.42 2.42 0 011.148-3.223zm39.877 51.657a2.419 2.419 0 11-1.148 3.223 2.419 2.419 0 011.148-3.223zm-6.837-14.402a2.419 2.419 0 11-1.148 3.223 2.419 2.419 0 011.148-3.223zm-6.837-14.401a2.419 2.419 0 11-1.148 3.223 2.418 2.418 0 011.148-3.223zm-6.837-14.402a2.419 2.419 0 11-1.148 3.223 2.419 2.419 0 011.148-3.223zm-6.837-14.402a2.42 2.42 0 11-1.148 3.224 2.419 2.419 0 011.148-3.224zm39.876 51.659a2.419 2.419 0 11-1.148 3.223 2.42 2.42 0 011.148-3.223zm-6.837-14.401a2.419 2.419 0 11-1.148 3.223 2.418 2.418 0 011.148-3.223zm-6.837-14.402a2.419 2.419 0 11-1.148 3.223 2.419 2.419 0 011.148-3.223zm-6.842-14.406a2.419 2.419 0 11-1.148 3.224 2.419 2.419 0 011.148-3.224zm-6.832-14.4a2.419 2.419 0 11-1.148 3.223 2.419 2.419 0 011.148-3.223z" fill="#ffe13e" opacity=".735"/><path d="M30.132 43.917L4.246 21.407l6.28-15.866s5.471 10.57 10.634 20.615c4.719 9.18 9.18 17.923 8.972 17.76zm5.102.65l-.115-34.304L51.19 4.537s-15.927 40.585-15.957 40.03zm-6.209 10.16l-18.878-1.825-2.265-9.157s21.45 10.998 21.143 10.982z" fill="#ff5e5f" opacity=".96"/></svg>