<svg height="300" width="300" xmlns="http://www.w3.org/2000/svg"><g shape-rendering="optimizeSpeed"><path d="M0 0h300v300H0z" fill="#fff"/><path d="M12 12h11v11H12zm11 0h11v11H23zm11 0h11v11H34zm11 0h11v11H45zm11 0h11v11H56zm11 0h11v11H67zm11 0h11v11H78zm22 0h11v11h-11zm11 0h11v11h-11zm11 0h11v11h-11zm11 0h11v11h-11zm33 0h11v11h-11zm22 0h11v11h-11zm22 0h11v11h-11zm11 0h11v11h-11zm11 0h11v11h-11zm11 0h11v11h-11zm11 0h11v11h-11zm11 0h11v11h-11zm11 0h11v11h-11zM12 23h11v11H12zm66 0h11v11H78zm55 0h11v11h-11zm11 0h11v11h-11zm44 0h11v11h-11zm22 0h11v11h-11zm66 0h11v11h-11zM12 34h11v11H12zm22 0h11v11H34zm11 0h11v11H45zm11 0h11v11H56zm22 0h11v11H78zm33 0h11v11h-11zm22 0h11v11h-11zm22 0h11v11h-11zm22 0h11v11h-11zm33 0h11v11h-11zm22 0h11v11h-11zm11 0h11v11h-11zm11 0h11v11h-11zm22 0h11v11h-11zM12 45h11v11H12zm22 0h11v11H34zm11 0h11v11H45zm11 0h11v11H56zm22 0h11v11H78zm44 0h11v11h-11zm11 0h11v11h-11zm11 0h11v11h-11zm11 0h11v11h-11zm33 0h11v11h-11zm22 0h11v11h-11zm22 0h11v11h-11zm11 0h11v11h-11zm11 0h11v11h-11zm22 0h11v11h-11zM12 56h11v11H12zm22 0h11v11H34zm11 0h11v11H45zm11 0h11v11H56zm22 0h11v11H78zm44 0h11v11h-11zm11 0h11v11h-11zm11 0h11v11h-11zm11 0h11v11h-11zm11 0h11v11h-11zm22 0h11v11h-11zm22 0h11v11h-11zm22 0h11v11h-11zm11 0h11v11h-11zm11 0h11v11h-11zm22 0h11v11h-11zM12 67h11v11H12zm66 0h11v11H78zm33 0h11v11h-11zm22 0h11v11h-11zm33 0h11v11h-11zm44 0h11v11h-11zm66 0h11v11h-11zM12 78h11v11H12zm11 0h11v11H23zm11 0h11v11H34zm11 0h11v11H45zm11 0h11v11H56zm11 0h11v11H67zm11 0h11v11H78zm22 0h11v11h-11zm22 0h11v11h-11zm22 0h11v11h-11zm22 0h11v11h-11zm22 0h11v11h-11zm22 0h11v11h-11zm11 0h11v11h-11zm11 0h11v11h-11zm11 0h11v11h-11zm11 0h11v11h-11zm11 0h11v11h-11zm11 0h11v11h-11zM100 89h11v11h-11zm11 0h11v11h-11zm33 0h11v11h-11zm11 0h11v11h-11zm11 0h11v11h-11zm11 0h11v11h-11zm11 0h11v11h-11zM12 100h11v11H12zm11 0h11v11H23zm22 0h11v11H45zm11 0h11v11H56zm22 0h11v11H78zm33 0h11v11h-11zm22 0h11v11h-11zm33 0h11v11h-11zm11 0h11v11h-11zm11 0h11v11h-11zm22 0h11v11h-11zm66 0h11v11h-11zM23 111h11v11H23zm11 0h11v11H34zm55 0h11v11H89zm11 0h11v11h-11zm22 0h11v11h-11zm11 0h11v11h-11zm22 0h11v11h-11zm11 0h11v11h-11zm11 0h11v11h-11zm22 0h11v11h-11zm22 0h11v11h-11zm11 0h11v11h-11zm11 0h11v11h-11zm11 0h11v11h-11zm11 0h11v11h-11zM45 122h11v11H45zm11 0h11v11H56zm22 0h11v11H78zm22 0h11v11h-11zm11 0h11v11h-11zm22 0h11v11h-11zm11 0h11v11h-11zm22 0h11v11h-11zm11 0h11v11h-11zm11 0h11v11h-11zm11 0h11v11h-11zm11 0h11v11h-11zm11 0h11v11h-11zm11 0h11v11h-11zm11 0h11v11h-11zm33 0h11v11h-11zM23 133h11v11H23zm22 0h11v11H45zm22 0h11v11H67zm33 0h11v11h-11zm44 0h11v11h-11zm22 0h11v11h-11zm22 0h11v11h-11zm11 0h11v11h-11zm44 0h11v11h-11zm11 0h11v11h-11zm11 0h11v11h-11zm11 0h11v11h-11zM34 144h11v11H34zm44 0h11v11H78zm11 0h11v11H89zm11 0h11v11h-11zm11 0h11v11h-11zm11 0h11v11h-11zm11 0h11v11h-11zm44 0h11v11h-11zm11 0h11v11h-11zm22 0h11v11h-11zm66 0h11v11h-11zM12 155h11v11H12zm22 0h11v11H34zm55 0h11v11H89zm22 0h11v11h-11zm11 0h11v11h-11zm11 0h11v11h-11zm11 0h11v11h-11zm22 0h11v11h-11zm11 0h11v11h-11zm11 0h11v11h-11zm44 0h11v11h-11zm33 0h11v11h-11zM12 166h11v11H12zm11 0h11v11H23zm11 0h11v11H34zm11 0h11v11H45zm11 0h11v11H56zm11 0h11v11H67zm11 0h11v11H78zm22 0h11v11h-11zm11 0h11v11h-11zm33 0h11v11h-11zm22 0h11v11h-11zm11 0h11v11h-11zm11 0h11v11h-11zm11 0h11v11h-11zm11 0h11v11h-11zm22 0h11v11h-11zm11 0h11v11h-11zm11 0h11v11h-11zm11 0h11v11h-11zm11 0h11v11h-11zM12 177h11v11H12zm33 0h11v11H45zm11 0h11v11H56zm33 0h11v11H89zm22 0h11v11h-11zm22 0h11v11h-11zm11 0h11v11h-11zm22 0h11v11h-11zm22 0h11v11h-11zm11 0h11v11h-11zm22 0h11v11h-11zm22 0h11v11h-11zm11 0h11v11h-11zm22 0h11v11h-11zM12 188h11v11H12zm44 0h11v11H56zm22 0h11v11H78zm11 0h11v11H89zm11 0h11v11h-11zm22 0h11v11h-11zm11 0h11v11h-11zm11 0h11v11h-11zm11 0h11v11h-11zm22 0h11v11h-11zm11 0h11v11h-11zm11 0h11v11h-11zm11 0h11v11h-11zm11 0h11v11h-11zm11 0h11v11h-11zm22 0h11v11h-11zm11 0h11v11h-11zm-165 11h11v11h-11zm11 0h11v11h-11zm11 0h11v11h-11zm33 0h11v11h-11zm22 0h11v11h-11zm11 0h11v11h-11zm44 0h11v11h-11zm22 0h11v11h-11zm11 0h11v11h-11zM12 210h11v11H12zm11 0h11v11H23zm11 0h11v11H34zm11 0h11v11H45zm11 0h11v11H56zm11 0h11v11H67zm11 0h11v11H78zm55 0h11v11h-11zm33 0h11v11h-11zm22 0h11v11h-11zm22 0h11v11h-11zm22 0h11v11h-11zm44 0h11v11h-11zM12 221h11v11H12zm66 0h11v11H78zm44 0h11v11h-11zm11 0h11v11h-11zm22 0h11v11h-11zm22 0h11v11h-11zm11 0h11v11h-11zm44 0h11v11h-11zm44 0h11v11h-11zM12 232h11v11H12zm22 0h11v11H34zm11 0h11v11H45zm11 0h11v11H56zm22 0h11v11H78zm22 0h11v11h-11zm11 0h11v11h-11zm66 0h11v11h-11zm11 0h11v11h-11zm11 0h11v11h-11zm11 0h11v11h-11zm11 0h11v11h-11zm11 0h11v11h-11zm33 0h11v11h-11zM12 243h11v11H12zm22 0h11v11H34zm11 0h11v11H45zm11 0h11v11H56zm22 0h11v11H78zm22 0h11v11h-11zm55 0h11v11h-11zm11 0h11v11h-11zm33 0h11v11h-11zm11 0h11v11h-11zm55 0h11v11h-11zm11 0h11v11h-11zM12 254h11v11H12zm22 0h11v11H34zm11 0h11v11H45zm11 0h11v11H56zm22 0h11v11H78zm33 0h11v11h-11zm11 0h11v11h-11zm11 0h11v11h-11zm22 0h11v11h-11zm33 0h11v11h-11zm11 0h11v11h-11zm33 0h11v11h-11zm11 0h11v11h-11zm11 0h11v11h-11zm11 0h11v11h-11zm11 0h11v11h-11zM12 265h11v11H12zm66 0h11v11H78zm22 0h11v11h-11zm66 0h11v11h-11zm55 0h11v11h-11zm11 0h11v11h-11zm22 0h11v11h-11zm11 0h11v11h-11zm11 0h11v11h-11zM12 276h11v11H12zm11 0h11v11H23zm11 0h11v11H34zm11 0h11v11H45zm11 0h11v11H56zm11 0h11v11H67zm11 0h11v11H78zm22 0h11v11h-11zm11 0h11v11h-11zm22 0h11v11h-11zm44 0h11v11h-11zm11 0h11v11h-11zm55 0h11v11h-11zm33 0h11v11h-11z"/></g></svg>