<svg height="1122" width="1683" xmlns="http://www.w3.org/2000/svg"><clipPath id="a"><path d="M0 0h1683v1122H0z"/></clipPath><g clip-path="url(#a)"><path d="M1795.086 690.31v128.588l-111.285-64.279v-.056z" fill="#ffa73b"/><path d="M1683.8 754.757v128.308l-.111.055-111.1-64.168z" fill="#0c2e3a"/><path d="M1683.8 754.563v.194l-111.215 64.2-.083-.056V690.31z" fill="#78001b"/><path d="M1683.794 497.553v128.591l-111.284-64.279v-.055z" fill="#ffa73b"/><path d="M1683.794 626.144v.1l-111.146 64.154-.139-.083v-128.45z" fill="#f5340b"/><path d="M1683.793 626.241v128.322l-111.146-64.172z" fill="#f5340b"/><path d="M1794.981 690.368l-111.188 64.2V626.241l.083-.042z" fill="#ff823b"/><path d="M1683.794 883.066v128.585l-111.284-64.279v-.055zm0 128.586v.1l-111.146 64.154-.139-.083v-128.45z" fill="#018790"/><path d="M1683.793 1011.749v128.322l-111.146-64.167z" fill="#e3651d"/><path d="M1795.092 947.317v.194l-111.216 64.2-.083-.055v-128.59zm-.006-257.007v128.588l-111.285-64.279v-.056z" fill="#ffa73b"/><path d="M1683.69 883.124l-111.187 64.2v-128.33l.083-.042z" fill="#00a6a6"/><path d="M1683.8 754.757v128.308l-.111.055-111.1-64.168z" fill="#0c2e3a"/><path d="M1683.8 754.563v.194l-111.215 64.2-.083-.056V690.31z" fill="#ffa73b"/><g fill="#78001b"><path d="M1572.503 690.31v128.588l-111.285-64.279v-.056z"/><path d="M1572.503 818.897v.1l-111.146 64.154-.139-.083v-128.45zm111.298-64.334v.194l-111.215 64.2-.083-.056V690.31zm-222.584.194v128.308l-.111.055-111.1-64.168z"/></g><path d="M1461.217 754.563v.194l-111.215 64.2-.083-.056V690.31z" fill="#f5340b"/><path d="M1461.211 497.553v128.591l-111.285-64.279v-.055z" fill="#1dcdc3"/><path d="M1461.211 626.144v.1l-111.146 64.154-.138-.083v-128.45z" fill="#0c2e3a"/><path d="M1461.208 626.241v128.322l-111.144-64.172z" fill="#0c2e3a"/><path d="M1572.398 690.368l-111.187 64.2V626.241l.083-.042zm.111-128.364v128.308l-.111.055-111.1-64.168zm-39.463-264.127v37.256l-.032.016-32.26-18.632z" fill="#018790"/><path d="M1572.509 433.167v.194l-111.215 64.2-.083-.055v-128.59z" fill="#1dcdc3"/><path d="M1461.211 883.066v128.585l-111.285-64.279v-.055zm0 128.586v.1l-111.146 64.154-.138-.083v-128.45z" fill="#78001b"/><path d="M1461.208 1011.749v128.322l-111.144-64.167zm111.19 64.126l-111.187 64.2v-128.326l.083-.042z" fill="#00a6a6"/><path d="M1572.509 947.512v128.308l-.111.056-111.1-64.168z" fill="#0c2e3a"/><path d="M1572.509 947.317v.194l-111.215 64.2-.083-.055v-128.59z" fill="#0c2e3a"/><path d="M1572.503 690.31v128.588l-111.285-64.279v-.056z" fill="#f5340b"/><path d="M1572.503 818.897v.1l-111.146 64.154-.139-.083v-128.45z" fill="#f5340b"/><path d="M1572.505 818.994v128.323l-111.148-64.17z" fill="#00a6a6"/><path d="M1683.691 883.124l-111.187 64.2v-128.33l.083-.042z" fill="#ff823b"/><path d="M1683.801 754.563v.194l-111.215 64.2-.083-.056V690.31z" fill="#ffa73b"/><path d="M1461.106 883.124l-111.188 64.2v-128.33l.083-.042zm.111-128.367v128.308l-.111.055-111.1-64.168z" fill="#f5340b"/><path d="M1461.217 754.563v.194l-111.215 64.2-.083-.056V690.31z" fill="none"/><path d="M1349.918 690.309v128.588l-111.284-64.279v-.056z" fill="#f5340b"/><path d="M1349.918 818.896v.1l-111.146 64.154-.139-.083v-128.45z" fill="#e3651d"/><path d="M1461.217 754.562v.194l-111.215 64.2-.083-.056V690.309z" fill="#ffa73b"/><path d="M1238.627 497.553v128.591l-111.289-64.28v-.055z" fill="#ffd497"/><path d="M1349.815 690.367l-111.184 64.2V626.24l.083-.042zm-187.028.007l-51.927 29.981v-59.924l.039-.02z" fill="#ff823b"/><path d="M1161.853 507.471l-35.47 20.479v-40.937l.026-.013z" fill="#ffd497"/><path d="M1349.926 562.003v128.308l-.111.055-111.1-64.168z" fill="#ff823b"/><path d="M1349.931 561.809v.194l-111.215 64.2-.083-.055V497.553z" fill="#ffa73b"/><path d="M1238.627 883.066v128.585l-111.289-64.279v-.055z" fill="#ff7c4e"/><path d="M1349.815 1075.875l-111.184 64.196v-128.322l.083-.042zm-222.473 0l-111.187 64.2v-128.326l.083-.042z" fill="#f54132"/><path d="M1349.926 947.512v128.308l-.111.056-111.1-64.168z" fill="#f54132"/><path d="M1349.931 947.317v.194l-111.215 64.2-.083-.055v-128.59z" fill="#f54132"/><path d="M1349.918 690.31v128.588l-111.284-64.279v-.056z" fill="#ffa73b"/><path d="M1349.918 818.897v.1l-111.146 64.154-.139-.083v-128.45z" fill="#ffa73b"/><path d="M1349.918 818.994v128.323l-111.146-64.17z" fill="#e3651d"/><path d="M1461.106 883.124l-111.188 64.2v-128.33l.083-.042z" fill="#78001b"/><path d="M1461.217 754.563v.194l-111.215 64.2-.083-.056V690.31z" fill="#ffa73b"/></g></svg>