<svg xmlns="http://www.w3.org/2000/svg" viewBox="0 0 52.49 68.5"><defs><style>.cls-1{fill:#be9355}</style></defs><g id="Layer_2" data-name="Layer 2"><g id="_1" data-name="1"><path class="cls-1" d="M38.27 32.86a2.71 2.71 0 01-2.71 2.71H16.93a2.71 2.71 0 01-2.71-2.71L12.6 2.71A2.71 2.71 0 0115.31 0h21.88a2.71 2.71 0 012.71 2.71z"/><path class="cls-1" d="M49.21 20.43h-4.77l-1.63 15.85a3.29 3.29 0 01-3.29 3.29H13a3.29 3.29 0 01-3.29-3.29L8.06 20.43H3.29A3.29 3.29 0 000 23.71l3.79 21A3.29 3.29 0 007.07 48H46a3.29 3.29 0 003.28-3.29l3.25-21a3.29 3.29 0 00-3.32-3.28z"/><path class="cls-1" d="M31.31 51.25c0 1.49-1.9 2.71-4.25 2.71h-1.62c-2.35 0-4.25-1.21-4.25-2.71v-4.4c0-1.5 1.9-2.71 4.25-2.71h1.61c2.35 0 4.25 1.21 4.25 2.71zM14.3 65.42a3.08 3.08 0 01-3.08 3.08 3.08 3.08 0 01-3.08-3.08v-3.31A3.08 3.08 0 0111.22 59a3.08 3.08 0 013.08 3.08zm15.02 0a3.08 3.08 0 01-3.08 3.08 3.08 3.08 0 01-3.08-3.08v-3.31A3.08 3.08 0 0126.25 59a3.08 3.08 0 013.08 3.08zm15.27 0a3.08 3.08 0 01-3.08 3.08 3.08 3.08 0 01-3.08-3.08v-3.31A3.08 3.08 0 0141.52 59a3.08 3.08 0 013.08 3.08z"/><path class="cls-1" transform="rotate(-40.27 17.741 57.016)" d="M9.2 54.85h17.08v4.33H9.2z"/><path class="cls-1" transform="rotate(-49.73 34.752 57.023)" d="M32.59 48.48h4.33v17.08h-4.33z"/><path class="cls-1" d="M24.08 51.5h4.33v12.27h-4.33z"/></g></g></svg>