<svg xmlns="http://www.w3.org/2000/svg" viewBox="0 0 68.48 57.23"><g data-name="Layer 2"><path d="M68.07 15L58.9 5.81l.1-.09L54.79 1C52-1.26 48.86 1 48.86 1S7.49 42 5.39 44.39s-8.73 9.85-3.32 12.3S16.22 53 20.41 43.08a19.3 19.3 0 0112.3-11.33L42 41a1.4 1.4 0 002-2l-9-9 2-2 9 9a1.4 1.4 0 002-2l-9-9 2-2 9 9a1.4 1.4 0 102-2l-9.06-9 2-2.05L54 29a1.4 1.4 0 002-2l-9.09-9.09 2-2.05L58.06 25a1.4 1.4 0 102-2l-9.12-9.12 2-2.05L62.08 21a1.4 1.4 0 002-2l-9.17-9.15 2-2.05 9.18 9.2a1.4 1.4 0 002-2z" fill="#bd9254" data-name="1"/></g></svg>