<svg xmlns="http://www.w3.org/2000/svg" viewBox="0 0 58.87 49.61"><g data-name="Layer 2"><path d="M15.17 3a12.19 12.19 0 013.37.48l2.37.68 19.91 5.6V20.6l-18.11 5.1-1.92.54-.25 2-.47 3.73L15.24 35l-1.38.89v10.72H6.44c-1-1.87-2.47-6.42-.62-10.11a24.52 24.52 0 002.37-9.79l.06-1.44-1.08-.95a12.17 12.17 0 018-21.32m0 20.74a8.57 8.57 0 10-8.57-8.57 8.58 8.58 0 008.57 8.57m0-23.74a15.17 15.17 0 00-10 26.59 21.35 21.35 0 01-2.06 8.57c-2.89 5.78.15 13 1.83 14.45h11.92v-12l6-3.85.64-5.13 20.31-5.71V7.47L19.38.59A15.17 15.17 0 0015.17 0zm0 20.74a5.57 5.57 0 115.57-5.57 5.57 5.57 0 01-5.57 5.57zm34.48-9.11a4.93 4.93 0 01-3.18-.94l1.59-1.85c.05 0 1.33.94 4.35-.19 4.62-1.73 6.32.52 6.49.78l-2 1.38v.05s-.88-1-3.66.08a10.21 10.21 0 01-3.59.69zm0 5.37a4.93 4.93 0 01-3.18-1l1.59-1.85c.05 0 1.33.94 4.35-.19 4.62-1.73 6.32.52 6.49.78l-2 1.38v.05s-.88-1-3.66.08a10.22 10.22 0 01-3.59.75zm0 5.33a4.93 4.93 0 01-3.18-.94l1.59-1.85c.05 0 1.33.94 4.35-.19 4.62-1.73 6.32.51 6.49.78l-2 1.38v.05s-.88-1-3.66.08a10.21 10.21 0 01-3.59.69z" fill="#bd9254" data-name="1"/></g></svg>