<svg xmlns="http://www.w3.org/2000/svg" viewBox="0 0 67.26 67.26"><defs><style>.cls-1{fill:#bd9254}</style></defs><g id="Layer_2" data-name="Layer 2"><g id="_1" data-name="1"><path class="cls-1" d="M49.38 31.67A18.7 18.7 0 0052 28.41V15a7.36 7.36 0 00-3-1.71v18.78zM38.84 15.28v21.36a14.08 14.08 0 006.4-1.85V13a14.94 14.94 0 00-6.4 2.28z"/><path class="cls-1" d="M62.43 4.83c-8.11-8.12-23.62-5.76-34.64 5.25s-13.37 26.53-5.25 34.64 23.62 5.76 34.64-5.26 13.37-26.52 5.25-34.63zM29 38.23c-5.47-5.47-3.88-15.93 3.54-23.35s17.88-9 23.36-3.54 3.88 15.93-3.54 23.35S34.5 43.7 29 38.23zM16.07 62.25c-6.4 6.4-10.83 5.88-13.88 2.83S-1.39 57.59 5 51.19s14.06-9.12 17.12-6.06.35 10.71-6.05 17.12z"/><path class="cls-1" d="M21.38 55.24s2.43-5.94 8.8-6.24l-5.94-6-7.54 7.56z"/><path class="cls-1" d="M12 45.88s5.93-2.42 6.27-8.79L24.24 43l-7.54 7.56z"/></g></g></svg>