<svg xmlns="http://www.w3.org/2000/svg" viewBox="0 0 74.33 90.45"><defs><style>.cls-1{fill:#bd9254}</style></defs><g id="Layer_2" data-name="Layer 2"><g id="_1" data-name="1"><path class="cls-1" d="M36.22 79.91c-5.24-2-7.66-8.47-5.39-14.44s8.38-9.19 13.62-7.19 7.66 8.47 5.39 14.44-8.38 9.19-13.62 7.19zm7.07-18.55c-3.54-1.35-7.74 1-9.37 5.29s-.06 8.83 3.48 10.18 7.74-1 9.37-5.29.06-8.83-3.49-10.18zm-40.2-.73C-1.09 56.89-1 50 3.23 45.22s11.12-5.58 15.3-1.84 4.12 10.62-.14 15.41-11.12 5.58-15.3 1.84zm13.24-14.79c-2.82-2.53-7.6-1.84-10.64 1.58s-3.22 8.22-.4 10.75 7.6 1.82 10.64-1.58 3.23-8.22.4-10.75z"/><path class="cls-1" d="M21.84 47.55c3.85-3.1 10.5-5.77 14.75-7.12.51-3.24-1.23-5.34-1.18-6.83-.83.7-1.57 1.31-2.19 1.8-9.2 7.28-22 6.32-22 6.32L17 44.41l3 4.92c0-.81-4.08 2.98 1.84-1.78zm17.23 12.33h-.63a.51.51 0 00.63 0zm10.55 12.75a20.18 20.18 0 00-4.22 8.55c-.81 4.65 1.91 9.26 1.91 9.26l-5-1.9-4.4-9.25 4.74-1.11zM19.84 55.57l1.68 1.5-4.97 5.56-2.12-1.89 5.41-5.17zm27.59-17.38C59.23 29.43 74.33 17 74.33 17l-24.21 9.42z"/><path class="cls-1" d="M45.37 41.75C47.61 30.23 55 0 55 0L36.8 32.21s5.38 13.59 3 25.22c-.22 1.07-.37 1.86-.48 2.46l5.48.36 5 3.93s-6.67-10.92-4.43-22.43zm-3.75-7.87a1.88 1.88 0 112.43-1.09 1.88 1.88 0 01-2.43 1.09zm-2.34 26.29c-.42 2.34 0 .74 0 0zm-.21-.29h.13a.1.1 0 00-.13 0z"/><path class="cls-1" d="M39.28 60.17l.05-.28h-.13a.46.46 0 01.08.28z"/></g></g></svg>