<svg xmlns="http://www.w3.org/2000/svg" viewBox="0 0 63.61 63.61"><defs><style>.cls-1{fill:#bd9254}</style></defs><g id="Layer_2" data-name="Layer 2"><g id="_1" data-name="1"><path class="cls-1" d="M31.81 63.61a31.81 31.81 0 1131.8-31.81 31.84 31.84 0 01-31.8 31.81zm0-59.82a28 28 0 1028 28 28 28 0 00-28-28z"/><circle class="cls-1" cx="31.81" cy="31.81" r="3.03"/><rect class="cls-1" x="29.83" y="5.83" width="4.23" height="6.36" rx="1.52" ry="1.52"/><path class="cls-1" d="M28.81 35.71a1.59 1.59 0 01-.39-.05 1.53 1.53 0 01-.92-.71l-.59-1a1.52 1.52 0 01.56-2.08l14-8.08a1.52 1.52 0 012.08.56l.59 1a1.52 1.52 0 01-.56 2.08l-14 8.09a1.52 1.52 0 01-.77.19z"/><rect class="cls-1" x="51.42" y="29.69" width="6.36" height="4.23" rx="1.52" ry="1.52"/><rect class="cls-1" x="29.75" y="51.5" width="4.23" height="6.36" rx="1.52" ry="1.52"/><rect class="cls-1" x="5.83" y="29.83" width="6.36" height="4.23" rx="1.52" ry="1.52"/><path class="cls-1" d="M33.82 37.26a1.59 1.59 0 01-.39-.05 1.52 1.52 0 01-.92-.71L22.9 19.87a1.52 1.52 0 01.56-2.08l1-.59a1.52 1.52 0 012.08.56l9.61 16.63a1.52 1.52 0 01-.56 2.08l-1 .6a1.52 1.52 0 01-.77.19z"/></g></g></svg>