<svg xmlns="http://www.w3.org/2000/svg" viewBox="0 0 54.78 58.14"><defs><style>.cls-1{fill:#fdfefe}</style></defs><g id="Layer_2" data-name="Layer 2"><g id="_1" data-name="1"><path class="cls-1" d="M35.89 1.78a4.32 4.32 0 00-6-1L18 9.45l18.83-6.37zm8.27 6.64a4.3 4.3 0 00-5.43-2.72L24.1 10.63h20.81zm.14 36.93a10.11 10.11 0 010-20.23h3.45a10.08 10.08 0 012.85.42v-7.78a4.32 4.32 0 00-4.31-4.08h-42A4.33 4.33 0 00.1 17.1a4.36 4.36 0 00-.1.9v35.82a4.32 4.32 0 004.29 4.32h42a4.32 4.32 0 004.32-4.32v-8.88a10.08 10.08 0 01-2.85.41z"/><path class="cls-1" d="M50.59 28.82a7 7 0 00-2.85-.61H44.3a7 7 0 100 14.05h3.45a7 7 0 002.85-13.45zM46 38.29a3.05 3.05 0 113.05-3.05A3.05 3.05 0 0146 38.29z"/></g></g></svg>