<svg xmlns="http://www.w3.org/2000/svg" width="36" height="36" fill="#193532" viewBox="0 0 256 256"><path fill="none" d="M0 0h256v256H0z"/><path d="M128 24a80 80 0 00-80 80c0 72 80 128 80 128s80-56 80-128a80 80 0 00-80-80zm0 112a32 32 0 1132-32 32 32 0 01-32 32z" fill="#588782"/><circle cx="128" cy="104" r="32" fill="none" stroke="#193532" stroke-linecap="round" stroke-linejoin="round" stroke-width="16"/><path d="M208 104c0 72-80 128-80 128s-80-56-80-128a80 80 0 01160 0z" fill="none" stroke="#193532" stroke-linecap="round" stroke-linejoin="round" stroke-width="16"/></svg>