<svg xmlns="http://www.w3.org/2000/svg" width="613" height="364"><path data-name="Path 2" d="M127.315 272.035L147 198.619l-5.586-9.044h21.146q19.019 0 28.661 6.118t9.643 17.822a26.256 26.256 0 01-6.317 17.29q-6.317 7.581-17.623 11.7a74.174 74.174 0 01-25.536 4.123q-3.059 0-9.709-.532l-8.246 30.993 5.586 8.911h-20.482zm15.561-30.324q4.256.4 7.98.4a62.242 62.242 0 0021.944-3.592q9.576-3.591 14.9-10.174a23.528 23.528 0 005.32-15.228q0-10.108-7.847-14.564t-25.406-4.453h-4.123zm81.795 45.889q-11.7 0-18.354-7.448t-6.65-20.752a47.32 47.32 0 015.586-22.677 44.648 44.648 0 0115.029-16.623 36.661 36.661 0 0120.482-6.185q11.837 0 18.354 7.182t6.517 20.216a48.878 48.878 0 01-5.586 22.943 45.2 45.2 0 01-15.029 17.023 35.9 35.9 0 01-20.349 6.321zm-17.423-27q0 10.773 4.589 16.558t13.1 5.786a26.729 26.729 0 0016.292-5.719 40.332 40.332 0 0012.236-15.428 47.949 47.949 0 004.589-20.748q0-10.906-4.456-16.692t-12.967-5.786a26.99 26.99 0 00-16.492 5.786 40.624 40.624 0 00-12.3 15.494 47.95 47.95 0 00-4.591 20.749zm81.4-36.176l-8.778-8.113h17.29l-8.379 32.053q6.384-15.827 13.566-23.94t14.231-8.113a7.234 7.234 0 014.189 1.064 3.375 3.375 0 011.53 2.926 3.375 3.375 0 01-1.53 2.926 7.5 7.5 0 01-4.322 1.064q-9.31 0-18.354 13.167T281.2 279.217L279.334 286h-7.182zm54.393 63.176q-6.251 0-9.709-3.857t-3.458-10.243a38.332 38.332 0 011.33-9.044l11.7-43.491h-13.7l1.2-4.655h13.7l10.374-21.014h2.394l-5.586 21.014h17.822l-1.2 4.655H350.09l-11.7 43.757a30.473 30.473 0 00-1.33 8.246 9.78 9.78 0 002.194 6.65q2.194 2.527 6.584 2.527a15.347 15.347 0 007.714-2.128 25.431 25.431 0 006.916-5.985l1.2 1.064a25.065 25.065 0 01-7.847 9.044 18.34 18.34 0 01-10.78 3.46zm47.481-66.633h-14.63l1.2-4.655h14.364a11.652 11.652 0 01-3.79-4.921 17.4 17.4 0 01-1.4-7.049 17.664 17.664 0 012.926-9.908 19.959 19.959 0 018.046-6.983 25.646 25.646 0 0111.5-2.527 19.222 19.222 0 018.977 1.8q3.392 1.8 3.392 4.589a3.3 3.3 0 01-1.13 2.593 4.562 4.562 0 01-3.125 1 13.161 13.161 0 01-5.054-1.463 34.206 34.206 0 00-3.591-1.463 12.276 12.276 0 00-3.857-.532 12.889 12.889 0 00-9.709 3.857 13.762 13.762 0 00-3.724 9.975q0 5.32 2.992 8.18t8.711 2.859h9.842l-1.2 4.655h-13.7L373.1 312.6h-7.182zm43.225 66.633q-11.7 0-18.354-7.448t-6.65-20.752a47.32 47.32 0 015.586-22.677 44.648 44.648 0 0115.029-16.623 36.661 36.661 0 0120.482-6.185q11.837 0 18.354 7.182t6.517 20.216a48.878 48.878 0 01-5.586 22.943 45.2 45.2 0 01-15.025 17.023 35.9 35.9 0 01-20.353 6.321zm-17.423-27q0 10.773 4.589 16.558t13.1 5.786a26.729 26.729 0 0016.292-5.719 40.332 40.332 0 0012.236-15.428 47.95 47.95 0 004.589-20.748q0-10.906-4.456-16.692t-12.967-5.786a26.99 26.99 0 00-16.492 5.786 40.623 40.623 0 00-12.3 15.494 47.95 47.95 0 00-4.591 20.749zm75.943 27a9.549 9.549 0 01-7.514-3.059q-2.726-3.059-2.727-9.044a43.175 43.175 0 011.729-11.039l18.753-69.692-9.975-8.512h19.152L490.8 265.518a42.166 42.166 0 00-1.729 9.709 9.016 9.016 0 001.8 5.985 6.022 6.022 0 004.854 2.128 5.829 5.829 0 003.059-.8 8.152 8.152 0 002.527-2.66l1.33.8a8.566 8.566 0 01-3.591 4.988 11.645 11.645 0 01-6.783 1.932zm37.107-94.031a5.68 5.68 0 011.663-4.189 5.519 5.519 0 014.056-1.663 5.519 5.519 0 014.057 1.663 5.68 5.68 0 011.663 4.189 5.461 5.461 0 01-1.663 4.123 5.639 5.639 0 01-4.057 1.6 5.639 5.639 0 01-4.056-1.6 5.461 5.461 0 01-1.663-4.127zm-5.852 94.031a9.654 9.654 0 01-7.581-3.125q-2.793-3.126-2.793-8.978a46.342 46.342 0 011.862-11.039l10.64-39.767-8.911-8.379h18.354l-13.167 49.21a40.3 40.3 0 00-1.463 9.709q0 8.113 5.852 8.113a6.092 6.092 0 003.192-.8 8.152 8.152 0 002.527-2.66l1.33.8a8.843 8.843 0 01-3.391 4.987 10.51 10.51 0 01-6.451 1.929zm44.688 0q-11.7 0-18.354-7.448t-6.65-20.752a47.32 47.32 0 015.586-22.677 44.648 44.648 0 0115.029-16.623 36.661 36.661 0 0120.479-6.186q11.837 0 18.354 7.182t6.517 20.216a48.878 48.878 0 01-5.586 22.943 45.2 45.2 0 01-15.026 17.024 35.9 35.9 0 01-20.349 6.321zm-17.423-27q0 10.773 4.589 16.558t13.1 5.786a26.729 26.729 0 0016.292-5.719A40.332 40.332 0 00597 261.794a47.95 47.95 0 004.589-20.748q0-10.906-4.456-16.692t-12.963-5.785a26.99 26.99 0 00-16.492 5.786 40.623 40.623 0 00-12.3 15.494 47.95 47.95 0 00-4.591 20.751z" fill="#ffe036" opacity=".997"/><path data-name="Path 1" d="M95.616 150.258Q82.5 174.826 53.618 174.826a51.225 51.225 0 01-24.4-5.644A40.711 40.711 0 0112.7 153.329q-5.894-10.209-5.894-23.655a49.9 49.9 0 016.059-24.568 44.113 44.113 0 0116.849-17.181A47.613 47.613 0 0153.95 81.7a47.823 47.823 0 0118.758 3.569 32.76 32.76 0 0113.363 9.794 21.43 21.43 0 014.9 13.529q0 5.644-2.822 8.549t-8.134 2.9q-5.312 0-8.051-3.071t-3.24-9.54q-1.494-15.6-14.94-15.6a19.6 19.6 0 00-16.849 8.8q-6.225 8.8-6.225 23.406 0 17.6 9.047 27.473t24.817 9.871q16.766 0 29.382-12.284zm38.844 24.568q-13.612 0-21.58-6.391t-7.968-17.347a20.59 20.59 0 016.225-15.272q6.225-6.142 18.177-9.13 11.62-3.652 31.042-3.652v-7.8q0-12.782-4.4-19.007T142.76 90q-6.972 0-10.624 3.652t-3.984 10.79q0 5.81-2.656 9.047a9.121 9.121 0 01-7.47 3.237 9.924 9.924 0 01-7.553-3.071 11.467 11.467 0 01-2.905-8.217 18.217 18.217 0 014.732-12.367q4.731-5.395 13.28-8.383a58.952 58.952 0 0119.5-2.988q18.758 0 28.635 8.881T183.6 115.9v34.528q0 9.3 6.972 9.3a6.5 6.5 0 003.486-.83l.83.83q-1.162 6.474-5.4 9.877T178.45 173a17.6 17.6 0 01-10.209-2.9 15.08 15.08 0 01-5.893-7.885 24.042 24.042 0 01-10.956 9.3 40.55 40.55 0 01-16.932 3.311zm9.462-11.288a16.875 16.875 0 0010.378-3.154 17.216 17.216 0 006.059-8.8v-21.58a86.632 86.632 0 00-12.533 1.245 45.044 45.044 0 00-10.046 2.741q-9.462 4.15-9.462 14.276 0 6.972 4.316 11.122t11.288 4.15zm72.378-7.968v-52.456L200.528 85.02h36.852v22.908q5.312-12.45 14.442-19.09A34.906 34.906 0 01272.9 82.2q13.778 0 21.248 9.3t7.47 26.394v41L313.408 173h-42.5l7.47-16.6v-37.682q0-10.292-3.818-15.6T263.11 97.8a19.456 19.456 0 00-14.276 6.225q-6.142 6.225-9.3 17.347v36.852L251.988 173H208.5zm110.886-53.618L311.25 85.02h48.638l-7.47 16.766 19.92 51.294 21.58-53.12-12.45-14.94h29.714L375.326 174h-18.758zm121.18 72.874q-13.612 0-21.58-6.391t-7.968-17.347a20.59 20.59 0 016.225-15.272q6.225-6.142 18.177-9.13 11.62-3.652 31.042-3.652v-7.8q0-12.782-4.4-19.007T456.666 90q-6.972 0-10.624 3.652t-3.984 10.79q0 5.81-2.656 9.047a9.121 9.121 0 01-7.47 3.237 9.924 9.924 0 01-7.553-3.071 11.467 11.467 0 01-2.9-8.217 18.217 18.217 0 014.721-12.367q4.731-5.395 13.28-8.383a58.953 58.953 0 0119.51-2.988q18.758 0 28.635 8.881T497.5 115.9v34.528q0 9.3 6.972 9.3a6.5 6.5 0 003.486-.83l.83.83q-1.162 6.474-5.395 9.877T492.356 173a17.6 17.6 0 01-10.209-2.9 15.08 15.08 0 01-5.893-7.885 24.042 24.042 0 01-10.956 9.3 40.55 40.55 0 01-16.932 3.311zm9.462-11.288a16.875 16.875 0 0010.372-3.154 17.216 17.216 0 006.059-8.8v-21.58a86.631 86.631 0 00-12.533 1.245 45.044 45.044 0 00-10.043 2.739q-9.462 4.15-9.462 14.276 0 6.972 4.316 11.122t11.291 4.152zm64.072-18.094l16.766 9.462q16.934 9.462 31.212 9.462 14.442 0 14.442-9.628 0-5.644-5.893-9.462t-20-7.138q-19.09-4.316-27.971-11.786a24.008 24.008 0 01-8.884-19.254q0-11.786 8.134-18.592t22.41-6.806a53.069 53.069 0 0129.548 8.632l15.272-6.806v27.722l-13.944-8.632q-16.766-10.79-29.548-10.79-6.308 0-9.628 2.407a8 8 0 00-3.32 6.889q0 5.644 5.893 9.379t19.671 6.723q20.086 4.15 29.216 11.371t9.13 19.339q0 12.616-8.964 19.754t-24.9 7.138a63.659 63.659 0 01-30.378-7.8L521.9 174.66z" fill="#fff" opacity=".993"/></svg>