<svg viewBox="0 0 121.91 112.15" xmlns="http://www.w3.org/2000/svg"><path d="M30.88 8.68C22 13.42 8.7 19.72 5.73 30.4s6 19.6 14.77 24.06c23.64 11.92 51.8 7.3 75.76-1.1a.76.76 0 00.17-1.36c-21.7-14.28-42.7-29.64-64.8-43.32-.82-.5-1.58.8-.76 1.3C53 23.66 74 39 95.67 53.3l.2-1.37C75.14 59.18 52 63.57 30.52 56.87 20.08 53.6 5.9 46.5 6.7 33.5c.73-11.7 16-18.77 24.93-23.5.85-.45.1-1.75-.76-1.3zM5.95 28.2A15.94 15.94 0 00.08 38.93c-.43 4 1 6.63 2.47 10.2 1.7 4.1-.16 9.54 2.6 13.15 1.65 2.12 4.28 3 6.48 1.35L10.5 63a7.94 7.94 0 004.63 7.3 7.5 7.5 0 004.93.63c3.23-.78 5.26-2.8 8.77-.87 1.58.87 3 2.13 4.9 2.44 3 .5 5.66-1.25 8.78-.38 2 .55 2.82 1.85 5.06 1.54 2.83-.4 4.53-2.78 7.64-3 3.4-.22 7.2 1.17 10.7 1.14A44.94 44.94 0 0074 71a68.85 68.85 0 009.36-2.7c3-1 6.4-1.17 9.36-2.25 6.18-2.26 7.17-11.06 2.17-15-.76-.6-1.83.46-1.07 1.06 3.77 3 3.85 9.73-.72 12.17-2 1.07-4.7.93-6.86 1.5s-4.35 1.5-6.56 2.23a45.62 45.62 0 01-15.57 2.32c-4-.16-8.24-2-12.1-.45-2.96 1.15-3.18 3-7.63 1.62-1.3-.42-2.18-1.42-3.6-1.6s-1.84.37-3.22.53a10.55 10.55 0 01-7.46-1.33c-1.8-1.07-3.56-2.14-5.75-1.74S21 69.5 18.72 69.6A6.6 6.6 0 0112 63c0-.5-.66-1-1.13-.65-3.66 2.8-5.38-3.6-5.66-5.75-.15-1.25.12-2.57 0-3.83a14 14 0 00-1.67-5C.37 41.17 1.13 34.12 7 29.27c.74-.63-.32-1.68-1.06-1.07zM1.48 47C1.4 51.93-.1 57.58 3.08 61.6c7.06 8.94 18.48 13.84 29.37 16 14.3 2.9 29.37 2.4 43.7 0 3.6-.6 7.2-1.35 10.75-2.27 2.13-.55 6.3-.9 7.67-3s.9-6.2 1.1-8.57c.07-1-1.43-1-1.5 0-.12 1.28-.23 2.55-.36 3.82a10.62 10.62 0 01-.28 2.74c-.84 2-2.74 2.34-4.82 2.93a124 124 0 01-19.93 3.83C56 78.62 42.7 78.62 30.17 75.6c-9.65-2.32-19.8-7-26-15.05C1.56 57.2 2.93 51.75 3 47a.75.75 0 00-1.5 0zm21.9-7.88l.33.33a.75.75 0 001.07-1.06l-.33-.34a.75.75 0 00-1.06 1.06zM31 28.93v-.33a.75.75 0 00-.75-.75.77.77 0 00-.75.75v.33a.75.75 0 00.75.75.77.77 0 00.75-.75zm32.16 9.99v.33a.75.75 0 001.5 0v-.33a.75.75 0 00-1.5 0zm5.42 13.75a.75.75 0 000-1.5.75.75 0 000 1.5zm-22.42-1.41v.33a.75.75 0 001.5 0v-.34a.75.75 0 00-1.5 0zM48.58 41h.33a.75.75 0 000-1.5h-.32a.75.75 0 000 1.5zm-14 6.17h-.33a.75.75 0 000 1.5h.33a.75.75 0 000-1.5zm11-15.17a.75.75 0 000-1.5.75.75 0 000 1.5zM18.9 32a.75.75 0 000-1.5.75.75 0 000 1.5zM5.78 36.6c-2.62 1.47-3 4.88-1.73 7.42a8.75 8.75 0 008.6 4.74c1-.08 1-1.58 0-1.5a7.35 7.35 0 01-6.7-3c-1.35-1.9-1.77-5.1.6-6.4a.75.75 0 00-.77-1.3zm-.61 2.8a4.87 4.87 0 004.3 6c1 .1 1-1.4 0-1.5a3.35 3.35 0 01-2.85-4.1.75.75 0 00-1.45-.4zm7.48 9.8c.28 2.77-.2 5.2 1.42 7.64a14.4 14.4 0 005.2 5c3.94 1.85 8.65-.74 11.4-3.54.67-.7-.4-1.75-1.07-1.06-2.88 3-7.42 5.16-11.15 2.23a14.67 14.67 0 01-3.38-3.85c-1.16-2.1-.7-4.22-.9-6.45-.1-1-1.6-1-1.5 0zM16 51.67a6.13 6.13 0 003 7.8c3.24 1.7 6.9.7 9.8-1.2.8-.54.05-1.84-.76-1.3-2.13 1.4-4.67 2.37-7.24 1.6a4.8 4.8 0 01-3.33-6.5c.37-.9-1.08-1.3-1.45-.4zM61.2 61.7c3.42 1.3 5.95 2.9 9.8 2.3a13.7 13.7 0 008.67-5.25c.6-.75-.47-1.82-1.06-1.06a12.27 12.27 0 01-8.78 4.93c-3.1.2-5.42-1.34-8.2-2.38-.9-.34-1.3 1.1-.4 1.45zm5.08-1c4 3 9.63.92 12.56-2.5.63-.73-.43-1.8-1.06-1.06C75.26 60.1 70.5 62 67 59.42c-.77-.58-1.52.72-.76 1.3zm-29.93-.58a9 9 0 0014.1.8c.66-.72-.4-1.8-1.05-1.07a7.47 7.47 0 01-11.76-.48c-.57-.76-1.87 0-1.3.76zM33.63 59c.6 3.57 5.06 6.44 8.38 7.12 4.7 1 8.82-1.8 12.2-4.67.75-.62-.32-1.68-1.05-1.06-2.63 2.2-5.68 4.45-9.3 4.38-3.18-.06-8.18-2.77-8.77-6.18-.16-.95-1.6-.55-1.45.4zM81 16.35a48.25 48.25 0 007.82-.35.78.78 0 00.75-.75c.12-1.9-.07-4.37 1.1-6 .36-.5 1.08-.88 1.5-1.4a4.16 4.16 0 00.9-4.34C91.73.38 87.23-.3 84.3.13S77 2.6 76.65 5.9a3.06 3.06 0 001 2.8c1.25 1 1.54-.16 2.05 2.28a23.87 23.87 0 010 4.32.75.75 0 001.5 0c0-1.7.7-5.4-.48-6.85s-1.26.67-1.37-2.45c-.07-1.95 0-2.13 1.56-3.08a9.94 9.94 0 012.73-1.15 9.5 9.5 0 015 .1c1.82.53 3.35 3.52 2.3 5.1-.4.65-1.12.9-1.6 1.46-1.53 1.72-1.07 4.65-1.22 6.8l.76-.75a48.25 48.25 0 01-7.77.37c-1 0-1 1.47 0 1.5zM85 15a45.57 45.57 0 00-.27-8.32c-.12-.95-1.62-1-1.5 0a45.57 45.57 0 01.3 8.32c-.05 1 1.45 1 1.5 0zm-36.05 91.56a6.93 6.93 0 00-.54 5 .74.74 0 00.53.52 4.84 4.84 0 005.6-3.4 2.77 2.77 0 00.07-1.68c-.25-.52-1-.8-1.52-1a7.1 7.1 0 00-4.26-.37c-.94.2-.54 1.64.4 1.45a5.6 5.6 0 014.32.88l-.37-.65a3.28 3.28 0 01-3.83 3.37l.52.52a5.3 5.3 0 01.38-3.82c.43-.86-.86-1.62-1.3-.76zM56 97.47a2.34 2.34 0 001 2.53 2 2 0 002.33-.66A2.5 2.5 0 0059.9 97a1.13 1.13 0 00-1.13-.9c-.7 0-1.37 0-2.06-.07a.75.75 0 000 1.5l2.28.06-.65-.38a1 1 0 01-.27 1.28 2.86 2.86 0 01-.27.13.2.2 0 01-.15 0q.24.08.06 0c-.14-.3-.36-.42-.27-.8.2-.95-1.23-1.35-1.45-.4zm6.2 12.47a2.62 2.62 0 004.6-1.23c.14-1.44-1.22-1.66-2.4-1.5a4.23 4.23 0 00-3.14 2.12.75.75 0 001.3.76 2.73 2.73 0 013.25-1.27l-.5-.5c.22.8-1.3 1.62-1.8.9s-1.83 0-1.3.75zm50.2-92.21a2.3 2.3 0 001.83-2.1 2 2 0 00-1.6-1.75 2.5 2.5 0 00-2.28.46 1.1 1.1 0 00-.46 1.2c.2.68.52 1.34.78 2 .35.9 1.8.5 1.45-.4L111.3 15l-.08.58a1 1 0 011.17-.23.84.84 0 01.17.1l.1.12q.12.17 0 .07c0 .36-.44.56-.72.6-.95.2-.55 1.64.4 1.46zM121.34 7c1.2-1.83-1-4.3-3-3.67a1.16 1.16 0 00-1 1.26 3.93 3.93 0 00.63 1.7 4.28 4.28 0 003.2 1.9c1 .1 1-1.4 0-1.5a2.7 2.7 0 01-2.36-2.38l-.2.53c.67-.57 1.87.7 1.4 1.4s.78 1.56 1.3.76z" fill="#fff"/></svg>