<svg id="Leadership" height="512" viewBox="0 0 64 64" width="512" xmlns="http://www.w3.org/2000/svg"><path d="m43.049 34.856a11.232 11.232 0 0 0 -2.643.325 7.42 7.42 0 0 0 -1.345-.637l-6.923-2.378v-1.972a9.217 9.217 0 0 0 3.835-6.21 2.091 2.091 0 0 0 1.859-2.076v-2.12c0-.037-.009-.071-.011-.107v-2.137a10.969 10.969 0 0 0 -21.937 0v4.364a2.091 2.091 0 0 0 1.859 2.076 9.217 9.217 0 0 0 3.835 6.21v1.972l-6.922 2.378a7.39 7.39 0 0 0 -4.989 6.988v7.179a1 1 0 0 0 1 1h21.686a11.281 11.281 0 1 0 10.7-14.855zm-16.2-26.28a8.978 8.978 0 0 1 8.969 8.968v.118a3.7 3.7 0 0 1 -1.178-1.854 1 1 0 0 0 -1.006-.7c-1.585.08-3.455-1.6-4.051-2.261a1 1 0 0 0 -1.422-.063 9.6 9.6 0 0 1 -7.8 2.262 1.014 1.014 0 0 0 -.776.158 1 1 0 0 0 -.418.673 2.927 2.927 0 0 1 -1.007 1.823h-.02-.169c-.03 0-.058.007-.087.009v-.165a8.978 8.978 0 0 1 8.968-8.968zm-7.2 14.083v-.172a1 1 0 0 0 -1.764-.645v-1.988a1 1 0 0 0 1.764-.646 1.494 1.494 0 0 0 -.015-.15 4.914 4.914 0 0 0 1.274-1.925 11.473 11.473 0 0 0 7.884-2.257 8.264 8.264 0 0 0 4.2 2.206 5.963 5.963 0 0 0 1.129 1.762 1.508 1.508 0 0 0 -.05.364 1 1 0 0 0 1.765.645v1.99a1 1 0 0 0 -1.765.644v.172a7.21 7.21 0 1 1 -14.419 0zm7.21 9.21a9.158 9.158 0 0 0 3.28-.6v1.044l-2.327 1.376-.02.011-.933.552-.933-.551-.02-.012-2.327-1.376v-1.048a9.158 9.158 0 0 0 3.279.604zm-.509 4.4a1 1 0 0 0 1.018 0l.066-.04 1.1 11.48h-3.354l1.1-11.48zm-14.683 5.263a5.389 5.389 0 0 1 3.638-5.1l7.161-2.46 1.915 1.131-1.21 12.6h-11.5zm18.878 6.179-1.211-12.6 1.916-1.131 6.47 2.22a11.151 11.151 0 0 0 -5.833 11.513zm12.5 7.713a9.284 9.284 0 1 1 9.284-9.284 9.295 9.295 0 0 1 -9.28 9.284z"/><path d="m47.425 45.14h-3.376v-4.14a1 1 0 0 0 -2 0v5.14a1 1 0 0 0 1 1h4.376a1 1 0 0 0 0-2z"/></svg>