<svg xmlns="http://www.w3.org/2000/svg" viewBox="0 0 431.59 263.42">
  <defs>
    <style>
      .a {
        opacity: 0.85;
      }

      .b {
        fill: #fff;
      }
    </style>
  </defs>
  <g class="a">
    <g>
      <path class="b" d="M430.79,204.2a.59.59,0,0,0,.14-.06l.37-.73c-.14.22-.28.44-.43.66A.57.57,0,0,1,430.79,204.2Z"/>
      <path class="b" d="M431.41,203.24h0l-.05.06-.06.11.08-.12.21-.1Z"/>
      <path class="b" d="M249.44,139a1,1,0,0,0-.1-.79,11.87,11.87,0,0,0-1.9-2.5,3.08,3.08,0,0,0-2.3-1.32,1.72,1.72,0,0,0-1.46,1,2.59,2.59,0,0,0-.11,1.82,5.5,5.5,0,0,0,.85,1.65,11.71,11.71,0,0,0,.76,1,1.15,1.15,0,0,0,.47.38,1.28,1.28,0,0,0,.52,0,7.69,7.69,0,0,0,2.74-.77A1,1,0,0,0,249.44,139Z"/>
      <path class="b" d="M389.41,58.76c-1.25,6.77-2.65,17.92-3.78,31.28q.44-3.42.86-6.84Q388,71,389.41,58.76Z"/>
      <path class="b" d="M389.6,58.78Q388.54,71,387.3,83.3q-1.32,12.81-2.85,25.61l-.21,1.78c-3.11,61.65,2.14,143,46.55,93.51C377.71,252.64,388.39,122.64,389.6,58.78Z"/>
      <path class="b" d="M387.3,83.3q1.23-12.26,2.3-24.52c0-.38.07-.76.1-1.13l-.16,0c0,.38-.09.76-.13,1.13Q388,71,386.49,83.2q-.42,3.42-.86,6.84c-.79,6.24-1.6,12.47-2.47,18.7-1.2,8.5-2.56,17-3.83,25.44-.6,4.25-1.31,8.47-2.05,12.69-.36,2.11-.78,4.21-1.24,6.3a42.78,42.78,0,0,1-1.72,6.17l.15.07c1.92-3.9,2.9-8.14,3.92-12.31s1.78-8.42,2.55-12.65c1.38-7.89,2.35-15.82,3.3-23.76l.21-1.78Q386,96.12,387.3,83.3Z"/>
      <path class="b" d="M202.77,172.07a18.77,18.77,0,0,1-1.63,1.49c-1,.77-2.07,1.58-3.14,2.28l-.09.06-.1.07h0c-4.19,2.63-9.18,3.15-13.63.33-2.79-1.76-5.63-3.44-8.45-5.16-5.12-3.14-8.17-1.46-11.18,2.44-.75,1-1.49,1.94-2.22,2.92a33.55,33.55,0,0,1-2.18,2.71.49.49,0,0,1-.35.19.3.3,0,0,1-.24-.21.93.93,0,0,1,0-.33,4.29,4.29,0,0,1,.54-1.59l.81-1.69c1.2-2.51,2.39-5,3.6-7.53s2.44-5,3.73-7.47a4.44,4.44,0,0,1,2.87-2.55c1.55-.31,3.18.63,4.32,1.59a8.38,8.38,0,0,1,2,2.41l.13.28a25.91,25.91,0,0,0-.75-3.13,13.56,13.56,0,0,0-.66-2c-1.32-2.87-4.83-4.06-7.78-3.5a97.21,97.21,0,0,0-9.74,2.17c-8.48,2.53-16.89,5.25-25.33,7.87-.82.26-1.67,1-1.29-1,1-4.95,1.44-10,2.22-15,.65-4.17,1.48-8.32,2.19-12.49s1.32-8.38,2-12.56c.64-3.71,1.37-7.41,2-11.13,1-5.52,2-11.05,2.93-16.57.71-4,1.52-8.08,2.18-12.14.72-4.4,1.39-8.81,2-13.24.5-3.75.92-7.53,1.2-11.31,0-.45.06-.9.08-1.34.06-1.4.07-2.81.05-4.21,0-.7,0-1.41,0-2.11a2.65,2.65,0,0,0-.43-1.5,1.34,1.34,0,0,0-1.85,0,2.32,2.32,0,0,0-.28.57,41.58,41.58,0,0,0-1.35,5.33q-1.81,7.74-3.8,15.44-1.8,7.05-3.78,14.06c-1.21,4.26-2.46,8.5-3.78,12.73q-1.8,5.78-3.75,11.49Q128,114.06,126,119.2q-1.76,4.65-3.68,9.24c-1.17,2.76-2.37,5.51-3.64,8.23-.59,1.25-1.19,2.5-1.8,3.74s-1.26,2.31-1.78,3.5c-.08.19-.18.37-.27.54a131,131,0,0,1-8.28,14.23,97.69,97.69,0,0,1-17.88,19.6,22.9,22.9,0,0,1-2.06,1.65c-.32.22-.63.41-.94.63a4,4,0,0,1-1.09.57c-.22.09-.24.12-.35,0a4.3,4.3,0,0,1-.26-.71,12.62,12.62,0,0,0-.82-2.28,9.24,9.24,0,0,0-.94-1.68,4,4,0,0,0-3.84-1.73A3.84,3.84,0,0,0,75,178.1c-.62,3.56.64,5.78,4.19,6.75,1.53.42,1.69-.29,1.82,1.51.32,4.39,0,8.7-2.38,12.62-.6,1-1.38,1.2-2.06.88a2.16,2.16,0,0,1-1-1c-.12-.2-.24-.42-.34-.63l-.32-.6c-3.61-7-4.44-15-4.43-21.08a29.57,29.57,0,0,1,.71-9.28.18.18,0,0,0,0-.05c.26-1.09,1.52-2.94,2.76-3.28s2.41.84,3.14,1.71c.1.13.94,1.36,1.78,2.83a12.64,12.64,0,0,1,1.84,4.41c0-.23.12-.46.14-.68a4.06,4.06,0,0,0,0-.6c0-.44-.06-.89-.11-1.34a23.44,23.44,0,0,0-.44-2.64,14.55,14.55,0,0,0-2.12-4.88c-.07-.09-.15-.2-.22-.31-2.31-3.09-4.11-3.2-7.29-.92q-6.15,4.41-12.36,8.75c-2.6,1.82-2.63,1.79-4.29-.9-4-6.48-10.06-9.08-17.31-8.47-3.69.32-7.37,1.69-10.89,3l-.73.29a60.19,60.19,0,0,0-10,5.13c-1.58,1-3.12,2.05-4.63,3.16-.75.55-1.51,1.11-2.25,1.69s-1.4,1.39-2.21,1.5a.61.61,0,0,1-.75-.53,5,5,0,0,1,.14-1.89c.13-.68.25-1.36.37-2,.25-1.35.52-2.71.81-4.06A27.22,27.22,0,0,1,10,157.9c4-6.29,8-12.62,11.52-19.18,4.1-7.58,8.1-15.26,11.47-23.19,4.47-10.52,8.76-21.15,12.21-32,3.17-10,6.29-20.09,7.38-30.66.61-6,2.09-12,2.45-18,.54-9.07.8-18.2-.63-27.23a.11.11,0,0,0,0,0c-.29-1.82-.38-3.78-1.3-5.43a3.67,3.67,0,0,0-4-2,4.69,4.69,0,0,0-1.17.45,12.21,12.21,0,0,0-4.07,4.2,75.62,75.62,0,0,0-3.83,7c-1.23,2.41-2.4,4.86-3.42,7.37A221.6,221.6,0,0,0,25.54,56.87c-1.81,8.49-3.34,17-5,25.56-1.05,5.26-2.17,10.51-3.2,15.79C16.18,104,15.23,109.91,14,115.71c-2,9.6-4.25,19.17-6.38,28.75C5.56,152.65,3.94,161,2.1,169.19c-.41,1.79-.89,3.57-1.34,5.35A23.12,23.12,0,0,0,0,178.37a5.81,5.81,0,0,0,.28,2.46A3.33,3.33,0,0,0,3,183c1.3,0,2.28-1.23,3.24-2,4.48-3.39,8.79-7,13.54-10,6-3.72,12.34-6.57,19.78-6.29,5.91.22,9.62,3.15,12.32,8,1,1.72.64,2.89-.77,4.22-2.44,2.28-4.66,4.79-7,7.17-7.34,7.48-12.63,16.37-17.48,25.55a41.25,41.25,0,0,0-4.85,20.58c.11,4.51,5.32,9.21,10.08,7.61a26.52,26.52,0,0,0,10.21-6.76A57.94,57.94,0,0,0,52.62,216.7c3.26-6.21,6.09-12.72,6.6-19.77.47-6.39,1-12.89-1.15-19.18a2.86,2.86,0,0,1,1-3.37c1.3-1.06,2.57-2.16,3.84-3.26.64-.55,1.28-1.11,1.94-1.65a5.1,5.1,0,0,1,1.84-1.25,1.16,1.16,0,0,1,.32,0,.68.68,0,0,1,.51.45,2.11,2.11,0,0,1,.11.71c.1,2.54.17,5.06.25,7.6.62,9.92,2.72,26.19,10,27.27,0,0,4.43.72,6.39-10.25a58.88,58.88,0,0,0,.69-5.9c0-.57,0-1.15,0-1.71a2.34,2.34,0,0,1,1.11-2.2,118.66,118.66,0,0,0,9.51-7.35c12.25-10.42,19.79-24.14,26.06-38.54a214.83,214.83,0,0,0,11.82-34c2.47-10,5.16-19.91,7.69-29.88,1-4.07,2-8.18,2.95-12.27.16-.69.33-1.39.5-2.08a6.91,6.91,0,0,1,.54-1.88,1.5,1.5,0,0,1,.27-.34.4.4,0,0,1,.66.2,1.6,1.6,0,0,1,0,.39,12.35,12.35,0,0,1-.52,2.79l0,.27-.13.78c0,.09,0,.18-.05.27l-.17,1-.14.8-4.68,27.37-.08.45c-.13.83-.26,1.64-.4,2.47-.32,2-.68,4-1,6l-10,58.56v.12c-.19,1.45-.36,2.91-.52,4.37-.16,1.63-.19,2.18-2.16,3.11-2.49,1.17-4.91,2.51-7.33,3.82a1.91,1.91,0,0,0-.76,2.94c.31.43,1.68.46,2.37.19a33.52,33.52,0,0,0,3.19-1.55,16,16,0,0,1,3-1.44.59.59,0,0,1,.39,0c.16.08.21.28.25.45a8.76,8.76,0,0,1-.22,3v.05c0,.07,0,.17,0,.32-.33,2.3-2,14.94-2.75,30-.72,15.34-.37,33.2,3.61,45.2,3.91,11.82,11.34,18,24.7,10.5-5.1,2.09-9.24,2-12.57.44-2.88-1.4-5.15-4-7-7.38a.36.36,0,0,1,0-.09c-11.4-21.91-2.92-78.15-2.42-81.34,0,0,0,0,0-.07a.32.32,0,0,0,0-.07c.28-2.45.21-3.19,3.35-4.18,4.59-1.43,9.07-3.27,13.66-4.72,2.66-.84,5.34-1.63,8-2.38l4-1.12c1.3-.36,2.61-.79,3.94-1.05.21,0,.55-.17.76-.06a.33.33,0,0,1,.15.25,1.07,1.07,0,0,1-.06.31,10.91,10.91,0,0,1-.66,1.63c-2.48,5.23-5.07,10.43-7.42,15.72a22.07,22.07,0,0,0-1.49,4.32,7.87,7.87,0,0,0,.09,4.94,2.1,2.1,0,0,0,1.68,1.37,3.4,3.4,0,0,0,2.12-.39,3.91,3.91,0,0,0,1.2-.94c2.71-3.25,5.25-6.63,7.86-10,2.09-2.69,2.94-2.85,5.68-1.13,2.13,1.33,4.11,2.59,6.17,4,4.26,2.82,8.13,3.78,12.57,3.13a16.24,16.24,0,0,0,7-2.58,12.53,12.53,0,0,0,3.15-3.14,15.43,15.43,0,0,0,1.15-2.06,6.27,6.27,0,0,0,.5-1.33,6.93,6.93,0,0,0,.16-1c0-.21,0-.42.06-.62s0-.24,0-.38A12.63,12.63,0,0,1,202.77,172.07ZM80.51,180.18a1.53,1.53,0,0,1-.5.78,1,1,0,0,1-1.63-.17,1.88,1.88,0,0,1-.41-1.35c0-.68.79-1.59,1.52-1.42.36.08.54.55.7.84A1.94,1.94,0,0,1,80.51,180.18ZM9.11,156.12l.09-.71c.05-.31.09-.63.15-.95.38-2.43,1-4.86,1.5-7.28.58-2.76,1.17-5.53,1.76-8.29s1.17-5.54,1.75-8.31,1.16-5.5,1.72-8.26c1.56-7.61,2.94-15.25,4.45-22.87,1.25-6.28,2.6-12.53,3.87-18.8C26.36,71,28,61.3,30.32,51.77c2.94-12.11,6-24.23,11.58-35.51q1.38-2.79,2.84-5.53c.49-.93,1-1.84,1.49-2.75.25-.45.51-.9.76-1.36a3.77,3.77,0,0,1,.64-1L48,5.3a2.33,2.33,0,0,1,.74-.49,1.45,1.45,0,0,1,1.47.4A3.79,3.79,0,0,1,51,7.34c.13,1,.24,2,.34,3q.28,3,.52,5.92c.06.69,0,1.39,0,2.08h.09c0,2.76.09,5.53,0,8.28-.23,5.74-.09,11.55-1,17.2A244.72,244.72,0,0,1,43,80c-3.55,11.25-7.31,22.4-12,33.24-1,2.27-2,4.52-3,6.78-1.09,2.46-2.2,4.92-3.34,7.36s-2.29,4.88-3.47,7.3-2.39,4.82-3.64,7.21-2.52,4.76-3.83,7.12c-.65,1.18-1.32,2.34-2,3.51l-1,1.75c-.31.53-.54,1.09-.89,1.6a4.83,4.83,0,0,1-.79,1C9,156.71,9.09,156.29,9.11,156.12ZM54.2,203.88a.56.56,0,0,0,0,.12l-.27.87q-.37,1.19-.81,2.34c-.11.31-.23.62-.35.93,0,.05,0,.11-.07.17q-.18.48-.39,1c-.14.34-.28.69-.43,1s-.29.67-.45,1-.32.67-.47,1l0,.06c-.07.15-.14.29-.22.43l-.25.5c-.16.34-.34.66-.52,1s-.22.4-.32.6-.35.62-.53.93-.45.78-.69,1.15-.57.94-.87,1.39c-.19.3-.39.59-.59.88s-.51.75-.78,1.12-.52.74-.8,1.11-.49.66-.75,1l-.94,1.2a72.3,72.3,0,0,1-7.93,8.11c-2.17,1.91-4.83,3.67-7.85,2.06s-3-4.52-2.65-7.33a47.86,47.86,0,0,1,7.35-20.21C36.1,200.53,40,195,44.13,189.64c2.57-3.36,5.77-6.24,8.69-9.34,1.17-1.24,2.07-1,2.34.61.09.54.18,1.08.26,1.62l0,.18c0,.22.06.43.1.65A47.13,47.13,0,0,1,54.2,203.88ZM145.65,63.24l.17-1c0,.29-.11.62-.17,1l-.14.81C145.56,63.75,145.6,63.49,145.65,63.24Z"/>
      <path class="b" d="M145.51,64.05l.14-.81C145.6,63.49,145.56,63.75,145.51,64.05Z"/>
      <path class="b" d="M145.65,63.24c.06-.38.12-.71.17-1Z"/>
      <path class="b" d="M240.33,178.18A71,71,0,0,0,237,162.92c-.93-2.74-2.78-4.19-5.05-4.39a6.18,6.18,0,0,0-5.84,2.95c-3,5.09-6,10.19-9.06,15.28a7.58,7.58,0,0,1-.55.91.52.52,0,0,1-.18.15c-.2.07-.23-.14-.23-.29,0-.88,0-1.77,0-2.66,0-3.72,0-7.44,0-11.15-.07-1.44-.17-2.89-.34-4.32a24.38,24.38,0,0,0-.65-3.51,5.65,5.65,0,0,0-1-2.22,2.1,2.1,0,0,0-.62-.45,1.64,1.64,0,0,0-.49-.1,1.54,1.54,0,0,0-.83.19c.67-.14,1.11.14,1.41,1a29.62,29.62,0,0,1,.59,5.94c.08,2.67,0,5.33-.1,8s-.32,5.42-.61,8.12a53.21,53.21,0,0,1-1,6.28,7.26,7.26,0,0,0-.28,2.7,2.72,2.72,0,0,0,.77,1.57,2.48,2.48,0,0,0,2.32.53c1.82-.53,2.38-2.67,3.08-4.19.86-1.87,1.74-3.74,2.65-5.59.6-1.2,1.21-2.39,1.85-3.57a78.23,78.23,0,0,1,6.17-9.79c2.35-3.11,3.93-2.85,5,.93a109.38,109.38,0,0,1,3.1,15c.35,2.63.38,4.1.84,6.09a2.73,2.73,0,0,0,1.85,1.51c1.43.3,1.34-.94,1.27-1.82C240.83,183.42,240.63,180.79,240.33,178.18Z"/>
      <path class="b" d="M361,172.29a7.06,7.06,0,0,1-2.44-2l-.12-.15a23.81,23.81,0,0,1-3.56-4.73l0,0c-2.88-4.14-5.94-4.14-9-.22a61.52,61.52,0,0,1-6.17,6.54c-1.62,1.54-2.43,1.35-3.28-.8a13.84,13.84,0,0,1,1.39-13.37c1.21-1.78,2.34-2.78,3.69-3.12,4.74-2,9.75,1.88,10.84,2.8a.54.54,0,0,0-.05-.11c-.05-.1-.09-.2-.15-.3a25.06,25.06,0,0,0-2.24-2.71c-4.67-4.85-9.17-4.64-12.52-1.84a11.07,11.07,0,0,0-1.66,1.69,9.48,9.48,0,0,0-1.51,2.29c-.17.35-.4.76-.57,1.09a21.33,21.33,0,0,0-1.69,5.39.69.69,0,0,1,0,.13c-.16,1.2-.24,2.42-.3,3.64h0a4.68,4.68,0,0,1-1.71,3.88,141.6,141.6,0,0,1-13.54,9.52,32.26,32.26,0,0,1-19.78,5.35,16.45,16.45,0,0,1-13-9.32c-2.21-5.25-.43-11.3,2.49-13.88s6.68-2.45,8.85-.63l0,0a13.22,13.22,0,0,1,3.64,4.67,12,12,0,0,0-1.69-5.8,9.33,9.33,0,0,0-2.71-2.91,7.57,7.57,0,0,0-6.09-.83c-5.66,1.07-7.22,7-8.58,12.07C276.66,182,269.48,186.72,269,187l0,0c-2.45,2-4.45,1.62-6.72-1a18.62,18.62,0,0,1-2.87-4.37s0,0,0-.05a28.11,28.11,0,0,1-2-6,162.52,162.52,0,0,1-3.28-15.94v-.05c-.23-1-.61-2.61-2.09-2.08a4.39,4.39,0,0,0-1.08,1s0,0,0,0c-3.09,3.83-4.51,14.07-4.51,14.37.08-.27,1.91-7,3.35-9.62.65-1.21,1.23-1.59,1.52-.13.09.33.22.64.28,1,.48,2.8.94,5.61,1.42,8.41,1,5.93,2.7,11.55,6.46,16.41,2.44,3.16,6,4,9.39,1.84a25.48,25.48,0,0,0,9.8-12.11c.26-.62.66-1.6,1-2.19.37.56.76,1.53,1.09,2.13,3.74,6.84,9.66,10.1,17.3,10.5,5.42.29,10.4-1.43,15.11-3.81a75.88,75.88,0,0,0,17.23-12.28c1.27-1.16,1.83-1.74,2.92.21,2.1,3.71,5.24,4.33,8.43,1.57a71.38,71.38,0,0,0,6.83-7.08c1.6-1.83,1.67-1.91,3.2,0a68.37,68.37,0,0,0,5.52,6.56c2.92,2.83,7.34,3.19,10,.88,1.06-.89,1.62-2.4,2.4-3.62A6.75,6.75,0,0,1,361,172.29Z"/>
    </g>
  </g>
</svg>
