<svg viewBox="0 0 491.793 491.793" xmlns="http://www.w3.org/2000/svg"><path d="M275.154 100.996c27.845 0 50.498-22.653 50.498-50.498S302.999 0 275.154 0s-50.498 22.653-50.498 50.498 22.653 50.498 50.498 50.498zm0-92.496c23.158 0 41.998 18.84 41.998 41.998s-18.84 41.998-41.998 41.998-41.998-18.84-41.998-41.998S251.996 8.5 275.154 8.5zm27.742 309.039a4.249 4.249 0 00-3.083 5.159l7.693 30.543a4.25 4.25 0 108.242-2.076l-7.693-30.543a4.25 4.25 0 00-5.159-3.083z"/><path d="M474.787 288.928h-25.882c13.27-44.81 10.408-82.41-8.53-111.81-14.835-23.028-36.213-35.905-52.508-42.841-.168-3.529-1.586-7.008-4.287-9.686-5.726-5.678-15.003-5.64-20.681.088l-31.166 31.431-7.004-6.479c-1.822-26.034-23.252-46.174-49.575-46.174-24.021 0-45.234 18.381-49.344 42.756-.039.23-.059.464-.059.697l-.264 116.341L63.021 427.078h-44.21c-9.956 0-18.055 8.1-18.055 18.055v14.564c0 9.955 8.1 18.055 18.055 18.055h88.931c9.956 0 18.055-8.1 18.055-18.055v-14.564c0-9.955-8.1-18.055-18.055-18.055h-3.089l116.906-118.172-45.301 137.51c-2.791 8.466-2.117 17.511 1.896 25.47 4.014 7.958 10.886 13.877 19.353 16.666a33.206 33.206 0 0010.416 1.679c14.017-.001 27.101-8.909 31.722-22.93l32.574-98.868 25.356 98.316c3.802 14.746 17.08 25.044 32.29 25.044 2.805 0 5.617-.357 8.355-1.065 8.632-2.226 15.881-7.679 20.411-15.355 4.529-7.677 5.797-16.658 3.57-25.29L322.957 297.9a49.745 49.745 0 001.922-13.697v-40.36l32.142-34.959c8.031-8.693 7.518-22.348-1.159-30.451l-2.645-2.447 17.499-17.647c25.635 11.127 75.309 44.554 48.927 130.59h-31.849c-8.96 0-16.25 7.29-16.25 16.25V446.17c0 8.96 7.29 16.25 16.25 16.25h86.994c8.96 0 16.25-7.29 16.25-16.25V305.178c-.001-8.96-7.29-16.25-16.251-16.25zM234.25 147.289c3.517-19.84 21.417-35.332 40.904-35.332 18.181 0 33.551 11.587 39.048 27.935l-21.638-20.018a21.519 21.519 0 00-14.731-5.81c-5.964 0-11.719 2.5-15.787 6.859-8.125 8.702-7.654 22.393 1.061 30.529l38.188 35.354-67.29 67.854zM117.297 445.133v2.789H37.014a4.25 4.25 0 100 8.5h80.284v3.275c0 5.268-4.287 9.555-9.555 9.555H18.811c-5.269 0-9.555-4.286-9.555-9.555v-14.564c0-5.269 4.287-9.555 9.555-9.555h88.931c5.269 0 9.555 4.286 9.555 9.555zM74.99 427.078l232.547-234.494 3.181 2.944-29.127 31.599c-3.795 4.064-5.824 9.323-5.788 14.862L92.695 427.078zm180.646-122.942l4.785 18.553a41.169 41.169 0 01-25.052-27.742l42.794-43.258a21.58 21.58 0 004.475 5.955 21.546 21.546 0 008.719 4.958 33.551 33.551 0 00-3.384-.178c-2.804 0-5.615.358-8.353 1.065-17.819 4.595-28.578 22.829-23.984 40.647zm-24.064 160.505c-4.292 13.023-18.382 20.127-31.405 15.839-.511-.169-1.002-.377-1.497-.575l32.671-99.498a4.25 4.25 0 00-8.076-2.652l-32.02 97.516a24.81 24.81 0 01-5.501-7.212 24.701 24.701 0 01-1.413-18.981l46.546-142.217a49.705 49.705 0 0032.047 25.535l5.365 20.802zm119.739 6.413c-3.376 5.721-8.778 9.785-15.212 11.444a25.009 25.009 0 01-6.233.795c-11.332 0-21.225-7.676-24.059-18.667l-41.94-162.613c-3.424-13.278 4.595-26.868 17.876-30.294a24.991 24.991 0 016.23-.795c11.333 0 21.228 7.677 24.063 18.669l41.935 162.613c1.66 6.434.715 13.127-2.66 18.848zm-34.932-192.736a33.39 33.39 0 00-20.48-14.936c.488.033.976.069 1.469.069h.001c5.964 0 11.718-2.5 15.808-6.882l3.202-3.482zm34.391-75.195l-43.828 47.67a12.958 12.958 0 01-9.572 4.159h-.001a13.047 13.047 0 01-8.93-3.521 13.005 13.005 0 01-4.15-9.121c-.12-3.494 1.128-6.826 3.534-9.401l32.02-34.736a4.251 4.251 0 00-.238-6l-50.708-46.944c-5.276-4.926-5.562-13.227-.635-18.504a12.964 12.964 0 019.574-4.159c3.325 0 6.497 1.251 8.944 3.536l63.297 58.559c5.253 4.905 5.568 13.186.693 18.462zm-12.794-41.237l30.959-31.222a6.132 6.132 0 018.66-.037 6.133 6.133 0 01.038 8.662l-30.659 30.92zm39.129-9.992l6.564-6.62c.81-.817 1.49-1.713 2.067-2.654 29.182 12.835 83.741 50.504 54.281 146.309h-11.494c25.741-87.538-23.116-123.829-51.418-137.035zm10.688 145.534h86.994c4.273 0 7.75 3.477 7.75 7.75v42.248H380.043v-42.248c0-4.274 3.477-7.75 7.75-7.75zm86.994 156.492h-86.994c-4.273 0-7.75-3.477-7.75-7.75v-90.244h102.494v90.244c0 4.273-3.476 7.75-7.75 7.75z"/><path d="M463.016 360.022c-8.96 0-16.25 7.29-16.25 16.25s7.29 16.25 16.25 16.25c8.961 0 16.25-7.29 16.25-16.25 0-8.961-7.29-16.25-16.25-16.25zm0 24c-4.273 0-7.75-3.477-7.75-7.75s3.477-7.75 7.75-7.75 7.75 3.477 7.75 7.75-3.477 7.75-7.75 7.75z"/></svg>