<svg viewBox="0 0 477.476 477.476" xmlns="http://www.w3.org/2000/svg"><path d="M203.84 339.08c-29.994 0-54.396 24.402-54.396 54.396s24.402 54.396 54.396 54.396 54.396-24.402 54.396-54.396-24.402-54.396-54.396-54.396zm0 93.792c-21.723 0-39.396-17.673-39.396-39.396s17.673-39.396 39.396-39.396 39.396 17.673 39.396 39.396-17.673 39.396-39.396 39.396z"/><path d="M426.679 466.75l-10.795-22.664c-4.227-8.875-13.31-14.609-23.14-14.609h-16.69V97.38c0-53.696-43.689-97.38-97.39-97.38s-97.39 43.685-97.39 97.38v137.181C121.947 245.422 76.84 297.498 76.84 359.915v27.781H57.567a7.5 7.5 0 00-7.5 7.5v49.498a7.5 7.5 0 007.5 7.5h20.492c3.981 14.552 17.313 25.282 33.111 25.282h92.67c46.318 0 84-37.682 84-84 0-25.769-11.674-48.854-30-64.276v-67.394c0-16.173-13.157-29.33-29.33-29.33h-1.235V97.38c0-28.331 23.054-51.38 51.39-51.38s51.39 23.049 51.39 51.38v332.097H313.36c-9.83 0-18.913 5.734-23.139 14.609l-10.795 22.664a7.5 7.5 0 006.771 10.725h133.712a7.5 7.5 0 006.77-10.725zM65.067 402.696H76.84v34.498H65.067zm207.773-9.22c0 38.047-30.953 69-69 69s-69-30.953-69-69 30.953-69 69-69 69 30.953 69 69zm-30-131.67v57.307a83.455 83.455 0 00-39-9.637c-46.318 0-84 37.682-84 84 0 28.557 14.335 53.816 36.176 69H111.17c-10.659 0-19.33-8.671-19.33-19.33v-83.231c0-61.999 50.44-112.439 112.439-112.439h24.23c7.903 0 14.331 6.428 14.331 14.33zM212.275 97.38v135.095h-7.996c-2.689 0-5.356.094-8.004.259V97.38c0-42.895 32.964-78.221 74.89-82.024v16.079c-33.087 3.739-58.89 31.879-58.89 65.945zm73.89-65.945V15.357c41.926 3.803 74.89 39.128 74.89 82.024v8.113h-16V97.38c0-34.066-25.802-62.206-58.89-65.945zm58.89 89.058h16v308.984h-16zm-46.979 341.983l5.687-11.939a10.68 10.68 0 019.597-6.059h79.385c4.077 0 7.844 2.378 9.598 6.059l5.687 11.939z"/></svg>