<svg viewBox="0 0 60 60" xmlns="http://www.w3.org/2000/svg"><path d="M30 0C13.458 0 0 13.458 0 30s13.458 30 30 30 30-13.458 30-30S46.542 0 30 0zm0 58C14.561 58 2 45.439 2 30S14.561 2 30 2s28 12.561 28 28-12.561 28-28 28z"/><path d="M31 26.021V15.879a1 1 0 10-2 0v10.142a3.995 3.995 0 00-2.858 2.858H19a1 1 0 100 2h7.142c.447 1.72 2 3 3.858 3 2.206 0 4-1.794 4-4 0-1.859-1.28-3.411-3-3.858zm-1 5.858c-1.103 0-2-.897-2-2s.897-2 2-2 2 .897 2 2-.897 2-2 2zm0-22a1 1 0 001-1v-1a1 1 0 10-2 0v1a1 1 0 001 1zm0 40a1 1 0 00-1 1v1a1 1 0 102 0v-1a1 1 0 00-1-1zm22-21h-1a1 1 0 100 2h1a1 1 0 100-2zm-43 0H8a1 1 0 100 2h1a1 1 0 100-2zm35.849-15.264l-.707.707a.999.999 0 101.414 1.414l.707-.707a.999.999 0 10-1.414-1.414zM14.444 44.021l-.707.707a.999.999 0 101.414 1.414l.707-.707a.999.999 0 10-1.414-1.414zm31.112 0a.999.999 0 10-1.414 1.414l.707.707a.997.997 0 001.414 0 .999.999 0 000-1.414zM15.151 13.615a.999.999 0 10-1.414 1.414l.707.707a.997.997 0 001.414 0 .999.999 0 000-1.414z"/></svg>