<svg fill="none" height="40" viewBox="0 0 40 40" width="40" xmlns="http://www.w3.org/2000/svg" xmlns:xlink="http://www.w3.org/1999/xlink"><mask id="a" height="30" maskUnits="userSpaceOnUse" width="40" x="0" y="5"><rect fill="#fff" height="28.0714" rx="1.75" stroke="#fff" stroke-width=".5" width="39.5" x=".25" y="5.96667"/></mask><rect fill="#fff" height="28.0714" rx="1.75" stroke="#f5f5f5" stroke-width=".5" width="39.5" x=".25" y="5.96667"/><g clip-rule="evenodd" fill-rule="evenodd" mask="url(#a)"><path d="m0 15.2405h40v-9.52383h-40z" fill="#ffa44a"/><path d="m0 34.2881h40v-9.5238h-40z" fill="#1a9f0b"/><g fill="#181a93"><path d="m20 22.8595c1.578 0 2.8572-1.2791 2.8572-2.8571 0-1.5779-1.2792-2.8571-2.8572-2.8571-1.5779 0-2.8571 1.2792-2.8571 2.8571 0 1.578 1.2792 2.8571 2.8571 2.8571z" fill-opacity=".15"/><path d="m23.9682 20.0024c0 2.1916-1.7766 3.9683-3.9682 3.9683s-3.9683-1.7767-3.9683-3.9683 1.7767-3.9682 3.9683-3.9682 3.9682 1.7766 3.9682 3.9682zm-1.1111 0c0 1.578-1.2792 2.8572-2.8571 2.8572-1.578 0-2.8572-1.2792-2.8572-2.8572 0-1.5779 1.2792-2.8571 2.8572-2.8571 1.5779 0 2.8571 1.2792 2.8571 2.8571z"/><path d="m20 20.9547c.526 0 .9524-.4264.9524-.9524s-.4264-.9524-.9524-.9524c-.5259 0-.9523.4264-.9523.9524s.4264.9524.9523.9524z"/></g></g></svg>