<svg fill="none" height="40" viewBox="0 0 40 40" width="40" xmlns="http://www.w3.org/2000/svg" xmlns:xlink="http://www.w3.org/1999/xlink"><mask id="a" height="30" maskUnits="userSpaceOnUse" width="40" x="0" y="5"><rect fill="#fff" height="28.5714" rx="2" width="40" y="5.71667"/></mask><rect fill="#fff" height="28.5714" rx="2" width="40" y="5.71667"/><g mask="url(#a)"><path d="m0 5.71667h40v28.5714h-40z" fill="#0a17a7"/><g clip-rule="evenodd" fill-rule="evenodd"><path d="m-1.83215 2.97888 17.07025 11.51402v-10.68098h9.5238v10.68098l17.0702-11.51401 2.1302 3.15824-13.4963 9.10337h9.534v9.5238h-9.5339l13.4962 9.1033-2.1302 3.1583-17.0702-11.514v10.681h-9.5238v-10.681l-17.07024 11.514-2.13026-3.1583 13.49626-9.1033h-9.53385452v-9.5238h9.53389452l-13.49631-9.10338z" fill="#fff"/><path d="m45.226 2.55424c.1687.25633.0976.60083-.1588.76946l-18.0933 11.9031c-.2564.1687-.6009.0976-.7695-.1588-.1686-.2563-.0975-.6008.1588-.7694l18.0934-11.90315c.2563-.16863.6008-.09754.7694.15879z" fill="#db1f35"/><path d="m45.2702 36.5276c.1715-.2544.1042-.5997-.1502-.7712l-16.2198-10.9326c-.2544-.1715-.5997-.1043-.7711.1502-.1715.2544-.1043.5997.1501.7712l16.2198 10.9326c.2544.1715.5997.1042.7712-.1502z" fill="#db1f35"/><path d="m-5.94275 3.01906c.17148-.25444.51675-.32169.77119-.15022l16.91856 11.40206c.2545.1715.3217.5167.1503.7712-.1715.2544-.5168.3217-.7712.1502l-16.91863-11.40206c-.25444-.17148-.32169-.51675-.15022-.77118z" fill="#db1f35"/><path d="m-5.94504 37.8958c.16957.2557.51433.3256.77004.156l18.7536-12.4365c.2557-.1696.3255-.5144.156-.7701-.1696-.2557-.5144-.3255-.7701-.1559l-18.75358 12.4365c-.25571.1696-.32554.5143-.15596.77z" fill="#db1f35"/><path d="m0 22.8595h17.1429v11.4286h5.7142v-11.4286h17.1429v-5.7143h-17.1429v-11.42853h-5.7142v11.42853h-17.1429z" fill="#e6273e"/></g></g></svg>