<svg fill="none" height="40" viewBox="0 0 40 40" width="40" xmlns="http://www.w3.org/2000/svg" xmlns:xlink="http://www.w3.org/1999/xlink"><mask id="a" height="30" maskUnits="userSpaceOnUse" width="40" x="0" y="5"><rect fill="#fff" height="28.0714" rx="1.75" stroke="#fff" stroke-width=".5" width="39.5" x=".25" y="5.96667"/></mask><rect fill="#fff" height="28.0714" rx="1.75" stroke="#f5f5f5" stroke-width=".5" width="39.5" x=".25" y="5.96667"/><g mask="url(#a)"><path d="m26.6667 5.71667h13.3333v28.5714h-13.3333z" fill="#63aee3"/><g clip-rule="evenodd" fill-rule="evenodd"><path d="m0 34.2881h13.3333v-28.57143h-13.3333z" fill="#63aee3"/><path d="m16.1905 17.9388c.6136 0 1.1111.4975 1.1111 1.1112 0 .9961.5391 1.8676 1.3469 2.3363.5308.3079.7114.9879.4034 1.5186-.308.5308-.9879.7114-1.5187.4035-1.4648-.85-2.4539-2.4381-2.4539-4.2584 0-.6137.4975-1.1112 1.1112-1.1112zm7.619 0c.6136 0 1.1111.4975 1.1111 1.1112 0 1.744-.9082 3.2752-2.2722 4.1476-.5169.3306-1.2041.1796-1.5347-.3374-.3306-.5169-.1796-1.204.3374-1.5347.7524-.4812 1.2473-1.3209 1.2473-2.2755 0-.6137.4974-1.1112 1.1111-1.1112z" fill="#628a40"/><path d="m20 20.9548c1.052 0 1.9048-.8528 1.9048-1.9048 0-1.0519-.8528-1.9047-1.9048-1.9047-1.0519 0-1.9047.8528-1.9047 1.9047 0 1.052.8528 1.9048 1.9047 1.9048z" fill="#dcc26d"/></g></g></svg>