<svg fill="none" height="40" viewBox="0 0 40 40" width="40" xmlns="http://www.w3.org/2000/svg" xmlns:xlink="http://www.w3.org/1999/xlink"><mask id="a" height="30" maskUnits="userSpaceOnUse" width="40" x="0" y="5"><rect fill="#fff" height="28.5714" rx="2" width="40" y="5.71667"/></mask><rect fill="#fff" height="28.5714" rx="2" width="40" y="5.71667"/><g clip-rule="evenodd" fill-rule="evenodd" mask="url(#a)"><path d="m0 26.669h40v-7.6191h-40z" fill="#0748ae"/><path d="m0 34.2881h40v-7.619h-40z" fill="#de2035"/><path d="m0 19.05h40v-13.33333h-40z" fill="#ffd935"/><path d="m17.7142 17.1452c-.9253.6951-1.5238 1.8016-1.5238 3.0479 0 2.104 1.7056 3.8095 3.8096 3.8095 2.1039 0 3.8095-1.7055 3.8095-3.8095 0-1.2463-.5985-2.3528-1.5237-3.0478l-1.3334 4.0002h-1.9048z" fill="#ffd935"/><path d="m20 16.1929.9524 4.7619h-1.9048z" fill="#5fc0dc"/><path d="m17.9196 12.8087c.1996-.0666.4197-.0146.5685.1342l1.5119 1.5119 1.512-1.5119c.1488-.1488.3689-.2008.5685-.1342l2.8571.9524c.2911.097.4484.4116.3514.7027s-.4117.4484-.7027.3513l-2.5314-.8438-1.662 1.662c-.217.217-.5687.217-.7857 0l-1.662-1.662-2.5314.8438c-.2911.0971-.6057-.0602-.7027-.3513s.0603-.6057.3514-.7027z" fill="#3f2821" opacity=".66"/></g></svg>