<svg fill="none" height="40" viewBox="0 0 40 40" width="40" xmlns="http://www.w3.org/2000/svg" xmlns:xlink="http://www.w3.org/1999/xlink"><linearGradient id="a" gradientUnits="userSpaceOnUse" x1="0" x2="0" y1="5.71667" y2="20.0024"><stop offset="0" stop-color="#fff"/><stop offset="1" stop-color="#f0f0f0"/></linearGradient><linearGradient id="b" gradientUnits="userSpaceOnUse" x1="0" x2="0" y1="5.71667" y2="19.05"><stop offset="0" stop-color="#ff2e3b"/><stop offset="1" stop-color="#fc0d1b"/></linearGradient><mask id="c" height="30" maskUnits="userSpaceOnUse" width="40" x="0" y="5"><path d="m0 9.05c0-1.84094 1.49238-3.33333 3.33333-3.33333h33.33337c1.8409 0 3.3333 1.49239 3.3333 3.33334v21.90479c0 1.8409-1.4924 3.3333-3.3333 3.3333h-33.33337c-1.84095 0-3.33333-1.4924-3.33333-3.3333z" fill="#fff"/></mask><path d="m0 9.05c0-1.84094 1.49238-3.33333 3.33333-3.33333h33.33337c1.8409 0 3.3333 1.49239 3.3333 3.33334v21.90479c0 1.8409-1.4924 3.3333-3.3333 3.3333h-33.33337c-1.84095 0-3.33333-1.4924-3.33333-3.3333z" fill="#fff"/><g mask="url(#c)"><path d="m0 5.71667h40v28.57143h-40z" fill="#0a17a7"/><g clip-rule="evenodd" fill-rule="evenodd"><path d="m6.66667 11.431-6.66667-5.71433h.952381l6.666669 4.76193h1.90476l7.61909-4.76193v.66649c0 .17941-.0867.34779-.2327.45207l-6.434 4.59577v1.9047l6.0202 5.1602c.222.1903.0874.5541-.205.5541-.0656 0-.1296-.0205-.1831-.0587l-6.58449-4.7032h-1.90476l-7.61905 4.7619v-.9524l6.66667-4.7619z" fill="#ff2e3b"/><path d="m6.66669 11.4309v1.9048l-6.66667142 4.7619v.9524l7.61905142-4.7619h1.90476l6.58457 4.7032c.0534.0382.1174.0587.183.0587.2925 0 .427-.3638.205-.5541l-6.0202-5.1602v-1.9048l6.434-4.59571c.146-.10428.2327-.27266.2327-.45207v-.66649l-7.61907 4.76187h-1.90476l-6.66667-4.76187h-.95238142zm1.30845-2.06347-6.66667-4.76191h-4.31207l8.55917 7.33648v.8219l-6.66666 4.7619v3.5289l9.04882-5.6555h1.23003l6.29474 4.4962c.2419.1728.5317.2657.8289.2657 1.324 0 1.9334-1.6472.9281-2.5089l-5.6322-4.8276v-.8219l5.9688-4.26336c.4379-.31285.6979-.81797.6979-1.35622v-2.67121l-9.04883 5.65552z" fill="#fff"/><path d="m0 10.4786v3.8095h6.66667v4.6032c0 .6136.49746 1.1111 1.11111 1.1111h1.5873c.61365 0 1.11112-.4975 1.11112-1.1111v-4.6032h6.5079c.6137 0 1.1111-.4975 1.1111-1.1111v-1.5873c0-.6137-.4974-1.1111-1.1111-1.1111h-6.5079v-4.76193h-3.80953v4.76193z" fill="url(#a)"/><path d="m0 11.431h7.61905v-.9524-4.76193h1.90476v4.76193.9524h7.61909v1.9047h-7.61909v.9524 4.7619h-1.90476v-4.7619-.9524h-7.61905z" fill="url(#b)"/><path d="m8.57143 29.0502-1.67939.8829.32074-1.87-1.35865-1.3243 1.87761-.2729.83969-1.7014.83969 1.7014 1.87758.2729-1.35862 1.3243.32072 1.87z" fill="#fff"/><path d="m28.5715 30.4788-1.3469.3945.3945-1.3469-.3945-1.3468 1.3469.3945 1.3469-.3945-.3945 1.3468.3945 1.3469z" fill="#fff"/><path d="m28.5715 12.3831-1.3469.3945.3945-1.3469-.3945-1.3468 1.3469.3945 1.3469-.3945-.3945 1.3468.3945 1.3469z" fill="#fff"/><path d="m34.2858 18.0973-1.3469.3945.3945-1.3468-.3945-1.3469 1.3469.3945 1.3468-.3945-.3944 1.3469.3944 1.3468z" fill="#fff"/><path d="m22.8572 20.0024-1.3469.3945.3945-1.3469-.3945-1.3469 1.3469.3945 1.3469-.3945-.3945 1.3469.3945 1.3469z" fill="#fff"/><path d="m31.4285 22.3831-.6734.1973.1972-.6734-.1972-.6735.6734.1973.6734-.1973-.1972.6735.1972.6734z" fill="#fff"/></g></g></svg>