<svg fill="none" height="40" viewBox="0 0 40 40" width="40" xmlns="http://www.w3.org/2000/svg" xmlns:xlink="http://www.w3.org/1999/xlink"><mask id="a" height="30" maskUnits="userSpaceOnUse" width="40" x="0" y="5"><rect fill="#fff" height="28.5714" rx="2" width="40" y="5.71667"/></mask><rect fill="#fff" height="28.5714" rx="2" width="40" y="5.71667"/><g clip-rule="evenodd" fill-rule="evenodd" mask="url(#a)"><path d="m0 20.9548h40v-15.23813h-40z" fill="#0c49ae"/><path d="m0 34.2882h40v-7.619h-40z" fill="#0c49ae"/><path d="m0 26.6691h40v-5.7143h-40z" fill="#fff"/><path d="m0 24.7644h40v-1.9048h-40z" fill="#cd232e"/><path d="m15.238 19.2088c-.1531 0-.3041.0074-.4527.0219-.6108.0594-1.1541-.3875-1.2135-.9983-.0594-.6107.3875-1.154.9983-1.2135.22-.0214.4428-.0323.6679-.0323.225 0 .4479.0109.6679.0323.6108.0595 1.0577.6028.9983 1.2135-.0594.6108-.6028 1.0577-1.2135.9983-.1486-.0145-.2996-.0219-.4527-.0219zm-2.7667-.5196c.3896.4742.321 1.1743-.1531 1.5639-.2333.1917-.4474.4058-.6391.6391-.3895.4741-1.0897.5427-1.5638.1531-.47418-.3895-.54274-1.0897-.15318-1.5639.28358-.345.60028-.6618.94538-.9453.4741-.3896 1.1743-.321 1.5638.1531zm5.5334 0c.3895-.4741 1.0897-.5427 1.5638-.1531.3451.2835.6618.6003.9454.9453.3895.4742.321 1.1744-.1532 1.5639-.4741.3896-1.1743.321-1.5638-.1531-.1917-.2333-.4058-.4474-.6391-.6391-.4741-.3896-.5427-1.0897-.1531-1.5639zm-8.34624 3.4566c.61074.0594 1.05774.6027.99824 1.2135-.0144.1486-.0219.2996-.0219.4527 0 .153.0075.304.0219.4527.0595.6107-.3875 1.154-.99824 1.2135-.61077.0594-1.15408-.3875-1.21352-.9983-.02141-.2201-.03234-.4429-.03234-.6679 0-.2251.01093-.4479.03234-.668.05944-.6107.60275-1.0577 1.21352-.9982zm11.15904 0c.6108-.0595 1.1541.3875 1.2135.9982.0215.2201.0324.4429.0324.668 0 .225-.0109.4478-.0324.6679-.0594.6108-.6027 1.0577-1.2135.9983-.6107-.0595-1.0577-.6028-.9982-1.2135.0144-.1487.0219-.2997.0219-.4527 0-.1531-.0075-.3041-.0219-.4527-.0595-.6108.3875-1.1541.9982-1.2135zm-10.7022 4.4328c.4741-.3895 1.1743-.321 1.5638.1532.1917.2332.4058.4474.6391.639.4741.3896.5427 1.0898.1531 1.5639-.3895.4741-1.0897.5427-1.5638.1531-.3451-.2835-.6618-.6002-.94538-.9453-.38956-.4741-.321-1.1743.15318-1.5639zm10.2454 0c.4742.3896.5427 1.0898.1532 1.5639-.2836.3451-.6003.6618-.9454.9453-.4741.3896-1.1743.321-1.5638-.1531-.3896-.4741-.321-1.1743.1531-1.5639.2333-.1916.4474-.4058.6391-.639.3895-.4742 1.0897-.5427 1.5638-.1532zm-3.4565 2.8129c.0594.6108-.3875 1.1541-.9983 1.2135-.22.0214-.4429.0324-.6679.0324-.2251 0-.4479-.011-.6679-.0324-.6108-.0594-1.0577-.6027-.9983-1.2135s.6027-1.0577 1.2135-.9983c.1486.0145.2996.0219.4527.0219s.3041-.0074.4527-.0219c.6107-.0594 1.1541.3875 1.2135.9983z" fill="#f7d035"/></g></svg>