<svg fill="none" height="40" viewBox="0 0 40 40" width="40" xmlns="http://www.w3.org/2000/svg" xmlns:xlink="http://www.w3.org/1999/xlink"><mask id="a" height="30" maskUnits="userSpaceOnUse" width="40" x="0" y="5"><rect fill="#fff" height="28.0714" rx="1.75" stroke="#fff" stroke-width=".5" width="39.5" x=".25" y="5.96667"/></mask><rect fill="#fff" height="28.0714" rx="1.75" stroke="#f5f5f5" stroke-width=".5" width="39.5" x=".25" y="5.96667"/><g mask="url(#a)"><path d="m26.6666 5.71667h13.3333v28.5714h-13.3333z" fill="#e3283e"/><path clip-rule="evenodd" d="m0 34.2881h13.3333v-28.57143h-13.3333z" fill="#128a60" fill-rule="evenodd"/><path d="m16.8572 19.05c0-.3681-.2985-.6666-.6666-.6666-.3682 0-.6667.2985-.6667.6666zm.8992 3.874c.3184.1848.7264.0764.9112-.242.1848-.3185.0764-.7264-.2421-.9112zm3.9343-1.224c-.3102.1984-.4009.6107-.2025.9209.1984.3101.6107.4008.9208.2024zm2.7856-2.65c0-.3681-.2985-.6666-.6667-.6666s-.6667.2985-.6667.6666zm-8.9524 0c0 1.6556.8991 3.1004 2.2325 3.874l.6691-1.1532c-.9391-.545-1.5683-1.5598-1.5683-2.7208zm6.8851 3.7733c1.2417-.7942 2.0673-2.1871 2.0673-3.7733h-1.3334c0 1.1125-.5775 2.0906-1.4522 2.65z" fill="#8c9157"/><path clip-rule="evenodd" d="m20 20.9548c1.0519 0 1.9047-1.2792 1.9047-2.8572 0-1.5779-.8528-2.8571-1.9047-2.8571-1.052 0-1.9048 1.2792-1.9048 2.8571 0 1.578.8528 2.8572 1.9048 2.8572z" fill="#c59262" fill-rule="evenodd"/></g></svg>