<svg fill="none" height="40" viewBox="0 0 40 40" width="40" xmlns="http://www.w3.org/2000/svg" xmlns:xlink="http://www.w3.org/1999/xlink"><mask id="a" height="30" maskUnits="userSpaceOnUse" width="40" x="0" y="5"><rect fill="#fff" height="28.5714" rx="2" width="40" y="5.71667"/></mask><rect fill="#fff" height="28.5714" rx="2" width="40" y="5.71667"/><g mask="url(#a)"><path d="m0 5.71667h40v28.5714h-40z" fill="#f00"/><path clip-rule="evenodd" d="m17.1429 22.8595h-5.1588c-.3068 0-.5555-.2488-.5555-.5556v-4.6032c0-.3068.2487-.5555.5555-.5555h5.1588v-5.1587c0-.3069.2487-.5556.5555-.5556h4.6032c.3068 0 .5556.2487.5556.5556v5.1587h5.1587c.3068 0 .5555.2487.5555.5555v4.6032c0 .3068-.2487.5556-.5555.5556h-5.1587v5.1587c0 .3068-.2488.5556-.5556.5556h-4.6032c-.3068 0-.5555-.2488-.5555-.5556z" fill="#fff" fill-rule="evenodd"/></g></svg>