<svg fill="none" height="40" viewBox="0 0 40 40" width="40" xmlns="http://www.w3.org/2000/svg" xmlns:xlink="http://www.w3.org/1999/xlink"><mask id="a" height="30" maskUnits="userSpaceOnUse" width="40" x="0" y="5"><rect fill="#fff" height="28.0714" rx="1.75" stroke="#fff" stroke-width=".5" width="39.5" x=".25" y="5.96667"/></mask><rect fill="#fff" height="28.0714" rx="1.75" stroke="#f5f5f5" stroke-width=".5" width="39.5" x=".25" y="5.96667"/><g mask="url(#a)"><g clip-rule="evenodd" fill-rule="evenodd"><path d="m0 15.2405h40v-9.52383h-40z" fill="#38bb56"/><path d="m0 34.288h40v-9.5238h-40z" fill="#de1b27"/><path d="m2.23818 13.3357c-.1841 0-.33333.1492-.33333.3333v1.2381c0 .1841.14923.3334.33333.3334h1.23809c.1841 0 .33334-.1493.33334-.3334v-1.2381c0-.1841-.14924-.3333-.33334-.3333zm3.80945 0c-.1841 0-.33334.1492-.33334.3333v1.2381c0 .1841.14924.3334.33334.3334h1.23809c.1841 0 .33333-.1493.33333-.3334v-1.2381c0-.1841-.14923-.3333-.33333-.3333zm3.47634.3333c0-.1841.14924-.3333.33334-.3333h1.23809c.1841 0 .3333.1492.3333.3333v1.2381c0 .1841-.1492.3334-.3333.3334h-1.2381c-.18409 0-.33333-.1493-.33333-.3334zm4.14283-.3333c-.1841 0-.3334.1492-.3334.3333v1.2381c0 .1841.1493.3334.3334.3334h1.238c.1841 0 .3334-.1493.3334-.3334v-1.2381c0-.1841-.1493-.3333-.3334-.3333zm3.4761.3333c0-.1841.1492-.3333.3333-.3333h1.2381c.1841 0 .3333.1492.3333.3333v1.2381c0 .1841-.1492.3334-.3333.3334h-1.2381c-.1841 0-.3333-.1493-.3333-.3334zm4.143-.3333c-.1841 0-.3334.1492-.3334.3333v1.2381c0 .1841.1493.3334.3334.3334h1.2381c.1841 0 .3333-.1493.3333-.3334v-1.2381c0-.1841-.1492-.3333-.3333-.3333zm3.4761.3333c0-.1841.1492-.3333.3333-.3333h1.2381c.1841 0 .3333.1492.3333.3333v1.2381c0 .1841-.1492.3334-.3333.3334h-1.2381c-.1841 0-.3333-.1493-.3333-.3334zm4.1428-.3333c-.1841 0-.3334.1492-.3334.3333v1.2381c0 .1841.1493.3334.3334.3334h1.2381c.1841 0 .3333-.1493.3333-.3334v-1.2381c0-.1841-.1492-.3333-.3333-.3333zm3.4763.3333c0-.1841.1493-.3333.3333-.3333h1.2381c.1841 0 .3334.1492.3334.3333v1.2381c0 .1841-.1493.3334-.3334.3334h-1.2381c-.184 0-.3333-.1493-.3333-.3334zm4.1428-.3333c-.1841 0-.3333.1492-.3333.3333v1.2381c0 .1841.1492.3334.3333.3334h1.2381c.1841 0 .3333-.1493.3333-.3334v-1.2381c0-.1841-.1492-.3333-.3333-.3333zm-34.61905 11.7619c0-.1841.14923-.3333.33333-.3333h1.23809c.1841 0 .33334.1492.33334.3333v1.2381c0 .1841-.14924.3333-.33334.3333h-1.23809c-.1841 0-.33333-.1492-.33333-.3333zm4.14278-.3333c-.1841 0-.33334.1492-.33334.3333v1.2381c0 .1841.14924.3333.33334.3333h1.23809c.1841 0 .33333-.1492.33333-.3333v-1.2381c0-.1841-.14923-.3333-.33333-.3333zm3.47634.3333c0-.1841.14924-.3333.33334-.3333h1.23809c.1841 0 .3333.1492.3333.3333v1.2381c0 .1841-.1492.3333-.3333.3333h-1.2381c-.18409 0-.33333-.1492-.33333-.3333zm4.14283-.3333c-.1841 0-.3334.1492-.3334.3333v1.2381c0 .1841.1493.3333.3334.3333h1.238c.1841 0 .3334-.1492.3334-.3333v-1.2381c0-.1841-.1493-.3333-.3334-.3333zm3.4761.3333c0-.1841.1492-.3333.3333-.3333h1.2381c.1841 0 .3333.1492.3333.3333v1.2381c0 .1841-.1492.3333-.3333.3333h-1.2381c-.1841 0-.3333-.1492-.3333-.3333zm4.143-.3333c-.1841 0-.3334.1492-.3334.3333v1.2381c0 .1841.1493.3333.3334.3333h1.2381c.1841 0 .3333-.1492.3333-.3333v-1.2381c0-.1841-.1492-.3333-.3333-.3333zm3.4761.3333c0-.1841.1492-.3333.3333-.3333h1.2381c.1841 0 .3333.1492.3333.3333v1.2381c0 .1841-.1492.3333-.3333.3333h-1.2381c-.1841 0-.3333-.1492-.3333-.3333zm4.1428-.3333c-.1841 0-.3334.1492-.3334.3333v1.2381c0 .1841.1493.3333.3334.3333h1.2381c.1841 0 .3333-.1492.3333-.3333v-1.2381c0-.1841-.1492-.3333-.3333-.3333zm3.4763.3333c0-.1841.1493-.3333.3333-.3333h1.2381c.1841 0 .3334.1492.3334.3333v1.2381c0 .1841-.1493.3333-.3334.3333h-1.2381c-.184 0-.3333-.1492-.3333-.3333zm4.1428-.3333c-.1841 0-.3333.1492-.3333.3333v1.2381c0 .1841.1492.3333.3333.3333h1.2381c.1841 0 .3333-.1492.3333-.3333v-1.2381c0-.1841-.1492-.3333-.3333-.3333z" fill="#fff" fill-opacity=".5"/><path d="m18.0765 17.8896c-.5736.5226-.9336 1.2756-.9336 2.1127 0 1.578 1.2792 2.8571 2.8571 2.8571 1.578 0 2.8572-1.2791 2.8572-2.8571 0-.8213-.3466-1.5616-.9014-2.0828l-.7607.8098c.3406.32.551.771.551 1.273 0 .9643-.7818 1.746-1.7461 1.746s-1.746-.7817-1.746-1.746c0-.5115.2185-.9704.5708-1.2913z" fill="#d80915"/></g><rect fill="#d80915" height="3.80953" rx=".666667" width="1.90476" x="19.0477" y="19.05"/></g></svg>