<svg fill="none" height="40" viewBox="0 0 40 40" width="40" xmlns="http://www.w3.org/2000/svg" xmlns:xlink="http://www.w3.org/1999/xlink"><mask id="a" height="30" maskUnits="userSpaceOnUse" width="40" x="0" y="5"><rect fill="#fff" height="28.5714" rx="2" width="40" y="5.71667"/></mask><rect fill="#fff" height="28.5714" rx="2" width="40" y="5.71667"/><g mask="url(#a)"><path d="m0 5.71667h40v28.5714h-40z" fill="#f22a46"/><g clip-rule="evenodd" fill="#fff04d" fill-rule="evenodd"><path d="m19.9999 24.7643c2.63 0 4.7619-2.132 4.7619-4.7619s-2.1319-4.7619-4.7619-4.7619c-2.6299 0-4.7619 2.132-4.7619 4.7619s2.132 4.7619 4.7619 4.7619z"/><path d="m17.6688 30.2159 2.3311-3.4798 2.3312 3.4798.5905-4.1466 3.6101 2.1237-1.2671-3.9922 4.1741.347-2.8739-3.047 3.9113-1.4984-3.9113-1.4984 2.8739-3.047-4.1741.347 1.2671-3.9922-3.6101 2.1237-.5905-4.14663-2.3312 3.47983-2.3311-3.47983-.5905 4.14663-3.6102-2.1237 1.2672 3.9922-4.1741-.347 2.8738 3.047-3.91126 1.4984 3.91126 1.4984-2.8738 3.047 4.1741-.347-1.2672 3.9922 3.6102-2.1237zm8.9977-10.2136c0 3.6819-2.9847 6.6667-6.6666 6.6667s-6.6667-2.9848-6.6667-6.6667 2.9848-6.6666 6.6667-6.6666 6.6666 2.9847 6.6666 6.6666z"/></g></g></svg>