<svg fill="none" height="40" viewBox="0 0 40 40" width="40" xmlns="http://www.w3.org/2000/svg" xmlns:xlink="http://www.w3.org/1999/xlink"><filter id="a" color-interpolation-filters="sRGB" filterUnits="userSpaceOnUse" height="9.52393" width="40" x="0" y="24.7646"><feFlood flood-opacity="0" result="BackgroundImageFix"/><feColorMatrix in="SourceAlpha" result="hardAlpha" type="matrix" values="0 0 0 0 0 0 0 0 0 0 0 0 0 0 0 0 0 0 127 0"/><feOffset/><feColorMatrix type="matrix" values="0 0 0 0 0 0 0 0 0 0 0 0 0 0 0 0 0 0 0.06 0"/><feBlend in2="BackgroundImageFix" mode="normal" result="effect1_dropShadow_2650_86215"/><feBlend in="SourceGraphic" in2="effect1_dropShadow_2650_86215" mode="normal" result="shape"/></filter><mask id="b" height="30" maskUnits="userSpaceOnUse" width="40" x="0" y="5"><rect fill="#fff" height="28.0714" rx="1.75" stroke="#fff" stroke-width=".5" width="39.5" x=".25" y="5.96667"/></mask><rect fill="#fff" height="28.0714" rx="1.75" stroke="#f5f5f5" stroke-width=".5" width="39.5" x=".25" y="5.96667"/><g mask="url(#b)"><path clip-rule="evenodd" d="m0 24.7642h40v-9.5238h-26.7943v-1.9048s-1.3433-.9523-2.7295-.9523c-1.38621 0-2.85715.9523-2.85715.9523v1.9048h-7.61905zm12.381-7.619c0 1.052-.8528 1.9048-1.9048 1.9048-1.05198 0-1.90477-.8528-1.90477-1.9048s.85279-1.9048 1.90477-1.9048c1.052 0 1.9048.8528 1.9048 1.9048z" fill="#0c47b7" fill-rule="evenodd"/><g filter="url(#a)"><path clip-rule="evenodd" d="m0 34.2885h40v-9.5239h-40z" fill="#e53b35" fill-rule="evenodd"/></g></g></svg>