<svg fill="none" height="40" viewBox="0 0 40 40" width="40" xmlns="http://www.w3.org/2000/svg" xmlns:xlink="http://www.w3.org/1999/xlink"><mask id="a" height="30" maskUnits="userSpaceOnUse" width="40" x="0" y="5"><path d="m0 9.05c0-1.84094 1.49238-3.33333 3.33333-3.33333h33.33337c1.8409 0 3.3333 1.49239 3.3333 3.33334v21.90479c0 1.8409-1.4924 3.3333-3.3333 3.3333h-33.33337c-1.84095 0-3.33333-1.4924-3.33333-3.3333z" fill="#fff"/></mask><g mask="url(#a)"><path d="m0 5.71667h40v28.57143h-40z" fill="#ee343c"/><path clip-rule="evenodd" d="m17.7877 12.0752c-.3746-.3745-.9614-.4326-1.4021-.1388l-.5061.3374c-.7099.4733-.6436 1.5368.1194 1.9183l1.4828.7414c.3765.1882.6142.573.6142.9938v.107c0 .6136-.4974 1.1111-1.1111 1.1111h-.5313c-.1725 0-.3426-.0402-.4969-.1173l-2.8587-1.4293c-.4277-.2139-.9444-.1301-1.2825.2081l-.2484.2484c-.5363.5363-.3896 1.4403.2887 1.7795l1.1515.5758c.57.285.6195 1.0794.0892 1.4329-.6152.4101-.4274 1.3594.2977 1.5044l.8027.1605c.7708.1542.9961 1.1476.3673 1.6192l-.7187.539c-.4689.3517-.2202 1.0978.3659 1.0978.0499 0 .0996-.0061.148-.0182l1.8025-.4506c.6835-.1709 1.219.5891.8282 1.1753-.3414.5122.0258 1.1983.6414 1.1983h.8335c.3484 0 .6577.2229.7679.5535.246.7379 1.2898.7379 1.5358 0 .1102-.3306.4195-.5535.7679-.5535h.8335c.6156 0 .9828-.6861.6413-1.1983-.3907-.5862.1448-1.3462.8283-1.1753l1.8025.4506c.0484.0121.0981.0182.148.0182.5861 0 .8348-.7461.3659-1.0978l-.7187-.539c-.6288-.4716-.4035-1.465.3673-1.6192l.8027-.1605c.7251-.145.9129-1.0943.2977-1.5044-.5303-.3535-.4808-1.1479.0892-1.4329l1.1515-.5758c.6783-.3392.825-1.2432.2887-1.7795l-.2484-.2484c-.3382-.3382-.8548-.422-1.2826-.2081l-2.8586 1.4293c-.1543.0771-.3244.1173-.4969.1173h-.5313c-.6137 0-1.1111-.4975-1.1111-1.1111v-.107c0-.4208.2372-.8053.6136-.9935.4639-.2319.992-.496 1.4835-.7417.7631-.3816.8292-1.445.1193-1.9183l-.5061-.3374c-.4407-.2938-1.0275-.2357-1.4021.1388l-1.4273 1.4274c-.4339.4339-1.1375.4339-1.5714 0z" fill="#262626" fill-rule="evenodd"/></g></svg>