<svg fill="none" height="40" viewBox="0 0 40 40" width="40" xmlns="http://www.w3.org/2000/svg" xmlns:xlink="http://www.w3.org/1999/xlink"><mask id="a" height="30" maskUnits="userSpaceOnUse" width="40" x="0" y="5"><rect fill="#fff" height="28.5714" rx="2" width="40" y="5.71667"/></mask><rect fill="#fff" height="28.5714" rx="2" width="40" y="5.71667"/><g clip-rule="evenodd" fill-rule="evenodd" mask="url(#a)"><path d="m0 24.7643h40v-19.04763h-40z" fill="#e54252"/><path d="m0 34.288h40v-9.5238h-40z" fill="#5cbe6b"/><path d="m0 5.71667h5.71429v4.28583l-.95231 1.4285.95231 1.4284v2.8574l-.95231 1.4284.95231 1.4285v2.8574l-.95231 1.4284.95231 1.4285v2.8574l-.95231 1.4284.95231 1.4285v4.2858h-5.71429z" fill="#fff"/><g fill="#e54252"><path d="m-.952354 8.57385-1.904766 2.85715 1.904766 2.8571-1.904766 2.8572 1.904766 2.8571 1.904762-2.8571-1.904762-2.8572 1.904762-2.8571zm-1.904766 14.28575 1.904766-2.8572 1.904762 2.8572-1.904762 2.8571zm1.904766 2.8571 1.904762 2.8571-1.904762 2.8572-1.904766-2.8572z"/><path d="m.952332 8.57382 1.904758-2.85715 1.90477 2.85715-1.90477 2.85718zm1.904758 8.57138-1.904758-2.8571 1.904758-2.8571 1.90477 2.8571zm0 5.7143-1.904758-2.8571 1.904758-2.8572 1.90477 2.8572zm0 5.7143 1.90477-2.8571-1.90477-2.8572-1.904758 2.8572zm0 0 1.90477 2.8572-1.90477 2.8571-1.904758-2.8571z"/></g></g></svg>