<svg fill="none" height="40" viewBox="0 0 40 40" width="40" xmlns="http://www.w3.org/2000/svg" xmlns:xlink="http://www.w3.org/1999/xlink"><linearGradient id="a" gradientUnits="userSpaceOnUse" x1="25.7143" x2="25.7143" y1="17.1453" y2="20.9548"><stop offset="0" stop-color="#e20b0c"/><stop offset="1" stop-color="#d40001"/></linearGradient><linearGradient id="b" gradientUnits="userSpaceOnUse" x1="0" x2="0" y1="5.71667" y2="19.05"><stop offset="0" stop-color="#db1e36"/><stop offset="1" stop-color="#d51931"/></linearGradient><mask id="c" height="30" maskUnits="userSpaceOnUse" width="40" x="0" y="5"><rect fill="#fff" height="28.5714" rx="2" width="40" y="5.71667"/></mask><mask id="d" height="10" maskUnits="userSpaceOnUse" width="9" x="24" y="15"><path clip-rule="evenodd" d="m24.7619 20.0024c0-2.8572 0-4.7619 0-4.7619h3.8095 3.8095v4.7619c0 2.8571-3.8095 4.7619-3.8095 4.7619s-3.8095-1.9048-3.8095-4.7619z" fill="#fff" fill-rule="evenodd"/></mask><rect fill="#fff" height="28.5714" rx="2" width="40" y="5.71667"/><g mask="url(#c)"><path d="m0 5.71667h40v28.5714h-40z" fill="#dc1f37"/><path d="m0 5.71667h17.1429v13.3333h-17.1429z" fill="#042c90"/><path clip-rule="evenodd" d="m24.7619 20.0024c0-2.8572 0-4.7619 0-4.7619h3.8095 3.8095v4.7619c0 2.8571-3.8095 4.7619-3.8095 4.7619s-3.8095-1.9048-3.8095-4.7619z" fill="#fff" fill-rule="evenodd"/><g mask="url(#d)"><path clip-rule="evenodd" d="m28.5714 22.8596c1.0519 0 1.9047-.8528 1.9047-1.9048s-.8528-1.9048-1.9047-1.9048c-1.052 0-1.9048.8528-1.9048 1.9048s.8528 1.9048 1.9048 1.9048z" fill="#65b5d2" fill-rule="evenodd"/><path clip-rule="evenodd" d="m28.5714 19.05c.526 0 .9524-.4264.9524-.9524 0-.5259-.4264-.9523-.9524-.9523s-.9524.4264-.9524.9523c0 .526.4264.9524.9524.9524zm-1.9047 1.9047c.526 0 .9524-.4263.9524-.9523s-.4264-.9524-.9524-.9524-.9524.4264-.9524.9524.4264.9523.9524.9523zm4.7619-.9523c0 .526-.4264.9523-.9524.9523-.5259 0-.9523-.4263-.9523-.9523s.4264-.9524.9523-.9524c.526 0 .9524.4264.9524.9524z" fill="url(#a)" fill-rule="evenodd"/><path d="m24.7619 22.8594h7.61905v1.90476h-7.61905z" fill="#2f8f22"/></g><path d="m0 5.38334h-.901086l.684156.58642 6.55026 5.61454v1.5799l-6.527076 4.6622-.139587.0997v.1715.9524.6014l.509999-.3187 7.537984-4.7113h1.70234l6.49761 4.6412c.1099.0785.2417.1207.3768.1207.6019 0 .8789-.7488.4219-1.1405l-5.9038-5.0604v-1.5799l6.3875-4.56249c.1752-.12515.2792-.32719.2792-.54249v-.78085-.60141l-.51.31875-7.53799 4.71119h-1.70234l-6.57974-4.69977-.08693-.06209h-.106819z" fill="#db1e36" stroke="#fff" stroke-width=".666667"/><g clip-rule="evenodd" fill-rule="evenodd"><path d="m0 10.4786v3.8095h6.66667v5.0476c0 .3682.29847.6667.66666.6667h2.47619c.36818 0 .66668-.2985.66668-.6667v-5.0476h6.9524c.3682 0 .6666-.2985.6666-.6667v-2.4762c0-.3681-.2984-.6666-.6666-.6666h-6.9524v-4.76193h-3.80953v4.76193z" fill="#fff"/><path d="m0 11.431h7.61905v-.9524-4.76193h1.90476v4.76193.9524h7.61909v1.9047h-7.61909v.9524 4.7619h-1.90476v-4.7619-.9524h-7.61905z" fill="url(#b)"/></g></g></svg>