<svg fill="none" height="40" viewBox="0 0 40 40" width="40" xmlns="http://www.w3.org/2000/svg" xmlns:xlink="http://www.w3.org/1999/xlink"><filter id="a" color-interpolation-filters="sRGB" filterUnits="userSpaceOnUse" height="10.5238" width="13.3334" x="1.90479" y="7.62146"><feFlood flood-opacity="0" result="BackgroundImageFix"/><feColorMatrix in="SourceAlpha" result="hardAlpha" type="matrix" values="0 0 0 0 0 0 0 0 0 0 0 0 0 0 0 0 0 0 127 0"/><feOffset dy="1"/><feColorMatrix type="matrix" values="0 0 0 0 0 0 0 0 0 0 0 0 0 0 0 0 0 0 0.06 0"/><feBlend in2="BackgroundImageFix" mode="normal" result="effect1_dropShadow_2650_86191"/><feBlend in="SourceGraphic" in2="effect1_dropShadow_2650_86191" mode="normal" result="shape"/></filter><linearGradient id="b" gradientUnits="userSpaceOnUse" x1="1.90479" x2="1.90479" y1="7.62146" y2="17.1453"><stop offset="0" stop-color="#fff"/><stop offset="1" stop-color="#f0f0f0"/></linearGradient><mask id="c" height="30" maskUnits="userSpaceOnUse" width="40" x="0" y="5"><rect fill="#fff" height="28.5714" rx="2" width="40" y="5.71667"/></mask><rect fill="#fff" height="28.5714" rx="2" width="40" y="5.71667"/><g mask="url(#c)"><path clip-rule="evenodd" d="m40 5.71667h-40v1.90477h40zm0 3.80953h-40v1.9048h40zm-40 3.8095h40v1.9048h-40zm40 3.8095h-40v1.9048h40zm-40 3.8096h40v1.9047h-40zm40 3.8095h-40v1.9048h40zm-40 3.8095h40v1.9048h-40zm40 3.8095h-40v1.9048h40z" fill="#d02f44" fill-rule="evenodd"/><path d="m0 5.71667h17.1429v13.3333h-17.1429z" fill="#46467f"/><g filter="url(#a)"><path clip-rule="evenodd" d="m3.80955 8.57384c0 .52599-.4264.95238-.95238.95238-.52599 0-.95238-.42639-.95238-.95238 0-.52598.42639-.95238.95238-.95238.52598 0 .95238.4264.95238.95238zm3.80952 0c0 .52599-.42639.95238-.95238.95238-.52598 0-.95238-.42639-.95238-.95238 0-.52598.4264-.95238.95238-.95238.52599 0 .95238.4264.95238.95238zm2.85713.95238c.526 0 .9524-.42639.9524-.95238 0-.52598-.4264-.95238-.9524-.95238-.52597 0-.95237.4264-.95237.95238 0 .52599.4264.95238.95237.95238zm4.7619-.95238c0 .52599-.4264.95238-.9524.95238-.5259 0-.9523-.42639-.9523-.95238 0-.52598.4264-.95238.9523-.95238.526 0 .9524.4264.9524.95238zm-10.47617 2.85716c.52598 0 .95238-.4264.95238-.9524 0-.52598-.4264-.95238-.95238-.95238-.52599 0-.95238.4264-.95238.95238 0 .526.42639.9524.95238.9524zm4.7619-.9524c0 .526-.42639.9524-.95238.9524-.52598 0-.95238-.4264-.95238-.9524 0-.52598.4264-.95238.95238-.95238.52599 0 .95238.4264.95238.95238zm2.85717.9524c.526 0 .9524-.4264.9524-.9524 0-.52598-.4264-.95238-.9524-.95238s-.9524.4264-.9524.95238c0 .526.4264.9524.9524.9524zm2.8571.9524c0 .526-.4264.9523-.9524.9523-.5259 0-.9523-.4263-.9523-.9523s.4264-.9524.9523-.9524c.526 0 .9524.4264.9524.9524zm-4.7619.9523c.526 0 .9524-.4263.9524-.9523s-.4264-.9524-.9524-.9524c-.52597 0-.95237.4264-.95237.9524s.4264.9523.95237.9523zm-2.85713-.9523c0 .526-.42639.9523-.95238.9523-.52598 0-.95238-.4263-.95238-.9523s.4264-.9524.95238-.9524c.52599 0 .95238.4264.95238.9524zm-4.7619.9523c.52598 0 .95238-.4263.95238-.9523s-.4264-.9524-.95238-.9524c-.52599 0-.95238.4264-.95238.9524s.42639.9523.95238.9523zm2.85714.9524c0 .526-.4264.9524-.95238.9524-.52599 0-.95238-.4264-.95238-.9524s.42639-.9524.95238-.9524c.52598 0 .95238.4264.95238.9524zm2.85714.9524c.52599 0 .95238-.4264.95238-.9524s-.42639-.9524-.95238-.9524c-.52598 0-.95238.4264-.95238.9524s.4264.9524.95238.9524zm4.76195-.9524c0 .526-.4264.9524-.9524.9524s-.9524-.4264-.9524-.9524.4264-.9524.9524-.9524.9524.4264.9524.9524zm.9523 2.8572c.526 0 .9524-.4264.9524-.9524s-.4264-.9524-.9524-.9524c-.5259 0-.9523.4264-.9523.9524s.4264.9524.9523.9524zm-2.8571-.9524c0 .526-.4264.9524-.9524.9524-.52597 0-.95237-.4264-.95237-.9524s.4264-.9524.95237-.9524c.526 0 .9524.4264.9524.9524zm-4.76191.9524c.52599 0 .95238-.4264.95238-.9524s-.42639-.9524-.95238-.9524c-.52598 0-.95238.4264-.95238.9524s.4264.9524.95238.9524zm-2.85714-.9524c0 .526-.4264.9524-.95238.9524-.52599 0-.95238-.4264-.95238-.9524s.42639-.9524.95238-.9524c.52598 0 .95238.4264.95238.9524z" fill="url(#b)" fill-rule="evenodd"/></g></g></svg>