<svg fill="none" height="40" viewBox="0 0 40 40" width="40" xmlns="http://www.w3.org/2000/svg" xmlns:xlink="http://www.w3.org/1999/xlink"><mask id="a" height="30" maskUnits="userSpaceOnUse" width="40" x="0" y="5"><rect fill="#fff" height="28.5714" rx="2" width="40" y="5.71667"/></mask><mask id="b" height="14" maskUnits="userSpaceOnUse" width="14" x="13" y="13"><path clip-rule="evenodd" d="m20.0001 26.669c3.6819 0 6.6667-2.9847 6.6667-6.6666s-2.9848-6.6667-6.6667-6.6667-6.6667 2.9848-6.6667 6.6667 2.9848 6.6666 6.6667 6.6666z" fill="#fff" fill-rule="evenodd"/></mask><rect fill="#fff" height="28.5714" rx="2" width="40" y="5.71667"/><g mask="url(#a)"><path d="m0 5.71667h40v28.5714h-40z" fill="#05ab41"/><path clip-rule="evenodd" d="m4.67446 20.5621c-.406-.2627-.406-.8567 0-1.1194l14.96334-9.68211c.2203-.14261.5039-.14261.7243 0l14.9633 9.68211c.406.2627.406.8567 0 1.1194l-14.9633 9.6822c-.2204.1426-.504.1426-.7243 0z" fill="#fdd216" fill-rule="evenodd"/><path clip-rule="evenodd" d="m20.0001 26.669c3.6819 0 6.6667-2.9847 6.6667-6.6666s-2.9848-6.6667-6.6667-6.6667-6.6667 2.9848-6.6667 6.6667 2.9848 6.6666 6.6667 6.6666z" fill="#053087" fill-rule="evenodd"/><g mask="url(#b)"><path clip-rule="evenodd" d="m13.2438 19.1229c-.0023.0012-.0028.0014-.0016.0005l-.8635.6992-1.3985-1.727.8635-.6992c.5339-.4324 1.2266-.5618 1.8149-.5971.621-.0372 1.3243.021 2.0437.1261 1.4409.2103 3.1308.6375 4.7044 1.0573 1.6619.4433 3.3456 1.1248 4.7269 1.8308.6918.3536 1.3217.7204 1.8438 1.0761.5042.3434.973.7201 1.285 1.1053l.6993.8635-1.727 1.3985-.6993-.8635c-.1066-.1317-.3628-.3632-.8092-.6673-.4285-.2919-.9748-.6123-1.6039-.9338-1.2604-.6442-2.7974-1.2647-4.2884-1.6625-1.5794-.4213-3.1548-.816-4.4526-1.0055-.65-.0949-1.1845-.131-1.5897-.1067-.3896.0233-.5292.0956-.5478.1053z" fill="#fff" fill-rule="evenodd"/></g></g></svg>