<svg height="60.707" viewBox="0 0 63.204 60.707" width="63.204" xmlns="http://www.w3.org/2000/svg"><g fill="#ffc107" transform="translate(-314.68 -92.222)"><path d="m377.884 129.4a61.85 61.85 0 0 0 -7.349 2.083c-5.108 1.59-7.554 5.689-9.879 9.986-1.358 2.512-1.518 5.276-1.9 8.006a19.838 19.838 0 0 1 -.781 3.459c-.786-2.347-.661-4.851-1.316-7.15-3.013-10.577-6.834-13.892-16.827-15.654a2.855 2.855 0 0 1 -1.224-.43c5.352-1.464 10.89-2.55 14.346-7.47 3.273-4.66 4.375-10.014 4.841-15.589.981 1.654.863 1.68 1.323 5.048a23.121 23.121 0 0 0 4.867 11.731c3.05 3.734 7.414 4.638 11.879 5.268a2.586 2.586 0 0 1 2.02.712z"/><path d="m328.289 123.833c-.943-8.51-4.064-14.9-13.609-16 2.42-.9 4.894-1.221 6.985-2.54a12.237 12.237 0 0 0 4.726-5.8c.986-2.319 1.3-4.812 2.049-7.275.786 3.739 1.385 7.512 3.736 10.654 2.463 3.291 6.188 3.877 10.078 4.613-9.342 1.478-13.127 7.527-13.965 16.348z"/></g></svg>