<svg xmlns="http://www.w3.org/2000/svg" width="1679.97" height="1300" viewBox="0 0 1679.97 1300">
  <g id="Group_249" data-name="Group 249" transform="translate(0)">
    <g id="Group_248" data-name="Group 248">
      <g id="Group_233" data-name="Group 233" transform="translate(466.674)">
        <g id="Group_226" data-name="Group 226" transform="translate(311.178)">
          <rect id="Rectangle_41" data-name="Rectangle 41" width="366.687" height="366.687" fill="#ffbcb0"/>
          <rect id="Rectangle_42" data-name="Rectangle 42" width="154.734" height="214.598" transform="translate(105.977 76.044)" fill="#fff"/>
          <g id="Group_225" data-name="Group 225" transform="translate(101.868 71.936)">
            <g id="Group_224" data-name="Group 224">
              <path id="Path_3901" data-name="Path 3901" d="M807.057,616.084H970.008V393.269H807.057Zm154.733-8.218H815.275V401.487H961.79Z" transform="translate(-807.057 -393.269)" fill="#93582f"/>
            </g>
          </g>
        </g>
        <g id="Group_229" data-name="Group 229" transform="translate(691.441 34.825)">
          <rect id="Rectangle_43" data-name="Rectangle 43" width="297.036" height="297.036" fill="#f6e3d3"/>
          <rect id="Rectangle_44" data-name="Rectangle 44" width="125.343" height="173.836" transform="translate(85.847 61.6)" fill="#fff"/>
          <g id="Group_228" data-name="Group 228" transform="translate(82.519 58.272)">
            <g id="Group_227" data-name="Group 227">
              <path id="Path_3902" data-name="Path 3902" d="M477.095,594.923h132V414.43h-132Zm125.342-6.657H483.752V421.087H602.437Z" transform="translate(-477.095 -414.43)" fill="#ffbcb0"/>
            </g>
          </g>
        </g>
        <g id="Group_232" data-name="Group 232" transform="translate(0 34.825)">
          <rect id="Rectangle_45" data-name="Rectangle 45" width="297.036" height="297.036" transform="translate(0)" fill="#f6e3d3"/>
          <rect id="Rectangle_46" data-name="Rectangle 46" width="125.343" height="173.836" transform="translate(85.847 61.6)" fill="#fff"/>
          <g id="Group_231" data-name="Group 231" transform="translate(82.518 58.272)">
            <g id="Group_230" data-name="Group 230">
              <path id="Path_3903" data-name="Path 3903" d="M1168.536,594.923h132V414.43h-132Zm125.343-6.657H1175.193V421.087h118.686Z" transform="translate(-1168.536 -414.43)" fill="#ffbcb0"/>
            </g>
          </g>
        </g>
      </g>
      <ellipse id="Ellipse_11" data-name="Ellipse 11" cx="566.789" cy="52.816" rx="566.789" ry="52.816" transform="translate(394.125 1194.368)" fill="#eb9e94"/>
      <ellipse id="Ellipse_12" data-name="Ellipse 12" cx="271.145" cy="33.109" rx="271.145" ry="33.109" transform="translate(0 1214.075)" fill="#eb9e94"/>
      <g id="Group_236" data-name="Group 236" transform="translate(1133.577 304.546)">
        <g id="Group_234" data-name="Group 234">
          <path id="Path_3904" data-name="Path 3904" d="M633.863,1019.8c1.485-4.057.956-5.032,0-8.727-2.024-7.83-17.74-11.33-25.7-26.669-5.061-9.753-22.292-6.592-32.487-16-7.255-6.7,1.624-10-16.486-20.849-27.531-16.491-23.445-33.981-22.3-34.427,1.817-.708,1.512,4.542,3.609,7.209,9.83,12.5,74.915-10.011,129.9,26.817,23.931,16.027,40.532,38.152,44.921,65.859,3.215,20.3-3.482,30.559-10.691,28.658-8.521-2.248-2.254,3.456-7.6,11.06C674.815,1084.33,628.318,1034.962,633.863,1019.8Z" transform="translate(-535.995 -625.879)" fill="#7ca417"/>
          <path id="Path_3905" data-name="Path 3905" d="M343.933,1073.253c-26.84,25.782-46.757,5.577-63.927-15.022-4.14-4.967-16.09,12.76-30.588-5.972-22.789-29.445,6.944-70.421,37.942-162.893C291.171,878,326.005,796.236,347,761c10.294-17.279,21.811-29.307,31.617-34.359,24.917-12.835,42.41-4.752,44.244-15.365,1.339-7.749-4.956-9.551-1.123-11.183,4.9-2.085,16.647,30.441,14.249,62.9-1.881,25.466-10.96,34.923-20.725,63.041-9.557,27.519-7.556,37.736-14.013,82.621C389,993.77,382.892,1035.828,343.933,1073.253Z" transform="translate(38.477 -625.879)" fill="#346e00"/>
          <path id="Path_3906" data-name="Path 3906" d="M706.074,1374.832c-2.2-22.537-4.531-45.115-7.485-67.623s-6.487-44.958-10.921-67.244-9.739-44.409-16.238-66.2a518.665,518.665,0,0,0-23.53-63.984,376.216,376.216,0,0,0-33.132-59.557,281.056,281.056,0,0,0-44.953-51.1,238.867,238.867,0,0,0-56.686-37.385c-2.585-1.165-5.16-2.357-7.751-3.5l-7.789-3.371c-5.18-2.269-10.324-4.616-15.344-7.211a116.7,116.7,0,0,1-14.5-8.744,59.315,59.315,0,0,1-12.334-11.557,59.423,59.423,0,0,0,12.178,11.769,117.131,117.131,0,0,0,14.412,9c4.995,2.681,10.117,5.114,15.268,7.466L505,959.084c2.569,1.179,5.111,2.406,7.667,3.606a237.289,237.289,0,0,1,55.73,38.01,278.453,278.453,0,0,1,43.735,51.313,372.563,372.563,0,0,1,31.879,59.477,513.961,513.961,0,0,1,22.32,63.757c6.1,21.7,11.023,43.727,15.078,65.91s7.209,44.539,9.8,66.96,4.559,44.924,6.4,67.478Z" transform="translate(-445.331 -625.879)" fill="#346e00"/>
          <path id="Path_3907" data-name="Path 3907" d="M212.45,807.7c15.538,24.115,39.934,29.441,40.37,28.69.535-.925-21.642-9.3-33.8-33.422a79.114,79.114,0,0,1,37.132-12.436c27.4-2.217,17.362-8.566,39.939-16.159,29.614-9.96,41.716-10.7,48.2-8.631,10.478,3.348,10.834-5.582,12.522-3.933,1.1,1.073,10.006,22.333-4.259,36.986-7.529,7.734-16.613,4.481-26.856,15.838-5.464,6.058-5,10.107-8.951,17.9-8.54,16.841-28.847,14.2-31.676,28.921-16.778,87.311-47.9,92.728-75.97,93.131-15.464.222-13.014-13.122-22.688-11.269C161.087,948.167,160.852,848.861,212.45,807.7Z" transform="translate(185.822 -625.879)" fill="#9fbc50"/>
          <path id="Path_3908" data-name="Path 3908" d="M572.1,742.775c-22.64,17.618-47.425,14.574-47.587,13.721-.2-1.05,23.5-1.62,42.949-20.361a79.124,79.124,0,0,0-30.928-24.019c-25.12-11.154-13.551-13.826-32.345-28.46-24.653-19.2-35.828-23.9-42.634-24.089-11-.306-8.378-8.852-10.516-7.854-1.392.649-16.83,17.766-8.215,36.313,4.547,9.789,14.2,9.724,20.1,23.829,3.152,7.525,1.374,11.192,2.526,19.857,2.488,18.717,22.525,22.942,20.325,37.771-13.046,87.946,14.529,103.351,40.888,113.018,14.521,5.324,16.623-8.079,25.139-3.131C574.107,892.327,607.176,798.689,572.1,742.775Z" transform="translate(-311.5 -625.879)" fill="#346e00"/>
          <path id="Path_3909" data-name="Path 3909" d="M412.894,682.419c27.426-21.568,39.622-42.628,57.153-44.759,9.641-1.171,8.62,2.932,17.9-4.131,4.27-3.249,7.687-8.326,8.951-7.575,1.187.706-1.958,5.1-1.377,10.329.909,8.175,10.043,10.583,15.838,17.9,4.317,5.454,5.177,11.609,5.18,18.011-16.9,7.425-46.262,4.7-42.225,6.47,4.155,1.817,26.9,6.456,41.864,5.891-.174,25.858,10.861,33.109,17.905,63.278,5.378,23.037,2.568,34.359,2.065,66.1-1.531,96.656,22.516,118.047,1.378,157-2.354,4.337-30.648,38.311-56.165,38.562-15.326.15-19.855-11.994-39.939-13.084-19.607-1.063-25.528,9.957-45.447,11.706,0,0-13.473,2-39.55-15.149C290.6,949.675,341.968,738.2,412.894,682.419Z" transform="translate(-156.149 -625.879)" fill="#7ca417"/>
          <path id="Path_3910" data-name="Path 3910" d="M444.683,841.487c1.8-10.688,7.193-14.955,5.333-24.728-.664-3.493-2.127-7.013-.969-7.758,1.553-1,6.32,3.964,7.758,5.333,12.167,11.587,39.809,7.41,45.578,6.789,34.858-3.753,80.515,35.165,101.824,60.124,9.873,11.565,49.174,57.6,37.82,107.158-.42,1.835-3.413,37.61-28.607,41.215-15.974,2.285-22.843-16.093-40.363-11.515-11.492,3-16.31,11.01-27.035,12-14.273,1.317-26.745-16.13-29.578-20.364-10.216-15.275-4.7-22.646-14.061-49.943-4.386-12.784-8.069-23.518-16.971-35.4-8.176-10.909-15.062-15.188-19.3-20.858,8.273,2.647,18.641,2.118,30.085-1.658,7.82-2.58,14.577-8.04,13.774-8.958-.674-.771-9.477,4.864-20.9,4.046-15.465-1.109-22.951-5.951-27.388-9.785.408-9.6,4.276-17.547.938-19.517-2.715-1.6-5.985,3.233-10.182,1.939C446.146,867.67,442.671,853.454,444.683,841.487Z" transform="translate(-372.028 -625.879)" fill="#9fbc50"/>
          <path id="Path_3911" data-name="Path 3911" d="M296.781,1024.842c27.172-13.872,31.712-11.308,48.528-28.8,5.418-5.637,8.62-15.115,43.607-29.213,8.067-3.251,2.5-8.654,3.647-9.856,1.891-1.982,10,5.151,13.721,13.891,8.738,20.5,5.483,36.774-.7,50.2-22.746,13.1-37.834,5.689-38.9,8.516-.38,1.012,17.489,5.7,31.587,4.8-2.862,4.646-5.677,8.911-7.858,12.883-6.282,11.441-5.517,32.375-12.438,53.237-28.357-13.682-51.059-10.217-51.053-9.784,0,.078,2.311.121,4.254.494,23.664,4.546,34.251,15.3,41.236,22.421-5.719,10.775-14.446,20.967-28.363,29.165-3,1.768-15.229,9.822-31.705,6.474-15.564-3.163-10.994-21.44-22.622-20.618C236.467,1132.406,249.588,1048.934,296.781,1024.842Z" transform="translate(49.319 -625.879)" fill="#7ca417"/>
          <path id="Path_3912" data-name="Path 3912" d="M616.012,1362.765c-17.5-44.622-32.11-90.483-40.994-137.524a470.085,470.085,0,0,1-8.121-71.177c-.381-11.934-.251-23.884.518-35.794a314.281,314.281,0,0,1,4.336-35.51c.547-2.939,1.108-5.845,1.733-8.8s1.235-5.942,1.8-8.937c1.126-5.994,2.079-12.031,2.789-18.1a233.126,233.126,0,0,0,1.485-36.57,212.229,212.229,0,0,0-4.574-36.274l-1.015-4.459-1.121-4.431q-1.151-4.388-2.405-8.773c-1.688-5.837-3.579-11.623-5.716-17.318a188.435,188.435,0,0,0-15.909-32.774,151.225,151.225,0,0,0-22.551-28.53,135.9,135.9,0,0,0-13.776-11.876l-3.693-2.652c-1.232-.882-2.512-1.694-3.764-2.544-2.555-1.625-5.129-3.222-7.776-4.689a147.879,147.879,0,0,0-33.463-13.722,147.473,147.473,0,0,1,33.044,14.448c2.6,1.519,5.116,3.165,7.614,4.836,1.224.873,2.474,1.707,3.675,2.61l3.6,2.712a134.252,134.252,0,0,1,13.351,12.059,149.154,149.154,0,0,1,21.585,28.643,185.479,185.479,0,0,1,14.911,32.622c1.973,5.653,3.7,11.388,5.233,17.181.763,2.9,1.483,5.81,2.179,8.74l1,4.368.891,4.39a207.576,207.576,0,0,1,3.637,35.576,227.509,227.509,0,0,1-2.29,35.665c-.833,5.9-1.9,11.772-3.141,17.612-.621,2.922-1.292,5.832-1.981,8.766s-1.35,5.942-1.977,8.921a321.664,321.664,0,0,0-5.291,36.215c-1.074,12.158-1.495,24.365-1.392,36.56A479.234,479.234,0,0,0,565,1227c7.914,48.089,21.655,94.974,38.314,140.6Z" transform="translate(-363.654 -625.879)" fill="#7ca417"/>
          <path id="Path_3913" data-name="Path 3913" d="M190.667,1377.805c2.149-57.144,8.248-114.238,17.217-170.852,9.035-56.606,20.968-112.819,36.8-167.938q5.961-20.66,12.78-41.054t14.721-40.382q7.9-19.984,17.235-39.344c3.158-6.421,6.406-12.8,9.866-19.061s7.093-12.421,10.934-18.45c7.75-11.991,16.309-23.53,26.419-33.583,1.294-1.221,2.53-2.506,3.873-3.678l4-3.546,4.157-3.35c1.4-1.1,2.873-2.091,4.306-3.143q2.213-1.482,4.483-2.874c1.548-.867,3.067-1.788,4.671-2.56,3.156-1.641,6.455-3,9.754-4.515a37.563,37.563,0,0,0,9.3-5.8,42.958,42.958,0,0,0,7.2-8.215c1.053-1.491,2.059-2.968,3.055-4.445,1.04-1.45,2.094-2.891,3.227-4.269a58.059,58.059,0,0,1,7.429-7.672,46.9,46.9,0,0,1,8.89-5.91,84.792,84.792,0,0,1,9.921-4.118,51.513,51.513,0,0,0,9.846-4.419,26.206,26.206,0,0,0,4.266-3.309,30.485,30.485,0,0,0,3.468-4.125,30.523,30.523,0,0,1-3.541,4.048,26.1,26.1,0,0,1-4.3,3.205,51.26,51.26,0,0,1-9.878,4.2,85.187,85.187,0,0,0-10.064,3.948,47.687,47.687,0,0,0-9.146,5.826,58.916,58.916,0,0,0-7.7,7.648c-1.178,1.377-2.275,2.817-3.359,4.267-1.044,1.483-2.09,2.957-3.14,4.381a41.57,41.57,0,0,1-7.122,7.825,35.974,35.974,0,0,1-9.04,5.388c-3.26,1.424-6.646,2.739-9.9,4.351-1.653.757-3.23,1.669-4.835,2.528-1.567.921-3.122,1.872-4.651,2.854-1.486,1.044-3.014,2.037-4.466,3.126l-4.306,3.333-4.14,3.524c-1.388,1.166-2.675,2.45-4.018,3.67-10.5,10.039-19.4,21.569-27.487,33.55-4,6.022-7.791,12.182-11.42,18.432s-7.023,12.627-10.337,19.044q-9.82,19.309-18.152,39.312-8.389,19.957-15.621,40.363-7.278,20.377-13.672,41.052c-17.021,55.129-30.131,111.405-40.343,168.186-10.147,56.8-17.429,114.159-20.742,171.924Z" transform="translate(100.568 -625.879)" fill="#7ca417"/>
          <path id="Path_3914" data-name="Path 3914" d="M507.762,1354c11.9-55.932,19.96-112.783,25.118-169.87,5.093-57.1,7.279-114.52,5.412-171.838q-.723-21.491-2.344-42.934c-1.083-14.291-2.52-28.553-4.392-42.757q-2.769-21.309-7.082-42.364c-1.491-7-3.079-13.98-4.9-20.9s-3.838-13.779-6.086-20.564c-4.58-13.523-10.055-26.806-17.4-39.028-.955-1.5-1.839-3.049-2.854-4.514l-3.013-4.417-3.211-4.266c-1.09-1.4-2.273-2.73-3.406-4.1q-1.781-1.978-3.643-3.883c-1.289-1.22-2.536-2.485-3.9-3.625-2.659-2.364-5.525-4.486-8.352-6.765a37.553,37.553,0,0,1-7.6-7.9,42.908,42.908,0,0,1-4.967-9.726c-.656-1.7-1.27-3.382-1.875-5.057-.653-1.661-1.323-3.316-2.083-4.93a58.1,58.1,0,0,0-5.326-9.256,46.911,46.911,0,0,0-7.173-7.906,84.9,84.9,0,0,0-8.612-6.421,51.56,51.56,0,0,1-8.466-6.694,26.276,26.276,0,0,1-3.326-4.252,30.585,30.585,0,0,1-2.353-4.848,30.518,30.518,0,0,0,2.443,4.792,26.049,26.049,0,0,0,3.388,4.159,51.209,51.209,0,0,0,8.549,6.49,85.3,85.3,0,0,1,8.792,6.291,47.691,47.691,0,0,1,7.443,7.887,58.994,58.994,0,0,1,5.6,9.3c.8,1.624,1.516,3.289,2.212,4.959.649,1.694,1.3,3.379,1.973,5.017a41.547,41.547,0,0,0,4.99,9.329,35.963,35.963,0,0,0,7.447,7.438c2.812,2.178,5.773,4.281,8.537,6.642,1.418,1.138,2.724,2.408,4.069,3.634,1.294,1.276,2.569,2.578,3.811,3.905,1.185,1.376,2.424,2.713,3.565,4.124l3.359,4.285,3.152,4.43c1.061,1.47,1.995,3.03,3,4.542,7.726,12.3,13.536,25.662,18.441,39.256,2.41,6.819,4.573,13.719,6.562,20.667s3.719,13.962,5.362,20.994q4.8,21.126,7.98,42.559c2.167,14.269,3.9,28.6,5.268,42.959s2.441,28.748,3.21,43.15c3.012,57.618,1.951,115.39-2.042,172.945-4.062,57.553-11.039,114.952-21.962,171.772Z" transform="translate(-246.59 -625.879)" fill="#7ca417"/>
          <path id="Path_3915" data-name="Path 3915" d="M401.289,1376.628c-2.587-30.467-3.846-61.176-4.47-91.9-.609-30.736-.629-61.512-.3-92.291.681-61.563,2.705-123.146,5.522-184.693,2.865-61.545,6.454-123.073,11.239-184.507,1.216-15.356,2.489-30.708,3.952-46.039l1.14-11.494,1.25-11.473a92.732,92.732,0,0,1,1.955-11.252,53.854,53.854,0,0,1,3.971-10.65c.823-1.742,1.606-3.539,2.308-5.36q1.023-2.75,1.789-5.571A111.325,111.325,0,0,0,431.988,710c1.2-7.621,2.216-15.253,3.776-22.781A99.47,99.47,0,0,1,442.7,665.3a75.551,75.551,0,0,1,12.753-19.133,75.732,75.732,0,0,0-13.137,18.951,100.122,100.122,0,0,0-7.383,21.926c-1.706,7.538-2.863,15.175-4.2,22.751a109.53,109.53,0,0,1-2.52,11.2q-.8,2.745-1.842,5.4c-.717,1.76-1.5,3.484-2.359,5.21a55.746,55.746,0,0,0-4.285,10.893,94.723,94.723,0,0,0-2.214,11.468l-1.465,11.482-1.352,11.488c-1.748,15.323-3.3,30.663-4.8,46.009-5.917,61.388-10.638,122.882-14.636,184.429-3.951,61.552-7.11,123.166-8.926,184.865-.894,30.85-1.443,61.723-1.4,92.627.062,30.906.755,61.843,2.814,92.849Z" transform="translate(-124.23 -625.879)" fill="#346e00"/>
          <path id="Path_3916" data-name="Path 3916" d="M284.414,1378.4a870.445,870.445,0,0,1,9.932-107.785,678.794,678.794,0,0,1,24.98-105.315,516.519,516.519,0,0,1,19.473-50.547,395.581,395.581,0,0,1,25.358-47.862,266.212,266.212,0,0,1,32.938-42.961c3.12-3.257,6.429-6.387,9.473-9.764,3.066-3.353,6-6.829,8.748-10.442a102.216,102.216,0,0,0,7.583-11.3,50.028,50.028,0,0,0,2.981-6.119,17.924,17.924,0,0,0,1.476-6.6,17.859,17.859,0,0,1-1.6,6.554,49.706,49.706,0,0,1-3.087,6.036A101.655,101.655,0,0,1,414.9,1003.4c-2.811,3.545-5.8,6.949-8.91,10.226-3.092,3.3-6.435,6.34-9.649,9.565a267.611,267.611,0,0,0-33.967,42.558,398.069,398.069,0,0,0-26.462,47.672,520.476,520.476,0,0,0-20.6,50.516,684.231,684.231,0,0,0-27.241,105.623,878.184,878.184,0,0,0-12.136,108.491Z" transform="translate(12.864 -625.879)" fill="#346e00"/>
        </g>
        <g id="Group_235" data-name="Group 235" transform="translate(176.193 732.817)">
          <path id="Path_3917" data-name="Path 3917" d="M353.694,1358.7H530.648a9.31,9.31,0,0,1,9.31,9.31V1390.9a9.31,9.31,0,0,1-9.31,9.311h-3.886l-9.93,145.169a13.965,13.965,0,0,1-13.965,13.965H381.476a13.965,13.965,0,0,1-13.965-13.965l-9.931-145.169h-3.886a9.311,9.311,0,0,1-9.31-9.311v-22.892A9.31,9.31,0,0,1,353.694,1358.7Z" transform="translate(-344.384 -1358.696)" fill="#93582f"/>
          <path id="Path_3918" data-name="Path 3918" d="M360,1428.112l-1.919-28.063H526.731Z" transform="translate(-344.857 -1358.696)" fill="#312553"/>
        </g>
      </g>
      <g id="Group_238" data-name="Group 238" transform="translate(521.241 515.568)">
        <path id="Path_3919" data-name="Path 3919" d="M479.927,1032.148c56.659-37.787,92.625-16.986,97.713-31.928,6.012-17.655-.7-77.986,6.463-105.622,4.2-16.216,13.727-31.154,73.79-40.994,72.28-11.843,151.013-17.093,230.923-16.681,79.91-.412,158.643,4.838,230.923,16.681,60.062,9.84,69.586,24.778,73.79,40.994,7.166,27.636.451,87.967,6.463,105.622,5.088,14.942,41.055-5.859,97.712,31.928,89.025,59.374-36.712,359.673-103.6,411.685-21.036,16.359-55.367,13.941-61.83,14.179-119.04,4.391-184.145,6.635-242.733,6.636h-1.458c-58.589,0-123.693-2.245-242.734-6.636-6.462-.238-40.792,2.18-61.829-14.179C516.639,1391.821,390.9,1091.522,479.927,1032.148Z" transform="translate(-449.143 -836.901)" fill="#eb9e94"/>
        <g id="Group_237" data-name="Group 237" transform="translate(164.782 559.257)">
          <path id="Path_3920" data-name="Path 3920" d="M683.169,1578.263H665.664a6.842,6.842,0,0,1-6.822-6.823l-44.917-168.46a6.842,6.842,0,0,1,6.823-6.822h40.267a6.842,6.842,0,0,1,6.823,6.822l22.153,168.46A6.842,6.842,0,0,1,683.169,1578.263Z" transform="translate(-140.21 -1396.158)" fill="#512618"/>
          <path id="Path_3921" data-name="Path 3921" d="M764.159,1529.458H753.987a3.976,3.976,0,0,1-3.965-3.965l-26.1-97.892a3.976,3.976,0,0,1,3.965-3.964h23.4a3.976,3.976,0,0,1,3.965,3.964l12.873,97.892A3.976,3.976,0,0,1,764.159,1529.458Z" transform="translate(-328.338 -1396.158)" fill="#512618"/>
          <path id="Path_3922" data-name="Path 3922" d="M1094.463,1578.263h17.5a6.843,6.843,0,0,0,6.823-6.823l44.916-168.46a6.842,6.842,0,0,0-6.822-6.822h-40.268a6.842,6.842,0,0,0-6.822,6.822l-22.154,168.46A6.843,6.843,0,0,0,1094.463,1578.263Z" transform="translate(-1087.64 -1396.158)" fill="#512618"/>
          <path id="Path_3923" data-name="Path 3923" d="M1013.473,1529.458h10.172a3.976,3.976,0,0,0,3.964-3.965l26.1-97.892a3.976,3.976,0,0,0-3.964-3.964h-23.4a3.976,3.976,0,0,0-3.964,3.964l-12.874,97.892A3.976,3.976,0,0,0,1013.473,1529.458Z" transform="translate(-899.512 -1396.158)" fill="#512618"/>
        </g>
        <path id="Path_3924" data-name="Path 3924" d="M463.7,1052.342a109.815,109.815,0,0,1,14.09-6.3c16.075-5.869,32.323-4.082,38.127-3.43,0,0,27.355,3.112,52.831,25.615,74.119,65.47,32.723,248.473,79.947,261.184,50.33,13.547,144.761,12.781,238.344,12.44v-.013l1.775.007,1.775-.007v.013c93.582.341,188.014,1.107,238.344-12.44,47.224-12.711,5.827-195.714,79.946-261.184,25.476-22.5,52.831-25.615,52.831-25.615,5.805-.652,22.053-2.439,38.128,3.43a109.877,109.877,0,0,1,14.089,6.3c52.161,87.032-59.291,345.35-120.867,393.234-21.038,16.359-55.37,13.9-61.829,14.179-102.322,4.359-170.328,7.576-240.642,7.789v.011l-1.775-.005-1.775.005v-.011c-70.315-.213-138.321-3.43-240.642-7.789-6.46-.276-40.792,2.18-61.829-14.179C522.994,1397.692,411.542,1139.374,463.7,1052.342Z" transform="translate(-449.143 -836.901)" fill="#ffbcb0"/>
        <path id="Path_3925" data-name="Path 3925" d="M577.515,1000.22c6.012-17.655-.7-77.986,6.463-105.622,4.2-16.216,13.727-31.154,73.79-40.994,72.28-11.843,151.013-17.093,230.923-16.681,79.91-.412,158.643,4.838,230.923,16.681,60.062,9.84,69.586,24.778,73.79,40.994,7.166,27.636.451,87.967,6.463,105.622,1.2,3.533,4.152,5.058,8.673,5.841a116.316,116.316,0,0,0-57.2,17.82c-56.91,36.225-58.3,175.3-58.716,175.232-.016,0,.033-.207.016-.318-.273-1.809-406.816-1.809-407.09,0-.017.111.033.315.017.318-.414.068-1.806-139.007-58.716-175.232a116.266,116.266,0,0,0-57.883-17.842C573.416,1005.249,576.323,1003.72,577.515,1000.22Z" transform="translate(-449.018 -836.901)" fill="#eb9e94"/>
        <path id="Path_3926" data-name="Path 3926" d="M888.815,1338.2c88.825,0,202.812-1.957,231.727-7.473,2.6-.495,11.556-2.948,17.811-13.717,6.656-11.456,32.1-85.027,15.649-112.447-17.181-28.627-57.369-36.582-79.793-38.776-32.051-3.136-103.091-5.084-185.394-5.084s-153.343,1.948-185.395,5.084c-22.424,2.194-62.611,10.149-79.792,38.775-16.455,27.421,8.993,100.992,15.649,112.448,6.254,10.769,15.213,13.222,17.81,13.717C686,1336.243,799.988,1338.2,888.815,1338.2Z" transform="translate(-449.142 -836.901)" fill="#eb9e94"/>
        <path id="Path_3927" data-name="Path 3927" d="M631,1208.984c15.112-25.178,52.079-32.573,73.262-34.645,68.727-6.724,300.388-6.724,369.115,0,21.184,2.072,58.15,9.467,73.262,34.645,13.843,23.065-9.129,92.379-15.711,103.711-4.209,7.247-9.79,9.172-11.99,9.592-51.171,9.762-409.066,9.762-460.237,0-2.2-.42-7.781-2.345-11.99-9.592C640.125,1301.363,617.153,1232.049,631,1208.984Z" transform="translate(-449.143 -836.901)" fill="#ffbcb0"/>
      </g>
      <g id="Group_241" data-name="Group 241" transform="translate(556.312 212.605)">
        <path id="Path_3928" data-name="Path 3928" d="M735.773,1140.544c5.353-21.747,41.612-50.789,71.989-55.851,29.825-4.972,45.271-.688,70.879,2.057,90.093,9.651,177.318,94.517,272.236,97.319,1.591.047,4.222-.347,7.221.872,10.727,4.358,15.867,31.368,10.887,35.772a4.541,4.541,0,0,1-3.063,1.1c-128.479-14.826-251.916,9.861-364.332-5.162-32.341-4.322-41.442-12.835-50.628-20.412C735.5,1183.484,731.109,1159.492,735.773,1140.544Z" transform="translate(-611.486 -533.938)" fill="#ec7d40"/>
        <g id="Group_240" data-name="Group 240" transform="translate(206.075 584.846)">
          <g id="Group_239" data-name="Group 239">
            <path id="Path_3929" data-name="Path 3929" d="M1087.342,1140.273a89.525,89.525,0,0,0-19.119-11.321,119.269,119.269,0,0,0-43.112-10.084,88.67,88.67,0,0,0-22.158,1.689c7.256,1.755,14.36,3.08,21.4,4.556,7.042,1.443,14.014,2.952,20.962,4.567q10.416,2.446,20.819,5.185C1073.1,1136.667,1080.065,1138.621,1087.342,1140.273Z" transform="translate(-1002.953 -1118.784)"/>
          </g>
        </g>
        <path id="Path_3930" data-name="Path 3930" d="M668.246,1390.06c32.663-71.434,68.366-228.422,81.149-256.082,12.4-26.834,19.94-35.385,25.314-40.5,16.306-15.53,34.879-20.588,55.691-25.314,52.88-12.01,82.57-10.509,149.04-20.251a490.187,490.187,0,0,1,86.067-5.063c23.379.682,31.03,6.745,37.972,11.709,29.539,21.131,18.376,72.2,15.188,81.953-2.539,7.77-12.86,33.171-40.5,44.456-10.981,4.482-27.57,7.1-60.754,4.115-23.615-2.126-36.849-3.5-57.908-5.063-18.924-1.409-95.5-7.494-113.6,13.131-9.223,10.507-9.177,26.914-10.126,39.554-5.1,67.953-58.442,121.174-99.227,174.549C712.262,1405.53,688.139,1400.9,668.246,1390.06Z" transform="translate(-498.224 -533.938)" fill="#312553"/>
        <path id="Path_3931" data-name="Path 3931" d="M982.48,1221.71c28.725,0,57.4-1.146,87.769-2.36,30.47-1.218,61.976-2.477,93.623-2.477l4.23.007.181-.806a160.548,160.548,0,0,0,2.87-49.788l-.058-.636-.6-.229c-24.028-9.264-48.066-21.483-71.313-33.3-41.447-21.067-84.3-42.853-126.964-47.422-5.227-.561-10.006-1.182-14.628-1.783-10.59-1.378-19.737-2.567-30.416-2.567a157.6,157.6,0,0,0-26.114,2.3c-29.839,4.974-67.269,34.077-72.817,56.62-4.329,17.582-1.314,42.835,15.532,56.731l1.134.938c8.77,7.273,18.71,15.517,50.012,19.7C920.82,1220.1,948.642,1221.71,982.48,1221.71Z" transform="translate(-704.957 -533.938)" fill="#3a4a1d"/>
        <path id="Path_3932" data-name="Path 3932" d="M676.709,1479.045c4.889-12.475,30.9-24.462,61.315-87.063.074-.183.133-.368.218-.552,32.831-70.782,68.909-229.616,81.774-257.452,12.4-26.834,19.94-35.385,25.314-40.5,16.306-15.53,34.879-20.588,55.691-25.314,52.88-12.01,82.57-10.509,149.04-20.251a490.185,490.185,0,0,1,86.067-5.063c23.379.682,31.03,6.745,37.972,11.709,29.539,21.131,18.376,72.2,15.188,81.953-2.539,7.77-12.86,33.171-40.5,44.456-10.981,4.482-27.57,7.1-60.754,4.115-23.615-2.126-36.849-3.5-57.908-5.063-18.924-1.409-95.5-7.494-113.6,13.131-9.223,10.507-9.177,26.914-10.126,39.554-7.258,96.688-112.18,163.55-139.635,243.47-8.1,23.585-18.374,29.487-27.155,36.74-20.877,17.246-56.854,23.142-67.735,9.676C663.64,1512.4,671.252,1492.969,676.709,1479.045Z" transform="translate(-568.845 -533.938)" fill="#f79556"/>
        <path id="Path_3933" data-name="Path 3933" d="M1284.5,1473.332c4.527.8,14.515,43.391,4.839,57.905-3.386,5.077-47.142,35.4-67.736,48.383a169.16,169.16,0,0,1-29.029,14.515c-6.75,2.589-25.286,11.422-57,9.676-11.272-.621-28.85-6.481-39.767-13.609-6.886-4.495-8.822-8.118-9.676-9.676-4.573-8.343,3.189-22.449,4.838-25.1,7.255-11.657,16.122-14.076,33.868-24.192,28.928-16.49,45.222-35.8,62.9-58.059,4.905-6.177,2.484-10.125,6.805-12.549,7.16-4.018,26.438,9.958,43.544,27.064,4.838,4.838,11.668,10.06,22.225,6.8C1276.581,1489.479,1279.151,1472.389,1284.5,1473.332Z" transform="translate(-1084.707 -533.938)" fill="#fff"/>
        <path id="Path_3934" data-name="Path 3934" d="M1286.249,1511.884c-7.813,5.023-15.812,9.672-23.816,14.34l-24.018,13.966-24.025,13.942c-8,4.654-15.977,9.36-24.015,13.888-1.987,1.127-4.017,2.319-5.961,3.352a30.078,30.078,0,0,1-2.9,1.433c-1,.437-2.035.841-3.075,1.235a106,106,0,0,1-12.922,3.815,104.873,104.873,0,0,1-26.844,2.729,82.718,82.718,0,0,1-26.488-5.213c-1.077-.371-2.116-.827-3.166-1.268s-2.077-.893-3.087-1.416c-2.027-1.025-4.007-2.189-5.979-3.374s-3.9-2.459-5.78-3.793a36.826,36.826,0,0,1-5.387-4.347,57.521,57.521,0,0,0,10.176,9.578q2.767,2.163,5.765,4.059c.995.64,2.046,1.235,3.083,1.781s2.077,1.133,3.154,1.623a79.107,79.107,0,0,0,27.413,7.282,102.056,102.056,0,0,0,42.19-5.671c1.131-.415,2.258-.839,3.389-1.32a36.375,36.375,0,0,0,3.35-1.6c2.157-1.124,4.14-2.252,6.19-3.4q12.078-7.016,23.95-14.253c7.875-4.914,15.782-9.773,23.537-14.877q11.685-7.575,23.113-15.551A278.01,278.01,0,0,0,1286.249,1511.884Z" transform="translate(-1081.618 -533.938)" fill="#eb9e94"/>
        <path id="Path_3935" data-name="Path 3935" d="M1200.23,1507.717a96.16,96.16,0,0,0-8.622-5.368l-8.39-4.761c-2.766-1.575-5.518-3.143-8.246-4.8a64.364,64.364,0,0,1-8.164-5.56,13.237,13.237,0,0,0,1.785,5.095,24.28,24.28,0,0,0,3.214,4.285,34.471,34.471,0,0,0,8.3,6.462,38.631,38.631,0,0,0,9.68,3.871A29.605,29.605,0,0,0,1200.23,1507.717Z" transform="translate(-1073.621 -533.938)" fill="#512618"/>
        <path id="Path_3936" data-name="Path 3936" d="M1210.552,1518.038a96.419,96.419,0,0,0-8.623-5.368l-8.389-4.761c-2.767-1.575-5.518-3.142-8.246-4.8a64.373,64.373,0,0,1-8.165-5.561,13.26,13.26,0,0,0,1.785,5.1,24.326,24.326,0,0,0,3.214,4.284,34.478,34.478,0,0,0,8.3,6.463,38.614,38.614,0,0,0,9.679,3.871A29.589,29.589,0,0,0,1210.552,1518.038Z" transform="translate(-1094.264 -533.938)" fill="#512618"/>
        <path id="Path_3937" data-name="Path 3937" d="M1220.874,1528.36a96.31,96.31,0,0,0-8.623-5.368l-8.389-4.761c-2.766-1.575-5.518-3.142-8.246-4.795a64.554,64.554,0,0,1-8.165-5.561,13.255,13.255,0,0,0,1.785,5.095,24.309,24.309,0,0,0,3.215,4.285,34.455,34.455,0,0,0,8.3,6.463,38.58,38.58,0,0,0,9.68,3.87A29.562,29.562,0,0,0,1220.874,1528.36Z" transform="translate(-1114.908 -533.938)" fill="#512618"/>
        <path id="Path_3938" data-name="Path 3938" d="M1231.195,1538.682a96.177,96.177,0,0,0-8.622-5.368l-8.39-4.761c-2.766-1.576-5.518-3.143-8.246-4.8a64.339,64.339,0,0,1-8.164-5.56,13.253,13.253,0,0,0,1.785,5.095,24.292,24.292,0,0,0,3.214,4.285,34.474,34.474,0,0,0,8.3,6.462,38.632,38.632,0,0,0,9.68,3.871A29.608,29.608,0,0,0,1231.195,1538.682Z" transform="translate(-1135.551 -533.938)" fill="#512618"/>
        <path id="Path_3939" data-name="Path 3939" d="M737.673,1407.877c7.1-9.287,14.732-18.767,22.117-27.935,35.929-44.6,73.082-90.727,77.318-147.162.108-1.438.2-2.924.3-4.445.763-11.931,1.628-25.455,9.573-34.508,8.447-9.623,32.224-14.709,68.762-14.709,18.231,0,34.976,1.252,43.025,1.854l.964.071c15.166,1.129,26.183,2.147,40.131,3.437,5.374.5,11.162,1.031,17.761,1.625,9.437.85,18,1.281,25.452,1.281,15.274,0,26.644-1.737,35.783-5.468,28.227-11.523,38.588-37.425,41.092-45.089a123.942,123.942,0,0,0,4.729-37.06c-.638-21.084-7.657-37.006-20.3-46.049l-.715-.512c-7-5.025-14.933-10.721-37.824-11.389-4.663-.135-9.414-.2-14.125-.2a486.421,486.421,0,0,0-71.839,5.237l-.282.041c-26.747,3.92-47.752,6.04-66.283,7.912-27.468,2.772-51.191,5.167-82.837,12.353-21.066,4.785-39.834,10.012-56.172,25.574-5.894,5.611-13.537,14.849-25.539,40.814-4.98,10.774-13.23,40.382-23.676,77.866-16.7,59.919-37.48,134.491-57.474,178.22l-.4.872.841.459c17.654,9.623,40.133,15.288,68.723,17.315l.553.04Z" transform="translate(-498.53 -533.938)" fill="#516123"/>
        <path id="Path_3940" data-name="Path 3940" d="M652.767,1150.67c6.921.037,8.407,3.73,20.251,5.063,4.116.462,2.585.446,6.011,0,5.343-.7,9.869-7.044,21.8-7.9,28.8-2.057,58.024,43.339,58.256,53.462.377,16.486-13.335,22.936-25.314,25.314-16.185,3.211-29.317.949-35.44,0-46.013-7.127-70.331,2.069-75.942-10.126-2.46-5.349.415-11.035-5.063-20.251-2.759-4.642-5.533-6.638-5.063-10.126.542-4.017,4.677-4.763,10.126-10.125,6.516-6.413,4.531-9.214,10.125-15.189C633.813,1159.411,642.048,1150.613,652.767,1150.67Z" transform="translate(-77.888 -533.938)" fill="#fff"/>
        <path id="Path_3941" data-name="Path 3941" d="M637.534,1165.858c3.4.862,6.8,1.574,10.021,2.655a43.138,43.138,0,0,1,9.114,4.041,110.754,110.754,0,0,1,16.208,12.066,124.5,124.5,0,0,1,13.837,14.807c2.106,2.668,4.162,5.4,6.062,8.259,1.959,2.828,3.765,5.758,5.511,8.8a51.2,51.2,0,0,0-3.343-10c-.7-1.62-1.528-3.178-2.321-4.762-.863-1.54-1.724-3.09-2.693-4.571a76.943,76.943,0,0,0-13.677-16.283,72.289,72.289,0,0,0-17.756-11.787,36.027,36.027,0,0,0-10.4-2.975A54.05,54.05,0,0,0,637.534,1165.858Z" transform="translate(-42.404 -533.938)" fill="#eb9e94"/>
        <path id="Path_3942" data-name="Path 3942" d="M685.942,1195.154a23.094,23.094,0,0,0,1.133,8.683,30.89,30.89,0,0,0,3.84,7.866,30.434,30.434,0,0,0,5.9,6.473,22.728,22.728,0,0,0,7.667,4.237c-1.577-2.532-3.218-4.742-4.786-6.966-1.583-2.2-3.1-4.386-4.6-6.579s-2.953-4.421-4.429-6.7S687.715,1197.551,685.942,1195.154Z" transform="translate(-96.945 -533.938)" fill="#512618"/>
        <path id="Path_3943" data-name="Path 3943" d="M697.257,1195.154a23.1,23.1,0,0,0,1.133,8.683,30.857,30.857,0,0,0,3.84,7.866,30.434,30.434,0,0,0,5.9,6.473,22.728,22.728,0,0,0,7.667,4.237c-1.577-2.532-3.218-4.742-4.786-6.966-1.583-2.2-3.1-4.386-4.6-6.579s-2.953-4.421-4.429-6.7S699.03,1197.551,697.257,1195.154Z" transform="translate(-119.575 -533.938)" fill="#512618"/>
        <path id="Path_3944" data-name="Path 3944" d="M708.572,1195.154a23.1,23.1,0,0,0,1.133,8.683,30.857,30.857,0,0,0,3.84,7.866,30.434,30.434,0,0,0,5.9,6.473,22.728,22.728,0,0,0,7.667,4.237c-1.577-2.532-3.218-4.742-4.786-6.966-1.583-2.2-3.1-4.386-4.6-6.579s-2.954-4.421-4.43-6.7S710.345,1197.551,708.572,1195.154Z" transform="translate(-142.205 -533.938)" fill="#512618"/>
        <path id="Path_3945" data-name="Path 3945" d="M719.887,1195.154a23.1,23.1,0,0,0,1.133,8.683,30.857,30.857,0,0,0,3.84,7.866,30.433,30.433,0,0,0,5.9,6.473,22.727,22.727,0,0,0,7.667,4.237c-1.577-2.532-3.218-4.742-4.786-6.966-1.583-2.2-3.1-4.386-4.6-6.579s-2.954-4.421-4.43-6.7S721.66,1197.551,719.887,1195.154Z" transform="translate(-164.835 -533.938)" fill="#512618"/>
        <path id="Path_3946" data-name="Path 3946" d="M974.956,844.242c3.4-29.636-.508-64.413-16.787-63.383-3.63.229-30.009,13.371-44.3,86.371-13.277,67.814-17.081,93.952,3.106,112.2,16.509,14.925,43.44,19.1,59.361,6.258C1000.942,965.834,966.293,919.647,974.956,844.242Z" transform="translate(-594.78 -533.938)" fill="#ffbcb0"/>
        <path id="Path_3947" data-name="Path 3947" d="M903.021,894.523c7.676-33.739,31.374-85.892,8.229-128.58-9.366-17.277-29.918-22.123-61.718-19.544-19.03,1.542-32.4-8.744-55.546-10.287-22.1-1.473-38.142,4.019-79.206,22.63-74.581,33.8-11.824,35.8-44.231,108.007-26.2,58.384,74.576,90.006,37.031,169.726-14.215,30.182,31.972,21.583,89.75,25.973,84.6,6.429,115.463,38.317,142.208,15.687,12.631-10.688-1.762-46.741-16.427-79.369C909.41,968.282,892.339,941.474,903.021,894.523Z" transform="translate(-317.111 -533.938)" fill="#fccc44"/>
        <path id="Path_3948" data-name="Path 3948" d="M942.833,714.24c4.887,14.913,10.334,32.332,3.07,49.13-.566,1.309-6.518,11.108-18.423,30.706-7.259,11.949-10.482,17.181-9.98,24.565.645,9.483,6.652,10.991,6.909,19.191.474,15.118-19.32,29.676-23.8,26.868-3.086-1.935,3.9-10.374,0-20.726-4.066-10.8-15.151-10.874-24.565-21.495-1.138-1.284-11.033-13.666-10.747-29.938.043-2.466.376-8.161,9.979-27.636,11.782-23.894,16.77-26.454,19.192-37.615,3.123-14.4-1.767-25.853-4.606-34.544-3.783-11.581-14.921-18.028-13.7-30.208,3.248-32.392,12.183-70.4,19.84-71.891C901.955,589.491,915.581,631.074,942.833,714.24Z" transform="translate(-521.305 -533.938)" fill="#512618"/>
        <path id="Path_3949" data-name="Path 3949" d="M811.766,704.949c2.121,14.576,5.657,33,17.222,50.976,3.341,5.194,5.851,8.016,9.644,9.644,12.043,5.169,29.933-4.742,37.888-17.91,5.36-8.873,5.327-17.765,4.822-28.932-2.174-48.072-15.206-72.108-26.411-78.531-16.83-9.648-35.347.8-45.231,19.977C806.231,666.9,808.076,679.585,811.766,704.949Z" transform="translate(-395.995 -533.938)" fill="#ec7d40"/>
        <path id="Path_3950" data-name="Path 3950" d="M920.578,623.247c5.588-12.623,19.615-46.02-14.334-69.407-20.478-14.107-46.948-15.63-67.9-6.79-25.631,10.817-36.018,33.373-38.475,39.23-7.409,17.663-8.2,39.625-3.018,51.3.765,1.723,3.241,5.32,3.018,10.562-1.509,35.458,23.97,74.09,27.159,77.705,4.158,4.713,10.821,5.115,13.58,5.281,16.123.972,46.792-15.133,56.581-38.475,5.958-14.205-.923-16.594,5.281-34.7C908.413,640.61,911.137,644.577,920.578,623.247Z" transform="translate(-428.352 -533.938)" fill="#f79556"/>
        <path id="Path_3951" data-name="Path 3951" d="M824.586,634.4c7.406,24.166,16.29,22.262,24.734,37.615,9.672,17.584,1.749,32.928,8.276,52.2,4.351,12.848,16.12,28.4,36.847,29.939,23.538,1.744,45.958-21.02,57.574-11.515,2.8,2.288,5.051,6.68,6.142,6.141,1.226-.6.321-7.14-2.3-11.514-9.212-15.354-15.354-11.515-25.333-19.96-13.2-11.17-16.707-22.969-17.656-27.635-3.186-15.655,3.838-20.727-.768-36.848-4.241-14.842-17.009-17.477-17.656-39.15-1.535-51.433-37.615-87.513-95.957-78.3-19.332,3.053-27.812,10.161-37.615,18.424-16.779,14.142-21.7,46.04-22.262,58.342-1.535,33.776-11.515,31.473-9.979,50.665,1.588,19.854,20.293,33.821,20.726,53.736.768,35.312-35.312,33.777-36.847,70.624-1.855,44.512,36.847,44.524,37.615,69.857.346,11.426-8.065,20.192-5.374,22.262,2.173,1.67,20.727-11.515,21.495-24.565,1.337-22.74-38.114-30.939-37.615-59.877.767-44.524,49.143-55.481,12.122-122.061-13.658-24.562,5.272-26.2,3.344-43.822-3.184-29.1,16.007-29.869,20.613-51.364,1.375-6.413,4.709-15.821,4.33-5.412C767.78,606.768,810,586.809,824.586,634.4Z" transform="translate(-377.727 -533.938)" fill="#512618"/>
        <path id="Path_3952" data-name="Path 3952" d="M870.261,717.829a72.219,72.219,0,0,1-5.408-5.92,52.717,52.717,0,0,1-4.59-6.429,45.089,45.089,0,0,1-5.829-14.189c-.253-1.208-.4-2.487-.587-3.729-.095-1.253-.236-2.5-.217-3.739a44.06,44.06,0,0,1,.585-7.489c.4-2.547.909-5.248,1.171-8.137a37.382,37.382,0,0,0-.162-8.837c-.065-.745-.239-1.453-.36-2.181s-.258-1.453-.452-2.15l-.536-2.117c-.2-.711-.47-1.44-.707-2.16a35.27,35.27,0,0,0-4.1-8.064c-1.639-2.444-3.382-4.639-4.99-6.689a45.194,45.194,0,0,1-4.123-6.05,31.555,31.555,0,0,1-3.818-13.342l-.162-1.842-.162-2.092c-.109-1.394-.2-2.79-.395-4.18-.294-2.788-.76-5.559-1.255-8.326a96.643,96.643,0,0,0-4.735-16.235,84.009,84.009,0,0,0-7.8-15.106A72.077,72.077,0,0,0,797.046,545.6a73.838,73.838,0,0,0-31.937-9.379,93.7,93.7,0,0,0-16.409.445c-2.7.4-5.384.744-8.031,1.33-2.655.517-5.263,1.242-7.855,1.949,2.7-.137,5.354-.442,8.035-.454,2.664-.155,5.332-.091,7.979-.068a101.181,101.181,0,0,1,15.677,1.648,75.248,75.248,0,0,1,28.453,11.2,69,69,0,0,1,20.7,21.621,78.246,78.246,0,0,1,6.595,13.573A88.881,88.881,0,0,1,824.4,602.09c.463,2.5.908,5.016,1.194,7.558.189,1.263.279,2.541.388,3.817l.164,1.913.22,2.159.239,2.193c.121.734.27,1.47.406,2.205.157.735.243,1.47.464,2.2l.613,2.193a20.13,20.13,0,0,0,.741,2.167c.284.712.516,1.444.849,2.136l1,2.071c.333.693.756,1.323,1.133,1.985a54.644,54.644,0,0,0,5.165,7.045c1.766,2.111,3.474,4.024,4.916,5.967a27.828,27.828,0,0,1,3.505,6.043c.214.541.455,1.054.656,1.619l.566,1.748c.208.583.343,1.169.491,1.754s.33,1.173.414,1.761a32.5,32.5,0,0,1,.673,7.181c-.022,2.466-.3,5.071-.464,7.853a46.837,46.837,0,0,0,.165,8.556c.138,1.436.444,2.84.71,4.241.37,1.377.651,2.749,1.135,4.12C853.517,703.4,861.238,712.012,870.261,717.829Z" transform="translate(-309.658 -533.938)" fill="#512618"/>
        <path id="Path_3953" data-name="Path 3953" d="M856.241,1051.01l207,13.932c2.727.19,3.668,5.532,1.417,7.083L994.2,1110.95a13.782,13.782,0,0,1-9.621,2.315L771.79,1085.21a2.89,2.89,0,0,1-.646-5.567l79.252-27.772A13.782,13.782,0,0,1,856.241,1051.01Z" transform="translate(-541.78 -533.938)" fill="#512618"/>
        <path id="Path_3954" data-name="Path 3954" d="M857.106,1049.081,1062.178,1063a2.89,2.89,0,0,1,1.438,5.262l-68.522,37.007a13.783,13.783,0,0,1-9.621,2.315l-212.8-26.126a2.89,2.89,0,0,1-.646-5.567l79.231-25.951A13.784,13.784,0,0,1,857.106,1049.081Z" transform="translate(-541.616 -533.938)" fill="#fff"/>
        <path id="Path_3955" data-name="Path 3955" d="M864.986,1015.22c4.831-14.725-48.367-34.936-60.46-30.375-8.441,3.183-27.109,23.445-42.717,32.285-56.406,31.944-69.717,15.744-75.1,41.022-5.013,23.556,16.524,27.816,94.924,7.607C792.515,1062.955,858.742,1034.253,864.986,1015.22Z" transform="translate(-257.905 -533.938)" fill="#f79556"/>
        <path id="Path_3956" data-name="Path 3956" d="M645.422,847.205c6.536-33.889,18.579-105.628,44.746-87.948C709.2,772.114,756,861.092,745.2,918.181c-.621,11.448-3.416,23.757,3.086,38.06,2.571,5.657,8.444,13.963,9.257,23.659,1.009,12.029-4.63,21.43-10.286,30.859-7.676,12.8-15.747,26.252-30.859,29.83-15.577,3.688-31.2-.764-30.859-3.086.28-1.9,11.233-3.718,13.372-8.229,2.053-4.329-6.543-9.587-16.458-24.687-9.379-14.284-12.318-16.433-17.487-21.6-9.772-9.772-23.659-1.028-26.745-1.028-3.793,0-.527-9.831,0-11.315,3.249-9.145,13.218-8.447,17.487-16.458,1.132-2.125,2.367-5.807-1.028-19.544-3.876-15.682-4.65-32.383-7.2-39.089C642.657,882.873,640.836,870.984,645.422,847.205Z" transform="translate(-100.656 -533.938)" fill="#fccc44"/>
        <path id="Path_3957" data-name="Path 3957" d="M734.25,1028.246c-.482-4.464-1.188-8.835-1.9-13.226q-.552-3.288-1.221-6.558l-.333-1.634c-.1-.537-.229-1.081-.4-1.7a17.929,17.929,0,0,0-.526-1.773c-.2-.578-.386-1.166-.63-1.713a50.664,50.664,0,0,0-7.318-11.981,95.763,95.763,0,0,0-9.309-10.011,124.189,124.189,0,0,0-10.391-8.7c-1.822-1.334-3.65-2.662-5.562-3.89a61.262,61.262,0,0,0-6-3.531l-.878-.417a9.43,9.43,0,0,0-.966-.381c-.589-.2-1.177-.387-1.763-.539a31.313,31.313,0,0,0-3.495-.743,55.521,55.521,0,0,0-6.85-.6,110.547,110.547,0,0,0-13.433.533c4.324,1.229,8.694,2.079,12.926,3.181,2.116.525,4.2,1.091,6.181,1.754.984.348,1.955.687,2.865,1.1.462.2.9.414,1.332.637a6.052,6.052,0,0,1,.541.3l.578.371c3.325,2.315,6.771,5.116,10.051,7.873,3.307,2.778,6.553,5.632,9.7,8.566s6.184,5.953,9.035,9.086a60.014,60.014,0,0,1,7.488,9.906,22.173,22.173,0,0,1,1.338,2.644c.2.42.385.934.585,1.459l.594,1.545,2.409,6.182C730.559,1020.1,732.232,1024.238,734.25,1028.246Z" transform="translate(-104.107 -533.938)" fill="#ea9a26"/>
        <path id="Path_3958" data-name="Path 3958" d="M850.563,905.417l226.927,13.708a13.768,13.768,0,0,1,12.595,10.689l38.846,170.752c1.046,4.6-2.822,12.7-7.5,12.107L897.091,1084.7c-5.437-.689-9.926-8.4-11.462-13.656L839.772,914.082C838.453,909.568,845.868,905.133,850.563,905.417Z" transform="translate(-675.305 -533.938)" fill="#512618"/>
        <path id="Path_3959" data-name="Path 3959" d="M850.707,909.253l226.927,13.708a13.769,13.769,0,0,1,12.595,10.689l38.846,170.753a6.794,6.794,0,0,1-7.48,8.247L901.116,1084.7a13.766,13.766,0,0,1-11.484-9.8L843.775,917.941A6.8,6.8,0,0,1,850.707,909.253Z" transform="translate(-679.33 -533.938)" fill="#fff"/>
        <path id="Path_3960" data-name="Path 3960" d="M726.9,982.039a19.706,19.706,0,0,1,1.445-6.452,18.848,18.848,0,0,1,2.9-5.716c2.6-3.324,6.471-5.275,10.311-7.879a23.612,23.612,0,0,0,5.362-4.936,17.17,17.17,0,0,0,1.081-1.582l.46-.769c.158-.269.328-.6.481-.932a11.055,11.055,0,0,0,.866-4.166,37.686,37.686,0,0,0-.607-7.159c-.357-2.284-.821-4.512-1.28-6.731l-2.769-13.059c-.9-4.346-1.748-8.7-2.5-13.054-1.581-8.7-2.943-17.426-3.638-26.146-.4-4.353-.606-8.7-.588-13.011a73.826,73.826,0,0,1,1.027-12.692c1.483-8.794,3.179-17.515,4.85-26.243,1.767-8.7,3.613-17.39,5.9-25.964a150.372,150.372,0,0,1,8.628-25.215c-5.25,7.322-8.877,15.7-12.157,24.082a268.119,268.119,0,0,0-8.111,25.762c-2.378,8.677-4.236,17.47-6.134,26.221-1.923,9.327-1.68,18.64-.954,27.713a248.387,248.387,0,0,0,4.147,26.865c1.927,8.811,4.056,17.568,6.558,26.162.589,2.123,1.177,4.238,1.652,6.345a41.326,41.326,0,0,1,1.011,6.124,6.569,6.569,0,0,1-.21,2.4,6,6,0,0,1-.234.583l-.337.7a12.876,12.876,0,0,1-.7,1.256,20.24,20.24,0,0,1-4.08,4.5c-1.61,1.418-3.415,2.767-5.154,4.3a21.6,21.6,0,0,0-4.612,5.353,20.362,20.362,0,0,0-2.256,6.582A18.845,18.845,0,0,0,726.9,982.039Z" transform="translate(-192.112 -533.938)" fill="#ea9a26"/>
        <path id="Path_3961" data-name="Path 3961" d="M970.862,551.743a45.366,45.366,0,0,0-7.87,7.2,66.657,66.657,0,0,0-6.329,8.706c-.918,1.542-1.82,3.1-2.66,4.693-.776,1.616-1.65,3.2-2.349,4.855-.734,1.641-1.473,3.285-2.113,4.965-.69,1.664-1.3,3.356-1.9,5.054-.631,1.689-1.11,3.423-1.668,5.139-.478,1.735-1.011,3.46-1.429,5.218a96.3,96.3,0,0,0-2.144,10.715,106.909,106.909,0,0,1-4.33,19.965,63.326,63.326,0,0,1-3.921,9.21l-1.193,2.369c-.4.847-.817,1.626-1.2,2.532-.39.888-.789,1.763-1.116,2.729l-.509,1.42-.408,1.473a25.007,25.007,0,0,0-.65,2.973,26.005,26.005,0,0,0-.387,2.968l-.139,1.48-.032,1.446c.007.974-.088,1.91.009,2.917l.208,2.987c.079.994.3,1.952.45,2.931l.254,1.461c.109.477.239.944.358,1.416.253.937.475,1.9.76,2.814a82.639,82.639,0,0,0,4.2,10.441c1.579,3.273,3.211,6.448,4.745,9.541a95.491,95.491,0,0,1,4.073,9.169c.323.759.507,1.518.761,2.275a20.042,20.042,0,0,1,.643,2.271l.52,2.267.291,2.26a14.833,14.833,0,0,1,.147,2.25,20.27,20.27,0,0,1,.018,2.278L945.8,716.5l-.3,2.322a33.348,33.348,0,0,1-2.679,8.777,36.578,36.578,0,0,1-5.006,7.867,79,79,0,0,1-6.894,7.164c-4.97,4.705-10.7,9.323-15.445,15.436a42.761,42.761,0,0,0-5.915,10.118,40.592,40.592,0,0,0-2.723,11.4c-.063.956-.168,1.937-.188,2.87l-.024,2.783c-.026.925.028,1.858.076,2.789s.065,1.859.165,2.791a57.291,57.291,0,0,0,2.025,11.062,47.119,47.119,0,0,0,4.369,10.39,54.332,54.332,0,0,0,6.5,9.019c4.889,5.489,10.5,9.9,15.466,14.726a36.14,36.14,0,0,1,6.389,8.041,23.394,23.394,0,0,1,2.838,9.953,23.127,23.127,0,0,0-1.475-10.592,37.81,37.81,0,0,0-5.705-9.252c-2.258-2.815-4.73-5.387-7.081-7.992a96.455,96.455,0,0,1-6.635-7.962,45.9,45.9,0,0,1-8.334-17.962,54.592,54.592,0,0,1-1.148-9.842c-.042-.828.007-1.669.005-2.5s.007-1.665.084-2.5l.164-2.509c.059-.829.191-1.6.28-2.4a32.911,32.911,0,0,1,7.7-16.917c4.146-4.913,9.544-9.16,14.977-13.968a80.231,80.231,0,0,0,7.931-7.941,46.4,46.4,0,0,0,6.487-9.853,42.792,42.792,0,0,0,3.562-11.387l.4-2.927c.084-.973.137-1.945.2-2.918a29.662,29.662,0,0,0,0-3.013,21.268,21.268,0,0,0-.191-3.027l-.412-2.989-.671-2.892a27.537,27.537,0,0,0-.813-2.816c-.308-.915-.566-1.871-.935-2.738l-1.045-2.654c-.367-.865-.759-1.7-1.139-2.556-.756-1.711-1.585-3.314-2.4-4.939-1.657-3.205-3.3-6.283-4.844-9.344a83.534,83.534,0,0,1-3.9-9.112c-.259-.759-.449-1.52-.681-2.28l-.33-1.141-.224-1.143c-.132-.762-.347-1.524-.423-2.287l-.223-2.291a34,34,0,0,1,.572-9.239,47.157,47.157,0,0,1,3.464-9.082,71.643,71.643,0,0,0,3.849-10.47l.388-1.345.32-1.354.622-2.707c.306-1.81.679-3.616.923-5.421.218-1.8.505-3.61.662-5.41l.445-5.381a98.585,98.585,0,0,1,1.28-10.176c.26-1.708.637-3.4.958-5.1.393-1.683.742-3.384,1.18-5.06a109.107,109.107,0,0,1,6.779-19.658,66.116,66.116,0,0,1,5.1-9.094A48.849,48.849,0,0,1,970.862,551.743Z" transform="translate(-584.061 -533.938)" fill="#512618"/>
        <path id="Path_3962" data-name="Path 3962" d="M899.178,700.276a.934.934,0,0,0-.747-1.409,119.539,119.539,0,0,0-18.584.359,74.5,74.5,0,0,0-13.21,2.707.937.937,0,0,0-.532,1.372,16.828,16.828,0,0,0,16.766,8.68C891.966,710.975,897.346,703.369,899.178,700.276Z" transform="translate(-471.869 -533.938)" fill="#d65b5b"/>
        <path id="Path_3963" data-name="Path 3963" d="M939.05,636a12.417,12.417,0,0,0-2.963-4.306,16.95,16.95,0,0,0-4.219-3.047c-3.138-1.658-6.9-1.664-10.325-1.315a21.606,21.606,0,0,0-2.571.374l-1.264.262c-.44.115-.9.264-1.34.4a15.186,15.186,0,0,0-4.532,2.77,42.414,42.414,0,0,0-6.107,7.532l.4.447c1.348-.961,2.474-2.054,3.69-3.016a23.584,23.584,0,0,1,3.744-2.518,11.652,11.652,0,0,1,3.88-1.384l.962-.108,1.075-.031a16.827,16.827,0,0,1,4.216.381c.681.206,1.359.352,2.015.608,1.324.425,2.619.858,3.994,1.175l4.241,1.09c1.47.391,2.987.79,4.718,1.14Z" transform="translate(-551.362 -533.938)" fill="#512618"/>
        <path id="Path_3964" data-name="Path 3964" d="M882.012,625.711a35.4,35.4,0,0,0-10.843-5.3,31.9,31.9,0,0,0-12.5-1.08c-1.074.086-2.129.314-3.22.437-1.068.2-2.137.451-3.217.7a16,16,0,0,0-5.823,3.019,17.548,17.548,0,0,0-6.573,11.015l.626.456c3.984-1.818,7.062-3.534,10.187-4.995,1.546-.737,3-1.527,4.474-2.4.748-.4,1.5-.832,2.281-1.223a22.592,22.592,0,0,1,2.441-.928,26.794,26.794,0,0,1,5.206-1.015,29.724,29.724,0,0,1,5.463-.172,38.734,38.734,0,0,1,11.132,2.163Z" transform="translate(-428.428 -533.938)" fill="#512618"/>
        <path id="Path_3965" data-name="Path 3965" d="M874.007,645.69c-.044,1.024-3.244,3.963-12.453,3.572-4.093-.174-8.143-1.371-8.056-3.417.083-1.957,2.858-5.442,6.4-5.879C866.081,639.2,874.094,643.644,874.007,645.69Z" transform="translate(-434.087 -533.938)" fill="#e6e6e6"/>
        <path id="Path_3966" data-name="Path 3966" d="M870,643.086c-2.106-5.411-11.755-3.582-9.856,3.734S873.382,651.775,870,643.086Z" transform="translate(-437.107 -533.938)" fill="#512618"/>
        <path id="Path_3967" data-name="Path 3967" d="M844.727,647.355a12.064,12.064,0,0,1,3.221-2.412,8.278,8.278,0,0,1,3.254-.763,34.442,34.442,0,0,1,7.255.819,59.847,59.847,0,0,0,8.253,1.125,16.322,16.322,0,0,0,4.574-.387,7.084,7.084,0,0,0,2.251-.973,3.734,3.734,0,0,0,1.459-1.87,4.494,4.494,0,0,1-1.967.41,9.341,9.341,0,0,1-1.841-.306c-1.211-.312-2.436-.748-3.7-1.189a52.589,52.589,0,0,0-8.039-2.3,17.961,17.961,0,0,0-9.271.417,8.721,8.721,0,0,0-4.065,2.992A7.421,7.421,0,0,0,844.727,647.355Z" transform="translate(-426.303 -533.938)" fill="#512618"/>
        <path id="Path_3968" data-name="Path 3968" d="M921.374,650.357c-.039.919-2.5,3.578-9.54,3.279-3.128-.133-4.582-1.743-4.5-3.581.074-1.758.581-4.346,3.292-4.759C915.352,644.576,921.452,648.519,921.374,650.357Z" transform="translate(-535.286 -533.938)" fill="#e6e6e6"/>
        <path id="Path_3969" data-name="Path 3969" d="M921.117,648.375c-1.775-4.56-9.9-3.019-8.3,3.146S923.967,655.7,921.117,648.375Z" transform="translate(-540.832 -533.938)" fill="#512618"/>
        <path id="Path_3970" data-name="Path 3970" d="M903.008,650.752c1.045-.586,1.936-1.165,2.841-1.553a7.765,7.765,0,0,1,2.506-.669,12.722,12.722,0,0,1,4.878.869,39.774,39.774,0,0,0,6.146,1.707,9.5,9.5,0,0,0,3.729-.091,4.336,4.336,0,0,0,2.93-2.254,5.293,5.293,0,0,1-2.97-.192,17.633,17.633,0,0,1-2.517-1.2,33.579,33.579,0,0,0-5.8-2.712,13.226,13.226,0,0,0-3.656-.653,8.541,8.541,0,0,0-3.965.821,7.435,7.435,0,0,0-2.919,2.573A7.99,7.99,0,0,0,903.008,650.752Z" transform="translate(-535.629 -533.938)" fill="#512618"/>
        <path id="Path_3971" data-name="Path 3971" d="M1189.909,1497.4a96.05,96.05,0,0,0-8.623-5.368l-8.389-4.761c-2.766-1.575-5.518-3.142-8.246-4.8a64.5,64.5,0,0,1-8.165-5.561,13.255,13.255,0,0,0,1.785,5.095,24.309,24.309,0,0,0,3.215,4.285,34.46,34.46,0,0,0,8.3,6.463,38.623,38.623,0,0,0,9.68,3.87A29.563,29.563,0,0,0,1189.909,1497.4Z" transform="translate(-1052.978 -533.938)" fill="#512618"/>
      </g>
      <g id="Group_247" data-name="Group 247" transform="translate(115.092 361.597)">
        <g id="Group_244" data-name="Group 244" transform="translate(13.606)">
          <g id="Group_242" data-name="Group 242" transform="translate(90.524)">
            <path id="Path_3972" data-name="Path 3972" d="M1401.271,856.72l32.2-169.89a4.793,4.793,0,0,1,4.708-3.9H1593.51a4.791,4.791,0,0,1,4.708,3.9l32.2,169.89a4.793,4.793,0,0,1-4.709,5.685H1405.979A4.792,4.792,0,0,1,1401.271,856.72Z" transform="translate(-1401.186 -682.93)" fill="#fccc44"/>
            <path id="Path_3973" data-name="Path 3973" d="M1506.8,914.108c1.989-18.708-9.977-36.151-13.451-40.77a.741.741,0,0,1,.594-1.187h43.8a.741.741,0,0,1,.593,1.187c-3.473,4.619-15.44,22.062-13.451,40.77,4.014,37.763,35.679,71.253,35.679,101.836,0,14.233-7.572,36.469-9.982,44.1a3,3,0,0,1-2.861,2.094h-63.755a3,3,0,0,1-2.862-2.094c-2.41-7.63-9.981-29.866-9.981-44.1C1471.126,985.361,1502.79,951.871,1506.8,914.108Z" transform="translate(-1401.185 -682.93)" fill="#312553"/>
            <path id="Path_3974" data-name="Path 3974" d="M1429.053,995.677a17.311,17.311,0,0,1,12.674-8.923,20.929,20.929,0,0,1,9.632.37c-.085-3.362-.106-6.742-.055-10.121a.938.938,0,0,1,.938-.921h70.118a.938.938,0,0,1,.938.921c.54,35.776-6.961,71.778-13.321,84.133a1.838,1.838,0,0,1-1.635,1h-42.083a1.837,1.837,0,0,1-1.634-1,84.109,84.109,0,0,1-5.637-16.292c-8.844-3.2-23.736-12.513-30.437-28.159C1426.167,1011.121,1425.4,1002.466,1429.053,995.677Zm5.8,18.308c4.777,11.152,14.8,18.8,22.195,22.577a278.4,278.4,0,0,1-5.4-41.983,13.177,13.177,0,0,0-8.707-1.075,10.533,10.533,0,0,0-7.852,5.425C1432.534,1003.681,1433.176,1010.065,1434.855,1013.985Z" transform="translate(-1319.355 -682.93)" fill="#ffbcb0"/>
          </g>
          <g id="Group_243" data-name="Group 243" transform="translate(0 193.068)">
            <path id="Path_3975" data-name="Path 3975" d="M1673.881,959.436c11.335-16.921,2.793-46.918-24.347-60.731-6.389-3.252-15.005-9.454-17.878-18.055-.828-2.479-.087-4.7-.725-4.651-.8.055-1.031,5.391-1.094,6.839-.483,11.09,1.966,20.2,3.009,25.442,3.459,17.384-2.189,40.281,13.6,55.807C1657.8,975.258,1668.253,967.838,1673.881,959.436Z" transform="translate(-1587.503 -875.998)" fill="#346e00"/>
            <path id="Path_3976" data-name="Path 3976" d="M1613.138,891.485c-.6.057.732.827.122,2.779-.861,2.76-3.161,4.406-4.554,5.93-5,5.468-6.107,12.494-5.757,19.681.255,5.254,4.266,12.857,8.018,10.223,17.96-12.608,5.545-30.523,4.086-33.675C1613.278,892.587,1613.905,891.41,1613.138,891.485Z" transform="translate(-1502.447 -875.998)" fill="#346e00"/>
            <path id="Path_3977" data-name="Path 3977" d="M1576.756,987.081c-8.427-8.333,2.692-55.285,40.761-78.432,3.936-2.392,10.382-6.932,11.586-6,.605.466-3.533,1.22-2.284,5.2,13.73,43.746-32.209,43.746-34.579,71.714C1591.54,987.818,1581.5,991.77,1576.756,987.081Z" transform="translate(-1482.445 -875.998)" fill="#7ca417"/>
            <path id="Path_3978" data-name="Path 3978" d="M1636.32,913.115c2.511,2.331,10.232,1.426,17.449,4.586,6.743,2.952,9.64,9.663,12.623,19.3,5.121,16.56,19.71,41.862,40.156,42.042,33.074.293,3.146-37.288-26.42-57.614-12.764-8.776-30.331-8.939-38.219-9.041C1637.234,912.333,1635.154,912.032,1636.32,913.115Z" transform="translate(-1636.002 -875.998)" fill="#7ca417"/>
            <path id="Path_3979" data-name="Path 3979" d="M1637.774,876.273c-2.518-1.217.853,8.793-11.764,21.611-26.917,27.348-21.355,82.574,6.839,85.352,11.2,1.1,52.871-43.507,7.934-95.747C1635.476,881.32,1638.709,876.725,1637.774,876.273Z" transform="translate(-1548.66 -875.998)" fill="#7ca417"/>
            <path id="Path_3980" data-name="Path 3980" d="M1626.687,917.936c-.162-1.928-6.861,17.869-7.659,27.548-1.733,21.005.982,32.563,9.138,41.308,9.494,10.18,25.617,14.357,35.179,5.2,8.549-8.188,9.028-22.706,1.641-32.827-5.268-7.221-7.072-7.511-21.611-22.98C1634.389,926.622,1627.436,926.821,1626.687,917.936Z" transform="translate(-1567.666 -875.998)" fill="#9fbc50"/>
            <path id="Path_3981" data-name="Path 3981" d="M1599.386,983.48a5.111,5.111,0,0,1,5.091-4.679h71.738a5.111,5.111,0,0,1,5.091,4.679l3.19,35.954v5.152c0,19.582-15.874,37.249-35.456,37.249h-17.388c-19.582,0-35.456-17.667-35.456-37.249v-5.152Z" transform="translate(-1559.661 -875.998)" fill="#eb9e94"/>
          </g>
        </g>
        <g id="Group_246" data-name="Group 246" transform="translate(0 380.336)">
          <g id="Group_245" data-name="Group 245" transform="translate(0 12.682)">
            <path id="Path_3982" data-name="Path 3982" d="M1607.28,1575.11h8.306a4.127,4.127,0,0,0,3.976-3.025l114.825-487.564a6.765,6.765,0,0,0-6.519-8.572h-17.281a6.766,6.766,0,0,0-6.567,5.14l-100.745,488.9A4.127,4.127,0,0,0,1607.28,1575.11Z" transform="translate(-1603.152 -1075.949)" fill="#512618"/>
            <path id="Path_3983" data-name="Path 3983" d="M1571.761,1575.11h8.305a4.128,4.128,0,0,0,3.977-3.025l48.428-487.564a6.765,6.765,0,0,0-6.519-8.572h-17.281a6.765,6.765,0,0,0-6.567,5.14l-34.348,488.9A4.127,4.127,0,0,0,1571.761,1575.11Z" transform="translate(-1465.717 -1075.949)" fill="#93582f"/>
            <path id="Path_3984" data-name="Path 3984" d="M1510.477,1575.11h-8.3a4.128,4.128,0,0,1-3.977-3.025l-135.113-487.564a6.765,6.765,0,0,1,6.519-8.572h17.281a6.765,6.765,0,0,1,6.567,5.14l121.033,488.9A4.126,4.126,0,0,1,1510.477,1575.11Z" transform="translate(-1142.802 -1075.949)" fill="#512618"/>
          </g>
          <path id="Rectangle_47" data-name="Rectangle 47" d="M3.411,0H355.344a5.191,5.191,0,0,1,5.191,5.191V18.334a5.191,5.191,0,0,1-5.191,5.191H3.411A3.411,3.411,0,0,1,0,20.114V3.411A3.411,3.411,0,0,1,3.411,0Z" transform="translate(5.634 0)" fill="#93582f"/>
        </g>
      </g>
    </g>
  </g>
</svg>
