<svg height="76.332" viewBox="0 0 85.023 76.332" width="85.023" xmlns="http://www.w3.org/2000/svg"><path d="m434.9 311.874c-1.307-.715-6.58 5.913-8.09 9.247-.9 1.982-2.189 5.735-3.12 8.122a2.273 2.273 0 0 0 -.677.088l-17-12.857a13.644 13.644 0 0 0 -7.621-15l-4.184-22.4a2.269 2.269 0 0 0 .373-.486c2.933.567 7.926 1.839 10.282 1.784 3.053-.07 10.859-.846 10.83-2.112s-9.071-2.4-11.3-2.347c-1.712.039-6.507.629-9.581.925a2.262 2.262 0 0 0 -4.367.007c-2.592-.309-6.4-.979-9.455-1.186-4.1-.278-11.022.228-10.985 1.866.035 1.49 8.411 2.742 12.053 2.384 2.166-.214 6.062-.973 8.594-1.36a2.251 2.251 0 0 0 .326.452l-4.2 22.478a13.674 13.674 0 0 0 -7.877 12.378c0 .409.025.811.061 1.21l-17.062 14.611a2.253 2.253 0 0 0 -.607-.079c-.975-2.824-2.371-7.784-3.6-9.8-1.588-2.609-6.163-8.981-7.244-8.323s2.458 9.056 3.62 10.965c.889 1.462 3.8 5.319 5.592 7.834a2.262 2.262 0 0 0 2.189 3.778c1.028 2.4 2.352 6.032 3.7 8.781 1.812 3.694 5.709 9.432 7.109 8.58 1.272-.774-1.831-8.655-3.963-11.629-1.267-1.769-3.872-4.763-5.474-6.763a2.293 2.293 0 0 0 .229-.508l21.242-7.491a13.639 13.639 0 0 0 17.332-1.278l19.4 8.2a2.267 2.267 0 0 0 .256.686c-1.958 2.256-5.556 5.945-6.687 8.012-1.466 2.68-4.7 9.828-3.585 10.436s6.613-6.657 7.685-8.617c.822-1.5 2.708-5.95 3.989-8.76a2.262 2.262 0 0 0 2.177-3.786c1.564-2.09 4.048-5.052 5.755-7.6 2.299-3.416 5.32-9.655 3.885-10.442zm-32.717 1.982a9.547 9.547 0 0 1 -1.021 4.289l-2.335-1.348a6.883 6.883 0 0 0 -5.789-9.821v-2.692a9.587 9.587 0 0 1 9.142 9.572zm-10.045-9.572v2.692a6.883 6.883 0 0 0 -5.789 9.821l-2.335 1.348a9.569 9.569 0 0 1 8.124-13.861zm.45 19.167a9.577 9.577 0 0 1 -8.133-4.521l2.329-1.344a6.894 6.894 0 0 0 11.608 0l2.329 1.344a9.577 9.577 0 0 1 -8.136 4.521z" fill="#222221" transform="translate(-350.247 -275.17)"/></svg>