<svg height="91.604" viewBox="0 0 100.015 91.604" width="100.015" xmlns="http://www.w3.org/2000/svg"><g transform="translate(-118.828 -273.351)"><g fill="#3f3f69"><path d="m134.224 323.209h73.909v27.397h-73.909z"/><path d="m144.14 336.703h54.077v21.628h-54.077z"/><path d="m202.592 323.726a31.413 31.413 0 1 1 -31.416-31.418 31.419 31.419 0 0 1 31.416 31.418z"/></g><path d="m195.383 323.726a24.2 24.2 0 1 1 -24.205-24.206 24.207 24.207 0 0 1 24.205 24.206z" fill="#fff"/><path d="m188.969 323.726a17.791 17.791 0 1 1 -17.791-17.792 17.789 17.789 0 0 1 17.791 17.792z" fill="#d98b2e"/><path d="m178.744 319.529a7.566 7.566 0 1 1 -7.568-7.562 7.567 7.567 0 0 1 7.568 7.562z" fill="#fff"/><path d="m206.928 285.541c0 1.418-5.821 2.565-12.994 2.565s-12.994-1.147-12.994-2.565 5.816-2.57 12.994-2.57 12.994 1.151 12.994 2.57z" fill="#3f3f69"/><path d="m161.414 285.541c0 1.418-5.82 2.565-12.994 2.565s-12.991-1.147-12.991-2.565 5.815-2.57 12.991-2.57 12.994 1.151 12.994 2.57z" fill="#3f3f69"/><path d="m171.164 287.76a28.515 28.515 0 0 1 8.119 1.183 8.191 8.191 0 0 0 -16.34.03 28.5 28.5 0 0 1 8.221-1.213z" fill="#d98b2e"/><path d="m123.168 287.923h-4.34v-14.572h14.645v4.341h-10.305zm91.742-1.368h3.932v-13.2h-13.269v3.934h9.337zm0 56.6h3.933v13.2h-13.269v-3.931h9.336zm-91.741 7.233h-4.339v14.569h14.643v-4.34h-10.3z" fill="#3f3f69"/></g></svg>