<svg height="56.19" viewBox="0 0 231 56.19" width="231" xmlns="http://www.w3.org/2000/svg"><g fill="#3f3f69"><path d="m577.123 352.8a27.955 27.955 0 0 1 -23.852-13.251l1.886-1.176a25.867 25.867 0 0 0 43.932 0l1.886 1.176a27.953 27.953 0 0 1 -23.852 13.251z" transform="translate(-531.224 -296.608)"/><path d="m597.667 290.091a25.852 25.852 0 0 0 -38.728 0l-1.664-1.474a28.079 28.079 0 0 1 42.056 0z" transform="translate(-532.405 -279.146)"/><path d="m580.669 291.945a15.537 15.537 0 0 0 -15.537 15.537h8.209a7.328 7.328 0 0 1 14.657 0h8.209a15.538 15.538 0 0 0 -15.538-15.537z" transform="translate(-534.722 -282.92)"/></g><g fill="#9dc44d"><path d="m589.36 313.359a3.771 3.771 0 1 1 -3.771-3.769 3.771 3.771 0 0 1 3.771 3.769z" transform="translate(-539.642 -288.123)"/><path d="m577.747 339.075a22.523 22.523 0 0 0 22.524-22.524h-11.9a10.624 10.624 0 0 1 -21.248 0h-11.9a22.524 22.524 0 0 0 22.524 22.524z" transform="translate(-531.8 -290.175)"/><path d="m57.635 26.382h26.164v3.114h-26.164z"/><path d="m8.052 26.382h24.83v3.114h-24.83z"/><path d="m635.069 310.388a3.123 3.123 0 0 0 -3.124 3.123h6.246a3.123 3.123 0 0 0 -3.122-3.123z" transform="translate(-554.422 -288.358)"/></g><path d="m648.912 312.277c0 .444-1.828.8-4.08.8s-4.082-.361-4.082-.8 1.828-.808 4.082-.808 4.08.361 4.08.808z" fill="#3f3f69" transform="translate(-557.018 -288.677)"/><path d="m628.644 312.277c0 .444-1.829.8-4.083.8s-4.079-.361-4.079-.8 1.826-.808 4.079-.808 4.083.361 4.083.808z" fill="#3f3f69" transform="translate(-551.042 -288.677)"/><path d="m536.6 310.388a3.122 3.122 0 0 0 -3.122 3.123h6.245a3.122 3.122 0 0 0 -3.123-3.123z" fill="#9dc44d" transform="translate(-525.387 -288.358)"/><path d="m550.437 312.277c0 .444-1.826.8-4.08.8s-4.082-.361-4.082-.8 1.828-.808 4.082-.808 4.08.361 4.08.808z" fill="#3f3f69" transform="translate(-527.982 -288.677)"/><path d="m530.167 312.277c0 .444-1.827.8-4.079.8s-4.082-.361-4.082-.8 1.826-.808 4.082-.808 4.079.361 4.079.808z" fill="#3f3f69" transform="translate(-522.006 -288.677)"/><path d="m96 0h135v56h-135z" fill="#9dc44d"/><text fill="#fff" font-family="Montserrat-Bold, Montserrat" font-size="24.327" font-weight="700" letter-spacing=".2em" transform="translate(107.596 32)"><tspan x="0" y="0">DRONE</tspan></text><text fill="#fff" font-family="Montserrat-Medium, Montserrat" font-size="8" font-weight="500" letter-spacing=".55em" transform="translate(109.856 45.348)"><tspan x="0" y="0">PHOTOGRAPHY</tspan></text></svg>