<svg height="512pt" viewBox="0 0 512.066 512" width="512pt" xmlns="http://www.w3.org/2000/svg"><path d="M120.047 280.094h272v192h-272zm0 0" fill="#00c3ff"/><path d="M440.047 152.094c-.004-31.551-18.559-60.156-47.367-73.028-28.809-12.87-62.493-7.605-86 13.446-17.207-55.535-71.75-90.746-129.446-83.563C119.54 16.13 75.293 63.637 72.223 121.695c-40.243 8.172-67.766 45.489-63.684 86.352 4.082 40.863 38.441 72 79.508 72.047h352c35.348 0 64-28.653 64-64 0-35.344-28.652-64-64-64zm0 0" fill="#91e8ed"/><path d="M400.047 136.094c0 13.258-10.746 24-24 24s-24-10.742-24-24c0-13.254 10.746-24 24-24s24 10.746 24 24zm-312 64c0 13.258-10.746 24-24 24s-24-10.742-24-24c0-13.254 10.746-24 24-24s24 10.746 24 24zm104-120c0 13.258-10.746 24-24 24s-24-10.742-24-24c0-13.254 10.746-24 24-24s24 10.746 24 24zm0 0" fill="#ffea00"/><path d="M176.047 432.094h16v16h-16zm32 0h16v16h-16zm32 0h16v16h-16zm-96 0h16v16h-16zm32-64h16v16h-16zm32 0h16v16h-16zm32 0h16v16h-16zm-96 0h16v16h-16zm32-64h16v16h-16zm-32 0h16v16h-16zm64 0h16v16h-16zm32 0h16v16h-16zm0 0" fill="#fff"/><path d="M128.047 496.094h48v16h-48zm208 0h48v16h-48zm-64-64h96v16h-96zm0-64h96v16h-96zm0-64h96v16h-96zm0 0"/><path d="M447.719 144.504a87.997 87.997 0 00-137.27-65.105C288.13 25.065 231.7-7.106 173.574 1.37 115.454 9.848 70.56 56.797 64.687 115.238 22.2 126.914-5.109 168.215.793 211.878c5.902 43.669 43.191 76.243 87.254 76.216h24v192h288v-192h40c38.281.011 69.875-29.934 71.918-68.156 2.039-38.227-26.184-71.364-64.246-75.434zm-63.672 319.59h-256v-48h256zm0-64h-256v-48h256zm0-64h-256v-48h256zm56-64h-104v-92.317l21.039-18.082c13.023 9.621 31.168 8.051 42.344-3.66 11.18-11.715 11.898-29.914 1.68-42.469-10.22-12.558-28.184-15.554-41.923-6.992-13.742 8.563-18.964 26.008-12.195 40.715l-26.945 23.125v99.68h-64v-73.535l-16-40V72.094H198.91c-4.027-15.602-19.027-25.774-35.015-23.742-15.985 2.03-27.965 15.628-27.965 31.742 0 16.117 11.98 29.715 27.965 31.746 15.988 2.031 30.988-8.14 35.015-23.746h25.137v73.539l16 40v70.46h-64v-128h-58.809L81.016 173.07c-13.918-8.957-32.329-6.148-42.934 6.559-10.61 12.707-10.086 31.324 1.215 43.418 11.3 12.09 29.84 13.871 43.234 4.144 13.39-9.722 17.442-27.902 9.446-42.39l30.878-24.707h37.192v112h-72c-37.008.027-68.008-28.012-71.688-64.836-3.683-36.824 21.153-70.442 57.434-77.746l6.086-1.223.336-6.195c2.883-54.18 44.183-98.5 98.027-105.196C232.086 10.207 282.98 43.07 299.04 94.895l3.695 11.914 9.313-8.313c21.156-18.922 51.45-23.648 77.363-12.074 25.914 11.574 42.613 37.293 42.637 65.672v8h8c30.93 0 56 25.074 56 56 0 30.93-25.07 56-56 56zm-80-136c0-8.836 7.164-16 16-16s16 7.164 16 16c0 8.84-7.164 16-16 16s-16-7.16-16-16zm-176-56c0 8.84-7.164 16-16 16s-16-7.16-16-16c0-8.836 7.164-16 16-16s16 7.164 16 16zm-104 120c0 8.84-7.164 16-16 16s-16-7.16-16-16c0-8.836 7.164-16 16-16s16 7.164 16 16zm0 0"/></svg>