<svg width="394" height="356" xmlns="http://www.w3.org/2000/svg"><g fill="none"><path fill="#FDB300" d="M85.79 11.715L196.603 0l110.812 11.715 85.79 115.166-196.602 228.942L0 126.881z"/><path fill="#EA6C00" d="M79.634 126.881l116.969 228.942L0 126.881z"/><path fill="#EA6C00" d="M313.571 126.881L196.602 355.823l196.603-228.942z"/><path fill="#FDAD00" d="M79.634 126.881h233.938L196.603 355.823z"/><path fill="#FDD231" d="M196.603 0L85.79 11.715l-6.156 115.166z"/><path fill="#FDD231" d="M196.602 0l110.813 11.715 6.156 115.166z"/><path fill="#FDAD00" d="M393.206 126.881L307.415 11.715l6.157 115.166zM0 126.881L85.79 11.715l-6.156 115.166z"/><path fill="#FEEEB7" d="M196.603 0L79.634 126.881h233.938z"/></g></svg>