<svg height="766.142" width="1204.938" xmlns="http://www.w3.org/2000/svg"><linearGradient id="a" gradientUnits="objectBoundingBox" x1=".5" x2=".5" y2="1"><stop offset="0" stop-color="#00b49c"/><stop offset=".079" stop-color="#0cb296"/><stop offset=".223" stop-color="#2cae86"/><stop offset=".415" stop-color="#60a76c"/><stop offset=".648" stop-color="#a89e48"/><stop offset=".9" stop-color="#ff931e"/></linearGradient><path d="M445.553 258.01a10.138 10.138 0 11-10.13-9.76 9.947 9.947 0 0110.13 9.76zm14.046-9.76a9.766 9.766 0 1010.13 9.76 9.95 9.95 0 00-10.129-9.76zm24.173 0a9.766 9.766 0 1010.132 9.76 9.947 9.947 0 00-10.132-9.76zm24.178 0a9.766 9.766 0 1010.13 9.76 9.952 9.952 0 00-10.13-9.76zm24.177 0a9.766 9.766 0 1010.132 9.76 9.95 9.95 0 00-10.132-9.76zm24.176 0a9.765 9.765 0 1010.128 9.76 9.952 9.952 0 00-10.131-9.76zm24.176 0a9.766 9.766 0 1010.13 9.76 9.949 9.949 0 00-10.131-9.76zm24.175 0a9.766 9.766 0 1010.132 9.76 9.952 9.952 0 00-10.132-9.76zm24.178 0a9.766 9.766 0 1010.13 9.76 9.951 9.951 0 00-10.131-9.76zm-193.409 25.789a9.766 9.766 0 1010.13 9.76 9.953 9.953 0 00-10.13-9.76zm24.176 0a9.766 9.766 0 1010.13 9.76 9.951 9.951 0 00-10.129-9.76zm24.173 0A9.766 9.766 0 10493.9 283.8a9.948 9.948 0 00-10.128-9.761zm24.178 0a9.766 9.766 0 1010.13 9.76 9.953 9.953 0 00-10.13-9.76zm24.177 0a9.766 9.766 0 1010.132 9.76 9.951 9.951 0 00-10.132-9.76zm24.176 0a9.766 9.766 0 1010.128 9.76 9.953 9.953 0 00-10.131-9.76zm24.176 0a9.766 9.766 0 1010.13 9.76 9.95 9.95 0 00-10.131-9.76zm24.175 0a9.766 9.766 0 1010.132 9.76 9.953 9.953 0 00-10.132-9.76zm-358.206 25.789a9.766 9.766 0 1010.13 9.758 9.95 9.95 0 00-10.13-9.758zm24.176 0a9.766 9.766 0 1010.128 9.758 9.95 9.95 0 00-10.129-9.758zm24.174 0a9.766 9.766 0 1010.132 9.758 9.947 9.947 0 00-10.13-9.758zm24.178 0a9.766 9.766 0 1010.13 9.758 9.947 9.947 0 00-10.132-9.758zm-48.351-22.481a9.766 9.766 0 1010.128 9.758 9.951 9.951 0 00-10.13-9.758zm24.174 0a9.767 9.767 0 1010.132 9.758 9.948 9.948 0 00-10.131-9.758zm24.178 0A9.766 9.766 0 10329.1 287.1a9.948 9.948 0 00-10.126-9.753zM459.6 299.828a9.766 9.766 0 1010.13 9.758 9.948 9.948 0 00-10.13-9.758zm24.173 0a9.766 9.766 0 1010.132 9.758 9.945 9.945 0 00-10.133-9.758zm24.178 0a9.766 9.766 0 1010.13 9.758 9.95 9.95 0 00-10.131-9.758zm24.177 0a9.766 9.766 0 1010.132 9.758 9.948 9.948 0 00-10.133-9.758zm24.176 0a9.766 9.766 0 1010.128 9.758 9.95 9.95 0 00-10.132-9.758zm24.176 0a9.766 9.766 0 1010.13 9.758 9.947 9.947 0 00-10.132-9.758zm24.175 0a9.766 9.766 0 1010.132 9.758 9.95 9.95 0 00-10.133-9.758zm-503.264 25.789a9.766 9.766 0 1010.13 9.76 9.95 9.95 0 00-10.13-9.76zm24.176 0a9.767 9.767 0 1010.132 9.76 9.947 9.947 0 00-10.133-9.76zm24.176 0a9.767 9.767 0 1010.132 9.76 9.95 9.95 0 00-10.133-9.76zm24.177 0a9.766 9.766 0 1010.13 9.76 9.949 9.949 0 00-10.131-9.76zm24.176 0a9.767 9.767 0 1010.132 9.76 9.949 9.949 0 00-10.133-9.76zm24.176 0a9.767 9.767 0 1010.132 9.76 9.949 9.949 0 00-10.134-9.76zm24.178 0a9.766 9.766 0 1010.13 9.76 9.951 9.951 0 00-10.132-9.76zm24.176 0a9.766 9.766 0 1010.128 9.76 9.951 9.951 0 00-10.131-9.76zm24.174 0a9.767 9.767 0 1010.132 9.76 9.947 9.947 0 00-10.132-9.76zm24.178 0a9.766 9.766 0 1010.13 9.76 9.948 9.948 0 00-10.134-9.76zm24.176 0a9.767 9.767 0 1010.132 9.76 9.95 9.95 0 00-10.136-9.76zm24.177 0a9.766 9.766 0 1010.128 9.76 9.951 9.951 0 00-10.132-9.76zm24.174 0a9.767 9.767 0 1010.134 9.76 9.948 9.948 0 00-10.139-9.76zm92.271 0a9.767 9.767 0 1010.132 9.76 9.945 9.945 0 00-10.136-9.76zm24.178 0a9.766 9.766 0 1010.13 9.76 9.951 9.951 0 00-10.134-9.76zm24.177 0a9.767 9.767 0 1010.132 9.76 9.949 9.949 0 00-10.136-9.76zm24.176 0a9.766 9.766 0 1010.128 9.76 9.951 9.951 0 00-10.135-9.76zm24.176 0a9.766 9.766 0 1010.13 9.76 9.948 9.948 0 00-10.135-9.76zM77.217 351.4a9.766 9.766 0 1010.128 9.76 9.952 9.952 0 00-10.128-9.76zm24.174 0a9.766 9.766 0 1010.13 9.76 9.953 9.953 0 00-10.13-9.76zm24.176 0a9.767 9.767 0 1010.132 9.76 9.95 9.95 0 00-10.133-9.76zm24.176 0a9.767 9.767 0 1010.132 9.76 9.953 9.953 0 00-10.133-9.76zm24.177 0a9.766 9.766 0 1010.13 9.76 9.951 9.951 0 00-10.131-9.76zm24.176 0a9.767 9.767 0 1010.132 9.76 9.951 9.951 0 00-10.133-9.76zm24.176 0a9.767 9.767 0 1010.132 9.76 9.951 9.951 0 00-10.134-9.76zm24.178 0a9.766 9.766 0 1010.13 9.76 9.953 9.953 0 00-10.132-9.76zm24.176 0a9.766 9.766 0 1010.128 9.76 9.953 9.953 0 00-10.131-9.76zm24.174 0a9.767 9.767 0 1010.132 9.76 9.95 9.95 0 00-10.132-9.76zm24.178 0a9.766 9.766 0 1010.13 9.76 9.95 9.95 0 00-10.134-9.76zm24.176 0a9.767 9.767 0 1010.132 9.76 9.953 9.953 0 00-10.136-9.76zm24.177 0a9.766 9.766 0 1010.128 9.76 9.953 9.953 0 00-10.132-9.76zm24.174 0a9.767 9.767 0 1010.134 9.76 9.951 9.951 0 00-10.139-9.76zm24.177 0a9.766 9.766 0 1010.13 9.76 9.953 9.953 0 00-10.134-9.76zm68.094 0a9.767 9.767 0 1010.132 9.76 9.948 9.948 0 00-10.136-9.76zm24.178 0a9.766 9.766 0 1010.13 9.76 9.953 9.953 0 00-10.134-9.76zm24.177 0a9.767 9.767 0 1010.132 9.76 9.951 9.951 0 00-10.136-9.76zm24.176 0a9.766 9.766 0 1010.128 9.76 9.953 9.953 0 00-10.135-9.76zm-479.09 25.793a9.768 9.768 0 1010.128 9.76 9.952 9.952 0 00-10.128-9.76zm24.174 0a9.768 9.768 0 1010.13 9.76 9.953 9.953 0 00-10.13-9.76zm24.176 0a9.768 9.768 0 1010.132 9.76 9.95 9.95 0 00-10.133-9.76zm24.176 0a9.768 9.768 0 1010.132 9.76 9.953 9.953 0 00-10.133-9.76zm24.177 0a9.768 9.768 0 1010.13 9.76 9.951 9.951 0 00-10.131-9.76zm24.176 0a9.768 9.768 0 1010.132 9.76 9.951 9.951 0 00-10.133-9.76zm24.176 0a9.768 9.768 0 1010.132 9.76 9.951 9.951 0 00-10.134-9.76zm24.178 0a9.768 9.768 0 1010.13 9.76 9.953 9.953 0 00-10.132-9.76zm24.176 0a9.768 9.768 0 1010.128 9.76 9.953 9.953 0 00-10.131-9.76zm24.174 0a9.768 9.768 0 1010.132 9.76 9.95 9.95 0 00-10.132-9.76zm24.178 0a9.768 9.768 0 1010.13 9.76 9.95 9.95 0 00-10.134-9.76zm24.176 0a9.768 9.768 0 1010.132 9.76 9.953 9.953 0 00-10.136-9.76zm24.177 0a9.768 9.768 0 1010.128 9.76 9.953 9.953 0 00-10.132-9.76zm24.174 0a9.768 9.768 0 1010.134 9.76 9.951 9.951 0 00-10.139-9.76zm24.177 0a9.768 9.768 0 1010.13 9.76 9.953 9.953 0 00-10.134-9.76zm68.094 0a9.768 9.768 0 1010.132 9.76 9.948 9.948 0 00-10.136-9.76zm24.178 0a9.768 9.768 0 1010.13 9.76 9.953 9.953 0 00-10.134-9.76zm24.177 0a9.768 9.768 0 1010.132 9.76 9.951 9.951 0 00-10.136-9.76zM53.04 402.982a9.767 9.767 0 1010.132 9.76 9.952 9.952 0 00-10.132-9.76zm24.177 0a9.766 9.766 0 1010.128 9.76 9.951 9.951 0 00-10.128-9.76zm24.174 0a9.766 9.766 0 1010.13 9.76 9.951 9.951 0 00-10.13-9.76zm24.176 0a9.767 9.767 0 1010.132 9.76 9.948 9.948 0 00-10.133-9.76zm24.176 0a9.767 9.767 0 1010.132 9.76 9.951 9.951 0 00-10.133-9.76zm24.177 0a9.766 9.766 0 1010.13 9.76 9.95 9.95 0 00-10.131-9.76zm24.176 0a9.767 9.767 0 1010.132 9.76 9.95 9.95 0 00-10.133-9.76zm24.176 0a9.767 9.767 0 1010.132 9.76 9.95 9.95 0 00-10.134-9.76zm24.178 0a9.766 9.766 0 1010.13 9.76 9.952 9.952 0 00-10.132-9.76zm24.176 0a9.766 9.766 0 1010.128 9.76 9.952 9.952 0 00-10.131-9.76zm24.174 0a9.767 9.767 0 1010.132 9.76 9.948 9.948 0 00-10.132-9.76zm24.178 0a9.766 9.766 0 1010.13 9.76 9.949 9.949 0 00-10.134-9.76zm72.527 0a9.767 9.767 0 1010.134 9.76 9.95 9.95 0 00-10.139-9.76zm24.177 0a9.766 9.766 0 1010.13 9.76 9.952 9.952 0 00-10.134-9.76zM77.217 428.771a9.767 9.767 0 1010.128 9.76 9.949 9.949 0 00-10.128-9.76zm24.174 0a9.767 9.767 0 1010.13 9.76 9.95 9.95 0 00-10.13-9.76zm24.176 0a9.767 9.767 0 1010.132 9.76 9.947 9.947 0 00-10.133-9.76zm48.353 0a9.767 9.767 0 1010.13 9.76 9.949 9.949 0 00-10.131-9.76zm24.176 0a9.767 9.767 0 1010.132 9.76 9.949 9.949 0 00-10.133-9.76zm24.176 0a9.767 9.767 0 1010.132 9.76 9.949 9.949 0 00-10.134-9.76zm24.178 0a9.767 9.767 0 1010.13 9.76 9.951 9.951 0 00-10.132-9.76zm24.176 0a9.767 9.767 0 1010.128 9.76 9.951 9.951 0 00-10.131-9.76zm24.174 0a9.767 9.767 0 1010.132 9.76 9.947 9.947 0 00-10.132-9.76zm24.178 0a9.767 9.767 0 1010.13 9.76 9.948 9.948 0 00-10.134-9.76zm24.176 0a9.767 9.767 0 1010.132 9.76 9.95 9.95 0 00-10.136-9.76zm48.351 0a9.767 9.767 0 1010.134 9.76 9.948 9.948 0 00-10.139-9.76zm24.177 0a9.767 9.767 0 1010.13 9.76 9.951 9.951 0 00-10.134-9.76zm24.176 0a9.767 9.767 0 1010.132 9.76 9.947 9.947 0 00-10.136-9.76zm214.947 0a9.767 9.767 0 1010.132 9.76 9.95 9.95 0 00-10.137-9.76zM53.04 454.558a9.767 9.767 0 1010.132 9.76 9.953 9.953 0 00-10.132-9.76zm24.177 0a9.767 9.767 0 1010.128 9.76 9.952 9.952 0 00-10.128-9.76zm120.878 0a9.767 9.767 0 1010.132 9.76 9.951 9.951 0 00-10.132-9.76zm24.176 0a9.767 9.767 0 1010.132 9.76 9.951 9.951 0 00-10.133-9.76zm24.178 0a9.767 9.767 0 1010.13 9.76 9.953 9.953 0 00-10.131-9.76zm24.176 0a9.767 9.767 0 1010.128 9.76 9.953 9.953 0 00-10.13-9.76zm24.174 0a9.767 9.767 0 1010.132 9.76 9.95 9.95 0 00-10.131-9.76zm24.178 0a9.767 9.767 0 1010.13 9.76 9.95 9.95 0 00-10.133-9.76zm24.176 0a9.767 9.767 0 1010.132 9.76 9.953 9.953 0 00-10.135-9.76zm24.177 0a9.767 9.767 0 1010.128 9.76 9.953 9.953 0 00-10.131-9.76zm24.174 0a9.768 9.768 0 1010.134 9.76 9.951 9.951 0 00-10.138-9.76zm24.177 0a9.767 9.767 0 1010.13 9.76 9.953 9.953 0 00-10.133-9.76zm24.176 0a9.767 9.767 0 1010.132 9.76 9.95 9.95 0 00-10.135-9.76zm214.947 0a9.767 9.767 0 1010.132 9.76 9.953 9.953 0 00-10.136-9.76zM53.04 480.347a9.767 9.767 0 1010.132 9.762 9.953 9.953 0 00-10.132-9.762zm145.055 0a9.767 9.767 0 1010.132 9.762 9.952 9.952 0 00-10.132-9.762zm24.176 0a9.767 9.767 0 1010.132 9.762 9.952 9.952 0 00-10.133-9.762zm24.178 0a9.767 9.767 0 1010.13 9.762 9.953 9.953 0 00-10.131-9.762zm24.176 0a9.767 9.767 0 1010.128 9.762 9.953 9.953 0 00-10.13-9.762zm24.174 0a9.767 9.767 0 1010.132 9.762 9.95 9.95 0 00-10.131-9.762zm24.178 0a9.767 9.767 0 1010.13 9.762 9.95 9.95 0 00-10.133-9.762zm24.176 0a9.767 9.767 0 1010.132 9.762 9.953 9.953 0 00-10.135-9.762zm24.177 0a9.767 9.767 0 1010.128 9.762 9.953 9.953 0 00-10.131-9.762zm24.174 0a9.767 9.767 0 1010.134 9.762 9.951 9.951 0 00-10.138-9.762zm24.177 0a9.767 9.767 0 1010.13 9.762 9.953 9.953 0 00-10.133-9.762zm263.3 0a9.767 9.767 0 1010.126 9.762 9.954 9.954 0 00-10.126-9.762zm-480.886 25.789a9.767 9.767 0 1010.132 9.762 9.95 9.95 0 00-10.132-9.762zm24.176 0A9.767 9.767 0 10232.4 515.9a9.95 9.95 0 00-10.13-9.764zm24.178 0a9.767 9.767 0 1010.13 9.762 9.952 9.952 0 00-10.131-9.762zm24.176 0a9.767 9.767 0 1010.128 9.762 9.952 9.952 0 00-10.13-9.762zm24.174 0a9.767 9.767 0 1010.132 9.762 9.949 9.949 0 00-10.131-9.762zm24.178 0A9.767 9.767 0 10329.1 515.9a9.949 9.949 0 00-10.126-9.764zm24.176 0a9.767 9.767 0 1010.132 9.762 9.952 9.952 0 00-10.135-9.762zm24.177 0a9.767 9.767 0 1010.128 9.762 9.952 9.952 0 00-10.131-9.762zm24.174 0a9.768 9.768 0 1010.134 9.762 9.95 9.95 0 00-10.138-9.762zm263.3 0a9.767 9.767 0 1010.132 9.762 9.952 9.952 0 00-10.136-9.762zm24.18 0a9.767 9.767 0 1010.126 9.762 9.953 9.953 0 00-10.129-9.762zm-480.889 25.791a9.766 9.766 0 1010.132 9.758 9.947 9.947 0 00-10.132-9.758zm24.176 0a9.766 9.766 0 1010.132 9.758 9.947 9.947 0 00-10.133-9.758zm24.178 0a9.766 9.766 0 1010.13 9.758 9.949 9.949 0 00-10.131-9.758zm24.176 0a9.765 9.765 0 1010.128 9.758 9.949 9.949 0 00-10.13-9.758zm24.174 0a9.766 9.766 0 1010.132 9.758 9.946 9.946 0 00-10.131-9.758zm24.178 0a9.766 9.766 0 1010.13 9.758 9.946 9.946 0 00-10.133-9.758zm24.176 0a9.766 9.766 0 1010.132 9.758 9.949 9.949 0 00-10.135-9.758zm24.177 0a9.765 9.765 0 1010.128 9.758 9.949 9.949 0 00-10.131-9.758zm287.474 0a9.766 9.766 0 1010.132 9.758 9.949 9.949 0 00-10.136-9.758zm24.18 0a9.765 9.765 0 1010.126 9.758 9.95 9.95 0 00-10.129-9.758zm-480.889 25.789a9.766 9.766 0 1010.132 9.758 9.947 9.947 0 00-10.132-9.758zm24.176 0a9.766 9.766 0 1010.132 9.758 9.947 9.947 0 00-10.133-9.758zm24.178 0a9.766 9.766 0 1010.13 9.758 9.949 9.949 0 00-10.131-9.758zm24.176 0a9.765 9.765 0 1010.128 9.758 9.949 9.949 0 00-10.13-9.758zm24.174 0a9.766 9.766 0 1010.132 9.758 9.945 9.945 0 00-10.131-9.758zm24.178 0a9.766 9.766 0 1010.13 9.758 9.946 9.946 0 00-10.133-9.758zm24.176 0a9.766 9.766 0 1010.132 9.758 9.948 9.948 0 00-10.135-9.758zm311.651 0a9.766 9.766 0 1010.132 9.758 9.949 9.949 0 00-10.136-9.758zm24.18 0a9.765 9.765 0 1010.126 9.758 9.95 9.95 0 00-10.129-9.758zM222.27 583.5a9.767 9.767 0 1010.132 9.763 9.952 9.952 0 00-10.132-9.763zm24.178 0a9.767 9.767 0 1010.13 9.763 9.954 9.954 0 00-10.13-9.763zm24.176 0a9.767 9.767 0 1010.128 9.763 9.954 9.954 0 00-10.129-9.763zm24.174 0a9.767 9.767 0 1010.132 9.763 9.95 9.95 0 00-10.13-9.763zm24.178 0a9.767 9.767 0 1010.13 9.763 9.951 9.951 0 00-10.132-9.763zm311.651 0a9.767 9.767 0 1010.13 9.763 9.952 9.952 0 00-10.131-9.763zm24.175 0a9.767 9.767 0 1010.132 9.763A9.953 9.953 0 00654.8 583.5zm24.18 0a9.767 9.767 0 1010.126 9.763 9.955 9.955 0 00-10.127-9.763zM222.27 609.29a9.768 9.768 0 1010.132 9.763 9.952 9.952 0 00-10.132-9.763zm24.178 0a9.768 9.768 0 1010.13 9.763 9.954 9.954 0 00-10.13-9.763zm24.176 0a9.768 9.768 0 1010.128 9.763 9.954 9.954 0 00-10.129-9.763zm360 0a9.768 9.768 0 1010.13 9.763 9.952 9.952 0 00-10.128-9.763zm24.175 0a9.768 9.768 0 1010.132 9.763 9.953 9.953 0 00-10.131-9.763zm24.18 0a9.768 9.768 0 1010.126 9.763 9.955 9.955 0 00-10.124-9.763zm47.125-335.251a9.766 9.766 0 1010.13 9.76 9.954 9.954 0 00-10.129-9.76zm24.179 0a9.766 9.766 0 1010.124 9.76 9.951 9.951 0 00-10.122-9.76zm24.174 0a9.766 9.766 0 1010.13 9.76 9.95 9.95 0 00-10.129-9.76zm-48.353 25.789a9.766 9.766 0 1010.13 9.758 9.951 9.951 0 00-10.129-9.758zm24.179 0a9.766 9.766 0 1010.124 9.758 9.948 9.948 0 00-10.122-9.758zm241.753 0a9.767 9.767 0 1010.134 9.758 9.948 9.948 0 00-10.132-9.758zm24.18 0a9.766 9.766 0 1010.13 9.758 9.947 9.947 0 00-10.129-9.758zm24.176 0a9.766 9.766 0 1010.13 9.758 9.947 9.947 0 00-10.129-9.758zm120.879 0a9.766 9.766 0 1010.128 9.758 9.95 9.95 0 00-10.127-9.758zm-386.813 25.789a9.766 9.766 0 1010.13 9.76 9.948 9.948 0 00-10.13-9.76zm169.231 0a9.767 9.767 0 1010.132 9.76 9.948 9.948 0 00-10.132-9.76zm24.176 0a9.767 9.767 0 1010.135 9.76 9.95 9.95 0 00-10.135-9.76zm24.173 0a9.767 9.767 0 1010.134 9.76 9.948 9.948 0 00-10.134-9.76zm24.18 0a9.766 9.766 0 1010.13 9.76 9.947 9.947 0 00-10.131-9.76zm24.176 0a9.766 9.766 0 1010.13 9.76 9.948 9.948 0 00-10.131-9.76zm24.176 0a9.766 9.766 0 1010.128 9.76 9.95 9.95 0 00-10.13-9.76zm24.177 0a9.766 9.766 0 1010.126 9.76 9.949 9.949 0 00-10.127-9.76zm24.176 0a9.766 9.766 0 1010.13 9.76 9.951 9.951 0 00-10.131-9.76zm24.175 0a9.766 9.766 0 1010.13 9.76 9.947 9.947 0 00-10.128-9.76zm24.175 0a9.766 9.766 0 1010.128 9.76 9.95 9.95 0 00-10.129-9.76zm24.174 0a9.766 9.766 0 1010.13 9.76 9.945 9.945 0 00-10.131-9.76zm24.179 0a9.766 9.766 0 1010.126 9.76 9.947 9.947 0 00-10.127-9.76zm24.176 0a9.767 9.767 0 1010.132 9.76 9.95 9.95 0 00-10.134-9.76zM726.105 351.4a9.766 9.766 0 1010.13 9.76 9.954 9.954 0 00-10.13-9.76zm24.179 0a9.766 9.766 0 1010.124 9.76 9.951 9.951 0 00-10.123-9.76zm24.174 0a9.766 9.766 0 1010.13 9.76 9.95 9.95 0 00-10.13-9.76zm24.175 0a9.766 9.766 0 1010.13 9.76 9.952 9.952 0 00-10.129-9.76zm24.176 0a9.766 9.766 0 1010.13 9.76 9.954 9.954 0 00-10.13-9.76zm24.175 0a9.766 9.766 0 1010.128 9.76 9.953 9.953 0 00-10.127-9.76zm24.176 0a9.767 9.767 0 1010.132 9.76 9.952 9.952 0 00-10.132-9.76zm24.174 0a9.767 9.767 0 1010.134 9.76 9.947 9.947 0 00-10.134-9.76zm24.179 0a9.767 9.767 0 1010.134 9.76 9.95 9.95 0 00-10.134-9.76zm24.176 0a9.767 9.767 0 1010.132 9.76 9.95 9.95 0 00-10.132-9.76zm24.176 0A9.767 9.767 0 10978 361.164a9.953 9.953 0 00-10.135-9.764zm24.173 0a9.767 9.767 0 1010.134 9.76 9.951 9.951 0 00-10.134-9.76zm24.18 0a9.766 9.766 0 1010.13 9.76 9.95 9.95 0 00-10.131-9.76zm24.176 0a9.766 9.766 0 1010.13 9.76 9.95 9.95 0 00-10.131-9.76zm24.176 0a9.766 9.766 0 1010.128 9.76 9.952 9.952 0 00-10.13-9.76zm24.177 0a9.766 9.766 0 1010.126 9.76 9.952 9.952 0 00-10.127-9.76zm24.176 0a9.766 9.766 0 1010.13 9.76 9.953 9.953 0 00-10.131-9.76zm24.175 0a9.766 9.766 0 1010.13 9.76 9.95 9.95 0 00-10.128-9.76zm24.175 0a9.766 9.766 0 1010.128 9.76 9.952 9.952 0 00-10.129-9.76zm24.174 0a9.766 9.766 0 1010.13 9.76 9.947 9.947 0 00-10.131-9.76zm24.179 0a9.766 9.766 0 1010.126 9.76 9.95 9.95 0 00-10.127-9.76zm24.176 0a9.767 9.767 0 1010.132 9.76 9.952 9.952 0 00-10.134-9.76zm-507.697 25.793a9.768 9.768 0 1010.13 9.76 9.954 9.954 0 00-10.13-9.76zm24.179 0a9.768 9.768 0 1010.124 9.76 9.951 9.951 0 00-10.123-9.76zm24.174 0a9.768 9.768 0 1010.13 9.76 9.951 9.951 0 00-10.13-9.76zm24.175 0a9.768 9.768 0 1010.13 9.76 9.952 9.952 0 00-10.129-9.76zm24.176 0a9.768 9.768 0 1010.13 9.76 9.954 9.954 0 00-10.13-9.76zm24.175 0a9.768 9.768 0 1010.128 9.76 9.953 9.953 0 00-10.127-9.76zm24.176 0a9.768 9.768 0 1010.132 9.76 9.952 9.952 0 00-10.132-9.76zm24.174 0a9.768 9.768 0 1010.134 9.76 9.947 9.947 0 00-10.134-9.76zm24.179 0a9.768 9.768 0 1010.134 9.76 9.95 9.95 0 00-10.134-9.76zm24.176 0a9.768 9.768 0 1010.132 9.76 9.95 9.95 0 00-10.132-9.76zm24.176 0a9.768 9.768 0 1010.135 9.76 9.953 9.953 0 00-10.135-9.76zm24.173 0a9.768 9.768 0 1010.134 9.76 9.951 9.951 0 00-10.134-9.76zm24.18 0a9.768 9.768 0 1010.13 9.76 9.95 9.95 0 00-10.131-9.76zm24.176 0a9.768 9.768 0 1010.13 9.76 9.95 9.95 0 00-10.131-9.76zm24.176 0a9.768 9.768 0 1010.128 9.76 9.952 9.952 0 00-10.13-9.76zm24.177 0a9.768 9.768 0 1010.126 9.76 9.952 9.952 0 00-10.127-9.76zm24.176 0a9.768 9.768 0 1010.13 9.76 9.953 9.953 0 00-10.131-9.76zm24.175 0a9.768 9.768 0 1010.13 9.76 9.95 9.95 0 00-10.128-9.76zm24.175 0a9.768 9.768 0 1010.128 9.76 9.952 9.952 0 00-10.129-9.76zm24.174 0a9.768 9.768 0 1010.13 9.76 9.947 9.947 0 00-10.131-9.76zm24.179 0a9.768 9.768 0 1010.126 9.76 9.95 9.95 0 00-10.127-9.76zm24.176 0a9.768 9.768 0 1010.132 9.76 9.953 9.953 0 00-10.134-9.76zm-531.874 25.789a9.767 9.767 0 1010.132 9.76 9.947 9.947 0 00-10.132-9.76zm24.177 0a9.766 9.766 0 1010.13 9.76 9.952 9.952 0 00-10.13-9.76zm72.529 0a9.766 9.766 0 1010.13 9.76 9.951 9.951 0 00-10.13-9.76zm24.176 0a9.766 9.766 0 1010.13 9.76 9.952 9.952 0 00-10.131-9.76zm24.175 0a9.766 9.766 0 1010.128 9.76 9.951 9.951 0 00-10.128-9.76zm24.176 0a9.767 9.767 0 1010.132 9.76 9.951 9.951 0 00-10.133-9.76zm24.174 0a9.767 9.767 0 1010.134 9.76 9.946 9.946 0 00-10.135-9.76zm24.179 0a9.767 9.767 0 1010.134 9.76 9.949 9.949 0 00-10.135-9.76zm24.176 0a9.767 9.767 0 1010.132 9.76 9.949 9.949 0 00-10.133-9.76zm24.176 0a9.767 9.767 0 1010.134 9.76 9.951 9.951 0 00-10.135-9.76zm24.173 0a9.767 9.767 0 1010.134 9.76 9.95 9.95 0 00-10.135-9.76zm24.18 0a9.766 9.766 0 1010.13 9.76 9.949 9.949 0 00-10.132-9.76zm24.176 0a9.766 9.766 0 1010.13 9.76 9.949 9.949 0 00-10.132-9.76zm24.176 0a9.766 9.766 0 1010.128 9.76 9.951 9.951 0 00-10.131-9.76zm24.177 0a9.766 9.766 0 1010.126 9.76 9.95 9.95 0 00-10.128-9.76zm24.176 0a9.766 9.766 0 1010.13 9.76 9.952 9.952 0 00-10.132-9.76zm24.175 0a9.766 9.766 0 1010.13 9.76 9.949 9.949 0 00-10.129-9.76zm24.175 0a9.766 9.766 0 1010.128 9.76 9.951 9.951 0 00-10.13-9.76zm24.174 0a9.766 9.766 0 1010.13 9.76 9.946 9.946 0 00-10.132-9.76zm24.179 0a9.766 9.766 0 1010.126 9.76 9.949 9.949 0 00-10.128-9.76zm24.176 0a9.767 9.767 0 1010.132 9.76 9.951 9.951 0 00-10.135-9.76zm-531.875 25.789a9.767 9.767 0 1010.132 9.76 9.946 9.946 0 00-10.132-9.76zm24.177 0a9.767 9.767 0 1010.13 9.76 9.951 9.951 0 00-10.13-9.76zm48.353 0a9.767 9.767 0 1010.13 9.76 9.948 9.948 0 00-10.13-9.76zm24.175 0a9.767 9.767 0 1010.13 9.76 9.949 9.949 0 00-10.129-9.76zm24.176 0a9.767 9.767 0 1010.13 9.76 9.951 9.951 0 00-10.13-9.76zm24.175 0a9.767 9.767 0 1010.128 9.76 9.95 9.95 0 00-10.127-9.76zm24.176 0a9.767 9.767 0 1010.132 9.76 9.95 9.95 0 00-10.132-9.76zm24.174 0a9.767 9.767 0 1010.134 9.76 9.945 9.945 0 00-10.134-9.76zm24.179 0a9.767 9.767 0 1010.134 9.76 9.948 9.948 0 00-10.134-9.76zm24.176 0a9.767 9.767 0 1010.132 9.76 9.948 9.948 0 00-10.132-9.76zm24.176 0a9.767 9.767 0 1010.135 9.76 9.95 9.95 0 00-10.135-9.76zm24.173 0a9.767 9.767 0 1010.134 9.76 9.948 9.948 0 00-10.134-9.76zm24.18 0a9.767 9.767 0 1010.13 9.76 9.947 9.947 0 00-10.131-9.76zm24.176 0a9.767 9.767 0 1010.13 9.76 9.948 9.948 0 00-10.131-9.76zm24.176 0a9.767 9.767 0 1010.128 9.76 9.95 9.95 0 00-10.13-9.76zm24.177 0a9.767 9.767 0 1010.126 9.76 9.949 9.949 0 00-10.127-9.76zm24.176 0a9.767 9.767 0 1010.13 9.76 9.951 9.951 0 00-10.131-9.76zm24.175 0a9.767 9.767 0 1010.13 9.76 9.947 9.947 0 00-10.128-9.76zm24.175 0a9.767 9.767 0 1010.128 9.76 9.95 9.95 0 00-10.129-9.76zm24.174 0a9.767 9.767 0 1010.13 9.76 9.945 9.945 0 00-10.131-9.76zm-483.519 25.787a9.767 9.767 0 1010.132 9.76 9.948 9.948 0 00-10.132-9.76zm24.177 0a9.767 9.767 0 1010.13 9.76 9.954 9.954 0 00-10.13-9.76zm24.179 0a9.767 9.767 0 1010.124 9.76 9.951 9.951 0 00-10.123-9.76zm24.174 0a9.767 9.767 0 1010.13 9.76 9.951 9.951 0 00-10.13-9.76zm24.175 0a9.767 9.767 0 1010.13 9.76 9.952 9.952 0 00-10.129-9.76zm24.176 0a9.767 9.767 0 1010.13 9.76 9.954 9.954 0 00-10.13-9.76zm24.175 0a9.767 9.767 0 1010.128 9.76 9.953 9.953 0 00-10.127-9.76zm24.176 0a9.767 9.767 0 1010.132 9.76 9.952 9.952 0 00-10.132-9.76zm24.174 0a9.768 9.768 0 1010.134 9.76 9.947 9.947 0 00-10.134-9.76zm24.179 0a9.768 9.768 0 1010.134 9.76 9.95 9.95 0 00-10.134-9.76zm24.176 0a9.767 9.767 0 1010.132 9.76 9.95 9.95 0 00-10.132-9.76zm24.176 0a9.767 9.767 0 1010.135 9.76 9.953 9.953 0 00-10.135-9.76zm24.173 0a9.768 9.768 0 1010.134 9.76 9.951 9.951 0 00-10.134-9.76zm24.18 0a9.767 9.767 0 1010.13 9.76 9.95 9.95 0 00-10.131-9.76zm24.176 0a9.767 9.767 0 1010.13 9.76 9.95 9.95 0 00-10.131-9.76zm24.176 0a9.767 9.767 0 1010.128 9.76 9.952 9.952 0 00-10.13-9.76zm24.177 0a9.767 9.767 0 1010.126 9.76 9.952 9.952 0 00-10.127-9.76zm24.176 0a9.767 9.767 0 1010.13 9.76 9.953 9.953 0 00-10.131-9.76zm24.175 0a9.767 9.767 0 1010.13 9.76 9.95 9.95 0 00-10.128-9.76zm24.175 0a9.767 9.767 0 1010.128 9.76 9.952 9.952 0 00-10.129-9.76zm24.174 0a9.767 9.767 0 1010.13 9.76 9.947 9.947 0 00-10.131-9.76zm24.179 0a9.767 9.767 0 1010.126 9.76 9.95 9.95 0 00-10.127-9.76zm-507.7 25.789a9.767 9.767 0 1010.132 9.762 9.949 9.949 0 00-10.13-9.762zm24.177 0a9.767 9.767 0 1010.13 9.762 9.954 9.954 0 00-10.128-9.762zm24.179 0a9.767 9.767 0 1010.124 9.762 9.951 9.951 0 00-10.121-9.762zm24.174 0a9.767 9.767 0 1010.13 9.762 9.951 9.951 0 00-10.128-9.762zm24.175 0a9.767 9.767 0 1010.13 9.762 9.952 9.952 0 00-10.127-9.762zm24.176 0a9.767 9.767 0 1010.13 9.762 9.954 9.954 0 00-10.128-9.762zm24.175 0a9.767 9.767 0 1010.128 9.762 9.953 9.953 0 00-10.125-9.762zm24.176 0a9.767 9.767 0 1010.132 9.762 9.953 9.953 0 00-10.13-9.762zm24.174 0a9.767 9.767 0 1010.134 9.762 9.948 9.948 0 00-10.132-9.762zm24.179 0a9.767 9.767 0 1010.134 9.762 9.95 9.95 0 00-10.132-9.762zm24.176 0a9.767 9.767 0 1010.132 9.762 9.95 9.95 0 00-10.13-9.762zm24.176 0A9.767 9.767 0 10978 490.109a9.953 9.953 0 00-10.135-9.762zm24.173 0a9.767 9.767 0 1010.134 9.762 9.951 9.951 0 00-10.132-9.762zm24.18 0a9.767 9.767 0 1010.13 9.762 9.95 9.95 0 00-10.129-9.762zm24.176 0a9.767 9.767 0 1010.13 9.762 9.95 9.95 0 00-10.129-9.762zm24.176 0a9.767 9.767 0 1010.128 9.762 9.953 9.953 0 00-10.128-9.762zm24.177 0a9.767 9.767 0 1010.126 9.762 9.952 9.952 0 00-10.125-9.762zm24.176 0a9.767 9.767 0 1010.13 9.762 9.954 9.954 0 00-10.129-9.762zm24.175 0a9.767 9.767 0 1010.13 9.762 9.95 9.95 0 00-10.126-9.762zm24.175 0a9.767 9.767 0 1010.128 9.762 9.953 9.953 0 00-10.127-9.762zm24.174 0a9.767 9.767 0 1010.13 9.762 9.948 9.948 0 00-10.129-9.762zm24.179 0a9.767 9.767 0 1010.126 9.762 9.95 9.95 0 00-10.125-9.762zm-507.7 25.789a9.767 9.767 0 1010.132 9.762 9.948 9.948 0 00-10.128-9.762zm24.177 0a9.767 9.767 0 1010.13 9.762 9.953 9.953 0 00-10.126-9.762zm24.179 0a9.767 9.767 0 1010.124 9.762 9.95 9.95 0 00-10.119-9.762zm24.174 0a9.767 9.767 0 1010.13 9.762 9.95 9.95 0 00-10.126-9.762zm24.175 0a9.767 9.767 0 1010.13 9.762 9.951 9.951 0 00-10.125-9.762zm24.176 0a9.767 9.767 0 1010.13 9.762 9.953 9.953 0 00-10.126-9.762zm24.175 0a9.767 9.767 0 1010.128 9.762 9.952 9.952 0 00-10.123-9.762zm24.176 0a9.767 9.767 0 1010.132 9.762 9.952 9.952 0 00-10.128-9.762zm24.174 0a9.768 9.768 0 1010.134 9.762 9.947 9.947 0 00-10.13-9.762zm24.179 0a9.768 9.768 0 1010.134 9.762 9.949 9.949 0 00-10.13-9.762zm24.176 0a9.767 9.767 0 1010.132 9.762 9.949 9.949 0 00-10.128-9.762zm24.176 0A9.767 9.767 0 10978 515.9a9.952 9.952 0 00-10.135-9.764zm24.173 0a9.768 9.768 0 1010.134 9.762 9.95 9.95 0 00-10.13-9.762zm24.18 0a9.767 9.767 0 1010.13 9.762 9.949 9.949 0 00-10.127-9.762zm24.176 0a9.767 9.767 0 1010.13 9.762 9.949 9.949 0 00-10.127-9.762zm24.176 0a9.767 9.767 0 1010.134 9.764 9.952 9.952 0 00-10.132-9.764zm24.177 0a9.767 9.767 0 1010.126 9.762 9.951 9.951 0 00-10.123-9.762zm24.176 0a9.767 9.767 0 1010.13 9.762 9.953 9.953 0 00-10.127-9.762zm24.175 0a9.767 9.767 0 1010.13 9.762 9.949 9.949 0 00-10.124-9.762zm24.175 0a9.767 9.767 0 1010.131 9.764 9.952 9.952 0 00-10.128-9.764zm24.174 0a9.767 9.767 0 1010.13 9.762 9.947 9.947 0 00-10.127-9.762zm24.179 0a9.767 9.767 0 1010.126 9.762 9.949 9.949 0 00-10.123-9.762zm-435.164 25.791a9.766 9.766 0 1010.13 9.758 9.947 9.947 0 00-10.13-9.758zm24.175 0a9.766 9.766 0 1010.13 9.758 9.948 9.948 0 00-10.129-9.758zm24.176 0a9.766 9.766 0 1010.13 9.758 9.95 9.95 0 00-10.13-9.758zm24.175 0a9.765 9.765 0 1010.128 9.758 9.949 9.949 0 00-10.127-9.758zm24.176 0a9.766 9.766 0 1010.132 9.758 9.948 9.948 0 00-10.132-9.758zm24.174 0a9.766 9.766 0 1010.134 9.758 9.943 9.943 0 00-10.134-9.758zm24.179 0a9.766 9.766 0 1010.134 9.758 9.946 9.946 0 00-10.134-9.758zm24.176 0a9.766 9.766 0 1010.132 9.758 9.946 9.946 0 00-10.132-9.758zm24.176 0A9.766 9.766 0 10978 541.685a9.949 9.949 0 00-10.135-9.758zm24.173 0a9.766 9.766 0 1010.134 9.758 9.947 9.947 0 00-10.134-9.758zm24.18 0a9.766 9.766 0 1010.13 9.758 9.946 9.946 0 00-10.131-9.758zm24.176 0a9.766 9.766 0 1010.13 9.758 9.946 9.946 0 00-10.131-9.758zm24.176 0a9.765 9.765 0 1010.128 9.758 9.949 9.949 0 00-10.13-9.758zm24.177 0a9.765 9.765 0 1010.126 9.758 9.948 9.948 0 00-10.127-9.758zm24.176 0a9.766 9.766 0 1010.13 9.758 9.949 9.949 0 00-10.131-9.758zm24.175 0a9.766 9.766 0 1010.13 9.758 9.946 9.946 0 00-10.128-9.758zm24.175 0a9.765 9.765 0 1010.128 9.758 9.948 9.948 0 00-10.129-9.758zm48.353 0a9.765 9.765 0 1010.126 9.758 9.946 9.946 0 00-10.127-9.758zm-507.7 25.789a9.766 9.766 0 1010.132 9.758 9.944 9.944 0 00-10.13-9.758zm24.177 0a9.766 9.766 0 1010.13 9.758 9.95 9.95 0 00-10.128-9.758zm96.7 0a9.766 9.766 0 1010.13 9.758 9.949 9.949 0 00-10.124-9.758zm24.175 0a9.765 9.765 0 1010.128 9.758 9.949 9.949 0 00-10.121-9.758zm24.176 0a9.766 9.766 0 1010.132 9.758 9.948 9.948 0 00-10.126-9.758zm24.174 0a9.766 9.766 0 1010.134 9.758 9.943 9.943 0 00-10.128-9.758zm24.179 0a9.766 9.766 0 1010.134 9.758 9.946 9.946 0 00-10.128-9.758zm24.176 0a9.766 9.766 0 1010.132 9.758 9.946 9.946 0 00-10.126-9.758zm24.176 0A9.766 9.766 0 10978 567.474a9.949 9.949 0 00-10.135-9.758zm24.173 0a9.766 9.766 0 1010.134 9.758 9.947 9.947 0 00-10.128-9.758zm24.18 0a9.766 9.766 0 1010.13 9.758 9.946 9.946 0 00-10.125-9.758zm24.176 0a9.766 9.766 0 1010.13 9.758 9.946 9.946 0 00-10.125-9.758zm24.176 0a9.765 9.765 0 1010.128 9.758 9.948 9.948 0 00-10.124-9.758zm24.177 0a9.765 9.765 0 1010.126 9.758 9.948 9.948 0 00-10.121-9.758zm24.176 0a9.766 9.766 0 1010.13 9.758 9.949 9.949 0 00-10.125-9.758zm24.175 0a9.766 9.766 0 1010.13 9.758 9.946 9.946 0 00-10.122-9.758zm48.349 0a9.766 9.766 0 1010.13 9.758 9.943 9.943 0 00-10.125-9.758zm24.179 0a9.765 9.765 0 1010.126 9.758 9.946 9.946 0 00-10.121-9.758zM701.928 583.5a9.767 9.767 0 1010.132 9.763 9.949 9.949 0 00-10.132-9.763zm24.177 0a9.767 9.767 0 1010.13 9.763 9.954 9.954 0 00-10.13-9.763zm24.179 0a9.767 9.767 0 1010.124 9.763 9.952 9.952 0 00-10.123-9.763zm24.174 0a9.767 9.767 0 1010.13 9.763 9.951 9.951 0 00-10.13-9.763zm24.175 0a9.767 9.767 0 1010.13 9.763 9.952 9.952 0 00-10.129-9.763zm24.176 0a9.767 9.767 0 1010.13 9.763 9.954 9.954 0 00-10.13-9.763zm24.175 0a9.767 9.767 0 1010.128 9.763 9.953 9.953 0 00-10.127-9.763zm24.176 0a9.767 9.767 0 1010.132 9.763 9.953 9.953 0 00-10.132-9.763zm48.353 0a9.767 9.767 0 1010.134 9.763 9.951 9.951 0 00-10.134-9.763zm24.176 0a9.767 9.767 0 1010.132 9.763 9.951 9.951 0 00-10.132-9.763zm24.176 0A9.767 9.767 0 10978 593.265a9.953 9.953 0 00-10.135-9.765zm24.173 0a9.767 9.767 0 1010.134 9.763 9.951 9.951 0 00-10.134-9.763zm24.18 0a9.767 9.767 0 1010.13 9.763 9.951 9.951 0 00-10.131-9.763zm24.176 0a9.767 9.767 0 1010.13 9.763 9.951 9.951 0 00-10.131-9.763zm24.176 0a9.767 9.767 0 1010.128 9.763 9.953 9.953 0 00-10.13-9.763zm24.177 0a9.767 9.767 0 1010.126 9.763 9.952 9.952 0 00-10.127-9.763zm24.176 0a9.767 9.767 0 1010.13 9.763 9.954 9.954 0 00-10.131-9.763zm24.175 0a9.767 9.767 0 1010.13 9.763 9.951 9.951 0 00-10.128-9.763zm-435.17 25.79a9.768 9.768 0 1010.132 9.763 9.949 9.949 0 00-10.132-9.763zm24.177 0a9.768 9.768 0 1010.13 9.763 9.954 9.954 0 00-10.13-9.763zm24.179 0a9.768 9.768 0 1010.124 9.763 9.952 9.952 0 00-10.123-9.763zm24.174 0a9.768 9.768 0 1010.13 9.763 9.951 9.951 0 00-10.13-9.763zm24.175 0a9.768 9.768 0 1010.13 9.763 9.952 9.952 0 00-10.129-9.763zm48.351 0a9.768 9.768 0 1010.128 9.763 9.953 9.953 0 00-10.127-9.763zm24.176 0a9.768 9.768 0 1010.132 9.763 9.953 9.953 0 00-10.132-9.763zm24.174 0a9.768 9.768 0 1010.134 9.763 9.948 9.948 0 00-10.134-9.763zm48.355 0a9.768 9.768 0 1010.132 9.763 9.951 9.951 0 00-10.132-9.763zm24.176 0A9.768 9.768 0 10978 619.054a9.953 9.953 0 00-10.135-9.764zm24.173 0a9.768 9.768 0 1010.134 9.763 9.952 9.952 0 00-10.134-9.763zm24.18 0a9.768 9.768 0 1010.13 9.763 9.951 9.951 0 00-10.131-9.763zm24.176 0a9.768 9.768 0 1010.13 9.763 9.951 9.951 0 00-10.131-9.763zm24.176 0a9.768 9.768 0 1010.128 9.763 9.953 9.953 0 00-10.13-9.763zm24.177 0a9.768 9.768 0 1010.126 9.763 9.952 9.952 0 00-10.127-9.763zm24.176 0a9.768 9.768 0 1010.13 9.763 9.954 9.954 0 00-10.131-9.763zm24.175 0a9.768 9.768 0 1010.13 9.763 9.951 9.951 0 00-10.128-9.763zm-890.65 24.543a9.766 9.766 0 1010.13 9.76 9.951 9.951 0 00-10.13-9.76zm24.176 0a9.766 9.766 0 1010.128 9.76 9.951 9.951 0 00-10.129-9.76zm24.174 0a9.767 9.767 0 1010.132 9.76 9.947 9.947 0 00-10.13-9.76zm24.178 0a9.766 9.766 0 1010.13 9.76 9.948 9.948 0 00-10.132-9.76zm24.176 0a9.767 9.767 0 1010.132 9.76 9.95 9.95 0 00-10.134-9.76zm24.177 0a9.766 9.766 0 1010.128 9.76 9.951 9.951 0 00-10.13-9.76zm24.174 0a9.767 9.767 0 1010.134 9.76 9.948 9.948 0 00-10.137-9.76zm239.125 0a9.766 9.766 0 1010.13 9.76 9.949 9.949 0 00-10.132-9.76zm24.175 0a9.767 9.767 0 1010.132 9.76 9.95 9.95 0 00-10.135-9.76zm24.18 0a9.766 9.766 0 1010.126 9.76 9.951 9.951 0 00-10.128-9.76zM294.8 659.622a9.767 9.767 0 1010.132 9.76 9.947 9.947 0 00-10.132-9.76zm24.178 0a9.766 9.766 0 1010.13 9.76 9.948 9.948 0 00-10.134-9.76zm311.651 0a9.766 9.766 0 1010.13 9.76 9.949 9.949 0 00-10.133-9.76zm24.175 0a9.767 9.767 0 1010.132 9.76 9.95 9.95 0 00-10.136-9.76zm24.18 0a9.766 9.766 0 1010.126 9.76 9.951 9.951 0 00-10.129-9.76zm-360.01 25.791a9.766 9.766 0 1010.13 9.758 9.946 9.946 0 00-10.13-9.758zm24.176 0a9.766 9.766 0 1010.132 9.758 9.949 9.949 0 00-10.132-9.758zm24.177 0a9.765 9.765 0 1010.128 9.758 9.949 9.949 0 00-10.128-9.758zm24.174 0a9.766 9.766 0 1010.134 9.758 9.947 9.947 0 00-10.135-9.758zm24.177 0a9.766 9.766 0 1010.13 9.758 9.949 9.949 0 00-10.13-9.758zm24.176 0a9.766 9.766 0 1010.132 9.758 9.946 9.946 0 00-10.132-9.758zm190.772 0a9.766 9.766 0 1010.13 9.758 9.948 9.948 0 00-10.13-9.758zm24.175 0a9.766 9.766 0 1010.132 9.758 9.949 9.949 0 00-10.133-9.758zm24.18 0a9.765 9.765 0 1010.126 9.758 9.95 9.95 0 00-10.126-9.758zM343.15 711.2a9.766 9.766 0 1010.132 9.76 9.952 9.952 0 00-10.132-9.76zm24.177 0a9.765 9.765 0 1010.128 9.76 9.953 9.953 0 00-10.128-9.76zm24.174 0a9.766 9.766 0 1010.134 9.76 9.951 9.951 0 00-10.135-9.76zm24.177 0a9.766 9.766 0 1010.13 9.76 9.953 9.953 0 00-10.13-9.76zm24.176 0a9.766 9.766 0 1010.132 9.76 9.949 9.949 0 00-10.132-9.76zm24.177 0a9.765 9.765 0 1010.128 9.76 9.95 9.95 0 00-10.128-9.76zm24.176 0a9.765 9.765 0 1010.128 9.76 9.951 9.951 0 00-10.128-9.76zM343.15 736.987a9.767 9.767 0 1010.132 9.76 9.95 9.95 0 00-10.132-9.76zm24.177 0a9.766 9.766 0 1010.128 9.76 9.951 9.951 0 00-10.128-9.76zm24.174 0a9.767 9.767 0 1010.134 9.76 9.948 9.948 0 00-10.135-9.76zm24.177 0a9.766 9.766 0 1010.13 9.76 9.951 9.951 0 00-10.13-9.76zm24.176 0a9.767 9.767 0 1010.132 9.76 9.947 9.947 0 00-10.132-9.76zm24.177 0a9.766 9.766 0 1010.128 9.76 9.948 9.948 0 00-10.128-9.76zm24.176 0a9.766 9.766 0 1010.128 9.76 9.949 9.949 0 00-10.128-9.76zm24.176 0a9.767 9.767 0 1010.132 9.76 9.949 9.949 0 00-10.132-9.76zM343.15 762.776a9.767 9.767 0 1010.132 9.76 9.95 9.95 0 00-10.132-9.76zm24.177 0a9.766 9.766 0 1010.128 9.76 9.951 9.951 0 00-10.128-9.76zm24.174 0a9.767 9.767 0 1010.134 9.76 9.948 9.948 0 00-10.135-9.76zm24.177 0a9.766 9.766 0 1010.13 9.76 9.951 9.951 0 00-10.13-9.76zm24.176 0a9.767 9.767 0 1010.132 9.76 9.947 9.947 0 00-10.132-9.76zm24.177 0a9.766 9.766 0 1010.128 9.76 9.948 9.948 0 00-10.128-9.76zm24.176 0a9.766 9.766 0 1010.128 9.76 9.949 9.949 0 00-10.128-9.76zm24.176 0a9.767 9.767 0 1010.132 9.76 9.949 9.949 0 00-10.132-9.76zm-145.056 25.791a9.765 9.765 0 1010.128 9.758 9.949 9.949 0 00-10.128-9.758zm24.174 0a9.766 9.766 0 1010.134 9.758 9.947 9.947 0 00-10.135-9.758zm24.177 0a9.766 9.766 0 1010.13 9.758 9.949 9.949 0 00-10.13-9.758zm24.176 0a9.766 9.766 0 1010.132 9.758 9.945 9.945 0 00-10.132-9.758zm24.177 0a9.765 9.765 0 1010.128 9.758 9.946 9.946 0 00-10.128-9.758zm24.176 0a9.765 9.765 0 1010.128 9.758 9.947 9.947 0 00-10.128-9.758zm24.176 0a9.766 9.766 0 1010.132 9.758 9.947 9.947 0 00-10.132-9.758zm-145.056 25.785a9.767 9.767 0 1010.128 9.762 9.953 9.953 0 00-10.128-9.762zm24.174 0a9.768 9.768 0 1010.134 9.762 9.951 9.951 0 00-10.135-9.762zm24.177 0a9.767 9.767 0 1010.13 9.762 9.953 9.953 0 00-10.13-9.762zm24.176 0a9.767 9.767 0 1010.132 9.762 9.95 9.95 0 00-10.132-9.762zm24.177 0a9.767 9.767 0 1010.128 9.762 9.95 9.95 0 00-10.128-9.762zm24.176 0a9.767 9.767 0 1010.128 9.762 9.952 9.952 0 00-10.128-9.762zm-120.88 25.789a9.766 9.766 0 1010.128 9.76 9.951 9.951 0 00-10.128-9.76zm24.174 0a9.767 9.767 0 1010.134 9.76 9.948 9.948 0 00-10.135-9.76zm24.177 0a9.766 9.766 0 1010.13 9.76 9.951 9.951 0 00-10.13-9.76zm24.176 0a9.767 9.767 0 1010.132 9.76 9.947 9.947 0 00-10.132-9.76zm24.177 0a9.766 9.766 0 1010.128 9.76 9.948 9.948 0 00-10.128-9.76zm24.176 0a9.766 9.766 0 1010.128 9.76 9.949 9.949 0 00-10.128-9.76zm-120.88 25.789a9.768 9.768 0 1010.128 9.76 9.951 9.951 0 00-10.128-9.76zm24.174 0a9.768 9.768 0 1010.134 9.76 9.948 9.948 0 00-10.135-9.76zm24.177 0a9.768 9.768 0 1010.13 9.76 9.951 9.951 0 00-10.13-9.76zm24.176 0a9.768 9.768 0 1010.132 9.76 9.947 9.947 0 00-10.132-9.76zm24.177 0a9.768 9.768 0 1010.128 9.76 9.948 9.948 0 00-10.128-9.76zm-96.7 25.791a9.765 9.765 0 1010.128 9.758 9.949 9.949 0 00-10.132-9.758zm24.174 0a9.766 9.766 0 1010.134 9.758 9.947 9.947 0 00-10.139-9.758zm24.177 0a9.766 9.766 0 1010.13 9.758 9.949 9.949 0 00-10.134-9.758zm24.176 0a9.766 9.766 0 1010.132 9.758 9.945 9.945 0 00-10.136-9.758zm-72.531 25.789a9.765 9.765 0 1010.128 9.758 9.95 9.95 0 00-10.128-9.758zm24.174 0a9.766 9.766 0 1010.134 9.758 9.948 9.948 0 00-10.135-9.758zm24.177 0a9.766 9.766 0 1010.13 9.758 9.95 9.95 0 00-10.13-9.758zM391.5 943.3a9.768 9.768 0 1010.134 9.76 9.951 9.951 0 00-10.134-9.76zm-23.334 0a9.768 9.768 0 1010.134 9.76 9.951 9.951 0 00-10.133-9.76zm47.511 0a9.767 9.767 0 1010.13 9.76 9.953 9.953 0 00-10.129-9.76zM391.5 969.084a9.768 9.768 0 1010.134 9.76 9.951 9.951 0 00-10.134-9.76zm-23.334 0a9.768 9.768 0 1010.134 9.76 9.951 9.951 0 00-10.133-9.76zm47.511 0a9.767 9.767 0 1010.13 9.76 9.953 9.953 0 00-10.129-9.76zM391.5 994.873a9.767 9.767 0 1010.134 9.76 9.951 9.951 0 00-10.134-9.76zm24.177 0a9.766 9.766 0 1010.13 9.76 9.953 9.953 0 00-10.129-9.76zm286.249-361.04a9.767 9.767 0 1010.132 9.76 9.946 9.946 0 00-10.13-9.76zm24.177 0a9.766 9.766 0 1010.13 9.76 9.951 9.951 0 00-10.128-9.76zm24.179 0a9.766 9.766 0 1010.124 9.76 9.948 9.948 0 00-10.121-9.76zm24.174 0a9.766 9.766 0 1010.13 9.76 9.948 9.948 0 00-10.128-9.76zm24.175 0a9.766 9.766 0 1010.13 9.76 9.949 9.949 0 00-10.127-9.76zm24.176 0a9.766 9.766 0 1010.13 9.76 9.951 9.951 0 00-10.128-9.76zm48.351 0a9.767 9.767 0 1010.132 9.76 9.95 9.95 0 00-10.13-9.76zm24.174 0a9.767 9.767 0 1010.134 9.76 9.945 9.945 0 00-10.132-9.76zm72.531 0a9.767 9.767 0 1010.137 9.76 9.95 9.95 0 00-10.135-9.76zm24.173 0a9.767 9.767 0 1010.134 9.76 9.948 9.948 0 00-10.132-9.76zm24.18 0a9.766 9.766 0 1010.13 9.76 9.948 9.948 0 00-10.129-9.76zm24.176 0a9.766 9.766 0 1010.13 9.76 9.948 9.948 0 00-10.129-9.76zm24.176 0a9.766 9.766 0 1010.128 9.76 9.95 9.95 0 00-10.128-9.76zm24.177 0a9.766 9.766 0 1010.126 9.76 9.949 9.949 0 00-10.125-9.76zm24.176 0a9.766 9.766 0 1010.13 9.76 9.951 9.951 0 00-10.129-9.76zm48.351 0a9.766 9.766 0 1010.128 9.76 9.95 9.95 0 00-10.128-9.76zm-459.344 25.789a9.767 9.767 0 1010.132 9.76 9.946 9.946 0 00-10.132-9.76zm24.177 0a9.766 9.766 0 1010.13 9.76 9.951 9.951 0 00-10.13-9.76zm24.179 0a9.766 9.766 0 1010.124 9.76 9.948 9.948 0 00-10.123-9.76zm24.174 0a9.766 9.766 0 1010.13 9.76 9.948 9.948 0 00-10.13-9.76zm24.175 0a9.766 9.766 0 1010.13 9.76 9.949 9.949 0 00-10.129-9.76zm24.176 0a9.766 9.766 0 1010.13 9.76 9.951 9.951 0 00-10.13-9.76zm24.175 0a9.766 9.766 0 1010.128 9.76 9.95 9.95 0 00-10.127-9.76zm24.176 0a9.767 9.767 0 1010.132 9.76 9.95 9.95 0 00-10.132-9.76zm96.7 0a9.767 9.767 0 1010.14 9.759 9.95 9.95 0 00-10.135-9.759zm24.173 0a9.767 9.767 0 1010.134 9.76 9.948 9.948 0 00-10.129-9.76zm72.531 0a9.766 9.766 0 1010.128 9.76 9.95 9.95 0 00-10.124-9.76zm24.177 0a9.766 9.766 0 1010.126 9.76 9.949 9.949 0 00-10.121-9.76zm72.526 0a9.766 9.766 0 1010.128 9.76 9.95 9.95 0 00-10.123-9.76zm24.174 0a9.766 9.766 0 1010.13 9.76 9.945 9.945 0 00-10.125-9.76zm-483.513 25.791a9.766 9.766 0 1010.132 9.758 9.944 9.944 0 00-10.132-9.758zm24.177 0a9.766 9.766 0 1010.13 9.758 9.95 9.95 0 00-10.13-9.758zm24.179 0a9.765 9.765 0 1010.124 9.758 9.947 9.947 0 00-10.123-9.758zm24.174 0a9.766 9.766 0 1010.13 9.758 9.947 9.947 0 00-10.13-9.758zm24.175 0a9.766 9.766 0 1010.13 9.758 9.948 9.948 0 00-10.129-9.758zm24.176 0a9.766 9.766 0 1010.13 9.758 9.95 9.95 0 00-10.13-9.758zm24.175 0a9.765 9.765 0 1010.128 9.758 9.949 9.949 0 00-10.127-9.758zm24.176 0a9.766 9.766 0 1010.132 9.758 9.948 9.948 0 00-10.132-9.758zm120.878 0a9.766 9.766 0 1010.134 9.758 9.947 9.947 0 00-10.134-9.758zm72.531 0a9.765 9.765 0 1010.128 9.758 9.948 9.948 0 00-10.129-9.758zm24.177 0a9.765 9.765 0 1010.126 9.758 9.948 9.948 0 00-10.126-9.758zM726.105 711.2a9.766 9.766 0 1010.13 9.76 9.953 9.953 0 00-10.13-9.76zm24.179 0a9.765 9.765 0 1010.124 9.76 9.951 9.951 0 00-10.123-9.76zm24.174 0a9.766 9.766 0 1010.13 9.76 9.95 9.95 0 00-10.13-9.76zm24.175 0a9.766 9.766 0 1010.13 9.76 9.952 9.952 0 00-10.129-9.76zm24.176 0a9.766 9.766 0 1010.13 9.76 9.953 9.953 0 00-10.13-9.76zm24.175 0a9.765 9.765 0 1010.128 9.76 9.952 9.952 0 00-10.127-9.76zm24.176 0a9.766 9.766 0 1010.132 9.76 9.952 9.952 0 00-10.132-9.76zm193.408 0a9.765 9.765 0 1010.128 9.76 9.952 9.952 0 00-10.128-9.76zm24.177 0a9.765 9.765 0 1010.126 9.76 9.952 9.952 0 00-10.125-9.76zm24.176 0a9.766 9.766 0 1010.13 9.76 9.953 9.953 0 00-10.129-9.76zm24.175 0a9.766 9.766 0 1010.13 9.76 9.95 9.95 0 00-10.126-9.76zm24.175 0a9.765 9.765 0 1010.128 9.76 9.952 9.952 0 00-10.127-9.76zm-435.166 25.787a9.766 9.766 0 1010.13 9.76 9.951 9.951 0 00-10.13-9.76zm24.179 0a9.766 9.766 0 1010.124 9.76 9.948 9.948 0 00-10.123-9.76zm24.174 0a9.766 9.766 0 1010.13 9.76 9.948 9.948 0 00-10.13-9.76zm24.175 0a9.766 9.766 0 1010.13 9.76 9.949 9.949 0 00-10.129-9.76zm24.176 0a9.766 9.766 0 1010.13 9.76 9.951 9.951 0 00-10.13-9.76zm265.937 0a9.766 9.766 0 1010.126 9.76 9.949 9.949 0 00-10.126-9.76zm24.176 0a9.766 9.766 0 1010.13 9.76 9.951 9.951 0 00-10.13-9.76zm24.175 0a9.766 9.766 0 1010.13 9.76 9.948 9.948 0 00-10.127-9.76zm24.175 0a9.766 9.766 0 1010.128 9.76 9.95 9.95 0 00-10.128-9.76zm48.353 0a9.766 9.766 0 1010.126 9.76 9.947 9.947 0 00-10.126-9.76zm24.176 0a9.767 9.767 0 1010.132 9.76 9.95 9.95 0 00-10.133-9.76zm-507.696 25.789a9.766 9.766 0 1010.13 9.76 9.951 9.951 0 00-10.13-9.76zm24.179 0a9.766 9.766 0 1010.124 9.76 9.948 9.948 0 00-10.123-9.76zm24.174 0a9.766 9.766 0 1010.13 9.76 9.948 9.948 0 00-10.13-9.76zm24.175 0a9.766 9.766 0 1010.13 9.76 9.949 9.949 0 00-10.129-9.76zm24.176 0a9.766 9.766 0 1010.13 9.76 9.951 9.951 0 00-10.13-9.76zm386.816 0a9.766 9.766 0 1010.126 9.76 9.947 9.947 0 00-10.126-9.76zm24.176 0a9.767 9.767 0 1010.132 9.76 9.95 9.95 0 00-10.133-9.76zm-507.7 25.791a9.766 9.766 0 1010.13 9.758 9.949 9.949 0 00-10.126-9.758zm24.179 0a9.765 9.765 0 1010.124 9.758 9.947 9.947 0 00-10.119-9.758zm24.174 0a9.766 9.766 0 1010.13 9.758 9.946 9.946 0 00-10.126-9.758zm24.175 0a9.766 9.766 0 1010.13 9.758 9.948 9.948 0 00-10.125-9.758zm24.176 0a9.766 9.766 0 1010.13 9.758 9.949 9.949 0 00-10.126-9.758zm48.351 0a9.766 9.766 0 1010.132 9.758 9.948 9.948 0 00-10.128-9.758zm290.112 0a9.765 9.765 0 1010.128 9.758 9.948 9.948 0 00-10.124-9.758zm24.174 0a9.766 9.766 0 1010.13 9.758 9.943 9.943 0 00-10.126-9.758zm24.179 0a9.765 9.765 0 1010.126 9.758 9.946 9.946 0 00-10.122-9.758zm24.176 0a9.766 9.766 0 1010.132 9.758 9.948 9.948 0 00-10.129-9.758zm-507.7 25.785a9.767 9.767 0 1010.13 9.762 9.954 9.954 0 00-10.122-9.762zm24.179 0a9.767 9.767 0 1010.124 9.762 9.951 9.951 0 00-10.115-9.762zm24.174 0a9.767 9.767 0 1010.13 9.762 9.951 9.951 0 00-10.122-9.762zm24.175 0a9.767 9.767 0 1010.13 9.762 9.952 9.952 0 00-10.121-9.762zm48.351 0a9.767 9.767 0 1010.128 9.762 9.953 9.953 0 00-10.119-9.762zm24.176 0a9.767 9.767 0 1010.132 9.762 9.953 9.953 0 00-10.124-9.762zm265.937 0a9.767 9.767 0 1010.13 9.762 9.95 9.95 0 00-10.119-9.762zm24.175 0a9.767 9.767 0 1010.128 9.762 9.953 9.953 0 00-10.12-9.762zm24.174 0a9.767 9.767 0 1010.13 9.762 9.948 9.948 0 00-10.122-9.762zm24.179 0a9.767 9.767 0 1010.126 9.762 9.95 9.95 0 00-10.118-9.762zm24.176 0a9.767 9.767 0 1010.132 9.762 9.953 9.953 0 00-10.125-9.762zm-483.508 25.789a9.766 9.766 0 1010.124 9.76 9.948 9.948 0 00-10.124-9.76zm24.174 0a9.766 9.766 0 1010.13 9.76 9.948 9.948 0 00-10.131-9.76zm24.175 0a9.766 9.766 0 1010.13 9.76 9.949 9.949 0 00-10.13-9.76zm48.351 0a9.766 9.766 0 1010.128 9.76 9.95 9.95 0 00-10.128-9.76zm24.176 0a9.767 9.767 0 1010.132 9.76 9.95 9.95 0 00-10.133-9.76zm241.761 0a9.766 9.766 0 1010.13 9.76 9.951 9.951 0 00-10.13-9.76zm24.175 0a9.766 9.766 0 1010.13 9.76 9.947 9.947 0 00-10.127-9.76zm24.175 0a9.766 9.766 0 1010.128 9.76 9.95 9.95 0 00-10.128-9.76zm24.174 0a9.766 9.766 0 1010.13 9.76 9.945 9.945 0 00-10.13-9.76zm24.179 0a9.766 9.766 0 1010.126 9.76 9.947 9.947 0 00-10.126-9.76zm24.176 0a9.767 9.767 0 1010.132 9.76 9.95 9.95 0 00-10.133-9.76zM750.285 865.93a9.768 9.768 0 1010.124 9.76 9.948 9.948 0 00-10.124-9.76zm24.174 0a9.768 9.768 0 1010.13 9.76 9.948 9.948 0 00-10.131-9.76zm24.175 0a9.768 9.768 0 1010.13 9.76 9.949 9.949 0 00-10.13-9.76zm314.288 0a9.768 9.768 0 1010.13 9.76 9.951 9.951 0 00-10.13-9.76zm24.175 0a9.768 9.768 0 1010.13 9.76 9.947 9.947 0 00-10.127-9.76zm24.175 0a9.768 9.768 0 1010.128 9.76 9.95 9.95 0 00-10.128-9.76zm24.174 0a9.768 9.768 0 1010.13 9.76 9.945 9.945 0 00-10.13-9.76zm24.179 0a9.768 9.768 0 1010.126 9.76 9.947 9.947 0 00-10.126-9.76zm24.176 0a9.768 9.768 0 1010.132 9.76 9.95 9.95 0 00-10.133-9.76zm-483.516 25.791a9.765 9.765 0 1010.124 9.758 9.947 9.947 0 00-10.124-9.758zm24.174 0a9.766 9.766 0 1010.13 9.758 9.946 9.946 0 00-10.131-9.758zm435.167 0a9.765 9.765 0 1010.126 9.758 9.946 9.946 0 00-10.127-9.758zm24.176 0a9.766 9.766 0 1010.132 9.758 9.948 9.948 0 00-10.134-9.758zm-.002 25.789a9.766 9.766 0 1010.132 9.758 9.95 9.95 0 00-10.132-9.758z" fill="url(#a)" opacity=".62" transform="translate(-42.908 -248.25)"/><g stroke-width="2"><path d="M644.532 565.529a20.637 20.637 0 0123.618-17.404 21.018 21.018 0 0116.993 24.188 20.637 20.637 0 01-23.618 17.404 21.018 21.018 0 01-16.993-24.188z" fill="#fff" stroke="#00b49c"/><path d="M659.987 557.49a12.931 12.931 0 0116.672 6.74 12.222 12.222 0 01-6.967 16.128 12.931 12.931 0 01-16.673-6.74 12.222 12.222 0 016.968-16.128z" fill="#fb9125" stroke="#ff931e"/><path d="M1152.892 586.428a20.637 20.637 0 0123.618-17.404 21.018 21.018 0 0116.993 24.188 20.637 20.637 0 01-23.618 17.404 21.018 21.018 0 01-16.993-24.188z" fill="#fff" stroke="#00b49c"/><path d="M1168.347 578.389a12.931 12.931 0 0116.672 6.74 12.222 12.222 0 01-6.967 16.128 12.931 12.931 0 01-16.673-6.74 12.222 12.222 0 016.968-16.128z" fill="#fb9125" stroke="#ff931e"/><path d="M1021.697 187.453a20.637 20.637 0 0123.618-17.404 21.018 21.018 0 0116.993 24.188 20.637 20.637 0 01-23.618 17.404 21.018 21.018 0 01-16.993-24.188z" fill="#fff" stroke="#00b49c"/><path d="M1037.152 179.414a12.931 12.931 0 0116.672 6.74 12.222 12.222 0 01-6.967 16.128 12.931 12.931 0 01-16.673-6.74 12.222 12.222 0 016.968-16.128z" fill="#fb9125" stroke="#ff931e"/><circle cx="20.511" cy="20.511" fill="#fff" r="20.511" stroke="#00b49c" stroke-miterlimit="10" transform="rotate(-80.73 85.518 9.453)"/><path d="M80.717 62.609a13.825 13.825 0 11-7.539 18.04 13.825 13.825 0 017.54-18.04z" fill="#fb9125" stroke="#ff931e"/></g></svg>