<svg height="512" viewBox="0 0 32.885 32.885" width="512" xmlns="http://www.w3.org/2000/svg"><g fill="#fff"><path d="M30.799 29.966H2.088A2.09 2.09 0 010 27.878V8.69a2.09 2.09 0 012.088-2.086h28.711c1.15 0 2.086.936 2.086 2.086v19.188a2.09 2.09 0 01-2.086 2.088zM2.088 7.604C1.488 7.604 1 8.092 1 8.69v19.188c0 .6.488 1.088 1.088 1.088h28.711c.599 0 1.086-.488 1.086-1.088V8.69c0-.599-.487-1.086-1.086-1.086z"/><path d="M21.628 25.007a6.73 6.73 0 01-6.723-6.723c0-3.706 3.016-6.721 6.723-6.721s6.722 3.015 6.722 6.721a6.73 6.73 0 01-6.722 6.723zm0-12.444c-3.155 0-5.723 2.566-5.723 5.721s2.567 5.723 5.723 5.723a5.729 5.729 0 005.722-5.723 5.728 5.728 0 00-5.722-5.721zM11.237 7.604h-6.02a.5.5 0 01-.5-.5V3.419a.5.5 0 01.5-.5h6.021a.5.5 0 01.5.5v3.686a.5.5 0 01-.501.499zm-5.52-1h5.021V3.919H5.717zm-.5 18.672a.5.5 0 01-.5-.5V12.063a.5.5 0 011 0v12.713a.5.5 0 01-.5.5z"/><path d="M21.628 19.943c-.915 0-1.658-.744-1.658-1.658s.744-1.657 1.658-1.657 1.657.744 1.657 1.657a1.659 1.659 0 01-1.657 1.658zm0-2.316a.658.658 0 100 1.317.658.658 0 000-1.317z"/></g></svg>