<svg viewBox="0 0 512 512" xmlns="http://www.w3.org/2000/svg"><path d="M467 0H45C20.099 0 0 20.099 0 45v422c0 24.901 20.099 45 45 45h422c24.901 0 45-20.099 45-45V45c0-24.901-20.099-45-45-45z" fill="#19cffc"/><path d="M512 45v422c0 24.901-20.099 45-45 45H256V0h211c24.901 0 45 20.099 45 45z" fill="#1ea1e3"/><path d="M467 30H45c-8.401 0-15 6.599-15 15v422c0 8.401 6.599 15 15 15h422c8.401 0 15-6.599 15-15V45c0-8.401-6.599-15-15-15z" fill="#053791"/><path d="M482 45v422c0 8.401-6.599 15-15 15H256V30h211c8.401 0 15 6.599 15 15z" fill="#1b2868"/><path d="M256 151.3C242.5 133 220.6 121 196 121h-90c-8.401 0-15 6.599-15 15v240c0 8.401 6.599 15 15 15s15-6.599 15-15V271h75c24.6 0 46.199-11.7 60-30 9.3-12.299 15-28.2 15-45s-5.4-32.401-15-44.7zM196 241h-75v-90h75c24.901 0 45 20.099 45 45s-20.099 45-45 45z" fill="#19cffc"/><path d="M361 391c-33.091 0-60-26.909-60-60 0-8.291 6.709-15 15-15s15 6.709 15 15c0 16.538 13.462 30 30 30s30-13.462 30-30-13.462-30-30-30c-33.091 0-60-26.909-60-60s26.909-60 60-60 60 26.909 60 60c0 8.291-6.709 15-15 15s-15-6.709-15-15c0-16.538-13.462-30-30-30s-30 13.462-30 30 13.462 30 30 30c33.091 0 60 26.909 60 60s-26.909 60-60 60zm-90-195c0 16.8-5.7 32.701-15 45v-89.7c9.6 12.299 15 27.9 15 44.7z" fill="#1ea1e3"/></svg>