<svg viewBox="0 0 512 512" xmlns="http://www.w3.org/2000/svg"><path d="M256 38C135.602 38 38 135.602 38 256s97.602 218 218 218 218-97.602 218-218c.066-120.332-97.428-217.934-217.76-218H256zm56.44 315.76H199.56L143.12 256l56.44-97.76h112.88L368.88 256z" fill="#b1ffff"/><path d="M256 0C114.51 0 0 114.5 0 256s114.5 256 256 256 256-114.5 256-256S397.5 0 256 0zm51.82 345.76H204.18L152.36 256l51.82-89.76h103.64L359.64 256zm18.48-179.52h152.41c29.579 73.797 20.834 157.437-23.37 223.52zm145.26-16H213.42l76.16-131.91C371 29.66 437.79 81.55 471.56 150.24zM256 16c5.413 0 10.79.183 16.13.55L143.12 240 67 108.09C111.29 51.67 179.21 16 256 16zM56.66 122.24l129 223.52H33.29C3.711 271.963 12.456 188.323 56.66 122.24zM40.44 361.76h258.14l-76.16 131.91C141 482.34 74.21 430.45 40.44 361.76zM256 496c-5.413 0-10.79-.183-16.13-.55L368.88 272 445 403.91C400.71 460.33 332.79 496 256 496z" fill="#304ffe"/></svg>