<svg height="512" viewBox="0 0 464 464" width="512" xmlns="http://www.w3.org/2000/svg"><g fill="#fff"><path d="M376 256h-92.688L256 228.688V208h8c13.232 0 24-10.768 24-24v-32c0-13.232-10.768-24-24-24h-8v-16h40c13.232 0 24-10.768 24-24V24c0-13.232-10.768-24-24-24H104C90.768 0 80 10.768 80 24v64c0 13.232 10.768 24 24 24h40v16h-8c-13.232 0-24 10.768-24 24v32c0 13.232 10.768 24 24 24h8v20.688L116.688 256H88c-22.056 0-40 17.944-40 40v128c0 22.056 17.944 40 40 40h288c22.056 0 40-17.944 40-40V296c0-22.056-17.944-40-40-40zM104 96c-4.416 0-8-3.584-8-8V24c0-4.416 3.584-8 8-8h192c4.416 0 8 3.584 8 8v64c0 4.416-3.584 8-8 8H152zm32 96c-4.416 0-8-3.584-8-8v-32c0-4.416 3.584-8 8-8h16c4.424 0 8-3.576 8-8v-24h80v24c0 4.424 3.576 8 8 8h16c4.416 0 8 3.584 8 8v32c0 4.416-3.584 8-8 8h-16c-4.424 0-8 3.576-8 8v24h-80v-24c0-4.424-3.576-8-8-8zm19.312 48h89.376l16 16H139.312zM400 424c0 13.232-10.768 24-24 24H88c-13.232 0-24-10.768-24-24V296c0-13.232 10.768-24 24-24h288c13.232 0 24 10.768 24 24z"/><path d="M248 160h-96c-4.424 0-8 3.576-8 8s3.576 8 8 8h96c4.424 0 8-3.576 8-8s-3.576-8-8-8zm5.656 162.344l-32-32A7.965 7.965 0 00216 288h-64c-2.128 0-4.16.84-5.656 2.344l-32 32A7.965 7.965 0 00112 328v96c0 4.424 3.576 8 8 8h128c4.424 0 8-3.576 8-8v-96c0-2.128-.84-4.16-2.344-5.656zM240 416H128v-84.688L155.312 304h57.376L240 331.312z"/><path d="M152 320c-4.424 0-8 3.576-8 8v64c0 4.424 3.576 8 8 8s8-3.576 8-8v-64c0-4.424-3.576-8-8-8zm64 0c-4.424 0-8 3.576-8 8v64c0 4.424 3.576 8 8 8s8-3.576 8-8v-64c0-4.424-3.576-8-8-8zm96 0c-22.056 0-40 17.944-40 40s17.944 40 40 40 40-17.944 40-40-17.944-40-40-40zm0 64c-13.232 0-24-10.768-24-24s10.768-24 24-24 24 10.768 24 24-10.768 24-24 24zm32 32h-64c-4.424 0-8 3.576-8 8s3.576 8 8 8h64c4.424 0 8-3.576 8-8s-3.576-8-8-8z"/></g></svg>