<svg viewBox="0 0 69 115" xmlns="http://www.w3.org/2000/svg"><path d="M68.998 49.22c-.001 2.936-1.646 5.802-4.397 7.847L40.166 76.221c8.395 2.463 14.53 10.252 14.53 19.484C54.695 106.913 45.652 116 34.5 116s-20.195-9.086-20.195-20.294c0-9.242 6.146-17.04 14.556-19.492L4.337 57.016C1.276 54.376-.002 52.146 0 49.22V8.275C.002 4.755 3.81.996 7.309.999h54.382c3.5.004 7.309 3.76 7.307 7.276v20.817c.002 11.831.002 16.38 0 20.128" fill="#fff"/><path d="M62.268 48.351c0 1.578-.954 3.26-2.692 4.566l-22.488 17.85c-1.553 1.23-3.59 1.232-5.138 0L9.456 52.945c-2.043-1.787-2.724-2.995-2.724-4.591V11.147c0-1.405 1.98-3.384 3.364-3.382h48.806c1.387.001 3.366 1.978 3.366 3.382v18.918c.002 10.747.002 14.882 0 18.286m3.366-18.288v-.783c-.002-9.878-.002-14.48 0-18.131.002-3.278-3.489-6.763-6.73-6.767H10.098c-3.24-.003-6.73 3.488-6.732 6.765v37.206c-.002 2.706 1.166 4.77 3.945 7.196l22.553 17.874c2.77 2.202 6.533 2.2 9.31-.002L61.628 55.6c2.504-1.884 4.003-4.531 4.005-7.247.002-3.406.002-7.54 0-18.29M34.5 109.235c-7.435 0-13.463-6.057-13.463-13.53 0-7.47 6.028-13.529 13.463-13.529s13.463 6.058 13.463 13.53c0 7.472-6.028 13.53-13.463 13.53m0-30.442c-9.295 0-16.83 7.572-16.83 16.912s7.535 16.912 16.83 16.912 16.83-7.572 16.83-16.912-7.535-16.912-16.83-16.912" fill="#484848"/><path d="M10.394 49.44l48.509-38.294v38.052L34.45 68.442zm34.067 50.02c-1.483 4.11-5.305 7.054-9.83 7.054-5.806 0-10.511-4.825-10.511-10.772a10.83 10.83 0 014.56-8.87z" fill="#ffb400"/><path d="M34.451 68.647L10.097 49.199V11.147l48.805 38.052z" fill="#ff5a5f"/></svg>