<svg viewBox="0 0 30.12 2.27" xmlns="http://www.w3.org/2000/svg"><path d="M21.78 2.22l.55-.06a14.25 14.25 0 012.29 0h1.99a.07.07 0 00.07-.07.07.07 0 00-.06-.09H26l-1.63-.1h-.12a.79.79 0 01-.29 0 2.33 2.33 0 01.37 0h1.51a.19.19 0 00.25-.14.08.08 0 000-.06h-.28l-.64-.07h-.71a1.36 1.36 0 01.28 0h2.82a.9.9 0 00.44 0 1.37 1.37 0 01.49-.06 2.08 2.08 0 00.34 0h.1a.48.48 0 00.24-.06.77.77 0 01.45-.1h.44a.08.08 0 000-.05v-.14a.07.07 0 00-.06-.07h-.24a3.37 3.37 0 01-.51-.05 6.89 6.89 0 00-1.53-.17.19.19 0 01-.11 0 .33.33 0 00-.36-.14H25.6c-.39 0-1 0-1.58-.08s-.93-.08-1.44-.17a2.66 2.66 0 00-.77-.06h-.23a1.57 1.57 0 01-1-.07.37.37 0 00-.49.09.17.17 0 01-.12 0h-.15a1.18 1.18 0 00-.6 0h-.14L19 .49a.38.38 0 00-.2 0 2.72 2.72 0 01-.7 0 2.06 2.06 0 00-1 .07h-2.89a4.59 4.59 0 01-1.47-.3 2.11 2.11 0 00-.57-.12L10.45.05H9.21C9 0 8.84 0 8.65 0H6.89C6 .11 5 .11 4.11.1H4a13.07 13.07 0 00-2.57.28c-.08 0-.22 0-.22.21a.37.37 0 000 .05L1.14.7a1.17 1.17 0 01-.32.09l-.5.03H.06A.07.07 0 000 .89.07.07 0 000 1l.3.15.54.28a3.71 3.71 0 001.65.43h.57a5.84 5.84 0 01.63 0L6.17 2h1a7.41 7.41 0 001.94.11l.89-.05c.42 0 .86-.06 1.29-.07h4.95c1 0 2.11 0 3.2.09.36 0 .72.07 1.07.12l.52.07a1.22 1.22 0 00.27 0z" fill="#c6c09c"/></svg>