<svg xmlns="http://www.w3.org/2000/svg" xmlns:xlink="http://www.w3.org/1999/xlink" width="817.517" height="536.07"><defs><radialGradient id="a" cx=".5" cy=".5" r=".5" gradientTransform="matrix(-1.001 0 0 1 -337.483 0)" gradientUnits="objectBoundingBox"><stop offset="0" stop-color="#fff"/><stop offset=".193" stop-color="#fafafa"/><stop offset=".417" stop-color="#ececec"/><stop offset=".656" stop-color="#d4d4d4"/><stop offset=".905" stop-color="#b4b4b4"/><stop offset="1" stop-color="#a6a6a6"/></radialGradient><radialGradient id="d" cx=".5" cy=".5" r=".5" gradientTransform="matrix(-1.001 0 0 1 -400.42 0)" xlink:href="#a"/><linearGradient id="b" x1="-200.554" y1=".5" x2="-199.554" y2=".5" gradientUnits="objectBoundingBox"><stop offset="0" stop-color="#3d342b"/><stop offset="1" stop-color="#291c17"/></linearGradient><linearGradient id="c" x1="-200.54" y1=".5" x2="-199.54" y2=".5" xlink:href="#b"/></defs><g data-name="Group 71"><g data-name="Group 8"><g data-name="Group 7" opacity=".3"><g data-name="Group 6"><path data-name="Path 131" d="M271.321 188.731c31.46-22.265 40.471-63.647 20.12-92.419s-67.163-25.744-98.623-3.47-35.721 55.345-15.353 84.108c20.37 28.781 62.378 34.045 93.856 11.781z" fill="#bdd1e9"/></g><path data-name="Path 132" d="M808.884 528.523a180.306 180.306 0 00-6.471-106.8c-20.765-55.115-56.357-73.146-73.772-119.369a180.047 180.047 0 01-7.86-100.077c-.111-.1-.212-.193-.322-.276A180.983 180.983 0 00476.713 11.688c-96.561 36.394-110.938 121.036-111.186 121.054a155.881 155.881 0 01-97.15 111.536c-51.7 19.495-86.041 9.112-128.647 25.173C34.958 308.92-19.853 422.96 12.849 528.523z" fill="#bdd1e9"/></g></g><path data-name="Path 133" d="M817.517 527.611c0 4.676-183.007 8.459-408.759 8.459-225.77 0-408.759-3.783-408.759-8.459s182.989-8.45 408.759-8.45c225.752.001 408.759 3.784 408.759 8.45z" fill="#bdd1e9" opacity=".4" style="mix-blend-mode:multiply;isolation:isolate"/><g data-name="Group 9" fill="#25a9e0"><path data-name="Path 134" d="M404.644 47.437c-38 17.718-113.166 66.878-120.538 179.537a42.286 42.286 0 00-62.055-2.053c12.637-93.054 88.71-166.899 182.593-177.484z"/><path data-name="Path 135" d="M413.342 49.895c-19.863 20.268-56.7 72.216-58.585 178.064a42.5 42.5 0 00-64.687-1.141c7.98-115.872 89.382-162.472 123.272-176.923z"/><path data-name="Path 136" d="M393.065 212.524a42.657 42.657 0 00-32.4 14.616c2.448-119.148 50.945-168.63 64.577-180.2l-.092 180.2a42.792 42.792 0 00-32.085-14.616z"/><path data-name="Path 137" d="M431.133 47.345c14.138 12.242 61.466 61.871 63.767 179.473a41.988 41.988 0 00-63.675.644l-.249-.074z"/><path data-name="Path 138" d="M500.893 228.529c-1.657-106.18-38.492-158.285-58.355-178.552 33.9 14.441 115.3 61.217 123.014 177.162a41.975 41.975 0 00-64.659 1.39z"/><path data-name="Path 139" d="M633.976 225.253a42.353 42.353 0 00-62.46 2.458C564.549 114.554 489.24 65.237 451.144 47.437c94.223 10.5 170.37 84.6 182.832 177.816z"/></g><path data-name="Path 140" d="M633.976 225.254c-12.462-93.22-88.609-167.314-182.832-177.816 38.1 17.8 113.405 67.117 120.373 180.273a42.353 42.353 0 0162.46-2.458zm-139.075 1.565c-2.3-117.6-49.629-167.231-63.767-179.473l-.156 180.043.249.074a41.988 41.988 0 0163.675-.644zM442.538 49.978c19.863 20.268 56.7 72.373 58.355 178.552a41.975 41.975 0 0164.659-1.39c-7.713-115.945-89.115-162.721-123.014-177.162zm-158.432 177c7.373-112.663 82.534-161.818 120.538-179.54-93.886 10.585-169.955 84.43-182.593 177.484a42.286 42.286 0 0162.055 2.053zm70.652.985c1.887-105.848 38.722-157.8 58.585-178.064-33.89 14.451-115.292 61.051-123.272 176.923a42.5 42.5 0 0164.687 1.138zm70.485-181.022c-13.631 11.57-62.128 61.051-64.577 180.2a42.87 42.87 0 0164.485 0zm-5.5 187.25a34.2 34.2 0 00-58.355 8.044c-1.307 3.194-6.627 3.194-8.035 0a34.223 34.223 0 00-62.432-1.565 4.343 4.343 0 01-3.792 2.375h-.171a4.261 4.261 0 01-3.912-2.448 33.981 33.981 0 00-30.8-19.448 34.371 34.371 0 00-32.067 22.477 4.435 4.435 0 01-5.016 2.8 4.357 4.357 0 01-3.452-4.51C217.21 130.8 308.858 41.197 420.641 37.424a2.388 2.388 0 01.81-.166h.249s1.813-32.988 6.489-32.988c4.749 0 6.489 32.988 6.489 32.988h.239a5.018 5.018 0 011.077.166c111.675 4.022 203.082 93.791 208.4 204.9a4.5 4.5 0 01-3.516 4.5 3.719 3.719 0 01-.9.083 4.391 4.391 0 01-4.1-2.863 34.113 34.113 0 00-63.122-2.807 4.477 4.477 0 01-3.939 2.467 4.288 4.288 0 01-3.93-2.467 34.237 34.237 0 00-62.294.341 4.218 4.218 0 01-3.939 2.54 4.436 4.436 0 01-4-2.54 34.39 34.39 0 00-31.196-20.273 33.956 33.956 0 00-26.747 13.217 4.353 4.353 0 01-3.433 1.648h-.58l.58 153.821a8.556 8.556 0 013.939 7.06l-.092 71.3c0 15.021-11.809 27.244-26.333 27.162-14.534 0-26.269-12.223-26.269-27.245v-32.174a8.62 8.62 0 0117.24 0l-.074 32.178c0 5.578 4.105 10.1 9.1 10.1 5.081 0 9.186-4.519 9.186-10.1l.083-71.222a8.339 8.339 0 013.939-7.06l-.659-153.82a4.38 4.38 0 01-3.599-1.979z" fill="#00a0c6"/><path data-name="Path 141" d="M424.001 389.981a8.4 8.4 0 00-3.958 7.032l-.083 71.3c0 5.568-4.105 10.079-9.158 10.079-5.025 0-9.112-4.51-9.112-10.088l.037-32.15a8.583 8.583 0 00-17.166-.028l-.055 32.159c0 15.021 11.79 27.263 26.287 27.272 14.524.009 26.333-12.214 26.333-27.235l.074-71.277a8.506 8.506 0 00-3.921-7.041l-.617-153.811-9.287-.009z" fill="#292f61"/><path data-name="Path 142" d="M434.678 37.248s-1.684-32.96-6.452-32.96c-4.749 0-6.563 32.988-6.563 32.988l13.254-.018a1.927 1.927 0 01-.239-.01z" fill="#292f61"/><g data-name="Group 29"><g data-name="Group 10"><path data-name="Rectangle 191" d="M154.207 173.467h111.234a.865.865 0 01.865.865v156.269a.865.865 0 01-.865.865H154.206a.865.865 0 01-.865-.865V174.333a.866.866 0 01.866-.866z" fill="#2b2161"/><path data-name="Path 143" d="M259.746 298.392l-23.047 21.263H160.28v-140.59h99.466z" fill="#fff"/><path data-name="Path 144" d="M222.751 162.49a12.829 12.829 0 00-25.44 0h-16.936v19.948h59.293V162.49zm-12.729 9.839a8.109 8.109 0 118.109-8.109 8.1 8.1 0 01-8.109 8.109z" fill="#25a9e0"/><path data-name="Path 145" d="M259.741 298.392h-23.149l.108 21.263z" fill="#aeb7c0"/></g><g data-name="Group 16"><g data-name="Group 11"><path data-name="Path 146" d="M197.597 276.051a1.652 1.652 0 000 3.3h27.99a1.652 1.652 0 100-3.3z" fill="#679ce0"/></g><g data-name="Group 12"><path data-name="Path 147" d="M231.505 276.051a1.652 1.652 0 100 3.3h17.166a1.652 1.652 0 000-3.3z" fill="#679ce0"/></g><g data-name="Group 13"><path data-name="Path 148" d="M196.574 284.881a1.652 1.652 0 000 3.3h11.091a1.652 1.652 0 100-3.3z" fill="#679ce0"/></g><g data-name="Group 14"><path data-name="Path 149" d="M214.79 284.881a1.652 1.652 0 100 3.3h33.841a1.652 1.652 0 100-3.3z" fill="#679ce0"/></g><g data-name="Group 15"><path data-name="Path 150" d="M186.45 269.268s-7.943 11.284-10.585 15.058c-1.638-2.375-3.718-5.384-3.718-5.384a2.203 2.203 0 00-3.631 2.494l5.523 7.989a2.184 2.184 0 003.627.018l12.407-17.635a2.24 2.24 0 00-.543-3.083 2.2 2.2 0 00-3.08.543z" fill="#679ce0"/></g></g><g data-name="Group 22"><g data-name="Group 17"><path data-name="Path 151" d="M197.597 241.121a1.657 1.657 0 000 3.314h27.99a1.657 1.657 0 100-3.314z" fill="#679ce0"/></g><g data-name="Group 18"><path data-name="Path 152" d="M231.505 241.121a1.657 1.657 0 000 3.314h17.166a1.657 1.657 0 000-3.314z" fill="#679ce0"/></g><g data-name="Group 19"><path data-name="Path 153" d="M196.574 249.946a1.657 1.657 0 000 3.314h11.091a1.657 1.657 0 000-3.314z" fill="#679ce0"/></g><g data-name="Group 20"><path data-name="Path 154" d="M214.79 249.946a1.657 1.657 0 000 3.314h33.841a1.657 1.657 0 100-3.314z" fill="#679ce0"/></g><g data-name="Group 21"><path data-name="Path 155" d="M186.45 234.347s-7.943 11.275-10.585 15.058c-1.638-2.365-3.718-5.394-3.718-5.394a2.207 2.207 0 00-3.636 2.5l5.523 8a2.22 2.22 0 003.627.018l12.407-17.654a2.231 2.231 0 00-.543-3.074 2.2 2.2 0 00-3.075.546z" fill="#679ce0"/></g></g><g data-name="Group 28"><g data-name="Group 23"><path data-name="Path 156" d="M197.597 207.673a1.652 1.652 0 000 3.3h27.99a1.652 1.652 0 100-3.3z" fill="#679ce0"/></g><g data-name="Group 24"><path data-name="Path 157" d="M231.505 207.673a1.652 1.652 0 100 3.3h17.166a1.652 1.652 0 000-3.3z" fill="#679ce0"/></g><g data-name="Group 25"><path data-name="Path 158" d="M196.574 216.5a1.652 1.652 0 000 3.3h11.091a1.652 1.652 0 100-3.3z" fill="#679ce0"/></g><g data-name="Group 26"><path data-name="Path 159" d="M214.79 216.5a1.652 1.652 0 100 3.3h33.841a1.652 1.652 0 100-3.3z" fill="#679ce0"/></g><g data-name="Group 27"><path data-name="Path 160" d="M186.45 200.888s-7.943 11.284-10.585 15.058c-1.638-2.365-3.718-5.394-3.718-5.394a2.207 2.207 0 00-3.636 2.5l5.523 8a2.208 2.208 0 003.627.018l12.407-17.644a2.21 2.21 0 00-3.617-2.54z" fill="#679ce0"/></g></g></g><g data-name="Group 32"><path data-name="Path 161" d="M576.477 170.59l-.009-8.376-3.148-1.427c-6.829-3.083-31.119-13.144-57.784-13.144-26.637 0-50.945 10.06-57.756 13.144l-3.166 1.417-.037 16.1c0 26.186 1.132 53.384 14.653 73.1 14.671 21.418 35.454 34.332 43.7 38.869l2.6 1.445 2.6-1.445c8.265-4.538 29.048-17.442 43.738-38.869 13.493-19.715 14.644-46.914 14.644-73.091z" fill="#fff"/><path data-name="Path 162" d="M460.007 165.693c-.018 1.859-.055 12.628-.055 12.628 0 25.321 1.068 51.6 13.724 70.035 14.23 20.783 34.764 33.3 41.861 37.213 7.106-3.9 27.631-16.42 41.888-37.213 12.637-18.436 13.7-44.714 13.7-70.044l-.018-7.713s-.009-2.964-.009-4.906c-6.13-2.78-29.794-12.665-55.557-12.665-25.749 0-49.422 9.885-55.534 12.665z" fill="#ffbf00"/><g data-name="Group 31"><g data-name="Group 30"><path data-name="Path 163" d="M531.772 188.648s-15.978 20.241-23.061 29.224a2770.268 2770.268 0 00-9.149-9.536 7.583 7.583 0 00-10.951 10.493l15.168 15.813a7.655 7.655 0 005.863 2.329 7.554 7.554 0 005.569-2.863l28.441-36.044a7.581 7.581 0 00-11.88-9.416z" fill="#fff"/></g></g></g><g data-name="Group 34"><g data-name="Group 33"><path data-name="Path 164" d="M317.343 288.477a11.487 11.487 0 1011.487-11.5 11.5 11.5 0 00-11.487 11.5zm4.409 0a7.092 7.092 0 117.078 7.1 7.082 7.082 0 01-7.078-7.1z" fill="#bdd1e9"/></g></g><g data-name="Group 36"><g data-name="Group 35"><path data-name="Path 165" d="M89.667 345.525a11.5 11.5 0 1011.505-11.5 11.515 11.515 0 00-11.505 11.5zm4.4 0a7.092 7.092 0 117.106 7.087 7.108 7.108 0 01-7.106-7.087z" fill="#bdd1e9"/></g></g><g data-name="Group 40"><g data-name="Group 39"><g data-name="Group 37"><path data-name="Path 166" d="M76.468 221.305a2.209 2.209 0 000 4.418h22.044a2.209 2.209 0 000-4.418z" fill="#bdd1e9"/></g><g data-name="Group 38"><path data-name="Path 167" d="M107.947 221.305a2.209 2.209 0 000 4.418h4.05a2.209 2.209 0 000-4.418z" fill="#bdd1e9"/></g></g></g><g data-name="Group 44"><g data-name="Group 43"><g data-name="Group 41"><path data-name="Path 168" d="M599.673 415.605a2.204 2.204 0 000 4.409h22.049a2.204 2.204 0 100-4.409z" fill="#bdd1e9"/></g><g data-name="Group 42"><path data-name="Path 169" d="M631.188 415.605a2.204 2.204 0 100 4.409h4.022a2.204 2.204 0 000-4.409z" fill="#bdd1e9"/></g></g></g><g data-name="Group 48"><g data-name="Group 47"><g data-name="Group 45"><path data-name="Path 170" d="M657.345 146.281a2.204 2.204 0 100 4.409h22.053a2.204 2.204 0 100-4.409z" fill="#bdd1e9"/></g><g data-name="Group 46"><path data-name="Path 171" d="M688.833 146.281a2.204 2.204 0 100 4.409h4.05a2.204 2.204 0 000-4.409z" fill="#bdd1e9"/></g></g></g><path data-name="Path 172" d="M478.131 292.159h-5.642v-5.642a2.204 2.204 0 10-4.409 0v5.642h-5.642a2.209 2.209 0 000 4.418h5.643v5.642a2.204 2.204 0 004.409 0v-5.646h5.642a2.209 2.209 0 100-4.418z" fill="#bdd1e9"/><path data-name="Path 173" d="M222.208 102.35h-5.645v-5.651a2.204 2.204 0 00-4.409 0v5.651h-5.642a2.204 2.204 0 100 4.409h5.642v5.642a2.204 2.204 0 104.409 0v-5.642h5.642a2.204 2.204 0 100-4.409z" fill="#bdd1e9"/><g data-name="Group 49"><path data-name="Path 174" d="M678.155 489.902l16.42-.423a113.813 113.813 0 0018.749-42.5l-12.858-.874 13.954-4.887a142.416 142.416 0 002.209-25.928 137.111 137.111 0 00-46.325 13.947l-1.151 10.944-2.163-9.131c-14.091 7.833-27.824 19.614-36.669 36.992l4.151 17.672-7.187-11.287a90.975 90.975 0 00-6 24.354c-.635 17.46 0 28.045 0 28.045h26.8s23.462-8.569 42.928-32.795z" fill="#52c7a3"/><path data-name="Path 175" d="M626.548 506.93a61.375 61.375 0 00-8.5-25.845l-3.939 8.293 1.279-12.048c-8.247-11.321-19.651-18.454-30.079-22.79l-.782 7.455-2.053-8.56a97.554 97.554 0 00-23.609-5.789 93.371 93.371 0 005.651 33.623l6.811 2.154-5.789.571a79.32 79.32 0 0020.617 29.187l13.41.709-8.716 3.185a70.935 70.935 0 0016.669 9.756h19.034s.447-7.521-.004-19.901z" fill="#78c7c7"/><path data-name="Path 176" d="M578.871 467.923c-4.188-3.976-12.923-13.19-12.923-13.19s10.355 6.839 14.466 10.723c34.663 32.758 41.925 59.772 42.247 61.015l-1.362.359h-1.5c-.964-3.268-9.285-28.748-40.928-58.907z" fill="#fff" opacity=".25" style="mix-blend-mode:screen;isolation:isolate"/><path data-name="Path 177" d="M631.021 526.83h-3.037c2.586-8.753 18.611-56.615 67.448-95.374 4.105-3.24 13.724-8.385 13.724-8.385s-7.575 7.262-11.478 10.336c-47.116 37.153-63.417 82.976-66.657 93.423z" fill="#fff" opacity=".21" style="mix-blend-mode:screen;isolation:isolate"/></g><g data-name="Group 56"><g data-name="Group 50"><path data-name="Path 178" d="M533.409 516.926v6.562h-6.8v-6.913z" fill="#ffad97"/><path data-name="Path 179" d="M181.978 76.681a3.765 3.765 0 011.776 3.3v4.749h-27.2s-.488-2.817 3.24-2.817c3.755 0 10.281-2.246 11.524-3.323 1.555-1.39 2.679-1.905 3.857-1.905z" transform="translate(351.433 444.598)" fill="url(#b)"/></g><g data-name="Group 51"><path data-name="Path 180" d="M573.732 516.926v6.562h-6.777v-6.913z" fill="#ffad97"/><path data-name="Path 181" d="M186.361 76.681a3.765 3.765 0 011.776 3.3v4.749h-27.2s-.506-2.817 3.231-2.817 10.309-2.246 11.524-3.323c1.565-1.39 2.678-1.905 3.884-1.905z" transform="translate(387.374 444.598)" fill="url(#c)"/></g><path data-name="Path 182" d="M487.446 339.865c1.077 3.387.23 6.471-1.887 6.839s-4.731-2.089-5.808-5.5c-1.068-3.4-.239-6.471 1.905-6.848 2.118-.373 4.722 2.085 5.79 5.509z" fill="#ffad97"/><path data-name="Path 183" d="M533.825 343.73s-10.99 13.383-18.307 19.476c-3.3 2.964-16.282-10.649-24.262-20.2 0 0-4.335 1.8-5.753 7.741 0 0 6.958 7.943 17.258 20.222 8.882 10.622 17.037 10.419 27.318-1.445 10.33-11.868 3.746-25.794 3.746-25.794z" fill="#c75c9e"/><path data-name="Path 184" d="M522.569 375.485c2.549-13.659 10.279-30.245 10.279-30.245l-.589 14.3-.773 9.6a29.338 29.338 0 01-8.917 6.345z" fill="#ad458a" opacity=".6" style="mix-blend-mode:multiply;isolation:isolate"/><path data-name="Path 185" d="M521.422 401.901l2.586 119.443s7.05 1.178 11.763 0c3.93-17.755 4.814-59.662 10.456-85.415s9.729-31.083 9.729-42.634-34.534 8.606-34.534 8.606z" fill="#2b2161"/><g data-name="Group 52"><path data-name="Path 186" d="M529.886 400.115s18.335 69.179 23.784 82.2c5.467 13.024 11.413 39.33 11.413 39.33a27.009 27.009 0 0011-.525s-9.684-65.357-12.413-79.587c-2.752-14.193-3.755-45.266-7.17-51.194s-26.614 9.776-26.614 9.776z" fill="#ffbf00"/><path data-name="Path 187" d="M529.886 400.115s18.335 69.179 23.784 82.2c5.467 13.024 11.413 39.33 11.413 39.33a27.009 27.009 0 0011-.525s-9.684-65.357-12.413-79.587c-2.752-14.193-3.755-45.266-7.17-51.194s-26.614 9.776-26.614 9.776z" fill="#3b3687"/><path data-name="Path 188" d="M529.886 400.115s18.335 69.179 23.784 82.2c5.467 13.024 11.413 39.33 11.413 39.33a27.009 27.009 0 0011-.525s-9.684-65.357-12.413-79.587c-2.752-14.193-3.755-45.266-7.17-51.194s-26.614 9.776-26.614 9.776z" fill="#444199"/></g><g data-name="Group 54"><g data-name="Group 53"><path data-name="Path 189" d="M537.274 326.279c-.792-8.394 3.718-16.006 3.718-16.006 1.4.589 4.869 1.068 7.3 1.675 2.448.6 1.74 3.654 1.546 5.118-.166 1.473.4 4.878 1.206 5.274.81-1.556 2-6.793 4.326-4.464 2.319 2.31 1.243 2.982.387 6.02-.884 3.037 3.415 3.212 3.415 3.212-3.056 7.1-2.2 9.232-3.746 10.7-3.516 3.332-12.738 5.256-11.588-.8 1.629-3.378 2.835-5.789 2.835-5.789-6.451 2.12-8.918-.356-9.399-4.94z" fill="#ffad97"/><path data-name="Path 190" d="M537.167 312.589c-3.792-1.371-4.713-12.085 7.492-12.545 5.808-.221 18.27 1.97 20.664 8.744 0 0 3.286 2.467 1.74 9.232-.92 4.123-6.277 11.468-9.038 12.739 0 0-3.148-3.829-2.264-6.866.856-3.037 1.933-3.709-.387-6.02-2.329-2.329-3.516 2.908-4.326 4.464-.81-.4-1.371-3.8-1.206-5.274.193-1.463.9-4.519-1.546-5.118-2.432-.604-7.319 2.038-11.129.644z" fill="#2a375e"/></g></g><path data-name="Path 191" d="M563.444 420.014c-2.476-11.008-4.289-19.439-4.206-20.277 4.068-35.234 15.463-46.7 12.2-52.841s-15.215-10.318-15.215-10.318a32.994 32.994 0 00-11.919-.479c-9.9 3.939-12.242 8.063-15.619 21.289-4.381 17.083-7.676 41.529-10.051 64.172 6.539 1.591 27.865 5.817 44.81-1.546z" fill="#ad458a"/><path data-name="Path 192" d="M559.386 354.987l7.336 11.257-.018.018c-.644 1.951-1.362 4.105-2.053 6.452a63.705 63.705 0 01-5.265-17.727z" fill="#ad458a" opacity=".3" style="mix-blend-mode:multiply;isolation:isolate"/><path data-name="Path 193" d="M556.182 336.541c-2.283 1.924-8.09 6.415-10.437 6.526-2.3.092-2.2-4.547-2.034-6.728l.589-.239a34.812 34.812 0 0111.882.441z" fill="#ffad97"/><path data-name="Path 194" d="M560.37 391.629c-.322 2-.626 4.059-.893 6.222l-4.712 5.3z" fill="#d9d9d9"/><g data-name="Group 55"><path data-name="Path 195" d="M571.434 346.896c4.528 5.486 8.753 25.109 9.2 33.43s-17.893 26.665-21.538 29.067c0 0-4.547-2.034-4.694-5.661 0 0 13.107-18.234 14.147-23.857 1.077-5.642-8.321-19.237-9.167-24.888-.604-4.188 6.097-15.261 12.052-8.091z" fill="#c75c9e"/><path data-name="Path 196" d="M548.672 411.344c2.052-2.706 5.32-3.967 7.3-2.844 1.96 1.132 1.887 4.234-.166 6.931-2.025 2.688-5.3 3.976-7.3 2.835-1.951-1.132-1.905-4.234.166-6.922z" fill="#ffad97"/></g></g><g data-name="Group 59"><g data-name="Group 57"><path data-name="Path 197" d="M648.711 335.106a13.862 13.862 0 1113.843-13.88 13.9 13.9 0 01-13.843 13.88zm0-24.281a10.41 10.41 0 1010.41 10.4 10.419 10.419 0 00-10.41-10.4z" fill="#bdd1e9"/></g><g data-name="Group 58"><path data-name="Path 198" d="M655.992 369.621h-14.561a1.735 1.735 0 01-1.721-1.712v-12.326a35.377 35.377 0 01-8.882-3.728l-8.735 8.753a1.787 1.787 0 01-2.43 0l-10.3-10.29a1.706 1.706 0 010-2.448l8.7-8.753a35.036 35.036 0 01-3.7-8.882h-12.3a1.7 1.7 0 01-1.712-1.721v-14.56a1.719 1.719 0 011.712-1.73h12.3a35.81 35.81 0 013.7-8.891l-8.7-8.744a1.684 1.684 0 010-2.43l10.3-10.263a1.7 1.7 0 012.43 0l8.735 8.726a35.632 35.632 0 018.882-3.746v-12.27a1.732 1.732 0 011.721-1.73h14.561a1.719 1.719 0 011.712 1.73v12.27a35.526 35.526 0 018.91 3.746l8.707-8.726a1.733 1.733 0 012.458 0l10.29 10.263a1.822 1.822 0 01.515 1.215 1.691 1.691 0 01-.506 1.215l-8.753 8.744a33.007 33.007 0 013.728 8.891h12.306a1.734 1.734 0 011.73 1.73v14.561a1.715 1.715 0 01-1.73 1.721h-12.306a32.344 32.344 0 01-3.728 8.882l8.753 8.753a1.706 1.706 0 010 2.448l-10.297 10.291a1.823 1.823 0 01-2.458 0l-8.707-8.753a35.41 35.41 0 01-8.91 3.728v12.324a1.721 1.721 0 01-1.714 1.712zm-12.831-3.452h11.128v-11.956a1.664 1.664 0 011.325-1.666 31.564 31.564 0 0010.336-4.317 1.749 1.749 0 012.163.249l8.459 8.459 7.86-7.842-8.5-8.5a1.789 1.789 0 01-.212-2.154 31.019 31.019 0 004.3-10.281 1.687 1.687 0 011.666-1.362h11.956v-11.124h-11.961a1.7 1.7 0 01-1.666-1.362 31.3 31.3 0 00-4.3-10.3 1.8 1.8 0 01.212-2.163l8.5-8.477-7.86-7.833-8.459 8.486a1.761 1.761 0 01-2.181.239 31.824 31.824 0 00-10.318-4.335 1.682 1.682 0 01-1.325-1.675v-11.937h-11.122v11.938a1.686 1.686 0 01-1.371 1.675 31.983 31.983 0 00-10.3 4.335 1.721 1.721 0 01-2.154-.239l-8.468-8.486-7.86 7.833 8.468 8.477a1.726 1.726 0 01.221 2.145 32.207 32.207 0 00-4.28 10.318 1.73 1.73 0 01-1.694 1.362h-11.919v11.119h11.919a1.741 1.741 0 011.694 1.353 31.388 31.388 0 004.28 10.29 1.739 1.739 0 01-.221 2.154l-8.468 8.5 7.86 7.851 8.468-8.459a1.735 1.735 0 012.154-.249 31.545 31.545 0 0010.3 4.317 1.669 1.669 0 011.371 1.666z" fill="#bdd1e9"/></g></g><g data-name="Group 69"><g data-name="Group 68"><path data-name="Path 199" d="M475.922 493.004H101.329s2.6-42.192 46.076-42.192 283.305-.856 283.305-.856 45.212 4.298 45.212 43.048z" fill="#0d110c"/><path data-name="Path 200" d="M108.647 412.559c23.554-36.209 27.346-60.665 64.291-60.665h96.893c66.556 0 76.063 0 82.387 6.342 6.369 6.332 39.4 46.638 39.4 46.638s47.07 8.6 70.615 12.665c23.535 4.087 22.477 15.85 22.477 27.171v36.67l-8.429 14.336h-1.169a41.428 41.428 0 00-82.819 0H186.275a41.437 41.437 0 00-82.838 0h-6.259l-8.882-15.242c0-33.05-3.157-31.687 20.351-67.915z" fill="#f17578"/><path data-name="Path 201" d="M94.396 435.965c2.3-4.409 5.44-9.628 9.7-16.31h366.5c10.4 3.645 13.171 9.664 13.871 16.31z" fill="#f17578" opacity=".2" style="mix-blend-mode:screen;isolation:isolate"/><g data-name="Group 60"><path data-name="Path 202" d="M111.996 494.568a32.716 32.716 0 1032.712-32.721 32.7 32.7 0 00-32.712 32.721z" fill="#262626"/><path data-name="Path 203" d="M123.207 494.568a21.5 21.5 0 1021.5-21.51 21.507 21.507 0 00-21.5 21.51z" fill="#e6e6e6"/><path data-name="Path 204" d="M126.99 494.568a17.732 17.732 0 1017.718-17.727 17.718 17.718 0 00-17.718 17.727z" fill="#7d7d7d"/><path data-name="Path 205" d="M116.074 81.942a9.149 9.149 0 109.149-9.158 9.157 9.157 0 00-9.149 9.158z" transform="translate(19.485 412.626)" fill="url(#a)"/></g><g data-name="Group 61" transform="translate(401.119 461.847)"><path data-name="Path 206" d="M0 32.721A32.726 32.726 0 1032.73 0 32.723 32.723 0 000 32.721z" fill="#262626"/><path data-name="Path 207" d="M11.211 32.721a21.51 21.51 0 1021.519-21.51 21.522 21.522 0 00-21.519 21.51z" fill="#e6e6e6"/><circle data-name="Ellipse 50" cx="17.73" cy="17.73" r="17.73" transform="translate(15.004 14.994)" fill="#7d7d7d"/><path data-name="Path 208" d="M147.488 81.942a9.154 9.154 0 109.149-9.158 9.162 9.162 0 00-9.149 9.158z" transform="translate(-123.907 -49.221)" fill="url(#d)"/></g><path data-name="Path 209" d="M484.711 444.71c0-5.145.212-10.382-1.767-14.948a7.554 7.554 0 017.354 7.768v7.566a7.677 7.677 0 01-5.587 7.511z" fill="#ffbf00"/><path data-name="Path 210" d="M88.516 451.272c.129 0 .249.028.4.037-1.151 6.82-.681 14.257-.617 27.1-3.268-.092-5.891-2.31-5.891-5.072v-16.975c-.002-2.798 2.731-5.09 6.108-5.09z" fill="#c2c2c2"/><path data-name="Path 211" d="M394.768 405.435a2.858 2.858 0 01-.34.331 7.833 7.833 0 01-11.036-1.077l-32.2-39.173a7.857 7.857 0 01-.755-8.818 12.994 12.994 0 011.776 1.537c6.369 6.332 39.4 46.638 39.4 46.638s1.149.212 3.155.562z" fill="#ebf5ec"/><g data-name="Group 63"><g data-name="Group 62"><path data-name="Path 212" d="M375.767 495.94c1.51-16.908 5.053-61.88 3.36-66.942-2.031-6.093-19.915-26.719-20.108-26.919l1.362-1.2c.755.856 18.335 21.114 20.479 27.548s-3.056 65.166-3.277 67.66z" fill="#f17578" opacity=".3"/></g></g><g data-name="Group 64"><path data-name="Path 213" d="M254.441 399.253l-.911 19.844-.018.534-.488.249c-.092.037-10.069 5.025-10.069 15.767v42.266c0 11.984 8.256 16.825 8.615 17.019l-.9 1.583c-.377-.23-9.508-5.55-9.508-18.6v-42.272c0-11.892 10.622-17.184 11.054-17.405l-.488.773.9-19.844z" fill="#f17578" opacity=".3" style="mix-blend-mode:multiply;isolation:isolate"/></g><g data-name="Group 65"><path data-name="Path 214" d="M148.988 395.462c-.267.341-26.729 34.451-34.727 47.015l-1.191 1.885c-9.94 15.564-15.932 24.98-16.788 37.075l-1.8-.12c.9-12.573 6.977-22.108 17.046-37.93l1.224-1.878c8.018-12.64 34.533-46.815 34.818-47.156z" fill="#f17578" opacity=".3" style="mix-blend-mode:multiply;isolation:isolate"/></g><path data-name="Path 215" d="M476.28 481.379h8.426c5.753 0 6.056 8.008.3 8.008h-8.827z" fill="#c2c2c2"/><path data-name="Path 216" d="M95.383 481.379h-8.449c-5.716 0-6.038 8.008-.3 8.008h8.827z" fill="#c2c2c2"/><path data-name="Path 217" d="M143.383 400.649c-4.243 8.449-2.126 14.487 12.37 14.487h74.241a14.5 14.5 0 0014.487-14.487v-19.623a14.493 14.493 0 00-14.487-14.5h-52.206c-14.773.003-34.405 34.123-34.405 34.123z" fill="#e0f1ed"/><path data-name="Path 218" d="M252.931 400.501c0 8.238 3.976 14.929 12.564 14.929h80.988c15.389 0 22.044-3.323 13.3-14.929 0 0-20.848-35.482-40.462-35.482h-53.826c-8.588 0-12.564 6.7-12.564 14.938z" fill="#e0f1ed"/><g data-name="Group 66"><path data-name="Path 219" d="M177.788 366.998h52.206a14.033 14.033 0 0114.018 14.027v19.624a14.035 14.035 0 01-14.018 14.036h-74.241c-6.94 0-11.312-1.4-13.024-4.16-1.4-2.264-1.059-5.513 1.049-9.664.176-.323 19.633-33.863 34.01-33.863zm-34.819 33.439c-2.246 4.464-2.568 8.026-1.022 10.566 1.887 3.037 6.535 4.584 13.806 4.584h74.241a14.96 14.96 0 0014.938-14.938v-19.624a14.966 14.966 0 00-14.938-14.938h-52.206c-14.901 0-33.991 32.933-34.819 34.35z" fill="#f17578" opacity=".3" style="mix-blend-mode:multiply;isolation:isolate"/></g><g data-name="Group 67"><path data-name="Path 220" d="M253.401 379.957c0-9.057 4.51-14.478 12.094-14.478h53.826c19.126 0 39.873 34.884 40.057 35.243l.018.028.009.009c3.406 4.519 4.519 7.787 3.424 10.014-1.445 2.872-6.636 4.206-16.347 4.206h-80.987c-7.584 0-12.094-5.412-12.094-14.478zm-.939 20.544c0 9.48 5 15.38 13.033 15.38h80.992c10.244 0 15.518-1.454 17.138-4.694 1.289-2.568.138-6.148-3.488-10.962l.037.037c-.865-1.454-21.2-35.694-40.848-35.694h-53.831c-8.035 0-13.033 5.891-13.033 15.389z" fill="#f17578" opacity=".3" style="mix-blend-mode:multiply;isolation:isolate"/></g><path data-name="Path 221" d="M205.796 366.529H181.69l22.329 48.607h24.087zm-35.4 2.356l21.234 46.251h7.428l-22.255-48.543a16.08 16.08 0 00-6.406 2.292z" fill="#fff"/><path data-name="Path 222" d="M307.291 365.015h-24.106l23.139 50.411h24.106zm-36.476 0l23.158 50.411h7.428l-23.14-50.411z" fill="#fff"/></g><path data-name="Path 223" d="M160.38 353.569a16.894 16.894 0 00-6.968-1.8h-27.415c-5.624 0-2.927 5.845 4.473 14.386 7.428 8.542 11.478 7.419 11.478 7.419z" fill="#f17578"/></g><g data-name="Group 70"><path data-name="Path 224" d="M373.829 521.619s6.9 4.252 8.735 4.887c1.85.644.561 2.218.561 2.218h-16.043l-.442-7.566z" fill="#4575ed"/><path data-name="Path 225" d="M355.743 389.9l7.748 14.562-3.128 5.338-10.517-16.955z" fill="#ffad97"/><path data-name="Path 226" d="M361.477 400.778s-6.277 13.079-5.173 35.39c1.114 22.293 10.336 85.452 10.336 85.452h7.191s6.434-72.179 3.488-89.143c.377-5.532 2.89 5.3 6.148 16.706 3.3 11.616 4.041 11.8 3.3 20.157-1.151 13.162-2.209 51.369-2.209 51.369h7.262s15.1-52.823 13.935-68.755c-1.15-16.163-7-36.688-13.41-51.369-9.708-3.562-30.868.193-30.868.193z" fill="#2f2f47"/><path data-name="Path 227" d="M391.733 520.607s6.922 5.265 8.753 5.9.561 2.218.561 2.218h-16.054l-.433-8.017z" fill="#5d8aff"/><path data-name="Path 228" d="M386.54 350.265s-1.85-3.5.911-5.338 5.541.552 6.277 5.532c2.945 5.154 17.69 23.6 17.865 27.833.2 4.234-5.338 3.488-5.338 3.488l-15.85-17.138z" fill="#ffad97"/><path data-name="Path 229" d="M374.868 349.041s10.806-.488 13.144 1.353 3.452 7.98 4.188 21.75c.718 13.76-1 24.456.23 28.634h-30.954a116.535 116.535 0 00-.93-18.445c-1.3-8.477-5.9-23.029-2.954-27.079 2.954-4.068 17.276-6.213 17.276-6.213z" fill="#5d8aff"/><path data-name="Path 230" d="M359.626 372.015s-2.209 18.252-4.6 20.47c-2.411 2.2-7.547 4.777-7.014-7.2.561-11.975 4.98-25.247 4.98-25.247l3.507-2.4z" fill="#5d8aff"/><path data-name="Path 231" d="M385.527 340.352c2.338-7.161-.083-14.69-.083-14.69-1.335.249-4.464-.037-6.692 0-2.246.046-2.246 2.844-2.375 4.16s-1.289 4.188-2.08 4.363c-.4-1.509-.4-6.314-2.9-4.749-2.476 1.555-1.666 2.366-1.51 5.182s-3.608 2.108-3.608 2.108c1.233 6.8.064 8.5 1.132 10.088 2.4 3.6 6.627 3.783 10.023 2.227a64.569 64.569 0 01-1.1-6.24c5.206 3.13 7.849 1.453 9.193-2.449z" fill="#ffad97"/><path data-name="Path 232" d="M384.293 316.016c-5.035-1.353-16.328-1.905-19.761 3.525 0 0-3.36 1.5-3.36 7.695 0 3.792 2.319 12.527-7.446 24.327 0 0-4 6.443-1.528 12.122 3.654 8.275 13.632 12.693 18.611 7.345s6.885-17.626 4.473-27.217c-.847-3.433-.81-5.817 1.114-10.226.525-1.206.11-7.879 2.356-7.925 2.228-.037 5.964 3.24 9.563 2.789s6.508-9.609-4.022-12.435z" fill="#2a375e"/><path data-name="Path 233" d="M388.012 350.394s9.333 9.95 16.337 18.307 10.612 15.84 7.014 17.939c-1.473.865-5.164 1.721-20.028-16.089-4.925-7.75-3.323-20.157-3.323-20.157z" fill="#5d8aff"/></g></g></svg>