<svg xmlns="http://www.w3.org/2000/svg" xmlns:xlink="http://www.w3.org/1999/xlink" width="680.895" height="460.493"><defs><linearGradient id="b" y1=".5" x2="1" y2=".5" gradientUnits="objectBoundingBox"><stop offset="0" stop-color="#2e7feb"/><stop offset="1" stop-color="#46bae1"/></linearGradient><linearGradient id="c" y1=".5" x2="1" y2=".5" gradientUnits="objectBoundingBox"><stop offset="0" stop-color="#2e7feb"/><stop offset="1" stop-color="#3b4d87"/></linearGradient><linearGradient id="a" x1="-77.36" y1=".5" x2="-76.36" y2=".5" gradientUnits="objectBoundingBox"><stop offset="0" stop-color="#3d342b"/><stop offset="1" stop-color="#291c17"/></linearGradient><linearGradient id="d" x1="-74.422" y1=".5" x2="-73.422" y2=".5" xlink:href="#a"/><linearGradient id="e" x1="-168.407" y1=".5" x2="-167.407" y2=".5" xlink:href="#a"/><linearGradient id="f" x1="-168.354" y1=".5" x2="-167.354" y2=".5" xlink:href="#a"/></defs><g data-name="Group 95"><g data-name="Group 8"><g data-name="Group 7" opacity=".3"><g data-name="Group 6"><path data-name="Path 131" d="M221.014 171.961c25.962-18.366 33.389-52.511 16.6-76.244s-55.4-21.237-81.358-2.863-29.473 45.649-12.672 69.4c16.796 23.73 51.46 28.073 77.43 9.707z" fill="#bdd1e9"/></g><path data-name="Path 132" d="M664.515 452.295a148.782 148.782 0 00-5.336-88.106c-17.137-45.465-46.5-60.351-60.878-98.488a148.676 148.676 0 01-6.481-82.564 1.472 1.472 0 00-.267-.221A149.329 149.329 0 00390.467 25.893c-79.664 30.03-91.519 99.854-91.725 99.87a128.594 128.594 0 01-80.16 92.022c-42.664 16.076-70.977 7.519-106.129 20.779A173.617 173.617 0 007.779 452.295z" fill="#bdd1e9"/></g></g><g data-name="Group 94" transform="translate(19.767)"><ellipse data-name="Ellipse 50" cx="330.564" cy="6.97" rx="330.564" ry="6.97" transform="translate(0 446.553)" fill="#bdd1e9" opacity=".4" style="mix-blend-mode:multiply;isolation:isolate"/><g data-name="Group 9"><path data-name="Path 133" d="M500.498 365.868h-16.4a16.4 16.4 0 00-16.328-15.1h-13.951a16.391 16.391 0 00-16.32 15.1h-16.39a17.646 17.646 0 00-17.641 17.65v49.6a17.651 17.651 0 0017.641 17.649h79.389a17.648 17.648 0 0017.626-17.649v-49.6a17.643 17.643 0 00-17.626-17.65zm-46.679-9.359h13.954a10.719 10.719 0 0110.6 9.359h-35.15a10.737 10.737 0 0110.596-9.358z" fill="#25a9e0"/><path data-name="Path 134" d="M482.113 402.429h-15.435v-15.428h-11.759v15.431h-15.427v11.756h15.427v15.439h11.759v-15.442h15.435z" fill="#f7f7f7"/></g><g data-name="Group 11"><g data-name="Group 10" fill="#25a9e0"><path data-name="Path 135" d="M311.231 35.611c-31.343 14.618-93.351 55.168-99.442 148.121a34.884 34.884 0 00-51.183-1.695c10.427-76.77 73.183-137.691 150.625-146.426z"/><path data-name="Path 136" d="M318.414 37.641c-16.382 16.725-46.778 59.572-48.343 146.9a35.33 35.33 0 00-27.214-12.794 34.963 34.963 0 00-26.122 11.847C223.3 87.999 290.46 49.557 318.414 37.641z"/><path data-name="Path 137" d="M301.689 171.816a35.174 35.174 0 00-26.733 12.046c2.031-98.289 42.038-139.121 53.274-148.656l-.069 148.656a35.3 35.3 0 00-26.472-12.046z"/><path data-name="Path 138" d="M333.109 35.542c11.641 10.084 50.7 51.046 52.6 148.053a34.661 34.661 0 00-52.542.55l-.2-.076z"/><path data-name="Path 139" d="M390.651 185.006c-1.366-87.595-31.756-130.579-48.145-147.3 27.969 11.924 95.122 50.5 101.48 146.159a34.618 34.618 0 00-53.336 1.145z"/><path data-name="Path 140" d="M500.444 182.312a34.922 34.922 0 00-51.511 2.023c-5.763-93.351-67.9-134.037-99.312-148.724 77.716 8.664 140.54 69.786 150.823 146.701z"/></g><path data-name="Path 141" d="M500.444 182.312c-10.282-76.916-73.106-138.037-150.824-146.7 31.412 14.687 93.549 55.374 99.312 148.724a34.922 34.922 0 0151.511-2.023zm-114.74 1.282c-1.893-97.007-40.954-137.969-52.6-148.053l-.145 148.526.2.076a34.661 34.661 0 0152.542-.55zM342.506 37.7c16.389 16.725 46.778 59.71 48.145 147.3a34.618 34.618 0 0153.336-1.145C437.626 88.206 370.475 49.626 342.506 37.7zM211.789 183.732c6.092-92.954 68.1-133.5 99.442-148.121-77.442 8.733-140.2 69.656-150.625 146.427a34.884 34.884 0 0151.183 1.695zm58.282.809c1.565-87.328 31.962-130.175 48.343-146.9C290.46 49.557 223.3 88 216.735 183.594a34.963 34.963 0 0126.122-11.847 35.33 35.33 0 0127.214 12.794zm58.155-149.335c-11.237 9.534-51.244 50.366-53.274 148.656a35.4 35.4 0 0153.206 0zm-4.542 154.48a28.2 28.2 0 00-48.129 6.634c-1.084 2.641-5.489 2.641-6.641 0a28.235 28.235 0 00-51.511-1.282 3.553 3.553 0 01-3.114 1.947h-.137a3.543 3.543 0 01-3.244-2.023 28.014 28.014 0 00-25.382-16.039 28.35 28.35 0 00-26.47 18.549 3.62 3.62 0 01-4.137 2.3 3.576 3.576 0 01-2.84-3.725c4.534-91.656 80.152-165.579 172.358-168.694a2.02 2.02 0 01.672-.137h.206S326.804.002 330.658.002c3.931 0 5.351 27.214 5.351 27.214h.206a3.889 3.889 0 01.878.137c92.137 3.313 167.556 77.381 171.953 169.037a3.728 3.728 0 01-2.908 3.733 3.93 3.93 0 01-.756.054 3.657 3.657 0 01-3.382-2.359 28.127 28.127 0 00-52.053-2.305 3.713 3.713 0 01-3.252 2.031 3.538 3.538 0 01-3.244-2.031 28.246 28.246 0 00-51.389.267 3.5 3.5 0 01-3.244 2.1 3.646 3.646 0 01-3.305-2.1 28.4 28.4 0 00-25.74-16.717 27.973 27.973 0 00-22.069 10.9 3.585 3.585 0 01-2.847 1.351h-.473l.473 126.915a7 7 0 013.26 5.824l-.076 58.824c0 12.389-9.748 22.465-21.733 22.4-11.977 0-21.664-10.076-21.664-22.473v-26.539a7.111 7.111 0 0114.221 0l-.069 26.542c0 4.6 3.389 8.336 7.511 8.336 4.2 0 7.588-3.733 7.588-8.336l.069-58.755a6.848 6.848 0 013.252-5.824l-.55-126.915a3.656 3.656 0 01-2.977-1.627z" fill="#00a0c6"/><path data-name="Path 142" d="M327.208 318.219a6.94 6.94 0 00-3.267 5.794l-.061 58.824c0 4.6-3.389 8.321-7.557 8.321-4.153 0-7.519-3.725-7.511-8.328l.015-26.527a7.08 7.08 0 00-14.16-.015l-.03 26.534c-.008 12.382 9.717 22.488 21.672 22.5 11.985 0 21.725-10.084 21.733-22.466l.061-58.809a6.989 6.989 0 00-3.244-5.817l-.489-126.892-7.679-.008z" fill="#292f61"/><path data-name="Path 143" d="M336.033 27.207s-1.412-27.2-5.336-27.2-5.412 27.214-5.412 27.214l10.931-.008a1.349 1.349 0 01-.183-.006z" fill="#292f61"/></g><path data-name="Path 144" d="M501.483 55.702l-.03-7.313-2.745-1.244c-5.947-2.7-27.168-11.488-50.465-11.488s-44.519 8.786-50.473 11.481l-2.762 1.247-.038 14.053c0 22.878.985 46.641 12.794 63.87 12.832 18.718 30.985 29.969 38.2 33.954l2.275 1.26 2.267-1.26c7.2-3.985 25.366-15.229 38.183-33.954 11.824-17.236 12.809-40.992 12.809-63.862z" fill="#fff"/><path data-name="Path 145" d="M399.705 51.411c-.008 1.626-.031 11.046-.031 11.046 0 22.122.916 45.084 11.977 61.183 12.443 18.168 30.382 29.091 36.588 32.531 6.191-3.427 24.13-14.351 36.58-32.526 11.046-16.1 11.969-39.061 11.969-61.19l-.008-6.733s-.015-2.6-.015-4.305c-5.366-2.412-26.03-11.053-48.526-11.053s-43.176 8.635-48.534 11.047z" fill="#292f61"/><path data-name="Path 146" d="M476.381 83.602h-20.724V62.878h-14.849v20.724h-20.721v14.839h20.721v20.731h14.85V98.441h20.724z" fill="#fff"/><g data-name="Group 22"><g data-name="Group 12"><path data-name="Path 147" d="M123.874 330.647a11.412 11.412 0 1011.412-11.389 11.412 11.412 0 00-11.412 11.389z" fill="#d9d9d9"/><path data-name="Path 148" d="M126.446 330.647a8.84 8.84 0 108.84-8.832 8.842 8.842 0 00-8.84 8.832z" fill="#1f1632"/><path data-name="Path 149" d="M128.759 330.647a6.531 6.531 0 106.527-6.519 6.538 6.538 0 00-6.527 6.519z" fill="#b2b2b2"/></g><g data-name="Group 15"><g data-name="Group 14"><g data-name="Group 13"><path data-name="Path 150" d="M122.279 295.502a14.383 14.383 0 0114.374 14.374v20.237a1.409 1.409 0 01-2.817 0v-20.237a11.572 11.572 0 00-11.557-11.572h-19.183a11.57 11.57 0 00-11.55 11.572v36.435a14.387 14.387 0 01-14.366 14.374H58.539a14.382 14.382 0 01-14.366-14.374v-16.2a1.4 1.4 0 112.794 0v16.2a11.583 11.583 0 0011.572 11.565H77.18a11.564 11.564 0 0011.55-11.565v-36.435a14.372 14.372 0 0114.366-14.374z" fill="#1f1632"/></g></g></g><g data-name="Group 21"><g data-name="Group 17"><g data-name="Group 16"><path data-name="Path 151" d="M30.921 278.647a1.153 1.153 0 01.679 1.481l-.611 1.679-2.55 7.32a22.936 22.936 0 00-1.014 10.455l.748 5.015 1.153 7.771a1.152 1.152 0 01-2.275.359l-1.16-7.794-.756-5a25.479 25.479 0 011.1-11.511l2.6-7.42.6-1.664a1.163 1.163 0 011.486-.691z" fill="#b2b2b2"/></g><path data-name="Path 152" d="M27.928 279.312l3.824-10.176a2.7 2.7 0 015.061 1.885l-3.824 10.183z" fill="#315f69"/></g><g data-name="Group 19"><g data-name="Group 18"><path data-name="Path 153" d="M61.944 278.647a1.155 1.155 0 00-.672 1.481l.611 1.679 2.565 7.32a23.362 23.362 0 011.012 10.455l-.756 5.015-1.164 7.775a1.146 1.146 0 00.969 1.313 1.118 1.118 0 001.305-.954l1.176-7.794.748-5a25.471 25.471 0 00-1.092-11.511l-2.611-7.42-.6-1.664a1.161 1.161 0 00-1.491-.695z" fill="#b2b2b2"/></g><path data-name="Path 154" d="M64.936 279.312l-3.817-10.176a2.7 2.7 0 10-5.053 1.885l3.832 10.183z" fill="#315f69"/></g><g data-name="Group 20"><path data-name="Path 155" d="M30.002 311.689c0 8.679 7.382 15.74 16.443 15.74a16.744 16.744 0 0011.657-4.622 15.321 15.321 0 004.8-11.118 1.916 1.916 0 113.832 0 19.1 19.1 0 01-5.962 13.87 20.52 20.52 0 01-14.328 5.717c-11.183 0-20.29-8.786-20.29-19.588a1.924 1.924 0 113.847 0z" fill="#1f1632"/></g></g></g><g data-name="Group 27"><g data-name="Group 23"><path data-name="Path 156" d="M32.7 213.114h14.58s37.664-13.565 37.336-60.733c0 0-47.5 3.74-51.916 45.465-.346 9.504 0 15.268 0 15.268z" transform="translate(128.695 237.548)" fill="url(#b)"/><path data-name="Path 157" d="M197.957 405.471c3.2-3.046 9.908-10.122 9.908-10.122s-7.947 5.244-11.092 8.221c-26.6 25.145-32.168 45.87-32.412 46.817l1.047.271h1.145c.74-2.5 7.137-22.057 31.404-45.187z" fill="#94b6fd" opacity=".6" style="mix-blend-mode:screen;isolation:isolate"/><path data-name="Path 158" d="M96.652 234.692H76.095s-53.061-19.115-52.58-85.564c0 0 66.916 5.26 73.137 64.061.473 13.389 0 21.503 0 21.503z" transform="translate(68.771 215.969)" fill="url(#c)"/><path data-name="Path 159" d="M157.95 450.661h2.328c-1.992-6.725-14.267-43.435-51.732-73.16-3.145-2.5-10.527-6.435-10.527-6.435s5.8 5.557 8.794 7.924c36.137 28.511 48.648 63.666 51.137 71.671z" fill="#ff3a72" opacity=".3" style="mix-blend-mode:multiply;isolation:isolate"/></g><g data-name="Group 26"><g data-name="Group 25"><g data-name="Group 24"><path data-name="Path 160" d="M137.66 450.028a.5.5 0 00-.519.5.513.513 0 00.519.511h50.855a.505.505 0 00.5-.511.492.492 0 00-.5-.5z" fill="#a3b5e9" opacity=".6"/></g></g></g></g><g data-name="Group 33"><path data-name="Path 161" d="M241.234 266.487s10.807 13.79 18.143 20.183c3.3 3.1 17.6-9.725 26.488-18.778a11.106 11.106 0 015.6 7.946s-7.695 7.5-19.122 19.122c-9.863 10.076-18.4 9.473-28.557-2.779s-2.552-25.694-2.552-25.694z" fill="#b6cae3"/><path data-name="Path 162" d="M291.782 262.442c-1.947 2.58-2.114 5.618-.382 6.786s4.7.023 6.656-2.55 2.137-5.611.4-6.779-4.72-.03-6.674 2.543z" fill="#ffad97"/><path data-name="Path 163" d="M253.835 300.693c-2.3-13.366-9.244-29.626-9.244-29.626l.519 14.03.718 9.4a26.16 26.16 0 008.007 6.196z" fill="#cde0ef" style="mix-blend-mode:multiply;isolation:isolate"/><g data-name="Group 28"><path data-name="Path 164" d="M244.095 439.307v6.441h6.1v-6.776z" fill="#ffad97"/><path data-name="Path 165" d="M44.805 159.41a3.729 3.729 0 00-1.618 3.229v4.649h24.488s.443-2.741-2.924-2.741-9.252-2.214-10.359-3.267c-1.4-1.351-2.42-1.87-3.489-1.87z" transform="translate(199.289 284.175)" fill="url(#a)"/></g><g data-name="Group 29"><path data-name="Path 166" d="M207.797 439.307v6.441h6.1v-6.776z" fill="#ffad97"/><path data-name="Path 167" d="M40.037 159.41a3.735 3.735 0 00-1.6 3.229v4.649h24.478s.443-2.741-2.916-2.741-9.259-2.214-10.351-3.267c-1.42-1.351-2.427-1.87-3.511-1.87z" transform="translate(167.76 284.175)" fill="url(#d)"/></g><path data-name="Path 168" d="M254.896 326.609l-2.339 117.041s-6.351 1.153-10.588 0c-3.534-17.4-4.344-58.473-9.42-83.709-5.053-25.236-8.748-30.465-8.748-41.778s31.095 8.446 31.095 8.446z" fill="#3b3687"/><g data-name="Group 30"><path data-name="Path 169" d="M247.27 324.838s-16.511 67.8-21.427 80.564-10.252 38.542-10.252 38.542a22.576 22.576 0 01-9.924-.5s8.733-64.084 11.2-78.007c2.458-13.908 3.374-44.382 6.443-50.168 3.074-5.805 23.96 9.569 23.96 9.569z" fill="#3b3687"/><path data-name="Path 170" d="M247.27 324.838s-16.511 67.8-21.427 80.564-10.252 38.542-10.252 38.542a22.576 22.576 0 01-9.924-.5s8.733-64.084 11.2-78.007c2.458-13.908 3.374-44.382 6.443-50.168 3.074-5.805 23.96 9.569 23.96 9.569z" fill="#3b3687"/><path data-name="Path 171" d="M247.27 324.838s-16.511 67.8-21.427 80.564-10.252 38.542-10.252 38.542a22.576 22.576 0 01-9.924-.5s8.733-64.084 11.2-78.007c2.458-13.908 3.374-44.382 6.443-50.168 3.074-5.805 23.96 9.569 23.96 9.569z" fill="#444199"/></g><g data-name="Group 32"><g data-name="Group 31"><path data-name="Path 172" d="M240.606 252.486c.718-8.229-3.343-15.679-3.343-15.679-1.267.573-4.4 1.038-6.58 1.626s-1.55 3.6-1.389 5.023c.153 1.443-.343 4.786-1.076 5.168-.718-1.519-1.8-6.664-3.9-4.374-2.084 2.267-1.114 2.939-.336 5.908s-3.076 3.122-3.076 3.122c2.756 6.969 1.977 9.069 3.366 10.5 3.16 3.275 11.481 5.137 10.42-.771a607.99 607.99 0 00-2.542-5.672c5.793 2.074 8.021-.351 8.456-4.851z" fill="#ffad97"/><path data-name="Path 173" d="M237.263 236.808s4.084-1.55 4.13-3.916-5.847-1.229-11.03-2.176-12.847-2.008-15 4.633c0 0-3.4 2.687-2.046 6.588 1.328 3.885 5.053 6.305 7.588 11.343 0 0 3.855-.153 3.076-3.122s-1.748-3.641.336-5.908c2.1-2.29 3.183 2.855 3.9 4.374.733-.382 1.229-3.725 1.076-5.168-.16-1.427-.8-4.427 1.389-5.023s5.314-1.054 6.581-1.625z" fill="#2a375e"/></g></g><path data-name="Path 174" d="M223.56 262.579s-10.74 4.107-13.687 10.114 7.313 17.259 10.954 51.794c.275 2.542-15.908 76.389-15.908 76.389s28.183 11.29 56.755 2.9c0 0-3.954-80.923-13.321-120.808-3.053-12.962-5.168-16.992-14.069-20.863a27.527 27.527 0 00-10.724.474z" fill="#cde0ef"/><path data-name="Path 175" d="M220.698 280.617l-6.588 11.039.008.008a172.32 172.32 0 011.855 6.321 66.336 66.336 0 004.725-17.368z" fill="#cde0ef" style="mix-blend-mode:multiply;isolation:isolate"/><path data-name="Path 176" d="M226.972 341.571a11.812 11.812 0 01-1.588-1.664c-2.305-2.924-2.809-6.252-1.115-7.443 1.389-.985 3.832-.16 5.947 1.794z" fill="#ffad97"/><path data-name="Path 177" d="M224.583 262.48c5.046 8.5 22.244 41.359 21.214 144.144a75.42 75.42 0 006.878-.824c.282-16.175.855-102.877-18.091-143.556l-.3-.137c-2.67-.406-7.831.174-9.701.373z" fill="#1b8ea9"/><path data-name="Path 178" d="M223.583 262.54c2.061 1.886 7.29 6.282 9.412 6.382 2.076.114 1.473-6.733 1.29-6.817a29.09 29.09 0 00-10.702.435z" fill="#ffad97"/><path data-name="Path 179" d="M252.674 405.799c.145-8.458.366-36.236-2.153-66.633l-6.649.275c1.4 18.2 2.191 40.3 1.924 67.183a75.385 75.385 0 006.878-.825z" fill="#3b3687"/><path data-name="Path 180" d="M219.82 316.54c.29 1.947.557 3.969.8 6.092l4.252 5.191z" fill="#cde0ef" style="mix-blend-mode:multiply;isolation:isolate"/><path data-name="Path 181" d="M209.873 272.693c-4.092 5.382-7.878 24.6-8.29 32.763s16.107 26.122 19.382 28.481c0 0 4.092-1.992 4.229-5.557 0 0-11.794-17.863-12.74-23.359-.969-5.534 7.5-18.862 8.244-24.4.565-4.111-5.466-14.951-10.825-7.928z" fill="#cde0ef"/></g><g data-name="Group 45"><path data-name="Path 182" d="M394.605 265.045s-11.855 13.885-19.908 20.336c-3.626 3.107-26.763-3.382-14.237 8.351 10.824 10.145 20.2 9.549 31.336-2.8 11.16-12.345 2.809-25.887 2.809-25.887z" fill="#33b58a"/><path data-name="Path 183" d="M380.769 299.517c2.519-13.473 10.145-29.87 10.145-29.87l-.58 14.145-.771 9.473a28.677 28.677 0 01-8.794 6.252z" opacity=".2" style="mix-blend-mode:multiply;isolation:isolate"/><g data-name="Group 34"><path data-name="Path 184" d="M391.464 439.204v6.493h-6.694v-6.821z" fill="#ffad97"/><path data-name="Path 185" d="M84.535 159.4a3.714 3.714 0 011.763 3.244v4.695H59.436s-.489-2.763 3.2-2.763c3.7 0 10.16-2.229 11.382-3.3 1.542-1.351 2.641-1.878 3.824-1.878z" transform="translate(306.933 284.123)" fill="url(#e)"/></g><g data-name="Group 35"><path data-name="Path 186" d="M431.298 439.204v6.493h-6.691v-6.821z" fill="#ffad97"/><path data-name="Path 187" d="M89.76 159.4a3.714 3.714 0 011.763 3.244v4.695h-26.87s-.5-2.763 3.2-2.763 10.168-2.229 11.374-3.3c1.55-1.351 2.656-1.878 3.84-1.878z" transform="translate(341.539 284.123)" fill="url(#f)"/></g><path data-name="Path 188" d="M379.613 325.625l2.572 117.961s6.962 1.175 11.618 0c3.878-17.542 4.756-58.923 10.328-84.358s9.611-30.7 9.611-42.107c.001-11.389-34.129 8.504-34.129 8.504z" fill="#2b2161"/><g data-name="Group 36"><path data-name="Path 189" d="M387.979 323.846s18.122 68.335 23.511 81.2 11.267 38.847 11.267 38.847a26.787 26.787 0 0010.87-.519s-9.58-64.565-12.267-78.61c-2.71-14.023-3.718-44.71-7.092-50.572-3.358-5.857-26.289 9.654-26.289 9.654z" fill="#ffbf00"/><path data-name="Path 190" d="M387.979 323.846s18.122 68.335 23.511 81.2 11.267 38.847 11.267 38.847a26.787 26.787 0 0010.87-.519s-9.58-64.565-12.267-78.61c-2.71-14.023-3.718-44.71-7.092-50.572-3.358-5.857-26.289 9.654-26.289 9.654z" fill="#3b3687"/><path data-name="Path 191" d="M387.979 323.846s18.122 68.335 23.511 81.2 11.267 38.847 11.267 38.847a26.787 26.787 0 0010.87-.519s-9.58-64.565-12.267-78.61c-2.71-14.023-3.718-44.71-7.092-50.572-3.358-5.857-26.289 9.654-26.289 9.654z" fill="#444199"/></g><g data-name="Group 38"><g data-name="Group 37"><path data-name="Path 192" d="M395.284 250.92c-.786-8.3 3.687-15.8 3.687-15.8 1.374.572 4.809 1.038 7.214 1.634s1.7 3.618 1.519 5.069c-.16 1.45.382 4.824 1.191 5.214.786-1.534 1.977-6.718 4.282-4.42 2.275 2.29 1.221 2.962.351 5.962-.847 2.992 3.389 3.16 3.389 3.16-3.015 7.015-2.168 9.122-3.7 10.572-3.466 3.29-12.588 5.2-11.435-.786 1.618-3.344 2.8-5.725 2.8-5.725-6.375 2.107-8.81-.343-9.298-4.88z" fill="#ffad97"/><path data-name="Path 193" d="M395.192 237.411c-3.748-1.351-4.664-11.939 7.4-12.4 5.748-.214 18.038 1.947 20.4 8.641 0 0 3.252 2.435 1.733 9.107-.924 4.076-6.214 11.343-8.939 12.588 0 0-3.107-3.779-2.26-6.771.87-3 1.924-3.672-.351-5.962-2.305-2.3-3.5 2.885-4.282 4.42-.809-.389-1.351-3.763-1.191-5.214.183-1.45.885-4.466-1.519-5.069s-7.235 2.034-10.991.66z" fill="#2a375e"/></g></g><path data-name="Path 194" d="M421.147 343.506c-2.458-10.878-4.252-19.206-4.153-20.03 4-34.794 15.259-46.114 12.023-52.19-3.231-6.051-15.015-10.18-15.015-10.18a32.631 32.631 0 00-11.771-.489c-9.771 3.9-12.084 7.954-15.435 21.03-4.313 16.87-7.58 41.023-9.916 63.381 6.458 1.558 27.511 5.748 44.267-1.522z" fill="#57d09e"/><path data-name="Path 195" d="M417.139 279.281l7.232 11.107-.015.023a162.624 162.624 0 00-2.03 6.374 62.674 62.674 0 01-5.187-17.504z" opacity=".3" style="mix-blend-mode:multiply;isolation:isolate"/><path data-name="Path 196" d="M413.979 261.06c-2.275 1.893-8 6.328-10.328 6.45-2.275.084-2.16-4.5-1.992-6.649.191-.076.366-.168.573-.244a34.886 34.886 0 0111.747.443z" fill="#ffad97"/><path data-name="Path 197" d="M418.101 315.464a197.46 197.46 0 00-.87 6.145l-4.672 5.237z" fill="#d9d9d9"/><path data-name="Path 198" d="M339.487 308.388c1.069 3.366.221 6.4-1.87 6.771s-4.657-2.069-5.725-5.443c-1.061-3.359-.229-6.4 1.878-6.756 2.087-.366 4.659 2.069 5.717 5.428z" fill="#ffad97"/><g data-name="Group 43"><path data-name="Path 199" d="M414.977 326.288l1.782-2.5-10.184-22.227-6.6-10.466-8.531 3.183-27.863 2.393-16.371 12.5-1.942 15.521 1.834 2.512 17.619 8.237 26.609 3.869z" fill="#fff"/><g data-name="Group 42"><g data-name="Group 41"><g data-name="Group 39"><path data-name="Path 200" d="M398.56 325.182l-2.145-18.374-3.542 27.481a1.3 1.3 0 01-1.16 1.107h-.076a1.292 1.292 0 01-1.229-.931l-5.855-21.435-4.168 12.7a1.259 1.259 0 01-1.176.87h-9.107a1.217 1.217 0 01-1.13-.733l-8.321-18.221-9.435 18.862a1.257 1.257 0 01-1.114.695h-3c11.221 14.779 28.733 28.656 33.091 32.023l.5.374.5-.374c4.45-3.435 22.6-17.824 33.786-32.939h-15.17a1.256 1.256 0 01-1.249-1.105z" fill="#f17578"/></g><g data-name="Group 40"><path data-name="Path 201" d="M401.941 280.663c-6.229 0-16.168 2.29-21.244 12.679-5.084-10.389-15.008-12.679-21.252-12.679-6.42 0-22.038 5.519-22.038 24.824 0 5.9 3.214 12.6 7.863 19.206h4.053l10.261-20.519a1.234 1.234 0 011.153-.687 1.256 1.256 0 011.114.718l9.061 19.885h7.366l5.183-15.809a1.255 1.255 0 011.221-.863 1.274 1.274 0 011.183.916l5.313 19.443 4.053-31.381a1.253 1.253 0 012.489.008l3.214 27.389h15.824c4.313-6.32 7.221-12.672 7.221-18.305 0-19.306-15.618-24.825-22.038-24.825z" fill="#f17578"/></g></g></g></g><g data-name="Group 44"><path data-name="Path 202" d="M429.017 271.288c4.488 5.42 8.641 24.8 9.107 33.015.435 8.214-17.679 26.328-21.275 28.717 0 0-4.488-2.008-4.641-5.6 0 0 12.946-18 13.977-23.549 1.053-5.573-8.237-19.007-9.046-24.588-.618-4.132 6-15.079 11.878-7.995z" fill="#33b58a"/><path data-name="Path 203" d="M406.544 334.945c2.015-2.679 5.267-3.924 7.214-2.809 1.924 1.114 1.878 4.175-.168 6.84-2.008 2.664-5.237 3.924-7.191 2.809s-1.893-4.191.145-6.84z" fill="#ffad97"/></g></g><g data-name="Group 65"><g data-name="Group 46"><path data-name="Rectangle 191" d="M84.001 153.922h91.488a.86.86 0 01.86.86v128.64a.861.861 0 01-.861.861H84.002a.861.861 0 01-.861-.861v-128.64a.86.86 0 01.86-.86z" fill="#292f61"/><path data-name="Path 204" d="M170.933 256.989l-19.027 17.541h-63.03V158.543h82.057z" fill="#fff"/><path data-name="Path 205" d="M140.4 144.877a10.584 10.584 0 00-20.992 0h-13.962v16.45h48.923v-16.45zm-10.5 8.114a6.695 6.695 0 116.695-6.695 6.7 6.7 0 01-6.691 6.696z" fill="#25a9e0"/><path data-name="Path 206" d="M170.934 256.99H151.84l.067 17.541z" fill="#aeb7c0"/></g><g data-name="Group 52"><g data-name="Group 47"><path data-name="Path 207" d="M119.644 238.564a1.359 1.359 0 100 2.718h23.117a1.359 1.359 0 000-2.718z" fill="#679ce0"/></g><g data-name="Group 48"><path data-name="Path 208" d="M147.622 238.564a1.359 1.359 0 000 2.718h14.168a1.359 1.359 0 000-2.718z" fill="#679ce0"/></g><g data-name="Group 49"><path data-name="Path 209" d="M118.821 245.839a1.367 1.367 0 000 2.733h9.145a1.367 1.367 0 000-2.733z" fill="#679ce0"/></g><g data-name="Group 50"><path data-name="Path 210" d="M133.843 245.839a1.367 1.367 0 000 2.733h27.924a1.367 1.367 0 100-2.733z" fill="#679ce0"/></g><g data-name="Group 51"><path data-name="Path 211" d="M110.454 232.961s-6.542 9.321-8.733 12.42c-1.343-1.947-3.061-4.443-3.061-4.443a1.822 1.822 0 00-3 2.069l4.55 6.6a1.807 1.807 0 002.992.015l10.225-14.554a1.824 1.824 0 10-2.977-2.107z" fill="#679ce0"/></g></g><g data-name="Group 58"><g data-name="Group 53"><path data-name="Path 212" d="M119.644 209.74a1.374 1.374 0 000 2.748h23.117a1.374 1.374 0 000-2.748z" fill="#679ce0"/></g><g data-name="Group 54"><path data-name="Path 213" d="M147.622 209.74a1.374 1.374 0 000 2.748h14.168a1.374 1.374 0 000-2.748z" fill="#679ce0"/></g><g data-name="Group 55"><path data-name="Path 214" d="M118.821 217.03a1.363 1.363 0 000 2.725h9.145a1.363 1.363 0 100-2.725z" fill="#679ce0"/></g><g data-name="Group 56"><path data-name="Path 215" d="M133.843 217.03a1.363 1.363 0 100 2.725h27.924a1.363 1.363 0 100-2.725z" fill="#679ce0"/></g><g data-name="Group 57"><path data-name="Path 216" d="M110.454 204.152s-6.542 9.313-8.733 12.427c-1.343-1.962-3.061-4.45-3.061-4.45a1.818 1.818 0 00-3 2.053l4.55 6.618a1.842 1.842 0 002.992.008l10.225-14.567a1.819 1.819 0 00-.435-2.534 1.845 1.845 0 00-2.538.445z" fill="#679ce0"/></g></g><g data-name="Group 64"><g data-name="Group 59"><path data-name="Path 217" d="M119.644 182.152a1.367 1.367 0 100 2.733h23.117a1.367 1.367 0 000-2.733z" fill="#679ce0"/></g><g data-name="Group 60"><path data-name="Path 218" d="M147.622 182.152a1.367 1.367 0 000 2.733h14.168a1.367 1.367 0 000-2.733z" fill="#679ce0"/></g><g data-name="Group 61"><path data-name="Path 219" d="M118.821 189.426a1.37 1.37 0 000 2.741h9.145a1.37 1.37 0 000-2.741z" fill="#679ce0"/></g><g data-name="Group 62"><path data-name="Path 220" d="M133.843 189.426a1.37 1.37 0 000 2.741h27.924a1.37 1.37 0 000-2.741z" fill="#679ce0"/></g><g data-name="Group 63"><path data-name="Path 221" d="M110.454 176.553s-6.542 9.305-8.733 12.427c-1.343-1.962-3.061-4.45-3.061-4.45a1.82 1.82 0 00-3 2.061l4.55 6.6a1.832 1.832 0 002.992.023l10.225-14.574a1.817 1.817 0 10-2.977-2.084z" fill="#679ce0"/></g></g></g><g data-name="Group 68"><path data-name="Path 222" d="M515.627 258.845a29.11 29.11 0 11-29.107-29.137 29.115 29.115 0 0129.107 29.137z" fill="#292f61"/><g data-name="Group 67"><g data-name="Group 66"><path data-name="Path 223" d="M494.878 247.639s-8.3 10.534-11.992 15.206c-2.275-2.382-4.756-4.954-4.756-4.954a3.947 3.947 0 10-5.695 5.466l7.885 8.221a3.956 3.956 0 003.046 1.206 3.912 3.912 0 002.9-1.489l14.809-18.756a3.951 3.951 0 00-6.2-4.9z" fill="#fff"/></g></g></g><g data-name="Group 70"><g data-name="Group 69"><path data-name="Path 224" d="M481.567 323.487a9.488 9.488 0 109.492-9.489 9.508 9.508 0 00-9.492 9.489zm3.634 0a5.859 5.859 0 115.858 5.854 5.864 5.864 0 01-5.858-5.854z" fill="#bdd1e9"/></g></g><g data-name="Group 72"><g data-name="Group 71"><path data-name="Path 225" d="M36.585 214.281a9.488 9.488 0 109.488-9.481 9.5 9.5 0 00-9.488 9.481zm3.641 0a5.851 5.851 0 115.847 5.847 5.848 5.848 0 01-5.847-5.847z" fill="#bdd1e9"/></g></g><g data-name="Group 76"><g data-name="Group 75"><g data-name="Group 73"><path data-name="Path 226" d="M330.178 423.807a1.821 1.821 0 000 3.641h18.191a1.821 1.821 0 000-3.641z" fill="#bdd1e9"/></g><g data-name="Group 74"><path data-name="Path 227" d="M356.162 423.807a1.821 1.821 0 100 3.641h3.328a1.821 1.821 0 000-3.641z" fill="#bdd1e9"/></g></g></g><g data-name="Group 80"><g data-name="Group 79"><g data-name="Group 77"><path data-name="Path 228" d="M154.271 357.089a1.817 1.817 0 100 3.634h18.189a1.817 1.817 0 100-3.634z" fill="#bdd1e9"/></g><g data-name="Group 78"><path data-name="Path 229" d="M180.263 357.089a1.817 1.817 0 100 3.634h3.328a1.817 1.817 0 100-3.634z" fill="#bdd1e9"/></g></g></g><g data-name="Group 84"><g data-name="Group 83"><g data-name="Group 81"><path data-name="Path 230" d="M537.467 348.257a1.817 1.817 0 100 3.634h18.2a1.817 1.817 0 100-3.634z" fill="#bdd1e9"/></g><g data-name="Group 82"><path data-name="Path 231" d="M563.459 348.257a1.817 1.817 0 100 3.634h3.336a1.817 1.817 0 100-3.634z" fill="#bdd1e9"/></g></g></g><g data-name="Group 88"><g data-name="Group 87"><g data-name="Group 85"><path data-name="Path 232" d="M121.516 99.923a1.813 1.813 0 100 3.626h18.2a1.813 1.813 0 100-3.626z" fill="#bdd1e9"/></g><g data-name="Group 86"><path data-name="Path 233" d="M147.508 99.923a1.813 1.813 0 100 3.626h3.329a1.813 1.813 0 100-3.626z" fill="#bdd1e9"/></g></g></g><g data-name="Group 92"><g data-name="Group 91"><g data-name="Group 89"><path data-name="Path 234" d="M526.697 129.027a1.821 1.821 0 000 3.641h18.19a1.821 1.821 0 000-3.641z" fill="#bdd1e9"/></g><g data-name="Group 90"><path data-name="Path 235" d="M552.688 129.027a1.821 1.821 0 100 3.641h3.321a1.821 1.821 0 000-3.641z" fill="#bdd1e9"/></g></g></g><path data-name="Path 236" d="M300.713 219.701h-4.659v-4.656a1.821 1.821 0 00-3.641 0v4.656h-4.659a1.825 1.825 0 000 3.649h4.656v4.657a1.821 1.821 0 003.641 0v-4.657h4.656a1.825 1.825 0 000-3.649z" fill="#bdd1e9"/><path data-name="Path 237" d="M567.589 228.197h-4.672v-4.656a1.8 1.8 0 00-1.794-1.824 1.823 1.823 0 00-1.84 1.824v4.656h-4.649a1.821 1.821 0 100 3.641h4.649v4.656a1.834 1.834 0 001.84 1.832 1.815 1.815 0 001.794-1.832v-4.656h4.672a1.821 1.821 0 000-3.641z" fill="#bdd1e9"/><path data-name="Path 238" d="M41.104 405.318H36.44v-4.672a1.817 1.817 0 00-3.634 0v4.672H28.15a1.817 1.817 0 100 3.634h4.656v4.656a1.817 1.817 0 103.634 0v-4.656h4.664a1.817 1.817 0 100-3.634z" fill="#bdd1e9"/><g data-name="Group 93"><path data-name="Path 239" d="M556.169 427.058l10.389-.267a72.138 72.138 0 0011.855-26.87l-8.137-.565 8.824-3.076a89.334 89.334 0 001.412-16.4 86.882 86.882 0 00-29.305 8.817l-.713 6.921-1.374-5.771c-8.908 4.962-17.58 12.4-23.183 23.382l2.634 11.175-4.542-7.13a56.663 56.663 0 00-3.8 15.4c-.4 11.038 0 17.733 0 17.733h16.932a69.691 69.691 0 0027.152-20.74z" fill="#52c7a3"/><path data-name="Path 240" d="M523.547 437.814a38.676 38.676 0 00-5.382-16.328l-2.489 5.237.809-7.618a44.389 44.389 0 00-19.011-14.409l-.5 4.725-1.3-5.412a61.314 61.314 0 00-14.927-3.668 59.546 59.546 0 003.567 21.255l4.321 1.366-3.656.366a50.024 50.024 0 0013.03 18.443l8.473.45-5.511 2.015a45.323 45.323 0 0010.549 6.175h12.027s.271-4.757 0-12.597z" fill="#78c7c7"/><path data-name="Path 241" d="M493.406 413.158c-2.641-2.5-8.168-8.336-8.168-8.336a93.878 93.878 0 019.145 6.779c21.931 20.717 26.511 37.786 26.71 38.58l-.87.229h-.939c-.611-2.077-5.878-18.184-25.878-37.252z" fill="#fff" opacity=".25" style="mix-blend-mode:screen;isolation:isolate"/><path data-name="Path 242" d="M526.39 450.409h-1.939c1.641-5.534 11.763-35.809 42.656-60.3a83.46 83.46 0 018.679-5.313s-4.786 4.6-7.259 6.542c-29.786 23.491-40.091 52.46-42.137 59.071z" fill="#fff" opacity=".21" style="mix-blend-mode:screen;isolation:isolate"/></g></g></g></svg>