<svg xmlns="http://www.w3.org/2000/svg" width="709.072" height="464.955"><defs><linearGradient id="a" x1=".5" y1=".785" x2=".5" y2="-.155" gradientUnits="objectBoundingBox"><stop offset=".006" stop-color="#ec1c24"/><stop offset=".012" stop-color="#ea1c23"/><stop offset=".195" stop-color="#ce1c22"/><stop offset=".301" stop-color="#c41c22"/><stop offset=".403" stop-color="#b0171c"/><stop offset=".672" stop-color="#830d0f"/><stop offset=".88" stop-color="#660607"/><stop offset="1" stop-color="#5c0404"/></linearGradient></defs><g data-name="Group 94"><g data-name="Group 9"><g data-name="Group 8"><g data-name="Group 7" opacity=".3"><g data-name="Group 6"><path data-name="Path 131" d="M235.333 163.693c27.286-19.31 35.11-55.2 17.448-80.153s-58.24-22.327-85.518-3.009c-27.3 19.31-30.987 48-13.324 72.942 17.661 24.969 54.1 29.546 81.394 10.22z" fill="#bdd1e9"/></g><path data-name="Path 132" d="M701.598 458.397a156.512 156.512 0 00-5.62-92.61c-18.013-47.8-48.888-63.454-64-103.538a156.263 156.263 0 01-6.805-86.807l-.279-.247a156.981 156.981 0 00-211.417-165.06c-83.759 31.568-96.216 104.979-96.43 104.995a135.237 135.237 0 01-84.276 96.749c-44.836 16.9-74.621 7.9-111.57 21.833C30.331 267.948-17.192 366.846 11.16 458.397z" fill="#bdd1e9"/></g></g><path data-name="Path 133" d="M709.072 457.625c0 4.052-158.722 7.331-354.528 7.331C158.722 464.956 0 461.677 0 457.625s158.722-7.331 354.544-7.331c195.806 0 354.528 3.279 354.528 7.331z" fill="#bdd1e9" opacity=".4" style="mix-blend-mode:multiply;isolation:isolate"/></g><path data-name="Path 134" d="M493.932 361.497h52.063s-2.412-5.452-8.883-3.168a7.877 7.877 0 00-10.117-5.2s-2.284-8.859-10.507-8.111c-8.246.772-9.265 7.235-9.639 8.875.001.002-8.738-1.773-12.917 7.604z" fill="#fff"/><path data-name="Path 135" d="M388.913 263.824h80.129s-3.7-8.374-13.651-4.863c0 0-3.311-11.311-15.593-8 0 0-3.518-13.643-16.182-12.473s-14.224 11.112-14.821 13.643c.001 0-13.443-2.722-19.882 11.693z" fill="#fff"/><path data-name="Path 136" d="M65.03 322.064h80.121s-3.7-8.389-13.651-4.887c0 0-3.311-11.3-15.593-7.991 0 0-3.494-13.643-16.182-12.473-12.672 1.17-14.224 11.12-14.813 13.651.001 0-13.451-2.73-19.882 11.7z" fill="#fff"/><g data-name="Group 11"><g data-name="Group 10" fill="#ffc500"><path data-name="Path 137" d="M333.555 46.114c-34.043 15.871-101.373 59.912-108 160.847a37.879 37.879 0 00-55.582-1.831c11.323-83.368 79.481-149.536 163.582-159.016z"/><path data-name="Path 138" d="M341.363 48.319c-17.806 18.156-50.806 64.7-52.5 159.534a38.067 38.067 0 00-57.938-1.035c7.131-103.809 80.056-145.565 110.438-158.499z"/><path data-name="Path 139" d="M323.184 194.027a38.164 38.164 0 00-29.021 13.086c2.189-106.754 45.64-151.073 57.85-161.436l-.08 161.436a38.319 38.319 0 00-28.749-13.086z"/><path data-name="Path 140" d="M357.302 46.042c12.648 10.952 55.065 55.431 57.126 160.776a37.636 37.636 0 00-57.054.6l-.215-.088z"/><path data-name="Path 141" d="M419.789 208.362c-1.473-95.141-34.481-141.816-52.263-159.964 30.358 12.926 103.284 54.826 110.193 158.714a37.6 37.6 0 00-57.93 1.25z"/><path data-name="Path 142" d="M539.031 205.417a37.95 37.95 0 00-55.956 2.213c-6.232-101.381-73.714-145.565-107.836-161.516 84.395 9.408 152.625 75.791 163.792 159.303z"/></g><path data-name="Path 143" d="M539.028 205.417c-11.167-83.512-79.4-149.9-163.792-159.3 34.123 15.951 101.6 60.135 107.836 161.516a37.95 37.95 0 0155.956-2.213zm-124.6 1.401c-2.061-105.345-44.478-149.823-57.126-160.776l-.148 161.289.215.088a37.636 37.636 0 0157.054-.6zm-46.9-158.42c17.782 18.148 50.79 64.823 52.263 159.964a37.6 37.6 0 0157.93-1.25c-6.912-103.888-79.838-145.788-110.193-158.714zm-141.97 158.563c6.622-100.936 73.953-144.976 108-160.847-84.1 9.48-152.259 75.648-163.578 159.017a37.879 37.879 0 0155.582 1.831zm63.3.891c1.7-94.839 34.7-141.378 52.5-159.534-30.382 12.934-103.307 54.69-110.439 158.5a38.067 38.067 0 0157.938 1.035zm63.151-162.177c-12.21 10.363-55.661 54.682-57.85 161.436a38.423 38.423 0 0157.771 0zm-4.932 167.756a30.613 30.613 0 00-52.263 7.2c-1.178 2.865-5.954 2.865-7.212 0a30.658 30.658 0 00-55.94-1.393 3.859 3.859 0 01-3.383 2.125h-.159a3.844 3.844 0 01-3.51-2.2 30.433 30.433 0 00-27.58-17.431 30.8 30.8 0 00-28.742 20.154 3.911 3.911 0 01-7.577-1.56c4.935-99.535 87.046-179.823 187.178-183.2a2.262 2.262 0 01.732-.135h.215s1.632-29.57 5.8-29.57c4.274 0 5.811 29.57 5.811 29.57h.231a4.385 4.385 0 01.955.135c100.068 3.606 181.964 84.029 186.74 183.572a4.079 4.079 0 01-3.176 4.052 2.9 2.9 0 01-.8.08 3.975 3.975 0 01-3.677-2.579 30.545 30.545 0 00-56.529-2.507 4.042 4.042 0 01-3.542 2.2 3.828 3.828 0 01-3.518-2.2 30.671 30.671 0 00-55.8.295 3.779 3.779 0 01-3.518 2.276 3.97 3.97 0 01-3.606-2.276 30.792 30.792 0 00-27.938-18.148 30.4 30.4 0 00-23.965 11.84 3.916 3.916 0 01-3.1 1.472h-.517l.517 137.82a7.62 7.62 0 013.542 6.328l-.1 63.892c0 13.444-10.57 24.388-23.576 24.324-13.014 0-23.537-10.952-23.537-24.412v-28.824a7.725 7.725 0 0115.45 0l-.08 28.822c0 5.007 3.669 9.05 8.167 9.05 4.553 0 8.238-4.043 8.238-9.05l.064-63.8a7.457 7.457 0 013.526-6.328l-.589-137.82a4.011 4.011 0 01-3.232-1.774z" fill="#efab18"/><path data-name="Path 144" d="M350.906 353.011a7.533 7.533 0 00-3.542 6.3l-.08 63.884c0 4.991-3.669 9.026-8.19 9.018s-8.182-4.027-8.167-9.026l.016-28.806a7.693 7.693 0 00-15.386-.024l-.016 28.814c-.016 13.452 10.554 24.42 23.537 24.428 13.006.016 23.576-10.952 23.576-24.388l.08-63.868a7.578 7.578 0 00-3.526-6.312l-.533-137.812-8.326-.008z" fill="#535667"/><path data-name="Path 145" d="M360.482 36.984s-1.537-29.539-5.795-29.539-5.866 29.562-5.866 29.562l11.86-.008c-.072-.015-.136.001-.199-.015z" fill="#535667"/></g><g data-name="Group 12" transform="translate(421.405 36.777)"><path data-name="Path 146" d="M87.357 43.674A43.678 43.678 0 1143.691 0a43.675 43.675 0 0143.666 43.674z" fill="#fff"/><path data-name="Path 147" d="M81.554 43.674A37.876 37.876 0 1143.69 5.786a37.89 37.89 0 0137.864 37.888z" fill="#ccf2fa"/><path data-name="Path 148" d="M80.177 33.541c-3.685.6-4.187 3.439-8.724 3.439-5.086 0-5.086-3.566-10.164-3.566s-5.07 3.566-10.172 3.566c-5.078 0-5.078-3.566-10.165-3.566-5.07 0-5.07 3.566-10.156 3.566s-5.078-3.566-10.18-3.566c-5.07 0-5.07 3.566-10.149 3.566a7.3 7.3 0 01-3.9-.995 38.745 38.745 0 00-.764 7.689 37.876 37.876 0 1075.751 0 38.3 38.3 0 00-1.377-10.133z" fill="#73c7f0"/><path data-name="Path 149" d="M81.403 46.879c-1.775-1.043-2.953-2.539-6.232-2.539-5.086 0-5.086 3.566-10.188 3.566-5.062 0-5.062-3.566-10.148-3.566s-5.086 3.566-10.18 3.566c-5.07 0-5.07-3.566-10.156-3.566s-5.078 3.566-10.164 3.566-5.086-3.566-10.165-3.566c-4.306 0-4.975 2.547-8.166 3.327a37.873 37.873 0 0075.4-.788z" fill="#25a9e0"/><path data-name="Path 150" d="M20.807 55.478a2.006 2.006 0 11-2.006-2.006 2.013 2.013 0 012.006 2.006z" fill="#73c7f0"/><path data-name="Path 151" d="M43.078 74.056a2 2 0 11-2.006-2.03 2.023 2.023 0 012.006 2.03z" fill="#73c7f0"/><path data-name="Path 152" d="M51.41 55.176a2.014 2.014 0 11-2.022-2.006 2.021 2.021 0 012.022 2.006z" fill="#73c7f0"/><path data-name="Path 153" d="M69.074 58.602a3.49 3.49 0 11-3.494-3.486 3.485 3.485 0 013.494 3.486z" fill="#73c7f0"/><path data-name="Path 154" d="M37.593 62.021a3.5 3.5 0 11-3.494-3.5 3.485 3.485 0 013.494 3.5z" fill="#73c7f0"/><path data-name="Path 155" d="M22.144 67.737a.9.9 0 11-.908-.892.9.9 0 01.908.892z" fill="#73c7f0"/><path data-name="Path 156" d="M58.376 71.597a.891.891 0 11-1.783 0 .892.892 0 011.783 0z" fill="#73c7f0"/><path data-name="Path 157" d="M50.058 65.364a.876.876 0 01-.883.884.892.892 0 110-1.783.88.88 0 01.883.899z" fill="#73c7f0"/><circle data-name="Ellipse 50" cx=".89" cy=".89" r=".89" transform="translate(75.165 50.208)" fill="#73c7f0"/></g><g data-name="Group 13"><path data-name="Path 158" d="M287.668 80.451a43.67 43.67 0 11-43.674-43.674 43.666 43.666 0 0143.674 43.674z" fill="#fff"/><path data-name="Path 159" d="M281.881 80.451a37.88 37.88 0 11-37.888-37.888 37.89 37.89 0 0137.888 37.888z" fill="#ffed7d"/><path data-name="Path 160" d="M264.282 77.41s-5.707 5.182-3.837 12.075c1.847 6.9-3.192 3.446-2.539-5.309.669-8.756-1.847-14.065-7.96-20.7-6.089-6.63-1.99-13.133.812-13a11.155 11.155 0 00-12.349 3.851c-4.386 5.428-3.049 14.057-1.863 19.9s.31 15.06-4.433 18.044c-3.391 2.125-7.633-2.125-6.049-6.368 0 0-12.337 6.941-6.758 20.265.884 2.133 2.611 3.59 2.762 5.158a37.841 37.841 0 0046.349-1.926c4.8-4.672 5.142-10.26 2.81-14.025-3.992-6.368-8.401-8.015-6.945-17.965z" fill="#f25333"/><path data-name="Path 161" d="M262.42 100.788c-5.2 7.585-15.593-.891-12.624-6.376 2.969-5.508 1.178-12.934-1.775-15.76-2.985-2.81-4.617-11.581-4.617-11.581s-1.043 2.237.454 12.186a22.987 22.987 0 01-10.109 22.43c-6.089 3.709-10.7-4.76-10.7-4.76-.883 11.12 5.229 17.193 7.06 18.761a37.845 37.845 0 0034.369-3.375c5.2-7.108.318-17.153.318-17.153a21.626 21.626 0 01-2.376 5.628z" fill="#f9ae00"/></g><g data-name="Group 18"><g data-name="Group 15"><g data-name="Group 14"><path data-name="Path 162" d="M592.743 190.006l-.048-9.822-3.685-1.672c-7.991-3.622-36.455-15.4-67.7-15.4-31.234 0-59.713 11.78-67.7 15.394l-3.7 1.672-.04 18.864c0 30.684 1.321 62.57 17.161 85.677 17.209 25.1 41.565 40.228 51.236 45.561l3.049 1.679 3.048-1.679c9.655-5.333 34.027-20.456 51.22-45.561 15.863-23.123 17.2-54.993 17.2-85.669z" fill="#fff"/><path data-name="Path 163" d="M456.212 184.26c-.016 2.173-.04 14.8-.04 14.8 0 29.681 1.226 60.477 16.054 82.087 16.7 24.356 40.761 39.018 49.079 43.61 8.3-4.585 32.38-19.246 49.079-43.61 14.813-21.61 16.062-52.406 16.062-82.1l-.016-9.034s-.032-3.478-.032-5.755c-7.18-3.255-34.9-14.845-65.094-14.845-30.173.002-57.905 11.591-65.092 14.847z" fill="#d92a19"/></g><path data-name="Path 164" d="M586.399 184.26c-7.18-3.255-34.9-14.845-65.094-14.845-.231 0-.478.016-.732.016v154.917c.239.127.517.279.732.406 8.3-4.585 32.38-19.246 49.079-43.61 14.813-21.61 16.062-52.406 16.062-82.1l-.016-9.034s-.031-3.474-.031-5.75z" fill="#d92a19" style="mix-blend-mode:screen;isolation:isolate"/></g><g data-name="Group 17"><g data-name="Group 16"><path data-name="Path 165" d="M540.321 211.163s-18.721 23.72-27.023 34.25c-5.126-5.356-10.718-11.186-10.718-11.186a8.89 8.89 0 00-12.831 12.306l17.79 18.546a8.889 8.889 0 0013.38-.653L554.27 222.2a8.893 8.893 0 00-13.945-11.04z" fill="#fff"/></g></g></g><g data-name="Group 20"><g data-name="Group 19"><path data-name="Path 166" d="M578.28 323.21a9.973 9.973 0 109.965-9.973 9.989 9.989 0 00-9.965 9.973zm3.829 0a6.149 6.149 0 116.137 6.169 6.135 6.135 0 01-6.137-6.169z" fill="#bdd1e9"/></g></g><g data-name="Group 22"><g data-name="Group 21"><path data-name="Path 167" d="M54.241 362.729a9.973 9.973 0 109.965-9.974 9.977 9.977 0 00-9.965 9.974zm3.829 0a6.157 6.157 0 116.137 6.153 6.147 6.147 0 01-6.141-6.153z" fill="#bdd1e9"/></g></g><g data-name="Group 26"><g data-name="Group 25"><g data-name="Group 23"><path data-name="Path 168" d="M600.766 401.604a1.91 1.91 0 100 3.821h19.119a1.91 1.91 0 100-3.821z" fill="#bdd1e9"/></g><g data-name="Group 24"><path data-name="Path 169" d="M628.075 401.604a1.91 1.91 0 000 3.821h3.518a1.91 1.91 0 000-3.821z" fill="#bdd1e9"/></g></g></g><g data-name="Group 30"><g data-name="Group 29"><g data-name="Group 27"><path data-name="Path 170" d="M95.435 205.082a1.914 1.914 0 000 3.828h19.143a1.914 1.914 0 000-3.828z" fill="#bdd1e9"/></g><g data-name="Group 28"><path data-name="Path 171" d="M122.768 205.082a1.914 1.914 0 100 3.828h3.494a1.914 1.914 0 000-3.828z" fill="#bdd1e9"/></g></g></g><path data-name="Path 172" d="M534.757 403.347h-4.9v-4.9a1.91 1.91 0 10-3.821 0v4.9h-4.9a1.914 1.914 0 100 3.829h4.9v4.9a1.91 1.91 0 003.821 0v-4.9h4.9a1.914 1.914 0 000-3.829z" fill="#bdd1e9"/><path data-name="Path 173" d="M570.631 111.692h-4.9v-4.887a1.919 1.919 0 00-3.837 0v4.887h-4.9a1.91 1.91 0 000 3.821h4.9v4.911a1.919 1.919 0 003.837 0v-4.911h4.9a1.91 1.91 0 000-3.821z" fill="#bdd1e9"/><path data-name="Path 174" d="M147.953 405.425h-4.879v-4.887a1.922 1.922 0 00-3.844 0v4.887h-4.879a1.918 1.918 0 000 3.836h4.879v4.9a1.922 1.922 0 003.844 0v-4.9h4.879a1.918 1.918 0 100-3.836z" fill="#bdd1e9"/><g data-name="Group 44"><path data-name="Rectangle 191" d="M139.288 263.483h80.569a.727.727 0 01.727.727v113.245a.726.726 0 01-.726.726h-80.57a.726.726 0 01-.726-.726V264.209a.726.726 0 01.726-.726z" fill="#2b2161"/><path data-name="Path 175" d="M215.811 354.169l-16.743 15.438h-55.453V267.548h72.2z" fill="#fff"/><path data-name="Path 176" d="M188.945 255.514a9.312 9.312 0 00-18.466 0h-12.3v14.478h43.061v-14.478zm-9.233 7.148a5.894 5.894 0 115.89-5.9 5.889 5.889 0 01-5.89 5.9z" fill="#25a9e0"/><path data-name="Path 177" d="M215.811 354.171h-16.805l.062 15.438z" fill="#aeb7c0"/><g data-name="Group 36"><g data-name="Group 31"><path data-name="Path 178" d="M170.677 342.361a1.2 1.2 0 000 2.4h20.337a1.2 1.2 0 000-2.4z" fill="#679ce0"/></g><g data-name="Group 32"><path data-name="Path 179" d="M195.304 342.361a1.2 1.2 0 000 2.4h12.457a1.2 1.2 0 100-2.4z" fill="#679ce0"/></g><g data-name="Group 33"><path data-name="Path 180" d="M169.961 348.761a1.2 1.2 0 100 2.4H178a1.2 1.2 0 100-2.4z" fill="#679ce0"/></g><g data-name="Group 34"><path data-name="Path 181" d="M183.182 348.761a1.2 1.2 0 100 2.4h24.563a1.2 1.2 0 100-2.4z" fill="#679ce0"/></g><g data-name="Group 35"><path data-name="Path 182" d="M162.598 337.435s-5.755 8.19-7.681 10.928c-1.186-1.727-2.706-3.916-2.706-3.916a1.601 1.601 0 10-2.627 1.831l4 5.795a1.6 1.6 0 002.643.008l9-12.791a1.648 1.648 0 00-.39-2.253 1.617 1.617 0 00-2.239.398z" fill="#679ce0"/></g></g><g data-name="Group 42"><g data-name="Group 37"><path data-name="Path 183" d="M170.677 321.579a1.192 1.192 0 00-1.194 1.194 1.21 1.21 0 001.194 1.2h20.337a1.2 1.2 0 001.194-1.2 1.182 1.182 0 00-1.194-1.194z" fill="#679ce0"/></g><g data-name="Group 38"><path data-name="Path 184" d="M195.304 321.579a1.182 1.182 0 00-1.194 1.194 1.2 1.2 0 001.194 1.2h12.457a1.213 1.213 0 001.21-1.2 1.2 1.2 0 00-1.21-1.194z" fill="#679ce0"/></g><g data-name="Group 39"><path data-name="Path 185" d="M169.961 327.978a1.2 1.2 0 100 2.4H178a1.2 1.2 0 100-2.4z" fill="#679ce0"/></g><g data-name="Group 40"><path data-name="Path 186" d="M183.182 327.978a1.2 1.2 0 000 2.4h24.563a1.2 1.2 0 100-2.4z" fill="#679ce0"/></g><g data-name="Group 41"><path data-name="Path 187" d="M162.598 316.652l-7.681 10.929c-1.186-1.719-2.706-3.916-2.706-3.916a1.6 1.6 0 00-2.627 1.815l4 5.818a1.612 1.612 0 002.643.008l9-12.807a1.618 1.618 0 00-.39-2.229 1.6 1.6 0 00-2.239.382z" fill="#679ce0"/></g></g><g data-name="Group 43"><path data-name="Path 188" d="M135.878 152.263l-6.048-3.653-6.032 3.653v-11.722h12.079z" transform="translate(49.058 160.136)" fill="url(#a)"/><path data-name="Path 189" d="M165.177 290.401c0-.549.716-1.059.78-1.576.072-.557-.5-1.21-.374-1.727s.931-.86 1.13-1.361-.2-1.281.064-1.767c.231-.478 1.106-.589 1.417-1.027.31-.454.111-1.305.462-1.7.358-.414 1.234-.31 1.64-.669s.414-1.242.852-1.552c.454-.3 1.258-.016 1.759-.263.462-.247.685-1.091 1.194-1.281s1.226.286 1.775.167c.509-.135.915-.9 1.473-.963.533-.072 1.106.581 1.664.581s1.138-.653 1.664-.581c.549.064.963.828 1.481.963.541.119 1.258-.358 1.751-.167.517.191.732 1.035 1.218 1.281s1.289-.04 1.743.263.446 1.186.852 1.552c.422.358 1.273.255 1.648.669.342.4.159 1.25.47 1.7.31.438 1.162.549 1.409 1.027s-.135 1.266.064 1.767.995.836 1.122 1.361-.438 1.17-.358 1.727c.048.517.764 1.027.764 1.576s-.716 1.051-.764 1.584c-.08.541.478 1.2.358 1.727s-.931.852-1.122 1.353.191 1.281-.064 1.767-1.1.6-1.409 1.035-.127 1.3-.47 1.7c-.374.406-1.226.3-1.648.669-.406.358-.406 1.226-.852 1.544s-1.266.016-1.743.271c-.485.239-.7 1.083-1.218 1.273-.493.191-1.21-.294-1.751-.159-.517.119-.931.891-1.481.955-.525.064-1.114-.581-1.664-.581s-1.13.645-1.664.581c-.557-.064-.963-.836-1.473-.955-.549-.135-1.266.35-1.775.159s-.732-1.035-1.194-1.273c-.5-.263-1.305.04-1.759-.271-.438-.318-.454-1.186-.852-1.544s-1.281-.263-1.64-.669-.151-1.266-.462-1.7-1.186-.557-1.417-1.043c-.263-.478.143-1.25-.064-1.759s-.995-.836-1.13-1.353.446-1.186.374-1.727-.78-1.043-.78-1.584z" fill="#ffc500"/></g></g><path data-name="Path 190" d="M157.002 279.99c-.422-.279-1.154-.016-1.608-.239-.326-.167-.509-.637-.772-.947l-12.409 21.244a1.556 1.556 0 00.422.748c.406.295 1.146.016 1.6.247.438.215.621 1 1.106 1.17l12.282-21.045c-.207-.374-.294-.947-.621-1.178zm-4.306-1.266a1.065 1.065 0 01-.47-.294l-11.876 20.321.016.032c.231.271.74.295 1.13.422l12.04-20.576a2.1 2.1 0 01-.84.095z" fill="#ffc500" opacity=".3" style="mix-blend-mode:screen;isolation:isolate"/><g data-name="Group 93"><g data-name="Group 89"><g data-name="Group 69"><path data-name="Path 191" d="M453.091 453.138h-195.15V301.703l97.334-48.667 97.816 48.667z" fill="#ffe0ad"/><path data-name="Rectangle 192" fill="#66331c" d="M256.977 432.997h105.807v20.14H256.977z"/><path data-name="Path 192" d="M453.091 453.137h-92.375V333.262l45.223-19.5 47.152 19.5z" fill="#ffd080"/><path data-name="Path 193" d="M360.713 343.198c17.909-8.8 42.632-20.934 45.131-22.167 2.579 1.3 29.029 14.4 47.248 23.457v-10.71l-6.161-3.057-40.992-16.954-45.226 19.5z" opacity=".2" style="mix-blend-mode:multiply;isolation:isolate"/><path data-name="Rectangle 193" fill="#9e5127" d="M360.716 432.997h92.375v20.14h-92.375z"/><path data-name="Rectangle 194" fill="#ffd080" style="mix-blend-mode:multiply;isolation:isolate" d="M384.113 384.812h44.446v68.325h-44.446z"/><path data-name="Rectangle 195" fill="#fff" d="M384.113 349.849h44.446v13.394h-44.446z"/><path data-name="Path 194" d="M385.261 362.029h20.432v-10.976h-20.432zm21.738-10.976v10.976h20.424v-10.976z" fill="#77b9b7"/><g data-name="Group 46"><g data-name="Group 45" fill="#77b9b7" opacity=".5"><path data-name="Path 195" d="M416.667 351.054l-6.343 10.975h1.6l6.343-10.975z"/><path data-name="Path 196" d="M420.04 351.054l-6.358 10.975h3.685l6.343-10.975z"/></g></g><g data-name="Group 48"><g data-name="Group 47" fill="#77b9b7" opacity=".5"><path data-name="Path 197" d="M394.078 351.054l-6.358 10.975h1.6l6.343-10.975z"/><path data-name="Path 198" d="M391.093 362.03h3.683l6.343-10.975h-3.683z"/></g></g><g data-name="Group 54"><path data-name="Rectangle 196" fill="#fff" d="M276.565 371.341h65.371v67.813h-65.371z"/><path data-name="Path 199" d="M278.244 389.267h30.031v-16.15h-30.031zm31.982-16.15v16.15h30.031v-16.15z" fill="#77b9b7"/><path data-name="Rectangle 197" fill="#77b9b7" d="M278.244 391.365h30.035v45.814h-30.035z"/><path data-name="Rectangle 198" fill="#77b9b7" d="M310.222 391.365h30.036v45.814h-30.036z"/><g data-name="Group 50"><g data-name="Group 49" fill="#77b9b7" opacity=".5"><path data-name="Path 200" d="M324.434 373.114l-9.328 16.152h2.347l9.328-16.152z"/><path data-name="Path 201" d="M329.391 373.114l-9.343 16.152h5.41l9.328-16.152z"/></g></g><g data-name="Group 52"><g data-name="Group 51" fill="#77b9b7" opacity=".5"><path data-name="Path 202" d="M291.21 373.114l-9.344 16.152h2.348l9.343-16.152z"/><path data-name="Path 203" d="M286.81 389.266h5.426l9.328-16.152h-5.41z"/></g></g><path data-name="Path 204" d="M297.673 391.368l-19.429 33.613v12.194h8.007l22.024-38.071v-7.737zm-10.507 0l-8.923 15.426v8.7l13.945-24.125z" fill="#77b9b7" opacity=".5" style="mix-blend-mode:screen;isolation:isolate"/><g data-name="Group 53" opacity=".5" style="mix-blend-mode:screen;isolation:isolate" fill="#77b9b7"><path data-name="Path 205" d="M332.965 391.365l-22.745 39.332v6.482h11.318l18.718-32.375v-13.439z"/><path data-name="Path 206" d="M322.441 391.365l-12.22 21.134v8.69l17.256-29.824z"/></g></g><g data-name="Group 57"><path data-name="Rectangle 199" fill="#fff" d="M276.565 305.574h20.754v39.69h-20.754z"/><path data-name="Rectangle 200" fill="#77b9b7" d="M278.462 307.292h16.93v9.11h-16.93z"/><path data-name="Rectangle 201" fill="#77b9b7" d="M278.462 317.583h16.93v25.838h-16.93z"/><g data-name="Group 56"><g data-name="Group 55" fill="#77b9b7" opacity=".5"><path data-name="Path 207" d="M285.769 307.292l-5.255 9.11h1.321l5.255-9.11z"/><path data-name="Path 208" d="M283.297 316.402h3.047l5.271-9.11h-3.048z"/></g></g><path data-name="Path 209" d="M289.419 317.583l-10.96 18.968v6.867h4.529l12.405-21.465v-4.37zm-5.922 0l-5.038 8.708v4.9l7.872-13.611z" fill="#77b9b7" opacity=".5" style="mix-blend-mode:screen;isolation:isolate"/></g><g data-name="Group 60"><path data-name="Rectangle 202" fill="#fff" d="M334.599 305.574h20.755v39.69h-20.755z"/><path data-name="Rectangle 203" fill="#77b9b7" d="M336.496 307.292h16.945v9.11h-16.945z"/><path data-name="Rectangle 204" fill="#77b9b7" d="M336.496 317.583h16.945v25.838h-16.945z"/><g data-name="Group 59"><g data-name="Group 58" fill="#77b9b7" opacity=".5"><path data-name="Path 210" d="M343.803 307.292l-5.255 9.11h1.306l5.286-9.11z"/><path data-name="Path 211" d="M341.331 316.402h3.063l5.255-9.11h-3.047z"/></g></g><path data-name="Path 212" d="M347.453 317.583l-10.96 18.968v6.867h4.529l12.414-21.465v-4.37zm-5.922 0l-5.039 8.708v4.9l7.872-13.611z" fill="#77b9b7" opacity=".5" style="mix-blend-mode:screen;isolation:isolate"/></g><g data-name="Group 63"><path data-name="Rectangle 205" fill="#fff" d="M305.575 305.574h20.769v39.69h-20.769z"/><path data-name="Rectangle 206" fill="#77b9b7" d="M307.471 307.292h16.945v9.11h-16.945z"/><path data-name="Rectangle 207" fill="#77b9b7" d="M307.471 317.583h16.945v25.838h-16.945z"/><g data-name="Group 62"><g data-name="Group 61" fill="#77b9b7" opacity=".5"><path data-name="Path 213" d="M314.794 307.292l-5.27 9.11h1.321l5.27-9.11z"/><path data-name="Path 214" d="M312.322 316.402h3.047l5.255-9.11h-3.047z"/></g></g><path data-name="Path 215" d="M318.448 317.583l-10.976 18.968v6.867h4.521l12.425-21.467v-4.37zm-5.938 0l-5.038 8.708v4.9l7.864-13.611z" fill="#77b9b7" opacity=".5" style="mix-blend-mode:screen;isolation:isolate"/></g><path data-name="Rectangle 208" fill="#b85e3b" d="M389.321 390.284h34.046v62.884h-34.046z"/><path data-name="Path 216" d="M393.689 426.168a1.021 1.021 0 01-1.043.955 1.01 1.01 0 01-1.043-.955v-7.2a1 1 0 011.043-.955 1.015 1.015 0 011.043.955z" fill="#fff"/><g data-name="Group 65"><g data-name="Group 64" fill="#b85e3b" opacity=".2"><path data-name="Rectangle 209" d="M396.13 394.754h20.428v10.788H396.13z"/><path data-name="Rectangle 210" d="M396.13 409.017h20.428v10.797H396.13z"/><path data-name="Rectangle 211" d="M396.13 423.288h20.428v10.789H396.13z"/><path data-name="Rectangle 212" d="M396.13 437.544h20.428v10.797H396.13z"/></g></g><g data-name="Group 67"><g data-name="Group 66"><path data-name="Path 217" d="M337.829 339.591l4.219 8.612s59.816-29.379 63.8-31.329c3.98 1.966 64.536 32.037 64.536 32.037l4.258-8.6-68.763-34.131z" fill="#d92a19"/></g></g><path data-name="Path 218" d="M291.754 259.184h-29.49v6.234h4.788v27.33L287.2 282.9v-17.482h4.555z" fill="#66331c"/><path data-name="Path 219" d="M257.939 301.704v6.328c30.191-14.821 94.321-46.3 97.441-47.845 3.1 1.544 66.837 33.176 97.712 48.5v-6.98l-97.815-48.665z" opacity=".2" style="mix-blend-mode:multiply;isolation:isolate"/><g data-name="Group 68"><path data-name="Path 220" d="M238.247 302.062l4.226 8.612s108.824-53.424 112.907-55.438c4.091 2.038 114.188 56.688 114.188 56.688l4.258-8.6-118.414-58.786z" fill="#66331c"/></g></g><g data-name="Group 85"><g data-name="Group 70"><path data-name="Path 221" d="M487.835 419.215c-1.536.016-7.665 4.593-11.159 4.609-4.664.016-6.965-4.537-9.934-4.537-5.214 0-6.161-2.069-6.113-4.617.127-4.975-2.284-7.068-5.206-10.069-2.937-3-5.317-6.344-5.07-17.185l.406-19.843a21.283 21.283 0 016.169-14.439c5.508-5.6 7.808-6.185 7.928-11.732s3.208-12.5 10.825-12.5c9.3 0 12.95 9.392 12.807 15.593s.5 9.862 6.439 16.389c3.526 3.876 5.516 6.734 5.373 13.181l.645 21.4c-.143 6.455-1.982 9.313-4.187 11.47-2.189 2.157-4 3.407-4.1 8.063-.047 2.279-1.201 4.182-4.823 4.217z" fill="#9cc426"/></g><g data-name="Group 76"><g data-name="Group 75"><g data-name="Group 71"><path data-name="Path 222" d="M493.59 378.872a1.417 1.417 0 11-1.417-1.4 1.415 1.415 0 011.417 1.4z" fill="#9cc426"/></g><g data-name="Group 72"><path data-name="Path 223" d="M481.476 341.359a1.421 1.421 0 11-1.425-1.409 1.415 1.415 0 011.425 1.409z" fill="#9cc426"/></g><g data-name="Group 73"><path data-name="Path 224" d="M460.303 381.117a1.739 1.739 0 11-1.743-1.735 1.743 1.743 0 011.743 1.735z" fill="#9cc426"/></g><g data-name="Group 74"><path data-name="Path 225" d="M472.402 363.534a1.735 1.735 0 11-1.727-1.735 1.722 1.722 0 011.727 1.735z" fill="#9cc426"/></g></g></g><g data-name="Group 84"><g data-name="Group 83"><path data-name="Path 226" d="M477.448 387.58a1.79 1.79 0 00-1.783 1.783v63.8h3.558v-63.8a1.832 1.832 0 00-1.775-1.783z" fill="#66331c"/><g data-name="Group 77"><path data-name="Path 227" d="M471.08 393.693l5.237 3.025a.9.9 0 001.21-.326.879.879 0 00-.326-1.194l-5.253-3.033a.879.879 0 00-1.194.326.858.858 0 00.326 1.2z" fill="#66331c"/></g><g data-name="Group 78"><path data-name="Path 228" d="M487.772 393.399l-10.944 10.754a.879.879 0 00-.016 1.242.9.9 0 001.25.016l10.946-10.754a.9.9 0 00.008-1.242.872.872 0 00-1.242-.016z" fill="#66331c"/></g><g data-name="Group 79"><path data-name="Path 229" d="M488.306 394.903l3.693.39a.877.877 0 10.191-1.743l-3.717-.4a.892.892 0 00-.963.788.877.877 0 00.8.963z" fill="#66331c"/></g><g data-name="Group 80"><path data-name="Path 230" d="M486.371 390.27l1.17 4a.872.872 0 001.09.6.9.9 0 00.6-1.09l-1.17-4a.9.9 0 00-1.1-.6.875.875 0 00-.6 1.09z" fill="#66331c"/></g><g data-name="Group 81"><path data-name="Path 231" d="M477.997 411.53l-11.04-9.185a.909.909 0 00-.557-.207h-4.792a.884.884 0 000 1.767h4.792a.835.835 0 01-.565-.215l11.056 9.193a.874.874 0 001.106-1.353z" fill="#66331c"/></g><g data-name="Group 82"><path data-name="Path 232" d="M467.284 402.949l-.406-4.593a.874.874 0 10-1.743.135l.39 4.6a.882.882 0 101.759-.143z" fill="#66331c"/></g></g></g></g><g data-name="Group 88" transform="translate(217.932 388.316)"><path data-name="Path 233" d="M19.359 47.109h29.554c4.25 0 12.719-4.72 12.719-14.311S51.125 19.283 51.125 19.283 51.157 2.544 36.336.267c-14.3-2.2-20.751 9.894-20.751 9.894S.661 14.252.024 27.616c-.62 13.357 10.229 19.493 19.335 19.493z" fill="#9cc426"/><path data-name="Path 234" d="M37.674 19.712c-3.542.947-5.611-7.187-22.088-9.074-.374-.048-.732-.064-1.106-.1C11.065 11.772.567 16.452.025 27.619c-.621 13.356 10.228 19.493 19.334 19.493h29.554c4.25 0 12.719-4.72 12.719-14.311S51.125 19.286 51.125 19.286a21.029 21.029 0 00-13.451.426z" fill="#7eb907"/><g data-name="Group 86"><path data-name="Path 235" d="M27.773 34.445v30.406h3.781V34.445a1.89 1.89 0 00-3.781 0z" fill="#66331c"/></g><g data-name="Group 87"><path data-name="Path 236" d="M21.62 41.952a.946.946 0 00.135 1.329l6.933 5.5a.938.938 0 001.321-.151.948.948 0 00-.151-1.329l-6.917-5.5a.959.959 0 00-1.321.151z" fill="#66331c"/></g><path data-name="Path 237" d="M53.005 38.306a2.169 2.169 0 11-2.157-2.165 2.166 2.166 0 012.157 2.165z" fill="#9cc426" opacity=".6" style="mix-blend-mode:screen;isolation:isolate"/><circle data-name="Ellipse 51" cx="1.633" cy="1.633" r="1.633" transform="translate(42.325 22.925)" fill="#9cc426" opacity=".6" style="mix-blend-mode:screen;isolation:isolate"/><path data-name="Path 238" d="M43.151 9.317a2.8 2.8 0 11-2.8-2.81 2.8 2.8 0 012.8 2.81z" fill="#fff"/><path data-name="Path 239" d="M20.418 30.847a2.276 2.276 0 11-2.268-2.292 2.278 2.278 0 012.268 2.292z" fill="#9cc426" opacity=".6" style="mix-blend-mode:screen;isolation:isolate"/><path data-name="Path 240" d="M36.01 47.061l-6.447 6.113a.946.946 0 001.305 1.369l7.88-7.482z" fill="#66331c"/></g></g><g data-name="Group 90"><path data-name="Path 241" d="M512.216 450.261c-.716-1.122.621-2.046-.995-3.789-1.011-1.122-3.064-.979-3.924-2.428a4.482 4.482 0 00-7.975 0c-.868 1.449-2.077 1.234-3.1 2.364-1.6 1.743-.175 2.9-.907 4-.692 1.13-2.253.74-2.253 2.762h20.5c-.009-2.026-.638-1.787-1.346-2.909z" fill="#7eb907"/><path data-name="Path 242" d="M498.239 446.759c-1.576-2.459 1.385-4.481-2.165-8.326-2.268-2.475-6.742-2.117-8.66-5.381-3.526-6.033-8.779-5.357-8.779-5.357s-5.237-.677-8.787 5.357c-1.91 3.263-4.537 2.738-6.805 5.206-3.55 3.852-.406 6.368-1.974 8.851-1.576 2.452-4.991 1.616-4.991 6.057h45.118c0-4.441-1.373-3.947-2.957-6.407z" fill="#7eb907"/><path data-name="Path 243" d="M477.154 448.605c-1.114-1.759.979-3.184-1.536-5.946-1.616-1.751-4.808-1.5-6.177-3.836-2.515-4.282-6.248-3.781-6.248-3.781s-3.741-.5-6.264 3.781c-1.369 2.332-3.248 1.966-4.847 3.717-2.539 2.746-.279 4.545-1.417 6.3-1.122 1.767-3.542 1.178-3.542 4.33h32.133c-.001-3.155-.98-2.805-2.102-4.565z" fill="#9cc426"/><path data-name="Path 244" d="M503.006 451.018c-.525-.828.47-1.512-.732-2.8-.74-.828-2.253-.724-2.905-1.8a3.3 3.3 0 00-5.906 0c-.637 1.074-1.52.907-2.3 1.735-1.178 1.3-.127 2.157-.653 2.961-.525.852-1.68.573-1.68 2.054h15.171c0-1.482-.462-1.322-.995-2.15z" fill="#9cc426"/></g><g data-name="Group 92"><path data-name="Path 245" d="M262.141 450.262c-.7-1.122.637-2.046-.979-3.789-1.027-1.122-3.064-.979-3.924-2.428a4.5 4.5 0 00-7.991 0c-.868 1.449-2.062 1.234-3.1 2.364-1.6 1.743-.175 2.9-.891 4-.708 1.13-2.253.74-2.253 2.762h20.484c0-2.026-.638-1.787-1.346-2.909z" fill="#7eb907"/><g data-name="Group 91"><path data-name="Path 246" d="M245.003 449.012c-1.011-1.584.907-2.9-1.4-5.4-1.472-1.6-4.362-1.369-5.611-3.486-2.284-3.908-5.683-3.47-5.683-3.47s-3.407-.438-5.707 3.47c-1.234 2.117-2.937 1.775-4.418 3.383-2.284 2.491-.263 4.123-1.274 5.723s-3.232 1.059-3.232 3.932h29.236c0-2.87-.884-2.552-1.911-4.152z" fill="#7eb907"/><path data-name="Path 247" d="M231.337 450.206c-.724-1.13.645-2.062-.995-3.845-1.035-1.138-3.1-.979-4-2.491a4.58 4.58 0 00-8.111 0c-.883 1.512-2.1 1.273-3.16 2.412-1.632 1.783-.167 2.937-.9 4.083s-2.3.748-2.3 2.8h20.83c.005-2.052-.632-1.813-1.364-2.959z" fill="#9cc426"/><path data-name="Path 248" d="M248.1 451.766c-.342-.533.31-.971-.47-1.807-.494-.541-1.473-.47-1.894-1.17a2.138 2.138 0 00-3.821 0c-.422.7-.995.589-1.5 1.13-.764.844-.08 1.393-.438 1.918-.326.549-1.067.366-1.067 1.329h9.838c.005-.96-.305-.851-.648-1.4z" fill="#9cc426"/></g></g></g></g></svg>