<svg xmlns="http://www.w3.org/2000/svg" xmlns:xlink="http://www.w3.org/1999/xlink" width="715.845" height="534.357"><defs><linearGradient id="a" x1="76.271" y1=".554" x2="76.328" y2=".224" gradientUnits="objectBoundingBox"><stop offset="0" stop-color="#3d342b"/><stop offset="1" stop-color="#291c17"/></linearGradient><linearGradient id="b" x1="730.962" y1="60.189" x2="730.962" y2="59.419" xlink:href="#a"/><linearGradient id="c" x1="210.865" y1="-27.479" x2="210.865" y2="-28.33" xlink:href="#a"/><linearGradient id="d" x1="197.527" y1=".555" x2="197.665" y2=".229" xlink:href="#a"/><linearGradient id="e" x1="371.184" y1=".556" x2="371.449" y2=".232" xlink:href="#a"/><linearGradient id="f" x1="121.353" y1=".178" x2="121.619" y2=".922" gradientUnits="objectBoundingBox"><stop offset="0" stop-color="#bababa"/><stop offset="1" stop-color="#363636"/></linearGradient><linearGradient id="g" x1="119.049" y1=".307" x2="119.28" y2="1.153" gradientUnits="objectBoundingBox"><stop offset="0" stop-color="#ededed"/><stop offset="1" stop-color="#363636"/></linearGradient><linearGradient id="h" x1="-147.797" y1=".5" x2="-146.797" y2=".5" xlink:href="#a"/><linearGradient id="i" x1="-144.785" y1=".5" x2="-143.785" y2=".5" xlink:href="#a"/></defs><g data-name="Group 124"><g data-name="Group 9"><g data-name="Group 8"><g data-name="Group 7" opacity=".3"><g data-name="Group 6"><path data-name="Path 131" d="M164.012 216.197c27.542-19.488 35.427-55.735 17.612-80.92-17.832-25.193-58.795-22.53-86.349-3.042s-31.283 48.459-13.451 73.643c17.832 25.201 54.62 29.824 82.188 10.319z" fill="#bdd1e9"/></g><path data-name="Path 132" d="M708.29 527.731a157.788 157.788 0 00-5.679-93.495c-18.178-48.264-49.346-64.06-64.6-104.524a157.879 157.879 0 01-6.879-87.638 1.3 1.3 0 00-.287-.237A158.461 158.461 0 00417.419 75.19c-84.545 31.861-97.129 105.986-97.349 106a136.5 136.5 0 01-85.078 97.661c-45.273 17.071-75.325 7.978-112.637 22.049A184.255 184.255 0 0011.266 527.731z" fill="#bdd1e9"/></g></g><path data-name="Path 133" d="M715.845 526.954c0 4.09-160.242 7.4-357.922 7.4S.001 531.041.001 526.954s160.242-7.395 357.922-7.395 357.922 3.313 357.922 7.395z" fill="#bdd1e9" opacity=".4" style="mix-blend-mode:multiply;isolation:isolate"/></g><g data-name="Group 18"><g data-name="Group 17"><g data-name="Group 16"><g data-name="Group 10"><path data-name="Path 134" d="M331.057 49.515c-43.591 20.333-129.818 76.719-138.291 205.971a48.49 48.49 0 00-71.167-2.358c14.49-106.755 101.774-191.469 209.458-203.613z" fill="#f15959"/></g><g data-name="Group 11"><path data-name="Path 135" d="M341.037 52.329c-22.776 23.266-65.048 82.846-67.22 204.281a48.744 48.744 0 00-74.184-1.318c9.144-132.92 102.529-186.382 141.404-202.963z" fill="#f15959"/></g><g data-name="Group 12"><path data-name="Path 136" d="M317.772 238.914a48.9 48.9 0 00-37.168 16.754c2.814-136.684 58.456-193.451 74.091-206.719l-.1 206.723a49.045 49.045 0 00-36.823-16.758z" fill="#f15959"/></g><g data-name="Group 13"><path data-name="Path 137" d="M361.464 49.414c16.192 14.029 70.508 70.99 73.145 205.878a48.2 48.2 0 00-73.06.761l-.279-.1z" fill="#f15959"/></g><g data-name="Group 14"><path data-name="Path 138" d="M441.488 257.27c-1.9-121.815-44.166-181.589-66.95-204.839 38.892 16.573 132.277 70.229 141.117 203.241a48.134 48.134 0 00-74.167 1.6z" fill="#f15959"/></g><g data-name="Group 15"><path data-name="Path 139" d="M594.166 253.508a48.593 48.593 0 00-71.632 2.814c-7.995-129.809-94.424-186.381-138.1-206.807 108.073 12.043 195.432 97.052 209.732 203.993z" fill="#f15959"/></g></g></g><path data-name="Path 140" d="M594.166 253.511c-14.3-106.943-101.659-191.953-209.732-204 43.675 20.426 130.105 77 138.1 206.808a48.593 48.593 0 0171.632-2.814zm-159.557 1.783c-2.637-134.891-56.953-191.851-73.145-205.883l-.194 206.537.279.1a48.2 48.2 0 0173.06-.761zM374.538 52.431c22.784 23.249 65.048 83.024 66.95 204.839a48.134 48.134 0 0174.167-1.6C506.815 122.66 413.43 69.004 374.538 52.431zM192.771 255.486c8.468-129.251 94.695-185.637 138.286-205.975-107.685 12.148-194.966 96.863-209.453 203.617a48.49 48.49 0 0171.167 2.358zm81.046 1.124c2.172-121.434 44.444-181.015 67.22-204.281-38.875 16.581-132.26 70.043-141.4 202.962a48.744 48.744 0 0174.184 1.318zm80.874-207.661c-15.635 13.268-71.277 70.035-74.091 206.723a49.212 49.212 0 0173.99 0zM348.37 263.76a39.217 39.217 0 00-66.925 9.229c-1.513 3.685-7.631 3.685-9.229 0a39.265 39.265 0 00-71.632-1.783 4.943 4.943 0 01-4.335 2.73h-.194a4.966 4.966 0 01-4.513-2.814 38.91 38.91 0 00-35.3-22.319 39.4 39.4 0 00-36.8 25.8 5.069 5.069 0 01-5.751 3.194 4.97 4.97 0 01-3.955-5.181c6.3-127.46 111.462-230.26 239.674-234.587a2.889 2.889 0 01.938-.194h.287s2.062-37.836 7.429-37.836c5.459 0 7.445 37.836 7.445 37.836h.279a5.606 5.606 0 011.225.194c128.111 4.614 232.989 107.6 239.1 235.068a5.123 5.123 0 01-4.048 5.155 3.52 3.52 0 01-1.023.11 5.1 5.1 0 01-4.716-3.3 39.111 39.111 0 00-72.384-3.2 5.177 5.177 0 01-4.53 2.823 4.9 4.9 0 01-4.5-2.823 39.284 39.284 0 00-71.471.372 4.85 4.85 0 01-4.5 2.924 5.111 5.111 0 01-4.606-2.924 39.466 39.466 0 00-35.774-23.241 38.952 38.952 0 00-30.7 15.153 4.953 4.953 0 01-3.947 1.885h-.659l.659 121.916a9.764 9.764 0 014.53 8.1l-.11 81.807c0 17.223-13.556 31.235-30.221 31.159-16.649 0-30.111-14.037-30.111-31.269v-36.899a9.884 9.884 0 0119.767 0l-.085 36.906c0 6.414 4.7 11.587 10.429 11.587 5.848 0 10.564-5.172 10.564-11.587l.085-81.7a9.56 9.56 0 014.521-8.1l-.761-121.916a5.089 5.089 0 01-4.149-2.275z" fill="#eb3647"/><path data-name="Path 141" d="M353.257 387.941a9.682 9.682 0 00-4.53 8.071l-.093 81.782c0 6.4-4.707 11.57-10.5 11.561-5.772 0-10.463-5.164-10.454-11.561l.025-36.889a9.846 9.846 0 00-19.691-.025l-.042 36.889c-.008 17.232 13.5 31.278 30.128 31.278 16.666.008 30.213-14.012 30.221-31.227l.093-81.773a9.757 9.757 0 00-4.513-8.1l-.685-121.891-10.669-.006z" fill="#535667"/><path data-name="Path 142" d="M365.528 37.827S363.576.008 358.108.008c-5.443 0-7.513 37.844-7.513 37.844l15.2-.017a2.547 2.547 0 01-.267-.008z" fill="#535667"/></g><g data-name="Group 24"><path data-name="Path 143" d="M212.824 419.049v-3.82a8.873 8.873 0 018.86-8.865h35.086a8.878 8.878 0 018.857 8.865v3.82h5.916v-3.82a14.8 14.8 0 00-14.773-14.781h-35.086a14.788 14.788 0 00-14.767 14.781v3.82z" fill="#603813"/><path data-name="Rectangle 191" d="M165.092 418.748H313.38a.89.89 0 01.89.89v105.487a.891.891 0 01-.891.891H165.092a.891.891 0 01-.891-.89V419.639a.891.891 0 01.891-.891z" fill="#5e311a"/><g data-name="Group 23"><g data-name="Group 20"><path data-name="Path 144" d="M194.021 525.913h-7.167v-25.895c0-.448.828-.811 1.876-.811h3.414c1.031 0 1.876.363 1.876.811z" fill="#3b2314"/><g data-name="Group 19" transform="translate(180.575 416.111)"><rect data-name="Rectangle 192" width="11.24" height="85.303" rx=".348" transform="translate(4.242)" fill="#964d24"/><rect data-name="Rectangle 193" width="19.775" height="14.624" rx=".349" transform="translate(0 38.133)" fill="#c7862a"/><path data-name="Rectangle 194" fill="#c7862a" d="M8.591 50.67h2.216v8.112H8.591z"/><path data-name="Path 145" d="M11.299 32.001a1.471 1.471 0 11-1.47-1.479 1.466 1.466 0 011.47 1.479z" fill="#3b2314"/><path data-name="Path 146" d="M11.299 63.141a1.471 1.471 0 11-1.47-1.479 1.464 1.464 0 011.47 1.479z" fill="#3b2314"/><path data-name="Path 147" d="M11.299 70.141a1.471 1.471 0 11-1.47-1.479 1.466 1.466 0 011.47 1.479z" fill="#3b2314"/><path data-name="Path 148" d="M11.299 17.397a1.471 1.471 0 11-1.47-1.462 1.463 1.463 0 011.47 1.462z" fill="#3b2314"/><path data-name="Path 149" d="M11.299 10.679A1.471 1.471 0 119.829 9.2a1.473 1.473 0 011.47 1.479z" fill="#3b2314"/><path data-name="Path 150" d="M11.299 24.412a1.47 1.47 0 11-1.47-1.471 1.471 1.471 0 011.47 1.471z" fill="#3b2314"/></g></g><g data-name="Group 22"><path data-name="Path 151" d="M291.564 525.913h-7.175v-25.895c0-.448.837-.811 1.885-.811h3.415c1.039 0 1.876.363 1.876.811z" fill="#3b2314"/><g data-name="Group 21"><path data-name="Rectangle 195" d="M282.709 416.111h10.552a.349.349 0 01.349.349v84.607a.348.348 0 01-.348.348H282.71a.349.349 0 01-.349-.35v-84.606a.348.348 0 01.348-.348z" fill="#964d24"/><path data-name="Rectangle 196" d="M278.459 454.244h19.088a.35.35 0 01.35.35v13.925a.349.349 0 01-.349.349h-19.089a.349.349 0 01-.349-.349v-13.926a.349.349 0 01.349-.349z" fill="#c7862a"/><path data-name="Rectangle 197" fill="#c7862a" d="M286.714 466.781h2.207v8.112h-2.207z"/><path data-name="Path 152" d="M289.43 448.112a1.479 1.479 0 11-1.487-1.479 1.481 1.481 0 011.487 1.479z" fill="#3b2314"/><path data-name="Path 153" d="M289.43 479.252a1.479 1.479 0 01-2.958 0 1.479 1.479 0 112.958 0z" fill="#3b2314"/><path data-name="Path 154" d="M289.43 486.252a1.479 1.479 0 11-1.487-1.479 1.481 1.481 0 011.487 1.479z" fill="#3b2314"/><path data-name="Path 155" d="M289.43 433.508a1.479 1.479 0 11-1.487-1.462 1.477 1.477 0 011.487 1.462z" fill="#3b2314"/><path data-name="Path 156" d="M289.43 426.79a1.479 1.479 0 11-2.958 0 1.479 1.479 0 112.958 0z" fill="#3b2314"/><path data-name="Path 157" d="M289.43 440.523a1.479 1.479 0 01-2.958 0 1.479 1.479 0 012.958 0z" fill="#3b2314"/></g></g></g><path data-name="Path 158" d="M269.042 474.581H209.41a6.59 6.59 0 00-6.583 6.6v42.577a5.242 5.242 0 00.49 2.214l71.826.27a6.577 6.577 0 00.49-2.485v-42.576a6.591 6.591 0 00-6.591-6.6z" fill="#964d24"/><path data-name="Path 159" d="M269.05 476.973h-.9v.6h.9a3.736 3.736 0 011.53.338l.27-.532a3.845 3.845 0 00-1-.33 4.241 4.241 0 00-.8-.076zm-2.7 0h-1.779v.6h1.783v-.6zm-3.575 0h-1.788v.6h1.792v-.6zm-3.583 0h-1.8v.6h1.8v-.6zm-3.583 0h-1.788v.6h1.792v-.6zm-3.592 0h-1.779v.6h1.783v-.6zm-3.575 0h-1.787v.6h1.792v-.6zm-3.583 0h-1.779v.6h1.783v-.6zm-3.583 0h-1.779v.6h1.783v-.6zm-3.575 0h-1.787v.6h1.792v-.6zm-3.583 0h-1.788v.6h1.792v-.6zm-3.583 0h-1.78v.6h1.783v-.6zm-3.575 0h-1.788v.6h1.792v-.6zm-3.583 0h-1.79v.6h1.792v-.6zm-3.583 0h-1.788v.6h1.791v-.6zm-3.583 0h-1.789v.6h1.792v-.6zm-3.583 0h-1.781v.6h1.783v-.6zm-3.642.017a4.634 4.634 0 00-1.014.228 4.485 4.485 0 00-.938.482l.346.49a3.064 3.064 0 01.794-.406 3.263 3.263 0 01.87-.194l-.059-.6zm-3.299 2.265a3.982 3.982 0 00-.372.972 5.06 5.06 0 00-.093.946v.072h.592v-.068a3.826 3.826 0 01.093-.828 3.976 3.976 0 01.3-.82l-.524-.27zm.127 3.786h-.592v1.792h.592v-1.788zm0 3.583h-.592v1.792h.592v-1.792zm0 3.583h-.592v1.783h.592v-1.782zm0 3.575h-.592v1.792h.592v-1.792zm0 3.583h-.592v1.792h.592v-1.791zm0 3.583h-.592v1.797h.592v-1.8zm0 3.583h-.592v1.792h.592v-1.791zm0 3.592h-.592v1.783h.592v-1.783zm0 3.575h-.592v1.783h.592v-1.783zm0 3.583h-.592v1.783h.592v-1.783zm0 3.575h-.592v1.8h.592v-1.8zm0 3.583h-.592v1.792h.592v-1.786zm67.44-.558h-.6v1.783h.6v-1.783zm0-3.583h-.6v1.783h.6v-1.783zm0-3.583h-.6v1.792h.6v-1.792zm0-3.575h-.6v1.783h.6v-1.778zm0-3.592h-.6v1.8h.6v-1.8zm0-3.583h-.6v1.792h.6v-1.791zm0-3.575h-.6v1.783h.6v-1.782zm0-3.592h-.6v1.8h.6v-1.8zm0-3.575h-.6v1.792h.6v-1.79zm0-3.583h-.6v1.792h.6v-1.787zm0-3.583h-.6v1.788h.6v-1.787zm0-3.583h-.6v1.792h.6v-1.791zm-.811-3.786l-.482.355.118.186.008.008.034.059.017.017.034.068h.008a3.5 3.5 0 01.211.439 3.27 3.27 0 01.2.71l.025.152.592-.076a3.917 3.917 0 00-.27-1.014 4.564 4.564 0 00-.5-.9z" fill="#964d24" opacity=".6" style="mix-blend-mode:screen;isolation:isolate"/><path data-name="Rectangle 198" fill="#3b2314" d="M278.176 460.793h19.643v.739h-19.643z"/><path data-name="Rectangle 199" fill="#3b2314" d="M180.422 460.793h19.639v.739h-19.639z"/></g><g data-name="Group 42"><path data-name="Path 160" d="M377.96 488.294a2.1 2.1 0 00-.414-1.2l-.008-.017a2.1 2.1 0 00-.473-.473 1.564 1.564 0 00-.313-.211 1.075 1.075 0 00-.228-.093 1.827 1.827 0 00-.7-.144h-3.617a2.136 2.136 0 001.817-2.1v-5.764a2.145 2.145 0 00-.414-1.209l-.025-.017a1.941 1.941 0 00-.439-.473 2.2 2.2 0 00-.33-.211 1.294 1.294 0 00-.228-.093 1.6 1.6 0 00-.49-.118 2.116 2.116 0 001.927-2.113v-5.764a2.1 2.1 0 00-.406-1.209l-.017-.017a2.1 2.1 0 00-.592-.566l-.169-.11-.262-.118a2.108 2.108 0 00-.685-.144h-18.535a29.318 29.318 0 00-7.268-57.73c-.811 0-1.614.059-2.409.127a28.38 28.38 0 00-2.409-.127 29.317 29.317 0 00-7.251 57.73h-20.409a2.112 2.112 0 00-.693.144l-.262.11-.194.144a2.01 2.01 0 00-.583.549v.008a2.1 2.1 0 00-.414 1.209v5.764a2.13 2.13 0 001.935 2.113 1.6 1.6 0 00-.49.118 1.22 1.22 0 00-.245.093 3.2 3.2 0 00-.279.186 2.489 2.489 0 00-.49.5l-.017.017h.008a2.034 2.034 0 00-.423 1.209v5.764a2.136 2.136 0 001.259 1.952l.034.025a2.059 2.059 0 00.854.177h3.431l-.2.085a1.366 1.366 0 00-.237.093c-.11.059-.194.127-.3.194a2.14 2.14 0 00-.911 1.71v5.781a2.129 2.129 0 001.276 1.944l.025.025a2.084 2.084 0 00.651.144 1.437 1.437 0 00-.532.118 2.4 2.4 0 00-.262.093c-.076.051-.144.11-.22.161a2.125 2.125 0 00-.968 1.752v5.782a2.123 2.123 0 001.276 1.952l.017.017a3.157 3.157 0 00.507.11h-7.178a2.4 2.4 0 00-.7.127c-.085.042-.161.059-.245.11-.1.059-.186.127-.279.177a2.068 2.068 0 00-.482.5l-.025.017h.009a2.16 2.16 0 00-.423 1.217v5.764a2.166 2.166 0 001.259 1.961l.034.017a2.059 2.059 0 00.854.177h3.431c-.068.017-.127.051-.2.076a.936.936 0 00-.228.11 1.279 1.279 0 00-.3.186 2.14 2.14 0 00-.913 1.707v5.775a2.129 2.129 0 001.276 1.944l.025.017a2.026 2.026 0 00.845.186h58.271a2.1 2.1 0 00.854-.186l.118-.076a2.347 2.347 0 00.575-.406v-.008a2.15 2.15 0 00.608-1.47v-5.781a2.143 2.143 0 00-.431-1.209h.008l-.017-.008a2.2 2.2 0 00-.456-.473 1.2 1.2 0 00-.321-.2.809.809 0 00-.228-.11 2.12 2.12 0 00-.71-.135h-3.609a2.122 2.122 0 001.817-2.1v-5.764a2.152 2.152 0 00-.414-1.217h.008l-.025-.017a1.95 1.95 0 00-.456-.456 1.909 1.909 0 00-.313-.22c-.076-.051-.161-.068-.237-.11l-.177-.059h7a2.155 2.155 0 002.147-2.147v-5.781a1.982 1.982 0 00-.431-1.2 1.7 1.7 0 00-.566-.558.9.9 0 00-.211-.135.77.77 0 00-.254-.11 1.5 1.5 0 00-.482-.118 2.3 2.3 0 00.685-.144l.118-.085a1.976 1.976 0 00.566-.406h.003a2.229 2.229 0 00.592-1.479z" opacity=".1" style="mix-blend-mode:multiply;isolation:isolate"/><g data-name="Group 41"><g data-name="Group 27"><path data-name="Path 161" d="M380.309 437.751a29.338 29.338 0 11-29.334-29.342 29.334 29.334 0 0129.334 29.342z" fill="#dea61c"/><path data-name="Path 162" d="M375.492 437.751a29.342 29.342 0 11-29.343-29.342 29.346 29.346 0 0129.343 29.342z" fill="#ffde00"/><path data-name="Path 163" d="M371.849 437.751a25.7 25.7 0 11-25.7-25.7 25.693 25.693 0 0125.7 25.7z" fill="#ffbf00"/><path data-name="Path 164" d="M346.149 412.051a25.572 25.572 0 00-18.584 7.995 25.669 25.669 0 0136.3 36.289 25.675 25.675 0 00-17.716-44.284z" fill="#ffbf00" opacity=".3" style="mix-blend-mode:multiply;isolation:isolate"/><g data-name="Group 26"><g data-name="Group 25"><path data-name="Path 165" d="M349.504 442.746a3.3 3.3 0 00-.2-1.175 2.624 2.624 0 00-.625-.972 5.182 5.182 0 00-1.149-.837 11.9 11.9 0 00-1.7-.727 20.073 20.073 0 01-2.654-1.107 8.43 8.43 0 01-2.038-1.412 5.541 5.541 0 01-1.293-1.868 5.982 5.982 0 01-.465-2.485 6.528 6.528 0 01.406-2.349 5.664 5.664 0 011.158-1.851 5.539 5.539 0 011.783-1.259 7.746 7.746 0 012.375-.659v-3.32h2.451v3.355a6.715 6.715 0 012.324.752 5.305 5.305 0 011.749 1.454 6.525 6.525 0 011.1 2.147 9.368 9.368 0 01.387 2.763h-3.7a6.734 6.734 0 00-.211-1.724 3.783 3.783 0 00-.642-1.293 2.981 2.981 0 00-1.006-.837 3.146 3.146 0 00-1.352-.287 3.964 3.964 0 00-1.386.228 2.953 2.953 0 00-.972.642 2.7 2.7 0 00-.583.963 4.414 4.414 0 00-.169 1.242 3.789 3.789 0 00.169 1.158 2.588 2.588 0 00.634.955 5.467 5.467 0 001.149.837 15.587 15.587 0 001.809.761 24.984 24.984 0 012.654 1.141 8.3 8.3 0 012 1.411 5.653 5.653 0 011.268 1.842 6.413 6.413 0 01.438 2.481 6.342 6.342 0 01-.431 2.409 5.317 5.317 0 01-1.2 1.834 6.146 6.146 0 01-1.885 1.242 8.507 8.507 0 01-2.476.592v2.983h-2.424v-2.96a8.935 8.935 0 01-2.349-.575 6.346 6.346 0 01-2-1.285 5.951 5.951 0 01-1.394-2.1 8.135 8.135 0 01-.532-3.068h3.718a5.147 5.147 0 00.321 1.961 3.356 3.356 0 00.862 1.225 2.958 2.958 0 001.192.659 4.517 4.517 0 001.335.194 3.765 3.765 0 002.654-.854 2.885 2.885 0 00.9-2.227z" fill="#cc961c"/></g></g></g><g data-name="Group 40"><g data-name="Group 29"><g data-name="Group 28"><path data-name="Rectangle 200" d="M320.493 496.17h62.057a.254.254 0 01.254.254v9.565a.254.254 0 01-.254.254h-62.058a.254.254 0 01-.254-.254v-9.564a.255.255 0 01.255-.255z" fill="#dea61c"/></g><path data-name="Path 166" d="M320.653 497.112h61.736a2.12 2.12 0 00-1.733-.938h-58.271a2.12 2.12 0 00-1.732.938z" fill="#ffde00"/><path data-name="Path 167" d="M320.839 505.555a2.109 2.109 0 001.547.685h58.27a2.109 2.109 0 001.547-.685z" fill="#dea61c" opacity=".3" style="mix-blend-mode:multiply;isolation:isolate"/><path data-name="Rectangle 201" fill="#dea61c" opacity=".3" style="mix-blend-mode:screen;isolation:isolate" d="M338.63 496.17h25.778v10.073H338.63z"/></g><g data-name="Group 31"><g data-name="Group 30"><path data-name="Rectangle 202" d="M312.978 506.169h62.05a.254.254 0 01.254.254v9.561a.254.254 0 01-.254.254h-62.051a.254.254 0 01-.254-.254v-9.56a.255.255 0 01.255-.255z" fill="#dea61c"/></g><path data-name="Path 168" d="M313.138 507.102h61.727a2.143 2.143 0 00-1.732-.93h-58.269a2.128 2.128 0 00-1.726.93z" fill="#ffde00"/><path data-name="Path 169" d="M313.317 515.562a2.115 2.115 0 001.547.676h58.27a2.069 2.069 0 001.538-.676z" fill="#dea61c" opacity=".3" style="mix-blend-mode:multiply;isolation:isolate"/><path data-name="Rectangle 203" fill="#dea61c" opacity=".3" style="mix-blend-mode:screen;isolation:isolate" d="M331.115 506.169h25.778v10.069h-25.778z"/></g><g data-name="Group 33"><g data-name="Group 32"><path data-name="Rectangle 204" d="M316.91 516.18h62.054a.254.254 0 01.254.254v9.553a.253.253 0 01-.253.253H316.91a.254.254 0 01-.254-.254v-9.552a.254.254 0 01.254-.254z" fill="#dea61c"/></g><path data-name="Path 170" d="M317.078 517.111h61.732a2.1 2.1 0 00-1.741-.93h-58.267a2.074 2.074 0 00-1.724.93z" fill="#ffde00"/><path data-name="Path 171" d="M317.255 525.567a2.148 2.148 0 001.547.676h58.264a2.123 2.123 0 001.555-.676z" fill="#dea61c" opacity=".3" style="mix-blend-mode:multiply;isolation:isolate"/><path data-name="Rectangle 205" fill="#dea61c" opacity=".3" style="mix-blend-mode:screen;isolation:isolate" d="M335.043 516.18h25.783v10.06h-25.783z"/></g><g data-name="Group 35"><g data-name="Group 34"><path data-name="Rectangle 206" d="M316.597 466.142h62.046a.254.254 0 01.254.254v9.568a.255.255 0 01-.255.255h-62.047a.252.252 0 01-.252-.252v-9.571a.254.254 0 01.254-.254z" fill="#dea61c"/></g><path data-name="Path 172" d="M316.766 467.093h61.727a2.133 2.133 0 00-1.724-.955H318.49a2.109 2.109 0 00-1.724.955z" fill="#ffde00"/><path data-name="Path 173" d="M316.943 475.545a2.148 2.148 0 001.547.676h58.279a2.1 2.1 0 001.53-.676z" fill="#dea61c" opacity=".3" style="mix-blend-mode:multiply;isolation:isolate"/><path data-name="Rectangle 207" fill="#dea61c" opacity=".3" style="mix-blend-mode:screen;isolation:isolate" d="M334.743 466.142h25.778v10.077h-25.778z"/></g><g data-name="Group 37"><g data-name="Group 36"><rect data-name="Rectangle 208" width="62.558" height="10.073" rx=".254" fill="#dea61c" transform="translate(316.343 476.148)"/></g><path data-name="Path 174" d="M316.766 477.092h61.719a2.114 2.114 0 00-1.732-.946H318.49a2.122 2.122 0 00-1.724.946z" fill="#ffde00"/><path data-name="Path 175" d="M316.943 485.543a2.148 2.148 0 001.547.676h58.262a2.1 2.1 0 001.547-.676z" fill="#dea61c" opacity=".3" style="mix-blend-mode:multiply;isolation:isolate"/><path data-name="Rectangle 209" fill="#dea61c" opacity=".3" style="mix-blend-mode:screen;isolation:isolate" d="M334.743 476.148h25.778v10.073h-25.778z"/></g><g data-name="Group 39"><g data-name="Group 38"><rect data-name="Rectangle 210" width="62.57" height="10.069" rx=".254" fill="#dea61c" transform="translate(320.275 486.156)"/></g><path data-name="Path 176" d="M320.706 487.098h61.727a2.131 2.131 0 00-1.732-.938h-58.274a2.093 2.093 0 00-1.721.938z" fill="#ffde00"/><path data-name="Path 177" d="M320.889 495.558a2.139 2.139 0 001.538.668h58.271a2.174 2.174 0 001.547-.668z" fill="#dea61c" opacity=".3" style="mix-blend-mode:multiply;isolation:isolate"/><path data-name="Rectangle 211" fill="#dea61c" opacity=".3" style="mix-blend-mode:screen;isolation:isolate" d="M338.667 486.156h25.786v10.069h-25.786z"/></g></g></g></g><g data-name="Group 55"><g data-name="Group 54"><g data-name="Group 53"><g data-name="Group 44"><g data-name="Group 43"><rect data-name="Rectangle 212" width="62.562" height="10.073" rx=".254" fill="#dea61c" transform="translate(387.388 443.028)"/></g><path data-name="Path 178" d="M387.805 443.972h61.727a2.134 2.134 0 00-1.724-.947h-58.271a2.137 2.137 0 00-1.732.947z" fill="#ffde00"/><path data-name="Path 179" d="M387.982 452.423a2.134 2.134 0 001.555.677h58.271a2.068 2.068 0 001.538-.676z" fill="#dea61c" opacity=".3" style="mix-blend-mode:multiply;isolation:isolate"/><path data-name="Rectangle 213" fill="#dea61c" opacity=".3" style="mix-blend-mode:screen;isolation:isolate" d="M405.784 443.028h25.774v10.073h-25.774z"/></g><g data-name="Group 46"><g data-name="Group 45"><rect data-name="Rectangle 214" width="62.562" height="10.073" rx=".254" fill="#dea61c" transform="translate(379.866 453.031)"/></g><path data-name="Path 180" d="M380.292 453.969h61.727a2.112 2.112 0 00-1.741-.938h-58.262a2.093 2.093 0 00-1.724.938z" fill="#ffde00"/><path data-name="Path 181" d="M380.469 462.429a2.119 2.119 0 001.547.676h58.262a2.1 2.1 0 001.547-.676z" fill="#dea61c" opacity=".3" style="mix-blend-mode:multiply;isolation:isolate"/><path data-name="Rectangle 215" fill="#dea61c" opacity=".3" style="mix-blend-mode:screen;isolation:isolate" d="M398.27 453.031h25.77v10.073h-25.77z"/></g><g data-name="Group 48"><g data-name="Group 47"><path data-name="Rectangle 216" d="M384.056 463.034h62.055a.254.254 0 01.254.254v9.56a.255.255 0 01-.255.255h-62.053a.254.254 0 01-.254-.254v-9.562a.253.253 0 01.253-.253z" fill="#dea61c"/></g><path data-name="Path 182" d="M384.231 463.975h61.727a2.133 2.133 0 00-1.741-.938h-58.27a2.1 2.1 0 00-1.716.938z" fill="#ffde00"/><path data-name="Path 183" d="M384.408 472.427a2.1 2.1 0 001.538.676h58.271a2.106 2.106 0 001.555-.676z" fill="#dea61c" opacity=".3" style="mix-blend-mode:multiply;isolation:isolate"/><path data-name="Rectangle 217" fill="#dea61c" opacity=".3" style="mix-blend-mode:screen;isolation:isolate" d="M402.199 463.034h25.774v10.069h-25.774z"/></g><g data-name="Group 50"><g data-name="Group 49"><path data-name="Rectangle 218" d="M383.747 423.016H445.8a.255.255 0 01.255.255v9.559a.255.255 0 01-.255.255h-62.053a.254.254 0 01-.254-.255v-9.56a.254.254 0 01.254-.254z" fill="#dea61c"/></g><path data-name="Path 184" d="M383.917 423.96h61.723a2.137 2.137 0 00-1.732-.947H385.65a2.125 2.125 0 00-1.733.947z" fill="#ffde00"/><path data-name="Path 185" d="M384.097 432.411a2.123 2.123 0 001.555.676h58.254a2.1 2.1 0 001.547-.676z" fill="#dea61c" opacity=".3" style="mix-blend-mode:multiply;isolation:isolate"/><path data-name="Rectangle 219" fill="#dea61c" opacity=".3" style="mix-blend-mode:screen;isolation:isolate" d="M401.889 423.016h25.783v10.069h-25.783z"/></g><g data-name="Group 52"><g data-name="Group 51"><path data-name="Rectangle 220" d="M387.687 433.018h62.055a.254.254 0 01.254.254v9.56a.255.255 0 01-.255.255h-62.052a.255.255 0 01-.255-.255v-9.561a.253.253 0 01.253-.253z" fill="#dea61c"/></g><path data-name="Path 186" d="M387.847 433.966h61.736a2.11 2.11 0 00-1.741-.946h-58.263a2.1 2.1 0 00-1.732.946z" fill="#ffde00"/><path data-name="Path 187" d="M388.033 442.416a2.125 2.125 0 001.547.668h58.262a2.13 2.13 0 001.555-.668z" fill="#dea61c" opacity=".3" style="mix-blend-mode:multiply;isolation:isolate"/><path data-name="Rectangle 221" fill="#dea61c" opacity=".3" style="mix-blend-mode:screen;isolation:isolate" d="M405.818 433.018h25.786v10.069h-25.786z"/></g></g></g></g><g data-name="Group 68"><path data-name="Rectangle 222" opacity=".1" style="mix-blend-mode:multiply;isolation:isolate" d="M356.696 470.953h120.506v55.287H356.696z"/><g data-name="Group 58"><g data-name="Group 56"><path data-name="Rectangle 223" fill="#50926c" d="M386.77 470.953h120.502v55.287H386.77z"/><path data-name="Path 188" d="M498.574 474.675H395.512a5 5 0 01-4.995 4.935l-.034-.008v37.869h.034a5 5 0 015.012 5l-.008.025h103.045v-.025a5 5 0 014.978-5v-37.869a4.991 4.991 0 01-4.97-4.927z" fill="#fff" opacity=".5"/></g><path data-name="Path 189" d="M465.807 498.6a18.791 18.791 0 11-18.787-18.8 18.771 18.771 0 0118.787 18.8z" fill="#fe9d00"/><path data-name="Path 190" d="M488.644 498.6a3.731 3.731 0 11-3.735-3.744 3.733 3.733 0 013.735 3.744z" fill="#fe9d00"/><path data-name="Path 191" d="M413.479 498.6a3.731 3.731 0 11-3.735-3.744 3.733 3.733 0 013.735 3.744z" fill="#fe9d00"/><g data-name="Group 57"><path data-name="Path 192" d="M449.904 503.307a3.47 3.47 0 00-.144-1.039 2.341 2.341 0 00-.507-.811 3.4 3.4 0 00-.9-.668 10.428 10.428 0 00-1.344-.6 24.648 24.648 0 01-2.476-1.082 7.994 7.994 0 01-1.91-1.3 5.088 5.088 0 01-1.234-1.733 5.8 5.8 0 01-.446-2.346 5.6 5.6 0 01.389-2.155 4.978 4.978 0 011.116-1.716 5.73 5.73 0 011.732-1.166 7.2 7.2 0 012.256-.583v-2.988h2.248v3.026a6.74 6.74 0 012.172.685 5.091 5.091 0 011.656 1.335 6.724 6.724 0 011.065 1.944 8.374 8.374 0 01.355 2.527h-4.028a3.812 3.812 0 00-.685-2.5 2.263 2.263 0 00-1.842-.828 2.66 2.66 0 00-1.09.177 1.926 1.926 0 00-1.175 1.293 2.9 2.9 0 00-.135.955 2.738 2.738 0 00.135.938 2.027 2.027 0 00.482.769 3.93 3.93 0 00.9.676c.389.2.845.423 1.411.651.9.355 1.716.727 2.459 1.107a8.173 8.173 0 011.893 1.318 5.2 5.2 0 011.231 1.735 5.537 5.537 0 01.448 2.324 5.922 5.922 0 01-.4 2.223 4.823 4.823 0 01-1.124 1.682 5.761 5.761 0 01-1.758 1.149 8.088 8.088 0 01-2.265.549v2.773h-2.22v-2.752a9.317 9.317 0 01-2.24-.541 6.153 6.153 0 01-1.91-1.225 5.487 5.487 0 01-1.335-1.969 7.342 7.342 0 01-.507-2.873h4.031a4.613 4.613 0 00.262 1.648 2.67 2.67 0 00.685 1.073 2.53 2.53 0 00.98.532 3.6 3.6 0 001.124.177 3.217 3.217 0 001.149-.186 2.28 2.28 0 00.828-.507 2.2 2.2 0 00.5-.761 2.436 2.436 0 00.168-.937z" fill="#fff" opacity=".5"/></g></g><g data-name="Group 61"><g data-name="Group 59"><path data-name="Rectangle 224" fill="#50926c" d="M377.993 470.953h120.515v55.287H377.993z"/><path data-name="Path 193" d="M489.811 474.675H386.758a5.016 5.016 0 01-5 4.935l-.034-.008v37.869h.034a5 5 0 015 5v.025h103.046l-.008-.025a5 5 0 014.978-5v-37.869a4.978 4.978 0 01-4.963-4.927z" fill="#fff" opacity=".5"/></g><path data-name="Path 194" d="M457.037 498.6a18.791 18.791 0 11-18.787-18.8 18.771 18.771 0 0118.787 18.8z" fill="#fe9d00"/><path data-name="Path 195" d="M479.869 498.6a3.727 3.727 0 11-3.735-3.744 3.733 3.733 0 013.735 3.744z" fill="#fe9d00"/><path data-name="Path 196" d="M404.699 498.6a3.723 3.723 0 11-3.719-3.744 3.719 3.719 0 013.719 3.744z" fill="#fe9d00"/><g data-name="Group 60"><path data-name="Path 197" d="M441.132 503.307a2.992 2.992 0 00-.152-1.039 2 2 0 00-.5-.811 3.262 3.262 0 00-.9-.668 11.4 11.4 0 00-1.335-.6 24.84 24.84 0 01-2.485-1.082 7.828 7.828 0 01-1.91-1.3 5.329 5.329 0 01-1.241-1.734 5.8 5.8 0 01-.439-2.349 5.6 5.6 0 01.389-2.155 5.233 5.233 0 011.116-1.716 5.731 5.731 0 011.734-1.167 7.377 7.377 0 012.265-.583v-2.983h2.24v3.026a6.562 6.562 0 012.164.685 5.214 5.214 0 011.665 1.335 6.346 6.346 0 011.066 1.943 8.648 8.648 0 01.355 2.527h-4.032a3.764 3.764 0 00-.685-2.5 2.252 2.252 0 00-1.842-.828 2.618 2.618 0 00-1.082.177 2.151 2.151 0 00-.744.507 2.009 2.009 0 00-.439.786 3.429 3.429 0 00-.135.955 3.22 3.22 0 00.135.938 1.839 1.839 0 00.482.769 4 4 0 00.9.676 15.318 15.318 0 001.4.651 26.172 26.172 0 012.459 1.107 8.232 8.232 0 011.9 1.318 5.325 5.325 0 011.243 1.736 5.816 5.816 0 01.439 2.324 5.922 5.922 0 01-.4 2.223 5.067 5.067 0 01-1.124 1.682 5.887 5.887 0 01-1.741 1.149 8.357 8.357 0 01-2.282.549v2.773h-2.219v-2.752a9.156 9.156 0 01-2.231-.541 6.1 6.1 0 01-1.918-1.225 5.383 5.383 0 01-1.339-1.969 7.342 7.342 0 01-.507-2.873h4.04a4.642 4.642 0 00.245 1.648 2.877 2.877 0 00.693 1.073 2.5 2.5 0 00.989.532 3.53 3.53 0 001.107.177 3.2 3.2 0 001.158-.186 2.145 2.145 0 00.828-.507 2.11 2.11 0 00.507-.761 2.434 2.434 0 00.163-.937z" fill="#fff" opacity=".5"/></g></g><g data-name="Group 64"><g data-name="Group 62"><path data-name="Rectangle 225" fill="#50926c" d="M369.228 470.953h120.506v55.287H369.228z"/><path data-name="Path 198" d="M481.039 474.675H377.977a5 5 0 01-4.986 4.935l-.034-.008v37.869h.034a5 5 0 015 5l-.008.025h103.039v-.025a5 5 0 014.978-5v-37.869a4.983 4.983 0 01-4.961-4.927z" fill="#fff" opacity=".5"/></g><path data-name="Path 199" d="M448.265 498.6a18.791 18.791 0 11-18.787-18.8 18.766 18.766 0 0118.787 18.8z" fill="#fe9d00"/><path data-name="Path 200" d="M471.099 498.6a3.723 3.723 0 11-3.727-3.744 3.726 3.726 0 013.727 3.744z" fill="#fe9d00"/><path data-name="Path 201" d="M395.935 498.6a3.731 3.731 0 11-3.727-3.744 3.731 3.731 0 013.727 3.744z" fill="#fe9d00"/><g data-name="Group 63"><path data-name="Path 202" d="M432.368 503.307a3.209 3.209 0 00-.152-1.039 2.117 2.117 0 00-.507-.811 3.264 3.264 0 00-.9-.668 10.262 10.262 0 00-1.335-.6 25.724 25.724 0 01-2.492-1.082 7.993 7.993 0 01-1.91-1.3 5.3 5.3 0 01-1.225-1.733 5.656 5.656 0 01-.445-2.346 5.6 5.6 0 01.4-2.155 5.082 5.082 0 011.107-1.716 5.879 5.879 0 011.741-1.166 7.2 7.2 0 012.256-.583v-2.988h2.24v3.026a6.547 6.547 0 012.172.685 5.091 5.091 0 011.656 1.335 5.994 5.994 0 011.056 1.944 8.366 8.366 0 01.363 2.527h-4.025a3.762 3.762 0 00-.693-2.5 2.235 2.235 0 00-1.834-.828 2.66 2.66 0 00-1.09.177 2.074 2.074 0 00-.744.507 2.248 2.248 0 00-.439.786 3.429 3.429 0 00-.135.955 3.22 3.22 0 00.135.938 2.051 2.051 0 00.49.769 3.815 3.815 0 00.9.676 14.335 14.335 0 001.4.651c.9.355 1.707.727 2.451 1.107a8.288 8.288 0 011.91 1.318 5.587 5.587 0 011.241 1.735 5.818 5.818 0 01.431 2.324 5.759 5.759 0 01-.4 2.223 5.045 5.045 0 01-1.109 1.686 5.76 5.76 0 01-1.758 1.149 8.075 8.075 0 01-2.273.549v2.769h-2.218v-2.752a9.317 9.317 0 01-2.24-.541 5.963 5.963 0 01-1.91-1.225 5.382 5.382 0 01-1.335-1.969 7.342 7.342 0 01-.507-2.873h4.031a4.627 4.627 0 00.254 1.648 2.777 2.777 0 00.693 1.073 2.53 2.53 0 00.98.532 3.622 3.622 0 001.116.177 3.265 3.265 0 001.158-.186 2.175 2.175 0 00.82-.507 1.987 1.987 0 00.5-.761 2.439 2.439 0 00.175-.937z" fill="#fff" opacity=".5"/></g></g><g data-name="Group 67"><g data-name="Group 65"><path data-name="Rectangle 226" fill="#50926c" d="M360.455 470.953h120.511v55.287H360.455z"/><path data-name="Path 203" d="M472.274 474.675h-103.07a5 5 0 01-4.995 4.935l-.025-.008v37.869h.025a5 5 0 015.012 5l-.008.025h103.044v-.025a5 5 0 014.978-5v-37.869a4.972 4.972 0 01-4.961-4.927z" fill="#fff" opacity=".5"/></g><path data-name="Path 204" d="M439.501 498.6a18.791 18.791 0 11-18.789-18.795 18.766 18.766 0 0118.789 18.795z" fill="#50926c"/><path data-name="Path 205" d="M462.328 498.6a3.727 3.727 0 11-3.727-3.744 3.726 3.726 0 013.727 3.744z" fill="#50926c"/><path data-name="Path 206" d="M387.163 498.6a3.723 3.723 0 11-3.725-3.744 3.726 3.726 0 013.725 3.744z" fill="#50926c"/><g data-name="Group 66"><path data-name="Path 207" d="M423.596 503.307a3.208 3.208 0 00-.152-1.039 2.1 2.1 0 00-.5-.811 3.4 3.4 0 00-.9-.668 10.976 10.976 0 00-1.344-.6 25.728 25.728 0 01-2.485-1.082 7.939 7.939 0 01-1.9-1.3 5.205 5.205 0 01-1.234-1.733 5.8 5.8 0 01-.441-2.346 5.444 5.444 0 01.389-2.155 4.859 4.859 0 011.111-1.72 5.73 5.73 0 011.732-1.166 7.254 7.254 0 012.265-.583v-2.984h2.233v3.026a6.723 6.723 0 012.18.685 5.15 5.15 0 011.648 1.335 6.173 6.173 0 011.065 1.944 8.374 8.374 0 01.355 2.527h-4.022a3.81 3.81 0 00-.693-2.5 2.23 2.23 0 00-1.842-.828 2.643 2.643 0 00-1.082.177 1.964 1.964 0 00-1.183 1.293 3.436 3.436 0 00-.127.955 3.23 3.23 0 00.127.938 2.051 2.051 0 00.49.769 3.814 3.814 0 00.9.676 13.454 13.454 0 001.4.651c.9.355 1.716.727 2.468 1.107a8.359 8.359 0 011.893 1.318 5.324 5.324 0 011.24 1.735 5.818 5.818 0 01.431 2.324 6.1 6.1 0 01-.389 2.223 5.177 5.177 0 01-1.116 1.682 5.975 5.975 0 01-1.758 1.149 8.222 8.222 0 01-2.273.549v2.773h-2.222v-2.752a9.156 9.156 0 01-2.231-.541 6.1 6.1 0 01-1.918-1.225 5.382 5.382 0 01-1.335-1.969 7.336 7.336 0 01-.516-2.873h4.04a4.432 4.432 0 00.262 1.648 2.67 2.67 0 00.685 1.073 2.448 2.448 0 00.989.532 3.53 3.53 0 001.107.177 3.123 3.123 0 001.149-.186 2.246 2.246 0 00.837-.507 2.007 2.007 0 00.507-.761 2.6 2.6 0 00.16-.937z" fill="#fff" opacity=".5"/></g></g></g><g data-name="Group 73"><g data-name="Group 70"><g data-name="Group 69"><path data-name="Path 208" d="M580.381 108.893l-.034-7.276-2.738-1.234c-5.916-2.7-27.018-11.426-50.183-11.426-23.139 0-44.259 8.73-50.183 11.417l-2.747 1.242-.041 13.979c0 22.742 1 46.38 12.736 63.5 12.753 18.618 30.813 29.824 37.988 33.779l2.248 1.242 2.265-1.242c7.158-3.955 25.218-15.161 37.963-33.779 11.764-17.13 12.744-40.76 12.744-63.5z" fill="#fff"/><path data-name="Path 209" d="M479.179 104.633c-.008 1.606-.034 10.978-.034 10.978 0 21.99.913 44.825 11.9 60.848 12.381 18.052 30.221 28.92 36.382 32.326 6.161-3.4 24.01-14.257 36.382-32.326 10.986-16.023 11.916-38.858 11.916-60.865l-.034-6.693v-4.268c-5.341-2.409-25.894-11-48.264-11s-42.932 8.592-48.248 11z" fill="#ebb52b"/></g><path data-name="Path 210" d="M575.692 104.633c-5.341-2.409-25.894-11-48.264-11-.177 0-.355.017-.541.017v114.831c.177.093.38.2.541.3 6.161-3.4 24.01-14.257 36.382-32.326 10.986-16.023 11.916-38.858 11.916-60.865l-.034-6.693z" fill="#eba021" opacity=".2" style="mix-blend-mode:multiply;isolation:isolate"/></g><g data-name="Group 72"><g data-name="Group 71"><path data-name="Path 211" d="M541.523 124.578s-13.876 17.578-20.029 25.387c-3.794-3.972-7.944-8.282-7.944-8.282a6.59 6.59 0 00-9.514 9.118l13.182 13.745a6.633 6.633 0 005.088 2.011 6.546 6.546 0 004.843-2.485l24.72-31.311a6.594 6.594 0 00-10.344-8.181z" fill="#fff"/></g></g></g><g data-name="Group 98"><g data-name="Group 74"><path data-name="Rectangle 227" d="M138.886 203.81h96.878a.822.822 0 01.822.822v136.152a.823.823 0 01-.823.823h-96.877a.822.822 0 01-.822-.822V204.632a.822.822 0 01.822-.822z" fill="#9e5127"/><path data-name="Path 212" d="M230.87 312.763l-20.117 18.545h-66.626V208.709h86.74z" fill="#fff"/><path data-name="Path 213" d="M198.594 194.25a11.187 11.187 0 00-22.184 0h-14.773v17.392h51.725V194.25zm-11.1 8.578a7.074 7.074 0 117.074-7.065 7.069 7.069 0 01-7.071 7.065z" fill="#ffbf00"/><path data-name="Path 214" d="M230.87 312.766h-20.188l.07 18.544z" fill="#aeb7c0"/></g><g data-name="Group 81"><g data-name="Group 80"><g data-name="Group 75"><path data-name="Path 215" d="M176.655 293.281a1.441 1.441 0 100 2.882h24.424a1.441 1.441 0 100-2.882z" fill="#aeb7c0"/></g><g data-name="Group 76"><path data-name="Path 216" d="M206.234 293.281a1.441 1.441 0 100 2.882h14.967a1.441 1.441 0 100-2.882z" fill="#aeb7c0"/></g><g data-name="Group 77"><path data-name="Path 217" d="M175.784 300.969a1.445 1.445 0 100 2.89h9.668a1.445 1.445 0 000-2.89z" fill="#aeb7c0"/></g><g data-name="Group 78"><path data-name="Path 218" d="M191.662 300.969a1.445 1.445 0 100 2.89h29.514a1.445 1.445 0 100-2.89z" fill="#aeb7c0"/></g><g data-name="Group 79"><path data-name="Path 219" d="M166.936 287.365s-6.921 9.846-9.229 13.133c-1.42-2.071-3.237-4.7-3.237-4.7a1.923 1.923 0 00-3.169 2.18l4.809 6.978a1.991 1.991 0 001.572.845 1.925 1.925 0 001.589-.828l10.817-15.386a1.929 1.929 0 00-3.152-2.223z" fill="#aeb7c0"/></g></g></g><g data-name="Group 88"><g data-name="Group 87"><g data-name="Group 82"><path data-name="Path 220" d="M176.655 262.822a1.441 1.441 0 100 2.882h24.424a1.441 1.441 0 100-2.882z" fill="#aeb7c0"/></g><g data-name="Group 83"><path data-name="Path 221" d="M206.234 262.822a1.441 1.441 0 100 2.882h14.967a1.441 1.441 0 100-2.882z" fill="#aeb7c0"/></g><g data-name="Group 84"><path data-name="Path 222" d="M175.784 270.522a1.445 1.445 0 100 2.89h9.668a1.445 1.445 0 000-2.89z" fill="#aeb7c0"/></g><g data-name="Group 85"><path data-name="Path 223" d="M191.662 270.522a1.445 1.445 0 100 2.89h29.514a1.445 1.445 0 100-2.89z" fill="#aeb7c0"/></g><g data-name="Group 86"><path data-name="Path 224" d="M166.936 256.915s-6.921 9.837-9.229 13.125l-3.237-4.7a1.923 1.923 0 10-3.169 2.18l4.809 6.982a1.951 1.951 0 001.572.828 1.917 1.917 0 001.589-.82l10.817-15.39a1.924 1.924 0 10-3.152-2.206z" fill="#aeb7c0"/></g></g></g><g data-name="Group 97"><g data-name="Group 89"><path data-name="Path 225" d="M176.655 233.657a1.437 1.437 0 100 2.873h24.424a1.437 1.437 0 100-2.873z" fill="#aeb7c0"/></g><g data-name="Group 91"><g data-name="Group 90"><path data-name="Path 226" d="M206.234 233.657a1.437 1.437 0 100 2.873h14.967a1.437 1.437 0 100-2.873z" fill="#aeb7c0"/></g></g><g data-name="Group 93"><g data-name="Group 92"><path data-name="Path 227" d="M175.784 241.348a1.445 1.445 0 100 2.89h9.668a1.445 1.445 0 000-2.89z" fill="#aeb7c0"/></g></g><g data-name="Group 95"><g data-name="Group 94"><path data-name="Path 228" d="M191.662 241.348a1.445 1.445 0 100 2.89h29.514a1.445 1.445 0 000-2.89z" fill="#aeb7c0"/></g></g><g data-name="Group 96"><path data-name="Path 229" d="M166.936 227.733s-6.922 9.845-9.229 13.133c-1.42-2.071-3.237-4.7-3.237-4.7a1.926 1.926 0 10-3.169 2.189l4.809 6.955a1.916 1.916 0 003.161.025l10.817-15.388a1.926 1.926 0 00-3.152-2.214z" fill="#aeb7c0"/></g></g></g><g data-name="Group 99" fill="#bdd1e9"><path data-name="Rectangle 228" d="M267.055 340.452h10.02v40.101h-10.02z"/><path data-name="Rectangle 229" d="M280.549 303.8h10.011v76.753h-10.011z"/><path data-name="Rectangle 230" d="M294.034 308.43h10.015v72.123h-10.015z"/><path data-name="Rectangle 231" d="M307.52 329.983h10.02v50.57h-10.02z"/><path data-name="Rectangle 232" d="M321.014 355.675h10.015v24.878h-10.015z"/></g><g data-name="Group 101"><g data-name="Group 100"><path data-name="Path 230" d="M72.806 61.873c27.339 8.679 46.447 5.316 46.447 5.316s1.428 23.131 1.428 41.351-.676 86.523-.676 86.523l-10.479-.93c0-9.169-9.3-100.907-12.33-100.907-1.868 0-2.256 12.322-2.256 24.474s3.372 76.609 3.372 76.609l-11.029.938c-1.673-16.074-11.7-69.823-13.944-104.963-.474-7.401-.533-24.346-.533-28.411z" transform="translate(457.562 327.589)" fill="url(#a)"/><path data-name="Path 231" d="M91.4 77.494l-4.217.473s-9.376 1.433-13.72 9.465L86.5 86s.7-2.409 1.665-2.51 1.8 2.121 1.8 2.121l2.662-.287z" transform="translate(462.457 443.983)" fill="url(#b)"/><path data-name="Path 232" d="M78.123 77.511l4.226.254s9.44.938 14.181 8.738l-13.091-.769s-.828-2.366-1.783-2.417c-.963-.068-1.682 2.223-1.682 2.223l-2.713-.169z" transform="translate(490.757 444.11)" fill="url(#c)"/><path data-name="Path 233" d="M541.202 301.858s.566 6.355 1.318 10.285c.735 3.921 3.541 8.4 5.966 8.215s9.448-2.054 11.865-11.113c.761-.38 5.062-2.9 3.735-7.386-1.3-4.479-4.935 4.859-4.935 5.7s-.465-2.333-.279-3.93.177-8.975-3.735-8.874c-3.93.093-9.82.955-12.812 0-2.34-.749-1.207 5.7-1.123 7.103z" fill="#fabb85"/><path data-name="Path 234" d="M546.341 284.389c3.465-2.062 12.254-2.062 13.268 3.169 0 0 4.961.752 5.341 5.333a19.342 19.342 0 01-.913 8.755c-1.361-3.947-4.885 5.088-4.885 5.916s-.465-2.333-.279-3.93.177-8.975-3.735-8.874c-3.93.093-9.82.955-12.812 0-1.826-.583-1.547 3.2-1.285 5.569l-.1-.059s-.752-2.425-1.411-5.51 2.543-7.825 6.811-10.369z" fill="#51341d"/><path data-name="Path 235" d="M542.926 313.736c1.082 3.448 3.456 6.786 5.561 6.626a13.429 13.429 0 0010.277-7.1c.786-3.025.786-4.741-.592-1.961-1.876 3.786-4.073 4.623-4.961 4.766-.321-3.921-3.3-4.352-4.251-4.395a24.391 24.391 0 01-2.662.135 2.436 2.436 0 00-3.372 1.929zm1.6 0c.422-1.039 1.741-.761 2.527-.659 1.487.186 1.859-.279 2.856-.093a2.562 2.562 0 011.437 3.178c-.507 1.3-2.1 1.082-2.9.642-.8-.414-.558.38-1.673.245-1.139-.14-2.664-2.295-2.25-3.313z" fill="#51341d"/><path data-name="Path 236" d="M545.2 318.227c1.023 1.344 2.2 2.223 3.287 2.13 2.434-.186 9.448-2.054 11.865-11.113a5.46 5.46 0 00.642-.38l.025.1.845 12.516s-3.288 8.5-10.285 8.223-6.364-7.986-6.364-7.986z" fill="#fabb85"/><path data-name="Path 237" d="M548.488 320.357c2.434-.186 9.448-2.054 11.865-11.113a5.46 5.46 0 00.642-.38l.025.1.33 4.961c-1.31 2.18-5.189 7.513-11.967 7.293a9.434 9.434 0 01-4.183-1v-1.991c1.023 1.344 2.197 2.223 3.288 2.13z" fill="#ffbf00" opacity=".35" style="mix-blend-mode:multiply;isolation:isolate"/><path data-name="Path 238" d="M531.213 378.805c0-1.961 2.054-25.455 2.054-32.19s.372-17.376.372-17.376 9.076-5.907 11.578-7.6v.076s-.642 7.707 6.364 7.986 10.285-8.223 10.285-8.223l-.076-.93c.017.008 11.561 4.479 13.9 6.812 0 6.921 1.124 59.378 1.124 67.415 0 0-18.931 10.065-46.253 1.378-1.959-1.959.652-15.388.652-17.348z" fill="#c6c7ff"/><path data-name="Path 239" d="M563.792 389.166c-8.071 3.913-14.232.152-6.22-12.465 8.029-12.609-4.378-27.187-9.981-36.154a58.846 58.846 0 01-6.811-15.965c1.749-1.149 3.38-2.214 4.293-2.84l.144-.025c0 .034-.625 7.707 6.364 7.986s10.285-8.223 10.285-8.223l-.076-.93c.017.008 11.561 4.479 13.9 6.812 0 6.921 1.124 59.378 1.124 67.415a48.474 48.474 0 01-9.4 2.983c2.97-5.822.621-10.648-3.622-8.594z" fill="#c6c7ff" opacity=".15" style="mix-blend-mode:screen;isolation:isolate"/><path data-name="Path 240" d="M547.465 358.049h.008a1.33 1.33 0 00.144 1.555c.761.769 2.8-.237 5.324-2.755.676-.676 2.417.093 2.417.093a6.672 6.672 0 00-1.673 2.1 12.177 12.177 0 00-.085 3.093 7.321 7.321 0 01-2.73-.879 7.521 7.521 0 00-3.254-.98c-1.064-.186-1.647-1.559-.151-2.227z" fill="#faa378"/><path data-name="Path 241" d="M560.437 360.542c.279-.1.279 2.637 1.471 4.04a5.738 5.738 0 001.5 1.293c-2.164.3-3.313-.879-3.609-1.9a4.353 4.353 0 00-1.344-1.969 13 13 0 011.982-1.464z" fill="#faa378"/><path data-name="Path 242" d="M533.638 329.239a32.437 32.437 0 00-5.519 4.293c-2.518 2.518-2.941 10.936-4.479 17.24s-5.746 13.176-5.746 17.52 1.547 8.975 4.91 10.792 10.64-1.4 10.64-1.4-10.082-1.4-4.758-8.755c-1.048-.414-.913-1.614-.913-2.873s5.535-9.668 5.535-11.215z" fill="#c6c7ff"/><path data-name="Path 243" d="M565.668 364.244l10.767 6.22c.042 2.535.093 4.995.118 7.327l-12.467-7.818c-.524-.532-1.082-2.527-1.927-2.527-.82 0-3.3 0-3.3-1.673a7.115 7.115 0 00-1.58-3.6l2.24-.693z" fill="#c6c7ff" opacity=".45" style="mix-blend-mode:multiply;isolation:isolate"/><path data-name="Path 244" d="M72.971 62.844a73.65 73.65 0 005.679 1.563c.363 10.767 1.673 38.748 6.034 73.17 3.051 24.094 5.282 43.777 6.7 51.594l-4.133.355C85.58 173.452 75.557 119.7 73.309 84.563c-.33-5.189-.456-15.077-.5-21.922a.944.944 0 00.162.203z" transform="translate(457.592 333.311)" opacity=".3" fill="url(#d)" style="mix-blend-mode:screen;isolation:isolate"/><path data-name="Path 245" d="M565.668 364.244a13.481 13.481 0 01-.828 3.583 4.832 4.832 0 01-.913-2.472c0-.638.87-.95 1.741-1.111z" fill="#94b0c7"/><path data-name="Path 246" d="M575.776 331.85a61.1 61.1 0 00-1.192 10.3c-.169 3.592.211 16.885.211 16.885l-14.299-2.941 7.412 6.592 10.8 1.682 1.969-4.065z" fill="#c6c7ff" opacity=".45" style="mix-blend-mode:multiply;isolation:isolate"/><path data-name="Path 247" d="M575.692 327.363s5.7 2.662 7.091 6.034 7.707 26.621 9.11 34.193-.71 11.215-10.792 7.564a103.244 103.244 0 01-16.26-7.327s2.34-5.612-.55-10.089c0 0 8.367 2.713 12.043 3.364 0 0-1.251-10.75-1.251-19.015z" fill="#c6c7ff"/><path data-name="Path 248" d="M545.858 355.26a17.934 17.934 0 013.752-2.011 5.333 5.333 0 015.282.423c3.642-.617 3.6.516 4.217 1.124.355-.372 1.039-.025 1.952.887a28.022 28.022 0 003.465 2.485 11.22 11.22 0 01.828 7.944c-1.285.431-2.468-.389-3.448-1.53-1.192-1.4-1.192-4.141-1.471-4.04a11.38 11.38 0 00-2.804 2.362c-.414.727-.6 1.716-1.293 1.648-.71-.076-1.023-1.023-1.023-1.023-.177.6-1.614.076-1.682-.735a16.245 16.245 0 01.051-3.752 6.672 6.672 0 011.673-2.1s-1.741-.769-2.417-.093c-2.527 2.518-4.564 3.524-5.324 2.755-.786-.769-.1-2.29 1.631-3.642-1.91 1.03-3.76-.339-3.389-.702z" fill="#fabb85"/><path data-name="Path 249" d="M555.856 361.134a7.966 7.966 0 00-.676 2.535v.034a.258.258 0 00.135-.177 2.013 2.013 0 00.1.237l.051-.068a7.673 7.673 0 01.642-2.434c.516-.955 2.789-3.33 2.73-3.389a17.948 17.948 0 00-2.982 3.262zm-6.9-5.079l.017.008c.084-.042.177-.051.279-.1-.068.051 2.333-1.327 2.307-1.394a27.224 27.224 0 00-2.569 1.3.128.128 0 00-.038.186zm6.406.887s2.248-1.344 2.214-1.42a22.325 22.325 0 00-2.434 1.327z" fill="#faa378"/><path data-name="Path 250" d="M531.213 378.805c0-.482.135-2.282.3-4.809l8.713-3.6 7.293-.566 5.772 3s-3.964-.473-5.654.321c-1.394.668-11.84 7.048-17.021 10.446a24.542 24.542 0 00.597-4.792z" fill="#c6c7ff" opacity=".45" style="mix-blend-mode:multiply;isolation:isolate"/><path data-name="Path 251" d="M533.486 333.16s.744 11.679.744 14.389.11 6.431 1.6 7.521c1.783 1.31 5.654 2.6 8.84 4.5 1.673.989-13.894.118-13.894.118l-.93-8.223z" fill="#c6c7ff" opacity=".45" style="mix-blend-mode:multiply;isolation:isolate"/><path data-name="Path 252" d="M533.638 329.239a32.437 32.437 0 00-5.519 4.293c-2.518 2.518-2.941 10.936-4.479 17.24s-5.746 13.176-5.746 17.52 1.547 8.975 4.91 10.792 10.64-1.4 10.64-1.4-10.082-1.4-4.758-8.755a17.3 17.3 0 01-.38-2.873c0-1.268 5-9.668 5-11.215z" fill="#c6c7ff"/><path data-name="Path 253" d="M85.582 62.5s1.428 23.131 1.428 41.351-.676 86.523-.676 86.523l-3.668-.321c-.532-14.3-1.631-50.969-1.631-66.772 0-17.9-2.865-49.152-3.71-57.84a41.337 41.337 0 008.257-2.941z" transform="translate(491.233 332.276)" opacity=".3" fill="url(#e)" style="mix-blend-mode:screen;isolation:isolate"/><path data-name="Path 254" d="M526.894 359.401s.38 3.1.38 4.073c0 .989-.237 4.352.287 4.868.507.507-2.527 5.366.465 6.3s3.549-4.2 3.549-4.2l-1.91-4.817-.761-5.189z" fill="#c6c7ff" opacity=".45" style="mix-blend-mode:multiply;isolation:isolate"/><path data-name="Path 255" d="M532.505 377.495s6.06-2.544 8.451-3.254c2.383-.693 8.95-3.279 10.158-3.845s.363-1.825-1.732-1.445a56.643 56.643 0 00-6.457 1.952s4.589-3.034 5.612-3.406 0-2.1-3.22-.887-5.138 1.927-5.831 1.927c-.71 0-1.217-.617-.524-1.31.7-.71 2.1-2.1 2.62-2.628.515-.507.938-1.209.4-1.749s-1.614-.913-3.271.7-4.116 3.786-5.206 2.687c-1.107-1.1-1.91-.524-2.485-1.1s-1.217-3.947-3.034-4.226c-.752 0 .084 3.4.084 4.217s-.084 2.7.617 3.795c-1.4.82-3.034 5.02-.017 6.972a11.7 11.7 0 003.835 1.6z" fill="#fabb85"/><path data-name="Path 256" d="M99.112 72.776c1.208-.558.363-1.825-1.732-1.445a47.115 47.115 0 00-5.73 1.707l-.228-.059a52.129 52.129 0 015.113-3.1c1.031-.363 0-2.1-3.22-.887s-5.138 1.927-5.831 1.927c-.71 0-1.217-.617-.524-1.31.7-.71 2.1-2.1 2.62-2.628.515-.507.938-1.209.4-1.749s-1.614-.913-3.271.7-4.119 3.784-5.209 2.686c-1.107-1.1-1.91-.524-2.485-1.1s-1.217-3.947-3.034-4.226l-3.921-5.441 21.432 4.268 8.831 13.319-6.262-1.411c1.429-.558 2.595-1.04 3.051-1.251z" transform="translate(452.003 297.62)" fill="url(#f)"/><path data-name="Path 257" d="M72.06 58.615l.33-.867 21.446 4.4 9.087 13.473-.6.586-8.83-13.317z" transform="translate(452.004 296.853)" fill="url(#g)"/></g></g><g data-name="Group 105"><g data-name="Group 104"><path data-name="Rectangle 233" fill="#bdd1e9" d="M611.794 446.569h26.579v11.079h-26.579z"/><path data-name="Rectangle 234" fill="#bdd1e9" d="M611.794 466.166h72.111v4.267h-72.111z"/><path data-name="Rectangle 235" fill="#bdd1e9" d="M611.794 473.416h57.227v4.263h-57.227z"/><path data-name="Rectangle 236" fill="#bdd1e9" d="M611.794 480.663h61.321v4.262h-61.321z"/><path data-name="Rectangle 237" fill="#bdd1e9" d="M611.794 487.909h48.182v4.263h-48.182z"/><path data-name="Rectangle 238" fill="#bdd1e9" d="M611.794 495.151h74.464v4.263h-74.464z"/><g data-name="Group 102"><path data-name="Path 258" d="M633.658 416.471a7.991 7.991 0 117.986-8 8.009 8.009 0 01-7.986 8zm0-14a6 6 0 105.992 6 6.016 6.016 0 00-5.992-6.003z" fill="#bdd1e9"/></g><g data-name="Group 103"><path data-name="Path 259" d="M637.85 436.382h-8.384a1 1 0 01-1-1.006v-7.1a19.772 19.772 0 01-5.13-2.147l-5.045 5.045a1 1 0 01-1.4 0l-5.941-5.933a1 1 0 010-1.411l5.02-5.037a20.441 20.441 0 01-2.113-5.13h-7.108a.978.978 0 01-.98-.989v-8.4a.983.983 0 01.98-.989h7.107a20.82 20.82 0 012.113-5.147l-5.02-5.028a.975.975 0 01.017-1.4l5.924-5.916a.975.975 0 011.4 0l5.051 5.037a19.7 19.7 0 015.13-2.155v-7.091a.994.994 0 011-1h8.384a1 1 0 011 1v7.09a19.77 19.77 0 015.121 2.155l5.028-5.037a1 1 0 011.42 0l5.924 5.916a1 1 0 01.017 1.4l-5.037 5.028a19.618 19.618 0 012.121 5.147h7.116a1 1 0 011 .989v8.4a.992.992 0 01-1 .989h-7.124a19.276 19.276 0 01-2.121 5.13l5.037 5.037a1.015 1.015 0 010 1.411l-5.941 5.933a1.026 1.026 0 01-1.42 0l-5.028-5.045a19.842 19.842 0 01-5.121 2.147v7.1a1 1 0 01-.997 1.007zm-7.395-1.986h6.4v-6.9a1 1 0 01.778-.972 18.09 18.09 0 005.966-2.485 1 1 0 011.234.144l4.893 4.885 4.513-4.521-4.885-4.91a1 1 0 01-.135-1.242 17.644 17.644 0 002.476-5.933 1.008 1.008 0 01.963-.769h6.9v-6.428h-6.9a1.007 1.007 0 01-.963-.778 17.56 17.56 0 00-2.476-5.941.994.994 0 01.135-1.242l4.885-4.9-4.513-4.5-4.893 4.893a1 1 0 01-1.242.135 18.439 18.439 0 00-5.958-2.493 1 1 0 01-.778-.972v-6.885h-6.4v6.883a.979.979 0 01-.778.972 18.4 18.4 0 00-5.95 2.493 1.014 1.014 0 01-1.251-.135l-4.875-4.897-4.53 4.5 4.876 4.9a1 1 0 01.135 1.234 18.3 18.3 0 00-2.485 5.95.985.985 0 01-.963.778h-6.879v6.423h6.879a.986.986 0 01.963.769 18.268 18.268 0 002.485 5.933 1.007 1.007 0 01-.135 1.242l-4.876 4.9 4.53 4.53 4.876-4.885a1.016 1.016 0 011.242-.144 18.049 18.049 0 005.958 2.485.979.979 0 01.778.972z" fill="#bdd1e9"/></g></g></g><g data-name="Group 112"><g data-name="Group 106"><path data-name="Path 260" d="M465.838 518.482v6.305h6.512v-6.628z" fill="#ffad97"/><path data-name="Path 261" d="M66.69 77.635a3.63 3.63 0 00-1.724 3.165v4.555h26.106s.465-2.687-3.127-2.687-9.854-2.164-11.029-3.2c-1.5-1.318-2.586-1.825-3.71-1.825z" transform="translate(399.145 445.034)" fill="url(#h)"/></g><g data-name="Group 107"><path data-name="Path 262" d="M427.156 518.482v6.305h6.495v-6.628z" fill="#ffad97"/><path data-name="Path 263" d="M62.113 77.635a3.63 3.63 0 00-1.724 3.165v4.555H86.5s.473-2.687-3.127-2.687c-3.583 0-9.862-2.164-11.029-3.2-1.5-1.318-2.586-1.825-3.735-1.825z" transform="translate(365.041 445.034)" fill="url(#i)"/></g><path data-name="Path 264" d="M509.925 330.169c-1.023 3.287-.211 6.229 1.825 6.592 2.028.346 4.521-2.02 5.561-5.29 1.023-3.262.22-6.212-1.826-6.567-2.037-.368-4.529 2.011-5.56 5.265z" fill="#ffad97"/><path data-name="Path 265" d="M465.42 333.888s10.556 12.846 17.579 18.692c3.152 2.856 15.609-10.209 23.283-19.387 0 0 4.141 1.741 5.5 7.437 0 0-6.685 7.614-16.547 19.4-8.519 10.175-16.353 9.989-26.215-1.394-9.896-11.387-3.6-24.748-3.6-24.748z" fill="#8c8c8c"/><path data-name="Path 266" d="M476.221 364.354c-2.451-13.091-9.862-29-9.862-29l.568 13.726.752 9.186a27.748 27.748 0 008.542 6.088z" fill="#666" opacity=".6" style="mix-blend-mode:multiply;isolation:isolate"/><path data-name="Path 267" d="M477.345 389.707l-2.493 133.029s-6.769 1.149-11.282 0c-3.769-17.037-4.631-75.688-10.031-100.383-5.409-24.711-9.347-29.833-9.347-40.912s33.153 8.266 33.153 8.266z" fill="#2b2161"/><g data-name="Group 108"><path data-name="Path 268" d="M469.207 387.991s-17.587 66.375-22.827 78.857c-5.231 12.508-10.936 56.166-10.936 56.166a25.938 25.938 0 01-10.564-.49s9.313-81.148 11.916-94.8c2.628-13.615 3.617-43.43 6.9-49.118 3.251-5.683 25.511 9.385 25.511 9.385z" fill="#ffbf00"/><path data-name="Path 269" d="M469.207 387.991s-17.587 66.375-22.827 78.857c-5.231 12.508-10.936 56.166-10.936 56.166a25.938 25.938 0 01-10.564-.49s9.313-81.148 11.916-94.8c2.628-13.615 3.617-43.43 6.9-49.118 3.251-5.683 25.511 9.385 25.511 9.385z" fill="#3b3687"/><path data-name="Path 270" d="M469.207 387.991s-17.587 66.375-22.827 78.857c-5.231 12.508-10.936 56.166-10.936 56.166a25.938 25.938 0 01-10.564-.49s9.313-81.148 11.916-94.8c2.628-13.615 3.617-43.43 6.9-49.118 3.251-5.683 25.511 9.385 25.511 9.385z" fill="#444199"/></g><g data-name="Group 110"><g data-name="Group 109"><path data-name="Path 271" d="M462.125 317.154c.76-8.048-3.584-15.348-3.584-15.348-1.335.549-4.665 1.023-7 1.589-2.333.592-1.665 3.516-1.479 4.927.152 1.4-.363 4.673-1.149 5.045-.777-1.479-1.918-6.507-4.175-4.276-2.214 2.223-1.175 2.873-.346 5.789s-3.279 3.076-3.279 3.076c2.932 6.8 2.1 8.848 3.592 10.26 3.372 3.195 12.229 5.037 11.1-.752-1.563-3.245-2.721-5.569-2.721-5.569 6.201 2.037 8.559-.338 9.041-4.741z" fill="#ffad97"/><path data-name="Path 272" d="M462.209 304.03c3.651-1.327 4.538-11.595-7.175-12.034-5.569-.2-17.536 1.885-19.809 8.384 0 0-3.169 2.358-1.682 8.857.9 3.947 6.017 11 8.679 12.2 0 0 3.009-3.651 2.172-6.558s-1.868-3.566.346-5.789c2.256-2.231 3.4 2.8 4.175 4.276.786-.372 1.3-3.642 1.149-5.045-.186-1.411-.854-4.335 1.479-4.927 2.334-.564 7.024 1.963 10.666.636z" fill="#51341d"/></g></g><path data-name="Path 273" d="M437.008 411.461a219.532 219.532 0 004.04-23.824c-3.888-33.8-14.823-44.808-11.688-50.707 3.144-5.865 14.6-9.9 14.6-9.9a32.041 32.041 0 0111.417-.465c9.5 3.795 11.747 7.741 14.992 20.435 4.2 16.387 7.378 44.216 9.634 65.936-6.283 1.525-26.718 5.59-42.995-1.475z" fill="#8c8c8c"/><path data-name="Path 274" d="M440.896 344.705l-7.023 10.792.017.017c.625 1.885 1.31 3.938 1.969 6.178a60.542 60.542 0 005.037-16.987z" fill="#666" opacity=".3" style="mix-blend-mode:multiply;isolation:isolate"/><path data-name="Path 275" d="M443.955 326.999c2.223 1.842 7.783 6.152 10.048 6.254 2.223.093 2.1-4.344 1.927-6.448-.177-.076-.355-.144-.558-.237a33.727 33.727 0 00-11.417.431z" fill="#ffad97"/><path data-name="Path 276" d="M439.966 379.845c.3 1.91.6 3.9.854 5.967l4.53 5.1z" fill="#d9d9d9"/><g data-name="Group 111"><path data-name="Path 277" d="M429.36 336.93c-4.352 5.273-8.384 24.094-8.84 32.08-.431 7.986 17.164 25.573 20.655 27.88 0 0 4.369-1.944 4.5-5.443 0 0-12.558-17.477-13.564-22.869-1.027-5.424 7.994-18.456 8.785-23.873.6-4.023-5.823-14.646-11.536-7.775z" fill="#8c8c8c"/><path data-name="Path 278" d="M451.189 398.759c-1.961-2.578-5.113-3.8-7-2.738-1.876 1.1-1.817 4.073.152 6.659 1.952 2.586 5.1 3.82 7 2.721 1.885-1.081 1.825-4.056-.152-6.642z" fill="#ffad97"/></g></g><g data-name="Group 113"><path data-name="Path 279" d="M61.043 412.238a39.558 39.558 0 0037.548 39.492v-7.91a31.629 31.629 0 010-63.147v-7.9a39.535 39.535 0 00-37.548 39.465z" fill="#bdd1e9"/><path data-name="Path 280" d="M126.497 382.321a39.5 39.5 0 00-24.441-9.584v7.868a31.484 31.484 0 0118.821 7.338z" fill="#85a3cf"/><path data-name="Path 281" d="M129.015 384.704l-5.544 5.535a31.647 31.647 0 01-21.415 53.648v7.868a39.521 39.521 0 0026.959-67.051z" fill="#5e82b8"/></g><g data-name="Group 115"><g data-name="Group 114"><path data-name="Path 282" d="M644.37 292.003a11.2 11.2 0 1011.2-11.206 11.208 11.208 0 00-11.2 11.206zm4.285 0a6.909 6.909 0 116.913 6.9 6.921 6.921 0 01-6.918-6.9z" fill="#bdd1e9"/></g></g><path data-name="Path 283" d="M85.618 292.168h-5.5v-5.5a2.151 2.151 0 00-4.3 0v5.5h-5.496a2.151 2.151 0 000 4.3h5.493v5.5a2.151 2.151 0 104.3 0v-5.494h5.5a2.151 2.151 0 000-4.3z" fill="#bdd1e9"/><g data-name="Group 119"><g data-name="Group 118"><g data-name="Group 116"><path data-name="Path 284" d="M28.886 483.988a2.147 2.147 0 000 4.293h21.482a2.147 2.147 0 000-4.293z" fill="#bdd1e9"/></g><g data-name="Group 117"><path data-name="Path 285" d="M59.572 483.988a2.147 2.147 0 000 4.293h3.938a2.147 2.147 0 100-4.293z" fill="#bdd1e9"/></g></g></g><g data-name="Group 123"><g data-name="Group 122"><g data-name="Group 120"><path data-name="Path 286" d="M606.977 167.485a2.151 2.151 0 000 4.3h21.483a2.151 2.151 0 000-4.3z" fill="#bdd1e9"/></g><g data-name="Group 121"><path data-name="Path 287" d="M637.664 167.485a2.151 2.151 0 000 4.3h3.93a2.151 2.151 0 100-4.3z" fill="#bdd1e9"/></g></g></g></g></svg>