<svg xmlns="http://www.w3.org/2000/svg" width="145.239" height="36.262" viewBox="0 0 145.239 36.262">
  <g id="Group_780" data-name="Group 780" transform="translate(-7069.729 -2946.03)">
    <g id="Group_779" data-name="Group 779" transform="translate(7069.729 2946.662)">
      <path id="Path_878" data-name="Path 878" d="M252.229,191.011a3.335,3.335,0,0,0-6.262,1.251,7.075,7.075,0,1,1-3.828-7.163c.036.018.075.034.109.052l.04.02h0a3.325,3.325,0,0,0,2.916-5.977l0-.006a13.734,13.734,0,1,0,7.332,14.12A3.313,3.313,0,0,0,252.229,191.011Z" transform="translate(-225.218 -177.676)" fill="#561e1e"/>
      <path id="Path_879" data-name="Path 879" d="M328.211,267.624a5.653,5.653,0,0,1-4.929.194,5.35,5.35,0,1,0,2.383,4.847,5.658,5.658,0,0,1,2.95-4.283C330.337,267.462,329.932,266.7,328.211,267.624Z" transform="translate(-306.553 -258.541)" fill="rgba(86,30,30,0.23)"/>
    </g>
    <path id="Path_1109" data-name="Path 1109" d="M10.754-9.227c-2.422,1.237-3.968,1.151-4.81.653A3.007,3.007,0,0,1,5.6-8.831a3.98,3.98,0,0,0,.5-.962,1.241,1.241,0,0,0,.068-.636.57.57,0,0,0-.292-.412.5.5,0,0,0-.275-.051.871.871,0,0,0-.842.67,1.556,1.556,0,0,0,.086,1.065,1.916,1.916,0,0,0,.206.36q-.257.336-.618.774a3.229,3.229,0,0,1-1.031.91.219.219,0,0,0-.051.035L3.332-7.1a.87.87,0,0,1-.017-.327A8.31,8.31,0,0,1,3.83-9.449a.238.238,0,0,0-.138-.292.238.238,0,0,0-.258.086c-.035.069-.1.155-.155.241-.5.756-1.6,2.388-2.165,2.336A.017.017,0,0,1,1.1-7.1c-.034-.018-.034-.121-.017-.275a4.643,4.643,0,0,1,.258-.859,12.69,12.69,0,0,1,1.254-2.3.234.234,0,0,0-.035-.309.187.187,0,0,0-.258,0c-.412.292-.807.584-1.185.842-.4.258-.807.533-1.254.773a.221.221,0,0,0-.068.309.2.2,0,0,0,.292.068c.447-.258.86-.515,1.272-.79.1-.069.206-.155.309-.224A11.475,11.475,0,0,0,.944-8.4a3.94,3.94,0,0,0-.292.962c-.052.344.017.6.223.722L.892-6.7c.052.017.121.035.189.051.567.052,1.34-.808,1.924-1.615a5.225,5.225,0,0,0-.138.807,1.4,1.4,0,0,0,.086.584l.017.017a.436.436,0,0,0,.584.155A3.727,3.727,0,0,0,4.741-7.733a8.784,8.784,0,0,0,.6-.739A3.015,3.015,0,0,0,5.72-8.2c.945.567,2.646.67,5.24-.653a.2.2,0,0,0,.086-.292.215.215,0,0,0-.292-.086Zm-5.514-.1a1.079,1.079,0,0,1-.068-.755.491.491,0,0,1,.446-.378.1.1,0,0,1,.068.017.28.28,0,0,1,.052.1.961.961,0,0,1-.052.412,4.077,4.077,0,0,1-.36.739.992.992,0,0,0-.086-.138Zm16.556.1a45.119,45.119,0,0,1-7.456,2.01,7.6,7.6,0,0,1-1.993.1c-.412-.069-.67-.189-.7-.43a1.028,1.028,0,0,1,.086-.4,11.251,11.251,0,0,1,1.958-2.474.219.219,0,0,0,.017-.309.214.214,0,0,0-.292-.017,12.473,12.473,0,0,1-1.22.807c-.447.257-.876.481-1.306.7a.227.227,0,0,0-.1.292.227.227,0,0,0,.292.1q.567-.283,1.134-.618a6.616,6.616,0,0,0-.876,1.34,1.268,1.268,0,0,0-.12.618c.052.464.447.721,1.083.807a7.719,7.719,0,0,0,2.113-.1,43.232,43.232,0,0,0,7.542-2.044.215.215,0,0,0,.12-.292A.207.207,0,0,0,21.8-9.229ZM14.82-12.167a.655.655,0,0,0-.55.4c-.1.224.018.4.223.4a.657.657,0,0,0,.567-.4C15.147-12,15.044-12.167,14.82-12.167Zm8.731,2.6c.241-.138.5-.275.739-.412l-.1.155a12.889,12.889,0,0,0-1.77,2.869.266.266,0,0,0,.378.274A5.468,5.468,0,0,0,24.1-8.11c.807-1.065,1.8-2.353,2.25-2.353.035,0-.378,1.357-.412,1.443-.1.327-.223.653-.309.945-.172.619.051.963.533,1.1,1.408.413,5.463-1.306,6.631-1.8l.138-.052a.224.224,0,0,0,.12-.275.215.215,0,0,0-.292-.12l-.12.051c-1.151.481-5.1,2.147-6.356,1.787-.223-.068-.327-.241-.24-.567.086-.275.206-.6.309-.91a5.868,5.868,0,0,0,.412-1.495c.017-.327-.1-.516-.4-.533-.67-.017-1.735,1.374-2.611,2.508q-.257.334-.464.618c.344-.55.842-1.237,1.237-1.8.326-.447.584-.825.67-.979a.206.206,0,0,0,.017-.241.224.224,0,0,0-.309-.068c-.516.326-1.048.635-1.564.91s-1.013.516-1.46.722a.215.215,0,0,0-.12.292.221.221,0,0,0,.292.1c.464-.206.979-.464,1.495-.739Zm9.692.351c-.034.035-.068.086-.1.121a2.286,2.286,0,0,0-.481.893,1.05,1.05,0,0,0,.137.876c.275.4.911.653,2.01.653a17.605,17.605,0,0,0,3.882-.55,55.61,55.61,0,0,0,5.48-1.632.211.211,0,0,0,.138-.275.211.211,0,0,0-.275-.138,54.449,54.449,0,0,1-5.446,1.615,17.923,17.923,0,0,1-3.779.55c-.945,0-1.443-.189-1.649-.481a.592.592,0,0,1-.068-.515,1.954,1.954,0,0,1,.378-.722l.052-.051A8.267,8.267,0,0,0,37.383-9.8a.806.806,0,0,0,.344-.4.417.417,0,0,0-.086-.464,1.05,1.05,0,0,0-.739-.258A5.273,5.273,0,0,0,33.26-9.236ZM34-9.356a4.612,4.612,0,0,1,2.886-1.116c.224,0,.378.034.43.1h.017l-.017.017a.385.385,0,0,1-.189.189A7.047,7.047,0,0,1,34-9.356ZM55.482-9.1a.246.246,0,0,0-.309-.086A16.162,16.162,0,0,1,45.827-7.1a2.588,2.588,0,0,0,.567-1.855c.034-.756.086-1.443.876-1.443h.086a.409.409,0,0,1,.189.1.21.21,0,0,1,.051.155v.035a.2.2,0,0,0,.171.24.207.207,0,0,0,.258-.172v-.1a.673.673,0,0,0-.155-.447.76.76,0,0,0-.447-.241.478.478,0,0,0-.155-.017h-.051a1.454,1.454,0,0,0-.4.052,5.281,5.281,0,0,0-2.01,1.2,3.174,3.174,0,0,1-.532.413.237.237,0,0,0-.052.309.219.219,0,0,0,.292.068c.171-.1.36-.275.584-.446a7.717,7.717,0,0,1,.979-.756,4.828,4.828,0,0,0-.12,1.031c-.051.842-.1,1.735-1.219,1.8h-.035a.418.418,0,0,1-.361-.1.558.558,0,0,1-.173-.378v-.017a.2.2,0,0,0-.223-.206.213.213,0,0,0-.206.223v.017a.961.961,0,0,0,.309.687,1.017,1.017,0,0,0,.67.223h.258A17.225,17.225,0,0,0,55.4-8.806a.224.224,0,0,0,.085-.292Z" transform="translate(7158.798 2988.94)" fill="#561e1e"/>
    <path id="Path_1110" data-name="Path 1110" d="M1.862-6.419a7.183,7.183,0,0,1,.784-3.43,7.519,7.519,0,0,1,2.156-2.5,11.684,11.684,0,0,1,3.209-1.666,23.84,23.84,0,0,1,3.9-.98l6.909-1.127v-.637a4.414,4.414,0,0,0-1.642-3.749,6.559,6.559,0,0,0-4.092-1.25,5.61,5.61,0,0,0-3.258.784A8.167,8.167,0,0,0,7.938-19.11a1.611,1.611,0,0,1-.637.539,2.413,2.413,0,0,1-.931.147H4.9a1.354,1.354,0,0,1-.956-.392,1.089,1.089,0,0,1-.368-.931,4.732,4.732,0,0,1,.857-2.205,7.553,7.553,0,0,1,2.058-2.009,12.1,12.1,0,0,1,2.989-1.445,11.316,11.316,0,0,1,3.6-.564,12.713,12.713,0,0,1,4.092.637,9.036,9.036,0,0,1,3.234,1.862,8.451,8.451,0,0,1,2.107,3.038,10.7,10.7,0,0,1,.759,4.165V-1.323a1.272,1.272,0,0,1-.392.931A1.272,1.272,0,0,1,21.952,0H20.139a1.272,1.272,0,0,1-.931-.392,1.272,1.272,0,0,1-.392-.931V-3.332A4.483,4.483,0,0,1,17.444-1.69a9.259,9.259,0,0,1-2.132,1.2,12.947,12.947,0,0,1-2.5.735A13.125,13.125,0,0,1,10.388.49a10.871,10.871,0,0,1-3.5-.539A8.473,8.473,0,0,1,4.189-1.495,6.36,6.36,0,0,1,2.475-3.675,6.25,6.25,0,0,1,1.862-6.419Zm9.016,2.695a9.331,9.331,0,0,0,3.234-.539,7.6,7.6,0,0,0,2.524-1.495,6.451,6.451,0,0,0,1.617-2.279,7.429,7.429,0,0,0,.563-2.94V-12.2l-5.782.931A13.936,13.936,0,0,0,8.134-9.7,3.19,3.19,0,0,0,6.321-6.909a2.586,2.586,0,0,0,.245,1.078A3.2,3.2,0,0,0,7.35-4.8a3.952,3.952,0,0,0,1.4.784A6.643,6.643,0,0,0,10.878-3.724Zm38.759,2.4a1.272,1.272,0,0,1-.392.931A1.272,1.272,0,0,1,48.314,0H46.5a1.272,1.272,0,0,1-.931-.392,1.272,1.272,0,0,1-.392-.931V-14.259q0-3.773-1.813-5.635a6.719,6.719,0,0,0-5.047-1.862,6.773,6.773,0,0,0-4.974,1.862q-1.886,1.862-1.886,5.635V-1.323a1.272,1.272,0,0,1-.392.931A1.272,1.272,0,0,1,30.135,0H28.322a1.272,1.272,0,0,1-.931-.392A1.272,1.272,0,0,1,27-1.323V-24.157a1.272,1.272,0,0,1,.392-.931,1.272,1.272,0,0,1,.931-.392h1.813a1.272,1.272,0,0,1,.931.392,1.272,1.272,0,0,1,.392.931v1.519a9.1,9.1,0,0,1,2.769-2.278,9.654,9.654,0,0,1,4.826-1.054,11.7,11.7,0,0,1,4.263.759,9.57,9.57,0,0,1,3.356,2.156A9.681,9.681,0,0,1,48.853-19.6a12.854,12.854,0,0,1,.784,4.606ZM61.642,0a1.233,1.233,0,0,1-.98-.392,3.3,3.3,0,0,1-.539-.833L50.372-23.961a1.086,1.086,0,0,1-.049-.343,1.134,1.134,0,0,1,.343-.833,1.134,1.134,0,0,1,.833-.343h1.813a1.441,1.441,0,0,1,1.1.392,2.4,2.4,0,0,1,.514.784l7.6,17.787,7.6-17.787a2.584,2.584,0,0,1,.49-.784,1.174,1.174,0,0,1,.931-.392h2.009a1.134,1.134,0,0,1,.833.343,1.134,1.134,0,0,1,.343.833,1.086,1.086,0,0,1-.049.343L64.925-1.225a3.7,3.7,0,0,1-.515.833A1.158,1.158,0,0,1,63.455,0ZM73.6-6.419a7.183,7.183,0,0,1,.784-3.43,7.519,7.519,0,0,1,2.156-2.5,11.684,11.684,0,0,1,3.209-1.666,23.839,23.839,0,0,1,3.9-.98l6.909-1.127v-.637a4.414,4.414,0,0,0-1.642-3.749,6.559,6.559,0,0,0-4.091-1.25,5.61,5.61,0,0,0-3.258.784,8.167,8.167,0,0,0-1.886,1.862,1.611,1.611,0,0,1-.637.539,2.413,2.413,0,0,1-.931.147h-1.47a1.354,1.354,0,0,1-.956-.392,1.089,1.089,0,0,1-.367-.931,4.732,4.732,0,0,1,.857-2.205,7.553,7.553,0,0,1,2.058-2.009,12.1,12.1,0,0,1,2.989-1.445,11.316,11.316,0,0,1,3.6-.564,12.713,12.713,0,0,1,4.091.637,9.036,9.036,0,0,1,3.234,1.862,8.451,8.451,0,0,1,2.107,3.038,10.7,10.7,0,0,1,.759,4.165V-1.323a1.272,1.272,0,0,1-.392.931A1.272,1.272,0,0,1,93.688,0H91.875a1.272,1.272,0,0,1-.931-.392,1.272,1.272,0,0,1-.392-.931V-3.332A4.483,4.483,0,0,1,89.18-1.69a9.259,9.259,0,0,1-2.132,1.2,12.947,12.947,0,0,1-2.5.735A13.125,13.125,0,0,1,82.124.49a10.871,10.871,0,0,1-3.5-.539,8.473,8.473,0,0,1-2.695-1.446,6.36,6.36,0,0,1-1.715-2.181A6.25,6.25,0,0,1,73.6-6.419Zm9.016,2.695a9.331,9.331,0,0,0,3.234-.539,7.6,7.6,0,0,0,2.523-1.495,6.451,6.451,0,0,0,1.617-2.279,7.429,7.429,0,0,0,.563-2.94V-12.2l-5.782.931A13.936,13.936,0,0,0,79.87-9.7a3.19,3.19,0,0,0-1.813,2.793A2.586,2.586,0,0,0,78.3-5.831,3.2,3.2,0,0,0,79.086-4.8a3.952,3.952,0,0,0,1.4.784A6.643,6.643,0,0,0,82.614-3.724Zm30.625-3.332a2.318,2.318,0,0,0-.514-1.544,4.068,4.068,0,0,0-1.544-1.053,17.276,17.276,0,0,0-2.622-.833q-1.593-.392-3.7-.833-3.969-.833-5.562-2.768a6.917,6.917,0,0,1-1.592-4.532,6.8,6.8,0,0,1,.588-2.793,6.76,6.76,0,0,1,1.764-2.352,8.445,8.445,0,0,1,2.965-1.617,13.44,13.44,0,0,1,4.189-.588,14.577,14.577,0,0,1,4.189.539,10.965,10.965,0,0,1,3.014,1.372,6.757,6.757,0,0,1,1.862,1.788,3.711,3.711,0,0,1,.686,1.837,1.089,1.089,0,0,1-.368.931,1.354,1.354,0,0,1-.955.392h-1.617a2.589,2.589,0,0,1-.71-.123,1.523,1.523,0,0,1-.76-.564,4.79,4.79,0,0,0-1.886-1.4,8.591,8.591,0,0,0-3.454-.563,7.064,7.064,0,0,0-3.65.833,2.568,2.568,0,0,0-1.4,2.3,2.569,2.569,0,0,0,.392,1.494,3.136,3.136,0,0,0,1.274.98,12.146,12.146,0,0,0,2.328.759q1.445.343,3.6.833a16.187,16.187,0,0,1,3.773,1.25,9.012,9.012,0,0,1,2.45,1.715,5.586,5.586,0,0,1,1.323,2.107,7.475,7.475,0,0,1,.392,2.425,6.106,6.106,0,0,1-.711,2.842,7.267,7.267,0,0,1-2.034,2.4,10.817,10.817,0,0,1-3.209,1.666,13.37,13.37,0,0,1-4.287.637A14.155,14.155,0,0,1,103.194-.1a13.086,13.086,0,0,1-3.185-1.446,7.317,7.317,0,0,1-2.034-1.862,3.685,3.685,0,0,1-.759-1.887,1.117,1.117,0,0,1,.343-.931,1.33,1.33,0,0,1,.98-.392H100.3a3.785,3.785,0,0,1,.686.074,1.22,1.22,0,0,1,.735.563,5.056,5.056,0,0,0,2.156,1.666,9.184,9.184,0,0,0,3.577.588,9.38,9.38,0,0,0,2.132-.245,7.351,7.351,0,0,0,1.862-.686,4.222,4.222,0,0,0,1.3-1.054A2.108,2.108,0,0,0,113.239-7.056Z" transform="translate(7097.271 2972)" fill="#561e1e"/>
  </g>
</svg>
