<svg height="484" width="764.114" xmlns="http://www.w3.org/2000/svg"><path d="M758.378 317H463.386a5.743 5.743 0 01-5.736-5.736V5.736A5.743 5.743 0 01463.386 0h294.992a5.743 5.743 0 015.736 5.736v305.528a5.743 5.743 0 01-5.736 5.736zM463.386 2a3.74 3.74 0 00-3.736 3.736v305.528a3.74 3.74 0 003.736 3.736h294.992a3.74 3.74 0 003.736-3.736V5.736A3.74 3.74 0 00758.378 2z" fill="#3f3d56"/><path d="M666.485 128.406a63.22 63.22 0 11-55.603-33.119c.501 0 1.001.008 1.5.02l-.669-27.006c-.277-.003-.553-.01-.831-.01a90.184 90.184 0 1077.35 43.772z" fill="#fe9603"/><path d="M666.485 128.406l21.747-16.343A90.156 90.156 0 00611.713 68.3l.669 27.005a63.203 63.203 0 0154.103 33.1z" fill="#e6e6e6"/><path d="M655.686 237.04l1.116-1.106 31.678 31.977-1.116 1.105zm-.566-157.592l22.02-39.258 1.37.769-22.02 39.258z" fill="#3f3d56"/><path d="M711.626 280.815h-46.75a3.138 3.138 0 01-3.134-3.133v-6.584a3.138 3.138 0 013.134-3.134h46.75a3.138 3.138 0 013.135 3.134v6.584a3.138 3.138 0 01-3.135 3.133z" fill="#fe9603"/><path d="M699.775 41.135h-46.751A3.138 3.138 0 01649.89 38v-6.584a3.138 3.138 0 013.134-3.134h46.75a3.138 3.138 0 013.135 3.134V38a3.138 3.138 0 01-3.134 3.134z" fill="#e6e6e6"/><path d="M410.494 145.873H77.124a5.471 5.471 0 01-5.464-5.465V6.465A5.471 5.471 0 0177.125 1h333.37a5.471 5.471 0 015.464 5.465v133.943a5.471 5.471 0 01-5.465 5.465zM77.124 3a3.469 3.469 0 00-3.464 3.465v133.943a3.469 3.469 0 003.465 3.465h333.37a3.469 3.469 0 003.464-3.465V6.465A3.469 3.469 0 00410.494 3z" fill="#3f3d56"/><path d="M207.077 112.63h-32.3a3.485 3.485 0 01-3.432-2.92 135.677 135.677 0 010-41.294 3.485 3.485 0 013.433-2.92h32.3a3.441 3.441 0 012.717 1.316 3.5 3.5 0 01.654 3.001 82.894 82.894 0 000 38.5 3.5 3.5 0 01-.654 3 3.441 3.441 0 01-2.718 1.318zm108.145 0h-32.3a3.485 3.485 0 01-3.432-2.92 135.677 135.677 0 010-41.294 3.485 3.485 0 013.432-2.92h32.3a3.44 3.44 0 012.718 1.316 3.498 3.498 0 01.654 3.001 82.897 82.897 0 000 38.5 3.498 3.498 0 01-.654 3 3.44 3.44 0 01-2.718 1.318z" fill="#e6e6e6"/><path d="M152.138 81.377h-32.3a3.485 3.485 0 01-3.432-2.92 135.677 135.677 0 010-41.294 3.485 3.485 0 013.432-2.921h32.3a3.441 3.441 0 012.718 1.317 3.5 3.5 0 01.654 3.001 82.888 82.888 0 000 38.5 3.5 3.5 0 01-.654 3 3.441 3.441 0 01-2.718 1.317zm109.232 0h-32.299a3.44 3.44 0 01-2.718-1.317 3.498 3.498 0 01-.654-3 82.894 82.894 0 000-38.5 3.499 3.499 0 01.654-3 3.44 3.44 0 012.718-1.318h32.3a3.485 3.485 0 013.432 2.92 135.677 135.677 0 010 41.295 3.485 3.485 0 01-3.432 2.92z" fill="#fe9603"/><path d="M367.78 81.377h-32.299a3.44 3.44 0 01-2.718-1.317 3.498 3.498 0 01-.654-3 82.894 82.894 0 000-38.5 3.499 3.499 0 01.654-3 3.44 3.44 0 012.718-1.318h32.3a3.485 3.485 0 013.432 2.92 135.693 135.693 0 010 41.295 3.485 3.485 0 01-3.432 2.92z" fill="#ff6584"/><path d="M187.937 319.466a10.743 10.743 0 01-7.842-14.486l-44.335-95.192 22.491-6.32 36.547 95.673a10.8 10.8 0 01-6.86 20.325zm-85.858 151.898h12.26l5.832-47.288h-18.094z" fill="#a0616a"/><path d="M137.983 482.747l-38.53.001-.002-14.886 23.644-.002a14.887 14.887 0 0114.888 14.887z" fill="#2f2e41"/><path d="M38.354 458.148l11.269 4.827 23.982-41.171-16.633-7.124z" fill="#a0616a"/><path d="M66.875 482.748l-35.418-15.17 5.861-13.684 21.734 9.309a14.887 14.887 0 017.823 19.545z" fill="#2f2e41"/><circle cx="132.39" cy="140.57" fill="#a0616a" r="24.561"/><path d="M114.646 459.803l-13.496-2.572a4.474 4.474 0 01-3.634-4.878l8.95-87.26a3.5 3.5 0 00-6.7-1.735l-39.071 91.167a4.5 4.5 0 01-5.964 2.34l-10.977-4.88a4.482 4.482 0 01-2.441-5.535l26.722-80.167a3.5 3.5 0 00.155-.694l8.674-73.247a4.5 4.5 0 012.775-3.64l27.389-11.127a4.5 4.5 0 014.833.945l34.57 33.66a4.482 4.482 0 011.275 4.101L119.902 456.26a4.517 4.517 0 01-4.417 3.623 4.47 4.47 0 01-.839-.08z" fill="#2f2e41"/><path d="M99.26 296.38c-4.785-5.54-8.277-8.054-10.665-7.657-2.37.383-3.736 3.693-5.184 7.198-1.975 4.784-4.215 10.207-9.734 10.63a4.647 4.647 0 01-4.562-1.87c-4.342-6.456 6.072-27.824 7.023-29.743l-.488-101.061a4.49 4.49 0 012.353-3.985c28.616-15.432 67.257 11.406 74.712 16.944a4.488 4.488 0 011.81 3.849c-.9 16.925-5.387 102.32-5.387 121.369 0 5.273-1.818 8.624-5.406 9.958a10.781 10.781 0 01-3.774.619c-10.946 0-28.873-12.559-40.698-26.25z" fill="#ccc"/><path d="M139.196 247.309a4.45 4.45 0 01-2.023-3.567l-1.938-45.265a11.747 11.747 0 0122.712-4.692l14.507 38.017a4.505 4.505 0 01-2.6 5.808l-26.58 10.144a4.455 4.455 0 01-4.078-.445z" fill="#ccc"/><path d="M71.649 318.037a10.743 10.743 0 01-1.726-16.382l-4.69-104.905 23.201 2.732-2.693 102.382a10.8 10.8 0 01-14.092 16.173z" fill="#a0616a"/><path d="M55.538 224.685a4.45 4.45 0 01-.619-4.054l14.328-42.983a11.747 11.747 0 0122.891 3.715v40.69a4.505 4.505 0 01-4.5 4.5h-28.45a4.453 4.453 0 01-3.65-1.868z" fill="#ccc"/><path d="M116.53 157.09a4.853 4.853 0 01-6.352-.317c-5.264-4.92-9.706-10.804-11.954-17.618-2.577-7.808-1.918-16.953 3.015-23.53 4.17-5.56 10.772-8.702 17.274-11.157a28.271 28.271 0 017.96-2.068 10.937 10.937 0 017.755 2.178 6.868 6.868 0 012.275 7.397 25.847 25.847 0 0111.802-6.105 14.267 14.267 0 018.44.35c3.77 1.55 6.22 5.338 7.349 9.256a16.724 16.724 0 01.218 9.21 11.146 11.146 0 01-5.706 7.032c-3.45 1.625-7.544 1.011-11.151-.226s-7.028-3.063-10.759-3.853-8.039-.328-10.68 2.424c-1.858 1.938-2.59 4.664-3.255 7.266l-3.46 13.534a16.88 16.88 0 01-2.156 5.574 3.333 3.333 0 01-.616.652z" fill="#2f2e41"/><path d="M216.138 352.377h-32.3a3.485 3.485 0 01-3.432-2.92 135.677 135.677 0 010-41.294 3.485 3.485 0 013.432-2.921h32.3a3.44 3.44 0 012.718 1.317 3.5 3.5 0 01.654 3.001 82.897 82.897 0 000 38.5 3.5 3.5 0 01-.654 3 3.44 3.44 0 01-2.718 1.317z" fill="#fe9603"/><path d="M162 484H1a1 1 0 010-2h161a1 1 0 010 2z" fill="#3f3d56"/></svg>