<svg xmlns="http://www.w3.org/2000/svg" width="1057.994" height="557.001"><g transform="translate(0 .001)"><path data-name="Path 2" d="M929.119 248.612L828.997 296l88.615-66.262a500.057 500.057 0 00-48.384-63.668L434.997 274l392.23-149.624a499.979 499.979 0 00-56.958-43.414L108.603 187.539A495.88 495.88 0 00-.003 497h995.99a495.614 495.614 0 00-66.868-248.388z" fill="rgba(254,150,3,0.06)"/><path data-name="Path 3" d="M716.117 50.2A495.972 495.972 0 00497.997 0c-153.83 0-291.361 69.753-382.71 179.349C271.71 145.074 544.061 85.743 716.117 50.2z" fill="rgba(254,150,3,0.06)"/><path data-name="Path 4" d="M995.997 495c0 15.464-143.717 62-321 62s-321-46.536-321-62 143.717 6 321 6 321-21.464 321-6z" fill="#3f3d56"/><path data-name="Path 5" d="M995.997 495c0 15.464-143.717 62-321 62s-321-46.536-321-62 143.717 6 321 6 321-21.464 321-6z" opacity=".1"/><ellipse data-name="Ellipse 3" cx="321" cy="28" rx="321" ry="28" transform="translate(353.994 467)" fill="#3f3d56"/><path data-name="Path 6" d="M585.641 267.126s12.911 20.477 8.3 26.021 34.593 5.683 34.593 5.683-5.889-29.788-4.156-36.643z" fill="#ffb8b8"/><path data-name="Path 7" d="M585.641 267.126s12.911 20.477 8.3 26.021 34.593 5.683 34.593 5.683-5.889-29.788-4.156-36.643z" opacity=".1"/><circle data-name="Ellipse 4" cx="40.484" cy="40.484" r="40.484" transform="translate(565.79 193.579)" fill="#313131"/><path data-name="Path 8" d="M701.494 453.5v24l24-5-2-17z" fill="#ffb8b8"/><path data-name="Path 9" d="M786.497 457.5l67 11-17 25s-47-16-59-16 9-20 9-20z" fill="#ffb8b8"/><path data-name="Path 10" d="M634.497 409.5s50-58 66-55 23 21 23 21l9 89s-32 3-32 0-6-67-6-67-47 104-72 35z" fill="#2f2e41"/><path data-name="Path 11" d="M553.497 448.5s1 50 31 53 63-20 63-20l54-25.87s64 33.87 83 24.87c0 0 20-21 7-27s-1 0-1 0l-77-40s-15-4-41 7-61 16-61 16z" fill="#2f2e41"/><circle data-name="Ellipse 5" cx="30" cy="30" r="30" transform="translate(573.494 217.5)" fill="#ffb8b8"/><path data-name="Path 12" d="M646.497 331.5l-2 42s1 55-8 59c-4.55 2.02-13.69 6.08-22.14 10.52-6.34 3.32-12.29 6.84-15.61 9.87a11.2 11.2 0 00-2.25 2.61c-4 7-30 6-36 1s-2 6-7 8c-4.84 1.94-11.55-13.92-7.44-37.6.13-.79.28-1.59.44-2.4 4.59-22.95-2.62-77.92-1.51-99.16a37.382 37.382 0 01.51-4.84c3-16 41.28-48.56 48.44-34.69 8.82 17.12 29.08 1.48 32.56-6.31 20-1 27 23 27 23z" fill="#fe9603"/><path data-name="Path 13" d="M727.497 468.5s-16 6-21 5-10 3-10 9-6 20 3 21 46-1 54 2c0 0 36 1 33-14s-18-14-18-14-41-2-41-9z" fill="#d3d3d3"/><path data-name="Path 14" d="M844.497 471.5s2-6 5-6 27 4 30 3 38-3 32 14-26 19-26 19-36-4-41-3-23 0-20-5 22-14 20-22z" fill="#d3d3d3"/><path data-name="Path 15" d="M753.468 327.863l5.486 22.63a1.414 1.414 0 01-.027.764l-24.886 77.77a1.414 1.414 0 01-2.751-.271l-3.443-30.3a1.413 1.413 0 01.06-.6l22.843-70.1a1.413 1.413 0 012.718.1z" fill="#d0cde1"/><path data-name="Path 16" d="M751.45 329.775l5.065 19.416-21.95 70.909-5.065-21.945z" fill="#f2f2f2"/><path data-name="Path 17" d="M640.859 435.3c.844 2.533 87.8-.844 88.641-1.688a18.324 18.324 0 001.857-3.377c.794-1.688 1.52-3.377 1.52-3.377l-3.38-27.335-86.109-3.056s-2.153 23.165-2.592 33.768a25.326 25.326 0 00.059 5.065z" fill="#d0cde1"/><path data-name="Path 18" d="M718.526 403.22l1.688 23.638h-37.989V403.22z" opacity=".1"/><path data-name="Path 19" d="M669.562 410.818l.227-.045-1.071 10.176h-21.106v-10.131z" opacity=".1"/><path data-name="Path 20" d="M640.859 435.3c.844 2.533 87.8-.844 88.641-1.688a18.324 18.324 0 001.857-3.377h-90.56a25.326 25.326 0 00.059 5.065z" opacity=".1"/><path data-name="Path 21" d="M627.406 162a22.13 22.13 0 01-12.769 8.778c-8.929 2.391-.073 15.809-.073 15.809s-3.22-4.879 1.425-10.046 12.12-8.701 11.417-14.541z" fill="#313131"/><circle data-name="Ellipse 6" cx="11.283" cy="11.283" r="11.283" transform="translate(601.699 178.523)" fill="#313131"/><path data-name="Rectangle 17" fill="#fff" d="M7 237.999h477v256H7z"/><path data-name="Path 22" d="M627.387 199.262c-9.2-3.479-24.513-5.243-32.392-4.037l1.081-7.891c7.575 3.915 22.82 5.755 32.392 4.037z" fill="#3f3d56"/><path data-name="Path 23" d="M609.589 202.087s-11.527 19.174-38.332 26.351-.219 47.458-.219 47.458-9.668-14.647 4.277-30.159 36.382-26.117 34.274-43.65z" fill="#313131"/><path data-name="Path 24" d="M610.504 200.922s11.074 26.336 23.231 28.826 11.235 44.1-7.777 50.344c0 0 13.863-24.4 2.013-40.757s-19.334-29.295-17.467-38.413z" fill="#313131"/><path data-name="Path 25" d="M614.354 443.02c-2.47 4.67-5.37 9.52-5.86 11.48-.33 1.33-3.99.56-9.75-1.61-11.55-4.37-31.57-14.38-50.25-24.39a15.78 15.78 0 01-2.44-1.6c.13-.79.28-1.59.44-2.4 4.59-22.95-2.62-77.92-1.51-99.16l8.513-2.84 17 16v68s44 24 47 26c1.527 1.02-.583 5.67-3.143 10.52z" opacity=".1"/><path data-name="Path 26" d="M651.497 388.5l27 14s16-17 26-4-29 17-29 17-34-8-35-19 11-8 11-8z" fill="#ffb8b8"/><path data-name="Path 27" d="M606.497 425.5l16 4s18-22 37-14-24 24-24 24-23 12-32 2 3-16 3-16z" fill="#ffb8b8"/><path data-name="Path 28" d="M641.497 293.5c1 1 12 9 12 9s3 38-1 46-7 8-4 12 7 1 3 8-8 6-5 9 2 4 2 4l12 10s-7.362 11.726-16.681 10.863-17.319-45.863-17.319-45.863z" fill="#fe9603"/><path data-name="Path 29" d="M553.497 317.5l-9 3s-24 88 4 103 59 30 60 26 12-20 9-22-47-26-47-26v-68z" fill="#fe9603"/><path data-name="Path 30" d="M566.994 354l-2 48 53 25-49-25z" opacity=".1"/><path data-name="Path 31" d="M1013.097 461.643c-20.155 11.884-28.088 35.774-28.088 35.774s24.745 4.621 44.9-7.263 28.088-35.774 28.088-35.774-24.748-4.621-44.9 7.263z" fill="#3f3d56"/><path data-name="Path 32" d="M1020.157 469.011c-11.287 20.5-34.933 29.128-34.933 29.128s-5.347-24.6 5.94-45.094 34.933-29.128 34.933-29.128 5.346 24.599-5.94 45.094z" fill="#fd9626"/><circle data-name="Ellipse 7" cx="4" cy="4" r="4" transform="translate(17.994 224)" fill="#fc635d"/><circle data-name="Ellipse 8" cx="4" cy="4" r="4" transform="translate(28.994 224)" fill="#fdbc40"/><circle data-name="Ellipse 9" cx="4" cy="4" r="4" transform="translate(39.994 223.999)" fill="#34c84a"/><path data-name="Rectangle 1" fill="#fe9603" opacity=".3" d="M78.994 378.873h58v6h-58z"/><path data-name="Rectangle 2" fill="#fe9603" opacity=".3" d="M78.994 391.873h54.865v6H78.994z"/><path data-name="Rectangle 3" fill="#fe9603" opacity=".3" d="M78.994 404.873h39.973v6H78.994z"/><g data-name="Group 2" opacity=".3" fill="#fe9603"><path data-name="Rectangle 4" d="M213.994 378.873h58v6h-58z"/><path data-name="Rectangle 5" d="M213.994 391.873h54.865v6h-54.865z"/><path data-name="Rectangle 6" d="M213.994 404.873h39.973v6h-39.973z"/><path data-name="Rectangle 7" opacity=".3" d="M213.994 378.873h58v6h-58z"/><path data-name="Rectangle 8" opacity=".3" d="M213.994 391.873h54.865v6h-54.865z"/><path data-name="Rectangle 9" opacity=".3" d="M213.994 404.873h39.973v6h-39.973z"/></g><path data-name="Rectangle 10" fill="#fe9603" opacity=".3" d="M353.994 378.873h58v6h-58z"/><path data-name="Rectangle 11" fill="#fe9603" opacity=".3" d="M353.994 391.873h54.865v6h-54.865z"/><path data-name="Rectangle 12" fill="#fe9603" opacity=".3" d="M353.994 404.873h39.973v6h-39.973z"/><path data-name="Rectangle 13" fill="#fe9603" opacity=".3" d="M70.994 300.873h74v66h-74z"/><path data-name="Rectangle 14" fill="#fe9603" d="M205.994 300.873h74v66h-74z"/><path data-name="Rectangle 15" fill="#fe9603" d="M345.994 300.873h74v66h-74z"/><path data-name="Path 33" d="M233.352 366.6l-.976-.019c.021-1.081.631-26.561 10.662-33.6l.561.8c-9.626 6.749-10.242 32.554-10.247 32.819z" fill="rgba(255,255,255,0.51)"/><circle data-name="Ellipse 10" cx="4.881" cy="4.881" r="4.881" transform="translate(243.318 322.887)" fill="rgba(255,255,255,0.51)"/><path data-name="Path 34" d="M247.213 345a15.2 15.2 0 01-7.841.339 13.85 13.85 0 0114.24-4.884 15.2 15.2 0 01-6.399 4.545z" fill="rgba(255,255,255,0.51)"/><path data-name="Path 35" d="M373.352 366.6l-.976-.019c.021-1.081.631-26.561 10.662-33.6l.561.8c-9.626 6.749-10.242 32.554-10.247 32.819z" fill="rgba(255,255,255,0.51)"/><circle data-name="Ellipse 11" cx="4.881" cy="4.881" r="4.881" transform="translate(383.319 322.887)" fill="rgba(255,255,255,0.51)"/><path data-name="Path 36" d="M387.213 345a15.2 15.2 0 01-7.842.339 13.85 13.85 0 0114.24-4.884 15.2 15.2 0 01-6.398 4.545z" fill="rgba(255,255,255,0.51)"/><path data-name="Path 37" d="M484.997 494h-479V217h479zm-477-2h475V219h-475z" fill="#fd9626"/><path data-name="Rectangle 16" fill="#fd9626" d="M6.994 237.065h477v2h-477z"/><text data-name="https://themes.semicolonweb.com…." transform="translate(59 230.999)" fill="rgba(112,112,112,0.64)" font-size="8" font-family="HelveticaNeue, Helvetica Neue"><tspan x="0" y="0">https://themes.semicolonweb.com….</tspan></text></g></svg>