<svg height="38" width="38" xmlns="http://www.w3.org/2000/svg"><path d="M29 19c0 5.522-4.478 10-10 10-5.523 0-10-4.478-10-10 0-5.523 4.477-10 10-10 5.522 0 10 4.477 10 10zm-15.513-8.349c-.892-.407-1.844-.651-2.845-.651-6.084 0-6.204 6-9.204 9 3 3 3.12 9 9.204 9 1.003 0 1.957-.245 2.851-.654m11.015 0c.893.409 1.847.654 2.85.654 6.084 0 6.204-6 9.204-9-3-3-3.12-9-9.204-9-1.001 0-1.953.244-2.846.651M10.341 14l8.911 14.994m8.407-14.993H10.341m8.91 14.993l8.408-14.993" fill="none" stroke="#231f20" stroke-miterlimit="10" stroke-width="2"/></svg>