<svg height="38" width="38" xmlns="http://www.w3.org/2000/svg"><path d="M7 19c0-6.627 5.373-12 12-12s12 5.373 12 12-5.373 12-12 12S7 25.627 7 19zm1.608-6c-2.771-1.6-.922-3.833-.922-5.313 1.481 0 3.714-1.85 5.313.921M29.393 25c2.771 1.6.921 3.833.921 5.313-1.48 0-3.713 1.85-5.313-.922m0-20.784c1.6-2.771 3.832-.921 5.313-.921 0 1.481 1.849 3.713-.923 5.314M13 29.392c-1.601 2.771-3.833.922-5.313.922 0-1.48-1.851-3.714.921-5.313M7.001 19c-3.201 0-2.715-2.858-3.456-4.141C4.828 14.119 5.836 11.4 8.607 13M31 19c3.2 0 2.714 2.859 3.454 4.142-1.282.74-2.29 3.458-5.063 1.857M19 7c0-3.2 2.858-2.714 4.141-3.455C23.882 4.828 26.6 5.837 25 8.608m-6 22.391c0 3.201-2.858 2.716-4.141 3.456-.74-1.282-3.459-2.291-1.859-5.063m-4.392-4.393c-2.772 1.601-3.78-1.117-5.063-1.857C4.286 21.858 3.8 19 6.999 19m22.394-6c2.771-1.6 3.779 1.12 5.062 1.86C33.715 16.142 34.201 19 31 19M13 8.606c-1.6-2.771 1.118-3.779 1.859-5.062C16.142 4.285 19 3.8 19 7m5.999 22.392c1.601 2.772-1.117 3.781-1.858 5.063C21.859 33.714 19 34.2 19 31m0-24l10.393 18m-20.782-.001L29.393 25m-20.782-.001L19 7m-6.926 12l-3.467-6M19 31l-3.464-6.001m0-11.998L8.607 13m20.782.001h-6.924M22.463 25L19 31m10.389-17.999L25.926 19" fill="none" stroke="#231f20" stroke-miterlimit="10" stroke-width="2"/></svg>