<svg height="38" width="38" xmlns="http://www.w3.org/2000/svg"><path d="M29 26.933c0 5.102-4.274 7.867-6.414 9.109A7.162 7.162 0 0119 37a7.15 7.15 0 01-3.586-.96C13.274 34.799 9 32.033 9 26.933V15C9 9.476 13.476 5 19 5c5.523 0 10 4.476 10 10zM19 20v8m-8.406-6s1.8 1 2.901 1h2.567m5.876 0h2.567c1.102 0 2.901-1 2.901-1M15 30s1.668 1 4 1c2.327 0 4-1 4-1M9 18s-.896-1-2-1-2 .896-2 2v10a2 2 0 004 0zm24 1c0-1.104-.896-2-2-2s-2 1-2 1v11a2 2 0 004 0zM22.502 5.635C22.84 5.165 23 4.603 23 4c0-1.657-1.206-3-4-3s-4 1.343-4 3c0 .621.169 1.198.529 1.677M29 17c0-2.375-.969-5.226-3.343-6C24.124 10.5 22 13 19 13c-2.188 0-4.969-2.061-6.05-2.066M19 18v-2m-3 2c-1 0-3-1-4-1H9m20 0h-3c-1 0-3 1-4 1" fill="none" stroke="#231f20" stroke-miterlimit="10" stroke-width="2"/></svg>