<svg height="38" width="38" xmlns="http://www.w3.org/2000/svg"><path d="M38 27c-9 0-8.451 4-19 4-10.548 0-10-4-19-4m25-7.25c0-5.321-2.631-9.302-6-13.75-3.368 4.448-6 8.429-6 13.75 0 3.812 2.067 7.25 6 7.25 3.932 0 6-3.438 6-7.25zm-9.042-2.917C13.246 13.998 7.996 13 2.107 13c1.684 5.141 2.801 9.069 6.748 11.625C11.929 26.616 14.542 27 19 27c0-4.708-.045-7.035-3.042-10.167zM19 27c4.458 0 7.071-.384 10.146-2.375 3.946-2.556 5.063-6.484 6.747-11.625-5.889 0-11.138.998-13.851 3.833C19.045 19.965 19 22.292 19 27zm-3.435-16C13.767 9.313 12.282 8.313 9 7v6.582m19.999 0V7c-3.282 1.313-4.768 2.313-6.565 4" fill="none" stroke="#231f20" stroke-miterlimit="10" stroke-width="2"/></svg>