<svg height="38" width="38" xmlns="http://www.w3.org/2000/svg"><path d="M31 19c0 6.627-5.373 12-12 12S7 25.627 7 19 12.373 7 19 7s12 5.373 12 12zM15.291 7.585C14.302 4.541 17.953 4.047 19 3c1.048 1.047 4.697 1.542 3.709 4.585m0 22.83C23.698 33.459 20.047 33.953 19 35c-1.048-1.047-4.697-1.543-3.709-4.585M9.289 11.946c-2.589-1.882.075-4.427.306-5.89 1.463.231 4.707-1.513 5.696 1.529m13.419 18.47c2.59 1.882-.074 4.428-.306 5.89-1.463-.23-4.707 1.513-5.695-1.529M6.997 19.001c-3.201 0-2.541-3.626-3.214-4.945 1.32-.673 2.919-3.991 5.507-2.111M31.002 19c3.201 0 2.543 3.626 3.215 4.944-1.319.674-2.919 3.991-5.507 2.11m-19.42.002c-2.589 1.882-4.187-1.439-5.507-2.11.672-1.322.016-4.945 3.215-4.946m21.712-7.054c2.59-1.882 4.188 1.438 5.507 2.11-.671 1.32-.016 4.945-3.215 4.944M15.291 30.416c-.989 3.044-4.233 1.296-5.696 1.529-.233-1.464-2.893-4.01-.306-5.891m13.42-18.468c.988-3.045 4.233-1.298 5.695-1.53.233 1.462 2.894 4.01.305 5.89M19 31L8.607 13m20.782.001L8.607 13m20.782.001L19 31" fill="none" stroke="#231f20" stroke-miterlimit="10" stroke-width="2"/></svg>