<svg height="510.676" width="928.973" xmlns="http://www.w3.org/2000/svg"><g transform="translate(-57.339)"><path d="M496.326 126.028l-.026.174-.071.5-7.329 52.581-44.864 16.461-.7-.336-25.118-11.929-12.988-49.834-.89-3.421.271-.1 55.566-20.876 36.117 16.764z" fill="#ffcd8c"/><path d="M443.335 195.408l-25.118-11.929-13.878-53.255.271-.1 36.2 15.273z" fill="#ffcd8c"/><path d="M443.965 194.8l-19.106-36.614 2.454-10.38-11.557-13.606-.984.836 11.134 13.111-8.317 35.186 1.257.3 5.559-23.521L442.82 195.4z" opacity=".2"/><path d="M496.326 126.673l-.1.032-55.418 19.334-35.582-12.394-.89-3.421.271-.1 55.566-20.876 36.117 16.764.007.194z" fill="#3f3d56"/><path d="M441.779 147.007l-11.3-8.714 2.582-9.683 32.276-11.62 21.948 1.291 8.715 7.424.645 1.936z" fill="#ffcd8c"/><path d="M404.984 130.224l25.5-.969 13.813-4.688 21.536-7.577 4.028-5.809-10.05-1.8z" fill="#ffcd8c"/><path d="M442.487 124.503l13.295-4.666.428 1.219-13.296 4.665z" fill="#ccc"/><path d="M280.668 44.344l-6.233 31.163 29.086 21.815 13.505-40.513z" fill="#9f616a"/><circle cx="304.04" cy="44.863" fill="#9f616a" r="28.047"/><path d="M243.272 257.373c.128 9.049 39.539 109.757 34.067 122.871-8.626 8.817-27.18 55.747-35.106 68.267-1.038 0-6.232 15.581-6.232 15.581s12.465 19.737 25.97 11.427c16.98-39.937 59.506-62.211 60.257-114.263 2.053 16.443 8.112 121.989 8.112 121.989s-1.162.493 25 3c4.062-61.258 20.66-165.475-16.5-230.949-11.426-5.194-95.568 2.077-95.568 2.077z" fill="#2f2e41"/><path d="M330.337 481.19c-1.214 2.335-9.924 23.893-2 26.054 9.14 2.493 18-1 18-1s16 5 25.792-1.355c4.57-4.57 3.531-8.725 1.35-11.737a12.723 12.723 0 00-9.439-5.088c-4.969-.354-6.547-1.275-7.116-3.552-.829-3.322-26.587-3.322-26.587-3.322zm-85.473-18.825s-22.327 7.05-17.626 15.276a30.912 30.912 0 0012.838 11.839s4.656 19.2 17.582 19.2c6.463 0 8.666-3.672 9.254-7.344a12.723 12.723 0 00-3.077-10.271c-3.263-3.764-3.728-5.531-2.52-7.544 1.763-2.942-16.451-21.156-16.451-21.156z" fill="#2f2e41"/><path d="M344.039 260.414s-4.16 8.31-20.78 5.19-82.06 0-82.06 0 3.63-74.27-4.68-118.94 24.41-70.12 24.41-70.12l10.39-10.39c10.39-1.03 32.33 31.21 32.33 31.21 7.22 1.21 13.96 31.9 19.71 60.94.34 1.66.66 3.3.98 4.94 2.65 13.54 6.34 28.61 8.55 42.14.16.96.31 1.91.45 2.86a494.552 494.552 0 0010.7 52.17z" fill="#e6e6e6"/><path d="M271.229 27.399s-5.244-11.537 8.39-16.78c0 0 11.537-18.878 34.61-6.293 0 0 15.732 6.293 15.732 23.073s5.244 19.927 5.244 19.927-7.809-8.011-9.907-14.3-18.41-7.72-24.7-1.428-22.024 5.244-22.024 5.244l1.049 23.073s-5.244-13.634-7.341-13.634-4.199-18.882-1.053-18.882z" fill="#2f2e41"/><path d="M332.889 205.384c-24.78-13.47-64.92-43.01-77.87-58.99-17.07-21.05 1.55-37.05 1.55-37.05 21.11-13.32 46.35 32.38 46.35 32.38l20.44 16.58c.34 1.66.66 3.3.98 4.94 2.65 13.54 6.34 28.61 8.55 42.14z" opacity=".2"/><path d="M406.862 189.862s36.84 14.956 42.9-1.856-29.086-16.523-29.086-16.523l-13.8 1.955z" fill="#9f616a"/><path d="M251.847 102.503s-18.611 16.009-1.553 37.052 95.451 66 95.451 66l51.064-13.8 14.451 2.644 2.724-27.131-21.289 2.078-54.039-11.508-34.46-27.961s-31.24-40.687-52.349-27.374z" fill="#e6e6e6"/><path d="M319.646 295.362l3.256 76.081-8.256-76.081z" opacity=".2"/><path d="M661.182 240.938l-29.558 6.849a9.017 9.017 0 01-10.759-6.5 9.017 9.017 0 018.513-11.3l28.551-.664z" fill="#ffb9b9"/><path d="M658.043 245.277l-6.565-19.694 39.356-13.445-10.445-91.986c18.806 3.419 27.757 18.208 26.918 37.3l5.091 62.769z" fill="#3f3d56"/><path d="M685.235 99.874h64.3V67.898a32.8 32.8 0 00-9.417-23.088 31.691 31.691 0 00-22.734-9.566 32.2 32.2 0 00-32.137 31.8c0 .293-.01.571-.01.854z" fill="#2f2e41"/><path d="M776.418 475.63l-20.554-2.359-24.6-166.113-50.875 166.788-22.238.674 25.271-205.2-3.706-46.835 63.009-19.88c44.625 31.154 43.702 141.188 33.693 272.925z" fill="#544ce5"/><circle cx="711.725" cy="69.275" fill="#ffb9b9" r="24.26"/><path d="M735.985 113.078l-41.107 10.782c6.926-13.319 9.142-25.753 5.391-37.064l28.977-4.717a42.277 42.277 0 006.739 31z" fill="#ffb9b9"/><path d="M749.799 211.803c-23.056 14.663-49.914 31.507-69.747 15.162l-9.435-45.827c-7.5-6.679-4.173-27.288 5.964-56.664a12.994 12.994 0 018.055-8.046l15.632-5.374c6.928 5.826 18.284 2.351 31.673-5.391l15.5 4.043 6.739 50.542c-9.724 14.577-8.029 33.984-4.381 51.555z" fill="#f82e5d"/><path d="M730.592 231.504l-29.558 6.849a9.017 9.017 0 01-10.759-6.5 9.017 9.017 0 018.513-11.3l28.551-.664z" fill="#ffb9b9"/><path d="M772.846 507.389c-3.452 1.576-6.344-8.189-9.255-5.327-8.145 8-27.683 6.21-27.683 6.21a5.091 5.091 0 01-3.209-6.635 5.091 5.091 0 013.532-3.152l8.662-2.165 13.6-23.918 14.822-1.876.374.612a38.217 38.217 0 014.1 31.25c-1.233 3.95-2.915 4.075-4.943 5.001zm-97.714 0c-3.452 1.576-6.344-8.189-9.255-5.327-8.145 8-27.683 6.21-27.683 6.21a5.091 5.091 0 01-3.209-6.635 5.091 5.091 0 013.532-3.152l8.662-2.165 13.6-23.918 14.822-1.876.374.612a38.217 38.217 0 014.1 31.25c-1.237 3.95-2.919 4.075-4.943 5.001zm65.033-458.351l-6.11 19.44-52.826-.939a32.655 32.655 0 0158.936-18.5z" fill="#2f2e41"/><path d="M727.456 235.838l-6.565-19.694 39.355-13.443-14.89-93.975a38.237 38.237 0 0131.36 39.3l5.091 62.768z" fill="#3f3d56"/><path d="M633.455 182.748l-40.933 8.8-8.363-40.273 15.405-20.687 13.864-2.641 15.405 15.625z" fill="#ccc"/><path d="M614.529 184.5h-24.65l-3.36-16.59-3.68-18.18 5.5-7.92 10.57 3.3 11.44 15.85 2.87 16.15.2 1.15z" fill="#e6e6e6"/><path d="M655.9 174.825l-28.389 3.3 5.062-36.091 11.443-10.344 9.9 2.421 6.6 15.185z" fill="#ccc"/><path d="M659.639 153.474L657 168l-8.58 49.51-33.01 10.57-1.14-.62-17.79-9.73-10.01-49.84.05.02 26.47 10.65.23-1.45.16-1.05 2.03-12.9 9.02-9.69 30.15-7.26z" fill="#e6e6e6"/><circle cx="638.736" cy="144.895" fill="#e6e6e6" r="7.042"/><path d="M605.357 151.388l16.065-2.86.077.432-16.065 2.861z" fill="#fff"/><path d="M614.269 227.464l-17.79-9.73-10.01-49.84.05.02-3.68-18.18 5.5-7.92 10.57 3.3 11.44 15.85 2.87 16.15.16-1.05.04 2.2.11 6.24z" fill="#f2f2f2"/><path d="M596.7 217.8l-.426-.114 8.775-32.906L595 171.529l.351-.266 10.178 13.418z" fill="#ccc"/><path d="M601.256 199.205l.396-.191 13.96 28.979-.397.19z" fill="#ccc"/><path d="M657.907 164.989l-1.653 9.131-.084.009-7.4 42.685-33.011 10.563-.2.095-.132-.275-18.6-10.163-.213-.057.114-.431-9.914-49.357.051.02-1.1-5.418.821-1.182 2.537-3.653 10.563 3.3 11.444 15.845.167.942 1.2 6.761.482 2.716 1.019 5.737.968-6.164.348-2.218.876-5.572 9.023-9.683 4.012-.966 2.793-.673 3.842-.924a7.042 7.042 0 119.654-2.326l9.848-2.372 2.427 3.484z" opacity=".2"/><path d="M615.321 201.848h-24.648l-7.042-34.771 5.5-7.923 10.563 3.3L611.14 178.3z" fill="#e6e6e6"/><path d="M649.212 234.859L616.2 245.422l-18.926-10.343-10.013-49.846 26.519 10.673 2.42-15.4 9.023-9.683 30.15-7.262 5.062 7.262-2.641 14.525z" fill="#e6e6e6"/><circle cx="639.529" cy="162.235" fill="#e6e6e6" r="7.042"/><path d="M615.079 244.464l-17.79-9.73-10.01-49.84.05.02-3.68-18.18 5.5-7.92 10.57 3.3 11.44 15.85 2.87 16.15.16-1.05.04 2.2.11 6.24z" fill="#f2f2f2"/><path d="M597.488 235.135l-.425-.113 8.775-32.907-10.049-13.247.351-.266 10.179 13.419z" fill="#ccc"/><path d="M602.048 216.545l.396-.191 13.96 28.979-.397.19zm289.407 248.549l-40.933 8.8-8.363-40.273 15.405-20.687 13.864-2.641 15.405 15.625z" fill="#ccc"/><path d="M872.529 466.85h-24.65l-3.36-16.59-3.68-18.18 5.5-7.92 10.57 3.3 11.44 15.85 2.87 16.15.2 1.15z" fill="#e6e6e6"/><path d="M913.9 457.171l-28.389 3.3 5.062-36.092 11.443-10.343 9.9 2.42 6.6 15.185z" fill="#ccc"/><path d="M917.639 435.82L915 450.35l-8.58 49.51-33.01 10.57-1.14-.62-17.79-9.73-10.01-49.84.05.02 26.47 10.65.23-1.45.16-1.05 2.03-12.9 9.02-9.69 30.15-7.26z" fill="#e6e6e6"/><circle cx="896.736" cy="427.242" fill="#e6e6e6" r="7.042"/><path d="M863.357 433.734l16.065-2.86.077.432-16.065 2.861z" fill="#fff"/><path d="M872.269 509.81l-17.79-9.73-10.01-49.84.05.02-3.68-18.18 5.5-7.92 10.57 3.3 11.44 15.85 2.87 16.15.16-1.05.04 2.2.11 6.24z" fill="#f2f2f2"/><path d="M854.7 500.142l-.426-.113 8.775-32.907L853 453.875l.351-.266 10.178 13.418z" fill="#ccc"/><path d="M859.256 481.553l.396-.191 13.96 28.979-.397.19z" fill="#ccc"/><path d="M972.339 506.59h-27l-4-52h35z" fill="#e6e6e6"/><path d="M940.839 475.59h36v8h-36z" fill="#f2f2f2"/><path d="M986.089 458.323l-5.756-1.7-.074-2.107-25.58-7.535-1.205 1.73-5.755-1.7-3.614 5.19 42.207 12.433z" fill="#ccc"/><path d="M149.326 440.959l-.026.174-.071.5-7.329 52.582-44.862 16.461-.7-.336-25.121-11.929-12.988-49.835-.89-3.421.271-.1 55.566-20.876 36.117 16.764z" fill="#ffcd8c"/><path d="M96.335 510.34l-25.118-11.929-13.878-53.256.271-.1 36.2 15.273z" fill="#ffcd8c"/><path d="M96.965 509.731l-19.106-36.614 2.454-10.379-11.557-13.61-.984.836 11.134 13.112-8.317 35.186 1.257.3 5.559-23.52 18.415 35.29z" opacity=".2"/><path d="M149.326 441.605l-.1.032-55.415 19.333-35.582-12.394-.89-3.421.271-.1 55.566-20.876 36.117 16.764.007.193z" fill="#3f3d56"/><path d="M94.779 461.939l-11.3-8.715 2.582-9.683 32.276-11.619 21.948 1.291 8.715 7.423.645 1.937z" fill="#ffcd8c"/><path d="M57.984 445.155l25.5-.968 13.811-4.687 21.536-7.576 4.028-5.81-10.05-1.8z" fill="#ffcd8c"/><path d="M95.487 439.432l13.295-4.666.428 1.219-13.296 4.665z" fill="#ccc"/></g></svg>