<svg xmlns="http://www.w3.org/2000/svg" width="1101.231" height="600.907"><g transform="translate(123.637 22.531)"><path data-name="Rectangle 68" fill="#ccc" d="M151.557 268h110v123h-110z"/><path data-name="Path 70" d="M95.557 576h-56l-6-48h68z" fill="#e6e6e6"/><path data-name="Path 71" d="M208.007 541.233l-1.89 25.835a8.224 8.224 0 008.7 8.809l13.27-.8a4.195 4.195 0 003.815-5.2l-7.366-29.463z" fill="#e6e6e6"/><path data-name="Path 72" d="M319.002 556.51c15.618 3.653 26.774 8.846 34.1 15.874a15.035 15.035 0 009.624 4.125c4.6.242 8.355-.273 11.18-1.535a4.43 4.43 0 002.625-3.651 4.508 4.508 0 00-1.888-4.167l-37.04-26.355-15.733 6.294-3.67 3.67a3.634 3.634 0 00.8 5.743z" fill="#e6e6e6"/><path data-name="Path 73" d="M270.94 134.695l-105.873-.98c.266-15.421 3.854-30.563 11.7-44.114 5.151-8.9 5.039-18.585 3.8-26.744-1.916-12.592 2.539-25.475 12.437-33.491a39.916 39.916 0 0126.843-8.881l2.056.086a40.008 40.008 0 0132.871 19.77 33.327 33.327 0 013.961 20.3c-.671 6.6.935 13.27 4.691 20 6.473 14.784 7.877 33.7 7.514 54.054z" fill="#2f2e41"/><path data-name="Path 74" d="M341.778 542.177l-20.779 5.421-101.187-220.436 6.324 215.015h-20.779c-22.2-101.159-62.291-217.907-44.268-254.766l107.508-6.324z" fill="#030303"/><circle data-name="Ellipse 44" cx="28.006" cy="28.006" r="28.006" transform="translate(190.903 41.679)" fill="#ffb9b9"/><path data-name="Path 75" d="M243.301 121.181l-46.075-2.71c4.515-10.364 6.319-20.344 4.517-29.813h34.335c-.082 7.27 3.536 19.847 7.223 32.523z" fill="#ffb9b9"/><path data-name="Path 76" d="M272.211 289.217l-101.183 7.228 10.389-179.33 17.617-4.969 19.875 4.517 19.875-9.938 12.648 4.518z" fill="#f82e5d"/><path data-name="Path 77" d="M188.192 418.407l-69.114-15.809c20.551-68.148 57.573-224.051 45.623-279.61l36.137-16.262z" fill="#e6e6e6"/><path data-name="Path 78" d="M154.766 221.461l-26.2-16.262 22.343-65.439a30.871 30.871 0 0113.494-16.028l7.527-4.358-4.517 65.95z" fill="#e6e6e6"/><path data-name="Path 79" d="M332.289 403.501c-21.813 12.62-76.339 19.655-100.28 10.841-1.762-61.573-5.217-235.739 5.872-309.423l39.751 16.262-3.614 48.785c-19.004 41.733 36.179 187.088 58.271 233.535z" fill="#e6e6e6"/><path data-name="Path 80" d="M329.127 213.33l-24.393-8.13-32.523-37.041 5.421-46.978 54.205 75.888z" fill="#e6e6e6"/><path data-name="Path 81" d="M252.678 248.494a6.785 6.785 0 008.105 5.112l20.706-4.689-2.993-13.217-20.706 4.688a6.777 6.777 0 00-5.112 8.105z" fill="#ffb9b9"/><path data-name="Path 82" d="M243.301 62.458c-15.556-6.4-30.919-6.859-46.075-.9l-6.324-22.586h57.819z" fill="#2f2e41"/><path data-name="Path 83" d="M271.307 233.205l11.745 21.682c19.754-5.51 36.874-22.879 53.3-43.364l-4.517-14.455-28.006 7.227z" fill="#e6e6e6"/><path data-name="Path 84" d="M262.725 188.486h-3.614c0-51.111-10.523-86.729-20.779-86.729l-.9-3.614c9.2 0 15.06 14.824 18.36 27.26 4.47 16.86 6.933 39.263 6.933 63.083z" fill="#3f3d56"/><path data-name="Path 85" d="M179.61 175.838h-3.614c0-46.809 10.6-75.888 26.2-75.888l-.9 3.614c-10.797 0-21.686 22.348-21.686 72.274z" fill="#3f3d56"/><circle data-name="Ellipse 45" cx="9.034" cy="9.034" r="9.034" transform="translate(251.884 180.355)" fill="#3f3d56"/><path data-name="Path 86" d="M165.155 197.52h-3.614c0-12.952 7.295-23.489 16.262-23.489v3.618c-6.974 0-12.648 8.912-12.648 19.871z" fill="#3f3d56"/><path data-name="Path 87" d="M194.065 197.52h-3.614c0-10.959-5.674-19.875-12.648-19.875v-3.614c8.967 0 16.262 10.537 16.262 23.489z" fill="#3f3d56"/><circle data-name="Ellipse 46" cx="3.614" cy="3.614" r="3.614" transform="translate(188.644 194.809)" fill="#3f3d56"/><circle data-name="Ellipse 47" cx="3.614" cy="3.614" r="3.614" transform="translate(159.735 194.809)" fill="#3f3d56"/><path data-name="Path 88" d="M118.177 165.193l22.547 4.026 51.534 73.276-27.378-6.442z" fill="#6c63ff"/><path data-name="Path 89" d="M114.178 164.296a1.918 1.918 0 00-1.573 2.971l48.173 73.088a1.911 1.911 0 001.16.81l22.413 5.273a1.914 1.914 0 002-2.965l-52.889-75.2a1.9 1.9 0 00-1.229-.783l-17.7-3.16a2.079 2.079 0 00-.361-.033z" fill="#3f3d56"/><path data-name="Path 90" d="M144.227 216.549l1.339 13.485 21.126-2.1a6.776 6.776 0 00-1.338-13.485z" fill="#ffb9b9"/><path data-name="Path 91" d="M125.856 214.991a17.427 17.427 0 0017.406 17.311h3.474l2.529-21.076-20.94-7.538z" fill="#e6e6e6"/><path data-name="Rectangle 69" fill="#e6e6e6" d="M442.557 0h412v217h-412z"/><path data-name="Path 92" d="M454.556 205h388V12h-388z" fill="#fff"/><path data-name="Rectangle 70" fill="#3f3d56" d="M484.557 40h138v138h-138z"/><circle data-name="Ellipse 48" cx="4" cy="4" r="4" transform="translate(585.557 95)" fill="#6c63ff"/><circle data-name="Ellipse 49" cx="4" cy="4" r="4" transform="translate(570.557 81)" fill="#6c63ff"/><path data-name="Path 93" d="M572.556 99a7.949 7.949 0 00-4.167 1.18 25.123 25.123 0 00-3.866-4.535c.017-.213.033-.427.033-.645a7.994 7.994 0 00-13.547-5.757 24.507 24.507 0 00-6.463-.056c0-.063.009-.124.009-.187a8 8 0 10-13.259 6.018 25.14 25.14 0 00-3.624 3.834A8 8 0 10522.556 113h.025a25.57 25.57 0 00-.025 1 25.041 25.041 0 00.723 5.969 14.994 14.994 0 1019.57 18.582 24.971 24.971 0 0016.342-2.424 8 8 0 1010.492-10.492 24.857 24.857 0 002.848-10.636h.025a8 8 0 000-16z" fill="#6c63ff"/><path data-name="Rectangle 71" fill="#e6e6e6" d="M530.557 37h40v6h-40z"/><path data-name="Rectangle 72" fill="#3f3d56" d="M660.557 40h138v138h-138z"/><circle data-name="Ellipse 50" cx="1.8" cy="1.8" r="1.8" transform="translate(753.957 130)" fill="#6c63ff"/><circle data-name="Ellipse 51" cx="1.8" cy="1.8" r="1.8" transform="translate(747.207 123.7)" fill="#6c63ff"/><path data-name="Path 94" d="M748.106 131.8a3.577 3.577 0 00-1.875.531 11.308 11.308 0 00-1.74-2.041c.008-.1.015-.192.015-.29a3.6 3.6 0 00-6.1-2.591 11.029 11.029 0 00-2.908-.025v-.084a3.6 3.6 0 10-5.967 2.708 11.312 11.312 0 00-1.631 1.725 3.6 3.6 0 10-2.3 6.367h.011c-.006.15-.011.3-.011.451a11.264 11.264 0 00.325 2.686 6.747 6.747 0 108.806 8.362 11.237 11.237 0 007.354-1.091 3.6 3.6 0 104.721-4.721 11.184 11.184 0 001.282-4.786h.011a3.6 3.6 0 000-7.2z" fill="#6c63ff"/><circle data-name="Ellipse 52" cx="1.8" cy="1.8" r="1.8" transform="translate(768.078 95.842)" fill="#6c63ff"/><circle data-name="Ellipse 53" cx="1.8" cy="1.8" r="1.8" transform="translate(772.313 87.637)" fill="#6c63ff"/><path data-name="Path 95" d="M767.804 90.279a3.576 3.576 0 00-1.02-1.661 11.3 11.3 0 001.494-2.228 3.63 3.63 0 00.284-.065 3.6 3.6 0 00.841-6.57 11.031 11.031 0 00-.765-2.806c.027-.007.055-.011.082-.019a3.6 3.6 0 10-4.224-5.009 11.313 11.313 0 00-2.1-1.1 3.6 3.6 0 10-6.752-.49v.011c-.146.035-.291.07-.437.111a11.271 11.271 0 00-2.5 1.042 6.747 6.747 0 10-5.66 10.742 11.237 11.237 0 003.044 6.783 3.6 3.6 0 105.824 3.265 11.185 11.185 0 004.954-.064v.011a3.6 3.6 0 006.93-1.952z" fill="#6c63ff"/><circle data-name="Ellipse 54" cx="1.8" cy="1.8" r="1.8" transform="translate(698.362 71.381)" fill="#6c63ff"/><circle data-name="Ellipse 55" cx="1.8" cy="1.8" r="1.8" transform="translate(689.158 72.119)" fill="#6c63ff"/><path data-name="Path 96" d="M695.004 78.832a3.577 3.577 0 00-.872 1.743 11.307 11.307 0 00-2.68-.092c-.066-.07-.132-.14-.2-.207a3.6 3.6 0 00-6.023 2.755 11.029 11.029 0 00-1.98 2.131c-.02-.02-.038-.041-.059-.06a3.6 3.6 0 10-2.023 6.232 11.317 11.317 0 00.174 2.368 3.6 3.6 0 103.15 5.993l.007-.009c.107.105.214.21.325.312a11.269 11.269 0 002.2 1.572 6.747 6.747 0 1012.111-.867 11.237 11.237 0 004.153-6.167 3.6 3.6 0 10-.3-6.67 11.185 11.185 0 00-2.671-4.173l.008-.008a3.6 3.6 0 10-5.317-4.854z" fill="#6c63ff"/><path data-name="Rectangle 73" fill="#e6e6e6" d="M706.557 37h40v6h-40z"/><path data-name="Path 97" d="M25.178 510.243c14.42 19.311 44.352 21.344 44.352 21.344s6.554-29.277-7.866-48.588-44.352-21.344-44.352-21.344-6.556 29.277 7.866 48.588z" fill="#e6e6e6"/><path data-name="Path 98" d="M98.633 517.503c-9.515 12.743-29.267 14.084-29.267 14.084s-4.324-19.319 5.191-32.062 29.267-14.084 29.267-14.084 4.324 19.319-5.191 32.062z" fill="#e6e6e6"/><path data-name="Rectangle 74" fill="#3f3d56" d="M0 575.656h519.557v2.241H0z"/><path data-name="Path 99" d="M965.933 534.986a181.08 181.08 0 01-15.714 30.184 130.611 130.611 0 01-9.518 13.081l-.105.125H-123.637l.192-.134c.958-.747 6.579-5.3 15.322-13.081a616.18 616.18 0 0022.982-21.584c72.289-71.1 211.151-239.4 95.5-393.575C-97.151 6.678 18.604-19.34 94.959-22.367A218.573 218.573 0 01181.019-8.3c35.269 13.406 99.744 33.966 183.745 43.379q4.137.469 8.35.9a804.58 804.58 0 00133.854 2.423c1.312-.067 2.633-.163 3.964-.259a796.486 796.486 0 00130.931-20.262c2.786-.68 5.535-1.321 8.274-1.915 143.286-33.152 275.378 79.835 242.36 207.532-12.219 47.219-9.116 97.57 31.6 138.288 66.6 66.495 58.489 131.954 41.836 173.2z" fill="rgba(15,100,88,0.64)" opacity=".058"/></g></svg>