<svg xmlns="http://www.w3.org/2000/svg" width="1600" height="1200"><g data-name="Component 6 – 1" opacity=".018" clip-path="url(#clip-Taieri)"><path data-name="Background" fill="none" d="M0 0h1600v1200H0z"/><g data-name="Mask Group 8" transform="translate(-5069 6837)" clip-path="url(#clip-path)"><g data-name="Taieri" transform="translate(5069 -6837)" fill="none" stroke="#fff" stroke-linecap="round" stroke-linejoin="round" stroke-miterlimit="10" stroke-width="10.947"><path d="M1600 849.006c0 27.223-25.743 49.292-57.5 49.292s-57.5-22.069-57.5-49.292"/><path data-name="Shape" d="M1600 131.728c-39.768 0-72-27.585-72-61.615s32.232-61.614 72-61.614M562 58.56c0 28.162 26.863 50.99 60 50.99s60-22.83 60-50.991V.85M137.235 1199.996C62.547 1199.996 2 1148.824 2 1085.691s60.547-114.306 135.235-114.306H261"/><path data-name="Shape" d="M128.98 1121.81c-24.842 0-44.98-16.55-44.98-36.968s20.138-36.969 44.98-36.969H177M266 .85H69.627C31.173.85 0 26.724 0 58.64M1118 2.55h251.741c49.225-.061 89.187 33.8 89.259 75.637m141 314.447V249.587c0-28.162-26.863-50.992-60-50.992s-60 22.83-60 50.992v22.141"/><ellipse data-name="Shape" cx="40" cy="33.994" rx="40" ry="33.994" transform="translate(548 299.999)"/><ellipse data-name="Shape" cx="58" cy="48.867" rx="58" ry="48.867" transform="translate(640 967.136)"/><ellipse data-name="Shape" cx="63" cy="53.541" rx="63" ry="53.541" transform="translate(121 164.872)"/><path data-name="Shape" d="M184.5 334.843c77.6 0 140.5-52.7 140.5-117.705S262.1 99.433 184.5 99.433 44 152.133 44 217.138m1267.21 823.474c-21.346 67.83 24.832 137.3 103.136 155.168s159.1-22.648 180.443-90.478-24.831-137.296-103.135-155.163M328.5 351.84c-31.756 0-57.5 21.878-57.5 48.867s25.744 48.866 57.5 48.866 57.5-21.878 57.5-48.866V351.84M346 65.864c0 35.906 34.026 65.014 76 65.014s76-29.108 76-65.014S463.974.85 422 .85h-76M71.5 736.47c-36.727 0-66.5-25.033-66.5-55.913s29.773-55.913 66.5-55.913 66.5 25.033 66.5 55.913v171m1323.988-112.182c0 28.631 26.872 51.841 60.012 51.841s60-23.21 60-51.841-26.859-51.841-60-51.841h-201M966 118.8c-35.346 0-64 24.011-64 53.626s28.654 53.634 64 53.634 64-24.011 64-53.626V0M914.919 1150.706c0-27.224 25.762-49.292 57.541-49.292s57.54 22.068 57.54 49.292-25.761 49.291-57.541 49.291H881m208.5-721.886c31.559.135 57.03 21.963 56.924 48.785s-25.748 48.5-57.308 48.459S1032 553.553 1032 526.732v-181.69M62.5 483.32c-31.756 0-57.5 21.553-57.5 48.141s25.744 48.141 57.5 48.141 57.5-21.554 57.5-48.141V334.843m568.7 0c0-48.344-45.377-87.535-101.352-87.535S486 286.499 486 334.843s45.377 87.535 101.352 87.535H853m645.643 195.467c55.986 0 101.357-39.191 101.357-87.535s-45.371-87.535-101.357-87.535H1233M1107 149.15c0-45.297 42.739-82.011 95.462-82.011h98.077c52.726 0 95.461 36.714 95.461 82.011h0c0 45.3-42.735 82.011-95.462 82.011h-98.076c-52.723 0-95.462-36.714-95.462-82.011zM266.5 740.225c-32.833.023-59.472-22.578-59.5-50.482V545.947c.028-27.903 26.667-50.504 59.5-50.481h0c32.833-.023 59.472 22.578 59.5 50.481v143.8c-.028 27.9-26.667 50.5-59.5 50.481zM828 676.061v-75.922c.093-21.746 20.911-39.312 46.5-39.234h0c25.589-.078 46.407 17.488 46.5 39.234v151.843c-.093 21.747-20.911 39.313-46.5 39.234h0c-25.589.078-46.407-17.488-46.5-39.234v-18.344"/><path data-name="Shape" d="M914 270.195v6.619c-.06 37.733-36.1 68.279-80.5 68.228h0c-44.4.051-80.439-30.492-80.5-68.228V69.077C753.061 31.35 789.1.799 833.5.85h0c44.4-.051 80.439 30.5 80.5 68.227v2.04M71.75 809.063h-4.811c-34.225.014-61.956 23.6-61.939 52.691h0c-.017 29.086 27.714 52.677 61.939 52.691h143.122c34.225-.014 61.956-23.6 61.939-52.691h0c.017-29.091-27.714-52.677-61.939-52.691h-4.811M751 560.905v196.858c0 58.842 56.636 106.542 126.5 106.542s126.5-47.7 126.5-106.542v-46.511M497 894.049h207.8c79.088 0 143.2 54.791 143.2 122.379s-64.112 122.38-143.2 122.38h-62.512M586 595.749h-49.187c-33.137 0-60-22.83-60-50.991s26.862-50.992 60-50.992h98.373c33.084.044 59.865 22.873 59.814 50.991v4.53c.047 25.62-24.354 46.422-54.5 46.462m449-194.617h56.181c37.729 0 68.319-24.542 68.319-54.815s-30.59-54.816-68.319-54.816h-112.362c-37.732 0-68.319 24.542-68.319 54.816M675 172.521H540.319c-85.228 0-154.319 58.98-154.319 131.728m1063.5 721.392c31.757 0 57.5 21.722 57.5 48.51s-25.743 48.51-57.5 48.51-57.5-21.723-57.5-48.51V758.072m-373 299.149c0-49.752 46.847-90.085 104.635-90.085H1308M747 493.767h98.373c66.068 0 119.627-45.66 119.627-101.983m356 367.987v45.684c0 46.106-44 83.5-98.268 83.494H1146m361-356.939h-84.007c-60.751 0-109.993 42.238-109.993 94.334M218 1199.997v-77.437c0-44.584 40.975-81.936 96-91.684M44.5 277.053v156.374M436 1199.572h379m273.5-563.03V765.72m-154 221.813v52.691M1481 331.377v17.234c-.041 24.346-23.3 44.055-51.943 44.023h0c-28.657.037-51.915-19.673-51.957-44.023v-14.277c-.043-24.158-23.118-43.714-51.543-43.683h0c-28.43-.036-51.513 19.521-51.557 43.683v17.574m-185 740.979c.011-34.255 32.693-62.018 73-62.011h0c40.319 0 73 27.767 73 62.022v45.089c-.012 34.255-32.694 62.016-73 62.011h0c-40.321 0-73-27.768-73-62.023z"/><g data-name="Group 30"><path data-name="Shape" d="M400.762 499.715v54.633c0 66.544 63.4 120.493 141.619 120.493h56.406c47.075.052 85.206 32.495 85.213 72.5h0m0 73.225H504.562c-45.228 0-81.893 31-81.893 69.229s36.665 69.229 81.893 69.229h74.059M377.84 1199.997h-10.7c-31.6 0-57.21-21.768-57.21-48.62s25.614-48.62 57.21-48.62h127.583c46.658-.023 84.46-32.186 84.432-71.839"/></g></g></g></g></svg>