<svg height="560.092" width="686.73" xmlns="http://www.w3.org/2000/svg"><g transform="translate(-322.48 -206.873)"><path d="M884.4 351.6h28.44v28.44H884.4zm0 70.15h28.44v28.44H884.4zm0 70.14h28.44v28.44H884.4zm0 70.15h28.44v28.44H884.4z" fill="#6c63ff" opacity=".1"/><path d="M972.51 743.53l-1.19 14.17 3.99-.8-.6-15.37z" fill="#1d2366"/><path d="M881.48 676.25c-4.81 13.7-3.45 32.19-2.37 41.17.4 3.32.77 5.34.77 5.34s-7.19 16.38-7.79 17-21.16 13.17-21.16 13.17l-14.37 8.39s-14.58-6.39-7.59-8.59a10.611 10.611 0 003.77-2.57c7-6.65 15.79-23.18 15.79-23.18s.6-8.39 2.8-12.38 1.4-45.92 1.4-45.92l.17-68.35v-8.91l27.35.2a61.9 61.9 0 001.18 9 137.571 137.571 0 003.81 15.16c4.82 15.59 2.82 41.7-3.76 60.47z" fill="#ffb0b1"/><path d="M879.88 722.76s-7.19 16.38-7.79 17-21.16 13.17-21.16 13.17l-14.37 8.39s-14.58-6.39-7.59-8.59a10.611 10.611 0 003.77-2.57l.62 4.37 4.79-.2 41-36.89c.36 3.3.73 5.32.73 5.32z" opacity=".1"/><path d="M879.38 718.37l-41.23 37.14-4.79.2-1-7s-8.38 10.78-27 10.18c0 0-11.18 7.39 5.39 7.79s37.73-.6 37.73-.6 14.78-23 27.15-20v17.37h3.8v-17.53a15.789 15.789 0 006.74-10.4 12.74 12.74 0 00-4.41-11.68 7.53 7.53 0 01-2.38-5.47z" fill="#1d2366"/><path d="M976.31 697.61c-2.66 9.5-1.21 14.85.61 17.72v.06a32.752 32.752 0 014.78 11.67l.16.9-18.76 27.35-10.18 4s-16.37-5.59-13.38-7.19c.75-.39 1.92-2.47 3.26-5.34 4-8.65 9.52-24.61 9.52-24.61v-.13c.58-6.59 1.5-13.16 2.52-19.7 1.83-11.77-1.53-40.66-1.53-40.66s-1.2-35.13-3.8-43.12a65.935 65.935 0 01-2.33-12.44c-.54-5-.66-9.12-.66-9.12s10.78-15 30.54 1.2a21.739 21.739 0 014.13 4.48c13.65 19.42 2.66 62.2 2.66 62.2s-2.75 15.56-7.54 32.73z" fill="#ffb0b1"/><path d="M981.89 727.96l-18.76 27.35-10.18 4s-16.37-5.59-13.38-7.19c.75-.39 1.92-2.47 3.26-5.34 6.93-.06 10.52 6.54 10.52 6.54l8.78-1.4s11.58-22.76 14.18-24.15.4-10.39.4-10.39v-2.29c.07.08.13.17.21.25v.06a32.747 32.747 0 014.78 11.67z" opacity=".1"/><path d="M953.95 753.91s-5-9.18-14.58-5.79c0 0-5.39 11-10.78 12.78s-3.59 7.78 8.59 5.59 30.54-4 30.54-4l.8-11.19 12.38-15.77s7.38-6.69-3.6-19.86v2.29s2.2 9-.4 10.39-14.14 24.16-14.14 24.16z" fill="#1d2366"/><path d="M880.28 591.6a61.9 61.9 0 001.18 9c-11.26-1.65-21.71-.83-28.56-.29v-8.91zm102.02 13.57s-16 .78-35.08.94c-.54-5-.66-9.12-.66-9.12s10.78-15 30.54 1.2a21.739 21.739 0 014.13 4.48 24.414 24.414 0 001.07 2.5z" opacity=".1"/><path d="M982.3 603.37s-70.08 3.39-91.44-2.6-42.53-.8-45.72-2.19-.6-23.16 2.2-28.55 18.16-59.9 18.16-59.9l14.78-77.06 15.57-4.29 1.1-.31 27.13-7.48 19.88-5.49s39.53 154.33 36.14 165.71a29.14 29.14 0 00-.58 13.39 33.425 33.425 0 002.78 8.77z" fill="#1d2366"/><path d="M828.76 380.37s-14 15-3.4 23.36 17.57.8 17.57.8z" fill="#c7daf5"/><path d="M828.76 380.37s-14 15-3.4 23.36 17.57.8 17.57.8z" opacity=".1"/><path d="M781.66 392.731l9.58 8.18 78.86 16.57-9.78-9.98z" fill="#e6dfdf"/><path d="M941.87 281.75s-1.64 1.56-4.11 3.86c-3.52 3.29-8.73 8.1-13.35 12.13-6.4 5.57-11.68 9.66-9.79 6.17s1.53-9.57.59-15.26c-.07-.38-.13-.76-.2-1.13a104.8 104.8 0 00-3.09-12.36s10.34-13.36 16.06-18.63c2.13-2 3.62-2.82 3.71-1.43.1 1.87 1.5 6 3.24 10.38.05.14.1.27.16.41 1.16 3 2.47 6.08 3.62 8.74 1.76 4.08 3.16 7.12 3.16 7.12z" fill="#ffb0b1"/><path d="M935.09 265.89a29.68 29.68 0 01-19.88 22.76 104.066 104.066 0 00-3.29-13.49s19.47-25.15 19.77-20.06c.07 1.93 1.59 6.21 3.4 10.79zm-21.82 29.48l2.52-3.55s1.67 10.18 7.81 5.69 6.44 33.79 6.44 33.79l-6.59 98.53-47.62-2.85 1.35-47.61 5.39-24 13.33-34.89 7.93-11.53z" opacity=".1"/><path d="M930.04 331.91l-6 89.09-.63 9.44-26.55-1.59-1-.06-20-1.2 1.35-47.62 5.39-24 13.33-34.89 7.93-11.53 9.44-13.63 2.52-3.54s1.67 10.18 7.81 5.69l.13-.09c6-3.8 6.28 33.93 6.28 33.93z" fill="#1d2366"/><path d="M883.27 347.63s-2.39 5-7.19 4.19-4.79 18-4.79 18-3.19 3-5.39.4-8 6.19-8 6.19l-36.34 1.6s16.17 7.39 13 29.75c0 0 54.9-3.4 56.7-8.59s-7.99-51.54-7.99-51.54z" fill="#fff"/><path d="M883.27 347.63s-2.39 5-7.19 4.19-4.79 18-4.79 18-3.19 3-5.39.4-8 6.19-8 6.19l-36.34 1.6s16.17 7.39 13 29.75c0 0 54.9-3.4 56.7-8.59s-7.99-51.54-7.99-51.54z" opacity=".03"/><path d="M913.42 298.52c-1.31 2-5.06 12.24-8.19 21.18-2.61 7.45-4.79 14-4.79 14s-5.09 33.14-7.69 39.13-1.19 29.35-1.19 29.35l-9.69 57.69s-4.39 29.75-11.17 47.52c-6.69 17.49-14.14 25.69-14.37 25.95 3-4.06 19.35-84 19.35-84l5.4-100.82s.79-9.58 1.59-17.77 17-19.37 17-19.37l15.62-22.21c1.57 2.1.52 5.76-1.87 9.35z" fill="#fff"/><path d="M872.69 428.09s-23-1-34.14-14.38 25.75-5.34 25.75-5.34l9.59 2.2z" fill="#ffb0b1"/><path d="M980.1 581.22a29.14 29.14 0 00-.58 13.39c-25.09 1.78-51.93-5-51.93-5-5 4.6-18.17 11.38-18.17 11.38l-7.18-89c-4.59-12-6.39-74.87-6.39-74.87s.41-3.29 1-8.22a.947.947 0 01.05-.37c1.79-13.77 5.34-39.62 7.08-43.11 2.4-4.8-7.38-17.57-7.38-17.57l4.45-37.95.54-4.58c9.38-4.19 16.57-17.57 16.57-17.57l5.52-9.67c6-3.85 6.31 33.88 6.31 33.88l-6 89.09 19.88-5.49s39.62 154.28 36.23 165.66z" opacity=".1"/><path d="M1005.85 587.37c-27.35 13.58-77.06 1-77.06 1-5 4.6-18.17 11.38-18.17 11.38l-7.19-89c-4.58-12-6.38-74.87-6.38-74.87s5.78-46.91 8.18-51.7c.7-1.4.36-3.48-.47-5.72a72.379 72.379 0 01-4.38-33.49l1.92-16.31.53-4.57c9.39-4.2 16.58-17.58 16.58-17.58l5-8.76 9.2-16.14 4.36-7.64.74.67 5.65 5.12 6 5c7.83 6.6 21.36 18.22 28.34 25.33 6.14 6.26 8.08 30.61 8.64 48.94.37 12.07.15 21.53.15 21.53-6.19 10.19 10 92 10 92 3.77 15.81 8.36 114.81 8.36 114.81z" fill="#fff"/><path d="M953.35 306.31s-18.77 35.73-16.59 49.31 8.38 28.95 5.39 32.54a11.05 11.05 0 01-8.79 4.39c-3 .2-11 5.79-11 6.39s-7.39.6-14 3.4-16.37 4.39-16.37 4.39-19-.6-20.77 1.2-3.59 12.57.2 21.16 8 15 11.18 16.17 23.36-5.59 39.73-7.19 34.14-14.57 34.14-14.57 19.57-7 23-18.77-4.19-76.46-4.19-76.46-5.76-30.15-21.93-21.96z" opacity=".03"/><path d="M950.95 303.31s-18.77 35.74-16.57 49.31 8.38 28.95 5.38 32.55a11 11 0 01-8.78 4.39c-3 .2-11 5.79-11 6.39s-7.39.6-14 3.39-16.37 4.39-16.37 4.39-19-.6-20.76 1.2-3.6 12.58.2 21.16 8 15 11.18 16.17 23.36-5.59 39.73-7.18 34.14-14.58 34.14-14.58 19.56-7 22.95-18.76-4.19-76.47-4.19-76.47-5.74-30.14-21.91-21.96z" opacity=".03"/><path d="M952.76 304.51s-18.77 35.74-16.57 49.31 8.38 28.95 5.39 32.54a11 11 0 01-8.79 4.4c-3 .2-11 5.79-11 6.38s-7.38.6-14 3.4-16.37 4.39-16.37 4.39-19-.6-20.77 1.2-3.59 12.58.2 21.16 8 15 11.18 16.17 23.36-5.59 39.73-7.19 34.14-14.57 34.14-14.57 19.57-7 23-18.77-4.14-76.46-4.14-76.46-5.84-30.1-22-21.96z" fill="#fff"/><path d="M952.35 400.37s-15-3-9.78 2 5.19 9.38 11.58 9.18-1.8-11.18-1.8-11.18zm25.35 107.58s-6.78 4.59 6.19 15.17-6.19-15.17-6.19-15.17zm-12.94 37.73c0 .6-2.4 22 6.58 27.35s-6.58-27.35-6.58-27.35z" opacity=".1"/><path d="M822.18 377.96c-7.24.25-22.88 2.46-14.77 17.59 7.17 13.39 19.22 4.44 26-2.35a25.55 25.55 0 00-11.23-15.24zm11.32 15.12l.3-.31z" fill="#ffb0b1"/><path d="M950.36 285.37c-7.68 5.25-14.12 9.68-15.38 10.6-3.44 2.55-10 17.52-14.23 25.16-3.37 6.15-14.32 7.73-18.45 8.12l.53-4.57c9.39-4.2 16.58-17.58 16.58-17.58l18.56-32.54 6.39 5.81z" opacity=".1"/><path d="M950.36 284.77c-7.68 5.25-14.12 9.68-15.38 10.61-3.44 2.54-10 17.51-14.23 25.15-3.37 6.15-14.32 7.73-18.45 8.12l.53-4.57c9.39-4.2 16.58-17.58 16.58-17.58l18.56-32.54 6.39 5.79s2.4 1.98 6 5.02z" fill="#dce7ff"/><path d="M935.58 259.29a29.66 29.66 0 11-25.214-29.32 29.61 29.61 0 0125.214 29.32z" fill="#ffb0b1"/><path d="M987.34 359.04a26.361 26.361 0 01-9.57-10.28c-1.67-3.3-2.78-7.11-5.63-9.45-2.57-2.1-6-2.61-9.2-3.55-10.52-3.11-19.34-12.71-19.67-23.67-.16-5.16 1.45-10.31.72-15.42a17.079 17.079 0 00-3.34-7.95 27.379 27.379 0 00-2.89-3.11c-1.4-1.32-2.87-2.6-4.15-4a15.53 15.53 0 01-2.1-2.85 13.713 13.713 0 01-1.15-2.65c-2-6.12-.18-13.38-2.38-19.57l-.12-.34c-.83-2.2-2.52-4.4-4.87-4.57s-4.36 1.78-6.6 2.65c-4.69 1.82-9.75-1.28-13.66-4.44s-8.32-6.77-13.29-6.07c-3.29.47-5.89 2.71-8.92 3.87a12.5 12.5 0 01-2.11.61 29.65 29.65 0 0157.17 11.05 29.347 29.347 0 01-.65 6.19c.05.14.1.27.16.41 1.16 3 2.47 6.08 3.62 8.74l5.65 5.12 6 5c7.83 6.6 21.36 18.22 28.34 25.33 6.14 6.28 8.06 30.62 8.64 48.95z" opacity=".1"/><path d="M880.17 229.37c1.43-2.91 2.14-6.17 3.85-8.93 2.51-4 6.89-6.56 11.39-8.11 11.75-4.05 36.58-9.93 44 0 1.46 2 2.67 4.22 4.69 5.6 1.54 1.05 3.4 1.5 5.09 2.29 4.73 2.22 7.75 7.06 9.36 12s2.09 10.24 3.27 15.33c1.51 6.53 4.16 12.72 6.8 18.87 3.11 7.26 6.41 14.79 12.41 19.92 8.19 7 10 16.91 17.6 24.59 9 9.12 8.71 24.17 4.07 36.12-.61 1.57-1.3 3.21-1.06 4.88s1.48 3.19 2.65 4.52l4.92 5.55c-11.64 2.81-24.81-3.27-30.23-13.94-1.67-3.3-2.78-7.1-5.64-9.45-2.56-2.1-6-2.6-9.19-3.54-10.52-3.12-19.34-12.73-19.67-23.69-.16-5.15 1.45-10.3.72-15.4a17 17 0 00-3.35-8c-2.75-3.59-6.9-6-9.14-10-3.79-6.69-.91-15.38-3.64-22.56-.84-2.2-2.52-4.4-4.87-4.57s-4.36 1.78-6.61 2.65c-4.68 1.82-9.74-1.27-13.65-4.44s-8.32-6.77-13.3-6.06c-3.29.46-5.88 2.7-8.91 3.87-2.24.86-6.78 1.63-8.74-.26-4.14-3.81 5.45-13.68 7.18-17.24z" fill="#591d4b"/><path d="M981.76 344.76c-1.68-3.3-2.78-7.1-5.64-9.44-2.56-2.1-6-2.61-9.2-3.55-10.51-3.11-19.33-12.72-19.67-23.68-.16-5.15 1.45-10.31.73-15.41a17.1 17.1 0 00-3.35-7.95c-2.76-3.59-6.91-6-9.14-10-3.79-6.68-.91-15.37-3.65-22.56-.83-2.19-2.52-4.39-4.86-4.57s-4.37 1.79-6.61 2.66c-4.68 1.82-9.75-1.28-13.65-4.44s-8.33-6.77-13.3-6.07c-3.29.47-5.89 2.71-8.91 3.87-2.24.86-6.79 1.64-8.75-.25-4.12-4 5.47-13.85 7.19-17.39 1.43-2.92 2.14-6.17 3.86-8.93.09-.15.19-.3.29-.45a15.88 15.88 0 00-3.29 3.74c-1.71 2.76-2.42 6-3.85 8.93-1.73 3.54-11.32 13.42-7.19 17.39 2 1.9 6.5 1.12 8.74.26 3-1.17 5.62-3.41 8.91-3.87 5-.71 9.4 2.9 13.3 6.06s9 6.26 13.66 4.44c2.24-.87 4.2-2.83 6.6-2.65s4 2.37 4.87 4.57c2.73 7.18-.15 15.87 3.64 22.56 2.24 3.93 6.39 6.39 9.14 10a17 17 0 013.35 8c.73 5.1-.88 10.25-.72 15.4.33 11 9.15 20.57 19.67 23.69 3.17.94 6.63 1.44 9.19 3.54 2.87 2.35 4 6.15 5.64 9.45 5.42 10.67 18.59 16.75 30.23 13.94l-2.32-2.62c-10.09.15-20.3-5.59-24.91-14.67z" opacity=".1"/><path d="M912.82 299.12c-1.31 2-5.06 12.24-8.19 21.18-2.93-1.14-5.59-8.41-5.59-8.41l15.62-22.22c1.6 2.2.55 5.85-1.84 9.45z" opacity=".1"/><path d="M913.42 298.52c-1.31 2-5.06 12.24-8.19 21.18-2.93-1.13-5.59-8.41-5.59-8.41l15.62-22.21c1.6 2.19.55 5.85-1.84 9.44z" fill="#dce7ff"/><path d="M822.6 400.68l-8.66-27.31a2.55 2.55 0 011.66-3.21 2.56 2.56 0 013.2 1.66l8.66 27.28-.86 5.71z" fill="#be8b87"/><path d="M814.76 370.97a2.56 2.56 0 013.21 1.66l8.66 27.28-.65 4.28.63.66.86-5.71-8.71-27.28a2.56 2.56 0 00-3.2-1.66 2.56 2.56 0 00-1.33 1 3.482 3.482 0 01.53-.23z" fill="#fff" opacity=".1"/><path d="M822.6 400.68l4.86-1.54-.71 4.68-.15 1.03-1.42-1.48z" fill="#efc8c4"/><path d="M825.18 403.37a1 1 0 01.31-.26.44.44 0 01.47 0 1.241 1.241 0 01.17.27.86.86 0 00.62.41l-.15 1z" fill="#727a9c"/><path d="M813.89 383.07s17.37-.1 13.28 7.29-10.48 8.28-10.48 8.28z" fill="#ffb0b1"/><path d="M389.082 420.83l-24.774 27.772c20.581 8.73 41.415-3.39 49.955-9.466a123.73 123.73 0 10-25.181-18.306z" fill="#e6e6e6"/><path d="M407.093 310.412c25.559-.266 51.114-.723 76.671-1.07q12.78-.174 25.561-.3c7.342-.076 7.36-11.493 0-11.416-25.559.266-51.114.723-76.671 1.07q-12.78.174-25.561.3c-7.342.076-7.36 11.493 0 11.416zm0 26.637l103.3-1.07 29.378-.3c7.342-.076 7.36-11.492 0-11.416l-103.303 1.066-29.378.3c-7.342.076-7.36 11.492 0 11.416zm0 26.638l103.3-1.07 29.378-.3c7.342-.076 7.36-11.492 0-11.416l-103.303 1.068-29.378.3c-7.342.076-7.36 11.492 0 11.416z" fill="#fff"/><circle cx="331.48" cy="463.62" fill="#e6e6e6" r="9"/><path d="M753.816 425.518a123.5 123.5 0 10-64.143 108.351c8.54 6.076 29.374 18.2 49.955 9.466l-24.774-27.772a123.194 123.194 0 0038.962-90.041z" fill="#6c63ff"/><path d="M567.116 405.14c25.559-.266 51.114-.723 76.671-1.07q12.78-.174 25.561-.3c7.342-.076 7.36-11.493 0-11.416-25.559.266-51.114.723-76.671 1.07q-12.78.174-25.561.3c-7.342.076-7.36 11.493 0 11.416zm0 26.637l103.3-1.07 29.378-.3c7.342-.076 7.36-11.492 0-11.416l-103.3 1.07-29.378.3c-7.342.076-7.36 11.492 0 11.416zm0 26.638l103.3-1.07 29.378-.3c7.342-.076 7.36-11.492 0-11.416l-103.3 1.07-29.378.3c-7.342.076-7.36 11.492 0 11.416z" fill="#fff"/></g></svg>