<svg height="34.53" width="179.993" xmlns="http://www.w3.org/2000/svg"><g fill="#edc384" fill-rule="evenodd"><path d="M70.984 27.01c-6.65 4.91-16.3 7.52-24.6 7.52a44.52 44.52 0 01-30-11.46c-.63-.56-.07-1.33.68-.9a59.67 59.67 0 0053 3.29c1.13-.48 2.07.74 1 1.55z"/><path d="M73.784 23.86c-.86-1.09-5.63-.51-7.77-.26-.65.08-.75-.49-.17-.9 3.81-2.67 10-1.9 10.77-1s-.19 7.16-3.76 10.15c-.54.46-1.07.21-.82-.39.8-2 2.6-6.5 1.75-7.59zm-7.62-20.05v-2.6a.64.64 0 01.66-.66h11.64a.65.65 0 01.68.66v2.22a3.68 3.68 0 01-.88 1.64l-6 8.61a13 13 0 016.64 1.43 1.2 1.2 0 01.62 1v2.77a.62.62 0 01-.86.59 13.4 13.4 0 00-12.31 0c-.4.21-.83-.22-.83-.61v-2.63a3.12 3.12 0 01.44-1.79l7-10h-6.09a.64.64 0 01-.67-.65zm-42.49 16.2h-3.54a.68.68 0 01-.64-.6V1.25a.66.66 0 01.68-.65h3.3a.66.66 0 01.64.61v2.37h.07a4.67 4.67 0 014.66-3.36c2.22 0 3.61 1.07 4.6 3.36a5.24 5.24 0 019-1.37c1.12 1.53.89 3.75.89 5.7v11.47a.67.67 0 01-.68.66h-3.54a.67.67 0 01-.64-.65V9.74a22.606 22.606 0 00-.1-3.4 1.84 1.84 0 00-2.08-1.57 2.34 2.34 0 00-2.12 1.49 11.112 11.112 0 00-.33 3.48v9.64a.67.67 0 01-.68.66h-3.54a.67.67 0 01-.64-.65V9.74c0-2 .33-5-2.19-5s-2.44 2.91-2.44 5v9.64a.67.67 0 01-.69.66zm65.53-16.08c-2.62 0-2.78 3.56-2.78 5.78s0 7 2.74 7 2.88-3.83 2.88-6.16a16.909 16.909 0 00-.53-4.82 2.21 2.21 0 00-2.31-1.76zm0-3.71c5.26 0 8.11 4.51 8.11 10.25 0 5.55-3.14 9.95-8.11 9.95-5.16 0-8-4.51-8-10.14s2.85-10.06 8-10.06zm14.89 19.79h-3.53a.67.67 0 01-.64-.65V1.16a.67.67 0 01.68-.59h3.28a.67.67 0 01.63.51v2.78h.07c1-2.49 2.38-3.67 4.83-3.67a4.63 4.63 0 014.13 2.14c.93 1.45.93 3.9.93 5.66v11.45a.67.67 0 01-.68.57h-3.55a.66.66 0 01-.63-.57V9.56c0-2 .23-4.9-2.22-4.9a2.33 2.33 0 00-2 1.46 8 8 0 00-.56 3.44v9.79a.68.68 0 01-.69.66zm-43.64 0a.74.74 0 01-.84.09 8.45 8.45 0 01-2-2.37 7 7 0 01-5.84 2.58c-3 0-5.31-1.84-5.31-5.52A6 6 0 0150.244 9c1.92-.85 4.61-1 6.66-1.23v-.46a4.509 4.509 0 00-.43-2.57 2.37 2.37 0 00-2-.92 2.68 2.68 0 00-2.84 2.13.77.77 0 01-.62.65l-3.43-.37a.63.63 0 01-.53-.75c.78-4.1 4.45-5.38 7.78-5.42h.26a8 8 0 015.22 1.76c1.72 1.61 1.56 3.76 1.56 6.1v5.52a4.9 4.9 0 001.33 3.29.66.66 0 010 .94c-.72.61-2 1.72-2.72 2.35zm-3.58-8.64a6.889 6.889 0 01-.66 3.76 2.87 2.87 0 01-2.45 1.61c-1.36 0-2.16-1-2.16-2.57 0-3 2.71-3.56 5.27-3.56zm-42.89 8.64a.73.73 0 01-.83.09 8.45 8.45 0 01-2-2.37 7 7 0 01-5.85 2.58c-3 0-5.3-1.84-5.3-5.52A6 6 0 013.784 9c1.92-.85 4.61-1 6.66-1.23v-.46a4.509 4.509 0 00-.43-2.57 2.37 2.37 0 00-2-.92 2.7 2.7 0 00-2.85 2.13.74.74 0 01-.61.65l-3.44-.37a.63.63 0 01-.53-.75c.78-4.1 4.45-5.38 7.79-5.42h.26a8 8 0 015.22 1.76c1.72 1.61 1.55 3.76 1.55 6.1v5.52a4.86 4.86 0 001.34 3.29.66.66 0 010 .94c-.72.61-2 1.72-2.72 2.35zm-3.57-8.64a7 7 0 01-.66 3.76 2.87 2.87 0 01-2.45 1.61c-1.36 0-2.16-1-2.16-2.57 0-3 2.71-3.56 5.27-3.56zm152.5 15.19v-1.33c0-.38.18-.65.58-.62a8.261 8.261 0 002.53 0 2.94 2.94 0 002.08-1.83 31.115 31.115 0 001.21-3.1l-7.33-18.21c-.13-.31-.16-.89.46-.89h2.54a.81.81 0 01.8.62l5.35 14.84 5.1-14.84a.8.8 0 01.8-.62h2.43c.61 0 .58.58.46.89l-7.31 18.83c-.95 2.51-2.21 6.5-5 7.19a7.5 7.5 0 01-4.27-.2.82.82 0 01-.37-.73zm-3.44-7.63a.61.61 0 01-.62.61h-1.82a.71.71 0 01-.71-.61l-.18-1.24a10.563 10.563 0 01-3 1.76 7.45 7.45 0 01-6.69-.32 5.3 5.3 0 01-2.31-4.6 5.66 5.66 0 011.43-3.93 7.28 7.28 0 015.54-2.12 17.422 17.422 0 014.84.64V6.63c0-2.53-1.07-3.62-3.88-3.62a18.739 18.739 0 00-6.07 1 .55.55 0 01-.58-.6v-1.4a.88.88 0 01.6-.77 18.338 18.338 0 016.41-1.24c3.2 0 7 .72 7 5.65v13.27zm-3.49-3.64v-3.75a19 19 0 00-4-.48 4.63 4.63 0 00-3.29 1.06 3.07 3.07 0 00-.77 2.13 2.84 2.84 0 001.16 2.49 4.67 4.67 0 003.76.17 8.231 8.231 0 003.16-1.62zm-23.3-12.23c4 0 5.13 3.17 5.13 6.8 0 2.45-.43 4.63-1.7 5.88a4.57 4.57 0 01-3.6 1.19 8.73 8.73 0 01-4.68-1.77V4.78a8.37 8.37 0 014.85-1.72zm-5.47 24.15h-2.43a.61.61 0 01-.62-.61V1.24a.61.61 0 01.62-.62h1.86a.71.71 0 01.71.62l.19 1.32a9.6 9.6 0 016.14-2.54c6 0 8 4.94 8 10.08 0 5.49-3 9.91-8.11 9.91a8.51 8.51 0 01-5.7-2.17v8.76a.61.61 0 01-.62.61z"/></g></svg>