<svg height="160.301" width="390.414" xmlns="http://www.w3.org/2000/svg"><path d="M71.336 20.667c-4.576 5.415-11.9 9.685-19.218 9.075-.915-7.321 2.669-15.1 6.864-19.9C63.557 4.271 71.564.305 78.047 0c.763 7.626-2.212 15.1-6.711 20.667m6.634 10.524c-10.6-.61-19.675 6.025-24.709 6.025-5.11 0-12.812-5.72-21.2-5.567A31.324 31.324 0 005.446 47.816c-11.439 19.675-2.974 48.807 8.084 64.822 5.415 7.931 11.9 16.625 20.438 16.32 8.084-.305 11.287-5.262 21.048-5.262 9.838 0 12.659 5.262 21.2 5.11 8.846-.153 14.413-7.931 19.828-15.862a69.56 69.56 0 008.846-18.226c-.153-.153-17.083-6.635-17.235-26.158C87.5 52.239 101 44.46 101.611 44 93.985 32.716 82.088 31.5 77.97 31.191m61.238-22.116v118.892h18.455V87.319h25.548c23.336 0 39.732-16.015 39.732-39.2S206.852 9.075 183.821 9.075zm18.455 15.557h21.277c16.015 0 25.166 8.541 25.166 23.565s-9.151 23.641-25.243 23.641h-21.2zm98.987 104.249c11.592 0 22.345-5.872 27.225-15.176h.381v14.261h17.084V68.788c0-17.159-13.727-28.217-34.851-28.217-19.6 0-34.089 11.21-34.623 26.615h16.625c1.373-7.321 8.16-12.126 17.464-12.126 11.287 0 17.616 5.262 17.616 14.947v6.558l-23.031 1.374c-21.429 1.3-33.021 10.067-33.021 25.319 0 15.405 11.973 25.624 29.132 25.624zm4.957-14.108c-9.838 0-16.091-4.728-16.091-11.973 0-7.474 6.025-11.821 17.54-12.507L283.571 89v6.711c0 11.131-9.456 19.062-21.963 19.062zm62.535 45.527c18 0 26.463-6.864 33.86-27.683l32.411-90.9h-18.76l-21.734 70.237h-.381L327.8 41.715h-19.291l31.267 86.557-1.678 5.262c-2.822 8.923-7.4 12.354-15.557 12.354-1.449 0-4.271-.153-5.415-.305v14.261a50.831 50.831 0 007.016.458z" fill="#edc384"/></svg>