<svg height="38.664" width="119.28" xmlns="http://www.w3.org/2000/svg"><path d="M51.71 38.02h-9.74L48.05.64h9.74zM33.77.64L24.5 26.35l-1.09-5.54L20.13 4S19.74.64 15.52.64H.18L0 1.27a36.23 36.23 0 0110.18 4.27l8.45 32.48h10.14L44.26.64zm76.57 37.38h8.94L111.48.64h-7.82a4.47 4.47 0 00-4.49 2.81L84.65 38.02h10.12l2-5.55h12.38zM99.63 24.8l5.11-14 2.88 14zM85.41 9.63l1.39-8A28.12 28.12 0 0078.05 0c-4.83 0-16.3 2.11-16.3 12.37 0 9.66 13.46 9.78 13.46 14.85s-12.08 4.17-16.06 1l-1.45 8.33a27.32 27.32 0 0011 2.11c6.64 0 16.66-3.44 16.66-12.79-.01-9.72-13.59-10.63-13.59-14.85s9.48-3.69 13.64-1.39z" fill="#edc384"/><path d="M23.41 20.81L20.13 4S19.74.64 15.52.64H.18L0 1.27a37.75 37.75 0 0114.44 7.25 29.19 29.19 0 018.97 12.29z" fill="#f7a823"/></svg>