<svg xmlns="http://www.w3.org/2000/svg" width="564" height="364"><path d="M132.66 285.373l-34.1-93.688-20.32-11.712 37.15-13.521 91.483 57.557-23.06-63.357-20.319-11.709 33.025-12.02-1.854 22.83 41.025 112.714-124.253-76.12 32.075 88.125 20.32 11.71-33.025 12.02zm134.97-49.125l-34.1-93.688-20.319-11.712 94.048-34.23 13.065 35.895-32.2-17.545-31.768 11.563 18.161 49.898 22.794-8.297 10.208-17.746 12.804 35.178-20.367-6.815-21.717 7.904 15.678 43.076 20.32 11.71-48.46 17.638zM404.036 186.6L367.454 86.09l-17.77 6.468-11.883 38.272-14.567-40.024 106.611-38.804 14.568 40.025-33.884-21.615-17.59 6.402 37.563 103.202 20.32 11.71-48.46 17.638z" fill="#f5b629" opacity=".629"/><text transform="translate(0 246)" fill="#fff" font-size="166" font-family="OpenSans-Bold, Open Sans" font-weight="700" letter-spacing="-.01em" opacity=".993"><tspan x="0" y="0">canvas</tspan></text></svg>