<svg xmlns="http://www.w3.org/2000/svg" width="335.94" height="214.973"><g data-name="Group 1" opacity=".12" fill="#FF6049"><path data-name="Rectangle 1" d="M0 0h8.674v8.674H0z"/><path data-name="Rectangle 2" d="M0 15.863h8.674v8.674H0z"/><path data-name="Rectangle 3" d="M0 31.739h8.674v8.674H0z"/><path data-name="Rectangle 4" d="M0 47.602h8.674v8.674H0z"/><path data-name="Rectangle 5" d="M0 63.479h8.674v8.674H0z"/><path data-name="Rectangle 6" d="M0 79.342h8.674v8.674H0z"/><path data-name="Rectangle 7" d="M0 95.218h8.674v8.674H0z"/><path data-name="Rectangle 8" d="M0 111.081h8.674v8.674H0z"/><path data-name="Rectangle 9" d="M0 126.958h8.674v8.674H0z"/><path data-name="Rectangle 10" d="M0 142.821h8.674v8.674H0z"/><path data-name="Rectangle 11" d="M0 158.684h8.674v8.674H0z"/><path data-name="Rectangle 12" d="M0 174.56h8.674v8.674H0z"/><path data-name="Rectangle 13" d="M0 190.423h8.674v8.674H0z"/><path data-name="Rectangle 14" d="M14.883 0h8.674v8.674h-8.674z"/><path data-name="Rectangle 15" d="M14.883 15.863h8.674v8.674h-8.674z"/><path data-name="Rectangle 16" d="M14.883 31.739h8.674v8.674h-8.674z"/><path data-name="Rectangle 17" d="M14.883 47.602h8.674v8.674h-8.674z"/><path data-name="Rectangle 18" d="M14.883 63.479h8.674v8.674h-8.674z"/><path data-name="Rectangle 19" d="M14.883 79.342h8.674v8.674h-8.674z"/><path data-name="Rectangle 20" d="M14.883 95.218h8.674v8.674h-8.674z"/><path data-name="Rectangle 21" d="M14.883 111.081h8.674v8.674h-8.674z"/><path data-name="Rectangle 22" d="M14.883 126.958h8.674v8.674h-8.674z"/><path data-name="Rectangle 23" d="M14.883 142.821h8.674v8.674h-8.674z"/><path data-name="Rectangle 24" d="M14.883 158.684h8.674v8.674h-8.674z"/><path data-name="Rectangle 25" d="M14.883 174.56h8.674v8.674h-8.674z"/><path data-name="Rectangle 26" d="M29.765 0h8.674v8.674h-8.674z"/><path data-name="Rectangle 27" d="M29.765 15.863h8.674v8.674h-8.674z"/><path data-name="Rectangle 28" d="M29.765 31.739h8.674v8.674h-8.674z"/><path data-name="Rectangle 29" d="M29.765 47.602h8.674v8.674h-8.674z"/><path data-name="Rectangle 30" d="M29.765 63.479h8.674v8.674h-8.674z"/><path data-name="Rectangle 31" d="M29.765 79.342h8.674v8.674h-8.674z"/><path data-name="Rectangle 32" d="M29.765 95.218h8.674v8.674h-8.674z"/><path data-name="Rectangle 33" d="M29.765 111.081h8.674v8.674h-8.674z"/><path data-name="Rectangle 34" d="M29.765 126.958h8.674v8.674h-8.674z"/><path data-name="Rectangle 35" d="M29.765 142.821h8.674v8.674h-8.674z"/><path data-name="Rectangle 36" d="M29.765 158.684h8.674v8.674h-8.674z"/><path data-name="Rectangle 37" d="M44.634 0h8.674v8.674h-8.674z"/><path data-name="Rectangle 38" d="M44.634 15.863h8.674v8.674h-8.674z"/><path data-name="Rectangle 39" d="M44.634 31.739h8.674v8.674h-8.674z"/><path data-name="Rectangle 40" d="M44.634 47.602h8.674v8.674h-8.674z"/><path data-name="Rectangle 41" d="M44.634 63.479h8.674v8.674h-8.674z"/><path data-name="Rectangle 42" d="M44.634 79.342h8.674v8.674h-8.674z"/><path data-name="Rectangle 43" d="M44.634 95.218h8.674v8.674h-8.674z"/><path data-name="Rectangle 44" d="M44.634 111.081h8.674v8.674h-8.674z"/><path data-name="Rectangle 45" d="M44.634 126.958h8.674v8.674h-8.674z"/><path data-name="Rectangle 46" d="M44.634 142.821h8.674v8.674h-8.674z"/><path data-name="Rectangle 47" d="M44.634 158.684h8.674v8.674h-8.674z"/><path data-name="Rectangle 48" d="M44.634 174.56h8.674v8.674h-8.674z"/><path data-name="Rectangle 49" d="M59.517 0h8.674v8.674h-8.674z"/><path data-name="Rectangle 50" d="M59.517 15.863h8.674v8.674h-8.674z"/><path data-name="Rectangle 51" d="M59.517 31.739h8.674v8.674h-8.674z"/><path data-name="Rectangle 52" d="M59.517 47.602h8.674v8.674h-8.674z"/><path data-name="Rectangle 53" d="M59.517 63.479h8.674v8.674h-8.674z"/><path data-name="Rectangle 54" d="M59.517 79.342h8.674v8.674h-8.674z"/><path data-name="Rectangle 55" d="M59.517 95.218h8.674v8.674h-8.674z"/><path data-name="Rectangle 56" d="M59.517 111.081h8.674v8.674h-8.674z"/><path data-name="Rectangle 57" d="M59.517 126.958h8.674v8.674h-8.674z"/><path data-name="Rectangle 58" d="M59.517 142.821h8.674v8.674h-8.674z"/><path data-name="Rectangle 59" d="M59.517 158.684h8.674v8.674h-8.674z"/><path data-name="Rectangle 60" d="M59.517 174.56h8.674v8.674h-8.674z"/><path data-name="Rectangle 61" d="M59.517 190.423h8.674v8.674h-8.674z"/><path data-name="Rectangle 62" d="M74.385 0h8.674v8.674h-8.674z"/><path data-name="Rectangle 63" d="M74.385 15.863h8.674v8.674h-8.674z"/><path data-name="Rectangle 64" d="M74.385 31.739h8.674v8.674h-8.674z"/><path data-name="Rectangle 65" d="M74.385 47.602h8.674v8.674h-8.674z"/><path data-name="Rectangle 66" d="M74.385 63.479h8.674v8.674h-8.674z"/><path data-name="Rectangle 67" d="M74.385 79.342h8.674v8.674h-8.674z"/><path data-name="Rectangle 68" d="M74.385 95.218h8.674v8.674h-8.674z"/><path data-name="Rectangle 69" d="M74.385 111.081h8.674v8.674h-8.674z"/><path data-name="Rectangle 70" d="M74.385 126.958h8.674v8.674h-8.674z"/><path data-name="Rectangle 71" d="M74.385 142.821h8.674v8.674h-8.674z"/><path data-name="Rectangle 72" d="M74.385 158.684h8.674v8.674h-8.674z"/><path data-name="Rectangle 73" d="M74.385 174.56h8.674v8.674h-8.674z"/><path data-name="Rectangle 74" d="M74.385 190.423h8.674v8.674h-8.674z"/><path data-name="Rectangle 75" d="M74.385 206.3h8.674v8.674h-8.674z"/><path data-name="Rectangle 76" d="M89.268 0h8.674v8.674h-8.674z"/><path data-name="Rectangle 77" d="M89.268 15.863h8.674v8.674h-8.674z"/><path data-name="Rectangle 78" d="M89.268 31.739h8.674v8.674h-8.674z"/><path data-name="Rectangle 79" d="M89.268 47.602h8.674v8.674h-8.674z"/><path data-name="Rectangle 80" d="M89.268 63.479h8.674v8.674h-8.674z"/><path data-name="Rectangle 81" d="M89.268 79.342h8.674v8.674h-8.674z"/><path data-name="Rectangle 82" d="M89.268 95.218h8.674v8.674h-8.674z"/><path data-name="Rectangle 83" d="M89.268 111.081h8.674v8.674h-8.674z"/><path data-name="Rectangle 84" d="M89.268 126.958h8.674v8.674h-8.674z"/><path data-name="Rectangle 85" d="M89.268 142.821h8.674v8.674h-8.674z"/><path data-name="Rectangle 86" d="M89.268 158.684h8.674v8.674h-8.674z"/><path data-name="Rectangle 87" d="M89.268 174.56h8.674v8.674h-8.674z"/><path data-name="Rectangle 88" d="M89.268 190.423h8.674v8.674h-8.674z"/><path data-name="Rectangle 89" d="M104.137 0h8.674v8.674h-8.674z"/><path data-name="Rectangle 90" d="M104.137 15.863h8.674v8.674h-8.674z"/><path data-name="Rectangle 91" d="M104.137 31.739h8.674v8.674h-8.674z"/><path data-name="Rectangle 92" d="M104.137 47.602h8.674v8.674h-8.674z"/><path data-name="Rectangle 93" d="M104.137 63.479h8.674v8.674h-8.674z"/><path data-name="Rectangle 94" d="M104.137 79.342h8.674v8.674h-8.674z"/><path data-name="Rectangle 95" d="M104.137 95.218h8.674v8.674h-8.674z"/><path data-name="Rectangle 96" d="M104.137 111.081h8.674v8.674h-8.674z"/><path data-name="Rectangle 97" d="M104.137 126.958h8.674v8.674h-8.674z"/><path data-name="Rectangle 98" d="M104.137 142.821h8.674v8.674h-8.674z"/><path data-name="Rectangle 99" d="M104.137 158.684h8.674v8.674h-8.674z"/><path data-name="Rectangle 100" d="M104.137 174.56h8.674v8.674h-8.674z"/><path data-name="Rectangle 101" d="M119.02 0h8.674v8.674h-8.674z"/><path data-name="Rectangle 102" d="M119.02 15.863h8.674v8.674h-8.674z"/><path data-name="Rectangle 103" d="M119.02 31.739h8.674v8.674h-8.674z"/><path data-name="Rectangle 104" d="M119.02 47.602h8.674v8.674h-8.674z"/><path data-name="Rectangle 105" d="M119.02 63.479h8.674v8.674h-8.674z"/><path data-name="Rectangle 106" d="M119.02 79.342h8.674v8.674h-8.674z"/><path data-name="Rectangle 107" d="M119.02 95.218h8.674v8.674h-8.674z"/><path data-name="Rectangle 108" d="M119.02 111.081h8.674v8.674h-8.674z"/><path data-name="Rectangle 109" d="M119.02 126.958h8.674v8.674h-8.674z"/><path data-name="Rectangle 110" d="M119.02 142.821h8.674v8.674h-8.674z"/><path data-name="Rectangle 111" d="M119.02 158.684h8.674v8.674h-8.674z"/><path data-name="Rectangle 112" d="M133.888 0h8.674v8.674h-8.674z"/><path data-name="Rectangle 113" d="M133.888 15.863h8.674v8.674h-8.674z"/><path data-name="Rectangle 114" d="M133.888 31.739h8.674v8.674h-8.674z"/><path data-name="Rectangle 115" d="M133.888 47.602h8.674v8.674h-8.674z"/><path data-name="Rectangle 116" d="M133.888 63.479h8.674v8.674h-8.674z"/><path data-name="Rectangle 117" d="M133.888 79.342h8.674v8.674h-8.674z"/><path data-name="Rectangle 118" d="M133.888 95.218h8.674v8.674h-8.674z"/><path data-name="Rectangle 119" d="M133.888 111.081h8.674v8.674h-8.674z"/><path data-name="Rectangle 120" d="M133.888 126.958h8.674v8.674h-8.674z"/><path data-name="Rectangle 121" d="M133.888 142.821h8.674v8.674h-8.674z"/><path data-name="Rectangle 122" d="M148.757 0h8.674v8.674h-8.674z"/><path data-name="Rectangle 123" d="M148.757 15.863h8.674v8.674h-8.674z"/><path data-name="Rectangle 124" d="M148.757 31.739h8.674v8.674h-8.674z"/><path data-name="Rectangle 125" d="M148.757 47.602h8.674v8.674h-8.674z"/><path data-name="Rectangle 126" d="M148.757 63.479h8.674v8.674h-8.674z"/><path data-name="Rectangle 127" d="M148.757 79.342h8.674v8.674h-8.674z"/><path data-name="Rectangle 128" d="M148.757 95.218h8.674v8.674h-8.674z"/><path data-name="Rectangle 129" d="M148.757 111.081h8.674v8.674h-8.674z"/><path data-name="Rectangle 130" d="M148.757 126.958h8.674v8.674h-8.674z"/><path data-name="Rectangle 131" d="M148.757 142.821h8.674v8.674h-8.674z"/><path data-name="Rectangle 132" d="M163.64 0h8.674v8.674h-8.674z"/><path data-name="Rectangle 133" d="M163.64 15.863h8.674v8.674h-8.674z"/><path data-name="Rectangle 134" d="M163.64 31.739h8.674v8.674h-8.674z"/><path data-name="Rectangle 135" d="M163.64 47.602h8.674v8.674h-8.674z"/><path data-name="Rectangle 136" d="M163.64 63.479h8.674v8.674h-8.674z"/><path data-name="Rectangle 137" d="M163.64 79.342h8.674v8.674h-8.674z"/><path data-name="Rectangle 138" d="M163.64 95.218h8.674v8.674h-8.674z"/><path data-name="Rectangle 139" d="M163.64 111.081h8.674v8.674h-8.674z"/><path data-name="Rectangle 140" d="M163.64 126.958h8.674v8.674h-8.674z"/><path data-name="Rectangle 141" d="M178.509 0h8.674v8.674h-8.674z"/><path data-name="Rectangle 142" d="M178.509 15.863h8.674v8.674h-8.674z"/><path data-name="Rectangle 143" d="M178.509 31.739h8.674v8.674h-8.674z"/><path data-name="Rectangle 144" d="M178.509 47.602h8.674v8.674h-8.674z"/><path data-name="Rectangle 145" d="M178.509 63.479h8.674v8.674h-8.674z"/><path data-name="Rectangle 146" d="M178.509 79.342h8.674v8.674h-8.674z"/><path data-name="Rectangle 147" d="M178.509 95.218h8.674v8.674h-8.674z"/><path data-name="Rectangle 148" d="M178.509 111.081h8.674v8.674h-8.674z"/><path data-name="Rectangle 149" d="M178.509 126.958h8.674v8.674h-8.674z"/><path data-name="Rectangle 150" d="M178.509 142.821h8.674v8.674h-8.674z"/><path data-name="Rectangle 151" d="M193.391 0h8.674v8.674h-8.674z"/><path data-name="Rectangle 152" d="M193.391 15.863h8.674v8.674h-8.674z"/><path data-name="Rectangle 153" d="M193.391 31.739h8.674v8.674h-8.674z"/><path data-name="Rectangle 154" d="M193.391 47.602h8.674v8.674h-8.674z"/><path data-name="Rectangle 155" d="M193.391 63.479h8.674v8.674h-8.674z"/><path data-name="Rectangle 156" d="M193.391 79.342h8.674v8.674h-8.674z"/><path data-name="Rectangle 157" d="M193.391 95.218h8.674v8.674h-8.674z"/><path data-name="Rectangle 158" d="M193.391 111.081h8.674v8.674h-8.674z"/><path data-name="Rectangle 159" d="M208.26 0h8.674v8.674h-8.674z"/><path data-name="Rectangle 160" d="M208.26 15.863h8.674v8.674h-8.674z"/><path data-name="Rectangle 161" d="M208.26 31.739h8.674v8.674h-8.674z"/><path data-name="Rectangle 162" d="M208.26 47.602h8.674v8.674h-8.674z"/><path data-name="Rectangle 163" d="M208.26 63.479h8.674v8.674h-8.674z"/><path data-name="Rectangle 164" d="M208.26 79.342h8.674v8.674h-8.674z"/><path data-name="Rectangle 165" d="M223.143 0h8.674v8.674h-8.674z"/><path data-name="Rectangle 166" d="M223.143 15.863h8.674v8.674h-8.674z"/><path data-name="Rectangle 167" d="M223.143 31.739h8.674v8.674h-8.674z"/><path data-name="Rectangle 168" d="M223.143 47.602h8.674v8.674h-8.674z"/><path data-name="Rectangle 169" d="M238.012 0h8.674v8.674h-8.674z"/><path data-name="Rectangle 170" d="M238.012 15.863h8.674v8.674h-8.674z"/><path data-name="Rectangle 171" d="M238.012 31.739h8.674v8.674h-8.674z"/><path data-name="Rectangle 172" d="M252.894 0h8.674v8.674h-8.674z"/><path data-name="Rectangle 173" d="M252.894 15.863h8.674v8.674h-8.674z"/><path data-name="Rectangle 174" d="M252.894 31.739h8.674v8.674h-8.674z"/><path data-name="Rectangle 175" d="M252.894 47.602h8.674v8.674h-8.674z"/><path data-name="Rectangle 176" d="M267.763 0h8.674v8.674h-8.674z"/><path data-name="Rectangle 177" d="M267.763 15.863h8.674v8.674h-8.674z"/><path data-name="Rectangle 178" d="M267.763 31.739h8.674v8.674h-8.674z"/><path data-name="Rectangle 179" d="M267.763 47.602h8.674v8.674h-8.674z"/><path data-name="Rectangle 180" d="M267.763 63.479h8.674v8.674h-8.674z"/><path data-name="Rectangle 181" d="M282.646 0h8.674v8.674h-8.674z"/><path data-name="Rectangle 182" d="M282.646 15.863h8.674v8.674h-8.674z"/><path data-name="Rectangle 183" d="M282.646 31.739h8.674v8.674h-8.674z"/><path data-name="Rectangle 184" d="M282.646 47.602h8.674v8.674h-8.674z"/><path data-name="Rectangle 185" d="M297.515 0h8.674v8.674h-8.674z"/><path data-name="Rectangle 186" d="M297.515 15.863h8.674v8.674h-8.674z"/><path data-name="Rectangle 187" d="M297.515 31.739h8.674v8.674h-8.674z"/><path data-name="Rectangle 188" d="M312.397 0h8.674v8.674h-8.674z"/><path data-name="Rectangle 189" d="M312.397 15.863h8.674v8.674h-8.674z"/><path data-name="Rectangle 190" d="M327.266 0h8.674v8.674h-8.674z"/></g></svg>