<svg xmlns="http://www.w3.org/2000/svg" xmlns:xlink="http://www.w3.org/1999/xlink" width="937.227" height="870.955"><defs><linearGradient id="a" x1="1.01" y1="1.001" x2="-.043" y2="-.239" gradientUnits="objectBoundingBox"><stop offset="0" stop-color="#4166f8"/><stop offset="1" stop-color="#8ba2fc"/></linearGradient><linearGradient id="d" x1="0" y1=".5" x2="1" y2=".5" xlink:href="#a"/><linearGradient id="e" x1="32.246" y1=".5" x2="33.247" y2=".5" gradientUnits="objectBoundingBox"><stop offset="0" stop-color="#f84180"/><stop offset="1" stop-color="#8ba2fc"/></linearGradient><linearGradient id="f" x1="-16.363" y1="-.289" x2="-18.13" y2="1.231" xlink:href="#a"/><linearGradient id="g" x1="-24.886" y1=".5" x2="-23.884" y2=".5" xlink:href="#a"/><linearGradient id="h" x1="-30.874" y1="-.305" x2="-26.63" y2="1.472" xlink:href="#a"/><radialGradient id="b" cx=".487" cy=".434" r=".443" gradientTransform="matrix(1.266 0 0 1 -.133 0)" gradientUnits="objectBoundingBox"><stop offset=".2" stop-color="#231f20"/><stop offset="1" stop-color="#fff" stop-opacity=".949"/></radialGradient><radialGradient id="c" cx=".5" cy=".128" r="7.216" gradientTransform="matrix(.049 0 0 .04 1.342 73.271)" gradientUnits="objectBoundingBox"><stop offset="0" stop-color="#231f20"/><stop offset="1" stop-color="#e2e0e0" stop-opacity=".949"/></radialGradient><radialGradient id="i" cx=".5" cy=".5" r=".5" gradientUnits="objectBoundingBox"><stop offset="0" stop-color="#230000"/><stop offset=".73" stop-color="#93432a"/><stop offset="1" stop-color="#230000"/></radialGradient><radialGradient id="j" cx=".5" cy=".5" r=".5" gradientUnits="objectBoundingBox"><stop offset=".15" stop-color="#fff"/><stop offset=".28" stop-color="#c2c2c2"/><stop offset=".43" stop-color="#888"/><stop offset=".56" stop-color="#575757"/><stop offset=".69" stop-color="#313131"/><stop offset=".81" stop-color="#161616"/><stop offset=".92" stop-color="#060606"/><stop offset="1"/></radialGradient></defs><g transform="translate(-52.472 -18)" style="isolation:isolate"><path d="M760.356 608.129a255.09 255.09 0 0148.125-38.1 241.287 241.287 0 0127.046-14.456 204.254 204.254 0 0128.812-10.414c4.9-1.435 9.924-2.44 14.927-3.486a118.126 118.126 0 0115.194-2.05 144.54 144.54 0 0130.552.328l3.793.41c1.271.164 2.522.431 3.773.636 2.5.451 5.024.861 7.525 1.374 4.921 1.312 9.924 2.317 14.7 4.1a171.478 171.478 0 0127.968 12.057 171.043 171.043 0 00-28.153-11.483c-4.8-1.661-9.8-2.563-14.722-3.773-2.481-.451-5-.8-7.5-1.21-1.251-.185-2.5-.431-3.752-.574l-3.773-.328a143.06 143.06 0 00-30.265.246c-5.044.431-10.006 1.415-14.968 2.276a117.251 117.251 0 00-14.661 3.732 201.718 201.718 0 00-28.238 10.827 238.2 238.2 0 00-26.389 14.763 251.411 251.411 0 00-46.464 38.323 2.365 2.365 0 01-3.445-3.24z" fill="#f0e0b0"/><path d="M802.985 572.963a87.042 87.042 0 0117.245-2.235 63.233 63.233 0 0117.2 1.661 35.823 35.823 0 0115.337 7.73 30.757 30.757 0 018.817 14.353 30.185 30.185 0 00-9.576-13.492 34.038 34.038 0 00-15.091-6.315 60.264 60.264 0 00-16.4-.43 83.354 83.354 0 00-16.117 3.219 2.362 2.362 0 11-1.394-4.513z" fill="#f0e0b0"/><path d="M852.545 580.673a19.274 19.274 0 012.563 11.36c-.533 6.726-19.623 56.88-3.834 64.959s47.427-37.463 1.271-76.319z" fill="#f0e0b0"/><path d="M843.502 553.647s.492 9.7 30.409 2.809 68.178-5.926 90.467 2.953 28.379 7.074 23.99-2.214-61.945-51.057-105.148-35.186-44.926 27.23-39.718 31.638z" fill="#f1d15a"/><path d="M891.648 458.712s44.68-13.185 51.1-36.56 12.569-29.322 12.569-29.322-30.942-3.076-48.207 13.861-15.461 49.806-15.461 49.806 7.443-23.109 27.21-36.908c.001-.001-7.691 13.82-27.211 39.123zM241.751 617.889a213.676 213.676 0 00-22.552-46.22 202.208 202.208 0 00-15.194-20.71 171.15 171.15 0 00-17.983-18.311c-3.2-2.871-6.6-5.434-10.006-8.038a92.9 92.9 0 00-10.745-7.013 120.983 120.983 0 00-23.191-10.847l-3.014-1.066c-1-.328-2.05-.574-3.076-.882-2.051-.554-4.1-1.169-6.151-1.681a127.149 127.149 0 00-12.59-2.235 143.647 143.647 0 00-25.487-1.046 143.3 143.3 0 0125.426 1.517c4.224.472 8.325 1.6 12.487 2.481 2.051.554 4.1 1.21 6.151 1.8 1 .308 2.05.595 3.035.923l2.973 1.128a119.83 119.83 0 0122.76 11.154c3.65 2.153 7.033 4.7 10.478 7.136a87.545 87.545 0 019.719 8.2 168.929 168.929 0 0117.388 18.454 199.491 199.491 0 0114.579 20.71 210.6 210.6 0 0121.2 45.787v.1a2.05 2.05 0 103.773-1.189z" fill="#f0e0b0"/><path d="M222.312 575.834a72.907 72.907 0 00-12.3-7.935 52.965 52.965 0 00-13.595-4.983 30 30 0 00-14.353.267 25.8 25.8 0 00-11.872 7.669 25.284 25.284 0 0112.118-6.726 28.5 28.5 0 0113.677.7 50.505 50.505 0 0112.61 5.639 69.818 69.818 0 0111.011 8.2 2.051 2.051 0 002.686-2.891z" fill="#f0e0b0"/><path d="M182.082 563.695a16.157 16.157 0 00-6.152 7.67c-2.05 5.27-5.782 50.073-20.648 50.462s-22.165-45.501 26.8-58.132z" fill="#f0e0b0"/><path d="M198.691 546.613s-3.9 7.136-23.991-8.879-49.355-29.178-69.408-30.532-23.991-4.942-17.306-10.355 65.287-16.134 92.271 11.466 23.971 36.826 18.434 38.3z" fill="#f1d15a"/><path d="M170.46 412.698s-27.358-20.015-26.025-37.605-1.415-23.15-1.415-23.15 21.961 5.5 29.609 21.345-1.64 37.934-1.64 37.934.574-17.655-9.555-32.028a264.777 264.777 0 009.022 33.5z" fill="#f0e0b0"/><path d="M1148.01 577.514c-18.926 55.711-45.561 107.793-82.019 152.719-48.473 59.689-109.864 104.574-182.123 125.325a14.358 14.358 0 01-2.953.492 14.716 14.716 0 01-3.014-.513l-1.456-.431c-238.859-69.039-309.929-352.21-302.629-581.8.225-7.361.615-14.722.615-22.084v-20.34a7.347 7.347 0 010-.943v-.779a2.517 2.517 0 000-.369 5.343 5.343 0 01.246-1.62 3.247 3.247 0 01.2-.882 18.454 18.454 0 015.8-9.6c.451-.369.882-.738 1.353-1.066a14.8 14.8 0 011.435-.923c.513-.287 1-.533 1.538-.779a16.71 16.71 0 016.787-1.435h52.759c.369 0 1.312 0 2.789-.1h2.276l1.374-.1c88.806-8.2 168.733-62.293 226.557-131.23l3.219-3.814 2.563 3.055c.841 1 1.7 2.05 2.563 3.014 36.909 42.424 81.178 78.082 131.353 101.211 49.7 22.924 99 28.173 152.473 28.173a17.983 17.983 0 0117.491 18.454v20.5c4.519 106.137-4.007 222.275-39.197 325.865z" transform="translate(-313.714 -42.751)" opacity=".35" fill="url(#b)" style="mix-blend-mode:multiply;isolation:isolate"/><ellipse cx="412.989" cy="20.27" rx="412.989" ry="20.27" transform="translate(116 848.416)" opacity=".274" fill="url(#c)" style="mix-blend-mode:multiply;isolation:isolate"/><path d="M1148 572.031c-18.926 53-45.561 102.524-82.019 145.276-48.453 56.778-109.864 99.53-182.123 119.194a15.067 15.067 0 01-2.953.472 15.4 15.4 0 01-3.014-.492l-1.456-.41c-236.46-65-308.514-329.675-302.793-546.881 0-2.174.144-4.326.2-6.5.226-6.746.595-13.492.615-20.238v-20.116a3.161 3.161 0 010-.451 17.514 17.514 0 01.554-3.916 4.161 4.161 0 01.349-1.189c.123-.39.349-.984.554-1.456a9.28 9.28 0 01.492-1c.184-.328.431-.8.656-1.169a5.928 5.928 0 01.39-.595 17.877 17.877 0 011.087-1.456c.328-.39.677-.759 1.046-1.128a8.164 8.164 0 01.615-.574 7.477 7.477 0 01.615-.554c.451-.349.882-.7 1.353-1a17.366 17.366 0 019.76-2.994h57.844l1.353-.1h.759l4.244-.41.943-.1 2.05-.226 1.046-.144 2.215-.287c81.547-10.539 154.995-57.6 209.825-117.533 1.825-2.05 3.67-4.1 5.5-6.151.656-.738 1.312-1.5 2.05-2.235l1.23-1.394 2.563 2.912c.841.964 1.7 1.927 2.563 2.871 36.908 40.353 81.2 74.268 131.374 96.27 49.027 21.53 97.664 26.656 150.3 26.8h2.153a17.511 17.511 0 0117.49 17.491v19.767c4.283 100.662-4.247 211.121-39.43 309.646z" transform="translate(-313.701 -22.771)" fill="url(#a)"/><path d="M853.98 202.136c-33.874 194.61-212.531 354.137-416.246 354.137a411.571 411.571 0 01-142.282-25.18c-25.672-80.768-37.4-167.688-35.617-264.511q.205-13.226.82-26.656v-20.571a17.521 17.521 0 01.554-3.916 4.16 4.16 0 01.349-1.189c.123-.39.349-.984.554-1.456a9.281 9.281 0 01.492-1c.185-.328.431-.8.656-1.169a5.953 5.953 0 01.39-.595 17.831 17.831 0 011.087-1.456c.328-.39.677-.759 1.046-1.128a8.222 8.222 0 01.615-.574 7.52 7.52 0 01.615-.554 12.763 12.763 0 011.353-1 17.367 17.367 0 019.76-2.994h57.844l1.353-.1h.759a38.755 38.755 0 004.245-.41l.943-.1 2.05-.226 1.046-.144 2.215-.287c37.093-5.106 126.1-26.656 209.825-117.533 1.825-2.05 3.67-4.1 5.5-6.151.677-.738 1.333-1.476 2.05-2.235l1.23-1.394 2.563 2.912c.841.964 1.7 1.927 2.563 2.871 36.908 40.353 81.2 74.268 131.374 96.27 49.021 21.007 97.659 26.134 150.294 26.339z" fill="#a4b7fc" opacity=".3" style="mix-blend-mode:screen;isolation:isolate"/><circle cx="166.416" cy="166.416" r="166.416" transform="translate(400.765 259.323)" fill="#f7f7f7"/><circle cx="156.738" cy="156.738" r="156.738" transform="translate(410.443 269.001)" fill="url(#d)"/><path d="M663.04 404.989h-65.125l-10 20.648V329.86a20.741 20.741 0 00-41.481 0v75.129h-75.133a20.741 20.741 0 000 41.481h65.841l9.658-22.186-.349 22.186v75.129a20.74 20.74 0 1041.481 0V446.47h75.129a20.741 20.741 0 000-41.481z" fill="#f7f7f7"/><path d="M767.102 644.506c0-.164-9.637-26.246-21.858-28.707-1.435-.308-3.875-2.768-6.151-5.5l3.609-1.743s-3.24-1.087-7.095-2.5c-1.62-2.05-2.748-3.629-2.748-3.629s-5.331-2.6-5.29.431a18.019 18.019 0 01-4.327-2.4 11.606 11.606 0 00-5.29-3.117 28.152 28.152 0 00-1.148-5.5c2.235 1.763 5.126 2.05 8.51-2.051 8.694-10.4 25.487-30.326 14.21-41.317s-7.218-13-20.3-24.278a46.665 46.665 0 01-9.473-12.3c-2.358-3.773-4.306-5.946-8.817-4.1a36.908 36.908 0 00-8.981 5.8c-18.639 15.03-29.137 20.5-28.358 10.416s-11.3-3.773-9.473 10.97c.636 5.024 4.306 10.252 8.879 15.009a85.092 85.092 0 007.279 6.664 125.522 125.522 0 0010.642 7.812 31.711 31.711 0 00-1.271 3.342c-2.481 3.1-6.151 8.2-3.629 9.473a5.19 5.19 0 001.62.513c-.656 6.151-.554 21.755 17.552 18.065v1.825a12.813 12.813 0 00-4.45 2.891 4.884 4.884 0 01-.738.574 11.482 11.482 0 00-4.8.328s-.656 1.046-1.8 2.768c-5.557 2.235-12.118 4.409-12.118 4.409l5.5 2.686c-6.89.164-26.369 1-30.757 5.167a6.145 6.145 0 00-1 1.415l-25 7.156.1.82c-.123-.164-.2-.328-.328-.492l-21.161-7.033a201.264 201.264 0 01-5.331-16.691c.923-2.871 2.276-7.095 3.916-12.3.984-3.2 2.05-6.726 3.26-10.539 2.789-9.1 5.967-19.643 9.022-30.306a16.513 16.513 0 00.677-4.634c1.62-5.413 1.62-14.722.308-25.549a199.243 199.243 0 00-4.778-25.221v-.1s-4.675-30.962-15.994-46.607a21.263 21.263 0 00-9.76-8.2 20.726 20.726 0 00-2.788-.718 39.143 39.143 0 00-19.828-5.065 19.753 19.753 0 00-2.153-.943 98.639 98.639 0 01-6.152-18.946c3.178-1.8 6.151-5.434 7.669-12.446 3.629-17.183 5.167-26-5.8-37.3a1.743 1.743 0 00.758-.7 3.046 3.046 0 00.185-.369c4.634.431 10.99 5.413 10.99 5.413l6.151-8.92s-5.331-8.2-5.926-8.2c-9.514 0-14 2.973-16.117 5.6h-.513a2.645 2.645 0 00-1.6 2.194c-13.513-7.525-32.808 2.768-36.15 13.574-2.973 9.781-2.173 17.921 2.051 19.254l.861.287c-.123 1.107-.266 2.256-.39 3.424a85.309 85.309 0 00-4.286 10.519 4.858 4.858 0 00-.328 2.871 4.347 4.347 0 003.055 1.927c-.246 2.891-.431 5.7-.554 8.2v2.05a.265.265 0 010 .123v5.762a6.83 6.83 0 00.144 1.763.449.449 0 000 .164 7.131 7.131 0 00.554 2.05 3.629 3.629 0 002.05 1.558c3.445 1.6 9.412-.431 12.3-1.394 2.05-.677 3.424-1.271 3.506-1.312s.123 1.189.369 2.973a63.703 63.703 0 00-4.1 2.666c-7.607-1.292-16.117 5.905-21.407 12.077a46.491 46.491 0 00-3.9 5.208c-5.413 8.653-16.916 37.708-16.916 37.708s1.62.964 4.1 2.42a263.009 263.009 0 00-12.672 36.027 50.914 50.914 0 00-1.046 5.5 34.572 34.572 0 00-11.749 6.972 111.247 111.247 0 00-7.279 6.48c-3.137 2.994-6.274 6.151-9.227 9.391-7.915 8.53-14.353 16.506-15.6 18.024v-.164s-5.167 3.035-7.136 1.948-9.863-5.372-10.437-2.05 4.1 5.885 4.1 5.885-7.71 2.05-10.724 12.3 11.38 5.823 16.957 1.62c4.1-3.158 9.227-7.259 11.5-9.125 2.768-1.6 19.459-11.3 38.528-23.088l6.91-4.306c-.451 2.707-.9 5.413-1.333 8.1-3.363 21.161-5.577 41.707-4.1 52.841-.636-1.374-1.456-3.1-2.338-5.331-3.568-9.125-13.779-1.435-13.779-1.435s-1.066-10.252-5.208-9.207-.861 12.733-.861 12.733l-32.068 14.354-.287.595v-.923l-26.041-4.306a10.355 10.355 0 00-2.051-5.618c-2.666-3.076-10.539-2.83-17.593-1.886a218.177 218.177 0 00-3.424-25.3l3.465.41v-4.285c3.117 2.276 6.746 5.741 10.5 8.1a21.979 21.979 0 002.6 1.456c6.274 2.912 9.822-10.047 10.068-11.011s7.156 1.394 7.915-1.784c.943-3.978-13.472-5.639-14.025-5.741a7.525 7.525 0 005.5-5.721c.2-3.527-5.926-1.169-11.3.882a16.219 16.219 0 01-11.052-.451h-.225v-.738l-8-2.686c-1.353-5.885-2.317-9.719-2.317-9.719a31.805 31.805 0 00-6.418-12.3c-4.675-5.331-12.3-9.576-24.606-5.782a58.111 58.111 0 00-14.046 6.746l-5.472-12.499-.7-1.6c2.891-6.151 5.434-11.749 4.655-15.912-1.784-9.637-8.469-25.262-15.666-37.913a29.612 29.612 0 002.42-7.259c6.766-34.386-2.6-31.126 0-46.013.1-.492.2-.984.287-1.456a53.609 53.609 0 011.21-4.839s9.842-17.367 6.972-29.978-11.688-22.781-30.347-23.006a33.4 33.4 0 00-16.4 3.67l.246 2.461c.246 2.625.513 5.229.8 7.833q1.23 11.708 2.83 23.252t3.445 22.9l1.287 7.553q2.051 11.319 4.306 22.432c.615 2.973 1.251 5.905 1.907 8.838s1.271 5.741 1.948 8.591a.739.739 0 000 .205l.308 1.333.246 1 1.5 6.254q2.215 8.981 4.614 17.86c.636 2.338 1.292 4.634 1.948 6.951s1.374 4.778 2.051 7.156q2.05 7.136 4.347 14.21 2.83 8.92 5.864 17.757c19.623 56.511 45.274 104.082 77.754 143.841-1.148-9.842-1.538-19.931-2.85-34.55l1.558-.267v-.304a35.489 35.489 0 006.3-2.05 9.044 9.044 0 002.666-4 205.437 205.437 0 0030.306-1.374s30.429-17.367 41.686-20.5a75.077 75.077 0 009.186-2.686c3.957-2.3 5.372-3.588 5.413-5.27a37.211 37.211 0 008.817 2.194l.287.143c-13.048 27.843-37.362 82.919-35.624 102.809.882 10.068 7.5 25.631 15.563 41.338a342.4 342.4 0 0036.724 21.017l-21.694-63.565s11.3-16.26 26.369-39.431l15.891-23.744 13.677 92.558 6.008 51.118q11.339 3.978 23.109 7.2l-.759-64.057a509.666 509.666 0 016.151-68.383c3.26-18.741 7.669-27.8 10.54-36.478 11.2-1.23 22.924-3.527 25.816-7.73 9.453 3.67 17.983 7.4 17.983 7.4a195.552 195.552 0 0023.765-1.292l21.53 2.214c0 8.366.1 15.85.1 15.85s3.916 23.724.984 38.815-4.655 17.8-3.3 17.8h2.953l-2.048 50.584c0 1.251-.144 2.481-.226 3.65a348.8 348.8 0 0039.308-28.707 378.548 378.548 0 0044.721-44.475 62.261 62.261 0 01-.759-7.074l8.981-2.932 7.054-2.317a6.151 6.151 0 003.547-1.333c2.563-2.871 3.629-8.674 3.547-15.276a63.565 63.565 0 00-5.434-25.118zm-238.9-210.953v.677l-.246.144-.533.267c.328-.392.553-.802.779-1.089zm221.943 236.808a12.933 12.933 0 01.164-1.558l.39 1.353z" fill="#231f20" opacity=".2"/><path d="M358.34 600.194a23.861 23.861 0 01-2.584-1.312c-5.577-3.219-10.97-8.694-14.558-9.391-4.1-.8-.943-11.729 4.409-10.826a17.511 17.511 0 0010.95.41c5.311-1.845 11.38-3.978 11.2-.8-.123 2.153-2.891 4.593-5.454 5.147.554 0 14.8 1.579 13.882 5.188-.738 2.85-7.833 1.6-7.833 1.6-.272.941-3.778 12.608-10.012 9.984z" fill="#f5b297"/><path d="M358.341 600.194a23.861 23.861 0 01-2.584-1.312 8.387 8.387 0 01-.635-7.976c2.235-5.393 11.544-1.374 13.205-.615-.246.86-3.753 12.528-9.986 9.903z" fill="#e09c85"/><path d="M279.172 533.266l13.861 28.71 52.349 15.994v17.45l-63.565-6.828s-22.33-27.829-2.645-55.326z" fill="#fff"/><path d="M277.245 441.877s9.74-15.625 6.91-27-11.565-20.5-30.039-20.71-32.069 10.252-28.83 31.27-30.04 46.479-28.707 69.014 71.664 29.24 79.169-5.475-4.983-26.799 1.497-47.099z" fill="#232750"/><path d="M288.563 699.109s-7.3 59.259-7.3 73.591-4.634 71.6-4.634 71.6-12.59 14.722-14.7 0 1.353-56.429 0-75.17-13.432-74.881-13.432-74.881zm-40.067 3.978s-2.953 52.9-5.905 60.468-29.793 68.937-29.793 68.937-11.4 11.811-13.513 3.055 18.454-64.836 18.454-74.391-5.475-65.246-5.475-65.246z" fill="#f5b297"/><path d="M582.382 291.259c2.809-.964 23.785 3.547 26.9 3.937 8.756 1.087 29.1 36.293 32.4 52.513 1.886 9.186-15.953 26.308-10.252 38.1 4.429 8.981 15.276 22.207 14.7 38.528-.779 22.248-17.573 42.1-.656 63.155 21.345 26.431 13.39 39.184-50.175 33.4s-66.845 0-51.446-39.246c32.992-84.152-.594-176.936 38.529-190.387z" transform="translate(-352.749 181.928)" fill="url(#e)"/><path d="M260.615 459.942s.451 10.58 1.353 18.454c.267 2.256 3.24 10.252-3.65 8.325s-17.655-11.175-17.655-11.175l-.677-22.74z" fill="#f5b297"/><path d="M242.284 455.184c1.148 1.7 2.255 3.465 3.383 5.27 3.158 3.4 6.151 7.033 9.145 10.519 2.276 2.563 4.716 4.921 7.218 7.259-.738-8.2-1.435-18.29-1.435-18.29l-20.628-7.034v.943a2.892 2.892 0 012.317 1.333z" fill="#231f20" opacity=".6"/><path d="M278.884 426.047s-3.527 44.926-15.83 43.244c-12.918-1.763-24.852-12.3-26.882-19.685s-1.271-6.849-1.271-6.849-4.409-.923-4.265-8.366 5.311-2.05 5.311-2.05 16.855-20.177 27.825-18.454 15.112 12.16 15.112 12.16z" fill="#f5b297"/><path d="M235.332 433.839l-.718 6.951a19.884 19.884 0 01-1.825-5.926c-.142-2.46 2.543-1.025 2.543-1.025z" fill="#e2a07f"/><path d="M276.834 429.246c0-4.511-4-9.6-4.47-10.252 3.137 4.285 2.317 11.38 2.051 12.754-4.1 3.691-10.252 6.541-17.573-.472-14.538-13.964-20.5 5.311-20.5 5.311s-3.137-18.454 9.637-23.765 25.467-1.415 33.177 13a24.594 24.594 0 01-2.317 3.424z" fill="#232750"/><path d="M243.865 495.599s-1.128 30.511 10.99 44.372 18.454 13.308 11.093 20.095-16.547 10.437-9.473 16.609 25.856 45.5 25.856 45.5l-38.959-30.121s-13.965-87.658.493-96.455z" fill="#231f20" opacity=".2"/><path d="M288.972 644.751a23.88 23.88 0 01-2.583-1.312c-5.577-3.219-10.97-8.694-14.558-9.391-4.1-.8-.943-11.729 4.409-10.826a17.512 17.512 0 0010.95.41c5.311-1.846 11.38-3.978 11.2-.8-.123 2.153-2.891 4.593-5.454 5.147a77.74 77.74 0 016.151 6.787c-.396.942-3.902 12.609-10.115 9.985z" fill="#f5b297"/><path d="M229.633 473.188s10.662-2.174 13.7 18.065 0 77.241 0 77.241l38.959 53.7-8.981 14.8s-49.457-31.208-56.347-56.819c-4.863-17.912-18.97-93.29 12.669-106.987z" fill="#fff"/><path d="M275.091 504.929s11.749 20.2 10.786 28.338-7.5 18.68-7.5 18.311 5.352-13.205 3.875-20.976-7.161-25.673-7.161-25.673z" fill="#fc98ba"/><path d="M280.792 575.588s15.03 25.815 8.489 43.06c0-.041-5.331-9.125-8.489-43.06z" fill="#a4b7fc"/><path d="M214.52 607.001s-5.167 35.74 9.945 44.536 36.047 18.864 36.047 18.864-39.882-3.158-60.12 14.579-14.353-6.151-1.6-24.483 2.503-45.171 15.728-53.496z" fill="#231f20" opacity=".1"/><path d="M262.051 872.148a15.562 15.562 0 01-3.814-11.073 38.671 38.671 0 014.921-12.713l12.3-.328s4.1.636 3.527 7.648c0 0 25.959-.841 30 6.151 4.942 8.53-7.464 9.207-7.464 9.207s-26.717 6.234-39.47 1.108z" fill="#28264a"/><path d="M277.757 861.711s22.043-5.823 25.3.82-25.3-.82-25.3-.82z" fill="#fff" opacity=".1"/><path d="M276.793 851.93s-1.825 2.235-7.033 2.235a14.189 14.189 0 01-6.972-2.235l-1.025-9.8h16.014z" fill="#fff"/><path d="M185.608 852.443a15.562 15.562 0 011.8-11.565 38.676 38.676 0 0110.253-8.94l11.093 5.5s3.383 2.5-.451 8.407c0 0 23.334 11.421 23.642 19.459.39 9.842-10.888 4.655-10.888 4.655s-26.59-7.038-35.449-17.516z" fill="#28264a"/><path d="M204.371 850.556s22.207 5.167 21.981 12.549-21.981-12.549-21.981-12.549z" fill="#fff" opacity=".1"/><path d="M208.082 841.453s-2.666 1.128-7.259-1.312a14.211 14.211 0 01-5.106-5.249l3.67-9.145 14.148 7.484z" fill="#fff"/><path d="M528.673 451.822s26.471-1.333 33.5 21.468-6.905 152.74-13.36 154.888-82.819 7.177-100.6-7.587c6.582-34.756 36.662-158.461 51.405-167.154a32.438 32.438 0 0129.055-1.62z" fill="#4166f8"/><path d="M489.345 820.66a12.8 12.8 0 00-1.21-9.555 31.823 31.823 0 00-8.2-7.607l-9.268 4.245s-2.85 2.05.164 6.931c0 0-19.479 8.817-19.931 15.419-.554 8.079 8.858 4.1 8.858 4.1s22.019-5.126 29.587-13.533z" fill="#28264a"/><path d="M470.358 808.358a8.2 8.2 0 006.008 8.386s-17.1 3.609-20.874 8.817-.533 8.325 10.252 4.819 23.847-8.961 20.5-16.4-6.705-9.8-6.705-9.8z" fill="#fff" opacity=".1"/><path d="M473.966 818.671s-18.454 3.711-18.454 9.781 18.454-9.781 18.454-9.781z" fill="#fff" opacity=".1"/><path d="M451.821 738.33s-11.421-4.962-13.205 5.475 32.808 66.845 32.808 66.845 7.341 7.238 9.7-2.194c-.022.004-19.174-58.516-29.303-70.126z" fill="#f5b297"/><path d="M500.336 623.611s-16.9-25.774-37.831-14.353c0 0-45.5 83.085-43.06 107.465 2.42 24.831 47.366 86.735 47.366 86.735s3.137 2.83 8.53 0a7.935 7.935 0 004.306-8.2l-30-79.579s16.711-21.858 36.539-50.257c16.569-23.711 15.257-22.251 14.15-41.811z" fill="#28264a"/><path d="M485.634 622.708l-35.945 92.968 60.776-82.658z" fill="#231f20" opacity=".6"/><path d="M447.331 542.514c11.913 2.891 19.377 11.79 8.345 18.167-25.467 14.7-51.262 28.255-51.262 28.255l-3.977-9.309s34.961-40.046 46.894-37.113z" fill="#f5b297"/><path d="M502.202 476.161c-.308 29.445-36.15 86.96-48.453 82.757-7.771-2.666-12.3-7.792-8.612-21.284 6.151-22.268 23.17-54.686 31.639-69.2 5.126-8.841 25.792-25.798 25.426 7.727z" fill="#f5b297"/><path d="M667.9 331.2s6.151 3.281 13.349 6.828c8.591 4.1 18.782 8.755 22.227 8.55 0 0 25.938-39.779 15.625-57.618a13.779 13.779 0 00-8.51-7.156c-10.088-2.419-22.124 9.863-25.959 15.44C679.28 305.093 667.9 331.2 667.9 331.2z" transform="translate(-214.356 171.806)" fill="url(#f)"/><path d="M466.892 509.829c8.591 4.1 18.782 8.755 22.227 8.55 0 0 25.938-39.779 15.625-57.618a13.78 13.78 0 00-8.51-7.156c-10.252 5.6-18.557 19.377-21.3 26.144-2.444 6.11-5.561 18.864-8.042 30.08z" fill="#231f20" opacity=".6"/><path d="M400.559 579.217s-5.126 2.727-7.074 1.743-9.76-4.839-10.252-1.825 4.1 5.29 4.1 5.29a16.137 16.137 0 00-10.621 10.97c-2.994 9.186 11.257 5.249 16.793 1.456s12.61-9.1 12.61-9.1z" fill="#f5b297"/><path d="M536.653 863.494a12.794 12.794 0 00.8-9.6 31.82 31.82 0 00-6.5-9.145l-9.945 2.235s-3.2 1.353-1.271 6.808c0 0-20.874 4.593-22.7 10.95-2.276 7.894 7.812 5.844 7.812 5.844s22.717-.428 31.804-7.092z" fill="#28264a"/><path d="M520.615 847.522a8.2 8.2 0 004.1 9.453s-17.47 0-22.248 4.285-2.255 8.038 8.981 6.828 25.18-3.834 23.56-11.77-4.511-10.97-4.511-10.97z" fill="#fff" opacity=".1"/><path d="M522.009 858.286s-18.762-.185-20.013 5.762 20.013-5.762 20.013-5.762z" fill="#fff" opacity=".1"/><path d="M529.452 774.648s-8.858-8.755-14.353.349 6.439 74.166 6.439 74.166a9.616 9.616 0 009.535.144s3.547-60.224-1.621-74.659z" fill="#f5b297"/><path d="M552.418 623.61s-48.079-26.226-69.019-14.722l21.653 133.281 12.938 99.9s-1.353 2.05 7.3 2.666c7.238.431 9.227-3.1 9.227-3.1l-1.378-104.572a419.65 419.65 0 016.151-61.514c5.418-28.912 14.215-32.378 13.128-51.939z" fill="#28264a"/><path d="M552.5 467.487l-8.2-9.883s-28.707-16.24-51.262-.451-18.454 37.934-18.454 37.934 4.327 41.584-4.1 51.61c-13.184 15.481-25.9 53.968-12.795 69.716 12.693 15.338 69.142 27.476 86.017 1.23s.39-74.268.39-74.268z" fill="#fff"/><path d="M527.053 466.79s-12.59 64.733-19.684 84.89 8.981 65.246 6.028 73.3-12.528 8.2-12.528 8.2 32.069 18.967 42.65 4.1-16.466-170.49-16.466-170.49z" fill="#231f20" opacity=".2"/><path d="M530.088 452.047s-27.23 115.852-2.768 191.781c0 0 53.845-.656 48.145-11.647-32.644-62.908-13.984-134.655-13.984-134.655s8.776-39.082-31.393-45.479zm-27.62-2.584a31.987 31.987 0 00-8.653 18.27c-6.787 67.522-40.292 106.912-24.339 157.23 0 0-16.3.308-24.257-2.973-6.746-21.694 16.937-113.76 16.937-113.76s-3.547-36.396 40.312-58.767z" fill="#4166f8"/><path d="M528.611 455.307s-9.391 17.8-18.454 17-7.935-12.9-7.935-12.9z" fill="#231f20" opacity=".6"/><path d="M484.608 414.339s-7.361 13.431-6.151 15.255a5.187 5.187 0 004.1 1.845z" fill="#ec9480"/><path d="M481.471 449.443c2.912 4.655 17.347-.923 17.614-1.025s1.845 16.711 6.459 17.778c16.117 3.732 23.068-10.867 23.068-10.867s-9.986-19.541-8.366-26-8.817-30.757-8.817-30.757l-26.656 5s-3.3 21.468-4.1 35.145c-.125 5.374-.022 9.475.798 10.726z" fill="#ffb598"/><path d="M516.432 386.186s.882-8.612 17.819-8.612c.595 0 5.885 7.443 5.885 7.443l-6.151 8.038s-10.97-7.833-14.5-3.711-3.053-3.158-3.053-3.158z" fill="#28264a"/><path d="M516.083 385.55s0-2.645 1.907-2.932 6.91 3.076 5 5.885-6.907-2.953-6.907-2.953z" fill="#fff"/><path d="M480.733 445.547a6.694 6.694 0 00.185 1.907c.82 6.438 10.744 3.342 14.681 2.05a41.642 41.642 0 003.506-1.189s9.945-3.814 8.017-20.628c0 0-5.229 13.984-10.6 16.055s-3.424-1.948-9.719-5.085c-2.051-1.046-4.409-1.517-5.967 0a60.823 60.823 0 00-.1 6.89z" fill="#ec9480"/><path d="M505.954 409.499s-4.552 16.1 1.025 18.147c0 0 .246-7.3 3.732-6.644 3.916.738 5.577 5.188-.8 13.964 0 0 14.353 4.1 18.065-12.3s5.29-24.38-7.935-35.535-36.088-1.025-39.656 9.7c-2.932 8.817-2.05 16.137 2.051 17.326 6.174 1.801 9.123 5.328 23.518-4.658z" fill="#28264a"/><path d="M480.733 445.543c6.151.472 5.987-3.568 5.987-3.568a6.151 6.151 0 00-5.987-1.435v1.782a33.476 33.476 0 000 3.221z" fill="#ffb598"/><path d="M509.112 429.553c2.235-.369 4.573-3.609 3.445-5.864a2.256 2.256 0 00-3.383-.759z" fill="#ec9480"/><circle cx="3.711" cy="3.711" r="3.711" transform="rotate(-89.58 465.516 -28.906)" fill="#ec9480" opacity=".39"/><path d="M482.599 536.855s-3.322 25.877-9.1 34.673-5.208 31.721 2.051 34.12 15.583-6.562 11.79-18.557-3.055-22.166-2.4-36.539-2.341-13.697-2.341-13.697z" fill="#231f20" opacity=".1"/><path d="M532.631 484.383s-7.73 29.322 0 38.467 12.651 8.079 12.651 8.079l3.137 30.388-2.4 39.738s-13.266 10.068-9.8 13.923 12.61 13.205 12.61 13.205l18.782-62.6-18.453-69.02z" fill="#231f20" opacity=".2"/><path d="M563.08 549.096c9.986-5.516 20.689-4.1 17.142 7.2-8.2 26.082-17.367 51.59-17.367 51.59l-8.633-3.855s-1.128-49.419 8.858-54.935z" fill="#f5b297"/><path d="M558.983 469.168c18.331 20.5 29.9 82.306 18.823 87.145-6.992 3.055-13.328 2.379-19.274-9.166-9.822-19.069-18.454-52.02-21.838-67.3-2.034-9.264 1.452-33.87 22.289-10.679z" fill="#f5b297"/><path d="M716.532 344.895s6.151-1.6 13.431-3.732c8.53-2.522 18.454-5.823 20.5-8.2 0 0-7.238-43.552-25.508-49.211a12.815 12.815 0 00-10.252.451c-8.427 4.675-8.961 20.669-8.079 26.9 1.255 8.714 9.908 33.792 9.908 33.792z" transform="translate(-173.997 173.28)" fill="url(#g)"/><path d="M726.5 341.163c8.53-2.522 18.454-5.823 20.5-8.2 0 0-7.238-43.552-25.508-49.211a12.815 12.815 0 00-10.252.451c-3.547 10.252-.533 24.954 1.845 31.311a230.832 230.832 0 0013.41 25.651z" transform="translate(-170.534 173.28)" fill="url(#h)"/><path d="M554.222 603.679s-1.8 5.085-3.752 5.639-9.74 2.83-8.2 5.249 6.151 1.066 6.151 1.066a14.99 14.99 0 00-.369 14.189c3.732 8.2 11.031-3.486 12.405-9.555s2.912-14.169 2.912-14.169z" fill="#f5b297"/><path d="M335.171 566.833s-8.2-32.213-45.931-9.494-6.5 51.262-8.55 69.819-6.151 34.038 15.4 26.307 48.576-13.677 49.437-29.957-10.356-56.675-10.356-56.675z" fill="#232750"/><path d="M389.774 647.745s-46.566 5.393-52.02-5.331c-4.983-9.678 7.32-20.853 7.32-20.853l45.459 7.074z" fill="#ffaa8c"/><path d="M390.799 628.88l31.741-12.938s-3.26-10.6.841-11.462 5.167 8.2 5.167 8.2 10.109-6.931 13.636 1.292 6.295 8.489-1.927 12.836a83.384 83.384 0 01-9.207 2.317c-11.155 2.872-41.28 18.455-41.28 18.455a17.9 17.9 0 011.025-18.7z" fill="#f9b29b"/><path d="M332.915 620.083s24.749-5.926 29.937-.533c5.8 6.049-1.886 31.249-5.7 33.013s-16.732 3.793-16.732 3.793z" fill="#fff"/><path d="M349.359 638.886l-5.557-6.151-.984 23.068 8.038-1.292s2.522-11.196-1.497-15.625z" fill="#1a3884" opacity=".2"/><path d="M261.414 694.68c-8.2-8.325.185-39.164 10.068-43.45 8.96-3.875 14.046 15.215 14.046 15.215l-15.645 30.429s-5.844.47-8.469-2.194z" fill="#ffaa8c"/><path d="M303.757 655.433c-2.44 5.762-13.595 15.686-19.849 15.276s-19.644-8.94-20.894-15.276c-1.784-9.125 18.782-28.953 32.131-31.475s11.851 23.848 8.612 31.475z" fill="#fff"/><path d="M289.711 749.611l-5.5 57.126s17.86 11.257 21.8-.9 12.59-48.76 12.59-48.76zm37.913 7.997l18.454 57.6s17.347 2.05 16.711-10.786-5.413-50.031-5.413-50.031z" fill="#f9b29b"/><path d="M348.58 698.801c-8.776-3.957-46.73-4.716-58.11 4.388-12.057 9.658-21.427 87.883-16.158 90.467s50.729-1.6 54.912 0c11.831 4.511 37.749 1.128 39.287-3.855 1.62-5.331-11.011-86.981-19.931-91z" fill="#26374a"/><path d="M375.827 863.229c-8.714-6.151-21.3-14.927-21.3-14.927a4.408 4.408 0 00-5.7.759 24.109 24.109 0 00-4.1 9.022c-.656 2.461 1.189 4.367 3.486 5.762 11.257 6.787 17.942 10.129 28.092 10.724 2.422.122 7.113-6.03-.478-11.34z" fill="#492a3e"/><path d="M343.331 802.923c1.23 19.746 5.372 37.893 5.393 51.61.246 0-.882 3.568 5.659 3.691s7.546-2.809 7.546-2.809a211.431 211.431 0 01.882-52.062c-7.63-.614-11.791-.43-19.48-.43z" fill="#f5b297"/><path d="M281.509 864.623c-3.588-10.068-8.879-24.442-8.879-24.442a4.409 4.409 0 00-5.106-2.645 24.112 24.112 0 00-8.592 5c-2.05 1.64-1.517 4.265-.431 6.726 5.331 12.016 8.879 18.6 16.855 24.893 1.847 1.499 9.208-.818 6.153-9.532z" fill="#492a3e"/><path d="M287.517 799.807c-10.252 16.9-15.481 30.88-23.314 42.137.164.185-2.748 2.419 2.522 6.274s7.792 2.05 7.792 2.05a211.426 211.426 0 0130.572-42.141c-5.905-4.937-11.277-3.891-17.572-8.32z" fill="#f5b297"/><path d="M355.326 702.799c-11.647 13.082-52.431.431-69.839 6.028 14.353-38.1-7.382-65.615 5.536-81.465 5.188-6.357 18.29-9 31.844-7.976s22.084 1.025 24.073 15.625c4.941 35.719 3.075 47.283 8.386 67.788z" fill="#fff"/><path d="M331.315 620.637s-.7 19.726-14.886 19.028-16.609-14.476-16.609-14.476 17.531-12.036 31.495-4.552z" fill="#6469d4"/><path d="M327.112 611.369v16.711s-10.99 13.779-18.311 6.151a19.849 19.849 0 01-5.311-16.9z" fill="#f9b29b"/><path d="M303.183 620.042s5.5 8.345 12.1 7.218a28.522 28.522 0 0011.79-5.331v-5.434z" fill="#ffaa8c"/><path d="M285.118 596.461s9.74 24.339 24.893 25.385 25.241-7.648 24.811-16.978-2.051-20.5 0-23.621-3.834-8.53-3.834-8.53-10.888-15.05-23.109-8.038a58.3 58.3 0 00-19.337 19.726s-7.771-3.322-7.73 2.522.697 7.258 4.306 9.534zm-17.634 84.603c9.965-1.7 29.506 10.539 29.506 10.539s7.628-9.248 11.052-7.136-1.251 5.6-1.251 5.6 12.3-2.256 9.453 5.762-6.336 16.568-13.021 10.7c-8.694-7.628-41.789-10.642-41.789-10.642s-8.631-12.301 6.05-14.823z" fill="#f9b29b"/><path d="M305.253 570.892c-.431-.82-4.388 20.771-10.252 24.462s-6.992-14.353-6.992-14.353l3.281-24.052s40.538 3.445 43.839 14.517-1.353 14.7-1.353 14.7a27.128 27.128 0 01-28.523-15.274z" fill="#232750"/><path d="M288.542 584.385s23.437-38.631 44.372-9.576c0 0-2.05-18.065-22.186-15.05s-22.186 24.626-22.186 24.626z" fill="#fff"/><path d="M279.457 775.776c-.246-2.05 10.929-56.983 14.169-62.765s.964 24.175.964 24.175 3.752-17.491 6.3-19.541-1.743 34.858-1.538 36.909 2.891-31.639 9.022-27.189 6.004 55.816-3.917 57.416-8.714-15.768-8.714-15.768-12.839 34.28-16.286 6.763z" fill="#fff" opacity=".3" style="mix-blend-mode:soft-light;isolation:isolate"/><path d="M635.564 856.523c8.407-7.443 20.5-17.983 20.5-17.983a4.634 4.634 0 016.049.164 25.344 25.344 0 015.372 8.981c.964 2.5-.759 4.7-3.014 6.4-11.011 8.345-17.634 12.59-28.153 14.353-2.435.408-8.033-5.476-.754-11.915zm81.548-22.206c-6.705-9-16.4-21.8-16.4-21.8a4.634 4.634 0 00-5.946-1.066 25.341 25.341 0 00-7.259 7.669c-1.456 2.256-.205 4.757 1.64 6.89 9.063 10.416 14.681 15.932 24.606 19.787 2.457.925 9.162-3.668 3.359-11.48z" fill="#492a3e"/><path d="M691.604 817.031a8.8 8.8 0 0012.795-.964 34.571 34.571 0 0010.252-8.345l.246-.308c3.609-4.552 9.719-15.05 4.532-20.71a14.928 14.928 0 00-6.787-3.281c-9.576-2.358-18.967 24.893-20.915 32.418a4.26 4.26 0 00-.123 1.19z" fill="#ffaa8c"/><path d="M691.604 817.031a8.8 8.8 0 0012.795-.964 34.571 34.571 0 0010.252-8.345l.246-.308c3.609-4.552 9.719-15.05 4.532-20.71a11.913 11.913 0 00-6.787-3.281c-9.678-1.845-18.988 25.139-20.915 32.418a4.26 4.26 0 00-.123 1.19z" fill="#fac4b3" opacity=".5"/><path d="M708.91 804.974c-7.587.287-6.562-7.341-7.054-10.457-1.784-11.3-16.4-32.295-16.855-43.716-.164-4.839 7.32-14.948 20.136-11.216 6.808 2.05 12.077 24.4 15.727 47.161 3.014 18.905-8.571 18.085-11.954 18.228z" fill="#ffaa8c"/><path d="M664.189 798.659c-.164-6.418-13.225-10.99-17.573-2.05.861 24.852 4.1 48.473 4.1 48.473s.9 4.367 4.716 4.347c6.151 0 6.151-4.819 6.151-4.819l2.707-43.265c-.081-.963-.081-1.866-.101-2.686z" fill="#efb5a3"/><path d="M664.188 801.365l8.2-45.418s-8.981-14.7-20.833-8.571c-6.295 3.26-5.741 26.307-4.942 49.334.864 24.852 17.575 4.655 17.575 4.655zm-71.192-159.116s42.588.595 46.546-9.6c3.568-9.227-8.551-18.188-8.551-18.188l-40.435 10.523z" fill="#ffaa8c"/><path d="M590.351 625.291l-29.978-8.8s2.05-9.883-1.8-10.252-3.916 7.976-3.916 7.976-9.781-5.352-12.3 2.42-4.9 8.2 2.932 11.421a75.741 75.741 0 008.55 1.251c10.252 1.579 38.959 12.959 38.959 12.959a16.281 16.281 0 00-2.44-16.978z" fill="#f9b29b"/><path d="M649.199 612.578s-27.538.123-32.807 4.7.2 23.806.2 23.806l25.651 2.584z" fill="#e6e6e6"/><path d="M738.129 679.137c7.464-7.566 2.05-38.1-6.951-41.994-8.2-3.527-13.41 21.489-13.41 21.489l6.767 21.407s11.195 1.518 13.594-.902z" fill="#ffaa8c"/><path d="M699.272 642.659l18.024 13.882 18.987-13.882s-9.535-23.621-21.653-25.918-15.358 25.918-15.358 25.918z" fill="#e6e6e6"/><path d="M721.11 767.061a18.45 18.45 0 01-3.445 2.173c-7.033 4.368-33.976-2.378-35.309-2.645l-5.31-19.276-2.666 13.6c-.718 15.543-5.6 13.595-5.6 13.595s-33.464 5.331-32.972-7.771 4.86-62.621 3.055-64.077c0 0 5.208-3.4 37.708-5.331s33.71 3.506 33.71 3.506 14.131 59.439 10.829 66.226z" fill="#343538"/><path d="M697.037 702.594s-23.109 10.929-33.812 12.3-13.1 7.628-13.1 9.043-14.23 44.352-14.23 44.352l2.932-65.615z" fill="#231f20" opacity=".2"/><path d="M709.853 632.468v49.212a23.6 23.6 0 01-12.815 21.017 22.9 22.9 0 01-7.895 2.4l-2.46.246a106.339 106.339 0 01-25.549-1.025l-.656-.1a22.924 22.924 0 01-8.53-3.219 23.581 23.581 0 01-11.011-18.454c-1.374-19.931-3.117-51.262-1.353-59.648a6.581 6.581 0 01.451-1.517 16.4 16.4 0 015.741-5.434 59.97 59.97 0 013.547-2.174 115.788 115.788 0 0111.649-5.742c2.051-.9 4.1-1.722 5.741-2.44h.1a22.985 22.985 0 0115.542-.738 71.094 71.094 0 0116.609 7.812 23.539 23.539 0 0110.888 19.807z" fill="#e6e6e6"/><path d="M660.457 618.669c-.431 22.9.39 70.987.656 85.525v4.265h-25.487c-1.333 0 .369-2.42 3.281-16.014s-.964-34.858-.964-34.858-.779-32.131 1.62-34.653 4.286-4.675 6.151-6.951c.8-.943 1.538-1.866 2.255-2.748 2.235-2.768 4.1-5.229 5.352-6.931s1.8-2.5 1.8-2.5a12.468 12.468 0 014.737-.287c1.271.287 2.05 1.128 1.312 3.076a6.745 6.745 0 00-.266 1.456c-.144 1.292-.267 3.322-.349 5.905-.016 1.372-.057 2.972-.098 4.715zm41.83-13.965s9 11.38 12.3 12.036c6.028 1.189 6.049 40.763 6.049 40.763s-3.875 21.366-.964 34.858 4.614 16.014 3.281 16.014h-25.566s1.948-97.09 0-101.949 4.9-1.722 4.9-1.722z" fill="#f9ae71"/><path d="M668.372 601.485l-2.173 5.188-5.106 12.3-.636-.287-2.645-1.189-9.8-4.347-6.664-2.973s6.5-2.05 12-3.978a45.8 45.8 0 006.541-2.789 4.6 4.6 0 00.718-.513c2.434-2.15 7.05-4.324 7.765-1.412zm16.629.001l7.279 17.47 19.828-8.776s-16.834-5.106-19.254-7.279-7.115-4.327-7.853-1.415z" fill="#313131"/><path d="M697.037 703.594s-4.347 1.128-10.252 2.645a106.335 106.335 0 01-25.549-1.025c-.267-14.558-1.087-62.621-.656-85.525l.636.287 5.106-12.3a59.809 59.809 0 01-1.394 9.084 52.246 52.246 0 01-3.322 9.289s1.476 38.959 1.907 45.767a109.739 109.739 0 002.809 16.4s-2.911-.8-2.358 3.035 1.763 9.986 14.353 9.822 18.72 2.521 18.72 2.521z" fill="#313131"/><path d="M651.784 614.834l8.673 3.855-.123 35.986s-.164-33.505-8.55-39.841zm46.34 1.353v39.7s2.522-32.808 4.1-35.35 9 3.117 9 3.117l-8.817-9.207z" fill="#ffc89b"/><path d="M733.617 663.328c-9.063-1.558-34.858 11.38-34.858 11.38s-5.27-10.437-8.386-8.53.738 4.347.738 4.347-13.41-1.5-10.724 5.8 4.818 18.454 12.61 16.4 44.844-13.226 44.844-13.226 9.125-13.958-4.224-16.171zm-182.39-46.731s8.919 12.3 2.748 12.692a18.312 18.312 0 01-9.7-1.743z" fill="#f9b29b"/><ellipse cx="13.677" cy="8.858" rx="13.677" ry="8.858" transform="translate(662.159 597.569)" fill="#313131"/><path d="M651.599 571.22s-9.125 9.125-5.618 10.683 4.2-.882 4.2-.882z" fill="#d89e9a"/><path d="M680.962 586.906s5.29 15.748 13.841 6.377 25.241-27.312 14.066-37.2-7.136-11.708-20.095-21.858-8.51-23.15-27-9.637-28.85 18.454-28.071 9.371-11.175-3.383-9.371 9.883 29.65 28.358 29.65 28.358z" fill="#28264a"/><path d="M685.083 592.053s9.33 17.942-7.833 19.172c-6.438.451-12.057-3.178-12.3-12.549-22.289 4.1-17.019-18.454-17.019-18.454s2.378-21.509 18-18 11.77 6.151 11.319 9.76c-.144 1.169 2.358 6.439 4.675-.595s6.151.205 4.88 8.386-1.722 12.28-1.722 12.28z" fill="#f9b29b"/><path d="M664.946 598.697s10.847-.246 13.308-3.4c0 0-8.592 11.749-10.868 11.565.043-.009-2.54-1.44-2.44-8.165z" fill="#d89e9a"/><g transform="translate(52.472 189.546)" opacity=".55" style="mix-blend-mode:soft-light;isolation:isolate" fill="#fff"><circle cx="4.285" cy="4.285" r="4.285" transform="translate(14.333 10.765)"/><circle cx="4.285" cy="4.285" r="4.285" transform="translate(14.333 40.886)"/><circle cx="4.285" cy="4.285" r="4.285" transform="translate(14.333 70.987)"/><circle cx="4.285" cy="4.285" r="4.285" transform="translate(14.333 101.088)"/><circle cx="4.285" cy="4.285" r="4.285"/><circle cx="4.285" cy="4.285" r="4.285" transform="translate(0 30.101)"/><circle cx="4.285" cy="4.285" r="4.285" transform="translate(0 60.202)"/><circle cx="4.285" cy="4.285" r="4.285" transform="translate(0 90.323)"/></g><path d="M73.872 18h8.674v8.674h-8.674zm0 15.863h8.674v8.674h-8.674zm0 15.876h8.674v8.674h-8.674zm0 15.863h8.674v8.674h-8.674zm0 15.877h8.674v8.674h-8.674zm0 15.863h8.674v8.674h-8.674zm0 15.876h8.674v8.674h-8.674zm0 15.863h8.674v8.674h-8.674zm0 15.877h8.674v8.674h-8.674zm0 15.863h8.674v8.674h-8.674zm0 15.863h8.674v8.674h-8.674zm0 15.876h8.674v8.674h-8.674zm0 15.863h8.674v8.674h-8.674zM88.755 18h8.674v8.674h-8.674zm0 15.863h8.674v8.674h-8.674zm0 15.876h8.674v8.674h-8.674zm0 15.863h8.674v8.674h-8.674zm0 15.877h8.674v8.674h-8.674zm0 15.863h8.674v8.674h-8.674zm0 15.876h8.674v8.674h-8.674zm0 15.863h8.674v8.674h-8.674zm0 15.877h8.674v8.674h-8.674zm0 15.863h8.674v8.674h-8.674zm0 15.863h8.674v8.674h-8.674zm0 15.876h8.674v8.674h-8.674zM103.637 18h8.674v8.674h-8.674zm0 15.863h8.674v8.674h-8.674zm0 15.876h8.674v8.674h-8.674zm0 15.863h8.674v8.674h-8.674zm0 15.877h8.674v8.674h-8.674zm0 15.863h8.674v8.674h-8.674zm0 15.876h8.674v8.674h-8.674zm0 15.863h8.674v8.674h-8.674zm0 15.877h8.674v8.674h-8.674zm0 15.863h8.674v8.674h-8.674zm0 15.863h8.674v8.674h-8.674zM118.506 18h8.674v8.674h-8.674zm0 15.863h8.674v8.674h-8.674zm0 15.876h8.674v8.674h-8.674zm0 15.863h8.674v8.674h-8.674zm0 15.877h8.674v8.674h-8.674zm0 15.863h8.674v8.674h-8.674zm0 15.876h8.674v8.674h-8.674zm0 15.863h8.674v8.674h-8.674zm0 15.877h8.674v8.674h-8.674zm0 15.863h8.674v8.674h-8.674zm0 15.863h8.674v8.674h-8.674zm0 15.876h8.674v8.674h-8.674zM133.389 18h8.674v8.674h-8.674zm0 15.863h8.674v8.674h-8.674zm0 15.876h8.674v8.674h-8.674zm0 15.863h8.674v8.674h-8.674zm0 15.877h8.674v8.674h-8.674zm0 15.863h8.674v8.674h-8.674zm0 15.876h8.674v8.674h-8.674zm0 15.863h8.674v8.674h-8.674zm0 15.877h8.674v8.674h-8.674zm0 15.863h8.674v8.674h-8.674zm0 15.863h8.674v8.674h-8.674zm0 15.876h8.674v8.674h-8.674zm0 15.863h8.674v8.674h-8.674zM148.257 18h8.674v8.674h-8.674zm0 15.863h8.674v8.674h-8.674zm0 15.876h8.674v8.674h-8.674zm0 15.863h8.674v8.674h-8.674zm0 15.877h8.674v8.674h-8.674zm0 15.863h8.674v8.674h-8.674zm0 15.876h8.674v8.674h-8.674zm0 15.863h8.674v8.674h-8.674zm0 15.877h8.674v8.674h-8.674zm0 15.863h8.674v8.674h-8.674zm0 15.863h8.674v8.674h-8.674zm0 15.876h8.674v8.674h-8.674zm0 15.863h8.674v8.674h-8.674zm0 15.877h8.674v8.674h-8.674zM163.14 18h8.674v8.674h-8.674zm0 15.863h8.674v8.674h-8.674zm0 15.876h8.674v8.674h-8.674zm0 15.863h8.674v8.674h-8.674zm0 15.877h8.674v8.674h-8.674zm0 15.863h8.674v8.674h-8.674zm0 15.876h8.674v8.674h-8.674zm0 15.863h8.674v8.674h-8.674zm0 15.877h8.674v8.674h-8.674zm0 15.863h8.674v8.674h-8.674zm0 15.863h8.674v8.674h-8.674zm0 15.876h8.674v8.674h-8.674zm0 15.863h8.674v8.674h-8.674zM178.009 18h8.674v8.674h-8.674zm0 15.863h8.674v8.674h-8.674zm0 15.876h8.674v8.674h-8.674zm0 15.863h8.674v8.674h-8.674zm0 15.877h8.674v8.674h-8.674zm0 15.863h8.674v8.674h-8.674zm0 15.876h8.674v8.674h-8.674zm0 15.863h8.674v8.674h-8.674zm0 15.877h8.674v8.674h-8.674zm0 15.863h8.674v8.674h-8.674zm0 15.863h8.674v8.674h-8.674zm0 15.876h8.674v8.674h-8.674zM192.892 18h8.674v8.674h-8.674zm0 15.863h8.674v8.674h-8.674zm0 15.876h8.674v8.674h-8.674zm0 15.863h8.674v8.674h-8.674zm0 15.877h8.674v8.674h-8.674zm0 15.863h8.674v8.674h-8.674zm0 15.876h8.674v8.674h-8.674zm0 15.863h8.674v8.674h-8.674zm0 15.877h8.674v8.674h-8.674zm0 15.863h8.674v8.674h-8.674zm0 15.863h8.674v8.674h-8.674zM207.76 18h8.674v8.674h-8.674zm0 15.863h8.674v8.674h-8.674zm0 15.876h8.674v8.674h-8.674zm0 15.863h8.674v8.674h-8.674zm0 15.877h8.674v8.674h-8.674zm0 15.863h8.674v8.674h-8.674zm0 15.876h8.674v8.674h-8.674zm0 15.863h8.674v8.674h-8.674zm0 15.877h8.674v8.674h-8.674zm0 15.863h8.674v8.674h-8.674zM222.629 18h8.674v8.674h-8.674zm0 15.863h8.674v8.674h-8.674zm0 15.876h8.674v8.674h-8.674zm0 15.863h8.674v8.674h-8.674zm0 15.877h8.674v8.674h-8.674zm0 15.863h8.674v8.674h-8.674zm0 15.876h8.674v8.674h-8.674zm0 15.863h8.674v8.674h-8.674zm0 15.877h8.674v8.674h-8.674zm0 15.863h8.674v8.674h-8.674zM237.512 18h8.674v8.674h-8.674zm0 15.863h8.674v8.674h-8.674zm0 15.876h8.674v8.674h-8.674zm0 15.863h8.674v8.674h-8.674zm0 15.877h8.674v8.674h-8.674zm0 15.863h8.674v8.674h-8.674zm0 15.876h8.674v8.674h-8.674zm0 15.863h8.674v8.674h-8.674zm0 15.877h8.674v8.674h-8.674zM252.381 18h8.674v8.674h-8.674zm0 15.863h8.674v8.674h-8.674zm0 15.876h8.674v8.674h-8.674zm0 15.863h8.674v8.674h-8.674zm0 15.877h8.674v8.674h-8.674zm0 15.863h8.674v8.674h-8.674zm0 15.876h8.674v8.674h-8.674zm0 15.863h8.674v8.674h-8.674zm0 15.877h8.674v8.674h-8.674zm0 15.863h8.674v8.674h-8.674zM267.263 18h8.674v8.674h-8.674zm0 15.863h8.674v8.674h-8.674zm0 15.876h8.674v8.674h-8.674zm0 15.863h8.674v8.674h-8.674zm0 15.877h8.674v8.674h-8.674zm0 15.863h8.674v8.674h-8.674zm0 15.876h8.674v8.674h-8.674zm0 15.863h8.674v8.674h-8.674zM282.132 18h8.674v8.674h-8.674zm0 15.863h8.674v8.674h-8.674zm0 15.876h8.674v8.674h-8.674zm0 15.863h8.674v8.674h-8.674zm0 15.877h8.674v8.674h-8.674zm0 15.863h8.674v8.674h-8.674zM297.015 18h8.674v8.674h-8.674zm0 15.863h8.674v8.674h-8.674zm0 15.876h8.674v8.674h-8.674zm0 15.863h8.674v8.674h-8.674zM311.884 18h8.674v8.674h-8.674zm0 15.863h8.674v8.674h-8.674zm0 15.876h8.674v8.674h-8.674zM326.766 18h8.674v8.674h-8.674zm0 15.863h8.674v8.674h-8.674zm0 15.876h8.674v8.674h-8.674zm0 15.863h8.674v8.674h-8.674zM341.635 18h8.674v8.674h-8.674zm0 15.863h8.674v8.674h-8.674zm0 15.876h8.674v8.674h-8.674zm0 15.863h8.674v8.674h-8.674zm0 15.877h8.674v8.674h-8.674zM356.518 18h8.674v8.674h-8.674zm0 15.863h8.674v8.674h-8.674zm0 15.876h8.674v8.674h-8.674zm0 15.863h8.674v8.674h-8.674zM371.387 18h8.674v8.674h-8.674zm0 15.863h8.674v8.674h-8.674zm0 15.876h8.674v8.674h-8.674zM386.269 18h8.674v8.674h-8.674zm0 15.863h8.674v8.674h-8.674zM401.138 18h8.674v8.674h-8.674z" opacity=".096" fill="#5475f9"/><circle cx="45.561" cy="45.561" r="45.561" transform="translate(548.706 352.435)" fill="none"/><circle cx="54.686" cy="54.686" r="54.686" transform="translate(539.582 343.31)" fill="none"/><circle cx="109.372" cy="109.372" r="109.372" transform="translate(484.896 288.624)" opacity=".15" fill="url(#i)" style="mix-blend-mode:screen;isolation:isolate"/><circle cx="45.561" cy="45.561" r="45.561" transform="translate(548.706 352.435)" fill="url(#j)" style="mix-blend-mode:screen;isolation:isolate"/></g></svg>