<svg height="70" viewBox="0 0 1280 640" xmlns="http://www.w3.org/2000/svg"><g fill="#999"><path d="M1203.7 212.2c.5 7.3.8 41.5.8 75.9v62.7l5 .6c2.8.3 8.8.8 13.5 1.2l8.5.6 4.8-20.8c12.7-54.5 21.3-88.5 26.8-106.3 3.3-10.6 5.8-19.5 5.5-19.8-.5-.6-18-2.6-40.1-4.8-8.8-.8-18.1-1.8-20.8-2.1l-4.7-.6zM2.3 213.8c-2.1.3-2.3.9-2.3 7.2 0 3.8.4 7.1.8 7.4.5.3 11.1 1.9 23.5 3.6 12.5 1.7 23.7 3.4 24.9 3.9 8 3.1 69.8 75.9 94.9 111.9l4.4 6.3.5 28.5c.3 15.6.2 29.8-.1 31.5-1.6 7.6-8.8 9.9-33.9 10.8l-17.4.6-1.3 7.4c-.7 4.1-1.1 7.6-.9 7.8.1.2 37.6 0 83.3-.4l83.1-.6.4-7.6c.3-4.2.3-7.9.1-8.4-.2-.4-11.8-.7-25.7-.7-18.7 0-25.6-.3-26.8-1.2s-2.1-5.3-3.4-15.5c-1.5-12.2-1.6-16.8-.7-32.5.7-14 1.4-19.1 2.8-21.8 5.1-10.2 50.9-49.9 85.4-74 12.6-8.8 12.2-8.7 37.5-13.9l17.9-3.7 5.3-7.5 5.3-7.6-22.6-.6c-12.4-.4-45.5-.7-73.5-.7H213v2.1c0 1.2.5 5 1.2 8.5 1.1 6.2 1.2 6.4 4.2 6.4 3.2 0 23.8 2.9 35.8 5l6.7 1.2-2 3.9c-2.8 5.6-14.5 16.8-37.9 36.2-11.3 9.3-22.5 18.9-25 21.3l-4.5 4.3-14.5-19c-8-10.5-22-28.9-31.1-41-22.3-29.4-30.1-40.6-28.4-41.3.7-.2 7.8-1 15.6-1.6 27.7-2.2 35.1-2.9 35.5-3.3.8-.8 2.4-12.1 1.8-12.6-.6-.6-164.4-.9-168.1-.3zm1041.8 14.3c-42.9 4.8-78.8 22.7-95.1 47.5-12 18.3-12.8 39.9-2.3 61.4 10.8 22.1 47.2 44.9 80.8 50.6 15 2.6 45.2 2.3 60.9-.5 49.7-8.9 85.3-37.6 90.6-73.3 1.2-8.3.6-13.4-3-26.7-8.3-29.9-34.8-50.7-73.5-57.7-10.7-1.9-45.9-2.7-58.4-1.3zm36.5 22c32.3 3.6 53.8 17.4 60.5 39 2.5 8 2.5 25.6.1 35-5.1 19.5-22.1 34.4-46 40.5-28.5 7.2-61.2 4.8-82.3-6.2-9.3-4.8-20.5-15.6-24.2-23.4-8.2-17-7.6-38.2 1.4-52.5 14.9-23.8 51.1-36.8 90.5-32.4zm-465.9-13.5c-1.4 8.4-1.1 9.2 3.6 9.8 13.6 1.7 27.6 3.7 30.2 4.4l3 .9-.4 28.4c-.2 15.6-.7 28.8-1.2 29.3-.4.5-25.5 1.1-56.3 1.4l-55.4.5.4-14.4c.3-7.9 1-17.4 1.5-21l1-6.6 5.2-.6c2.9-.4 11.5-1.1 19.2-1.8 7.7-.6 14.2-1.3 14.4-1.5.2-.1.5-3.1.8-6.6l.5-6.3-59.1.3-59.1.2v5.3c0 2.8.4 5.7.8 6.3.4.7 7.1 1.6 16.7 2.3 8.8.7 17.2 1.4 18.6 1.7l2.7.5.7 14.7c.7 13.9.1 88.9-.7 89.7-.2.2-8.4 1.2-18.3 2.1-9.9 1-18.3 2-18.6 2.3-.4.3-1 4.1-1.4 8.3l-.7 7.8h115.9l.7-7.6c.4-4.2.5-7.8.3-8-.2-.3-7.6-1.1-16.3-1.9-24.5-2.3-21.9-1-23.3-11.3-.6-4.9-1.1-13.8-1.1-20v-11.1l4.3-.5c8.1-1.1 106.7-5.9 107.4-5.3.8.9.6 44.8-.2 45.6-.6.5-8.6 1.5-18 2.3l-17 1.3.4 7c.2 3.9.5 7.2.7 7.4s21.2.4 46.6.5l46.3.1.3-4.8c.5-7.9-1-9.3-11-10.1-4.6-.4-9.9-.9-11.9-1.2l-3.5-.6-1.2-38.6c-2.5-77.3-2.5-83.6-1.1-85.3 1.4-1.6 22-6.9 26.6-6.9 2.8 0 3.1-.5 3.4-6.3l.3-4.8-48-.6-48.1-.5zm191.8 20.3c-46.5 5.4-80.1 26.9-89.8 57.6-1.8 5.7-2.2 9.3-2.2 19 .1 25.4 8.2 38 31.7 49.6 22.5 11.1 44.7 15.9 73.8 15.9 39.7-.1 68.2-9.2 87-28 15.4-15.5 21.1-35.6 16.5-58.8-2.4-11.8-7.2-20.7-15.4-28.5-15-14.1-29.7-21.5-50.5-25.3-9.4-1.8-40.8-2.6-51.1-1.5zm46.5 20.7c21.5 4.4 35.1 17.6 38.1 37.2 1.7 11.6-.3 29.9-4.2 37.9-7.9 16.4-29.5 25.9-62 27-26.4 1-44.8-4.7-58.5-18.2-15.9-15.6-19.1-41-7.4-58 15-21.8 56.9-33.3 94-25.9z"/><path d="M337 288.1c0 6.9.6 7.5 9.8 10.4 4.8 1.6 9 3 9.4 3.2 1.2.6-30.3 62.2-44.3 86.5l-4.4 7.6-10 2.6c-5.5 1.4-11.5 2.9-13.2 3.2-3.1.6-3.5 1.1-5.7 8.3-1.3 4.2-2.3 7.7-2.3 7.7.1.1 17.8-.1 39.3-.4l39.2-.5.7-6.3c.4-3.5.6-6.7.6-7.1 0-.5-3.9-1.6-8.8-2.5-14.2-2.8-13.2-2.3-12.4-6 1.3-5.4 4.8-12.7 9.5-19.3 4.3-6 4.7-6.2 9.8-6.9 2.9-.3 13.4-.9 23.3-1.3l18.1-.6 10.7 23.3c5.9 12.8 10.6 23.4 10.4 23.6-.2.3-6.7 1.4-14.5 2.6l-14.1 2.2-.6 4.6c-.4 2.5-.9 5.7-1.1 7.2l-.6 2.8H479v-6.5c0-4.4-.4-6.7-1.2-6.9-.7-.2-4.2-.9-7.8-1.6-18.9-3.5-19.8-3.9-22.7-8.7-3.9-6.8-12.8-26.6-25.8-57.8-16.4-39.5-20.6-50.5-19.2-51 3.9-1.3 13.9-3.5 16-3.5 3.2 0 4.3-1.5 5.2-6.8l.7-4.2h-33c-18.1 0-37.7-.3-43.5-.7l-10.7-.6zm46.3 41.9c4.1 11.3 7.8 21.3 8.2 22.2.7 1.7-.6 1.8-18.5 1.8s-19.2-.1-18.5-1.8c.3-.9 4.9-11.5 10.2-23.5 6.2-14 9.9-21.4 10.4-20.5.4.8 4.1 10.6 8.2 21.8zm814.7 62.2c0 12.6.3 15.8 1.4 15.8.7 0 7.3.5 14.5 1.1 7.3.6 13.5.8 13.8.5.9-.8 5.1-29.5 4.5-30.1-.3-.3-3.7-.5-7.6-.5-3.9-.1-11.5-.7-16.8-1.4l-9.8-1.2zm60.5-11.3c-5.8 2.4-10.3 10.9-8.9 16.8 1.8 7.8 7.5 12.3 15.7 12.3 11.8 0 18.8-14.1 11.7-24-3.7-5.1-12.4-7.5-18.5-5.1zm15.2 5.5c2.8 3 3.3 4.3 3.3 8.6s-.5 5.5-3.4 8.8c-3.2 3.4-3.8 3.7-9.1 3.7-5.1 0-5.9-.3-8.5-3.2-8.2-9.2-1.8-23.3 10-22 3.5.4 5.1 1.3 7.7 4.1z"/><path d="M1259 395c0 7.5.3 9 1.6 9 1.2 0 1.5-.9 1.2-3.7-.4-5.3 2.1-5.4 5-.3 1.2 2.2 2.9 4 3.8 4 1.6 0 1.4-.6-1.8-5.2-1.8-2.6-1.8-2.7.2-3.3 2.8-.9 3.7-5.1 1.5-7.5-1.3-1.5-3.1-2-6.7-2h-4.8zm8.8-6.1c.8.5 1.2 1.7 1 2.7-.2 1.4-1.3 2-4 2.2-3.5.3-3.7.2-3.3-2.5.2-1.5.4-2.9.4-3.1.2-.6 4.7-.1 5.9.7z"/></g></svg>