<svg xmlns="http://www.w3.org/2000/svg" width="85.165" height="25.59"><g fill="#FFF" fill-rule="evenodd"><path data-name="Path 1" d="M52.83 20.01c-4.95 3.64-12.12 5.58-18.3 5.58a33.212 33.212 0 01-22.35-8.5c-.46-.42-.05-1 .5-.67a45.051 45.051 0 0022.37 5.92 44.786 44.786 0 0017.06-3.48c.84-.36 1.54.55.73 1.15m2.04-2.34c-.63-.8-4.18-.4-5.77-.2-.48.06-.55-.36-.12-.66 2.84-2 7.48-1.4 8.02-.75.54.67-.15 5.3-2.8 7.52-.4.34-.8.16-.62-.3.6-1.48 1.94-4.8 1.3-5.6M49.22 2.8V.87a.483.483 0 01.5-.5h8.65a.483.483 0 01.5.5v1.65c0 .28-.24.64-.65 1.22l-4.5 6.38a9.5 9.5 0 014.95 1.06.874.874 0 01.46.75v2.05a.466.466 0 01-.64.44 10 10 0 00-9.16 0c-.3.17-.6-.16-.6-.44v-1.94a2.423 2.423 0 01.3-1.32l5.2-7.44h-4.52a.479.479 0 01-.5-.48M17.62 14.84H15a.517.517 0 01-.5-.45L14.52.91a.5.5 0 01.5-.5h2.46a.514.514 0 01.48.46v1.77H18a3.521 3.521 0 013.5-2.5 3.454 3.454 0 013.4 2.5 3.917 3.917 0 016.71-1.03c.82 1.14.65 2.78.65 4.23v8.5a.5.5 0 01-.5.5H29.1a.494.494 0 01-.46-.5V7.21a17.455 17.455 0 00-.08-2.52 1.393 1.393 0 00-1.55-1.17 1.738 1.738 0 00-1.56 1.1 8.277 8.277 0 00-.25 2.6v7.14a.512.512 0 01-.52.5h-2.63a.5.5 0 01-.47-.5V7.21c0-1.5.24-3.72-1.63-3.72-1.9 0-1.82 2.16-1.82 3.72v7.15a.5.5 0 01-.5.5M66.35 2.89c-1.94 0-2.06 2.64-2.06 4.28s-.04 5.17 2.03 5.17c2.04 0 2.14-2.84 2.14-4.57a12.268 12.268 0 00-.4-3.58 1.649 1.649 0 00-1.72-1.3M66.33.14c3.9 0 6.03 3.34 6.03 7.6 0 4.1-2.34 7.38-6.03 7.38-3.84 0-5.93-3.35-5.93-7.52 0-4.2 2.12-7.46 5.93-7.46"/><path data-name="Path 2" d="M77.425 14.83h-2.63a.47.47 0 01-.46-.48V.85a.471.471 0 01.5-.43h2.44a.492.492 0 01.47.38v2.07h.05c.74-1.87 1.77-2.75 3.6-2.75a3.46 3.46 0 013.07 1.6c.7 1.07.7 2.9.7 4.2v8.48a.519.519 0 01-.52.42h-2.65a.482.482 0 01-.46-.42V7.09c0-1.48.17-3.64-1.65-3.64a1.72 1.72 0 00-1.53 1.08 6 6 0 00-.42 2.56v7.26a.5.5 0 01-.52.48"/><path data-name="Path 3" d="M44.975 14.8a.544.544 0 01-.63.06 6.4 6.4 0 01-1.5-1.76 5.236 5.236 0 01-4.35 1.9 3.739 3.739 0 01-3.96-4.1 4.463 4.463 0 012.8-4.28 17.861 17.861 0 014.97-.9v-.35a3.42 3.42 0 00-.3-1.9 1.811 1.811 0 00-1.5-.68 1.965 1.965 0 00-2.1 1.58.573.573 0 01-.47.48l-2.55-.28a.447.447 0 01-.4-.54c.62-3.1 3.42-4.03 5.92-4.03a6.079 6.079 0 013.97 1.3c1.28 1.2 1.16 2.8 1.16 4.53v4.1a3.576 3.576 0 001 2.43.51.51 0 010 .7c-.55.44-1.5 1.27-2.03 1.74zm-2.67-6.4a5.187 5.187 0 01-.48 2.78 2.147 2.147 0 01-1.83 1.2c-1.02 0-1.6-.76-1.6-1.9 0-2.24 2-2.65 3.9-2.65z"/><path data-name="Path 4" d="M10.42 14.8a.527.527 0 01-.62.06 6.228 6.228 0 01-1.5-1.76A5.255 5.255 0 013.94 15 3.739 3.739 0 010 10.9a4.463 4.463 0 012.8-4.28 17.861 17.861 0 014.97-.9v-.35a3.343 3.343 0 00-.32-1.9 1.786 1.786 0 00-1.48-.68 2 2 0 00-2.12 1.58.552.552 0 01-.46.48L.83 4.57a.447.447 0 01-.4-.54C1.03.93 3.83 0 6.33 0a6.1 6.1 0 013.97 1.3c1.3 1.2 1.16 2.8 1.16 4.53v4.1a3.576 3.576 0 001 2.43.51.51 0 010 .7c-.55.44-1.5 1.27-2.03 1.74zM7.77 8.4a5.105 5.105 0 01-.5 2.78 2.121 2.121 0 01-1.82 1.2c-1 0-1.6-.76-1.6-1.9 0-2.24 2-2.65 3.92-2.65z"/></g></svg>