<svg viewBox="0 0 60 60" xmlns="http://www.w3.org/2000/svg"><path d="M0 0h60v60H0z" fill="none"/><rect fill="#d8e3f0" height="42.52" rx="1.33" width="36.03" x="10.19" y="8.56"/><path d="M14.91 13.29h26.58v33.07H14.91z" fill="#edf4ff"/><path d="M46.13 38.8l-4.37 2.51-4.36-2.51-8.06 13.95 3.86-.48 1.5 3.58 7.06-12.22 7.06 12.22 1.51-3.58 3.86.48z" fill="#f65855"/><circle cx="41.76" cy="39.11" fill="#ffc670" r="8.76"/><path d="M42.58 30.39A7.25 7.25 0 1133 39.93a8.76 8.76 0 109.54-9.54z" fill="#ffb75e"/><circle cx="41.76" cy="39.11" fill="none" r="8.76"/><path d="M41.76 34.56l1.76 2.28 2.71.97-1.62 2.38-.08 2.88-2.77-.81-2.76.81-.09-2.88-1.62-2.38 2.71-.97z" fill="#ffdead"/><path d="M23.7 18.3h9.01M19.79 36.67h5.11m-5.11 4.42h9.25" fill="none"/><g fill="#3d3d63"><path d="M55.05 52.25l-4.81-8.32a9.75 9.75 0 00-3-12.91V9.9a2.34 2.34 0 00-2.34-2.34H11.52A2.33 2.33 0 009.19 9.9v39.85a2.33 2.33 0 002.33 2.33h17.05l-.1.17a1 1 0 000 1.06 1 1 0 001 .44l3.11-.4 1.21 2.89a1 1 0 00.86.61h.06a1 1 0 00.87-.5L40 48.71a10.21 10.21 0 001.77.17 10.43 10.43 0 001.78-.17L48 56.35a1 1 0 00.87.5h.06a1 1 0 00.86-.61L51 53.35l3.11.4a1 1 0 001-1.5zm-43.53-2.17a.33.33 0 01-.33-.33V9.9a.34.34 0 01.33-.34h33.36a.34.34 0 01.34.34V30a9.52 9.52 0 00-2.73-.61v-16.1a1 1 0 00-1-1H14.91a1 1 0 00-1 1v33.06a1 1 0 001 1H31.3l-1.58 2.73zM32 39.11a9.74 9.74 0 001.28 4.82l-.83 1.42H15.91V14.29h24.58v15.15A9.78 9.78 0 0032 39.11zm2.84 14.5l-.72-1.73a1 1 0 00-1-.6l-1.86.23 3.36-5.82A9.75 9.75 0 0038 48.12zM34 39.11a7.76 7.76 0 117.76 7.77A7.77 7.77 0 0134 39.11zm16.45 12.17a1 1 0 00-1.05.6l-.72 1.73-3.17-5.49A9.75 9.75 0 0049 45.69l3.36 5.82z"/><path d="M46.57 36.87L44.14 36l-1.59-2A1 1 0 0041 34l-1.59 2-2.41.87a1 1 0 00-.61.63 1 1 0 00.12.87l1.46 2.14.03 2.59a1 1 0 00.41.78 1 1 0 00.87.15l2.48-.73 2.49.73a.86.86 0 00.28 0 1 1 0 00.58-.19 1 1 0 00.42-.78l.07-2.59 1.46-2.14a1 1 0 00.13-.87 1 1 0 00-.62-.59zm-2.78 2.76a1 1 0 00-.18.53v1.59L42 41.3a1 1 0 00-.56 0l-1.44.45-.05-1.59a1 1 0 00-.18-.53l-.89-1.32 1.49-.53a1.09 1.09 0 00.46-.33l1-1.26 1 1.26a1.09 1.09 0 00.46.33l1.49.53zM32.71 17.3h-9a1 1 0 000 2h9a1 1 0 000-2zM19.79 37.67h5.11a1 1 0 000-2h-5.11a1 1 0 000 2zM29 40.09h-9.21a1 1 0 000 2H29a1 1 0 000-2z"/></g></svg>