<svg viewBox="0 0 60 60" xmlns="http://www.w3.org/2000/svg"><path d="M0 0h60v60H0z" fill="none"/><rect fill="#ffc670" height="46.67" rx="2.01" transform="rotate(13 29.981 30.992)" width="32" x="14" y="7.67"/><rect fill="#fff6e6" height="46.67" rx="2.01" width="32" x="14" y="7.67"/><path d="M25.69 15.53l-2.36 2.36L21 15.53a3.33 3.33 0 105.69 2.36 3.36 3.36 0 00-1-2.36z" fill="#79deb4"/><g fill="#3d3d63"><path d="M49.1 10.44L47 10v-.32a3 3 0 00-3-3H32.78L21.85 4.14a3 3 0 00-3.62 2.26l-.06.27H16a3 3 0 00-3 3v19.39L8.64 48a3 3 0 002.26 3.61l2.1.49v.27a3 3 0 003 3h11.32l.11.05 10.72 2.48a3 3 0 003.62-2.26l.06-.27H44a3 3 0 003-3V32.94l4.36-18.89a3 3 0 00-2.26-3.61zM13 50l-1.65-.39a1 1 0 01-.76-1.21L13 38zm8.4-43.91l2.49.58h-3.63a1 1 0 011.14-.58zm17.2 49.82l-2.48-.58h3.62a1 1 0 01-1.14.58zm6.4-3.59a1 1 0 01-1 1H16a1 1 0 01-1-1V9.68a1 1 0 011-1h28a1 1 0 011 1zm4.41-38.72L47 24.05V12l1.65.38a1 1 0 01.76 1.22z"/><path d="M40 47.83H21V39.7a1 1 0 00-2 0v9.13a1 1 0 001 1h20a1 1 0 000-2zM23.33 22.22a4.34 4.34 0 004.34-4.33 4.29 4.29 0 00-.67-2.27l1.82-1.81a1 1 0 00-1.42-1.42l-4.08 4.08-2.27-2.27a1 1 0 00-1.41 0 1 1 0 000 1.41 4.28 4.28 0 00-.64 2.28 4.33 4.33 0 004.33 4.33zm-2.19-5.11l1.49 1.49a1 1 0 00.7.29 1 1 0 00.67-.29l1.49-1.49a2.56 2.56 0 01.14.78 2.34 2.34 0 01-4.67 0 2.29 2.29 0 01.18-.78zm2.19 16.07A4.34 4.34 0 1019 28.84a4.35 4.35 0 004.33 4.34zm0-6.67A2.34 2.34 0 1121 28.84a2.34 2.34 0 012.33-2.33z"/><path d="M40 35.38h-3.92a1 1 0 000 2h1.51L32 43l-3.93-4a1 1 0 00-1.41 0l-3.58 3.59A1 1 0 1024.49 44l2.88-2.88 3.92 3.93a1 1 0 001.42 0L39 38.8v1.5a1 1 0 002 0v-3.92a1 1 0 00-1-1zm-8.67-7.54h4.29a1 1 0 000-2h-4.29a1 1 0 000 2zm0 4.01h8.23a1 1 0 000-2h-8.23a1 1 0 000 2zm0-14.96h4.29a1 1 0 000-2h-4.29a1 1 0 000 2zm0 4h8.23a1 1 0 000-2h-8.23a1 1 0 000 2z"/></g></svg>