<svg viewBox="0 0 60 60" xmlns="http://www.w3.org/2000/svg"><path d="M0 0h60v60H0z" fill="none"/><path d="M45.59 9.47L34.12 8.36a1 1 0 00-.78.26 1 1 0 00-.32.77l.56 14.94a1 1 0 00.64.9L41.43 28a1.13 1.13 0 00.36.06.94.94 0 00.37-.07l4.25-1.67a1 1 0 00.63-.83l1.24-12.76a3 3 0 00-2.69-3.26z" fill="#ffc670"/><path d="M33.02 46.675L45.896 33.8l3.769 3.769-12.877 12.876z" fill="#ffdead"/><path d="M49.667 37.56l-3.77-3.769 1.224-1.223a2.31 2.31 0 013.267 0l.502.502a2.31 2.31 0 010 3.267l-1.223 1.223z" fill="#f6716f"/><path d="M36.79 50.45l-5.66 1.88 1.88-5.65h.01z" fill="#ffdead"/><path d="M40.46 15.33h-6a.33.33 0 01-.33-.33V9a2.33 2.33 0 00-2.34-2.33h-18a3 3 0 00-3 3v40.66a3 3 0 003 3h9.82a1 1 0 00.94-.68l1.7-5.07L42.5 31.32a1 1 0 00.29-.71V17.67a2.33 2.33 0 00-2.33-2.34z" fill="#fff6e6"/><path d="M22.32 14.14H11.8v15.33h10.52a2.33 2.33 0 002.33-2.33V16.47a2.33 2.33 0 00-2.33-2.33zm18.99 2.5a1.29 1.29 0 00-.85-.31h-6A1.33 1.33 0 0133.13 15V9a1.32 1.32 0 00-.39-.94z" fill="#ffdead"/><rect fill="#79deb4" height="5.33" rx=".53" width="5.33" x="16.46" y="31.95"/><rect fill="#79deb4" height="13.33" rx="1.33" width="13.33" x="8.46" y="13.28"/><g fill="#3d3d63"><path d="M23.61 51.33h-9.82a1 1 0 01-1-1V27.61h7.67a2.33 2.33 0 002.33-2.33V14.61a2.33 2.33 0 00-2.33-2.33h-7.67V9.67a1 1 0 011-1h18a.34.34 0 01.34.33v6a2.33 2.33 0 002.33 2.33h6a.33.33 0 01.33.34v13a1 1 0 002 0v-13A2.32 2.32 0 0042 16l-5.31-5.31 8.69.84a1 1 0 01.89 1.1l-1.22 12.68a1 1 0 00.9 1.1 1 1 0 001.09-.9l1.24-12.76a3 3 0 00-2.69-3.28L34.48 8.39l-1-1a2.32 2.32 0 00-1.65-.68h-18a3 3 0 00-3 3v2.61h-1a2.34 2.34 0 00-2.33 2.33v10.63a2.33 2.33 0 002.33 2.33h1v22.72a3 3 0 003 3h9.82a1 1 0 000-2zm10.52-40.47l4.46 4.47h-4.13a.33.33 0 01-.33-.33zM9.46 25.28V14.61a.33.33 0 01.33-.33h10.67a.33.33 0 01.33.33v10.67a.33.33 0 01-.33.33H9.79a.33.33 0 01-.33-.33z"/><path d="M17 31a1.53 1.53 0 00-1.54 1.53v4.27A1.54 1.54 0 0017 38.28h4.26a1.53 1.53 0 001.53-1.53v-4.27A1.52 1.52 0 0021.26 31zm3.79 5.33h-3.33V33h3.33zm14.67.31a1 1 0 00-1-1h-8a1 1 0 000 2h8a1 1 0 001-1zm-9-5.05a1 1 0 000 2h3.33a1 1 0 000-2zm7.67-8.31a1 1 0 00-1-1h-6.67a1 1 0 000 2h6.67a1 1 0 001-1zm-7.67-3.06h3.33a1 1 0 000-2h-3.33a1 1 0 000 2zM17 17.4l-3 3-.86-.86a1 1 0 00-1.41 0 1 1 0 000 1.42l1.56 1.56a1 1 0 00.71.3 1 1 0 00.71-.3l3.68-3.67A1 1 0 0017 17.4zm34.57 15l-.51-.51a3.31 3.31 0 00-4.68 0L32.31 46a.88.88 0 00-.24.39L30.18 52a1 1 0 001.26 1.26l5.66-1.86a1 1 0 00.39-.25l14.08-14.07a3.31 3.31 0 000-4.68zM32.71 50.75l.74-2.22L34.93 50zM36.79 49l-2.36-2.35 9-9L45.79 40zm10.42-10.39l-2.36-2.35 1-1 2.35 2.36zm2.94-3l-.48.49-2.36-2.3.49-.49a1.31 1.31 0 011.85 0l.5.5a1.31 1.31 0 010 1.85z"/></g></svg>