<svg viewBox="0 0 60 60" xmlns="http://www.w3.org/2000/svg"><path d="M0 0h60v60H0z" fill="none"/><path d="M53.47 26.83v.53a3.41 3.41 0 01-2.61 3.25 5.53 5.53 0 00-3.43 8.29 3.44 3.44 0 01-.43 4.15l-.74.74a3.42 3.42 0 01-4.14.46 5.55 5.55 0 00-8.3 3.43 3.41 3.41 0 01-3.25 2.61h-1.1a3.41 3.41 0 01-3.25-2.61 5.55 5.55 0 00-8.3-3.43 3.42 3.42 0 01-4.14-.46l-.78-.74a3.44 3.44 0 01-.46-4.15 5.53 5.53 0 00-3.43-8.29 3.41 3.41 0 01-2.61-3.25V26.3a3.41 3.41 0 012.61-3.25 5.53 5.53 0 003.43-8.29 3.43 3.43 0 01.46-4.15l.74-.74a3.42 3.42 0 014.14-.46A5.53 5.53 0 0026.22 6a3.41 3.41 0 013.25-2.61h1.06A3.41 3.41 0 0133.78 6a5.53 5.53 0 008.3 3.43 3.42 3.42 0 014.14.46l.74.74a3.43 3.43 0 01.46 4.15 5.53 5.53 0 003.43 8.29 3.41 3.41 0 012.61 3.25c.01.16.01.33.01.51z" fill="#ffefb0"/><path d="M45.21 26.83c0-8.72-7.34-14.63-16.18-14.08-7.6.47-13.77 5.57-14.21 13.17a15.16 15.16 0 005 12.19A14.61 14.61 0 0124.53 49h10.94a15 15 0 014.86-11 15.17 15.17 0 004.88-11.17z" fill="#ffc670"/><path d="M16.5 29.61a15 15 0 0127.72-8C41.94 15.87 36 12.32 29 12.75c-7.6.47-13.77 5.57-14.21 13.17A15.1 15.1 0 0018 36.15a14.93 14.93 0 01-1.5-6.54z" fill="#ffe88a"/><path d="M30 40.52a17.38 17.38 0 01-13-5.88 15.35 15.35 0 002.84 3.47A14.61 14.61 0 0124.53 49h10.94a15 15 0 014.86-11 15.29 15.29 0 002.72-3.38A17.35 17.35 0 0130 40.52z" fill="#ff9a42"/><path d="M35 47.58a5.39 5.39 0 01.5 2.27 5.47 5.47 0 11-10.94 0 5.39 5.39 0 01.5-2.27z" fill="#edf4ff"/><path d="M30 53.17a5.46 5.46 0 01-5.36-4.38 5.37 5.37 0 00-.11 1.06 5.47 5.47 0 1010.94 0 5.37 5.37 0 00-.11-1.06A5.46 5.46 0 0130 53.17z" fill="#d8e3f0"/><rect fill="#d8e3f0" height="4.15" rx="1.92" transform="rotate(180 30 46.89)" width="19.35" x="20.32" y="44.82"/><path d="M34.82 33.38h-2.63v-2.63a2.26 2.26 0 012.26-2.26h.36a2.26 2.26 0 012.26 2.26v.36a2.26 2.26 0 01-2.25 2.27zm-9.65-4.89h.36a2.26 2.26 0 012.26 2.26v2.63h-2.62a2.26 2.26 0 01-2.26-2.26v-.36a2.26 2.26 0 012.26-2.27z" fill="#ffdead"/><g fill="#3d3d63"><path d="M46.21 27.83A16.3 16.3 0 0041.1 16a16.2 16.2 0 10-22 23.83 13.23 13.23 0 013.39 5h-.29a2.92 2.92 0 00-2.92 2.92V48a2.92 2.92 0 002.96 3h1.34a6.47 6.47 0 0012.84 0h1.34a2.92 2.92 0 002.92-3v-.3a2.92 2.92 0 00-2.92-2.92h-.25a14 14 0 013.5-5.1 16.27 16.27 0 005.2-11.85zM30 54.64A4.47 4.47 0 0125.61 51h8.78A4.47 4.47 0 0130 54.64zm7.76-7.82a.92.92 0 01.92.92V48a.92.92 0 01-.92.92H22.24a.92.92 0 01-.92-.92v-.3a.92.92 0 01.92-.92zm-11-13.44h-1.59a1.27 1.27 0 01-1.26-1.26v-.37a1.27 1.27 0 011.26-1.26h.37a1.27 1.27 0 011.26 1.26zm2 11.44v-9.44h2.4v9.44zm6.57 0H33.2v-9.44h1.63a3.26 3.26 0 003.26-3.26v-.37a3.26 3.26 0 00-3.26-3.26h-.37a3.27 3.27 0 00-3.26 3.26v1.63h-2.4v-1.63a3.27 3.27 0 00-3.26-3.26h-.37a3.26 3.26 0 00-3.26 3.26v.37a3.26 3.26 0 003.26 3.26h1.63v9.44h-2.14a15.27 15.27 0 00-4.18-6.45A14.15 14.15 0 0115.82 27a14.37 14.37 0 0113.27-13.35 14.22 14.22 0 0115.12 14.18 14.27 14.27 0 01-4.56 10.42 16.17 16.17 0 00-4.28 6.57zM33.2 33.38v-1.63a1.27 1.27 0 011.26-1.26h.37a1.27 1.27 0 011.26 1.26v.37a1.27 1.27 0 01-1.26 1.26z"/><path d="M21.51 19.6a12.1 12.1 0 00-2.78 4.12 1 1 0 00.54 1.3 1.08 1.08 0 00.38.08 1 1 0 00.93-.63A10.11 10.11 0 0122.9 21a1 1 0 00-1.39-1.44zm4.55-2.79a11.26 11.26 0 00-1.39.57 1 1 0 00.44 1.9 1 1 0 00.44-.1 9.12 9.12 0 011.16-.48 1 1 0 00.62-1.27 1 1 0 00-1.27-.62zM30 8.05a1 1 0 001-1V4.36a1 1 0 10-2 0v2.69a1 1 0 001 1zm-15.4 5.8a1 1 0 001.4-1.42l-1.91-1.9a1 1 0 00-1.41 1.41zM9.22 26.83H6.53a1 1 0 000 2h2.69a1 1 0 000-2zm5.38 14.98l-1.9 1.91a1 1 0 001.41 1.41l1.89-1.9a1 1 0 10-1.42-1.42zm30.8 0a1 1 0 10-1.4 1.42l1.91 1.9a1 1 0 001.41-1.41zm8.07-14.98h-2.69a1 1 0 000 2h2.69a1 1 0 000-2zm-7.58-16.3L44 12.43a1 1 0 101.42 1.42l1.9-1.91a1 1 0 00-1.41-1.41z"/></g></svg>