<svg viewBox="0 0 60 60" xmlns="http://www.w3.org/2000/svg"><path d="M0 0h60v60H0z" fill="none"/><path d="M0 0h60v60H0z" fill="none"/><circle cx="30" cy="30" fill="#ffc670" r="24"/><path d="M30 6A24 24 0 008.58 19.18a23.47 23.47 0 1132.24 32.24A24 24 0 0030 6z" fill="#ffe3ba"/><path d="M42.05 46.19a28.2 28.2 0 01-27.52-34.53 24 24 0 1033.81 33.81 28.34 28.34 0 01-6.29.72z" fill="#ffa742"/><circle cx="30" cy="30" fill="#c7ecff" r="18.67"/><path d="M38.29 19c-1.12 2.32-3.85 1.32-5.65.91s-4.38-.73-4.46-3.24 3.42-3.33 5.7-2.9 5.54 2.93 4.41 5.23z" fill="#fff" opacity=".5"/><path d="M36.32 47.57a18.67 18.67 0 01-18.39-31.81c-1.62 4.2-.2 11.64 4 18.91s9.94 12.22 14.39 12.9z" fill="#69baf9"/><ellipse cx="30" cy="30" fill="#96ddff" rx="9.33" ry="18.67" transform="rotate(-30 30.002 29.999)"/><g fill="#3d3d63"><path d="M30 5a25 25 0 1025 25A25 25 0 0030 5zm0 48a23 23 0 1123-23 23 23 0 01-23 23z"/><path d="M45.77 22a1 1 0 00.9.55 1 1 0 00.45-.1 1 1 0 00.44-1.35 20.55 20.55 0 00-1.11-1.91 1 1 0 10-1.67 1.1 16.43 16.43 0 01.99 1.71zm2.91 8.77a1 1 0 00-1.09.9 16 16 0 01-.3 2 1 1 0 00.78 1.18h.2a1 1 0 001-.8 19.58 19.58 0 00.33-2.19 1 1 0 00-.92-1.09zm-6.43-13.5a1 1 0 00.69.28 1 1 0 00.72-.31 1 1 0 000-1.41A17.6 17.6 0 0042 14.39 1 1 0 1040.74 16c.52.38 1.03.81 1.51 1.27zm4.9 8.48a16.33 16.33 0 01.37 1.95 1 1 0 001 .87h.13a1 1 0 00.86-1.12 19.74 19.74 0 00-.4-2.17 1 1 0 00-1.21-.73 1 1 0 00-.75 1.2zM35.49 13.21a15.39 15.39 0 011.85.72 1.06 1.06 0 00.42.09 1 1 0 00.91-.58 1 1 0 00-.5-1.33 17.2 17.2 0 00-2.06-.8 1 1 0 00-1.26.63 1 1 0 00.64 1.27zm11.02 24.51a1 1 0 00-.9.56 17.3 17.3 0 01-2.5 3.55 14.64 14.64 0 00.2-3.76 21.62 21.62 0 00-.51-3.53l3-1.71a1 1 0 10-1-1.74l-2.49 1.44a35 35 0 00-2.85-6.82l4.24-2.45a1 1 0 00-1-1.73L38.43 24A35.26 35.26 0 0034 18.1l2.47-1.43a1 1 0 00-1-1.73l-3 1.7a24.18 24.18 0 00-2.8-2.21 15.29 15.29 0 00-3.39-1.69 17.52 17.52 0 013.72-.41h.66a1 1 0 001-1 1 1 0 00-1-1h-.73a19.67 19.67 0 1017.46 28.86.94.94 0 00.12-.47 1 1 0 00-1-1zm-6-4.16L35 36.72l-3.66-6.35 6.33-3.66a33.35 33.35 0 012.84 6.85zm-10.88-2.19l3.67 6.35-5.47 3.15A33.77 33.77 0 0123.3 35zm-7.33 1.92a33.54 33.54 0 01-2.8-6.85l5.5-3.16 3.66 6.35zM36.7 25l-6.33 3.65-3.67-6.37 5.47-3.16A33.33 33.33 0 0136.7 25zM23.27 14.18a10 10 0 015.29 1.92 21 21 0 012.09 1.59l-4.95 2.86-3.6-6.23a4.93 4.93 0 011.17-.14zm-2.9 1.15L24 21.55l-5 2.85c-.73-4.01-.32-7.4 1.37-9.07zm-3.49 2.88a18.56 18.56 0 00.3 7.26l-4.75 2.74a17.52 17.52 0 014.45-10zm-4.52 12.35l5.34-3.08a35.74 35.74 0 002.87 6.81l-6.33 3.65a17.6 17.6 0 01-1.88-7.38zm2.88 9.12L21.57 36A35.12 35.12 0 0026 41.91L20.7 45a17.85 17.85 0 01-5.46-5.32zm14.76 8a17.51 17.51 0 01-7.23-1.57l4.75-2.73a18.45 18.45 0 006.17 3.9 17.38 17.38 0 01-3.69.39zm-.63-5.37l4.93-2.85 3.59 6.22c-2.3.61-5.43-.68-8.52-3.38zm10.25 2.37L36 38.45l5-2.86a20.39 20.39 0 01.34 2.6c.15 2.92-.46 5.2-1.72 6.48z"/></g></svg>