<svg viewBox="0 0 60 60" xmlns="http://www.w3.org/2000/svg"><path d="M0 0h60v60H0z" fill="none"/><circle cx="38.18" cy="28.59" fill="#ffc670" r="4.47"/><path d="M37.06 33.06h2.24a6.7 6.7 0 016.7 6.7H30.36a6.7 6.7 0 016.7-6.7z" fill="#69baf9"/><circle cx="21.82" cy="28.59" fill="#ffc670" r="4.47"/><path d="M20.7 33.06h2.23a6.7 6.7 0 016.7 6.7H14a6.7 6.7 0 016.7-6.7z" fill="#69baf9"/><path d="M48 43.64v4.12H12v-4a149.72 149.72 0 0017.64 1A148.24 148.24 0 0048 43.64z" fill="#f6716f"/><path d="M55.33 42.43h-14v1.86c-3.77.29-7.67.46-11.69.46-3.76 0-7.42-.15-11-.4v-1.92h-14l4.66 4.66-4.63 4.67h14v-4h22.66v4h14l-4.66-4.67z" fill="#f0504d"/><path d="M48 38.43v5.21a148.24 148.24 0 01-18.36 1.11 149.72 149.72 0 01-17.64-1v-5.3z" fill="#f6716f"/><circle cx="30" cy="25.28" fill="#ffdead" r="5.95"/><path d="M30 28.34a6.41 6.41 0 01-5.89-3.85 5.16 5.16 0 00-.06.79 5.95 5.95 0 1011.9 0 5.16 5.16 0 00-.06-.79A6.41 6.41 0 0130 28.34z" fill="#ffc670"/><path d="M28.58 31.23h2.84A8.53 8.53 0 0140 39.76H20a8.53 8.53 0 018.58-8.53z" fill="#96ddff"/><path d="M30 38.43l5.18-6.32a8.49 8.49 0 00-3.76-.88h-2.84a8.49 8.49 0 00-3.86.93z" fill="#edf4ff"/><path d="M29.64 7.24a1 1 0 00-1 1v2a1 1 0 102 0v-2a1 1 0 00-1-1zm-9.01 2.42a1 1 0 00-.37 1.34l1 1.73a1 1 0 101.73-1L22 10a1 1 0 00-1.37-.34zM14 16.26a1 1 0 00.37 1.36l1.73 1a1 1 0 001.37-.36 1 1 0 00-.37-1.37l-1.73-1a1 1 0 00-1.37.37zm24.66-6.6A1 1 0 0139 11l-1 1.73a1 1 0 11-1.73-1l1-1.73a1 1 0 011.39-.34zm6.61 6.6a1 1 0 01-.37 1.36l-1.73 1a1 1 0 11-1-1.73l1.73-1a1 1 0 011.37.37z" fill="#f0504d"/><path d="M48 38.43v5.21a148.24 148.24 0 01-18.36 1.11 149.72 149.72 0 01-17.64-1v-5.3z" fill="#f6716f"/><g fill="#3d3d63"><path d="M52.08 47.09l4-4a1 1 0 00-.71-1.7H49v-3a1 1 0 00-1-1h-1.37A7.75 7.75 0 0042 32.53a5.46 5.46 0 00-5.28-9.2 6.95 6.95 0 00-13.34 0 5.48 5.48 0 00-7 5.26 5.4 5.4 0 001.7 3.94 7.75 7.75 0 00-4.68 4.9H12a1 1 0 00-1 1v3H4.67a1 1 0 00-.67 1.7l4 4-4 4a1 1 0 00.71 1.71h14a1 1 0 001-1v-3h20.62v3a1 1 0 001 1h14a1 1 0 00.67-1.79zm-7.6-9.66h-3.83a9.55 9.55 0 00-1.58-3.38h.22a5.69 5.69 0 015.19 3.38zM37 25.35a3.4 3.4 0 011.23-.23A3.47 3.47 0 1135 30.06a7 7 0 002-4.71zm-1.52 8a7.46 7.46 0 013.15 4.06h-6.52zM30 36.86l-3.63-4.3a7.79 7.79 0 012.22-.33h2.84a7.39 7.39 0 012.12.3zm0-16.53a5 5 0 11-4.95 5 5 5 0 014.95-5zm-2.15 17.1h-6.43a7.45 7.45 0 013.06-4zm-6-12.31a3.4 3.4 0 011.23.23A7 7 0 0025 30.06a3.47 3.47 0 11-3.15-4.94zm-1.11 8.94h.22a9.42 9.42 0 00-1.58 3.37h-3.86a5.69 5.69 0 015.19-3.37zM7.08 50.76l3-3a1 1 0 000-1.41l-3-3H11v4.33a1 1 0 00.49.84l3.57 2.16zM17.67 50l-2.06-1.23h2.06zM13 46.76v-7.33h34v7.33zM42.33 50v-1.24h2.06zm2.61.77l3.57-2.16a1 1 0 00.49-.84v-4.34h3.92l-3 3a1 1 0 000 1.41l3 3z"/><path d="M39.33 42.09H20.67a1 1 0 000 2h18.66a1 1 0 000-2zm-9.69-30.85a1 1 0 001-1v-2a1 1 0 00-2 0v2a1 1 0 001 1zm-8.38 1.51a1 1 0 101.73-1L22 10a1 1 0 00-1.73 1zm-6.87 4.87l1.73 1a1 1 0 001.37-.36 1 1 0 00-.37-1.37l-1.73-1a1 1 0 00-1.37.37 1 1 0 00.37 1.36zm22.27-4.5a1 1 0 001.34-.37L39 11a1 1 0 00-1.73-1l-1 1.73a1 1 0 00.39 1.39zm6.51 5.5l1.73-1a1 1 0 00.37-1.36 1 1 0 00-1.37-.37l-1.73 1a1 1 0 101 1.73z"/></g></svg>