<svg viewBox="0 0 60 60" xmlns="http://www.w3.org/2000/svg"><path d="M0 0v60h60V0z" fill="none"/><path d="M7.33 51.85h9.27V26.83l-9.26 5.45zm48.39-38.03a1 1 0 00-1.09.22l-6.78 6.77a1 1 0 00-.29.71v30.33h8.77v-37.1a1 1 0 00-.61-.93z" fill="#fff6e6"/><path d="M48.56 22.28v29.57H32.58V25.9l7.99 3.61 7.23-7.23z" fill="#96ddff"/><path d="M47.8 22.28l-7.23 7.23-7.99-3.61v2l7.99 3.61 7.23-7.23h.76v-2z" fill="#c7ecff"/><path d="M40.57 45.26l-7.99-3.61v10.2h15.98V38.03h-.76z" fill="#69baf9"/><path d="M32.58 25.9v25.95H16.6V26.83l7.48-4.78z" fill="#f6716f"/><path d="M24.08 22.05l-7.48 4.78v2l7.48-4.78 8.5 3.85v-2z" fill="#f6a2a2"/><path d="M16.6 43.44v8.41h15.98v-9.34l-8.5-3.85z" fill="#f0504d"/><circle cx="24.08" cy="22.05" fill="#edf4ff" r="3.51"/><circle cx="40.57" cy="29.56" fill="#edf4ff" r="3.51"/><g fill="#3d3d63"><path d="M55.33 21.29a1 1 0 001-1v-5.54a1 1 0 00-1-1h-5.54a1 1 0 100 2h3.13l-5.07 5.08L43 25.74a4.46 4.46 0 00-6 1.09L33.06 25a1 1 0 00-.18-.08L28.5 23a4.52 4.52 0 10-8.68.52l-11.49 7V19.7l.45.44a1 1 0 101.41-1.41L8 16.58a1 1 0 00-1-.22 1 1 0 00-.62.93v34.56a1 1 0 001 1h48a1 1 0 00.62-1.71L53.89 49a1 1 0 00-1.42 1.42l.45.44h-3.36V22l4.77-4.78v3.12a1 1 0 001 .95zM40.57 27a2.52 2.52 0 11-2.52 2.52A2.52 2.52 0 0140.57 27zm-16.49-7.5a2.51 2.51 0 11-2.51 2.51 2.51 2.51 0 012.51-2.47zm-1 6.9v3.69a1 1 0 002 0v-3.65a4.48 4.48 0 002.57-1.66l3.92 1.78v24.29h-6.49v-3.34a1 1 0 00-2 0v3.34H17.6V27.18l3.25-2a4.49 4.49 0 002.23 1.26zM8.33 32.85l7.27-4.44v22.44H8.33zm39.23 18h-6v-3.34a1 1 0 00-2 0v3.34h-6V27.47l2.58 1.17a4.63 4.63 0 00-.1.92A4.52 4.52 0 0039.57 34v3.69a1 1 0 002 0V34a4.49 4.49 0 002.8-6.8l3.19-3.2z"/><path d="M24.08 42.72a1 1 0 001-1v-5.8a1 1 0 00-2 0v5.8a1 1 0 001 1z"/></g></svg>