<svg viewBox="0 0 60 60" xmlns="http://www.w3.org/2000/svg"><path d="M0 0h60v60H0z" fill="none"/><path d="M40.13 44.34h-.81a5.9 5.9 0 01-5.89-5.9v-2.62h-6.61v2.62a5.89 5.89 0 01-5.89 5.9h-1.06a8.24 8.24 0 00-8.25 8.24v1.75h36.76v-1.75a8.24 8.24 0 00-8.25-8.24z" fill="#fcfeff"/><path d="M35.41 54.33L34 49.56a1.55 1.55 0 001.53-1.28l.83-4.73a6 6 0 01-2.64-3.2H26.5a5.93 5.93 0 01-2.87 3.33l.81 4.6A1.55 1.55 0 0026 49.56l-1.43 4.77z" fill="#d8e3f0"/><path d="M48.38 51a13.64 13.64 0 01-5.48 1.15H17.1A13.64 13.64 0 0111.62 51v3.29h36.76z" fill="#d8e3f0"/><path d="M40.13 44.34h-.81a5.9 5.9 0 01-5.89-5.9v-2.62h-6.61v2.62a5.89 5.89 0 01-5.89 5.9h-1.06a8.24 8.24 0 00-8.25 8.24v1.75h36.76v-1.75a8.24 8.24 0 00-8.25-8.24z" fill="none"/><path d="M26.72 45.83h6.56l-.69 3.92h-5.18z" fill="#69baf9"/><path d="M36.6 38.98L30 45.06l4.46 4.46 4.01-7.32zm-13.2 0l6.6 6.08-4.46 4.46-4.01-7.32z" fill="#fcfeff"/><path d="M32.59 54.33l-1.37-4.58h-2.44l-1.37 4.58z" fill="#69baf9"/><path d="M41 19.16v11.2a10.89 10.89 0 01-11 10.78 10.89 10.89 0 01-11-10.78v-11.2" fill="#ffdead"/><path d="M37.71 19.16v11.2A10.82 10.82 0 0128.36 41a11.11 11.11 0 001.64.14 10.89 10.89 0 0011-10.78v-11.2z" fill="#ffc670"/><rect fill="#f6716f" height="4.28" rx="2.14" width="31.31" x="14.35" y="15.56"/><path d="M43.51 15.56h-4.23a2.15 2.15 0 010 4.29h4.23a2.15 2.15 0 000-4.29z" fill="#f0504d"/><path d="M16.49 15.56h4.23a2.15 2.15 0 000 4.29h-4.23a2.15 2.15 0 010-4.29z" fill="#f6a2a2"/><path d="M35.1 5.87L31.86 7a5.65 5.65 0 01-3.72 0L24.9 5.87A3.69 3.69 0 0020 9.36v6.2h20v-6.2a3.69 3.69 0 00-4.9-3.49z" fill="#f6716f"/><path d="M35.1 5.87l-.63.21a3.7 3.7 0 012 3.28v6.2H40v-6.2a3.69 3.69 0 00-4.9-3.49z" fill="#f0504d"/><path d="M24.9 5.87l.63.21a3.7 3.7 0 00-2 3.28v6.2H20v-6.2a3.69 3.69 0 014.9-3.49z" fill="#f6a2a2"/><path d="M20.01 11.94h19.98v3.62H20.01z" fill="#fcfeff"/><path d="M19 29.8v-6.86h-2.17a1.87 1.87 0 00-1.94 1.79V26A4 4 0 0019 29.8zm22 0v-6.86h2.18a1.87 1.87 0 011.94 1.79V26A4 4 0 0141 29.8z" fill="#ffc670"/><g fill="#3d3d63"><path d="M52.06 53.33h-2.68v-.75a9.25 9.25 0 00-9.25-9.24H39l.35-.63a1 1 0 000-1l-1.44-2.5a11.69 11.69 0 004.09-8.5A4.9 4.9 0 0046.11 26v-1.27a2.87 2.87 0 00-2.94-2.79H42v-1.09h1.52a3.15 3.15 0 000-6.29H41v-5.2a4.69 4.69 0 00-6.21-4.44L31.54 6a4.78 4.78 0 01-3.08 0l-3.24-1.08A4.69 4.69 0 0019 9.36v5.2h-2.51a3.15 3.15 0 000 6.29H18v1.09h-1.17a2.87 2.87 0 00-2.94 2.79V26A4.9 4.9 0 0018 30.71a11.69 11.69 0 004.08 8.49l-1.44 2.5a1 1 0 000 1l.36.65h-1.13a9.25 9.25 0 00-9.25 9.24v.75H7.94a1 1 0 100 2h44.12a1 1 0 000-2zM18 28.64A2.85 2.85 0 0115.89 26v-1.27a.87.87 0 01.94-.79H18zm19.32 13.57l-3.09 5.66-2.79-2.78 4.92-4.53zm5.85-18.27a.87.87 0 01.94.79V26A2.85 2.85 0 0142 28.64v-4.7zM21 9.36a2.65 2.65 0 011.13-2.19 2.69 2.69 0 012.44-.36l3.23 1.11a6.84 6.84 0 004.38 0l3.23-1.11a2.69 2.69 0 012.44.36A2.65 2.65 0 0139 9.36v1.58H21zm0 3.58h18v1.62H21zm-4.52 5.91a1.15 1.15 0 010-2.29h27a1.15 1.15 0 010 2.29zM20 30.36v-9.51h20v9.51a10 10 0 01-20 0zm10 11.78a12.75 12.75 0 001.87-.14L30 43.7 28.13 42a12.75 12.75 0 001.87.14zm-1.44 3l-2.79 2.78-3.09-5.66 1-1.65zm-1.89 8.24H12.62v-.75a7.25 7.25 0 017.25-7.24h1.06a7 7 0 001.12-.1L24.66 50a1 1 0 00.73.52h.15a1 1 0 00.7-.3l.22-.21a1 1 0 00.95.73zm2.09 0l.77-2.58h.94l.77 2.58zm3-4.58h-3.5l-.08-.45L30 46.48l1.83 1.82zm15.63 4.58H33.33l-.77-2.58a1 1 0 00.95-.73l.22.21a1 1 0 00.7.3h.15a1 1 0 00.73-.52L38 45.19a6.71 6.71 0 001.34.15h.81a7.25 7.25 0 017.25 7.24z"/><path d="M26.08 32.5a1 1 0 00-.52 1.32 4.84 4.84 0 008.88 0A1 1 0 0032.6 33a2.83 2.83 0 01-5.2 0 1 1 0 00-1.32-.5zm-.52-5.9a1 1 0 001-1v-1.15a1 1 0 00-2 0v1.15a1 1 0 001 1zm8.88 0a1 1 0 001-1v-1.15a1 1 0 00-2 0v1.15a1 1 0 001 1z"/></g></svg>