<svg viewBox="0 0 60 60" xmlns="http://www.w3.org/2000/svg"><path d="M0 0h60v60H0z" fill="none"/><path d="M12 50.44h33.33" fill="#fff"/><path d="M8 12.74h41.33a2 2 0 012 2v25.34A1.33 1.33 0 0150 41.41H7.33A1.33 1.33 0 016 40.08V14.74a2 2 0 012-2z" fill="#fcfeff"/><path d="M51.33 14.74v25.33A1.33 1.33 0 0150 41.41H27.8l10.44-28.67h11.09a2 2 0 012 2z" fill="#edf4ff"/><path d="M42 50.44H15.33a3.34 3.34 0 013.34-3.33h20A3.33 3.33 0 0142 50.44z" fill="#fff"/><path d="M35.07 41.41h-12.8l-1.6 5.7h16z" fill="#c3cfde"/><path d="M51.33 14.74v4H6v-4a2 2 0 012-2h41.33a2 2 0 012 2z" fill="#96ddff"/><path d="M49.33 12.74H38.24l-2.18 6h15.27v-4a2 2 0 00-2-2z" fill="#69baf9"/><path d="M42 50.44H15.33a3.34 3.34 0 013.34-3.33h20A3.33 3.33 0 0142 50.44z" fill="#edf4ff"/><path d="M45.83 52.92a9.29 9.29 0 001.5-.12 1.28 1.28 0 011.33.62 1.29 1.29 0 001.77.47l2.11-1.22a1.3 1.3 0 00.46-1.76 1.3 1.3 0 01.12-1.47 9.39 9.39 0 001.5-2.61 1.29 1.29 0 011.24-.83 1.3 1.3 0 001.3-1.3v-2.44a1.3 1.3 0 00-1.3-1.3 1.29 1.29 0 01-1.21-.84 9.53 9.53 0 00-1.5-2.61 1.28 1.28 0 01-.15-1.46 1.31 1.31 0 00-.48-1.78l-2.11-1.22a1.29 1.29 0 00-1.77.48 1.29 1.29 0 01-1.33.63 8.72 8.72 0 00-3 0 1.29 1.29 0 01-1.31-.63 1.3 1.3 0 00-1.77-.48l-2.11 1.22a1.31 1.31 0 00-.48 1.78 1.28 1.28 0 01-.12 1.46A9.53 9.53 0 0037 40.12a1.29 1.29 0 01-1.2.88 1.3 1.3 0 00-1.3 1.3v2.4a1.3 1.3 0 001.3 1.3 1.29 1.29 0 011.21.83 9.39 9.39 0 001.5 2.61 1.3 1.3 0 01.12 1.47 1.3 1.3 0 00.48 1.77l2.11 1.22a1.29 1.29 0 001.78-.47 1.28 1.28 0 011.33-.62 9.29 9.29 0 001.5.11z" fill="#79deb4"/><path d="M57.16 42.25v2.44a1.3 1.3 0 01-1.3 1.3 1.3 1.3 0 00-1.21.84 9.53 9.53 0 01-1.5 2.61 1.32 1.32 0 00-.29.82 1.23 1.23 0 00.17.64 1.31 1.31 0 01-.48 1.78l-2.11 1.22a1.29 1.29 0 01-1.77-.48 1.29 1.29 0 00-1.33-.63 8.72 8.72 0 01-3 0 1.29 1.29 0 00-1.33.63 1.3 1.3 0 01-1.77.48l-2.11-1.22a1.31 1.31 0 01-.48-1.78 1.22 1.22 0 00.14-.36l14.1-14.13a1.27 1.27 0 00.26 1.1 9.53 9.53 0 011.5 2.61 1.3 1.3 0 001.21.84 1.3 1.3 0 011.3 1.29z" fill="#62cca1"/><circle cx="45.83" cy="43.48" fill="#fcfeff" r="3.54"/><g fill="#3d3d63"><circle cx="9.33" cy="15.74" r="1"/><circle cx="16" cy="15.74" r="1"/><circle cx="12.67" cy="15.74" r="1"/><path d="M20 30.25l3-3a1 1 0 10-1.42-1.42l-3.72 3.73a1 1 0 000 1.41l3.72 3.73a1 1 0 001.42 0 1 1 0 000-1.41zm14.32 4.43a1 1 0 001.41 0L39.46 31a1 1 0 000-1.41l-3.73-3.73a1 1 0 00-1.41 1.42l3 3-3 3a1 1 0 000 1.4zM31 26.15a1 1 0 00-1.37.37L25.94 33a1 1 0 101.73 1l3.73-6.45a1 1 0 00-.4-1.4z"/><path d="M55.86 40a.29.29 0 01-.27-.19 10.43 10.43 0 00-1.67-2.89.29.29 0 010-.33 2.3 2.3 0 00-.84-3.14l-.75-.45V14.74a3 3 0 00-3-3H8a3 3 0 00-3 3v25.34a2.34 2.34 0 002.33 2.33H21l-1 3.7h-1.33a4.33 4.33 0 00-4.21 3.33H12a1 1 0 000 2h25.47a2.12 2.12 0 00.07.71 2.25 2.25 0 001.07 1.4l2.11 1.22a2.3 2.3 0 003.14-.85.31.31 0 01.31-.14 9.74 9.74 0 003.32 0 .3.3 0 01.31.15 2.3 2.3 0 002 1.14 2.27 2.27 0 001.15-.3l2.11-1.22a2.29 2.29 0 001.07-1.4 2.26 2.26 0 00-.23-1.74.3.3 0 010-.34 10.52 10.52 0 001.67-2.88.28.28 0 01.27-.19 2.31 2.31 0 002.3-2.3v-2.44A2.3 2.3 0 0055.86 40zM7 14.74a1 1 0 011-1h41.33a1 1 0 011 1v3H7zm.33 25.67a.33.33 0 01-.33-.33V19.74h43.33V32a2.29 2.29 0 00-2.53 1 .29.29 0 01-.3.13 10.27 10.27 0 00-3.32 0 .28.28 0 01-.3-.13 2.29 2.29 0 00-3.14-.84l-2.11 1.22a2.24 2.24 0 00-1.07 1.39 2.32 2.32 0 00.22 1.75.27.27 0 010 .33 10.43 10.43 0 00-1.67 2.89.29.29 0 01-.27.19 2.29 2.29 0 00-1.36.45zM34 46.11H22l1-3.7h10.5v2.29a2.32 2.32 0 00.5 1.41zm-15.32 2h17.8a11 11 0 00.78 1.33H16.57a2.33 2.33 0 012.1-1.33zm37.48-3.41a.3.3 0 01-.3.3 2.31 2.31 0 00-2.15 1.48 8.46 8.46 0 01-1.34 2.33 2.31 2.31 0 00-.21 2.6.26.26 0 010 .22.29.29 0 01-.14.19L49.94 53a.3.3 0 01-.41-.12 2.31 2.31 0 00-2.37-1.11 7.92 7.92 0 01-2.66 0 2.31 2.31 0 00-2.37 1.12.31.31 0 01-.41.11l-2.11-1.22a.29.29 0 01-.14-.19.26.26 0 010-.22 2.33 2.33 0 00-.21-2.6 8.35 8.35 0 01-1.35-2.33A2.28 2.28 0 0035.8 45a.3.3 0 01-.3-.3v-2.44a.29.29 0 01.3-.3 2.3 2.3 0 002.14-1.48 8.21 8.21 0 011.35-2.33 2.33 2.33 0 00.21-2.6.28.28 0 010-.23.26.26 0 01.14-.18l2.11-1.22a.28.28 0 01.15 0 .3.3 0 01.25.14 2.32 2.32 0 002.37 1.12 7.92 7.92 0 012.66 0A2.33 2.33 0 0049.53 34a.29.29 0 01.4-.1l2.11 1.22a.26.26 0 01.14.18.28.28 0 010 .23 2.3 2.3 0 00.21 2.59 8.51 8.51 0 011.34 2.34A2.32 2.32 0 0055.86 42a.29.29 0 01.3.3z"/><path d="M45.83 38.94a4.54 4.54 0 104.54 4.54 4.54 4.54 0 00-4.54-4.54zm0 7.08a2.54 2.54 0 112.54-2.54A2.54 2.54 0 0145.83 46z"/></g></svg>