<svg viewBox="0 0 60 60" xmlns="http://www.w3.org/2000/svg"><path d="M0 0h60v60H0z" fill="none"/><path d="M12.67 9.72h31.87a2.8 2.8 0 012.8 2.8v35a2.8 2.8 0 01-2.8 2.8H15.46a2.8 2.8 0 01-2.8-2.8V9.72h.01z" fill="#ffe3ba"/><path d="M15.56 6.33A2.81 2.81 0 0012.67 9v38.63a2.8 2.8 0 012.89-2.71h3.61V6.33z" fill="#ffc670"/><path d="M50.11 45.38a2 2 0 01-2.83 0l-5.66-5.66L43 38.31l1.41-1.42 5.66 5.66a2 2 0 01.04 2.83z" fill="#f6716f"/><circle cx="33" cy="28.27" fill="#fff6e6" r="10"/><g fill="#3d3d63"><path d="M23.17 17.83h4.25a1 1 0 100-2h-4.25a1 1 0 000 2zm15.25 23.5h-2.84a1 1 0 000 2h2.84a1 1 0 000-2zm-7.37 0h-7.88a1 1 0 000 2h7.88a1 1 0 000-2z"/><path d="M50.82 41.84l-2.49-2.48V12.51a3.79 3.79 0 00-3.79-3.79H20.17V6.33a1 1 0 00-1-1h-3.61A3.81 3.81 0 0011.67 9v38.5a3.79 3.79 0 003.79 3.79h29.08a3.79 3.79 0 003.79-3.79v-.61a3 3 0 002.49-5.09zM13.67 9a1.81 1.81 0 011.89-1.71h2.61v36.5h-2.61a4 4 0 00-1.89.47zm30.87 40.33H15.46a1.75 1.75 0 11.1-3.5h3.61a1 1 0 001-1V10.72h24.37a1.79 1.79 0 011.79 1.79v24.85l-1.17-1.17a1 1 0 00-1.42 0l-.7.7-1.59-1.59A11 11 0 1024.1 21.83h-.93a1 1 0 00-1 1 1 1 0 00.79 1 10.94 10.94 0 001.62 11.54h-1.41a1 1 0 000 2h3.61A11 11 0 0040 36.72l1.59 1.59-.7.71a1 1 0 000 1.41l5.41 5.42v1.69a1.79 1.79 0 01-1.76 1.79zM24 28.27a9 9 0 119 9 9 9 0 01-9-9zm25.4 16.4a1 1 0 01-1.41 0l-5-5 1.41-1.41 4.95 4.95a1 1 0 01.05 1.46z"/><path d="M36 32.58a1 1 0 00-1-1h-1v-5.93h1.67V26a1 1 0 102 0v-1.3a1 1 0 00-1-1h-7.34a1 1 0 00-1 1V26a1 1 0 102 0v-.3H32v5.93h-.95a1 1 0 100 2H35a1 1 0 001-1.05z"/></g></svg>