<svg viewBox="0 0 60 60" xmlns="http://www.w3.org/2000/svg"><path d="M47.71 9.37H12.33A2.3 2.3 0 0010 11.66v41.92a2.3 2.3 0 002.29 2.3h21.4a1 1 0 00.78-1.59 13.57 13.57 0 01-2.28-4.48 1 1 0 00-.3-.46l-.24-.23a4.47 4.47 0 01-1.32-3.18 15 15 0 017.49-13 4.44 4.44 0 013.4-.45l.34.1a1.06 1.06 0 00.56 0 13.35 13.35 0 016.64.08 1 1 0 001.24-.89V11.66a2.3 2.3 0 00-2.29-2.29z" fill="#ffdead"/><path d="M0 0h60v60H0z" fill="none"/><path d="M33.29 9V7a2 2 0 00-2-2h-2.58a2 2 0 00-2 2v2h-3.24v4h13.1V9z" fill="#96ddff"/><circle cx="45.3" cy="45.94" fill="#79deb4" r="9.17"/><path d="M34.83 45.94H45.3l-5.24-9.08a10.46 10.46 0 00-5.23 9.08z" fill="#fcfeff"/><path d="M44.43 15.92H15.61a1 1 0 00-1 1V51a1 1 0 001 1h15.93a1 1 0 00.8-.42 1 1 0 00.12-.9c-.09-.27-.19-.54-.27-.82a1 1 0 00-.3-.46l-.24-.23a4.47 4.47 0 01-1.32-3.18 15 15 0 017.49-13 4.44 4.44 0 013.4-.45l.34.1a1.06 1.06 0 00.56 0 12.77 12.77 0 012.37-.33 1 1 0 00.92-1V16.9a1 1 0 00-.98-.98z" fill="#fff6e6"/><circle cx="15.61" cy="23.62" fill="#ffa742" r="7.86"/><g fill="#3d3d63"><path d="M34 53.91H12.33a.32.32 0 01-.32-.33v-21.9a8.48 8.48 0 002.62.72V51a1 1 0 001 1h12.26a1 1 0 000-2h-11.3V32.4a8.83 8.83 0 005.74-14.52h21.12v13.43a1 1 0 002 0V16.9a1 1 0 00-1-1H20a8.73 8.73 0 00-8-.35v-3.89a.32.32 0 01.32-.33h10.17V13a1 1 0 001 1h13.1a1 1 0 001-1v-1.67h10.12a.32.32 0 01.32.33v20.59a1 1 0 002 0V11.66a2.3 2.3 0 00-2.29-2.29H37.55V9a1 1 0 00-1-1h-2.27V7a3 3 0 00-3-2.95h-2.57a3 3 0 00-2.95 3v1h-2.29a1 1 0 00-1 1v.33H12.33A2.3 2.3 0 0010 11.66v5.09a8.84 8.84 0 000 13.73v23.1a2.3 2.3 0 002.29 2.3H34a1 1 0 000-2zM28.71 6.09h2.62a1 1 0 011 1v1h-4.6v-1a1 1 0 01.98-1zM24.45 10h11.14v2H24.45zM8.73 23.62a6.88 6.88 0 116.9 6.87 6.89 6.89 0 01-6.9-6.87z"/><path d="M45.3 35.79a10.23 10.23 0 00-4.19.92l-.2-.34a1 1 0 00-1.34-.37 11.51 11.51 0 00-5.72 9.93 1 1 0 001 1h.37A10.15 10.15 0 1045.3 35.79zm-5.57 2.46L43.6 45h-7.73a9.54 9.54 0 013.86-6.75zm5.57 15.88a8.19 8.19 0 01-8.12-7.21h8.12a1 1 0 00.85-1.47l-4.06-7a8.19 8.19 0 113.21 15.68zM24.33 34.49a1 1 0 00-1.39 0L20 37.39a1 1 0 000 1.39.94.94 0 00.69.29 1 1 0 00.7-.29l2.2-2.2 2 2a1 1 0 001.39 0l3.77-3.78 1.72 1.72a1 1 0 001.39 0L40 30.47a1 1 0 000-1.39 1 1 0 00-1.39 0l-5.38 5.39-1.72-1.72a1 1 0 00-1.39 0l-3.78 3.78zm-11.4-9.93a2.59 2.59 0 002 .26l1.9-.51a.63.63 0 01.5.07.59.59 0 01.3.39.66.66 0 01-.46.81l-2.85.76a1 1 0 00.26 1.93c.08 0 1.2-.29 1.2-.29l.09.32a1 1 0 00.94.73.78.78 0 00.26 0 1 1 0 00.69-1.2l-.08-.32a2.62 2.62 0 10-1.36-5.06l-1.89.51a.67.67 0 01-.5-.06.69.69 0 01-.31-.4.66.66 0 01.47-.8l2.84-.77a1 1 0 00.7-1.2A1 1 0 0016.4 19l-.94.26-.09-.32a1 1 0 00-1.9.51l.09.32a2.62 2.62 0 00-.63 4.8zM39.33 21H27.54a1 1 0 100 2h11.79a1 1 0 100-2zm0 3.27h-7.21a1 1 0 000 2h7.21a1 1 0 000-2z"/></g></svg>