<svg viewBox="0 0 60 60" xmlns="http://www.w3.org/2000/svg"><path d="M0 0h60v60H0z" fill="none"/><path d="M12.67 50.63H46" fill="#fff"/><path d="M35.73 41.6h-12.8l-1.6 5.7h16z" fill="#d8e3f0"/><path d="M50 12.93H20v24H6.67v3.33A1.33 1.33 0 008 41.6h33.33v-8.82a1.34 1.34 0 011.34-1.34H52V14.93a2 2 0 00-2-2zM44.17 24.1a3.34 3.34 0 113.33-3.34 3.35 3.35 0 01-3.33 3.34z" fill="#edf4ff"/><path d="M30.16 36.93h11.17v-4.15a1.34 1.34 0 011.34-1.34H52V14.93a2 2 0 00-.8-1.59H36.48zm14-19.5a3.34 3.34 0 11-3.34 3.33 3.33 3.33 0 013.35-3.33zm-35.49-4.5H20v24H6.67v-22a2 2 0 012-2z" fill="#d8e3f0"/><path d="M41.33 36.93H6.67v3.33A1.33 1.33 0 008 41.6h33.33z" fill="#96ddff"/><path d="M41.33 37.01h-8.39l-1.21 4.51v.08h9.6z" fill="#69baf9"/><path d="M42.67 50.63H16a3.33 3.33 0 013.33-3.33h20a3.34 3.34 0 013.34 3.33z" fill="#edf4ff"/><rect fill="#edf4ff" height="21.33" rx="1.33" width="13.33" x="41.33" y="31.44"/><path d="M45.73 48.66l4.54-16.92h3.92v16.92z" fill="#d8e3f0"/><path d="M41.33 49h13.34v2.4a1.33 1.33 0 01-1.33 1.33H42.67a1.33 1.33 0 01-1.33-1.33V49h-.01z" fill="#96ddff"/><path d="M47 52.78h6.3a1.34 1.34 0 001.34-1.34V49H48z" fill="#69baf9"/><circle cx="44.17" cy="20.76" fill="#ffc670" r="3.33"/><g fill="#3d3d63"><path d="M53.33 30.44H53V14.93a3 3 0 00-3-3H8.67a3 3 0 00-3 3v25.33A2.33 2.33 0 008 42.6h13.61l-1 3.7h-1.28a4.32 4.32 0 00-4.2 3.33h-2.46a1 1 0 000 2h27.68a2.33 2.33 0 002.32 2.15h10.66a2.34 2.34 0 002.34-2.34V32.78a2.34 2.34 0 00-2.34-2.34zM21 13.93h29a1 1 0 011 1v15.51h-8.33a2.34 2.34 0 00-2.34 2.34v3.15H21zm19.33 32.49a4.64 4.64 0 00-1-.12h-1.24l-1-3.7h3.28zM7.67 14.93a1 1 0 011-1H19v22H7.67zM8 40.6a.34.34 0 01-.33-.34v-2.33h32.66v2.67zm28 5.7H22.65l1-3.7H35zm-16.68 2h20a2.26 2.26 0 011 .23v1.1H17.23a2.33 2.33 0 012.1-1.33zm34.34 3.14a.34.34 0 01-.34.34H42.67a.34.34 0 01-.34-.34V50h11.34zm0-3.4H42.33V32.78a.34.34 0 01.34-.34h10.66a.34.34 0 01.34.34z"/><path d="M50 33.78h-4a1 1 0 000 2h4a1 1 0 000-2zM16.67 17.1H14a1 1 0 000 2h2.67a1 1 0 000-2z"/><circle cx="10.33" cy="18.1" r="1"/><path d="M16.67 22.43H14a1 1 0 000 2h2.67a1 1 0 000-2zm0 3.33H14a1 1 0 000 2h2.67a1 1 0 000-2z"/><circle cx="10.33" cy="23.43" r="1"/><path d="M44.17 25.1a4.34 4.34 0 10-4.34-4.34 4.34 4.34 0 004.34 4.34zm0-6.67a2.34 2.34 0 11-2.34 2.33 2.34 2.34 0 012.34-2.33zM24.83 22.5h6a1 1 0 000-2h-6a1 1 0 000 2zm8.89 1.33h-8.89a1 1 0 000 2h8.89a1 1 0 000-2zm3-6.73H24.83a1 1 0 000 2h11.89a1 1 0 000-2zm-6.39 14.66h-5.5a1 1 0 000 2h5.5a1 1 0 100-2zm-5.5-1.33h2.34a1 1 0 000-2h-2.34a1 1 0 000 2z"/></g></svg>