<svg viewBox="0 0 60 60" xmlns="http://www.w3.org/2000/svg"><path d="M0 0h60v60H0z" fill="none"/><path d="M33.09 19.11a7.79 7.79 0 006.48-2.22l.32-.32L50.42 27.1l-1.24 1.24a8.25 8.25 0 00-2.26 4.24 8.28 8.28 0 01-2.25 4.24L34.24 47.24l-9.72-9.72-4.19-4.18-2.87-2.87 9.15-9.15a7.75 7.75 0 016.48-2.21z" fill="#ffdead"/><path d="M46.58 33.81c.75-2.5-7.76-5.89-7.76-5.89l-6-1.84-.82 2.25 4.79 4.86L40 39.13l2 .37 2.69-2.68a8.3 8.3 0 001.89-3.01z" fill="#ffc670"/><path d="M33.09 19.11a7.79 7.79 0 006.48-2.22l.32-.32L50.42 27.1l-1.24 1.24a8.25 8.25 0 00-2.26 4.24 8.28 8.28 0 01-2.25 4.24L34.24 47.24l-9.72-9.72-4.19-4.18-2.87-2.87 9.15-9.15a7.75 7.75 0 016.48-2.21z" fill="none"/><rect fill="#96ddff" height="20.5" rx="2" transform="rotate(45 12.668 19.657)" width="6.31" x="9.52" y="9.41"/><path d="M6.66 21.21l4.46 4.46-2 2a2 2 0 01-2.83 0l-1.68-1.58a2 2 0 010-2.83z" fill="#69baf9"/><rect fill="none" height="20.5" rx="2" transform="rotate(45 12.668 19.657)" width="6.31" x="9.52" y="9.41"/><path d="M31.06 24.73l-3.79 3.78-3.92-3.92L27.94 20l-4-.5a3 3 0 01-1.75-.86l-2.06-2.06L9.58 27.1l3.28 3.28a4.15 4.15 0 011.08 1.87A10.55 10.55 0 0016.67 37l9.06 9.07 9.14-9.14 4.19-4.19z" fill="#fff6e6"/><rect fill="#ffc670" height="20.5" rx="2" transform="rotate(135 47.33 19.663)" width="6.31" x="44.18" y="9.41"/><path d="M53.34 21.21l-4.46 4.46 2 2a2 2 0 002.83 0l1.63-1.63a2 2 0 000-2.83z" fill="#ff9a42"/><rect fill="none" height="20.5" rx="2" transform="rotate(135 47.33 19.663)" width="6.31" x="44.18" y="9.41"/><g fill="#fff6e6"><path d="M33.73 27.4l10.15 10.14a2.35 2.35 0 010 3.33 2.37 2.37 0 01-3.34 0L30.4 30.73"/><path d="M30.4 30.73L43.17 43.5a2.35 2.35 0 010 3.33 2.35 2.35 0 01-3.33 0L27.07 34.06"/><path d="M27.07 34.06L37.21 44.2a2.37 2.37 0 010 3.34 2.35 2.35 0 01-3.33 0L23.74 37.39m0 0L31.33 45a2.35 2.35 0 010 3.33 2.35 2.35 0 01-3.33 0l-7.59-7.6"/></g><g fill="#ffdead"><circle cx="18.93" cy="39.24" r="2.36"/><circle cx="22.26" cy="42.57" r="2.36"/><circle cx="25.59" cy="45.9" r="2.36"/><path d="M39.23 27.94a12.64 12.64 0 01-5.87-1.6 3.77 3.77 0 00-4.51.59l-3.31 3.31a2.76 2.76 0 01-3.92 0 2.76 2.76 0 010-3.92l5.21-5.22"/></g><path d="M56.08 22.58L44.41 10.91a3 3 0 00-4.2 0l-1.63 1.63a3 3 0 00-.13 4.05 6.84 6.84 0 01-5.24 1.55 8.83 8.83 0 00-5.08.91h-.07l-4-.51a2 2 0 01-1.18-.58l-1.33-1.33a3 3 0 00-.11-4.07l-1.63-1.63a3 3 0 00-4.2 0L3.92 22.58a3 3 0 000 4.2l1.63 1.63a3 3 0 004.07.11l2.56 2.55A3.31 3.31 0 0113 32.5a11.52 11.52 0 003 5.17 3.32 3.32 0 002.93 4.88 3.31 3.31 0 003.33 3.33 3.37 3.37 0 001 2.36 3.3 3.3 0 003.91.57l.18.18a3.31 3.31 0 005.46-1.2l.41.41a3.32 3.32 0 004.71 0 3.15 3.15 0 00.73-1.2l.49.49a3.33 3.33 0 004.71-4.71l-.49-.49a3.15 3.15 0 001.19-.76 3.3 3.3 0 001-2.35 3.25 3.25 0 00-.38-1.51l.19-.2a9.1 9.1 0 002.53-4.73 7.16 7.16 0 012-3.74l.51-.51a3 3 0 004.07-.11l1.63-1.63a3 3 0 00-.03-4.17zM6.93 27L5.3 25.41a1 1 0 010-1.41L17 12.29a1 1 0 011.45 0L20 13.92a1 1 0 010 1.45L8.38 27a1 1 0 01-1.45 0zM18 40.22a1.39 1.39 0 010-2 1.39 1.39 0 011.95 0 1.38 1.38 0 01-1.95 2zm3.33 3.33a1.38 1.38 0 011-2.36 1.35 1.35 0 011 .4 1.4 1.4 0 010 2 1.41 1.41 0 01-2.05-.04zm3.33 3.33a1.38 1.38 0 010-2 1.41 1.41 0 011-.4 1.38 1.38 0 11-1 2.36zm18.58-6.69a1.43 1.43 0 01-2 0L31.09 30a1 1 0 10-1.38 1.38l12.77 12.81a1.39 1.39 0 01.41 1 1.36 1.36 0 01-.41 1 1.39 1.39 0 01-1.95 0L27.76 33.37a1 1 0 00-1.38 1.38l10.15 10.14a1.39 1.39 0 01-2 2L24.43 36.7a1 1 0 00-1.38 1.38l7.6 7.6a1.38 1.38 0 11-2 2l-.18-.18a3.3 3.3 0 00-2.93-4.87 3.26 3.26 0 00-3.33-3.3 3.31 3.31 0 00-4.87-3A9.56 9.56 0 0114.88 32a5 5 0 00-1.33-2.3L11 27.16 20.16 18l1.32 1.32a4 4 0 002.31 1.13l2.06.26-4.92 4.92a3.75 3.75 0 105.3 5.3l3.31-3.31a2.77 2.77 0 012.27-.77l11.38 11.38a1.38 1.38 0 01.4 1 1.39 1.39 0 01-.4.96zm2.76-7.8a7.27 7.27 0 01-2 3.74l-.07.07-7.73-7.71a13.24 13.24 0 003 .42.93.93 0 001-.95 1 1 0 00-1-1 11.79 11.79 0 01-5.41-1.48 4.76 4.76 0 00-5.67.75l-3.31 3.31a1.8 1.8 0 11-2.5-2.54l5-5A6.86 6.86 0 0133 20.07 8.78 8.78 0 0039.81 18L49 27.16l-.5.49a9.15 9.15 0 00-2.5 4.74zm8.73-7L53.07 27a1 1 0 01-1.45 0L40 15.37a1 1 0 010-1.45l1.63-1.63a1 1 0 011.45 0L54.7 24a1 1 0 010 1.41z" fill="#3d3d63"/></svg>