<svg xmlns="http://www.w3.org/2000/svg" width="1150.488" height="554"><path data-name="Rectangle 1" fill="none" d="M.12 0h1141v554H.12z"/><g data-name="Group 1"><path data-name="Path 1" d="M182.356 181.637h126.205c-.191-16.858-9.083-31.468-22.072-38.89a9.469 9.469 0 001.294-4.733v-1.878a9.744 9.744 0 00-3.694-7.576 11.751 11.751 0 00-7.358-2.54h-120.41v5.027a4.73 4.73 0 01-4.615 4.883c-.5-.015-1.023-.015-1.529-.015-72.284 0-130.877 62.971-130.877 140.643s58.592 140.637 130.877 140.637c.505 0 1.025 0 1.529-.012a4.722 4.722 0 014.615 4.894v5.011h120.407a11.617 11.617 0 007.358-2.534 9.741 9.741 0 003.694-7.573v-1.885a9.516 9.516 0 00-1.084-4.409c12.877-7.457 21.671-22.022 21.862-38.812h-126.2a45.99 45.99 0 0014.28 33.111h-35.877a9.076 9.076 0 00-7.866-7.582l-.424-.094-1.388.013c-31.044 0-59.1-13.511-79.454-35.371s-32.912-52.033-32.915-85.393 12.571-63.508 32.915-85.381 48.419-35.364 79.462-35.364h.983a9.045 9.045 0 008.687-7.676h36.3a45.9 45.9 0 00-14.705 33.499z" fill="#4a4a4a"/><path data-name="Path 2" d="M166.54 131.046v-9.5a4.911 4.911 0 00-4.814-4.911c-.6-.01-1.189-.01-1.788-.01a159.936 159.936 0 100 319.872c.6 0 1.19-.012 1.788-.025a4.895 4.895 0 004.814-4.9v-9.5a4.888 4.888 0 00-4.96-4.89c-.541.012-1.1.012-1.643.012a140.641 140.641 0 010-281.282c.543 0 1.1 0 1.643.015a4.9 4.9 0 004.96-4.881z" fill="#be793a"/><path data-name="Path 3" d="M249.22 445.072a16.315 16.315 0 0016.313-16.128h-49.564a16.317 16.317 0 0016.319 16.128z" fill="#616e7d"/><path data-name="Path 4" d="M265.533 124.129A16.321 16.321 0 00249.22 108h-16.932a16.323 16.323 0 00-16.318 16.129z" fill="#616e7d"/><path data-name="Path 5" d="M172.922 368.982h136.076v-16.438a4.65 4.65 0 00-4.649-4.658H177.565a4.646 4.646 0 00-4.647 4.658z" fill="#be793a"/><path data-name="Path 6" d="M177.565 205.909h126.784a4.648 4.648 0 004.649-4.646v-16.45H172.922v16.45a4.644 4.644 0 004.643 4.646z" fill="#be793a"/><path data-name="Path 7" d="M495.588 293.506l-3.54 4.6 2.832 8.5-4.6 5.31-1.77 7.434-1.062 1.77.708 1.77q0 4.956-2.478 7.434l-.708 1.062v1.416a11.752 11.752 0 011.062 4.6 6.075 6.075 0 01-.356 2.474l.354 1.416-1.416 3.894 1.062 4.248-2.832 2.832 1.062 4.956 2.124 2.478-3.186 2.832v5.664l-2.478 5.664 1.77 5.664-2.124 2.832 3.54 2.478-4.956 8.142-.354 1.062 3.54.708-2.478 8.142v1.416a16.8 16.8 0 01-.354 3.894l.354 1.062 5.664.708 4.6 7.08-2.478 5.31 3.894-.354a22.8 22.8 0 012.478 7.434l-5.31 5.31a30.5 30.5 0 01-7.08 4.956l-6.018 3.186-1.77-1.77-3.54 2.124-10.972-12.74v-6.018a45.811 45.811 0 01-2.124-13.1v-2.124l-2.128-20.886 2.832-14.868-2.124-8.5-6.018 9.912-3.186 9.2-2.832 1.416-4.952 7.798-8.85 8.142-2.478 4.248-7.792 6.726-1.77 4.6-11.328 7.08-12.032 13.454-6.726 1.416-4.6 3.54q-8.852-.354-13.454-6.726-15.93-7.788-16.638-22.302l1.77-1.062-.354-2.124-.354-4.25-2.124-4.6 2.124-4.956.708-7.434 2.478-11.682v-1.416a3.142 3.142 0 01-.354-1.416 11.648 11.648 0 01.708-3.54 7.364 7.364 0 01-.354-2.832q0-2.478 2.124-8.142l2.476-1.062a5.063 5.063 0 01-2.124-3.894 4.93 4.93 0 01.354-2.124 7.845 7.845 0 01-.354-2.478q0-4.248 4.248-6.372a21.185 21.185 0 013.894-7.08l-1.77-2.832 4.248-5.31v-1.416a19.225 19.225 0 014.6-12.39l-.354-6.372 1.416-1.416v-1.062a2.717 2.717 0 01-.354-1.062 4.8 4.8 0 011.416-3.54v-2.124q1.416-3.54 7.434-10.62a73.461 73.461 0 008.85-12.39l1.77 1.77 3.894-1.77 1.77-.708 11.682-5.31 27.258 1.416v2.478l8.5 1.77q8.142 0 10.62 5.31a10.4 10.4 0 01.354-2.478v-1.416l7.434 6.726 6.726 1.416 12.744-3.186 4.6 8.85zm-33.63 18.408l-1.416-2.478-2.832-.708-10.974-8.852-7.08-1.062h-5.664l-.708-.708-2.832 1.062-3.186-1.77h-9.2l1.054 1.418-8.142 2.832-1.416 1.77-1.062.354a51.012 51.012 0 00-8.85 8.85l-2.478 8.5-1.416 3.186 3.54 4.956-6.018 4.6.708 1.416a26.092 26.092 0 00-3.894 13.1l-2.832 3.54v6.372l-2.828 3.184-.712 3.184-1.062.708v4.956l-1.062 1.77a25.429 25.429 0 01-.708 6.726l.708 1.77-3.182 6.726 1.416 2.124-2.478 3.536 2.478 6.73-3.894 4.956.708 6.726v1.062l1.416.708 1.77-.354a43.108 43.108 0 013.54-3.186l-.708-2.832 4.958-.71 1.062-2.478 20.884-16.99 2.124-.708 2.478-6.018a40.844 40.844 0 006.018-2.832l2.124-5.664h2.832l-1.062-6.018 4.956-.708a24.664 24.664 0 012.3-3.54 36.269 36.269 0 013.364-3.894l18.054-24.072 2.832-5.31-.354-1.416 2.478-3.894.708-3.894 3.186-2.832zm272.58 67.614q0 2.832-4.6 7.434l-3.896 6.014-1.416 7.08-3.186 1.062-.708 2.124q-5.664 1.77-8.142 8.85a23.517 23.517 0 01-8.5 7.08 13.023 13.023 0 01-3.186 2.478l-1.77 3.186-3.186.708-9.2 4.956-12.036 1.42-3.186-.708-5.306 1.064-2.128-2.48a22.79 22.79 0 01-7.08-4.956q-4.248-1.062-6.372-6.726-6.02-7.08-6.02-11.328v-1.062l-2.476-4.248-.708-.708-2.124-6.372-3.186-6.726.708-8.142-3.54-4.6-5.31-30.444a60.532 60.532 0 01-1.064-10.268l-.708-1.77-1.77-2.478-3.186 4.248-12.742 13.452-4.6 7.434-2.478 4.956-3.894 5.664-2.832 2.832.354 1.77-4.956 10.974-2.832 3.54-3.54.708-3.186 3.186q0 7.08-6.726 9.2l-.708.708q-3.186 7.788-7.08 9.558l-3.186 4.956q-7.788 7.08-10.266 8.85a12.71 12.71 0 01-3.894 6.018 20.736 20.736 0 01-2.478 2.832q-1.062 6.018-9.912 8.5l-3.896 1.062q-7.084-.354-11.684-8.14l-5.31-8.85 1.77-8.5-.708-4.6.708-.708.354-4.6-3.894-8.5 2.832-4.248-1.416-4.6 2.478-4.956.708-8.142-1.416-1.416 2.832-4.956-1.062-2.478-.354-5.664 1.416-10.62a31.08 31.08 0 01-.708-4.6 3.142 3.142 0 01.354-1.416v-1.416l-1.77-2.832 1.062-11.328-.354-3.894 1.062-5.664-1.416-9.558 6.372-10.62q10.974 1.77 15.222 4.779t4.248 10.8v3.186l2.478 4.248-1.062 7.434 1.416 14.16-2.478 6.726 1.064 7.433v6.018l-2.828 3.89 2.124 6.372-2.124 3.894-.354 3.894 2.124 3.894-2.836 7.438-1.062 3.186v3.186l1.77 3.54 6.018-6.018q0-5.31 3.54-7.08a7.014 7.014 0 012.832-5.31l-1.062-1.062 4.6-4.248 1.062-1.416v-3.186l5.668-4.252 1.416-3.54 3.186-2.124 13.804-15.576q-1.77 2.124-11.682 13.1v.708l.708-2.478 4.6-5.31 3.188-6.02v-3.54l5.31-1.77.708-4.6 1.416-1.416.354-1.77v-2.478l4.956-4.956v-1.77a5.794 5.794 0 01-.354-1.416q0-6.372 7.08-7.08 3.186-6.372 9.558-7.434l2.124-3.186.708-.708a16.482 16.482 0 019.558-6.376l3.186-3.894h8.5l4.248 4.956 3.894 2.124.354 1.062 2.478.708.708 7.434 6.018 3.54-2.478 7.788 3.894 8.5v9.912l2.832 13.452.708 12.744 3.186 7.434 2.124 9.2a13.265 13.265 0 013.186 6.018l6.372 1.77v7.08l3.54 3.894v1.062l1.416.354 1.416 2.124 1.416-1.77q-.708 0 1.77.354 3.894 0 8.142-7.08l4.248-1.062 1.062-1.77a7.511 7.511 0 014.248-4.248l2.478.354 1.416-1.416.354-1.77 1.062-1.416a11.609 11.609 0 004.6-7.434l3.894-4.248.708-3.186 2.478-5.664 6.726-2.478L731 367.49l3.186 10.266a1.02 1.02 0 00.354.708zM883.572 272.62l-3.54 6.018 1.062 6.726-5.31 3.186-1.416 7.434-3.186 2.478-1.062 7.788h-1.062a11.593 11.593 0 01-6.018 7.788l-3.186 11.328-3.186 4.956a28.034 28.034 0 01.354 4.6l-5.664 4.954-8.138 18.766-6.73 10.974v3.54q0 4.956-5.664 8.5l-.706 6.368-2.478 1.416-4.248 5.664-1.062 3.894-2.478 1.77a31.078 31.078 0 00.708 4.6l-3.894 3.186-6.372 3.894-2.124 3.54-7.08 7.434Q790.12 442.54 778.08 442.54q-9.558 0-17.346-9.912l1.062 2.478-12.39-18.054-.708-4.248-2.124-1.416-.354-8.5-3.894-3.894v-8.85l-9.206-20.528.708-3.54-2.832-4.956-.708-3.894-1.77-2.478-2.476-6.372-6.372-4.956-2.832-11.682-4.956-4.248-2.832-4.6q-8.85-2.832-8.85-14.514 0-9.912 15.222-15.93 19.47 13.1 23.01 26.2l1.062 8.142a21.951 21.951 0 014.956-1.416v3.186l5.664 4.248-2.124 5.664.708 4.248 3.186 8.5 1.77 1.77.354 3.186 2.832 1.402v6.018l3.894 13.806.708 5.31 5.664 11.328 4.6 13.806 3.54 3.54h.708q1.416 0 2.478-2.832l2.832-1.062-1.062-2.832q1.062-2.124 2.478-2.124a4.708 4.708 0 012.832 1.062q2.478-7.08 3.54-7.08.354 0 .354 1.062 1.416-4.248 6.726-7.08l4.6-6.726 2.832-7.08 3.54-2.832 2.124-4.6 1.416-1.062-.708-4.6 3.894-1.77.708-1.77a7.656 7.656 0 011.77-3.894l2.478-6.372 1.77 2.124 1.416-.708v-1.062a9.718 9.718 0 013.894-7.788v-.708l2.478-4.6 1.77-7.788 2.478-.708 4.6-10.974 3.186-4.248a12.7 12.7 0 014.956-8.142l3.186-9.912 2.478-3.186v-7.434h1.77a21.185 21.185 0 007.08-8.673q2.832-5.841 4.248-6.9l1.77-1.062 9.912-6.018zm121.422 20.886l-3.54 4.6 2.832 8.5-4.6 5.31-1.77 7.434-1.062 1.77.708 1.77q0 4.956-2.478 7.434l-.708 1.062v1.416a11.752 11.752 0 011.062 4.6 6.075 6.075 0 01-.356 2.474l.354 1.416-1.416 3.898 1.062 4.248-2.832 2.832 1.062 4.956 2.124 2.478-3.186 2.832v5.664l-2.478 5.664 1.77 5.664-2.122 2.832 3.54 2.478-4.958 8.138-.354 1.062 3.54.708-2.478 8.142v1.416a16.8 16.8 0 01-.354 3.894l.354 1.062 5.664.708 4.6 7.08-2.478 5.31 3.894-.354a22.8 22.8 0 012.478 7.434l-5.31 5.31a30.5 30.5 0 01-7.08 4.956l-6.018 3.186-1.77-1.77-3.54 2.124-10.972-12.74v-6.018a45.812 45.812 0 01-2.124-13.1v-2.124l-2.124-20.886 2.832-14.868-2.124-8.5-6.018 9.918-3.186 9.2-2.832 1.416-4.956 7.788-8.85 8.142-2.476 4.252-7.788 6.726-1.77 4.6-11.328 7.08-12.038 13.454L896.67 439l-4.6 3.54q-8.85-.354-13.45-6.726-15.93-7.788-16.638-22.3l1.77-1.062-.354-2.124-.358-4.252-2.12-4.6 2.124-4.956.708-7.434 2.478-11.682v-1.416a3.142 3.142 0 01-.354-1.416 11.648 11.648 0 01.708-3.54 7.363 7.363 0 01-.354-2.832q0-2.478 2.124-8.142l2.478-1.062a5.063 5.063 0 01-2.124-3.894 4.93 4.93 0 01.354-2.124 7.844 7.844 0 01-.354-2.478q0-4.248 4.248-6.372a21.184 21.184 0 013.894-7.08l-1.77-2.832 4.248-5.31v-1.416a19.224 19.224 0 014.6-12.39l-.354-6.372 1.416-1.416v-1.062a2.717 2.717 0 01-.354-1.062 4.8 4.8 0 011.416-3.54v-2.124q1.416-3.54 7.434-10.62a73.46 73.46 0 008.85-12.39l1.77 1.77 3.894-1.77 1.77-.708 11.682-5.31 27.258 1.416v2.478l8.5 1.77q8.142 0 10.62 5.31a10.4 10.4 0 01.354-2.478v-1.416l7.434 6.726 6.726 1.416 12.744-3.186 4.6 8.85zm-33.63 18.408l-1.416-2.478-2.828-.708-10.978-8.852-7.08-1.062h-5.664l-.708-.708-2.832 1.062-3.186-1.77h-9.2l1.062 1.416-8.142 2.832-1.416 1.77-1.062.354a51.013 51.013 0 00-8.85 8.85l-2.478 8.5-1.416 3.186 3.54 4.956-6.018 4.6.708 1.416a26.091 26.091 0 00-3.894 13.1l-2.832 3.54v6.372l-2.836 3.186-.708 3.186-1.062.708v4.956l-1.062 1.77a25.43 25.43 0 01-.708 6.726l.708 1.77-3.186 6.724 1.416 2.124-2.478 3.54 2.478 6.726-3.894 4.956.708 6.726v1.062l1.416.708 1.77-.354a43.108 43.108 0 013.54-3.186l-.708-2.832 4.952-.71 1.062-2.478 20.886-16.992 2.124-.708 2.478-6.018a40.843 40.843 0 006.018-2.832l2.132-5.662h2.832l-1.062-6.018 4.956-.708a24.666 24.666 0 012.3-3.54 36.272 36.272 0 013.363-3.894l18.054-24.072 2.832-5.31-.354-1.416 2.479-3.894.708-3.894 3.186-2.832zm179.124 95.934l-4.248 4.956-3.894 9.2-2.832 2.124-2.478 4.956-7.08.708-4.6 4.6h-7.08l-4.248 3.54-3.896-1.056-4.6 1.062v2.832l-13.1-1.062-5.664.354-4.248 2.124-3.54-2.124q3.54-.354 5.664-.354-2.832.354-16.992 1.416l-1.062-.354-2.832-.354-4.6 2.478a33.66 33.66 0 00-7.788-3.186q-7.788-.708-10.266-.708h-2.834a37.6 37.6 0 00-5.31-.354 12.567 12.567 0 00-5.664 1.416l-4.956-3.186-2.832-.708a13.771 13.771 0 01-3.894-1.062q-13.1-1.416-13.1-21.948v-3.182l6.726-4.956 8.5-3.186 6.372 3.186h4.956v1.056a11.016 11.016 0 015.664 5.664l2.832.354v4.6l4.6 1.062 1.062.708 45.312-2.832 10.974-1.77h1.062l.708-1.77 4.956-.708.708-1.062a44.823 44.823 0 0013.806-4.246l.354-1.77a13.808 13.808 0 01-1.416-2.478l-1.77.354-4.6-3.54h-3.186l-1.77-2.478 1.062-1.416-3.894.708-2.834-3.18a12.421 12.421 0 01-3.54.354 25.479 25.479 0 01-9.2-1.77h-3.186l-2.478-1.062-4.956 1.77-2.836-3.192h-1.062l-4.956-3.894-10.974-4.246-3.54-2.832-13.45-2.478-1.416-2.478-9.914-6.372-5.31-11.682-4.248-6.018-1.412-18.408 1.416-2.124a25.158 25.158 0 015.664-14.16q5.31-2.832 5.31-8.142l5.31-1.062q1.416-2.832 5.664-5.31l5.31-4.248 22.3-8.5 3.894-1.062 7.08-.708 11.682-3.186 22.3 1.416.708 1.77q3.186 1.062 7.08 5.664v1.77l5.664 3.54-2.482 8.5-.708 3.186q-2.124 8.85-9.912 8.85-6.372 0-9.558-6.018v-1.062l-4.248-.354-4.956 1.416-4.6-3.186-2.478 1.77a14.14 14.14 0 00-8.5 2.832q-5.31 0-10.266 4.248h-4.6l-3.186 2.478-4.956 1.062-.708.708-2.124 1.062-3.186 3.186-1.062.354-3.186 4.956-3.894 2.124a43.831 43.831 0 00-1.77 7.788q.354 4.956 1.239 6.549t4.779 3.363v1.77l4.6 2.478a27.926 27.926 0 018.5 4.6h7.08l4.6 3.894 8.142 1.062 3.186 2.124 13.806 3.894 1.77 3.894 1.416-2.478q4.6 0 12.39 4.248l6.372 1.062.708 2.478h5.664l9.912 5.664q1.77 4.6 7.788 8.5l3.894 2.478-1.062 4.248a12.765 12.765 0 012.478 7.434z" fill="#5a5a5a"/></g></svg>