<svg xmlns="http://www.w3.org/2000/svg" width="473" height="778"><path data-name="Subtraction 2" d="M467 778H6a6.006 6.006 0 01-6-6V151.221c.227.012.465.018.706.018a54.762 54.762 0 0012.138-1.292 43.331 43.331 0 0010.143-3.66 46.471 46.471 0 0015.468-13.15 92.506 92.506 0 0010.992-18.791c3.186-6.939 6.066-14.53 8.852-21.871l.008-.022c5.782-15.232 11.761-30.986 21.136-43.421a60.985 60.985 0 0117.051-15.791 56.6 56.6 0 0111.224-5.233A66.908 66.908 0 01121.152 25a169.982 169.982 0 0022.036-5.158c7.673-2.2 16.743-5.044 26.956-8.459A1182.309 1182.309 0 00202.449.04l.039-.014.066-.025H467a6.006 6.006 0 016 6v766a6.006 6.006 0 01-6 5.999zM42.855 165.908a2.849 2.849 0 00-.427.032c-2.319.355-4.2 2.907-5.038 5.279-.875 2.476-.7 4.72.474 6 .669.732 2.4 1.205 4.417 1.205 1.93 0 3.559-.427 4.252-1.111a4.9 4.9 0 001.24-3.417 10.483 10.483 0 00-.8-4.206c-.971-2.367-2.511-3.782-4.118-3.782zm37.256-35.409a37.744 37.744 0 00-4.271.256c-3.776.434-7.169 2.807-9.553 6.683a22.008 22.008 0 00-3.1 12.508 15.745 15.745 0 003.99 10.073 13.149 13.149 0 004.729 3.2 18.075 18.075 0 006.753 1.2c4.588 0 9.979-1.341 16.024-3.986 1.737-.76 3.243-2.935 4.132-5.967a21.164 21.164 0 00.353-10.1 16.856 16.856 0 00-5.534-9.6c-3.357-2.833-7.91-4.267-13.523-4.267zm54.522-86.182c-.674 0-1.35.016-2.011.047a45.984 45.984 0 00-23.477 7.803 37.748 37.748 0 00-8.887 8.365 31.077 31.077 0 00-5.341 10.877 28.685 28.685 0 00-.59 11.454 33.379 33.379 0 0010.8 19.968 28.672 28.672 0 009.908 5.776l40.32-56.408a21.3 21.3 0 00-9.338-6.109 34.69 34.69 0 00-11.384-1.773zm108.5-4.815l4.61 4.323c-3.389-3.222-3.748-3.545-4.1-3.857-.12-.112-.245-.225-.507-.466z" fill="#d3d3d3"/></svg>