<svg xmlns="http://www.w3.org/2000/svg" width="1863" height="1065"><defs><linearGradient id="a" x1=".102" y1=".981" x2=".977" y2="-.078" gradientUnits="objectBoundingBox"><stop offset="0" stop-color="#fab662"/><stop offset="1" stop-color="#f8ebdc"/></linearGradient><clipPath id="b"><path data-name="Rectangle 39" transform="translate(-.044 -.035)" fill="url(#a)" d="M0 0h1863v1065H0z"/></clipPath></defs><path data-name="Rectangle 38" fill="rgba(250,182,98,0)" d="M0 0h1863v1065H0z"/><g data-name="Group 206" transform="translate(.044 .034)" clip-path="url(#b)"><path data-name="Path 225" d="M433.078 338.745c-40.08-41.384-100.137-48.64-158.332-3.35-50.167 39.033-78.041 84.435-158.325 85.053-306.723 2.347-286.031 204.202-212.596 323.161 105.412 170.756 67.5 229.225 64.394 344.861-2.17 80.857 3.508 146.641 61.921 212.739 87.474 98.981 216.48 89.448 302 18.09 41.983-35.034 82.584-79.878 109.09-105.39 71.18-68.508 106.913-81.63 219.415-138.691 217.236-114.823 208.121-319.071 26.379-392.99-155.59-63.278-166.89-65.946-194.28-191.559-11.502-52.766-13.816-104.574-59.666-151.924z" fill="rgba(255,255,255,0.04)"/><path data-name="Path 226" d="M1584.067 585.084c102.921 209.538 345.36 80.961 326.557-163.633-7.807-101.539-35.525-176.327 31.937-263.908 16.726-21.716 31.249-45.132 46.806-67.75 28.758-41.824 29.013-118.165-15.469-173.5-64.405-80.11-145.462-146.156-229.55-205.313-109.984-77.379-239.323-100.06-312.533 17.62-42.7 68.634-49.442 138.169-128.836 160.1-46.415 12.812-78.326 22.589-110.586 63.844-57.744 73.842-53.446 46.533-103.183 74.637-119.532 67.543-81.4 232.1 39.6 301.252 80.6 46.06 166.1 27.5 214.439 25.934 174.62-5.675 157.296 60.677 240.818 230.717z" fill="rgba(255,255,255,0.04)"/><path data-name="Path 227" d="M574.489-447.6c-19.3 101.919 42.234 200.364 127.3 251.444 96.212 57.77 179.125 81.175 199.181 194.106 6.487 36.512 17.169 88.047 33.944 121.4 61.671 122.582 204.857 86.153 312.364 83.573 100.925-2.421 166.675 54.857 268.362 137.374.64.521 213.246 271.1 310.9 2.761 18.1-49.731 22.437-90.52 30.184-117.784 30.476-107.264 128.363-103.616 276.608-166.749 187.619-79.9 248.173-298.561 46.94-371.719-77.335-28.122-144.242-32.11-218.42-68.49-151.581-74.336-136.13-226.962-267.675-292.771-47.11-29.3-117.932-36-166.11-28.292-185.512 29.689-257.65 103.032-391.8 62.83-45.583-13.662-102.377-39.739-170.257-50.281-174.86-27.157-361.159 82.281-391.521 242.598z" fill="rgba(67,110,103,0.16)" style="mix-blend-mode:overlay;isolation:isolate"/><path data-name="Path 228" d="M-246.974 906.13c-19.3 101.919 42.238 200.364 127.3 251.444 96.216 57.77 179.128 81.175 199.185 194.11 6.487 36.509 17.169 88.043 33.944 121.392 61.67 122.589 204.855 86.158 312.363 83.578 100.921-2.421 166.672 54.857 268.362 137.375.64.521 213.246 271.1 310.9 2.761 18.1-49.727 22.437-90.52 30.184-117.784 30.476-107.26 128.363-103.616 276.6-166.746 187.622-79.907 248.172-298.565 46.943-371.722-77.339-28.118-144.242-32.11-218.42-68.489-151.572-74.337-136.125-226.963-267.674-292.772-47.106-29.3-117.928-36-166.106-28.292-185.516 29.689-257.65 103.032-391.8 62.83-45.58-13.658-102.374-39.739-170.257-50.281-174.863-27.155-361.159 82.286-391.524 242.596z" fill="rgba(67,110,103,0.16)" style="mix-blend-mode:overlay;isolation:isolate"/><g data-name="Group 192"><path data-name="Path 229" d="M1999.82 847.499c-.565 0-1.12 0-1.686-.008-45.535-.373-92.371-15.7-131.878-43.144s-70.2-66-86.443-108.543c-6.091-15.961-10.6-32.994-14.97-49.464-8.742-32.986-17.783-67.1-39.872-93.185-16.264-19.206-38.431-32.517-59.87-45.395-18.988-11.4-38.623-23.195-54.336-39.107-31.9-32.31-44.752-77.934-57.179-122.053-12.9-45.812-26.244-93.177-61.027-124.811-53.331-48.5-136.158-42.042-202.36-31l-7.718 1.29c-69.554 11.669-141.481 23.738-201.306-10.121-44.748-25.324-74.444-76.884-73.9-128.3s31.337-102.323 76.614-126.696l.876 1.63c-44.7 24.059-75.1 74.33-75.638 125.092s28.78 101.668 72.962 126.67c59.256 33.533 130.85 21.524 200.087 9.906l7.722-1.29c66.612-11.111 149.99-17.583 203.9 31.452 35.178 31.988 48.596 79.613 61.568 125.675 12.361 43.9 25.146 89.289 56.713 121.258 15.55 15.746 35.082 27.479 53.97 38.823 21.568 12.952 43.868 26.344 60.328 45.783 22.363 26.407 31.456 60.72 40.25 93.906 4.354 16.423 8.856 33.408 14.915 49.28 33.518 87.836 122.593 149.724 216.605 150.5 45.772.418 84.975-14.708 107.7-41.384l1.409 1.2c-22.801 26.759-61.89 42.036-107.436 42.036z" fill="#fff" opacity=".137"/></g><g data-name="Group 199" style="mix-blend-mode:overlay;isolation:isolate"><g data-name="Group 194"><path data-name="Path 231" d="M28.654 1359.937c-97.724 0-189.541-38-258.548-107.005s-107.005-160.825-107.005-258.545 38-189.545 107.005-258.548S-69.07 628.834 28.654 628.834s189.541 38 258.544 107.005 107.006 160.825 107.006 258.548-38 189.541-107.005 258.544-160.825 107.006-258.545 107.006zm0-729.255c-200.548 0-363.709 163.157-363.709 363.705s163.156 363.7 363.705 363.7 363.7-163.156 363.7-363.7S229.199 630.682 28.654 630.682z" fill="rgba(255,255,255,0.1)"/></g><g data-name="Group 195"><path data-name="Path 232" d="M28.655 1314.358c-176.434 0-319.974-143.536-319.974-319.97s143.54-319.974 319.974-319.974S348.628 817.95 348.628 994.388s-143.54 319.97-319.973 319.97zm0-638.1c-175.418.004-318.126 142.715-318.126 318.13s142.708 318.122 318.126 318.122S346.78 1169.801 346.78 994.388 204.068 676.262 28.655 676.262z" fill="rgba(255,255,255,0.1)"/></g><g data-name="Group 196"><path data-name="Path 233" d="M28.654 1268.781c-151.3 0-274.4-123.1-274.4-274.394s123.1-274.4 274.4-274.4 274.394 123.1 274.394 274.4-123.092 274.394-274.394 274.394zm0-546.944c-150.282 0-272.55 122.264-272.55 272.55s122.268 272.546 272.55 272.546S301.2 1144.669 301.2 994.387s-122.261-272.55-272.546-272.55z" fill="rgba(255,255,255,0.1)"/></g><g data-name="Group 197"><path data-name="Path 234" d="M28.654 1223.202c-126.166 0-228.818-102.647-228.818-228.815s102.652-228.82 228.818-228.82 228.815 102.649 228.815 228.82-102.644 228.815-228.815 228.815zm0-455.785c-125.15 0-226.966 101.816-226.966 226.97s101.816 226.967 226.966 226.967 226.967-101.816 226.967-226.967-101.816-226.97-226.967-226.97z" fill="rgba(255,255,255,0.1)"/></g><g data-name="Group 198"><path data-name="Path 235" d="M28.655 1177.626c-101.039 0-183.239-82.2-183.239-183.239s82.2-183.239 183.239-183.239 183.235 82.2 183.235 183.239-82.2 183.239-183.235 183.239zm0-364.629c-100.019 0-181.39 81.371-181.39 181.391s81.372 181.39 181.39 181.39 181.382-81.375 181.382-181.39-81.363-181.391-181.382-181.391z" fill="rgba(255,255,255,0.1)"/></g></g><g data-name="Group 205" opacity=".086" style="mix-blend-mode:overlay;isolation:isolate"><g data-name="Group 200"><path data-name="Path 236" d="M1930.015 298.537c-97.724 0-189.545-38-258.548-107.009S1564.461 30.703 1564.461-67.017s38-189.541 107.005-258.544S1832.29-432.57 1930.015-432.57s189.541 38 258.544 107.009 107.005 160.824 107.005 258.544-38 189.541-107.005 258.544-160.824 107.01-258.544 107.01zm0-729.258c-200.549 0-363.705 163.156-363.705 363.705s163.156 363.704 363.705 363.704 363.7-163.16 363.7-363.705-163.156-363.705-363.7-363.705z" fill="#fff"/></g><g data-name="Group 201"><path data-name="Path 237" d="M1930.015 252.957c-176.434 0-319.974-143.54-319.974-319.974s143.54-319.974 319.974-319.974 319.974 143.54 319.974 319.974-143.541 319.974-319.974 319.974zm0-638.1c-175.417 0-318.126 142.712-318.126 318.126s142.708 318.126 318.126 318.126S2248.14 108.397 2248.14-67.017s-142.712-318.125-318.125-318.125z" fill="#fff"/></g><g data-name="Group 202"><path data-name="Path 238" d="M1930.009 207.377c-151.3 0-274.4-123.092-274.4-274.394s123.1-274.394 274.4-274.394 274.4 123.092 274.4 274.394-123.093 274.394-274.4 274.394zm0-546.94c-150.282 0-272.55 122.264-272.55 272.546s122.273 272.546 272.55 272.546S2202.56 83.267 2202.56-67.017s-122.264-272.546-272.551-272.546z" fill="#fff"/></g><g data-name="Group 203"><path data-name="Path 239" d="M1930.014 161.798c-126.171 0-228.818-102.644-228.818-228.815s102.647-228.818 228.818-228.818 228.815 102.648 228.815 228.818-102.647 228.815-228.815 228.815zm0-455.785c-125.151 0-226.97 101.819-226.97 226.97s101.819 226.966 226.97 226.966S2156.98 58.134 2156.98-67.017s-101.815-226.97-226.966-226.97z" fill="#fff"/></g><g data-name="Group 204"><path data-name="Path 240" d="M1930.015 116.222c-101.04 0-183.239-82.2-183.239-183.239s82.2-183.239 183.239-183.239 183.239 82.2 183.239 183.239-82.203 183.239-183.239 183.239zm0-364.629c-100.019 0-181.391 81.371-181.391 181.391s81.371 181.39 181.391 181.39 181.392-81.371 181.392-181.39-81.373-181.391-181.392-181.391z" fill="#fff"/></g></g></g></svg>