<svg width="41" height="25" fill="none" xmlns="http://www.w3.org/2000/svg"><path fill-rule="evenodd" clip-rule="evenodd" d="M5.505 24.198c-1.567-.703-3.124-1.386-4.67-2.135a.666.666 0 11.578-1.2c1.539.745 3.082 1.422 4.638 2.12a.668.668 0 01.336.88.668.668 0 01-.882.335zm11.515-8.324c-2.277-4.928-4.302-9.968-6.472-14.941A.667.667 0 0111.771.4c2.165 4.965 4.185 9.997 6.459 14.915a.667.667 0 01-1.21.56zm19.527-1.279c.728-4.531 1.584-9.049 2.26-13.588a.667.667 0 011.32.197c-.68 4.545-1.535 9.068-2.266 13.604a.666.666 0 11-1.313-.213z" fill="#FFF"/></svg>