<svg xmlns="http://www.w3.org/2000/svg" viewBox="0 0 72.59 38.7"><g data-name="Layer 2"><g data-name="Layer 1"><path d="M16.51 7a4.09 4.09 0 001.12.75 3 3 0 001.26.29 1.88 1.88 0 001.19-.32 1 1 0 00.41-.85 1 1 0 00-.1-.48 1.08 1.08 0 00-.29-.34 2.53 2.53 0 00-.45-.27l-.57-.25L17.81 5a4.34 4.34 0 01-.66-.35 2.91 2.91 0 01-.6-.5A2.28 2.28 0 0116 2.58a2.27 2.27 0 01.23-1 2.57 2.57 0 01.64-.82 3 3 0 011-.55A3.77 3.77 0 0119 0a3.9 3.9 0 011.54.32 4 4 0 011.27.85L21 2.2a4.08 4.08 0 00-.92-.57A2.61 2.61 0 0019 1.41a1.74 1.74 0 00-1 .29.93.93 0 00-.39.79.84.84 0 00.12.46 1.22 1.22 0 00.32.34 2.63 2.63 0 00.47.27l.55.23 1.25.52a4.29 4.29 0 01.74.39 2.7 2.7 0 01.58.52 2.25 2.25 0 01.39.68 2.59 2.59 0 01.14.89 2.5 2.5 0 01-.22 1.05 2.52 2.52 0 01-.65.86 3.2 3.2 0 01-1 .59 4.09 4.09 0 01-1.38.22 4.74 4.74 0 01-3.3-1.34zm6.87.43a1.9 1.9 0 011-1.71 7.69 7.69 0 013.08-.84 1.85 1.85 0 00-.07-.51 1.26 1.26 0 00-.25-.37 1 1 0 00-.38-.29 1.41 1.41 0 00-.58-.11 2.64 2.64 0 00-1 .2 6 6 0 00-.93.48l-.59-1.08a7 7 0 011.28-.63 4.32 4.32 0 011.53-.27 2.36 2.36 0 011.94.7A3.38 3.38 0 0129 5.25v4.07h-1.28l-.13-.76a5.05 5.05 0 01-1 .66 2.49 2.49 0 01-1.14.27A2 2 0 0124 8.94a2 2 0 01-.62-1.46zM25 7.35a.79.79 0 00.27.67 1.13 1.13 0 00.71.21A1.55 1.55 0 0026.7 8a3.63 3.63 0 00.73-.56v-1.5a7.35 7.35 0 00-1.18.22 3.24 3.24 0 00-.76.32 1.13 1.13 0 00-.41.4 1 1 0 00-.08.47zm5.19-4.9h1.64L32.88 6l.29 1 .29 1h.06q.15-.53.29-1t.29-1l1.09-3.57h1.55L34.4 9.32h-1.86zm7.34 3.44a4.08 4.08 0 01.27-1.51 3.47 3.47 0 01.71-1.13 3.13 3.13 0 011-.71 2.9 2.9 0 011.18-.25 3 3 0 011.23.24 2.4 2.4 0 01.89.67 3 3 0 01.54 1 4.53 4.53 0 01.18 1.32 3.24 3.24 0 01-.07.76H39a2.27 2.27 0 00.65 1.44 1.94 1.94 0 001.38.5 2.53 2.53 0 00.83-.13 3.7 3.7 0 00.76-.37l.55 1a4.94 4.94 0 01-1.09.53 3.8 3.8 0 01-1.26.21 3.57 3.57 0 01-1.33-.25 3.16 3.16 0 01-1.08-.71 3.23 3.23 0 01-.72-1.13 4.16 4.16 0 01-.21-1.48zm4.61-.62a2.12 2.12 0 00-.4-1.27 1.23 1.23 0 00-1.06-.46 1.51 1.51 0 00-1.07.46A2.12 2.12 0 0039 5.28zm5.32 3.11q.92-.9 1.67-1.65t1.27-1.4a6.67 6.67 0 00.81-1.2 2.38 2.38 0 00.28-1.06 1.61 1.61 0 00-.38-1.13A1.41 1.41 0 0050 1.53a1.63 1.63 0 00-.94.29 4.46 4.46 0 00-.79.7l-.9-.9a5.15 5.15 0 011.27-1 3.61 3.61 0 012.7-.17 2.51 2.51 0 01.88.55 2.49 2.49 0 01.57.86A3 3 0 0153 3a3 3 0 01-.26 1.2A6.64 6.64 0 0152 5.41a14.56 14.56 0 01-1 1.28q-.59.66-1.25 1.36l.77-.05h2.91v1.32h-6zm10.18 1.11a2.54 2.54 0 01-2.21-1.2 6.16 6.16 0 01-.81-3.46 6 6 0 01.81-3.42 2.69 2.69 0 014.42 0 6 6 0 01.81 3.42 6.16 6.16 0 01-.81 3.46 2.54 2.54 0 01-2.21 1.2zm0-1.26a1.08 1.08 0 00.59-.18 1.38 1.38 0 00.47-.58 4 4 0 00.3-1.04 9.54 9.54 0 00.11-1.6A9.3 9.3 0 0059 3.25a3.81 3.81 0 00-.31-1 1.28 1.28 0 00-.47-.55 1.18 1.18 0 00-1.19 0 1.28 1.28 0 00-.47.55 3.81 3.81 0 00-.31 1 9.3 9.3 0 00-.11 1.58 9.54 9.54 0 00.11 1.6 4 4 0 00.31 1.05 1.38 1.38 0 00.47.58 1.08 1.08 0 00.61.17zm6.2-2.44A1.92 1.92 0 0162.27 5a3.37 3.37 0 01-.61-2.15 3.31 3.31 0 01.61-2.1 2 2 0 013.15 0A3.31 3.31 0 0166 2.88 3.37 3.37 0 0165.42 5a1.92 1.92 0 01-1.58.8zm0-.94a.85.85 0 00.74-.47 3 3 0 00.29-1.5 2.91 2.91 0 00-.29-1.49.82.82 0 00-1.47 0 2.91 2.91 0 00-.29 1.49 3 3 0 00.29 1.5.85.85 0 00.73.48zm.28 4.63l5-9.49h1l-5 9.49zm6.29 0a1.92 1.92 0 01-1.58-.76 3.37 3.37 0 01-.61-2.15 3.31 3.31 0 01.61-2.14 2 2 0 013.15 0 3.31 3.31 0 01.61 2.14A3.37 3.37 0 0172 8.73a1.92 1.92 0 01-1.59.76zm0-.94a.85.85 0 00.74-.47 3 3 0 00.29-1.5 2.91 2.91 0 00-.29-1.49.82.82 0 00-1.47 0 2.91 2.91 0 00-.29 1.49 3 3 0 00.29 1.5.85.85 0 00.73.48z" fill="#fff"/><path d="M.5 36.2q28.82-2.34 37.07-19.09M.51 36.2l2.72 2M.51 36.19l2.72-2.31" fill="none" stroke="#fff" stroke-linecap="round" stroke-linejoin="round"/></g></g></svg>