<svg height="1141.436" width="1478.994" xmlns="http://www.w3.org/2000/svg"><ellipse cx="739.497" cy="1057.187" fill="#f9b170" rx="739.497" ry="84.25"/><path d="M246.736 1088.337s-26.429-26.944-17.335-42.29 24.44 32.966 24.44 32.966-7.958-57.126 8.525-58.118 0 58.118 0 58.118 6.11-13.783 12.078-14.636 4.261 11.687-6.394 23.96z" fill="#f9b170"/><path d="M248.628 1089.014a120.486 120.486 0 01-13.826-17.617c-8.445-13.36-10.456-23.964-5.978-31.521 1.672-2.821 3.682-4.122 5.966-3.857 4.559.521 9.914 7.719 15.914 21.4 1.829 4.166 3.449 8.329 4.717 11.775-1.456-14.955-3.146-44.743 5.087-54.8a8.889 8.889 0 016.481-3.517 6.773 6.773 0 015.977 2.607c7.4 9.163.712 41.535-2.964 56.683 2.741-4.444 6.632-9.4 10.607-9.963a3.868 3.868 0 014.219 1.978c2.4 4.4-.912 15.628-10.6 26.791l-1.46-1.269c9.529-10.974 12.144-21.336 10.366-24.6a1.949 1.949 0 00-2.248-.987c-5.117.73-11.083 11.821-12.952 16.033l-1.815-.651c.036-.13 3.65-13.152 6.074-27.408 3.169-18.642 2.918-30.881-.727-35.394a4.858 4.858 0 00-4.357-1.893 6.953 6.953 0 00-5.1 2.812c-10.4 12.7-3.737 61.517-3.669 62.008l-1.879.428c-3.449-10.856-14.1-39.224-21.885-40.113-1.478-.164-2.817.786-4.082 2.922-9.822 16.574 19.226 46.5 19.52 46.8z" fill="#33353b"/><path d="M557.965 988.991s-26.428-26.945-17.335-42.29 24.44 32.965 24.44 32.965-7.957-57.126 8.526-58.118 0 58.118 0 58.118 6.109-13.783 12.077-14.636 4.263 11.687-6.394 23.961z" fill="#f9b170"/><path d="M559.865 989.668a120.418 120.418 0 01-13.826-17.616c-8.444-13.36-10.455-23.965-5.977-31.522 1.67-2.82 3.68-4.121 5.965-3.857 4.559.521 9.913 7.719 15.916 21.395 1.827 4.166 3.446 8.329 4.715 11.775-1.456-14.955-3.146-44.743 5.086-54.8a8.9 8.9 0 016.481-3.518 6.776 6.776 0 015.978 2.608c7.4 9.162.712 41.535-2.965 56.682 2.743-4.444 6.633-9.393 10.608-9.962a3.868 3.868 0 014.219 1.977c2.4 4.4-.912 15.628-10.6 26.791l-1.46-1.269c9.53-10.974 12.143-21.336 10.367-24.6a1.95 1.95 0 00-2.247-.988c-5.118.731-11.085 11.821-12.952 16.033l-1.815-.651c.035-.13 3.648-13.151 6.072-27.408 3.17-18.642 2.919-30.881-.726-35.394a4.866 4.866 0 00-4.358-1.892 6.945 6.945 0 00-5.1 2.812c-10.4 12.7-3.738 61.517-3.67 62.008l-1.879.427c-3.449-10.856-14.1-39.223-21.885-40.112-1.479-.16-2.817.786-4.082 2.921-9.822 16.576 19.226 46.5 19.522 46.8z" fill="#33353b"/><path d="M877.451 1031.774s-26.429-26.945-17.335-42.29 24.439 32.965 24.439 32.965-7.957-57.126 8.526-58.118 0 58.118 0 58.118 6.11-13.783 12.078-14.635 4.263 11.687-6.4 23.96z" fill="#f9b170"/><path d="M879.343 1032.45a120.234 120.234 0 01-13.825-17.616c-8.445-13.359-10.456-23.963-5.978-31.52 1.671-2.82 3.672-4.121 5.966-3.857 4.559.52 9.913 7.719 15.914 21.394 1.828 4.166 3.447 8.33 4.715 11.775-1.455-14.955-3.145-44.742 5.087-54.8a8.894 8.894 0 016.482-3.519 6.79 6.79 0 015.978 2.608c7.4 9.163.711 41.535-2.965 56.682 2.741-4.443 6.632-9.394 10.607-9.963a3.87 3.87 0 014.22 1.978c2.4 4.4-.913 15.628-10.6 26.791l-1.461-1.269c9.529-10.973 12.144-21.336 10.367-24.6a1.953 1.953 0 00-2.247-.988c-5.119.732-11.085 11.824-12.952 16.035l-1.816-.651c.037-.129 3.649-13.152 6.074-27.409 3.17-18.642 2.918-30.882-.727-35.4a4.881 4.881 0 00-4.357-1.891 6.945 6.945 0 00-5.1 2.813c-10.4 12.7-3.739 61.517-3.67 62.008l-1.879.427c-3.449-10.857-14.1-39.225-21.884-40.113-1.488-.175-2.817.786-4.083 2.922-9.822 16.574 19.226 46.5 19.52 46.8zm79.66-716.074l-1.095-1.639c27.014-18.053 41.524-39.38 43.127-63.391 3.075-46.086-42.769-87.052-43.231-87.46l1.3-1.48c.471.416 47.036 42.028 43.9 89.071-1.648 24.653-16.451 46.49-44.001 64.899z" fill="#33353b"/><path d="M773.037 85.996c5.722 7.277 21.857 14.788 40.04 7.424 5.78-2.34 17.1-9.025 29.209-1.113 18.707 12.23-18.871 39.528 29.866 47.4s81.588-4.747 111.191 55.964-15.687 129.578-64.916 106.467-99.973-44.825-139.583 0-76.866-91.509-74.484-108.509 35.957-16.221 30.935-40.629 10.93-37.46 5.839-46.589c-7.095-12.72 25.015-29.171 31.903-20.415z" fill="#33353b"/><path d="M905.471 690.995c-20.7 124.43-80.187 273.648-92.177 333.759-4.289 21.5-39.2 23.665-37.5 0l6.029-434.606s152.323-71.51 123.648 100.847z" fill="#c97e67"/><path d="M813.294 1024.754s.506 20.223 14.191 25.928 53.334 10.852 38.519 23.854c-8.5 7.461-48.566 2.64-59.877 2.64s-21.933 4.931-30.338-2.64c-9.247-8.33 0-49.782 0-49.782s9.761 5.085 18.54 4.856c12.65-.328 18.965-4.856 18.965-4.856z" fill="#33353b"/><path d="M731.965 620.753c-20.7 124.429-9.367 343.89-21.356 404-4.289 21.5-39.2 23.665-37.5 0 0 0-82.358-165.761-34.065-423.881 6.99-37.378 121.596-152.477 92.921 19.881z" fill="#c97e67"/><path d="M710.611 1024.754s.507 20.223 14.191 25.928 53.334 10.852 38.518 23.854c-8.5 7.461-48.565 2.64-59.876 2.64s-21.932 4.931-30.338-2.64c-9.248-8.33 0-49.782 0-49.782s9.762 5.085 18.539 4.856c12.65-.328 18.966-4.856 18.966-4.856z" fill="#33353b"/><path d="M1012.444 544.539a6.489 6.489 0 00-4.575 7.923l14.29 53.348a6.49 6.49 0 007.924 4.575 6.488 6.488 0 004.575-7.923l-14.293-53.348a6.487 6.487 0 00-7.921-4.575zm15.998-4.286a6.49 6.49 0 00-4.576 7.924l15.982 59.662a6.488 6.488 0 007.923 4.575 6.488 6.488 0 004.576-7.923l-15.982-59.662a6.488 6.488 0 00-7.923-4.576zm-4.016-32.203l-1.37 1.851a7.844 7.844 0 001.636 10.94l33.691 24.927a7.846 7.846 0 0010.941-1.637l1.37-1.85a7.847 7.847 0 00-1.637-10.941l-33.692-24.926a7.844 7.844 0 00-10.939 1.636z" fill="#c97e67"/><path d="M1044.44 535.968a6.489 6.489 0 00-4.575 7.923l12.811 47.825a6.487 6.487 0 007.922 4.576 6.49 6.49 0 004.576-7.924l-12.812-47.825a6.488 6.488 0 00-7.922-4.575z" fill="#c97e67"/><path d="M980.615 514.357s3 38.346 18.617 59.471c5.4 7.311 52.152-6.6 54.1-16.6s-20.714-69.246-20.714-69.246z" fill="#c97e67"/><path d="M996.544 548.747a6.474 6.474 0 00-4.564 7.906l12.783 47.726a6.475 6.475 0 007.908 4.566 6.476 6.476 0 004.565-7.907l-12.783-47.725a6.477 6.477 0 00-7.909-4.566zm-15.929-34.39c-24.674-67.806-67.329-159.089-121.258-228.995-12.5-16.2-17.5-22.2-26.121-30.567-6.937-6.734-2.961-26.617 8.433-38.609 10.691-11.251 30.922-15.219 35.1-12.151 7.1 5.215 16.173 16.411 30.391 34.236 49.4 61.933 91.836 147.589 130.187 262.348zm-494.671 20.95a6.491 6.491 0 014.576 7.924l-14.291 53.348a6.489 6.489 0 01-7.923 4.576 6.49 6.49 0 01-4.575-7.924l14.29-53.348a6.488 6.488 0 017.923-4.576zm-15.998-4.285a6.489 6.489 0 014.575 7.923l-15.981 59.663a6.489 6.489 0 01-7.924 4.575 6.487 6.487 0 01-4.574-7.922l15.982-59.664a6.487 6.487 0 017.922-4.575zm4.019-32.208l1.369 1.851a7.843 7.843 0 01-1.637 10.94l-33.69 24.927a7.847 7.847 0 01-10.941-1.636l-1.37-1.852a7.844 7.844 0 011.638-10.94l33.69-24.927a7.847 7.847 0 0110.941 1.637z" fill="#c97e67"/><path d="M453.948 526.737a6.49 6.49 0 014.576 7.923l-12.811 47.826a6.49 6.49 0 01-7.923 4.575 6.49 6.49 0 01-4.576-7.924l12.812-47.825a6.487 6.487 0 017.922-4.575z" fill="#c97e67"/><path d="M517.774 505.126s-3 38.346-18.617 59.471c-5.405 7.31-52.153-6.6-54.1-16.6s20.714-69.247 20.714-69.247z" fill="#c97e67"/><path d="M501.845 539.514a6.475 6.475 0 014.565 7.907l-12.784 47.726a6.476 6.476 0 01-7.907 4.566 6.475 6.475 0 01-4.566-7.907l12.784-47.726a6.477 6.477 0 017.908-4.566zm15.929-34.388c24.673-67.807 67.328-159.09 121.258-229 12.495-16.2 17.5-22.2 26.12-30.565 6.937-6.735 2.961-26.618-8.432-38.609-10.692-11.252-30.923-15.22-35.1-12.153-7.1 5.216-16.172 16.411-30.391 34.238-49.4 61.932-91.836 147.589-130.187 262.346z" fill="#c97e67"/><path d="M673.565 168.566s-74.386 18.819-114.482 87.911c0 0 8.545 26.219 26.95 24.247s27.607 13.146 36.809 28.263-14.748 111.469-21.692 159.25c-9.806 67.48-78.592 386.876-36.338 412.233s109.379-25.912 166.526 9.584 101.944-25.081 133.774-9.584 80.226-4.147 80.226-44.077c0-31.909-33.835-252.259-56.941-404.487-7.2-47.452-13.451-91.969-13.146-114.7 0 0 5.916-25.635 31.551-24.649s26.927-35.495 26.775-40.425-78.156-128.678-260.012-83.566z" fill="#698af9"/><path d="M750.582 146.096l-9.971-23.153-2.891-6.72-17.013-39.509 2.95 40.949 1.773 24.58.506 7.006c.412 5.716-3 10.334-8.642 11.349 0 0-7.891 15.388 4.6 19.362 14.679 4.673 39.94-6.8 48.46-20.5-.039-.008-14.776-1.983-19.772-13.364z" fill="#c97e67"/><path d="M737.031 125.097c-1.789 5.627-12.093 10.315-12.093 10.315l-1.281-17.754c4.317-1.58 13.442 7.223 13.374 7.439z" fill="#33353b"/><path d="M680.375 83.259c0-26.216 17.224-47.467 38.473-47.467s38.474 21.251 38.474 47.467-17.226 47.465-38.474 47.465-38.473-21.251-38.473-47.465z" fill="#c97e67"/><path d="M715.127 83.714a.875.875 0 01-.1-1.656 9.471 9.471 0 0111.329 2.526.881.881 0 01-.032 1.237.959.959 0 01-1.237-.031 14.969 14.969 0 00-9.409-2.106.886.886 0 01-.551.03zm6.924 9.619c.066 2.088-1.107 3.819-2.623 3.866s-2.795-1.6-2.862-3.691 1.108-3.819 2.623-3.866 2.796 1.604 2.862 3.691zm-38.161-5.055a.876.876 0 01-.722-1.494 9.477 9.477 0 0111.437-1.981.882.882 0 01.443 1.157.962.962 0 01-1.157.443 15 15 0 00-9.5 1.635.866.866 0 01-.501.24zm10.066 6.255c.857 1.905.43 3.952-.952 4.575s-3.2-.42-4.054-2.325-.429-3.953.953-4.574 3.196.419 4.053 2.324z" fill="#33353b"/><path d="M682.459 118.644c-5.776-2.129-10.862-8.512-13.584-17.073-4.442-13.956-1.324-29.47 6.953-34.591a10.992 10.992 0 0110-.99c5.778 2.128 10.864 8.512 13.585 17.048 4.442 13.93 1.323 29.469-6.952 34.616a10.973 10.973 0 01-5.89 1.731 12.111 12.111 0 01-4.112-.741zm15.316-35.062c-2.561-8.066-7.25-14.029-12.544-15.984a9.518 9.518 0 00-8.5.816c-7.658 4.752-10.442 19.4-6.223 32.637 2.561 8.042 7.25 14.029 12.545 15.984a9.574 9.574 0 008.487-.816c7.657-4.776 10.454-19.424 6.235-32.637z" fill="#fff2e2"/><path d="M743.917 73.98c3.087 13.553-1.847 28.106-11.02 32.5s-19.111-3.025-22.2-16.578 1.847-28.1 11.02-32.5 19.113 3.026 22.2 16.578zm-44.143 10.196c3.1 13.615-1.025 28.379-9.2 32.977s-17.317-2.714-20.411-16.33 1.025-28.378 9.2-32.975 17.317 2.713 20.411 16.328z" fill="#fff" opacity=".3"/><path d="M720.093 106.668c-5.913-2.871-10.429-9.353-12.384-17.791-3.364-14.475 2.115-30.112 12.224-34.862a14.123 14.123 0 0112.5.1c5.9 2.87 10.4 9.353 12.347 17.766 3.378 14.5-2.1 30.137-12.223 34.863a14.057 14.057 0 01-6.137 1.435 14.672 14.672 0 01-6.327-1.511zm.557-51.12c-9.4 4.429-14.462 19.2-11.283 32.933 1.82 7.819 6.112 14.055 11.481 16.652a12.752 12.752 0 0010.986.074c9.415-4.428 14.475-19.2 11.283-32.932-1.806-7.794-6.086-14.005-11.444-16.628a12.454 12.454 0 00-11.023-.1z" fill="#fff2e2"/><path d="M697.965 89.249a1.589 1.589 0 001.015-.372c.173-.148 4.317-3.389 11.468-2.028a1.658 1.658 0 001.88-1.263 1.565 1.565 0 00-1.262-1.855c-8.635-1.806-13.893 2.5-14.128 2.672a1.6 1.6 0 00-.2 2.252 1.543 1.543 0 001.227.594z" fill="#fff2e2"/><path d="M712.573 118.136a16.848 16.848 0 01-7.756-1.807.986.986 0 01.9-1.754c9.219 4.712 20.218-2.678 20.327-2.752a.985.985 0 011.112 1.626c-.371.251-6.979 4.687-14.583 4.687z" fill="#33353b"/><path d="M727.307 116.437a.983.983 0 01-.969-.821 6.468 6.468 0 00-2.512-4.36.985.985 0 011.037-1.675 8.423 8.423 0 013.416 5.707.987.987 0 01-.807 1.136 1.161 1.161 0 01-.165.013zm11.894-60.923c-4.163-7.48-14.52-9.441-22.785-7.212a18.84 18.84 0 00-8 4.308c-9.551 8.83-31.627 15.777-38.988 1.7-7.394-14.138 2.349-28.318 19.586-32.749S716.865-3.053 745.771.393c21.966 2.618 35.725 24.137 39.408 40.368 3.962 17.46-3.776 31.16-10.83 35.947-7.711 5.234-18.184 9.288-35.148-21.194z" fill="#33353b"/><path d="M764.032 90.289c-4.359 4.163-10.452 4.588-13.61.953s-2.187-9.955 2.17-14.116 10.453-4.588 13.611-.953 2.187 9.956-2.171 14.116z" fill="#c97e67"/><path d="M914.78 147.359c-2.014-.325-49.419-8.03-58.655-15.884-5.721-4.864-5.288-12-4.87-18.9.284-4.7.579-9.554-1.075-13.639-3.873-9.571-22.6-8.155-22.792-8.139l-.161-1.965c.832-.066 20.369-1.535 24.782 9.363 1.82 4.5 1.513 9.583 1.214 14.5-.407 6.712-.791 13.052 4.179 17.278 8.82 7.5 57.2 15.361 57.691 15.438zM674.434 58.493c-.313-.114-7.7-2.857-10.914-10.038-2.068-4.621-1.908-9.974.475-15.907 4.416-10.991 14.329-13.106 23.075-14.973a64.358 64.358 0 008.95-2.344c7.719-2.877 23.932-10.571 24.095-10.648l.846 1.781c-.164.078-16.454 7.809-24.252 10.715a66.028 66.028 0 01-9.227 2.425c-8.669 1.849-17.633 3.762-21.657 13.78-2.173 5.41-2.346 10.238-.513 14.349 2.859 6.412 9.726 8.98 9.794 9.005z" fill="#33353b"/><path d="M664.36 454.064c0-7.507 7.666-12.44 15.173-12.44s15.813 4.007 16.463 11.486c.954 10.969-8.744 17.01-18.6 17.01-7.507 0-13.036-8.549-13.036-16.056zm118.005-14.25c0-7.507 7.666-12.44 15.174-12.44s15.812 4.008 16.463 11.486c.953 10.97-8.744 17.01-18.6 17.01-7.507.002-13.037-8.548-13.037-16.056zm-172.6 334.863c0-7.506 7.666-12.44 15.172-12.44s15.813 4.008 16.463 11.485c.955 10.971-8.743 17.012-18.6 17.012-7.51 0-13.035-8.55-13.035-16.057zm65.837-89.952c0-7.507 7.667-12.44 15.173-12.44s15.814 4.008 16.464 11.487c.954 10.969-8.743 17.009-18.6 17.009-7.507 0-13.037-8.549-13.037-16.056zM725.624 788.8c0-7.506 7.667-12.44 15.173-12.44s15.813 4.008 16.463 11.486c.954 10.969-8.744 17.01-18.6 17.01-7.507 0-13.036-8.549-13.036-16.056zm117.12-36.836c0-7.506 7.666-12.439 15.173-12.439s15.812 4.007 16.463 11.486c.954 10.969-8.744 17.01-18.6 17.01-7.507 0-13.036-8.55-13.036-16.057zm-131.287-408.74c0-7.506 7.668-12.44 15.173-12.44s15.813 4.008 16.464 11.486c.954 10.969-8.744 17.011-18.6 17.011-7.507 0-13.037-8.55-13.037-16.057zm-43.166-91.433c0-7.507 7.666-12.439 15.173-12.439s15.813 4.006 16.463 11.485c.953 10.969-8.744 17.011-18.6 17.011-7.507 0-13.036-8.55-13.036-16.057zm128.826 37.086c0-7.507 7.667-12.439 15.173-12.439s15.813 4.007 16.464 11.485c.953 10.969-8.744 17.01-18.6 17.01-7.508 0-13.037-8.55-13.037-16.056zm-46.452 241.237c0-7.507 7.667-12.439 15.173-12.439s15.813 4.007 16.463 11.485c.953 10.969-8.744 17.01-18.6 17.01-7.508.005-13.036-8.545-13.036-16.056zm76.228 33.576c0-7.506 7.667-12.44 15.173-12.44s15.813 4.007 16.463 11.486c.954 10.969-8.744 17.011-18.6 17.011-7.507 0-13.036-8.551-13.036-16.057zm-185.428 15.546c0-7.507 7.667-12.439 15.173-12.439s15.813 4.007 16.464 11.485c.953 10.969-8.744 17.011-18.6 17.011-7.511 0-13.037-8.551-13.037-16.057zm113.043 58.818c0-7.506 7.665-12.44 15.173-12.44s15.812 4.008 16.463 11.486c.953 10.969-8.744 17.011-18.6 17.011-7.506.003-13.036-8.55-13.036-16.057z" fill="#fff" opacity=".3"/><path d="M950.811 702.522a3.8 3.8 0 00-2.616 4.671l8.775 31.1a3.8 3.8 0 004.671 2.615 3.8 3.8 0 002.616-4.671l-8.775-31.1a3.8 3.8 0 00-4.671-2.615zm9.327-2.631a3.8 3.8 0 00-2.615 4.671l9.813 34.785a3.8 3.8 0 004.671 2.615 3.8 3.8 0 002.616-4.671l-9.814-34.785a3.8 3.8 0 00-4.671-2.615zm-2.599-18.81l-.787 1.093a4.59 4.59 0 001.042 6.389l19.906 14.322a4.59 4.59 0 006.388-1.042l.786-1.094a4.59 4.59 0 00-1.041-6.388l-19.906-14.323a4.589 4.589 0 00-6.388 1.043z" fill="#c97e67"/><path d="M969.465 697.26a3.8 3.8 0 00-2.615 4.672l7.866 27.882a3.8 3.8 0 004.67 2.615 3.8 3.8 0 002.617-4.67l-7.866-27.883a3.8 3.8 0 00-4.672-2.616z" fill="#c97e67"/><path d="M939.485 686.593s-5.479 20.93 3.822 33.168c3.22 4.236 30.464-4.264 31.525-10.13s-6.089-24.179-6.089-24.179z" fill="#c97e67"/><path d="M941.541 705.108a3.789 3.789 0 00-2.61 4.661l7.849 27.826a3.789 3.789 0 004.662 2.61 3.79 3.79 0 002.611-4.662l-7.851-27.825a3.787 3.787 0 00-4.661-2.61zm33.16-17.479c-.089-42.221 3.07-102.892 18.631-152.155 3.606-11.414 5.15-15.718 8.2-22.051 2.455-5.1-3.73-15.221-12.405-19.517-8.138-4.031-20.052-2.138-21.729.388-2.854 4.295-5.583 12.271-9.807 24.927-14.682 43.971-20.756 99.575-18.731 170.347z" fill="#c97e67"/><path d="M955.671 594.281c-.1 0-.209 0-.315-.012-3.273-.231-5.67-4.167-5.344-8.773.327-4.606 3.253-8.152 6.529-7.934a5.257 5.257 0 014.11 2.864 11.058 11.058 0 01-.821 11.589 5.355 5.355 0 01-4.159 2.266zm-4.091-8.673c-.26 3.676 1.521 6.926 3.888 7.092a3.746 3.746 0 003.128-1.66 9.5 9.5 0 00.7-9.824 3.742 3.742 0 00-2.862-2.085c-2.352-.16-4.587 2.8-4.849 6.477z" fill="#b2604d" opacity=".5"/><path d="M1036.431 1043.214s-.345 13.734-9.639 17.609-36.221 7.369-26.158 16.2c5.773 5.067 32.983 1.793 40.663 1.793s14.9 3.348 20.6-1.793c6.281-5.656 0-33.808 0-33.808s-6.629 3.453-12.59 3.3c-8.587-.228-12.876-3.301-12.876-3.301zm70.365-.982s-.344 13.735-9.638 17.609-36.221 7.369-26.16 16.2c5.774 5.067 32.983 1.793 40.665 1.793s14.894 3.349 20.6-1.793c6.28-5.656 0-33.809 0-33.809s-6.629 3.454-12.592 3.3c-8.587-.225-12.875-3.3-12.875-3.3zm28.516-359.112c-.156 6.846-37.211 9.564-83.039 7.966s-82.451-8.675-82.294-15.521 36.838-15.77 82.667-14.173 82.824 14.883 82.666 21.728z" fill="#33353b"/><path d="M1124.094 489.325s-9.056-25.689-68.847-26.053c-86.225-.525-77.29 77.79-85.268 212.293 0 0 75.684-27.223 165.376 5.871 0 0 7.463-137.288-11.261-192.111z" fill="#f89843"/><path d="M1158.9 488.155l-39.952 25.269s-104.265 8.929-132.051 4.913c-15.057-2.177-27.865-15.309-27.865-15.309s11.11-44.161 105.117-42.7c63.953 1.003 94.751 27.827 94.751 27.827z" fill="#f89843"/><path d="M1076.009 460.828c-9.163 10.439-27.447 17.4-36.392 14.368-11.149-3.769-6.742-10.381-5.307-11.932 3.524-3.8 4.611-6.583 4.683-11.063l.015-1.086.087-5.511.159-10.367.16-10.482.537-34.74 12.874 35.276 2.19 6 3.088 8.467 4.437 12.135c2.435 6.673 13.397 8.921 13.469 8.935z" fill="#c97e67"/><path d="M1158.9 488.155c4.04 5.717-1.912 17.01-13.294 25.225s-23.886 10.239-27.926 4.523 1.911-17.011 13.294-25.226 23.885-10.239 27.926-4.522z" fill="#33353b"/><path d="M1172.973 705.422a3.8 3.8 0 012.615 4.671l-8.774 31.1a3.8 3.8 0 01-4.672 2.616 3.8 3.8 0 01-2.614-4.671l8.774-31.1a3.8 3.8 0 014.671-2.616zm-9.328-2.63a3.794 3.794 0 012.616 4.671l-9.813 34.783a3.8 3.8 0 01-4.671 2.616 3.8 3.8 0 01-2.616-4.672l9.813-34.783a3.8 3.8 0 014.671-2.615zm2.601-18.812l.786 1.093a4.59 4.59 0 01-1.042 6.389l-19.905 14.323a4.593 4.593 0 01-6.39-1.042l-.786-1.093a4.592 4.592 0 011.042-6.389l19.907-14.323a4.591 4.591 0 016.388 1.042z" fill="#c97e67"/><path d="M1154.319 700.159a3.8 3.8 0 012.615 4.671l-7.869 27.884a3.8 3.8 0 01-4.671 2.616 3.8 3.8 0 01-2.616-4.671l7.866-27.883a3.8 3.8 0 014.675-2.617z" fill="#c97e67"/><path d="M1184.299 689.494s5.478 20.929-3.823 33.167c-3.218 4.236-30.463-4.266-31.523-10.129s6.088-24.18 6.088-24.18z" fill="#c97e67"/><path d="M1182.243 708.008a3.789 3.789 0 012.61 4.662l-7.849 27.825a3.791 3.791 0 01-4.662 2.61 3.789 3.789 0 01-2.61-4.661l7.85-27.826a3.787 3.787 0 014.661-2.61zm-33.16-17.479c.09-42.221-3.069-102.892-18.631-152.155-3.607-11.413-5.15-15.718-8.2-22.052-2.455-5.1 3.731-15.22 12.406-19.515 8.138-4.031 19.507-3.724 21.73.386 2.453 4.537 5.583 12.272 9.807 24.928 14.68 43.972 20.756 99.575 18.731 170.346z" fill="#c97e67"/><path d="M1168.113 597.18a5.352 5.352 0 01-4.159-2.267 11.052 11.052 0 01-.82-11.587 4.891 4.891 0 018.584-.609 10.405 10.405 0 012.054 5.678 10.391 10.391 0 01-1.234 5.911 5.254 5.254 0 01-4.111 2.863 3.646 3.646 0 01-.314.011zm-.561-15.156c-.065 0-.13 0-.2.006a3.744 3.744 0 00-2.863 2.087 9.5 9.5 0 00.7 9.822 3.339 3.339 0 005.99-.424 8.815 8.815 0 001.026-5.009 8.821 8.821 0 00-1.721-4.814 3.84 3.84 0 00-2.932-1.668z" fill="#b2604d" opacity=".5"/><path d="M980.78 683.268c.051 29.768 2.656 71.642 10.951 132.311 11.5 84.131 25.08 168.907 31.742 209.551 2.384 14.539 12.432 25.169 24.341 25.75l6.4.312c12.878.63 23.328-12.829 22.388-28.831l-16.161-274.969-2.645-60.107a59.458 59.458 0 00-12.61-5.046c-23.265-6.625-64.421-9.425-64.406 1.029z" fill="#44474f"/><path d="M1049.452 683.603c1.418 29.611 4.565 69.016 13.173 131.976 11.5 84.131 25.081 168.907 31.743 209.551 2.383 14.539 12.432 25.169 24.341 25.75l6.4.312c12.877.63 23.328-12.829 22.388-28.831l-16.162-274.969-2.5-56.86a6.213 6.213 0 00-4.3-5.65c-16.394-5.273-76.125-23.023-75.083-1.279z" fill="#44474f"/><path d="M1059.452 796.071c-6.658-48.681-30.927-77.664-31.171-77.952l.88-.749c.246.288 24.73 29.509 31.437 78.544zm-1.349-356.31s-6.8 9.6-19.095 11.354l.087-5.511.159-10.367zm-38.838-66.356s-17.129 15.928-5.877 29.441 5.877-29.441 5.877-29.441zm48.917 59.781s31.248-12.624 31.248-41.232c0-12.687-3.956-18.3-10.97-23.188-34.474-24.042-20.278 64.42-20.278 64.42z" fill="#33353b"/><path d="M1012.865 399.308c2.775-21.144 20.233-36.29 38.992-33.827s31.715 21.6 28.939 42.746-20.234 36.29-38.992 33.827-31.715-21.601-28.939-42.746z" fill="#c97e67"/><path d="M1045.379 399.367a.694.694 0 01.311-1.279 7.519 7.519 0 018 4.556.7.7 0 01-.312.932.763.763 0 01-.932-.313 11.87 11.87 0 00-6.645-3.789.694.694 0 01-.422-.107zm3.01 8.908c-.436 1.6-1.729 2.639-2.889 2.322s-1.747-1.869-1.312-3.468 1.731-2.638 2.89-2.321 1.747 1.869 1.311 3.467zm-28.701-10.969a.506.506 0 01-.375-.346.84.84 0 01.269-.94 4.873 4.873 0 017.081.8.827.827 0 01.013.971.512.512 0 01-.766.1 7.281 7.281 0 00-5.88-.676.46.46 0 01-.342.091zm6.333 7.117c.2 1.644-.595 3.1-1.789 3.248s-2.326-1.063-2.532-2.708.594-3.1 1.787-3.247 2.328 1.063 2.534 2.707z" fill="#33353b"/><path d="M1023.86 419.63a70.284 70.284 0 0022.346 1.76s-1.712 10.805-13.519 8.651c-6.865-1.251-8.827-10.411-8.827-10.411z" fill="#fff"/><path d="M1009.559 379.931c2.883 3.867 6.6 8.129 16.02 6.317s11.748-6.5 11.748-6.5a12.686 12.686 0 0012.082 6.386c8.578-.586 9.692-4.082 9.692-4.082s1.117 7.846 8.7 9.658-4.62 11.134 8.43 12.982c9.43 1.334 7.991-19.6 11.357-31.289 4.6-15.967-12.2-28.09-19.787-22.652-6.345 4.548-11.233-2.88-25.039-3.988-16.552-1.329-10.736 12.426-17.4 11.1-15.221-3.033-24.143 10.885-15.803 22.068z" fill="#33353b"/><path d="M1081.072 408.466c-3.473 2.21-7.889 1.485-9.863-1.618s-.761-7.412 2.712-9.621 7.89-1.485 9.865 1.619.759 7.41-2.714 9.62z" fill="#c97e67"/><path d="M1101.017 373.293a.986.986 0 01-.807-.417 8.067 8.067 0 00-7.827-3.225.986.986 0 01-.378-1.936 10.05 10.05 0 019.817 4.024.986.986 0 01-.805 1.554zm-10.775-6.394a.987.987 0 01-.956-1.231 11.161 11.161 0 00-1.053-7.344.986.986 0 111.719-.966 13.086 13.086 0 011.244 8.8.986.986 0 01-.954.741zm-65.766-10.447a.986.986 0 01-.473-.122c-.094-.05-9.407-5.064-18.055-2.106a.986.986 0 11-.638-1.865c9.484-3.245 19.233 2.017 19.642 2.242a.987.987 0 01-.476 1.851zm36.219-6.962a.988.988 0 01-.831-.452 14.988 14.988 0 00-4.73-4.356.986.986 0 01.971-1.717 16.745 16.745 0 015.42 5.01.985.985 0 01-.83 1.515z" fill="#33353b"/><path d="M271.316 780.57a3.8 3.8 0 012.615 4.67l-8.775 31.105a3.8 3.8 0 01-4.67 2.615 3.8 3.8 0 01-2.616-4.672l8.774-31.1a3.8 3.8 0 014.672-2.618zm-9.327-2.631a3.8 3.8 0 012.615 4.671l-9.813 34.785a3.8 3.8 0 01-4.671 2.615 3.8 3.8 0 01-2.615-4.671l9.812-34.785a3.8 3.8 0 014.672-2.615zm-23.95 1.951l-.786-1.092a4.578 4.578 0 011.043-6.389l19.905-14.322a4.577 4.577 0 016.388 1.043l.786 1.091a4.578 4.578 0 01-1.042 6.39l-19.906 14.322a4.577 4.577 0 01-6.388-1.042z" fill="#c97e67"/><path d="M252.665 775.307a3.8 3.8 0 012.614 4.672l-7.866 27.882a3.8 3.8 0 01-4.671 2.616 3.8 3.8 0 01-2.615-4.671l7.866-27.883a3.8 3.8 0 014.672-2.616z" fill="#c97e67"/><path d="M282.642 764.641s5.48 20.929-3.822 33.167c-3.219 4.236-30.463-4.264-31.524-10.129s6.088-24.179 6.088-24.179z" fill="#c97e67"/><path d="M280.587 783.156a3.789 3.789 0 012.609 4.661l-7.849 27.825a3.791 3.791 0 01-4.661 2.611 3.789 3.789 0 01-2.611-4.662l7.85-27.826a3.789 3.789 0 014.662-2.609zm-33.161-17.479c.09-42.222-3.069-102.892-18.631-152.155-3.6-11.414-5.149-15.719-8.2-22.052-2.455-5.1 3.73-15.22 12.4-19.516 8.14-4.031 20.053-2.14 21.731.387 2.854 4.3 5.582 12.272 9.808 24.927 14.68 43.972 20.754 99.576 18.731 170.347z" fill="#c97e67"/><path d="M266.465 672.328c-3.149 0-5.909-3.481-6.225-7.944a10.394 10.394 0 011.235-5.91 5.253 5.253 0 014.11-2.865c3.286-.22 6.2 3.328 6.528 7.934a10.393 10.393 0 01-1.234 5.911 5.257 5.257 0 01-4.11 2.864c-.104.007-.204.01-.304.01zm-.577-15.157c-.064 0-.128 0-.192.007a3.746 3.746 0 00-2.862 2.086 8.808 8.808 0 00-1.025 5.008c.26 3.679 2.491 6.641 4.848 6.477a3.744 3.744 0 002.862-2.086 8.819 8.819 0 001.026-5.009c-.252-3.579-2.361-6.483-4.655-6.483z" fill="#b2604d" opacity=".5"/><path d="M184.097 1040.928s.339 12.69 9.482 16.269 35.633 6.81 25.735 14.967c-5.68 4.682-32.449 1.658-40.005 1.658s-14.653 3.094-20.27-1.658c-6.178-5.225 0-31.236 0-31.236s6.522 3.19 12.387 3.048c8.452-.206 12.671-3.048 12.671-3.048zm-69.224-.905s.339 12.689 9.482 16.268 35.634 6.81 25.734 14.969c-5.679 4.681-32.446 1.656-40 1.656s-14.654 3.093-20.269-1.656c-6.179-5.227 0-31.237 0-31.237s6.521 3.191 12.386 3.047c8.448-.206 12.667-3.047 12.667-3.047zM86.815 761.167c.157 6.845 37.21 9.563 83.04 7.966s82.45-8.676 82.294-15.52-36.839-15.77-82.667-14.173-82.823 14.882-82.667 21.727z" fill="#33353b"/><path d="M98.034 567.373s9.055-25.689 68.846-26.053c86.225-.526 77.29 77.789 85.269 212.293 0 0-75.684-27.223-165.377 5.87 0 0-7.463-137.287 11.262-192.11z" fill="#f9698c"/><path d="M63.228 566.202l39.951 25.27s104.266 8.929 132.052 4.913c15.057-2.177 27.864-15.309 27.864-15.309s-11.109-44.161-105.117-42.7c-63.953 1.003-94.75 27.826-94.75 27.826z" fill="#f9698c"/><path d="M146.119 538.875c9.162 10.439 27.445 17.4 36.391 14.369 11.15-3.77 6.743-10.381 5.307-11.933-3.523-3.8-4.611-6.582-4.683-11.062l-.014-1.088-.087-5.51-.16-10.365-.16-10.484-.536-34.74-12.875 35.277-2.19 6-3.087 8.468-4.437 12.135c-2.437 6.672-13.397 8.919-13.469 8.933z" fill="#c97e67"/><path d="M63.228 566.202c-4.041 5.718 1.912 17.011 13.294 25.225s23.884 10.24 27.925 4.523-1.911-17.01-13.293-25.225-23.889-10.24-27.926-4.523z" fill="#33353b"/><path d="M49.155 783.47a3.8 3.8 0 00-2.616 4.671l8.775 31.1a3.8 3.8 0 004.672 2.616 3.8 3.8 0 002.615-4.671l-8.775-31.1a3.8 3.8 0 00-4.671-2.616zm9.327-2.631a3.8 3.8 0 00-2.616 4.671l9.813 34.783a3.8 3.8 0 004.671 2.617 3.8 3.8 0 002.616-4.672l-9.814-34.784a3.794 3.794 0 00-4.67-2.615zm-3.387-17.719l.787-1.094a4.578 4.578 0 016.389-1.043l19.912 14.321a4.577 4.577 0 011.044 6.388l-.786 1.093a4.58 4.58 0 01-6.39 1.045L56.14 769.51a4.578 4.578 0 01-1.044-6.39z" fill="#c97e67"/><path d="M67.809 778.207a3.8 3.8 0 00-2.616 4.671l7.866 27.883a3.8 3.8 0 004.672 2.616 3.8 3.8 0 002.615-4.671l-7.867-27.883a3.8 3.8 0 00-4.67-2.616z" fill="#c97e67"/><path d="M37.829 767.541s-5.479 20.93 3.822 33.168c3.219 4.235 30.463-4.265 31.524-10.13S67.087 766.4 67.087 766.4z" fill="#c97e67"/><path d="M39.884 786.055a3.79 3.79 0 00-2.611 4.661l7.852 27.827a3.79 3.79 0 004.661 2.61 3.792 3.792 0 002.61-4.662l-7.851-27.825a3.787 3.787 0 00-4.661-2.611zm33.16-17.479c-.089-42.22 3.07-102.892 18.631-152.154 3.607-11.414 5.15-15.718 8.2-22.052 2.455-5.1-3.731-15.221-12.4-19.516-8.139-4.031-19.509-3.723-21.731.387-2.454 4.536-5.584 12.272-9.808 24.928-14.679 43.971-20.755 99.575-18.73 170.346z" fill="#c97e67"/><path d="M54.002 675.227c-.1 0-.2 0-.3-.01a5.253 5.253 0 01-4.11-2.864 10.4 10.4 0 01-1.236-5.91c.327-4.606 3.237-8.161 6.53-7.934 3.272.231 5.671 4.168 5.345 8.775-.319 4.464-3.079 7.943-6.229 7.943zm.568-15.156c-2.327 0-4.388 2.846-4.646 6.482a8.82 8.82 0 001.025 5.01 3.741 3.741 0 002.863 2.085c2.358.155 4.588-2.8 4.848-6.475s-1.521-6.928-3.888-7.1l-.202-.002z" fill="#b2604d" opacity=".5"/><path d="M240.065 758.634c.116 23.662-2.253 56.965-10.206 105.248-11.03 66.955-24.131 134.437-30.566 166.789a25.8 25.8 0 01-24.195 20.641l-6.4.294a21.477 21.477 0 01-22.548-22.759l14.615-218.678 2.308-47.8a68.77 68.77 0 0112.582-4.1c23.228-5.423 64.37-7.947 64.41.365z" fill="#fff2e2"/><path d="M171.399 759.387c-1.252 23.546-4.179 54.891-12.432 105-11.03 66.953-24.131 134.436-30.566 166.79a25.8 25.8 0 01-24.2 20.639l-6.4.294a21.479 21.479 0 01-22.548-22.759l14.615-218.679 2.184-45.214c.1-2.067 1.8-3.871 4.27-4.521 16.366-4.311 75.997-18.841 75.077-1.55z" fill="#fff2e2"/><path d="M161.965 848.88l-1.016-.168c6.436-39.061 30.774-62.477 31.018-62.709l.709.75c-.243.23-24.333 23.422-30.711 62.127zm2.06-331.066s6.8 9.6 19.1 11.352l-.087-5.51-.16-10.365zm38.84-66.362s17.129 15.93 5.878 29.443-5.878-29.443-5.878-29.443zm-48.92 59.781s-31.248-12.624-31.248-41.232c0-12.687 3.956-18.3 10.97-23.189 34.475-24.04 20.278 64.421 20.278 64.421z" fill="#33353b"/><path d="M209.265 477.357c-2.777-21.146-20.234-36.292-38.992-33.828s-31.715 21.6-28.94 42.745 20.234 36.29 38.993 33.828 31.713-21.601 28.939-42.745z" fill="#c97e67"/><path d="M176.749 477.414a.684.684 0 00.321-.529.693.693 0 00-.632-.749 7.517 7.517 0 00-8.005 4.555.7.7 0 00.312.932.762.762 0 00.932-.311 11.878 11.878 0 016.645-3.791.681.681 0 00.427-.107zm-3.011 8.909c.436 1.6 1.731 2.639 2.89 2.321s1.747-1.868 1.312-3.466-1.731-2.639-2.891-2.323-1.747 1.869-1.311 3.468zm28.702-10.969a.511.511 0 00.375-.346.839.839 0 00-.271-.94 4.87 4.87 0 00-7.079.8.825.825 0 00-.014.972.514.514 0 00.767.1 7.3 7.3 0 015.88-.676.46.46 0 00.342.09zm-6.333 7.116c-.206 1.645.594 3.1 1.788 3.248s2.327-1.063 2.533-2.707-.6-3.1-1.788-3.248-2.328 1.064-2.533 2.707z" fill="#33353b"/><path d="M198.265 497.677a70.248 70.248 0 01-22.346 1.76s1.712 10.805 13.518 8.652c6.868-1.252 8.828-10.412 8.828-10.412z" fill="#fff"/><path d="M141.055 486.514c3.472 2.21 7.889 1.486 9.865-1.618s.759-7.411-2.715-9.62-7.888-1.485-9.864 1.619-.759 7.408 2.714 9.619z" fill="#c97e67"/><path d="M116.725 454.668a1.333 1.333 0 01-1.246-1.8c3.033-8 11.148-8.551 11.491-8.57a1.332 1.332 0 01.153 2.66 10.9 10.9 0 00-9.153 6.854 1.331 1.331 0 01-1.245.856zm11.947-11.996a1.331 1.331 0 01-1.169-.689c-3.007-5.469-1.405-11.673-1.335-11.934a1.333 1.333 0 012.576.685c-.027.105-1.376 5.474 1.094 9.965a1.331 1.331 0 01-1.166 1.973zm4.993 4.142a16.483 16.483 0 01-.369-2.52c-.386-4.747.229-15.289 11.332-23.669 14.805-11.174 46.653 10.517 62.444 7.559s19.694 7.616 12.978 14.49-12.978 5.867-12.978 5.867 15.792-.638 14.806 6.264-18.958 12.16-34.785 4.273-32.574 21.864-44.577 10.111-8.851-22.375-8.851-22.375z" fill="#33353b"/><path d="M177.073 421.82s11.942.787 18.228 0 14.262 4.637 7.562 9.567-25.79-9.567-25.79-9.567z" fill="#33353b"/><path d="M430.573 786.42c-24.264 76.176-37.47 210.448-50.368 247.054-4.613 13.094-25.9 10.955-22.612-3.754 0 0-21.734-162.507 20-264.906 9.03-22.151 86.591-83.912 52.98 21.606z" fill="#c97e67"/><path d="M380.205 1033.474s-1.723 15.235 6.161 20.887 32.092 13.484 21.255 21.765c-6.218 4.751-30.726-2.876-37.808-4.009s-14.323 1.508-18.678-5.018c-4.792-7.178 6.458-37.379 6.458-37.379s4.9 3.814 10.419 4.521c7.961 1.019 12.193-.767 12.193-.767z" fill="#fff2e2"/><path d="M487.65 785.499c-16.112 78.471-15.126 213.439-24.1 251.288-3.209 13.538-24.595 13.825-22.871-1.168 0 0-38.686-159.072-7.962-265.591 6.648-23.043 77.248-93.226 54.933 15.471z" fill="#c97e67"/><path d="M463.817 1035.614s1.052 16.542 9.505 21.3 33.373 9.9 23.505 19.314c-5.663 5.4-30.856.494-38.019.143s-14.075 3.062-19.116-2.95c-5.546-6.613.988-37.807.988-37.807a38.4 38.4 0 0010.966 2.082c8.019.149 12.171-2.082 12.171-2.082z" fill="#fff2e2"/><path d="M385.743 913.114q-.162 0-.327-.009a6.582 6.582 0 01-4.652-2.278 7.773 7.773 0 01-1.817-5.754 7.7 7.7 0 017.687-7.271 6.583 6.583 0 014.651 2.278 7.959 7.959 0 01-5.542 13.034zm.559-13.674a6.065 6.065 0 00-5.715 5.77 6.114 6.114 0 001.416 4.532 4.95 4.95 0 003.494 1.72c3.019.17 5.69-2.437 5.966-5.765a6.12 6.12 0 00-1.416-4.533 4.946 4.946 0 00-3.494-1.718c-.088 0-.167-.003-.251-.003zm69.11 14.834c-.108 0-.218 0-.327-.008a6.59 6.59 0 01-4.652-2.279 7.78 7.78 0 01-1.817-5.753c.349-4.2 3.788-7.447 7.688-7.271a6.577 6.577 0 014.65 2.277 7.958 7.958 0 01-5.542 13.034zm.559-13.674a6.066 6.066 0 00-5.715 5.77 6.122 6.122 0 001.415 4.534 4.96 4.96 0 003.5 1.718c3.011.167 5.689-2.437 5.965-5.765a6.112 6.112 0 00-1.417-4.533 4.94 4.94 0 00-3.494-1.718c-.087-.003-.17-.006-.254-.006z" fill="#b2604d" opacity=".2"/><path d="M423.111 444.222s-26.792-9-46.3 23.242c-12.575 20.782-18.189 9.717-28.076 13.559s2.769 20.065-4.349 23.907-16.212 3.6-17 13.967 17.957 7.806 13.328 17.625-6.606 10.284-1.464 17.095 19.376-.018 25.307 11.081 89.651 14.765 96.486 2.472 1.581-17.238 12.653-21.809 6.327-16.768 6.722-26.464 19.377-16.41 5.537-29.276-1.582-23.538-15.817-32.076-30.717-17.179-47.027-13.323z" fill="#33353b"/><path d="M374.305 547.821s48.621-11.381 91.721 1.027c0 0 27.518 7.622 44.022 23.292 0 0-2.161 17.365-28.967 26.255 0 0 7.515 42.808 11.109 74.035 5.728 49.765 49.7 184.668 25.141 205.285-20.689 17.371-35.814-9.029-61.638 3.164-44.2 20.871-61.5-4.112-92.459-2.637-32.612 1.556-56.624 21.419-58-36.906-.811-34.487 9.011-119.685 47.905-247.664 0 0-16.347-4.549-26.612-24.481.002 0 27.37-16.926 47.778-21.37z" fill="#f4925d"/><path d="M326.529 569.191c-2.842 3.08 2.487 13.472 11.9 23.212s19.354 15.139 22.2 12.059-2.486-13.472-11.9-23.212-19.357-15.136-22.2-12.059zm95.888-126.042a.8.8 0 01-.78-.61c-.036-.131-.815-2.772-5.893-4.3a.805.805 0 01.464-1.542c6.062 1.826 6.958 5.313 6.992 5.461a.8.8 0 01-.6.97.746.746 0 01-.183.021zm3.825-.001a.805.805 0 01-.438-1.483c.328-.212 8.22-5.163 21.07-1.815a.805.805 0 11-.406 1.558c-12.128-3.157-19.718 1.564-19.794 1.614a.8.8 0 01-.432.126z" fill="#33353b"/><path d="M402.118 543.88c5.884-1.511 6.927-4.186 8.538-9.354l5.044-16.2 1.462-4.7 8.607-27.643 2.043 26.893 1.222 16.143.35 4.6c.284 3.754 3.793 10.171 8.11 10.155 0 0-1.237 9.1-16.659 9.024-11.516-.055-18.749-8.911-18.717-8.918z" fill="#c97e67"/><path d="M415.597 517.893c.029.146.062.291.1.435 2.1 8.44 13.5 12.922 13.5 12.922l-.17-2.23-1.222-16.143c-3.388-.509-8.147-.828-10.65.75-1.301.824-1.99 2.165-1.558 4.266z" fill="#db996b"/><path d="M461.397 488.554a31.728 31.728 0 10-26.319 36.339 31.727 31.727 0 0026.319-36.339z" fill="#c97e67"/><path d="M447.47 509.335a63.152 63.152 0 01-20.141-.081s.732 9.8 11.463 8.749c6.241-.61 8.678-8.668 8.678-8.668z" fill="#db6b49"/><path d="M447.47 509.335s-2.059 2.351-7.6 3.213-12.538-3.294-12.538-3.294 12.342 1.36 20.138.081z" fill="#fff"/><path d="M429.344 489.514a.662.662 0 00-.126-1.248 7.164 7.164 0 00-8.158 3.238.669.669 0 00.172.921.726.726 0 00.92-.172 11.341 11.341 0 016.774-2.7.668.668 0 00.418-.039zm-4.023 8.008c.2 1.567 1.282 2.719 2.419 2.574s1.9-1.533 1.7-3.1-1.283-2.72-2.42-2.575-1.899 1.534-1.699 3.101zm27.89-8.332a.661.661 0 00.361-1.2 7.166 7.166 0 00-8.776-.112.667.667 0 00-.193.916.727.727 0 00.917.192 11.343 11.343 0 017.29.087.651.651 0 00.401.117zm-6.769 5.872c-.412 1.525.151 3 1.256 3.3s2.337-.694 2.75-2.219-.15-3-1.257-3.3-2.337.695-2.749 2.219z" fill="#33353b"/><path d="M430.065 459.083s21.481-13.107 30.443 18.717c0 0 5.8 7.909-6.658 5.933s-12.455 5.689-20.759 2.251-6.741-3.7-12.146-.407-1.3-8.041-18.3-16.74c-9.835-5.032 6.997-10.544 27.42-9.754z" fill="#33353b"/><path d="M414.376 476.219s-11.467 8.963-9.094 15.091 2.919 9.913-.4 13.051 5.148 6.1.8 11.947-27.517.358-24.516-17.442c5.925-35.17 40.723-37.081 33.21-22.647z" fill="#33353b"/><path d="M403.909 499.978c3.751 2.585 8.352 2.176 10.276-.914s.445-7.7-3.306-10.283-8.352-2.176-10.276.914-.445 7.695 3.306 10.283z" fill="#c97e67"/><path d="M358.732 477.082q-.727 0-1.494-.06a.806.806 0 11.129-1.606c9.662.774 13.893-6.7 17.391-14.424 3.911-8.632 14.611-13.018 15.065-13.2a.805.805 0 01.6 1.493c-.106.042-10.559 4.336-14.2 12.372-3.398 7.505-7.83 15.425-17.491 15.425z" fill="#33353b"/><path d="M477.481 753.508l-25.416-33.578c46-37.549 27.139-125.84 26.943-126.728l30.184-14.7c6.86 13.139 34.929 120.612-31.711 175.006z" fill="#b2604d"/><path d="M510.048 576.094s-9.735 33.345-42.226 30.973c-27.793-2.03 6.66-28.458 6.66-28.458z" fill="#f4925d"/><path d="M464.355 749.908a3.94 3.94 0 01.084 5.556l-23.358 24.078a3.941 3.941 0 01-5.557.085 3.941 3.941 0 01-.084-5.556l23.359-24.079a3.939 3.939 0 015.556-.084zm-7.222-7.006a3.942 3.942 0 01.085 5.558l-26.122 26.929a3.944 3.944 0 01-5.558.084 3.943 3.943 0 01-.084-5.557l26.123-26.929a3.941 3.941 0 015.556-.085zm11.655-15.898l.179 1.388a4.763 4.763 0 01-4.1 5.32l-25.247 3.262a4.766 4.766 0 01-5.322-4.1l-.179-1.387a4.763 4.763 0 014.1-5.32l25.247-3.262a4.764 4.764 0 015.322 4.099z" fill="#b2604d"/><path d="M449.913 735.898a3.942 3.942 0 01.085 5.557l-20.941 21.585a3.941 3.941 0 01-5.557.085 3.939 3.939 0 01-.083-5.556l20.94-21.587a3.94 3.94 0 015.556-.084z" fill="#b2604d"/><path d="M482.558 740.946s-5.322 21.819-19.854 28.408c-5.03 2.281-25.72-18.924-23.8-24.8s17.489-19.081 17.489-19.081z" fill="#b2604d"/><path d="M471.545 756.842a3.932 3.932 0 01.085 5.545l-20.9 21.542a3.931 3.931 0 01-5.544.084 3.932 3.932 0 01-.084-5.545l20.9-21.541a3.932 3.932 0 015.543-.085z" fill="#b2604d"/><path d="M428.509 756.543l8.354-40.549c-.547-.032-60.9-4-78.644-48.332a76.02 76.02 0 012.411-63.2c2.869-5.74-27.448-31.945-29.908-26.881-17.715 36.476-22.093 71.336-8.466 105.388 11.624 29.048 35.227 51.1 68.255 63.777 23.694 9.093 23.594 10.501 37.998 9.797z" fill="#c97e67"/><path d="M337.682 690.762a6.38 6.38 0 01-1.8-.27 11.678 11.678 0 01-6.547-5.934c-2.608-4.956-1.987-10.545 1.384-12.457a5.505 5.505 0 014.362-.391 11.686 11.686 0 016.547 5.933c2.607 4.957 1.986 10.546-1.385 12.458a5.141 5.141 0 01-2.561.661zm-4.4-17.748a3.577 3.577 0 00-1.789.455c-2.639 1.5-2.984 6.144-.767 10.357a10.1 10.1 0 005.6 5.156 3.985 3.985 0 003.143-.249c2.641-1.5 2.985-6.144.769-10.358a10.1 10.1 0 00-5.6-5.157 4.863 4.863 0 00-1.358-.204z" fill="#b2604d" opacity=".5"/><path d="M423.719 719.505s13.755-12.591 24.613-11.48 23.889 10.739 17.013 11.48-15.927-.741-15.927-.741 19.184 4.074 16.288 8.148-19.545.37-19.545.37 22.441 6.667 18.459 9.63-20.994-2.222-20.994-2.222 20.632 7.035 15.926 10.369-17.01-5.926-19.906-1.852-8.326 20-20.632 13.332zm732.413-298.007a3.8 3.8 0 01-4.744-2.48l-9.669-30.837a3.8 3.8 0 012.48-4.745 3.8 3.8 0 014.745 2.48l9.668 30.836a3.8 3.8 0 01-2.48 4.746zm9.247-2.899a3.8 3.8 0 01-4.744-2.481l-10.813-34.486a3.8 3.8 0 012.48-4.745 3.8 3.8 0 014.745 2.48l10.812 34.486a3.8 3.8 0 01-2.48 4.746zm8.114 17.169l-1.257-.485a4.592 4.592 0 01-2.622-5.919l8.828-22.879a4.592 4.592 0 015.918-2.622l1.258.485a4.592 4.592 0 012.622 5.919l-8.83 22.878a4.59 4.59 0 01-5.917 2.623z" fill="#c97e67"/><path d="M1174.627 415.699a3.8 3.8 0 01-4.745-2.479l-8.668-27.645a3.8 3.8 0 012.481-4.745 3.8 3.8 0 014.744 2.48l8.667 27.643a3.8 3.8 0 01-2.479 4.746z" fill="#c97e67"/><path d="M1155.365 441.027s-16.037-14.523-14.945-29.856c.378-5.307 27.835-13.093 31.931-8.764s8.13 23.571 8.13 23.571z" fill="#c97e67"/><path d="M1146.958 424.404a3.789 3.789 0 01-4.735-2.474l-8.649-27.588a3.787 3.787 0 012.474-4.734 3.789 3.789 0 014.735 2.475l8.65 27.586a3.79 3.79 0 01-2.475 4.735zm37.319-3.507c23.021 35.394 58.853 84.453 98.829 117.181 9.262 7.582 12.908 10.341 18.927 13.974 4.844 2.923 5.2 14.782.291 23.122-4.608 7.826-15.615 12.76-18.4 11.564-4.739-2.036-11.386-7.22-21.846-15.5-36.341-28.78-71.844-72-108.861-132.356zm115.019 365.523c24.265 76.176 37.471 210.448 50.368 247.054 4.613 13.094 25.9 10.955 22.613-3.754 0 0 21.733-162.507-20-264.906-9.031-22.151-86.591-83.912-52.981 21.606z" fill="#c97e67"/><path d="M1349.665 1033.474s1.724 15.235-6.161 20.887-32.092 13.484-21.255 21.765c6.218 4.751 30.725-2.876 37.808-4.009s14.324 1.508 18.678-5.018c4.791-7.178-6.457-37.379-6.457-37.379s-4.9 3.814-10.42 4.521c-7.962 1.019-12.193-.767-12.193-.767z" fill="#fff2e2"/><path d="M1242.219 785.499c16.112 78.471 15.127 213.439 24.1 251.288 3.208 13.538 24.593 13.825 22.87-1.168 0 0 38.687-159.072 7.963-265.591-6.647-23.043-77.251-93.226-54.933 15.471z" fill="#c97e67"/><path d="M1266.051 1035.614s-1.051 16.542-9.505 21.3-33.372 9.9-23.5 19.314c5.661 5.4 30.855.494 38.019.143s14.073 3.062 19.114-2.95c5.546-6.613-.987-37.807-.987-37.807a38.386 38.386 0 01-10.966 2.082c-8.027.149-12.175-2.082-12.175-2.082z" fill="#fff2e2"/><path d="M1344.125 913.114a7.96 7.96 0 01-5.541-13.034 6.581 6.581 0 014.65-2.278c3.906-.194 7.339 3.068 7.688 7.271a7.768 7.768 0 01-1.817 5.753 6.579 6.579 0 01-4.651 2.279c-.11.009-.22.009-.329.009zm-.558-13.674c-.084 0-.167 0-.25.006a4.945 4.945 0 00-3.495 1.718 6.119 6.119 0 00-1.416 4.533c.277 3.328 2.942 5.929 5.965 5.765a4.947 4.947 0 003.5-1.72 6.123 6.123 0 001.417-4.532 6.068 6.068 0 00-5.723-5.767zm-69.111 14.834a7.96 7.96 0 01-5.54-13.035 6.569 6.569 0 014.649-2.276c3.879-.176 7.338 3.067 7.688 7.271a7.773 7.773 0 01-1.818 5.753 6.581 6.581 0 01-4.65 2.279c-.11.005-.22.008-.329.008zm-.559-13.674c-.083 0-.166 0-.249.006a4.943 4.943 0 00-3.494 1.718 6.119 6.119 0 00-1.417 4.533c.276 3.328 2.938 5.925 5.965 5.765a4.952 4.952 0 003.5-1.718 6.317 6.317 0 00-4.3-10.3z" fill="#b2604d" opacity=".2"/><path d="M1424.63 841.333c-1.37 58.329-25.389 38.463-57.994 36.906-30.959-1.47-48.264 23.514-92.464 2.642-25.824-12.2-40.948 14.207-61.635-3.166-22.646-19.009 24.113-126.335 34.3-183.354 3.717.641 70.384 4.884 131.1-12.923 7.346-2.159 7.843 14.76 15.316 15.421 19.541 80.731 31.988 118.376 31.377 144.474z" fill="#f9698c"/><path d="M1306.197 503.2s-15.6-22.558-2.942-42.357 22.746-24.395 30.389-25.064c4.718-.414 9.962-.938 14.456.351 4.784 1.37 6.471 4.891 10.483 7.082 1.868 1.02 7.956 1.3 9.7 2.085 11.959 5.353 15.073 18.472 19.006 28.1 3.991 9.772-10.375 30.178-18.252 35.208s-17.76 12.668-31.653 9.674-31.187-15.079-31.187-15.079z" fill="#33353b"/><path d="M1233.658 681.436c2.215-12.189 9.889-115.307 9.889-115.307-8.872-37.049 13.643-51.934 13.643-51.934 38.45 18.253 55.321 20.145 76.78 24.169 29.579 5.546 85.176 45.907 85.176 45.907-14.223 17.325-31.159 18.334-31.159 18.334 2.709 32.431 4.266 62.021 4.96 88.725 2.142 83.035-169.649 47.093-159.289-9.894z" fill="#fff2e2"/><path d="M1419.143 584.268c2.132 3.608-5.262 12.648-16.515 20.192s-28.326 8.194-32.059 6.289c-5.984-3.051-1.708-12.6 16.722-23.008 16.055-9.068 29.719-7.083 31.852-3.473z" fill="#33353b"/><path d="M1350.465 543.657c-5.435-2.714-5.893-5.548-6.38-10.94l-1.529-16.9-.443-4.9-2.6-28.834-7.648 25.864-4.588 15.525-1.308 4.425a10.411 10.411 0 01-9.991 7.084s-.775 10.3 14.318 13.464c11.269 2.369 20.199-4.774 20.169-4.788z" fill="#c97e67"/><path d="M1342.843 515.398q-.089.2-.192.4c-3.823 7.81-15.917 9.8-15.917 9.8l.633-2.145 4.588-15.524c3.419.213 8.139.9 10.254 2.969 1.107 1.08 1.5 2.537.634 4.5z" fill="#db996b"/><path d="M1304.231 477.089a31.728 31.728 0 1118.1 41.059 31.729 31.729 0 01-18.1-41.059z" fill="#c97e67"/><path d="M1313.48 500.334a63.152 63.152 0 0019.709 4.152s-2.775 9.43-13.046 6.146c-5.978-1.909-6.663-10.298-6.663-10.298z" fill="#db6b49"/><path d="M1313.48 500.334s1.519 2.73 6.76 4.737 12.949-.585 12.949-.585-12.354-1.267-19.709-4.152z" fill="#fff"/><path d="M1335.365 484.763a.662.662 0 01.384-1.194 7.164 7.164 0 017.295 4.88.666.666 0 01-.36.864.727.727 0 01-.865-.36 11.334 11.334 0 00-6.055-4.06.656.656 0 01-.399-.13zm2.253 8.675c-.525 1.489-1.827 2.389-2.908 2.008s-1.532-1.9-1.007-3.387 1.826-2.388 2.907-2.007 1.532 1.896 1.008 3.386zm-25.518-14.006a.662.662 0 01-.1-1.251 7.166 7.166 0 018.6 1.733.668.668 0 01-.005.937.728.728 0 01-.936 0 11.322 11.322 0 00-7.145-1.447.668.668 0 01-.414.028zm5.384 7.163c.083 1.576-.778 2.9-1.922 2.963s-2.138-1.169-2.222-2.747.779-2.9 1.924-2.964 2.137 1.172 2.22 2.748z" fill="#33353b"/><path d="M1358.035 500.337c-4.21 1.742-8.623.374-9.855-3.052s1.183-7.616 5.393-9.357 8.623-.374 9.855 3.053-1.181 7.616-5.393 9.356z" fill="#c97e67"/><path d="M1330.558 452.091s-17.264 3.686-23.639 12.232 11.844 3.05 15.61 8.062 5.1-.417 14.349 1.908 7.392 11.755 14.752 10.355 20.053 1.327 22.085-1.093-12.659-36.506-43.157-31.464zm54.907 5.33s.519-7.55 10.276-8.143 34.9 16.915 30.458 39.155 13.318 28.747 1.812 40.057-18.3 5.983-28.059 1.616-17.87 12.114-25.726 1.817.807-25.96 12.942-31.985 16.146-15.3 11.722-24.041-13.716-12.418-13.425-18.476z" fill="#33353b"/><path d="M1310.035 435.747c-3.733-3.744-20.231-7.535-32.676 9.7s.574 33.306-13.818 37.7-12.594 18.321-.18 19.218 7.05 14.114 16.81 17.977 24.51-1.556 21.9-12.195-13.788-22.787-6.176-45.692c4.14-12.471 18.863-21.972 14.14-26.708zm49.306 5.229a1 1 0 01-.222-.026.986.986 0 01-.739-1.182 11.593 11.593 0 00-5.484-12.227.985.985 0 111.02-1.686c8.419 5.094 6.406 14.264 6.386 14.357a.988.988 0 01-.961.764zm11.944 1.717a.977.977 0 01-.529-.155c-5.229-3.334-7.822-.845-7.929-.737a.992.992 0 01-1.39.01.979.979 0 01-.029-1.38c.151-.158 3.751-3.8 10.408.444a.987.987 0 01-.531 1.818zm62.331 63.844a.983.983 0 01-.747-.343c-3.362-3.9-3.465-9.013-3.585-14.931-.142-7.111-.32-15.959-6.439-25.777-10.727-17.214-29.058-13.189-29.834-13.009a.986.986 0 01-.449-1.92c.2-.046 20.468-4.549 31.956 13.886 6.406 10.279 6.591 19.429 6.738 26.781.117 5.765.208 10.319 3.106 13.683a.987.987 0 01-.746 1.63z" fill="#33353b"/><path d="M1255.926 499.235a.978.978 0 01-.62-.219c-3.736-3.019-5.344-6.314-4.778-9.794 1.111-6.838 10.325-11.994 15.6-13.963 2.759-1.03 2.245-3.855 1.014-9.175-1.656-7.157-3.925-16.958 4.756-26.2 14.728-15.679 37.439-3.9 37.668-3.783a.986.986 0 01-.923 1.743c-.216-.114-21.617-11.184-35.309 3.39-7.958 8.472-5.914 17.3-4.271 24.4 1.215 5.25 2.264 9.783-2.246 11.468-6.315 2.359-13.5 7.255-14.338 12.431-.443 2.73.926 5.4 4.072 7.944a.986.986 0 01-.62 1.753z" fill="#33353b"/><path d="M1384.546 802.468a3.8 3.8 0 011.575 5.117l-15.115 28.565a3.8 3.8 0 01-5.116 1.574 3.8 3.8 0 01-1.575-5.116l15.114-28.564a3.8 3.8 0 015.117-1.576zm-8.566-4.532a3.8 3.8 0 011.575 5.117l-16.9 31.945a3.8 3.8 0 01-5.115 1.575 3.8 3.8 0 01-1.577-5.117l16.9-31.944a3.8 3.8 0 015.117-1.576zm6.494-17.845l.54 1.235a4.591 4.591 0 01-2.361 6.027l-22.471 9.82a4.592 4.592 0 01-6.028-2.362l-.539-1.235a4.589 4.589 0 012.362-6.026l22.47-9.821a4.591 4.591 0 016.027 2.362z" fill="#c97e67"/><path d="M1367.413 793.404a3.8 3.8 0 011.576 5.115l-13.55 25.608a3.8 3.8 0 01-5.116 1.576 3.8 3.8 0 01-1.575-5.117l13.549-25.607a3.8 3.8 0 015.116-1.575z" fill="#c97e67"/><path d="M1398.965 789.275s.958 21.614-10.708 31.625c-4.037 3.463-28.886-10.572-28.69-16.529s11.032-22.36 11.032-22.36z" fill="#c97e67"/><path d="M1393.065 806.945a3.788 3.788 0 011.572 5.1l-13.522 25.554a3.788 3.788 0 01-5.106 1.572 3.788 3.788 0 01-1.572-5.106l13.528-25.551a3.788 3.788 0 015.1-1.569zm-28.746-24.057c8.96-41.261 18.621-101.24 13.759-152.673-1.128-11.918-1.731-16.45-3.384-23.282-1.329-5.5 6.845-14.1 16.228-16.475 8.805-2.23 20.055 2.123 21.163 4.945 1.888 4.8 2.881 13.171 4.351 26.433 5.112 46.074-.632 101.712-17.484 170.478z" fill="#c97e67"/><path d="M1403.451 695.721a4.377 4.377 0 01-.6-.043 5.257 5.257 0 01-3.9-3.146 10.4 10.4 0 01-.816-5.983c.648-4.572 3.8-7.914 7.069-7.456 3.249.461 5.365 4.557 4.715 9.129-.608 4.292-3.437 7.499-6.468 7.499zm1.15-15.1c-2.224 0-4.419 2.694-4.909 6.147a8.813 8.813 0 00.671 5.068 3.741 3.741 0 002.707 2.283c2.337.333 4.774-2.469 5.293-6.12.518-3.651-1.03-7.016-3.38-7.351a2.878 2.878 0 00-.382-.025z" fill="#b2604d" opacity=".5"/></svg>