<svg height="1652.792" width="1654.203" xmlns="http://www.w3.org/2000/svg"><path d="M830.571 46.557c358.883-158.251 803.117 359.568 803.117 803.117s-359.568 803.117-803.117 803.117-639.267-463.512-803.117-803.117S471.689 204.808 830.571 46.557z" fill="#ff6049" opacity=".07"/><g opacity=".2" transform="translate(144.466 1484.519)"><ellipse cx="681.504" cy="28.28" fill="#333" rx="679.556" ry="26.364"/><path d="M681.504 56.625c-181.538 0-352.214-2.743-480.594-7.722C-.001 41.103-.001 32.138-.001 28.313s0-12.817 200.911-20.59C329.29 2.744 499.966.001 681.504.001s352.214 2.743 480.594 7.722c200.911 7.8 200.911 16.765 200.911 20.59s0 12.817-200.911 20.59c-128.38 4.947-299.056 7.722-480.594 7.722zM4.178 28.28c14.272 11.868 286.969 24.41 677.32 24.41s663.055-12.548 677.327-24.41c-14.272-11.868-286.97-24.41-677.326-24.41S18.456 16.412 4.178 28.28z" fill="#fff4e0"/></g><path d="M335.603 1398.089a23.429 23.429 0 00-31 11.682l-33.747 74.787a23.429 23.429 0 0011.715 31 23.43 23.43 0 0031-11.715l33.747-74.754a23.43 23.43 0 00-11.715-31zm1002.157-.003a23.429 23.429 0 0131 11.715l33.747 74.755a23.422 23.422 0 01-11.715 31 23.429 23.429 0 01-31-11.714l-33.747-74.754a23.429 23.429 0 0111.714-31z" fill="#666"/><path d="M1059.498 462.799l266.428-435.37 13.274 8.124-266.428 435.37z" fill="#b3b3b3"/><path d="M1059.651 458.633l191.339-312.481 19.986 12.238-191.338 312.481z" fill="#999"/><circle cx="1335.249" cy="31.248" fill="#999" r="31.248"/><path d="M827.925 164.345l12.082-9.896 238.627 291.338-12.082 9.896z" fill="#b3b3b3"/><path d="M917.295 279.614l18.13-14.85 161.43 197.088-18.13 14.85z" fill="#999"/><circle cx="31.248" cy="31.248" fill="#999" r="31.248" transform="rotate(-7.83 1391.899 -5785.296)"/><circle cx="1093.157" cy="464.778" fill="#666" r="97.639"/><circle cx="1097.059" cy="460.875" fill="gray" r="79.413"/><path d="M1160.073 462.112a5.857 5.857 0 01-5.857-5.857 52.344 52.344 0 00-33.324-48.557 5.858 5.858 0 014.21-10.933 64.129 64.129 0 0140.834 59.489 5.857 5.857 0 01-5.864 5.857zm-93.787-45.378a5.857 5.857 0 01-3.64-10.446 63.193 63.193 0 0136.765-13.7 5.86 5.86 0 11.506 11.708 51.567 51.567 0 00-29.991 11.176 5.826 5.826 0 01-3.64 1.262z" fill="#999"/><path d="M335.603 1398.089a23.429 23.429 0 00-31 11.682l-24.644 54.594q4.287.231 8.626.237h42.687l16.021-35.548a23.43 23.43 0 00-11.689-30.966zm1002.157 0a23.428 23.428 0 00-11.715 31l16.021 35.478a159.688 159.688 0 0047.749-8.139l-21.058-46.654a23.429 23.429 0 00-31-11.683z" fill="#4d4d4d"/><rect fill="#e43b00" height="984.232" rx="249.88" width="1370.891" x="128.451" y="460.875"/><path d="M1499.349 890.496V621.009a160.138 160.138 0 00-160.134-160.134H288.585a160.138 160.138 0 00-160.134 160.134v269.487z" fill="#f9a672" opacity=".779"/><rect fill="#ff6100" height="916.534" rx="249.88" width="1370.891" x="128.766" y="494.724"/><path d="M1466.044 562.942a5.851 5.851 0 01-4.639-2.281 153.328 153.328 0 00-122.189-60.085h-19.527a5.857 5.857 0 110-11.715h19.527a164.95 164.95 0 01131.462 64.642 5.857 5.857 0 01-4.634 9.44zm-201.036-62.36H288.585a5.857 5.857 0 010-11.715h976.423a5.857 5.857 0 110 11.715z" fill="#f4c0a6"/></svg>