<svg height="21.41" width="293.42" xmlns="http://www.w3.org/2000/svg"><path d="M281.29 21.41c-9.13 0-16.25-4.27-23.13-8.4s-13.33-8-21.73-8-14.87 3.89-21.73 8-14 8.4-23.13 8.4-16.25-4.27-23.13-8.4-13.33-8-21.73-8-14.87 3.89-21.73 8-14 8.4-23.13 8.4-16.25-4.27-23.13-8.4-13.33-8-21.73-8-14.87 3.89-21.73 8-14 8.4-23.13 8.4A31.49 31.49 0 010 18.87l1-4.8a28.89 28.89 0 0011.13 2.33c8.39 0 14.87-3.89 21.73-8S47.86 0 56.99 0s16.25 4.27 23.13 8.4 13.33 8 21.73 8 14.87-3.89 21.73-8 14-8.4 23.13-8.4 16.25 4.27 23.13 8.4 13.33 8 21.73 8 14.87-3.89 21.73-8 14-8.4 23.13-8.4 16.25 4.27 23.13 8.4 13.33 8 21.73 8a28.9 28.9 0 0011.13-2.33l1 4.8a31.49 31.49 0 01-12.13 2.54z" fill="#444"/></svg>