<svg height="211" width="318.366" xmlns="http://www.w3.org/2000/svg"><path d="M0 0h318v211H0z" fill="none"/><text fill="#041a33" font-family="Noteworthy-Bold, Noteworthy" font-size="62" font-weight="700" transform="translate(131.366 146.334)"><tspan x="0" y="0">canvas</tspan></text><text fill="#041a33" font-family="LithosPro-Regular, Lithos Pro" font-size="33" letter-spacing=".2em" opacity=".417" transform="translate(131.366 184.14)"><tspan x="0" y="0">school</tspan></text><path d="M91.963 110.995q-.5-.715-1.025-1.425t-1.047-1.4l-.464-.572c-.429.149-.864.292-1.311.429q-1.545.464-3.165.8t-3.245.509q-1.631.183-3.32.229t-3.36-.057q-1.671-.1-3.371-.338a38.708 38.708 0 01-2.862-.521 19.031 19.031 0 012.7 3.52 24.771 24.771 0 012.862 7.3 33.949 33.949 0 01.618 3.709c.063.572.114 1.173.155 1.786l18.418-11.6c-.189-.3-.378-.572-.572-.893q-.519-.772-1.011-1.476zm-66.837 45.403l25.429-16.025a23.861 23.861 0 01-2.862-2.289 22.476 22.476 0 01-3.4-3.978 21.926 21.926 0 01-2.358-4.624q-.366-1-.635-2.02t-.452-2.078q-.177-1.042-.252-2.095t-.057-2.123a1.746 1.746 0 011.774-1.717 1.751 1.751 0 011.717 1.774v.635a9.525 9.525 0 00.046 1.145q.069.9.217 1.791t.378 1.751q.229.858.544 1.717a18.429 18.429 0 001.986 3.892 18.979 18.979 0 002.862 3.354 20.792 20.792 0 003.686 2.719 23.163 23.163 0 004.3 1.935h.029a54.168 54.168 0 015.723 2.118 30.689 30.689 0 014.459 2.387 16.827 16.827 0 013.371 2.862 10.256 10.256 0 011.969 3.188v.074a8.378 8.378 0 001.03 1.957 4.848 4.848 0 001.311 1.271 2.977 2.977 0 00.767.349 2.29 2.29 0 00.761.086 2.175 2.175 0 00.727-.172 2.752 2.752 0 00.693-.429 4.487 4.487 0 001.059-1.362 8.132 8.132 0 00.7-1.992 18.485 18.485 0 00.406-3.68 13.239 13.239 0 00-.383-3.291 11.177 11.177 0 00-1.145-2.862 12.122 12.122 0 00-1.912-2.5c-1.047-1.036-1.923-1.929-2.65-2.764a15.907 15.907 0 01-1.774-2.421 10.3 10.3 0 01-1.087-2.616 14.5 14.5 0 01-.424-3.068v-.109q-.034-1.935-.229-3.669a30.72 30.72 0 00-.572-3.36 21.3 21.3 0 00-2.352-6.135 15 15 0 00-3.875-4.4 14.188 14.188 0 00-4.35-2.221 16.306 16.306 0 00-5.077-.71 17.8 17.8 0 00-1.872.126 18.533 18.533 0 00-1.877.326 1.76 1.76 0 01-.767-3.434 21.72 21.72 0 014.476-.532h.647a32.074 32.074 0 01-2.289-1.66q-1.253-1-2.381-2.083a30.687 30.687 0 01-2.123-2.289l-.149-.189q-2.93 3.033-5.506 6.13a99.529 99.529 0 00-6.427 8.585 86.49 86.49 0 00-5.151 8.848 74.559 74.559 0 00-3.829 8.969 64.561 64.561 0 00-2.2 7.8 56.767 56.767 0 00-1.11 7.681 50.366 50.366 0 000 7.44 45.83 45.83 0 00.46 3.987z" fill="#9ccef0"/><path d="M73.104 98.792c9.318 0 22.138 24.96 21.451 34.769v.24a8.861 8.861 0 00-1.419 1.334 12.54 12.54 0 00-5.374 4.006l-.572.572a8.826 8.826 0 00-1.631 1.459 9.386 9.386 0 00-1.574.263 8.859 8.859 0 00-3.142 1.07 6.5 6.5 0 00-.538-.876q-.109-.183-.235-.361a19.313 19.313 0 00-1.8-2.684 16.409 16.409 0 00-.921-2.467v-.034a9.071 9.071 0 00-2.043-3.165 7.493 7.493 0 00-1.185-1.036 6.44 6.44 0 00-1.036-.784q-.183-.137-.378-.258a6.49 6.49 0 00.189-1.545v-.114a6.46 6.46 0 00.149-1.379v-3.31a6.439 6.439 0 00-1.557-4.207 6.439 6.439 0 00-.3-1.236 10.674 10.674 0 00-.7-2.261 6.491 6.491 0 00-.509-1.145l-.126-.269a6.433 6.433 0 00-.939-2.026 10.927 10.927 0 00-.744-1.345 8.447 8.447 0 00-2.4-2.69 6.49 6.49 0 00-1.442-1.145 9.312 9.312 0 00-5.723-2.226h-.441c4.255-4.489 5.6-7.15 14.94-7.15z" fill="#fff" fill-rule="evenodd"/><path d="M16.134 161.332c.235.1.475.195.715.28l4.819-3.033a49.733 49.733 0 01-.75-5.409 53.857 53.857 0 01-.046-8.1q.172-2.455.572-4.951a11.086 11.086 0 00-5.3 21.217zm81.14-14.978a17.7 17.7 0 00-3.268-4.4 17.112 17.112 0 00-4.418-3.136l-.1-.063-5.506 3.48c.046.155.092.3.132.458a16.562 16.562 0 01.487 4.064 22 22 0 01-.481 4.464v.034a11.555 11.555 0 01-1.145 3.068 7.864 7.864 0 01-1.809 2.249 6.233 6.233 0 01-1.454.916 19.591 19.591 0 01-4.517 18.945q-.361.378-.738.738c.893.275 1.78.572 2.644.91l.063.034a12.546 12.546 0 015.151 3.915h3.812q2.375 0 4.716-.057t4.579-.1q2.289-.063 4.521-.155a2.575 2.575 0 00.79-.143 1.356 1.356 0 00.532-.338 1.111 1.111 0 00.2-.315 1.323 1.323 0 00.1-.389 2.082 2.082 0 00-.034-.612 3.147 3.147 0 00-.223-.675 5.34 5.34 0 00-1.431-1.814 9.728 9.728 0 00-2.4-1.465 33.6 33.6 0 00-2.93-.984 35.015 35.015 0 00-1.528-.4 23.562 23.562 0 00-1.1-.235 20.6 20.6 0 01-5.786 2.072h-.034a1.929 1.929 0 01-1.459-.332 2.055 2.055 0 01-.824-1.293 2.106 2.106 0 01.315-1.534 1.98 1.98 0 011.276-.858 16.717 16.717 0 005.037-1.872 17.251 17.251 0 004.241-3.4 17.862 17.862 0 003.028-4.579 18.21 18.21 0 001.505-5.328 18.417 18.417 0 00-.149-5.557 18.23 18.23 0 00-1.795-5.313z" fill="#9ccef0"/><path d="M78.021 183.39a9.73 9.73 0 00-2.4-1.465q-1.442-.567-2.936-.984a33.546 33.546 0 00-2.581-.624 19.551 19.551 0 01-5.494 1.923 1.923 1.923 0 11-.71-3.777 15.716 15.716 0 0011.893-20.7 6.513 6.513 0 01-1.671-.75 8.23 8.23 0 01-2.163-2.026 11.761 11.761 0 01-1.585-2.925l-.034-.08a5.97 5.97 0 00-.429-.881l-37.74 23.761a49.91 49.91 0 002.4 2.352 11.574 11.574 0 003.543 2.45 2.055 2.055 0 011.271 2.862 6.153 6.153 0 00-.7 2.576 2.422 2.422 0 002.7 2.467h.1q13.8.627 27.621.366c3.062-.052 6.072-.137 8.974-.252 1.145 0 1.849-.63 1.614-1.8a4.785 4.785 0 00-1.671-2.49zM47.315 85.618a22.158 22.158 0 00.79 2.392 22.894 22.894 0 001.065 2.289c.24.452.5.9.773 1.339l.1.155a19.005 19.005 0 001.358 1.951l.12.149c.183.235.366.469.572.7a26.8 26.8 0 001.855 1.995q.99.956 2.095 1.831t2.289 1.654q1.2.778 2.5 1.459t2.667 1.253q1.368.572 2.8 1.03t2.913.8q1.471.338 3 .572a29.823 29.823 0 003.033.309q1.528.092 3.016.052t2.976-.206q1.482-.166 2.907-.458c.9-.183 1.78-.406 2.638-.658l.16-.046q1.374-.412 2.679-.944c.395-.16.778-.332 1.145-.5s.916-.435 1.362-.664a26.791 26.791 0 002.347-1.385 24.915 24.915 0 002.112-1.562 23.845 23.845 0 001.9-1.751 22.934 22.934 0 001.677-1.923 22.09 22.09 0 001.431-2.078 21.748 21.748 0 002.719-6.942 22.323 22.323 0 00.361-2.484 23.789 23.789 0 00.092-2.5 24.166 24.166 0 00-.172-2.518 24.832 24.832 0 00-.435-2.513 25.753 25.753 0 00-.7-2.484q-.418-1.248-.962-2.455t-1.179-2.387q-.67-1.179-1.454-2.289t-1.681-2.183q-.881-1.042-1.86-2.009t-2.043-1.854q-1.053-.864-2.192-1.643t-2.324-1.437q-1.179-.658-2.438-1.213t-2.535-.984l-.137-.04c-.807-.269-1.631-.5-2.478-.7s-1.769-.378-2.679-.509-1.814-.217-2.713-.263a25.447 25.447 0 00-2.724 0c-.9.052-1.814.114-2.707.235l-.509.08c-.733.109-1.454.24-2.169.4q-1.339.3-2.633.727-1.3.424-2.558.962t-2.467 1.19c-.361.195-.71.395-1.065.607s-.864.527-1.282.8q-1.145.761-2.221 1.62t-2.038 1.8q-.962.933-1.831 1.952a26.217 26.217 0 00-1.609 2.079 25.788 25.788 0 00-1.368 2.192 24.78 24.78 0 00-1.145 2.289 24.2 24.2 0 00-.87 2.369 23.821 23.821 0 00-.618 2.438 22.5 22.5 0 00-.349 2.5 21.7 21.7 0 00.67 7.429zm42.1-9.97a3.7 3.7 0 11-2.642 1.034 3.7 3.7 0 012.642-1.034zm-5.22 20.215l-.137-.126a.137.137 0 01.132.126zm-15.825-6.4a1.2 1.2 0 01.944 1.408 1.824 1.824 0 001.568 2.169 1.8 1.8 0 00.492 0 1.837 1.837 0 00.9-.412 1.828 1.828 0 00.641-1.311 4.745 4.745 0 01-1.042-.853 4.258 4.258 0 01-1.2-2.661 2.513 2.513 0 011.271-2.289 5.969 5.969 0 016.61.944 2.513 2.513 0 01.572 2.576 4.264 4.264 0 01-1.9 2.221 4.739 4.739 0 01-1.248.527 1.819 1.819 0 00-.052.5 1.82 1.82 0 00.63 1.311 1.848 1.848 0 00.418.275 1.791 1.791 0 00.469.149 1.826 1.826 0 00.984-.109 1.809 1.809 0 00.773-.572 1.837 1.837 0 00.355-.927 1.2 1.2 0 011.288-1.087 1.2 1.2 0 011.07 1.288 4.218 4.218 0 01-2.621 3.52 4.207 4.207 0 01-2.289.252 4.252 4.252 0 01-1.03-.389 4.2 4.2 0 01-1.545-1.242 4.246 4.246 0 01-.349-.532 4.218 4.218 0 01-7.1-3.812 1.2 1.2 0 01.509-.767 1.2 1.2 0 01.887-.172zm-4.262-17.325a3.634 3.634 0 100 .006z" fill="#9ccef0"/><circle cx="3.703" cy="3.703" fill="#041a33" r="3.703" transform="rotate(-88.91 85.058 -2.117)"/><circle cx="3.703" cy="3.703" fill="#041a33" r="3.703" transform="rotate(-88.91 70.624 9.023)"/><g fill-rule="evenodd"><path d="M75.777 80.38a16.211 16.211 0 0110.056 5.048 9.489 9.489 0 011.975 9 14.308 14.308 0 01-6.09 7.858 13.072 13.072 0 01-17.771-2.553 14.309 14.309 0 01-3.64-9.238 9.489 9.489 0 014.407-8.087 16.217 16.217 0 0111.075-2.026m16.775-10.793a6.468 6.468 0 00-3.239-.9 2.862 2.862 0 00-2.341 1.059 1.717 1.717 0 00.12 2.118 5.437 5.437 0 002.707 1.665 10.961 10.961 0 003.514.509 2.542 2.542 0 002.066-.664c.3-.435.114-1.047-.395-1.717a7.9 7.9 0 00-2.432-2.055M61.79 65.082a6.462 6.462 0 013.36.04 2.862 2.862 0 011.952 1.671 1.717 1.717 0 01-.71 2 5.443 5.443 0 01-3.062.836 10.966 10.966 0 01-3.514-.492c-.956-.309-1.625-.715-1.8-1.219s.183-1.036.864-1.545a7.9 7.9 0 012.913-1.293m29.053 12.461a2.732 2.732 0 10-.011.023m-25.308-3.531a1.282 1.282 0 11-1.3 1.253 1.282 1.282 0 011.3-1.253" fill="#fff"/><path d="M50.538 161.457q-8.951 3.136-12.328 5.832a57.875 57.875 0 017.337-67.976c-22.813 26.156-29.189 52.6-16.34 76.974a8.939 8.939 0 011.271-1.54l7.4 7.3q-.944 6.593 5.517 8.19l13.313-2.118q-7.355-1.11-7.395-8.013a13.227 13.227 0 00-3.972-8.356l27.037-19.459-2.513-3.646zm-12.5 8.144a12.288 12.288 0 012.444-1.665c.326-.258.647-.509.973-.755a8.848 8.848 0 013.806-2.226l-14.789 9.8a8.922 8.922 0 012.352-1.717 8.9 8.9 0 012.49-1.631q.24-.137.492-.258c.309-.24.624-.475.944-.715a8.94 8.94 0 011.288-.836z" fill="#50a9d9"/><path d="M24.828 155.442l-1.093 7.933a12.019 12.019 0 11-3.858-23.66 8.476 8.476 0 104.974 15.728m37.602-49.909v-1.522q-13.616-16.169-19.74-.332a15.035 15.035 0 008.814 3.594l10.943-1.717m10.216 47.75q6.473 4.7 6.9.527-2.581.876-4.2-4.453-1.866-7.772-13.645-12.981-7.44-3.314-7.812-15.247a5.534 5.534 0 10-11.052.2 31.374 31.374 0 00.784 6.972 36.63 36.63 0 01-2.61-6.348 20.6 20.6 0 007.555 23.031l5.878-4.161q-.4-.292-.79-.572a22.945 22.945 0 005.225 1.276q12.288 5.826 13.765 11.779" fill="#50a9d9"/><path d="M80.756 54.041A26.545 26.545 0 0190.24 55.1a7.526 7.526 0 003.068 1.145 26.631 26.631 0 014.264 2.364 7.586 7.586 0 00.492.778l.1.212a67.3 67.3 0 001.1 1.929q.143.28.309.572a7.585 7.585 0 00.939 1.482 7.591 7.591 0 00.635 1.036 8.584 8.584 0 00.8 1.259l.383.515a7.56 7.56 0 001.265 1.322q.132.16.269.309a7.492 7.492 0 00.412 3.3 11.354 11.354 0 01.361 1.253 7.612 7.612 0 00.275 1.11l.115.349c.155.63.223 1.282.372 1.912.114.464.212.944.366 1.4l.321.967.126.446a.884.884 0 00.034.3 7.494 7.494 0 00.309 1.751 7.536 7.536 0 00.16 1.425 7.493 7.493 0 00.034 1.826l-.916 6.3.258-.515a7.526 7.526 0 00-.572 1.837 7.537 7.537 0 00-.572 1.969l-.258.624a8.075 8.075 0 00-.429 1.717 26.6 26.6 0 01-30.334 9.73 26.184 26.184 0 006.822-51.659" fill="#e0f3ff"/><path d="M80.728 54.041a26.591 26.591 0 10-8.144 51.47 26.184 26.184 0 018.144-51.47" fill="#50a9d9"/></g><path d="M58.733 51.712a14.186 14.186 0 001.454 1.677l.086.08c.572-.269 1.1-.527 1.66-.767q1.419-.607 2.9-1.087t2.976-.841l.28-.057c.109-.309.212-.624.3-.956a21.219 21.219 0 00.572-2.89 27.959 27.959 0 00.252-3.234 33.661 33.661 0 00-.109-3.434 36.522 36.522 0 00-.464-3.548l-.052-.309v-.057a39.219 39.219 0 00-.807-3.4 32.879 32.879 0 00-1.093-3.176 27.184 27.184 0 00-1.339-2.862 20.56 20.56 0 00-1.522-2.4 14.192 14.192 0 00-1.454-1.677 8.584 8.584 0 00-1.459-1.145 4.848 4.848 0 00-1.362-.572 3.079 3.079 0 00-1.259-.063h-.114a3.142 3.142 0 00-1.145.521 5.031 5.031 0 00-1.1 1.047 8.929 8.929 0 00-.979 1.666 14.818 14.818 0 00-.784 2.158 21.226 21.226 0 00-.572 2.89 27.969 27.969 0 00-.252 3.234 33.665 33.665 0 00.109 3.434c.092 1.145.246 2.341.464 3.543l.063.332v.086a39.81 39.81 0 00.807 3.383 32.8 32.8 0 001.093 3.171 27.182 27.182 0 001.339 2.862 20.54 20.54 0 001.511 2.4zm29.253.727c.32.132.635.258.95.395q1.419.624 2.764 1.374t2.633 1.625c.172.12.343.246.515.366l.166-.1a14.186 14.186 0 001.786-1.316 20.53 20.53 0 002.032-2.02 27.181 27.181 0 001.934-2.49 32.84 32.84 0 001.763-2.862q.816-1.477 1.528-3.119l.132-.309a38.883 38.883 0 001.225-3.354 33.686 33.686 0 00.858-3.337 27.954 27.954 0 00.464-3.205 21.218 21.218 0 00.052-2.953 14.8 14.8 0 00-.292-2.289 8.923 8.923 0 00-.572-1.837 5.025 5.025 0 00-.827-1.286 3.142 3.142 0 00-1.025-.767h-.063a3.079 3.079 0 00-1.242-.217 4.842 4.842 0 00-1.459.28 8.55 8.55 0 00-1.677.813 14.211 14.211 0 00-1.786 1.316 20.545 20.545 0 00-2.026 2.015 27.164 27.164 0 00-1.935 2.49 32.851 32.851 0 00-1.763 2.862 30.081 30.081 0 00-1.534 3.136v.052l-.12.286a39.08 39.08 0 00-1.231 3.36 33.651 33.651 0 00-.858 3.337 27.954 27.954 0 00-.464 3.205 21.223 21.223 0 00-.051 2.953 15.449 15.449 0 00.12 1.6z" fill="#e0f3ff"/><path d="M101.824 31.56c-2.467-1.671-7.137 2.387-10.422 9.072s-3.949 13.461-1.477 15.133 7.131-2.387 10.422-9.072 3.949-13.461 1.477-15.133m-43.486-3.68c2.776-1.093 6.439 3.9 8.173 11.138s.9 14-1.877 15.093-6.41-3.909-8.173-11.132-.9-14 1.877-15.1" fill="#64b3de" fill-rule="evenodd"/><path d="M67.707 148.643a16.242 16.242 0 00-1.379-1.013 26.616 26.616 0 00-3.7-1.986l-28.855 18.172a14.938 14.938 0 011.62 5.151zm-10.714-5.102a27.247 27.247 0 01-3.245-1.322l-25.229 15.873a14.938 14.938 0 013.949 3.714l27.4-17.256q-1.351-.5-2.862-.973zm18.509-14.095a6.95 6.95 0 00.744 1.831 12.915 12.915 0 001.488 2l23.775-14.967 2.753-1.717 7.973-5.019a8.826 8.826 0 00-2.862-2.444 3.8 3.8 0 00-1.929-.475 1.763 1.763 0 00-.664.172l-.1.063-6.53 4.109-24.808 15.612c.052.286.097.572.16.835z" fill="#ffc978"/><path d="M10.468 177.059a9.936 9.936 0 00-2.953-3.079 6.681 6.681 0 00-.658-.378 2.807 2.807 0 00-2.667-.2 1.717 1.717 0 00-.521.572 3.623 3.623 0 00-.452 1.946 10.3 10.3 0 005.151 8.207 3.623 3.623 0 001.946.435 1.717 1.717 0 00.716-.23 2.793 2.793 0 00.973-2.49 6.674 6.674 0 00-.057-.755 9.93 9.93 0 00-1.478-4.028z" fill="#ff7484"/><path d="M107.198 131.827a7.931 7.931 0 00-.693-.99 8.679 8.679 0 00-.853-.9 7.191 7.191 0 00-.864-.687l-.1-.063a5.638 5.638 0 00-.79-.429 4.426 4.426 0 00-.818-.269 3.738 3.738 0 00-1.62 0 4.384 4.384 0 00-.818.269 5.622 5.622 0 00-.881.486 7.059 7.059 0 00-.853.681 8.511 8.511 0 00-.841.9 7.731 7.731 0 00-.675.984 6.689 6.689 0 00-.475 1 6.033 6.033 0 00-.286 1.024 4.5 4.5 0 00-.057.458 4.063 4.063 0 000 .515 3.494 3.494 0 00.16.893 3.256 3.256 0 00.366.773 3.433 3.433 0 00.572.67 4.756 4.756 0 00.841.612 6.15 6.15 0 001.036.469h.069a7.761 7.761 0 001.3.315 9.593 9.593 0 002.862 0 7.708 7.708 0 001.3-.315 6.2 6.2 0 001.07-.481 4.653 4.653 0 00.859-.624 3.365 3.365 0 00.572-.664 3.214 3.214 0 00.355-.773 3.527 3.527 0 00.155-.9 4.169 4.169 0 00-.074-.967 5.976 5.976 0 00-.3-1.019 6.963 6.963 0 00-.521-.973z" fill="#9ccef0"/><path d="M128.226 102.926a2.352 2.352 0 00-1.872-1.1l-14.308 5.151a13.9 13.9 0 015.535 8.883l2.141-2.135c2.209-2.2 5.082-5.071 8.677-8.631a2.352 2.352 0 00-.173-2.168z" fill="#fff"/><path d="M26.333 167.084a13.069 13.069 0 00-1.173-1.585l-.092-.1q-.326-.366-.675-.71a11.927 11.927 0 00-2.97-2.118l-1.837 1.145-3.022 1.9-.155.1-8.013 5.042a13.416 13.416 0 016.868 10.914l11.178-7.04 1.854-1.145a12.019 12.019 0 00-.813-4.115 13 13 0 00-1.15-2.288z" fill="#ffa2ac"/><path d="M31.129 164.062a12.437 12.437 0 00-4.916-4.516l-.538.338-.086.052-1.866 1.173a14.637 14.637 0 011.528 1.145l.155.132a15.15 15.15 0 015.18 9.65l2.49-1.568a12.437 12.437 0 00-1.946-6.4z" fill="#fff"/><path d="M106.145 118.246l-2.942 1.854-23.763 14.967.67.664a15.683 15.683 0 012.484 3.245c.04.069.074.143.109.212l10.491-6.57a9.49 9.49 0 01.292-.944 10.35 10.35 0 01.727-1.54 11.284 11.284 0 01.973-1.425 12.017 12.017 0 011.2-1.288 10.764 10.764 0 011.334-1.1 9.21 9.21 0 011.425-.784 8.149 8.149 0 011.545-.5 7.366 7.366 0 013.142 0 8.013 8.013 0 01.916.263l4.006-2.53 4.67-2.942.109-.08a1.551 1.551 0 00.24-.212 3.251 3.251 0 00.675-2.289 8.831 8.831 0 00-.967-3.634z" fill="#ffc978"/><path d="M84.047 95.736l.137.126a.137.137 0 00-.137-.126zm-16.58-6.089a1.2 1.2 0 00-.509.767 4.213 4.213 0 007.068 3.858 4.313 4.313 0 005.311 1.809 4.212 4.212 0 002.621-3.52 1.2 1.2 0 00-1.07-1.288A1.2 1.2 0 0079.6 92.36a1.82 1.82 0 01-1.145 1.522 1.825 1.825 0 01-.984.109 1.791 1.791 0 01-.469-.149 1.849 1.849 0 01-.418-.275 1.814 1.814 0 01-.63-1.311 1.821 1.821 0 01.052-.5 4.739 4.739 0 001.248-.527 4.264 4.264 0 001.9-2.221 2.513 2.513 0 00-.572-2.576 5.969 5.969 0 00-6.622-.984 2.513 2.513 0 00-1.271 2.289 4.258 4.258 0 001.2 2.661 4.745 4.745 0 001.042.853 1.818 1.818 0 11-3.6-.441 1.2 1.2 0 00-1.843-1.225z" fill="#041a33"/><path d="M96.782 123.208a6.416 6.416 0 014.3 1.854q-.2.143-.389.3a10.874 10.874 0 00-3.394 3.714 6.422 6.422 0 00-.733 2.221 12.539 12.539 0 01-1.345 1.774l-.172.189a6.436 6.436 0 00-.527.521 7.254 7.254 0 00-1.1 1.253 6.421 6.421 0 00-.7 1.047 6.552 6.552 0 01-1.585-1.1 5.294 5.294 0 01-1.505-4.876 9.077 9.077 0 012.713-4.876 6.611 6.611 0 014.459-2.02m-34.053 29.654l7.572-3.228q-1.671-4.888-17.084-9.592-.1-.921-5.328 5.019 10.874 4.3 14.846 7.8" fill="#f7a34a" fill-rule="evenodd"/><path d="M90.658 138.123a18.12 18.12 0 015.973 29.407q-5.088 5.809 4.67 8.287a4.258 4.258 0 11-5.723 6.181q.618-4.127-7.223-8.385a5.025 5.025 0 01-4.424-4.476 5.317 5.317 0 013.434-5.288 13.473 13.473 0 00.767-24.719q1.379-2.948 2.535-1.013m-12.011 22.31a74.3 74.3 0 01-4.871 17.485q4.831 1.929 8.5 7.732-1.059 4.527-9.329 2.347.87-4.624-7.12-7.177a5.008 5.008 0 11-1.717-9.569 10.777 10.777 0 008.877-16.466q5.947 2.232 5.66 5.649m-5.019-30.351q10.371 12.54 7.732 17.41-.973-5.3-6.57-8.013-7.469-3.543-7.749-12.231a15.819 15.819 0 00-14.252-15.118 3.348 3.348 0 01-1.488-6.341 18.807 18.807 0 0119.643 8.671l2.69 15.6m26.092 8.584a5.952 5.952 0 10.475-10.17 5.094 5.094 0 01-.475 10.17" fill="#e0f3ff" fill-rule="evenodd"/><path d="M140.497 93.326c-1.3.469-13.358 4.773-33.865 12.179a4.859 4.859 0 00-1.379.475 1.654 1.654 0 00-.223.12l-8.064 5.077q-.836-1.3-1.717-2.57a106.52 106.52 0 00-1.946-2.656c.246-.12.492-.235.733-.361a30.826 30.826 0 002.677-1.581 28.764 28.764 0 002.455-1.82 27.762 27.762 0 002.221-2.049 26.9 26.9 0 001.957-2.255 26.3 26.3 0 001.683-2.444 25.56 25.56 0 003.211-8.184 26.386 26.386 0 00.429-2.936 27.661 27.661 0 00.109-2.919 27.948 27.948 0 00-.2-2.925 28.717 28.717 0 00-.509-2.913q-.332-1.45-.807-2.862-.481-1.431-1.1-2.816t-1.385-2.73q-.761-1.339-1.648-2.616t-1.9-2.472q-1-1.179-2.1-2.289a40.32 40.32 0 00-1.019-.962q.641-.464 1.276-1a24.164 24.164 0 002.335-2.358 31.081 31.081 0 002.221-2.862 38 38 0 003.72-6.748l.1-.217.052-.114a43.502 43.502 0 001.374-3.76 37.578 37.578 0 00.956-3.772 32.008 32.008 0 00.515-3.663 25.1 25.1 0 00.052-3.434 17.9 17.9 0 00-.487-3.331 12.178 12.178 0 00-1.042-2.776 8.466 8.466 0 00-1.568-2.112 6.914 6.914 0 00-2.032-1.374h-.063a6.868 6.868 0 00-2.369-.521 8.293 8.293 0 00-2.57.24 11.813 11.813 0 00-2.667 1.145 17.319 17.319 0 00-2.679 1.912 24.174 24.174 0 00-2.358 2.341 31.163 31.163 0 00-2.226 2.862 36.924 36.924 0 00-2.009 3.188A38.9 38.9 0 0086.924 36l-.12.28v.052a43.502 43.502 0 00-1.374 3.76 37.557 37.557 0 00-1.013 3.817 32.048 32.048 0 00-.515 3.657A25.092 25.092 0 0083.85 51v.074c-.252-.063-.5-.137-.75-.195q-1.482-.355-3.028-.572t-3.068-.3a29.6 29.6 0 00-3.079 0q-.761.029-1.511.1a26 26 0 00.492-2.564 32.049 32.049 0 00.3-3.686 37.556 37.556 0 00-.109-3.886c-.1-1.3-.275-2.627-.509-3.972v-.057l-.057-.3a46.513 46.513 0 00-.916-3.829 36.9 36.9 0 00-1.248-3.6 31.164 31.164 0 00-1.545-3.262 24.2 24.2 0 00-1.786-2.8 17.337 17.337 0 00-2.192-2.45 11.819 11.819 0 00-2.352-1.717 8.3 8.3 0 00-2.438-.876 6.868 6.868 0 00-2.427 0h-.114a6.908 6.908 0 00-2.289.893 8.471 8.471 0 00-1.992 1.717 12.172 12.172 0 00-1.66 2.438 17.9 17.9 0 00-1.208 3.142 25.079 25.079 0 00-.721 3.342 31.987 31.987 0 00-.3 3.686 37.53 37.53 0 00.109 3.886c.1 1.3.269 2.627.509 3.972v.125l.046.235v.029c.252 1.316.572 2.587.91 3.812a36.884 36.884 0 001.242 3.589 31.1 31.1 0 001.545 3.262 24.167 24.167 0 001.786 2.8q.572.75 1.145 1.4l-.235.149q-1.3.859-2.513 1.837a30.293 30.293 0 00-2.289 2.043q-1.1 1.065-2.089 2.232t-1.843 2.392a29.828 29.828 0 00-1.58 2.541 28.922 28.922 0 00-1.3 2.656 28.157 28.157 0 00-1.013 2.759 27.683 27.683 0 00-.715 2.833 26.425 26.425 0 00-.412 2.936 25.89 25.89 0 00-.074 2.948 25.617 25.617 0 00.859 5.815 26.2 26.2 0 00.927 2.816 26.9 26.9 0 001.248 2.713c.309.572.647 1.145 1 1.717q-3.308 3.388-6.2 6.868a103.3 103.3 0 00-6.6 9.031 90.23 90.23 0 00-5.374 9.226 78.281 78.281 0 00-4.006 9.369 68.544 68.544 0 00-2.238 7.8 15.138 15.138 0 00-9.386 28.044l-9.558 6.027a1.613 1.613 0 00-.275.223 4.768 4.768 0 00-.475.252 5.876 5.876 0 00-2.472 5.254 13.41 13.41 0 006.971 11.069 5.855 5.855 0 005.809.04 4.758 4.758 0 00.4-.3 1.6 1.6 0 00.355-.16l15.07-9.489c.773.824 1.557 1.6 2.324 2.324a28.617 28.617 0 004.006 3.217 7.349 7.349 0 00.624 6.084 6.736 6.736 0 005.723 3q9.249.418 18.515.435c6.141 0 12.288-.074 18.424-.321h.034a5.889 5.889 0 004.184-1.8 5.34 5.34 0 001.391-3.858h2.358q2.392 0 4.739-.057t4.693-.1q2.289-.063 4.51-.149h.034a6.576 6.576 0 002.341-.509 5.391 5.391 0 001.837-1.293 5.151 5.151 0 00.927-1.414 5.518 5.518 0 00.435-1.677 6.147 6.147 0 00-.069-1.717 7.114 7.114 0 00-.532-1.717 9.335 9.335 0 00-2.329-3.079 13.776 13.776 0 00-3.714-2.289h-.074c-.509-.2-1.053-.4-1.62-.572-.349-.12-.71-.223-1.065-.332q.664-.618 1.282-1.288a21.915 21.915 0 003.72-5.649 22.579 22.579 0 00-.595-19.846 22.047 22.047 0 00-1.643-2.638 11.849 11.849 0 001.19.258 13.027 13.027 0 004.058 0 11.563 11.563 0 001.906-.469 9.806 9.806 0 001.763-.8 8.294 8.294 0 001.477-1.087 6.943 6.943 0 001.145-1.368 6.641 6.641 0 00.738-1.591 6.816 6.816 0 00.3-1.717 7.565 7.565 0 00-.132-1.786 9.427 9.427 0 00-.458-1.585 10.37 10.37 0 00-.738-1.534 11.446 11.446 0 00-.984-1.419 12.227 12.227 0 00-1.208-1.288c-.086-.08-.177-.149-.263-.223l7.44-4.687a1.619 1.619 0 00.3-.246 4.819 4.819 0 00.612-.572c1.065-.95 2.862-2.73 5.752-5.638a2405.7 2405.7 0 0120.284-20.032 1.62 1.62 0 00-1.8-2.627zm-40.35 19.665l6.53-4.109.1-.063a1.763 1.763 0 01.664-.172 3.8 3.8 0 011.929.475 8.826 8.826 0 012.862 2.444l-7.978 5.025-2.753 1.717-23.758 14.961a12.912 12.912 0 01-1.488-2 6.948 6.948 0 01-.744-1.831c-.069-.263-.12-.572-.166-.841zm-6.616.343l-18.418 11.6a42.14 42.14 0 00-.155-1.786 33.949 33.949 0 00-.618-3.709 24.77 24.77 0 00-2.862-7.3 19.031 19.031 0 00-2.7-3.52c.939.2 1.889.383 2.862.521q1.717.24 3.371.338t3.36.057q1.683-.046 3.32-.229t3.245-.509q1.62-.332 3.165-.8c.441-.132.876-.28 1.311-.429l.464.572q.521.681 1.047 1.4t1.024 1.425q.492.7.984 1.442c.2.326.4.624.6.921zm-5.689-65.51a27.954 27.954 0 01.464-3.205 33.651 33.651 0 01.859-3.337 37.34 37.34 0 011.23-3.36l.12-.286v-.052c.475-1.1.99-2.146 1.534-3.136a32.848 32.848 0 011.763-2.862 27.167 27.167 0 011.934-2.49 20.549 20.549 0 012.026-2.015 14.211 14.211 0 011.786-1.316 8.551 8.551 0 011.677-.813 4.842 4.842 0 011.459-.28 3.079 3.079 0 011.242.217h.057a3.142 3.142 0 011.024.767 5.025 5.025 0 01.824 1.288 8.923 8.923 0 01.572 1.837 14.8 14.8 0 01.292 2.289 21.22 21.22 0 01-.052 2.953 27.954 27.954 0 01-.464 3.205 33.678 33.678 0 01-.859 3.337 38.759 38.759 0 01-1.225 3.354l-.132.309q-.713 1.64-1.528 3.119a32.836 32.836 0 01-1.763 2.862 27.182 27.182 0 01-1.935 2.49 20.532 20.532 0 01-1.957 2.078 14.187 14.187 0 01-1.786 1.316l-.166.1c-.172-.12-.338-.252-.515-.366q-1.271-.864-2.633-1.625t-2.76-1.374c-.315-.137-.63-.263-.95-.395a15.458 15.458 0 01-.189-1.66 21.228 21.228 0 01.052-2.948zm-31.994-1.379a32.793 32.793 0 01-1.093-3.171 40.669 40.669 0 01-.807-3.383v-.032l-.063-.332a39.671 39.671 0 01-.464-3.543 33.661 33.661 0 01-.109-3.434 27.969 27.969 0 01.252-3.234 21.226 21.226 0 01.572-2.89 14.821 14.821 0 01.784-2.158 8.928 8.928 0 011.013-1.711 5.03 5.03 0 011.082-1.076 3.142 3.142 0 011.145-.521h.114a3.079 3.079 0 011.259.063 4.848 4.848 0 011.362.572 8.584 8.584 0 011.459 1.145 14.2 14.2 0 011.471 1.706 20.559 20.559 0 011.534 2.41 27.181 27.181 0 011.339 2.862 32.862 32.862 0 011.093 3.176 41.09 41.09 0 01.807 3.4v.057l.052.309c.217 1.208.366 2.392.464 3.548a33.661 33.661 0 01.109 3.434 27.962 27.962 0 01-.252 3.234 21.221 21.221 0 01-.572 2.89c-.1.332-.195.647-.3.956l-.28.057q-1.517.343-2.982.818t-2.9 1.087c-.572.24-1.116.5-1.66.767l-.086-.08a14.187 14.187 0 01-1.461-1.676 20.54 20.54 0 01-1.54-2.421 27.186 27.186 0 01-1.345-2.833zm-9.266 34.244a21.921 21.921 0 01.063-2.5 22.5 22.5 0 01.349-2.5 23.816 23.816 0 01.618-2.438 24.21 24.21 0 01.87-2.369 24.78 24.78 0 011.145-2.289 26.214 26.214 0 012.976-4.275q.858-1 1.831-1.952t2.038-1.8q1.065-.859 2.221-1.62a14.443 14.443 0 011.282-.8c.435-.229.7-.412 1.065-.607q1.2-.647 2.467-1.19t2.558-.962q1.293-.418 2.633-.727c.715-.16 1.442-.292 2.169-.4l.521-.052q1.339-.177 2.707-.235t2.724 0q1.351.069 2.713.263t2.679.509c.847.2 1.671.441 2.478.7l.137.04q1.293.435 2.535.984t2.438 1.213q1.2.664 2.324 1.437t2.158 1.631q1.059.87 2.032 1.831t1.86 2.009q.893 1.059 1.683 2.181t1.454 2.289a24.541 24.541 0 011.213 2.387q.549 1.242.962 2.455a25.749 25.749 0 01.7 2.484 24.832 24.832 0 01.435 2.513 24.162 24.162 0 01.172 2.518 23.781 23.781 0 01-.092 2.5 22.32 22.32 0 01-.361 2.484 21.869 21.869 0 01-.641 2.415 21.646 21.646 0 01-2.083 4.527 22.1 22.1 0 01-1.431 2.078 22.944 22.944 0 01-1.677 1.923 23.853 23.853 0 01-1.9 1.751 24.92 24.92 0 01-2.112 1.562 26.794 26.794 0 01-2.347 1.385c-.446.235-.9.452-1.362.664s-.767.343-1.145.5q-1.3.527-2.679.944l-.16.046c-.864.252-1.717.475-2.638.658s-1.923.349-2.907.458-1.969.177-2.976.206-2 0-3.016-.052-2.015-.16-3.033-.309-2.026-.332-3-.572-1.969-.492-2.913-.8-1.889-.652-2.8-1.03-1.809-.8-2.667-1.253-1.717-.944-2.5-1.459-1.574-1.076-2.289-1.654-1.431-1.19-2.095-1.831a26.8 26.8 0 01-1.86-1.992c-.195-.229-.378-.469-.572-.7l-.12-.149a23.1 23.1 0 01-.9-1.236c-.16-.235-.309-.475-.458-.715l-.1-.155a26.79 26.79 0 01-.773-1.339 22.9 22.9 0 01-1.065-2.289 22.156 22.156 0 01-.79-2.392 21.75 21.75 0 01-.733-4.928zm-21.909 64.348a56.76 56.76 0 011.11-7.681 64.558 64.558 0 012.2-7.8 74.553 74.553 0 013.829-8.957 86.488 86.488 0 015.151-8.848 99.519 99.519 0 016.427-8.585q2.575-3.1 5.506-6.13l.149.189a30.691 30.691 0 002.123 2.289q1.145 1.093 2.381 2.083a33.74 33.74 0 002.289 1.66h-.647a21.72 21.72 0 00-4.476.532 1.76 1.76 0 10.767 3.434 18.532 18.532 0 011.877-.326 17.8 17.8 0 011.872-.126 16.306 16.306 0 015.077.71 14.188 14.188 0 014.35 2.221 15 15 0 013.875 4.4 21.3 21.3 0 012.369 6.175 30.721 30.721 0 01.572 3.36q.195 1.717.229 3.669v.109a14.5 14.5 0 00.424 3.068 10.3 10.3 0 001.087 2.616 15.9 15.9 0 001.774 2.421c.727.836 1.6 1.717 2.65 2.764a12.121 12.121 0 011.912 2.5 11.177 11.177 0 011.145 2.862 13.238 13.238 0 01.383 3.291 18.486 18.486 0 01-.406 3.68 8.134 8.134 0 01-.7 1.992 4.487 4.487 0 01-1.059 1.362 2.752 2.752 0 01-.692.429 2.175 2.175 0 01-.727.172 2.289 2.289 0 01-.761-.086 2.975 2.975 0 01-.767-.349 4.848 4.848 0 01-1.311-1.271 8.38 8.38 0 01-1.03-1.957v-.074a10.256 10.256 0 00-1.969-3.188 16.826 16.826 0 00-3.371-2.862 30.689 30.689 0 00-4.458-2.387 54.184 54.184 0 00-5.723-2.118h-.029a23.161 23.161 0 01-4.3-1.934 20.793 20.793 0 01-3.686-2.719 18.979 18.979 0 01-2.862-3.354 18.43 18.43 0 01-1.986-3.892q-.315-.853-.544-1.717t-.378-1.751q-.149-.893-.217-1.791a19.63 19.63 0 01-.046-1.145v-.635a1.751 1.751 0 00-1.717-1.774 1.746 1.746 0 00-1.774 1.717q0 1.065.057 2.123a16.018 16.018 0 00.252 2.095q.177 1.047.452 2.078t.635 2.02a21.927 21.927 0 002.358 4.624 22.477 22.477 0 003.4 3.978 23.861 23.861 0 002.862 2.289l-25.427 16.017q-.309-1.932-.464-3.909a50.367 50.367 0 01-.017-7.566zm37.957.612a26.62 26.62 0 013.7 1.986 16.234 16.234 0 011.379 1.013l-32.32 20.347a14.938 14.938 0 00-1.62-5.151zm-30.162 16.16a14.938 14.938 0 00-3.966-3.692l25.228-15.879a27.25 27.25 0 003.245 1.322h.034q1.517.475 2.862.973zm-21.749-5.472a11.08 11.08 0 0110.691-16.191 64.463 64.463 0 00-.572 4.951 53.856 53.856 0 00.046 8.1 49.732 49.732 0 00.75 5.409l-4.819 3.033c-.24-.086-.481-.177-.715-.28a11.075 11.075 0 01-5.38-5.048zm.309 27.993a1.717 1.717 0 01-.715.235 3.623 3.623 0 01-1.946-.435 10.3 10.3 0 01-5.151-8.207 3.623 3.623 0 01.452-1.946 1.717 1.717 0 01.521-.572 2.808 2.808 0 012.667.2 6.688 6.688 0 01.658.378 10.628 10.628 0 014.453 7.074 6.677 6.677 0 01.057.755 2.771 2.771 0 01-.967 2.49zm15.367-9.661l-11.178 7.04a13.416 13.416 0 00-6.868-10.914l8.013-5.042.155-.1 3.022-1.9 1.837-1.145a11.927 11.927 0 012.97 2.118q.349.343.675.71l.092.1a12.8 12.8 0 012.289 3.863 12.019 12.019 0 01.813 4.115zm4.167-2.621a15.15 15.15 0 00-5.157-9.667l-.155-.132a14.636 14.636 0 00-1.528-1.145l1.866-1.173.086-.052.538-.338a12.689 12.689 0 016.868 10.909zm47.5 15.671a444.734 444.734 0 01-36.595-.114h-.1a2.422 2.422 0 01-2.7-2.467 6.153 6.153 0 01.7-2.576 2.055 2.055 0 00-1.271-2.862 11.339 11.339 0 01-3.543-2.45 42.056 42.056 0 01-2.4-2.352l37.734-23.758a5.969 5.969 0 01.429.881l.034.08a11.762 11.762 0 001.585 2.925 8.23 8.23 0 002.163 2.026 6.512 6.512 0 001.671.75 15.716 15.716 0 01-11.893 20.7 1.923 1.923 0 10.71 3.777 19.551 19.551 0 005.494-1.923c.864.172 1.717.378 2.581.624.99.28 1.975.607 2.936.984a9.73 9.73 0 012.4 1.465 4.785 4.785 0 011.654 2.5c.252 1.145-.435 1.746-1.6 1.768zm21.176-30.523a18.212 18.212 0 01-1.505 5.328 17.862 17.862 0 01-3.028 4.579 17.25 17.25 0 01-4.241 3.4 16.717 16.717 0 01-5.037 1.872 1.98 1.98 0 00-1.276.859 2.106 2.106 0 00-.315 1.534 2.055 2.055 0 00.824 1.294 1.929 1.929 0 001.459.332h.034a20.6 20.6 0 005.786-2.072c.355.069.721.149 1.1.235.5.12 1.019.252 1.528.4s1.03.309 1.511.469.973.338 1.419.515a9.73 9.73 0 012.4 1.465 5.34 5.34 0 011.431 1.814 3.148 3.148 0 01.223.675 2.083 2.083 0 01.034.612 1.322 1.322 0 01-.1.389 1.11 1.11 0 01-.2.315 1.357 1.357 0 01-.532.338 2.575 2.575 0 01-.79.143q-2.238.086-4.521.155t-4.579.1q-2.341.04-4.716.057h-3.812a12.545 12.545 0 00-5.151-3.915l-.063-.034a34.912 34.912 0 00-2.644-.91c.252-.24.5-.486.738-.738a19.591 19.591 0 004.516-18.944 6.233 6.233 0 001.454-.916 7.864 7.864 0 001.809-2.249 11.556 11.556 0 001.145-3.068v-.034a22 22 0 00.481-4.464 16.563 16.563 0 00-.486-4.064c-.04-.155-.086-.3-.132-.458l5.512-3.468.1.063a17.112 17.112 0 014.418 3.136 17.7 17.7 0 013.268 4.4 18.229 18.229 0 011.8 5.237 18.419 18.419 0 01.1 5.586zm8.757-23.311a4.166 4.166 0 01.074.967 3.526 3.526 0 01-.155.9 3.217 3.217 0 01-.355.773 3.365 3.365 0 01-.572.664 4.654 4.654 0 01-.858.624 6.2 6.2 0 01-1.07.481 7.705 7.705 0 01-1.3.315 9.593 9.593 0 01-2.862 0 7.763 7.763 0 01-1.3-.315h-.067a6.152 6.152 0 01-1.036-.469 4.758 4.758 0 01-.841-.612 3.434 3.434 0 01-.572-.67 3.256 3.256 0 01-.366-.773 3.491 3.491 0 01-.16-.893 4.063 4.063 0 010-.515 4.524 4.524 0 01.057-.458 6.034 6.034 0 01.286-1.024 6.69 6.69 0 01.475-1 7.734 7.734 0 01.675-.984 8.513 8.513 0 01.841-.9 7.06 7.06 0 01.853-.681 5.623 5.623 0 01.881-.487 4.384 4.384 0 01.818-.269 3.738 3.738 0 011.62 0 4.424 4.424 0 01.818.269 5.637 5.637 0 01.79.429l.1.063a7.189 7.189 0 01.864.687 8.678 8.678 0 01.853.9 7.93 7.93 0 01.693.99 6.961 6.961 0 01.486 1.007 5.969 5.969 0 01.321.956zm5.821-14.308a1.552 1.552 0 01-.24.212l-.109.08-4.67 2.942-4.006 2.53a8.012 8.012 0 00-.916-.263 7.366 7.366 0 00-3.142 0 8.149 8.149 0 00-1.545.5 9.213 9.213 0 00-1.477.744 10.767 10.767 0 00-1.339 1.059 12.02 12.02 0 00-1.2 1.288 11.287 11.287 0 00-.973 1.425 10.353 10.353 0 00-.727 1.54 9.482 9.482 0 00-.292.944l-10.468 6.616c-.04-.069-.074-.143-.109-.212a15.682 15.682 0 00-2.484-3.245l-.67-.664 23.772-14.964 2.942-1.854 7.367-4.646a8.831 8.831 0 01.967 3.634 3.251 3.251 0 01-.693 2.306zm14.6-14.463c-3.594 3.56-6.467 6.427-8.677 8.631l-2.141 2.135a13.9 13.9 0 00-5.535-8.883l14.308-5.151a2.352 2.352 0 012.059 3.263z" fill="#041a33"/></svg>