<svg xmlns="http://www.w3.org/2000/svg" width="993.844" height="1048.071" viewBox="0 0 993.844 1048.071">
  <g id="Group_812" data-name="Group 812" transform="translate(-23.12 130.093)">
    <g id="Group_517" data-name="Group 517" transform="translate(377.522 141.317)">
      <g id="Group_516" data-name="Group 516">
        <g id="Group_512" data-name="Group 512" transform="translate(0 1.613)">
          <g id="Group_511" data-name="Group 511">
            <path id="Path_4491" data-name="Path 4491" d="M762.505,438.726,910.976,292.688c11.171-11.381,40.63-28.143,40.63-28.143s42.267,11.858,7.346,53.474l-138,163.461Z" transform="translate(-762.505 -264.544)" fill="#fbbaad"/>
          </g>
        </g>
        <g id="Group_515" data-name="Group 515" transform="translate(124.65)">
          <g id="Group_513" data-name="Group 513" transform="translate(1.12 1.114)">
            <path id="Path_4492" data-name="Path 4492" d="M1054.623,322s11.355-35.47,42.522-52.571c0,0,24.767-15.7,35.955,3.49Z" transform="translate(-1054.623 -263.385)" fill="#fbbaad"/>
          </g>
          <g id="Group_514" data-name="Group 514">
            <path id="Path_4493" data-name="Path 4493" d="M1053.142,321.64a1.136,1.136,0,0,1-.34-.052,1.109,1.109,0,0,1-.728-1.395c.115-.359,11.85-36.09,43.046-53.207.487-.311,13.482-8.422,25.227-5.589a19.112,19.112,0,0,1,12.241,9.494,1.106,1.106,0,0,1-.409,1.518,1.125,1.125,0,0,1-1.531-.406,16.954,16.954,0,0,0-10.823-8.446c-10.814-2.616-23.433,5.257-23.56,5.337-30.46,16.716-41.944,51.621-42.056,51.971A1.121,1.121,0,0,1,1053.142,321.64Z" transform="translate(-1052.021 -260.797)" fill="#fd9b8e"/>
          </g>
        </g>
      </g>
    </g>
    <g id="Group_519" data-name="Group 519" transform="translate(86.45 302.303)">
      <g id="Group_518" data-name="Group 518">
        <path id="Path_4494" data-name="Path 4494" d="M395.813,1250.383l1.135-235.14A94.959,94.959,0,0,1,424.4,958.314c19.286-19.2,44.43-44.75,51.8-54.559,22.727-30.27-11.941-56.981-11.941-56.981l-2.881-13.933c-6.863-9.358-12.948-22.622-18.8-32.839-27.481-47.945-61.633-92.087-87.7-140.925-.771-1.441-1.252-2.37-1.891-3.577-.6.3-4.579-4.514-15.724-20.791L325.152,643.8c-26.107,14.983-47.731,62.034-55.54,91.366,0,0-55.575,88.05-89.578,178.3C147.5,999.776,98.563,1200.033,86.45,1250.383Z" transform="translate(-86.45 -634.708)" fill="#fbbaad"/>
      </g>
    </g>
    <g id="Group_817" data-name="Group 817" transform="translate(232.163 6.448)">
      <g id="Group_813" data-name="Group 813" transform="translate(20.994 31.581)">
        <path id="Path_4446" data-name="Path 4446" d="M929.117,370.347v509.4A24.348,24.348,0,0,1,904.77,904.1H666.99a24.352,24.352,0,0,1-24.352-24.352v-509.4A24.351,24.351,0,0,1,666.99,346H904.77A24.348,24.348,0,0,1,929.117,370.347Z" transform="translate(-642.638 -346)" fill="#292941"/>
        <path id="Path_4447" data-name="Path 4447" d="M933.842,395.677V885.7a22.78,22.78,0,0,1-22.887,22.673H695.325A22.78,22.78,0,0,1,672.438,885.7V395.677A22.783,22.783,0,0,1,695.325,373H910.955A22.783,22.783,0,0,1,933.842,395.677Z" transform="translate(-659.898 -361.638)" fill="#f1f0f8"/>
        <path id="Path_4448" data-name="Path 4448" d="M933.842,395.677v2.15h-261.4v-2.15A22.783,22.783,0,0,1,695.325,373H910.955A22.783,22.783,0,0,1,933.842,395.677Z" transform="translate(-659.898 -361.638)" fill="#f1f0f8"/>
        <circle id="Ellipse_62" data-name="Ellipse 62" cx="5.47" cy="5.47" r="5.47" transform="translate(32.023 18.305)" fill="#b5b5d0"/>
        <circle id="Ellipse_63" data-name="Ellipse 63" cx="5.47" cy="5.47" r="5.47" transform="translate(47.592 18.515)" fill="#b5b5d0"/>
        <circle id="Ellipse_64" data-name="Ellipse 64" cx="5.47" cy="5.47" r="5.47" transform="translate(63.162 18.726)" fill="#b5b5d0"/>
        <rect id="Rectangle_171" data-name="Rectangle 171" width="20.198" height="12.203" transform="translate(235.689 17.674)" fill="#b5b5d0"/>
        <rect id="Rectangle_172" data-name="Rectangle 172" width="3.787" height="12.203" transform="translate(229.377 17.674)" fill="#b5b5d0"/>
      </g>
      <path id="Path_4627" data-name="Path 4627" d="M629.818,595.885c-2.938-5.591-22.98-51.115-29.811-47.211-3.319,2.3,4.3,19.467-1.071,23.859-3.505,2.868-11.711,7.807-.487,21.211,4.637,5.538,10.1,13.457,17.112,15.754C632.778,615.14,636.41,608.429,629.818,595.885Z" transform="translate(-592.746 -431.671)" fill="#ffbca4"/>
      <path id="Path_4628" data-name="Path 4628" d="M890.925,595.249c-10.284,52.532-2.459,106.5-13.084,159.2-3.453,17.128-20.3,49.451-2.193,58.5,3.366,1.683,52.491-2.92,74.481,0-9.663-3.78,3.38-23.975,4.328-30.276,2.586-17.191,1.4-32.879-.359-47.7-2.286-19.225-13.457-67.207-8.767-101.362C947.17,620.224,961,592.843,957.7,580.988c-2.309-8.305-4.507-6.412-12.486-8.9C921.368,564.65,896.088,568.88,890.925,595.249Z" transform="translate(-751.827 -443.473)" fill="#07bb87"/>
      <path id="Path_4629" data-name="Path 4629" d="M742.452,629.274c-8.967,39.125-17.758,94.471-73.27,76.057-18.023-5.978-50.875-61.523-47.717-70.815,3.889-1.36,8.939-5.147,20.721-17.35.842,1.683.5,2.531,3.48,7.789,7.04,12.409,18.675,39.6,38.025,38.432,18.784-1.131,31.4-40.835,41.392-52.955C739.581,592.844,747.288,608.172,742.452,629.274Z" transform="translate(-609.257 -463.132)" fill="#fff"/>
      <g id="Group_814" data-name="Group 814" transform="translate(127.381)">
        <path id="Path_4452" data-name="Path 4452" d="M963.073,551.519c-2.639,21.414,31.867,19.31,31.968,2.574.089-14.842-1.287-18.022-1.287-32.182,0-6.512-3.874-6.43-10.513-7.08-3.507-.343-17.333.564-17.593,4.076C964.789,530.493,964.257,541.911,963.073,551.519Z" transform="translate(-934.538 -412.167)" fill="#ffbca4"/>
        <path id="Path_4453" data-name="Path 4453" d="M895.46,411.362a14.426,14.426,0,0,0,.18,2.283c.811,5.067,4.265,8.873,8.4,8.873a6.825,6.825,0,0,0,2.948-.676c3.287-1.564,5.634-5.666,5.634-10.481,0-6.162-3.842-11.156-8.582-11.156S895.46,405.2,895.46,411.362Z" transform="translate(-895.46 -345.815)" fill="#ffbca4"/>
        <path id="Path_4454" data-name="Path 4454" d="M910.688,417.667l1.084,5.736a20.021,20.021,0,0,0,.3-7.789c-.555-2.556-2.8-10.74-7.948-4.947C910.135,408.093,910.328,415.761,910.688,417.667Z" transform="translate(-900.48 -350.699)" fill="#ffbca4" style="mix-blend-mode: multiply;isolation: isolate"/>
        <path id="Path_4455" data-name="Path 4455" d="M895.888,432.144c.811,5.067,4.266,8.873,8.4,8.873a6.825,6.825,0,0,0,2.948-.676,2.869,2.869,0,0,0-.4-1.336C906.4,438.372,901.071,441.232,895.888,432.144Z" transform="translate(-895.708 -364.314)" fill="#ffbca4" style="mix-blend-mode: multiply;isolation: isolate"/>
        <path id="Path_4456" data-name="Path 4456" d="M1075.778,411.362a14.456,14.456,0,0,1-.18,2.283c-.811,5.067-4.265,8.873-8.4,8.873a6.823,6.823,0,0,1-2.948-.676c-3.287-1.564-5.634-5.666-5.634-10.481,0-6.162,3.843-11.156,8.582-11.156S1075.778,405.2,1075.778,411.362Z" transform="translate(-989.959 -345.815)" fill="#ffbca4"/>
        <path id="Path_4457" data-name="Path 4457" d="M1072.861,417.667q-.542,2.868-1.084,5.736a20.033,20.033,0,0,1-.3-7.789c.555-2.556,2.8-10.74,7.948-4.947C1073.413,408.093,1073.221,415.761,1072.861,417.667Z" transform="translate(-997.25 -350.699)" fill="#ffbca4" style="mix-blend-mode: multiply;isolation: isolate"/>
        <path id="Path_4458" data-name="Path 4458" d="M1083.353,432.144c-.811,5.067-4.265,8.873-8.4,8.873a6.824,6.824,0,0,1-2.948-.676,2.872,2.872,0,0,1,.4-1.336C1072.842,438.372,1078.17,441.232,1083.353,432.144Z" transform="translate(-997.714 -364.314)" fill="#ffbca4" style="mix-blend-mode: multiply;isolation: isolate"/>
        <ellipse id="Ellipse_65" data-name="Ellipse 65" cx="35.776" cy="37.438" rx="35.776" ry="37.438" transform="translate(7.295 13.841)" fill="#663200"/>
        <ellipse id="Ellipse_66" data-name="Ellipse 66" cx="32.933" cy="45.913" rx="32.933" ry="45.913" transform="translate(10.084 17.918)" fill="#ffbca4"/>
        <path id="Path_4459" data-name="Path 4459" d="M915.042,418.419c-.017,5.851,6.751,16.725,12.917,19.322,4.232,1.782,12.773-.382,21.14-.382,9.44,0,16.067,2.214,21.447.382,6.333-2.157,11.647-13.471,11.629-19.322.494,14.041,8.092,30.868-.444,43.011-7.614,10.831-18.463,19.971-31.988,19.91-13.525.06-24.5-9.079-32.111-19.91C909.1,449.287,914.549,432.46,915.042,418.419Z" transform="translate(-905.546 -356.364)" fill="#663200"/>
        <ellipse id="Ellipse_67" data-name="Ellipse 67" cx="4.076" cy="5.149" rx="4.076" ry="5.149" transform="translate(24.458 56.965)"/>
        <ellipse id="Ellipse_68" data-name="Ellipse 68" cx="4.076" cy="5.149" rx="4.076" ry="5.149" transform="translate(54.723 56.965)"/>
        <path id="Path_4460" data-name="Path 4460" d="M1024.183,379.238c1.667,3.19,11,1.367,15.966,6.309.774-2.977-7.375-8.349-9.42-9.184C1027.458,375.027,1022.094,375.241,1024.183,379.238Z" transform="translate(-969.745 -331.578)"/>
        <path id="Path_4461" data-name="Path 4461" d="M953.055,379.238c-1.667,3.19-11,1.367-15.966,6.309-.775-2.977,7.375-8.349,9.42-9.184C949.78,375.027,955.144,375.241,953.055,379.238Z" transform="translate(-919.542 -331.578)"/>
        <path id="Path_4462" data-name="Path 4462" d="M904.465,305.6c3.218-6.436,10.526-5.415,17.378-1.287a38.764,38.764,0,0,0,20.629,5.351,69.943,69.943,0,0,0,15.085-2.034q.747-.167,1.4-.313c10.912-2.418,25.317-15.233,14.16-25.96-9.768-9.393-15.791,2.24-33.254-6.222a40.718,40.718,0,0,0-13.27-3.995c-9.64-1.062-17.492,2.362-21.946,8.3C899.73,285.99,898.949,295.6,904.465,305.6Z" transform="translate(-898.458 -270.95)" fill="#663200"/>
        <path id="Path_4463" data-name="Path 4463" d="M973.971,490.1c.578,2.211,1.592,7.431,10.086,7.431,7.7,0,10.292-5.509,10.086-7.431C987.772,489.837,978.461,489.943,973.971,490.1Z" transform="translate(-940.934 -397.79)" fill="#fff"/>
        <path id="Path_4464" data-name="Path 4464" d="M986.3,517.051c-1.031.619.469,3.647,4.934,3.647,4.047,0,5.513-3.012,4.72-3.647-1.014-.813-3.74.247-5.141.257C989.332,517.317,987.369,516.408,986.3,517.051Z" transform="translate(-947.893 -413.315)" fill="#522800"/>
        <g id="Group_505" data-name="Group 505" transform="translate(36.995 75.953)">
          <g id="Group_504" data-name="Group 504">
            <path id="Path_4465" data-name="Path 4465" d="M995.834,451.447a5,5,0,0,1-2.133,3.65,7.146,7.146,0,0,1-4.183,1.174,7.779,7.779,0,0,1-4.2-1.111,4.13,4.13,0,0,1-1.93-3.713,4.014,4.014,0,0,0,.716,1.93,4.466,4.466,0,0,0,1.481,1.357,8.153,8.153,0,0,0,3.937.893,7.331,7.331,0,0,0,3.9-.947,5.377,5.377,0,0,0,1.5-1.366A5.132,5.132,0,0,0,995.834,451.447Z" transform="translate(-983.375 -451.447)"/>
          </g>
        </g>
        <path id="Path_4466" data-name="Path 4466" d="M910.174,279.44c4.78,1.33,37.565,29.929,37.822,30.225a69.941,69.941,0,0,0,15.085-2.034c-14.259-8.251-30.564-29.277-30.961-36.49C922.481,270.08,914.628,273.5,910.174,279.44Z" transform="translate(-903.983 -270.95)" fill="#9c4e00"/>
      </g>
      <path id="Path_4630" data-name="Path 4630" d="M1053.035,591.541q-.227,58.2-.463,116.4v.232q-.044,11-.088,21.991c-.105,26.973.172,86.87-.518,86.928-11.471.938-44.491-.938-55.966,0,.661-16.76,17.678-83.238,14.5-99.325q-.316-1.59-.656-3.181c-.762-3.577-1.578-7.145-2.18-10.751-1.5-9.013-1.633-18.191-1.67-27.335,0-.652,0-1.3-.009-1.953-.051-15.178-.088-30.478,2.933-45.349,2.7-13.259,7.777-25.866,13.344-38.145,1.923-4.242-6.56-15.645-1.431-15.077,5.113.568,13.744,3.337,20.287,5.634,3.151,1.107,5.815,2.108,7.372,2.7a7.585,7.585,0,0,1,3.387,2.075C1053,587.784,1053.044,589.74,1053.035,591.541Z" transform="translate(-826.312 -447.607)" fill="#fff"/>
      <path id="Path_4631" data-name="Path 4631" d="M864.185,631.239c-6.166,32.346-12.494,64.95-11.943,97.874.3,17.918-1.214,75.515-3.217,86.32-.209,1.126-30.605.253-43.026-.486,1.6-11.2,22.281-136.326,23.079-171.589.323-14.275-2.1-45.2,7.639-55.641,5.891-6.312,21.882-10.941,32.822-15.99,6.186-2.855-.446,25.852-.992,31.717C867.679,612.788,865.941,622.028,864.185,631.239Z" transform="translate(-716.263 -445.045)" fill="#fff"/>
      <path id="Path_4632" data-name="Path 4632" d="M835.571,815.947H764.456L735,728h71.115Z" transform="translate(-675.14 -535.674)" fill="#1e73bb"/>
      <path id="Path_4633" data-name="Path 4633" d="M948.647,595.984c-3.862-16.52-7.509,1.5-12.015,8.8-4.244,6.872-.215-36.044-.215-36.044s9.33-12.161,11.371-11.371C948.218,567.45,948.647,595.984,948.647,595.984Z" transform="translate(-790.8 -436.821)" fill="#07bb87"/>
      <path id="Path_4634" data-name="Path 4634" d="M1035.635,596.2c3.862-16.52,7.509,1.5,12.015,8.8,4.244,6.871-1.287-36.258-1.287-36.258s-9.33-12.161-11.371-11.371C1034.562,567.45,1035.635,596.2,1035.635,596.2Z" transform="translate(-848.837 -436.821)" fill="#07bb87"/>
      <path id="Path_4635" data-name="Path 4635" d="M903.319,817.869c.156,2.5,3.366,6.312,1.044,7.392-5.507,1.791-15.758-8.221-21.7-8.94-10.469,9.7,16.025,27.638,36.746,29.038C957.327,847.92,934.037,825.864,903.319,817.869Z" transform="translate(-759.299 -586.83)" fill="#ffbca4"/>
      <path id="Path_4636" data-name="Path 4636" d="M1033.719,605.57q-.227,58.2-.463,116.4v.232a224.968,224.968,0,0,1-42.732,6.413c-16.971.884-24.47-.135-27.874-4.036,6.985-9.7,7.444-21.238,3.686-31.223,3.682-2.718,9.207-3.072,20.337-2.828,8.185.181,15.99.459,19.887-.2,8.113-1.372,17.189-1.494,22.723-8.588,8.748-11.219-25.669-77.427,3.274-81.328C1042.445,599.074,1033.727,603.769,1033.719,605.57Z" transform="translate(-806.995 -461.636)" fill="#d8d8d8" style="mix-blend-mode: multiply;isolation: isolate"/>
      <path id="Path_4637" data-name="Path 4637" d="M1068.49,694.528c3.188,27.814-96.069,38.1-105.613,27.166,6.364-8.835,6.785-19.355,3.359-28.453,5.825-4.3,34.026-.96,42.407-2.377,7.392-1.25,17.536-1.518,22.577-7.983,9.484-12.162-23.478-80.516-2.313-84.694C1055.477,592.942,1067.235,683.582,1068.49,694.528Z" transform="translate(-807.127 -460.359)" fill="#fff"/>
      <path id="Path_4638" data-name="Path 4638" d="M618.368,600.027c-4.873.723-1.383,7.428,3.761,6.242,6.887-1.588,8.982,7.9,10.791,7.683C638.119,613.333,636.335,597.36,618.368,600.027Z" transform="translate(-606.234 -461.378)" fill="#dfa590"/>
      <line id="Line_66" data-name="Line 66" x2="209.914" transform="translate(51.733 369.438)" fill="none" stroke="#9998a2" stroke-linecap="round" stroke-linejoin="round" stroke-width="10"/>
      <g id="Group_815" data-name="Group 815" transform="translate(51.444 387.155)">
        <path id="Path_4476" data-name="Path 4476" d="M946.018,1239.4a10.933,10.933,0,0,1-10.932,10.932H742.739L715,1272.214l10.932-21.881A10.933,10.933,0,0,1,715,1239.4v-37.468A10.932,10.932,0,0,1,725.932,1191H935.086a10.932,10.932,0,0,1,10.932,10.932Z" transform="translate(-715 -1191)" fill="#f5f5f8"/>
        <path id="Path_4477" data-name="Path 4477" d="M944.458,1221.416H749.208a4.208,4.208,0,0,1-4.208-4.208h0a4.208,4.208,0,0,1,4.208-4.208h195.25a4.208,4.208,0,0,1,4.208,4.208h0A4.208,4.208,0,0,1,944.458,1221.416Z" transform="translate(-732.376 -1203.742)" fill="#d1d0de"/>
        <path id="Path_4478" data-name="Path 4478" d="M856.091,1259.416H749.208a4.208,4.208,0,0,1-4.208-4.208h0a4.208,4.208,0,0,1,4.208-4.208H856.091a4.208,4.208,0,0,1,4.208,4.208h0A4.208,4.208,0,0,1,856.091,1259.416Z" transform="translate(-732.376 -1225.752)" fill="#d1d0de"/>
        <path id="Path_4479" data-name="Path 4479" d="M902.378,1297.416H749.208a4.208,4.208,0,0,1-4.208-4.208h0a4.208,4.208,0,0,1,4.208-4.208h153.17a4.208,4.208,0,0,1,4.208,4.208h0A4.208,4.208,0,0,1,902.378,1297.416Z" transform="translate(-732.376 -1247.762)" fill="#d1d0de"/>
      </g>
      <g id="Group_816" data-name="Group 816" transform="translate(51.444 483.939)">
        <path id="Path_4480" data-name="Path 4480" d="M715,1469.4a10.932,10.932,0,0,0,10.932,10.932H918.279l27.739,21.882-10.932-21.882a10.932,10.932,0,0,0,10.932-10.932v-37.468A10.933,10.933,0,0,0,935.086,1421H725.932A10.933,10.933,0,0,0,715,1431.932Z" transform="translate(-715 -1421)" fill="#f5f5f8"/>
        <path id="Path_4481" data-name="Path 4481" d="M749.208,1450.416h195.25a4.208,4.208,0,0,0,4.208-4.208h0a4.208,4.208,0,0,0-4.208-4.208H749.208a4.208,4.208,0,0,0-4.208,4.208h0A4.208,4.208,0,0,0,749.208,1450.416Z" transform="translate(-732.376 -1433.163)" fill="#d1d0de"/>
        <path id="Path_4482" data-name="Path 4482" d="M959.208,1488.416h106.883a4.208,4.208,0,0,0,4.208-4.208h0a4.208,4.208,0,0,0-4.208-4.208H959.208a4.208,4.208,0,0,0-4.208,4.208h0A4.208,4.208,0,0,0,959.208,1488.416Z" transform="translate(-854.009 -1455.173)" fill="#d1d0de"/>
        <path id="Path_4483" data-name="Path 4483" d="M849.208,1526.416h153.17a4.208,4.208,0,0,0,4.208-4.208h0a4.208,4.208,0,0,0-4.208-4.208H849.208a4.208,4.208,0,0,0-4.208,4.208h0A4.208,4.208,0,0,0,849.208,1526.416Z" transform="translate(-790.296 -1477.183)" fill="#d1d0de"/>
      </g>
    </g>
    <g id="Group_528" data-name="Group 528" transform="translate(164.883 233.178)">
      <g id="Group_521" data-name="Group 521">
        <g id="Group_520" data-name="Group 520">
          <path id="Path_4495" data-name="Path 4495" d="M278.523,804.185c-3.1-33.856-18.458-85.759-7.808-134.224,17.55-79.9,32.092-134.354,42.773-180.276,7.792-33.5,49.116-10.851,47.445,49.186-11.883,71.079-4.091,81.453,10.514,121.046,25.78,79.508-95.884,186.205-95.884,186.205C276.223,840.245,280.234,822.875,278.523,804.185Z" transform="translate(-267.006 -474.156)" fill="#fbbaad"/>
        </g>
      </g>
      <g id="Group_523" data-name="Group 523" transform="translate(65.559 2.931)">
        <g id="Group_522" data-name="Group 522">
          <path id="Path_4496" data-name="Path 4496" d="M445.618,757.471a1.262,1.262,0,0,1-1.094-.625,1.246,1.246,0,0,1,.459-1.71c29.578-16.99,45.632-57.442,36.549-92.094a169.99,169.99,0,0,0-7.538-21.016c-3.254-7.956-6.62-16.183-8.471-24.831-3.584-16.741-1.354-34.091.8-50.868.887-6.9,1.8-14.035,2.3-21.01,3.1-43.64-16.6-58.5-22.714-62.017a1.245,1.245,0,0,1-.459-1.711,1.269,1.269,0,0,1,1.726-.455c9.4,5.4,16.219,14.685,20.275,27.584,4.249,13.507,4.352,27.455,3.691,36.775-.5,7.047-1.422,14.217-2.313,21.151-2.13,16.571-4.333,33.706-.837,50.031,1.805,8.432,5.127,16.554,8.341,24.41a171.927,171.927,0,0,1,7.641,21.328c9.354,35.685-7.217,77.366-37.727,94.89A1.26,1.26,0,0,1,445.618,757.471Z" transform="translate(-444.354 -480.964)" fill="#fd9b8e"/>
        </g>
      </g>
      <g id="Group_525" data-name="Group 525" transform="translate(68.667 82.699)">
        <g id="Group_524" data-name="Group 524">
          <path id="Path_4497" data-name="Path 4497" d="M452.837,720.028a1.265,1.265,0,0,1-.948-.425,1.244,1.244,0,0,1,.114-1.767c13.139-11.465,15.486-26.848,19.039-50.135l.061-.4a1.263,1.263,0,0,1,2.5.375l-.061.4c-3.636,23.831-6.038,39.573-19.867,51.641A1.266,1.266,0,0,1,452.837,720.028Z" transform="translate(-451.573 -666.236)" fill="#fd9b8e"/>
        </g>
      </g>
      <g id="Group_527" data-name="Group 527" transform="translate(33.332 15.992)" opacity="0.961" style="isolation: isolate">
        <g id="Group_526" data-name="Group 526">
          <path id="Path_4498" data-name="Path 4498" d="M381.176,525.171a6.759,6.759,0,0,0-.174-5.433,5.662,5.662,0,0,0-3.4-3.051l-15.492,20.3s5.331-24.08,5.549-24.769a1.324,1.324,0,0,1,1.655-.856l9.079,2.83a8.265,8.265,0,0,1,4.992,4.427,9.362,9.362,0,0,1,.241,7.525c-.344.859-.7,1.774-1.073,2.732-3.94,10.134-9.894,25.448-25.665,32.347,0,0-1.408,1.231,0-4.352s11.635-44.653,11.635-44.653L381,516.686l2.385,5.144-7.943,20.891-8.829,9.836-3.048,3.4" transform="translate(-355.037 -511.299)" fill="#f1ebea"/>
        </g>
      </g>
    </g>
    <g id="Group_543" data-name="Group 543" transform="translate(488.237 359.069)">
      <g id="Group_537" data-name="Group 537">
        <g id="Group_535" data-name="Group 535" transform="translate(1.302 1.3)">
          <path id="Path_4501" data-name="Path 4501" d="M1120.812,791.928c-10.69-30.149-29.976-24.037-49.49-14.792l-33.128,20.279c-15.242,7.648-19.146,26.451-12.177,38.127,6.688,11.215,23.769,17.292,36.052,12.657l46.365-20.817C1122.624,821.833,1125.46,805.045,1120.812,791.928Z" transform="translate(-1022.681 -769.573)" fill="#fbbaad"/>
        </g>
        <g id="Group_536" data-name="Group 536">
          <path id="Path_4502" data-name="Path 4502" d="M1051.407,849.3c-11.012,0-22.87-5.8-28.244-14.817-3.661-6.134-4.514-14.324-2.282-21.908a29.153,29.153,0,0,1,14.946-18.017l33.205-20.317c11.029-5.226,23.692-10.434,34.372-6.036,7.308,3.008,12.844,10.064,16.923,21.571h0c4.823,13.609,1.858,31.235-13.136,37.1l-46.305,20.791A26.859,26.859,0,0,1,1051.407,849.3Zm18.821-72.739-33.165,20.3a26.572,26.572,0,0,0-13.661,16.449c-2.033,6.906-1.277,14.327,2.021,19.852,6.4,10.726,22.817,16.5,34.454,12.1l46.291-20.786c13.526-5.289,16.1-21.374,11.682-33.835h0c-3.819-10.77-8.873-17.322-15.453-20.03C1092.738,766.635,1080.732,771.588,1070.229,776.562Z" transform="translate(-1019.656 -766.555)" fill="#fd9b8e"/>
        </g>
      </g>
      <g id="Group_540" data-name="Group 540" transform="translate(11.719 27.883)">
        <g id="Group_538" data-name="Group 538" transform="translate(1.316 1.299)">
          <path id="Path_4503" data-name="Path 4503" d="M1055.113,841.237a9.2,9.2,0,0,0-5.043,9.87,40.636,40.636,0,0,0,11.959,22.422c2.784,2.639,6.251,4.974,10.094,4.913,3.861-.06,7.223-2.509,10.225-4.922,4.246-3.42,8.413-7.092,11.259-11.719s4.246-10.4,2.591-15.565c-2.714-8.438-12.834-12.7-21.72-11.78C1067.641,835.169,1061.373,838.2,1055.113,841.237Z" transform="translate(-1049.934 -834.334)" fill="#f4eeed"/>
        </g>
        <g id="Group_539" data-name="Group 539">
          <path id="Path_4504" data-name="Path 4504" d="M1070.231,878.028c-3.555,0-7.106-1.727-10.85-5.275a41.875,41.875,0,0,1-12.345-23.143,10.439,10.439,0,0,1,5.758-11.26h0c6.246-3.031,12.7-6.166,19.806-6.906,8.927-.929,20.062,3.205,23.109,12.679,1.639,5.114.646,11.179-2.722,16.64-2.777,4.516-6.626,8.083-11.551,12.05-3.1,2.487-6.755,5.146-11.032,5.214Zm-16.28-37.341a7.858,7.858,0,0,0-4.326,8.481,39.267,39.267,0,0,0,11.57,21.7c3.282,3.11,6.32,4.613,9.168,4.553,3.441-.054,6.54-2.318,9.419-4.632,4.713-3.8,8.382-7.185,10.964-11.385,2.972-4.818,3.868-10.1,2.461-14.493-1.959-6.091-9.747-11.97-20.332-10.879-6.638.691-12.883,3.722-18.923,6.654Z" transform="translate(-1046.876 -831.316)" fill="#f4eeed"/>
        </g>
      </g>
      <g id="Group_542" data-name="Group 542" transform="translate(76.933 5.121)">
        <g id="Group_541" data-name="Group 541">
          <path id="Path_4505" data-name="Path 4505" d="M1216.439,818.024a1.309,1.309,0,0,1-1.309-1.214,57.626,57.626,0,0,0-16.408-36.146,1.3,1.3,0,0,1,.014-1.841,1.323,1.323,0,0,1,1.857.014,60.263,60.263,0,0,1,17.157,37.8,1.307,1.307,0,0,1-1.221,1.388C1216.5,818.023,1216.469,818.024,1216.439,818.024Z" transform="translate(-1198.345 -778.449)" fill="#fd9b8e"/>
        </g>
      </g>
    </g>
    <g id="Group_552" data-name="Group 552" transform="translate(491.604 254.025)">
      <g id="Group_546" data-name="Group 546">
        <g id="Group_544" data-name="Group 544" transform="translate(1.439 1.437)">
          <path id="Path_4506" data-name="Path 4506" d="M1139.243,550.609c-11.81-33.309-33.128-26.555-54.681-16.346l-36.6,22.414c-16.844,8.455-21.152,29.22-13.456,42.128,7.389,12.4,26.264,19.107,39.833,13.985l51.224-23C1141.248,583.657,1144.382,565.106,1139.243,550.609Z" transform="translate(-1030.819 -525.912)" fill="#fbbaad"/>
        </g>
        <g id="Group_545" data-name="Group 545">
          <path id="Path_4507" data-name="Path 4507" d="M1062.56,614.025c-12.141,0-25.267-6.418-31.21-16.389-4.045-6.784-4.986-15.838-2.518-24.216a32.218,32.218,0,0,1,16.513-19.9l36.688-22.456c12.186-5.772,26.177-11.524,37.978-6.664,8.075,3.324,14.191,11.12,18.7,23.831h0c5.331,15.04,2.054,34.519-14.521,40.993l-51.239,23.01A29.433,29.433,0,0,1,1062.56,614.025Zm20.794-80.4L1046.71,556.06a29.364,29.364,0,0,0-15.093,18.168c-2.247,7.629-1.413,15.832,2.231,21.945,7.057,11.84,25.172,18.213,38.027,13.387l51.182-22.986c14.952-5.842,17.8-23.617,12.914-37.388h0c-4.218-11.9-9.8-19.134-17.073-22.128C1108.219,522.66,1094.958,528.134,1083.354,533.627Z" transform="translate(-1027.477 -522.575)" fill="#fd9b8e"/>
        </g>
      </g>
      <g id="Group_549" data-name="Group 549" transform="translate(12.958 30.802)">
        <g id="Group_547" data-name="Group 547" transform="translate(1.448 1.435)">
          <path id="Path_4508" data-name="Path 4508" d="M1066.659,605.088a10.156,10.156,0,0,0-5.568,10.9,44.948,44.948,0,0,0,13.211,24.775c3.073,2.908,6.907,5.5,11.162,5.426,4.272-.07,7.984-2.769,11.294-5.443,4.683-3.785,9.3-7.839,12.44-12.952s4.693-11.485,2.863-17.2c-3-9.332-14.183-14.037-24-13.012C1080.5,598.386,1073.566,601.729,1066.659,605.088Z" transform="translate(-1060.937 -597.45)" fill="#f4eeed"/>
        </g>
        <g id="Group_548" data-name="Group 548">
          <path id="Path_4509" data-name="Path 4509" d="M1083.374,645.734c-3.926,0-7.85-1.907-11.99-5.825a46.329,46.329,0,0,1-13.639-25.571,11.664,11.664,0,0,1,6.36-12.44c6.878-3.345,13.99-6.8,21.89-7.639,9.867-1.032,22.161,3.53,25.533,14.006,1.809,5.649.713,12.35-3.007,18.385-3.386,5.509-8.362,9.762-12.762,13.317-3.4,2.75-7.432,5.689-12.186,5.766Zm5.745-48.762a27.029,27.029,0,0,0-2.819.148c-7.388.78-14.266,4.126-20.917,7.361h0a8.666,8.666,0,0,0-4.777,9.366,43.433,43.433,0,0,0,12.783,23.98c3.629,3.435,6.928,5.07,10.136,5.027,3.828-.062,7.237-2.563,10.4-5.12,4.213-3.4,8.969-7.464,12.118-12.585,3.282-5.325,4.272-11.161,2.719-16.013C1106.773,602.957,1099.357,596.972,1089.119,596.972Z" transform="translate(-1057.574 -594.116)" fill="#f4eeed"/>
        </g>
      </g>
      <g id="Group_551" data-name="Group 551" transform="translate(85.002 5.667)">
        <g id="Group_550" data-name="Group 550">
          <path id="Path_4510" data-name="Path 4510" d="M1244.9,579.466a1.445,1.445,0,0,1-1.446-1.34,63.723,63.723,0,0,0-18.129-39.941,1.43,1.43,0,0,1,.015-2.034,1.461,1.461,0,0,1,2.052.015,66.621,66.621,0,0,1,18.956,41.764,1.443,1.443,0,0,1-1.348,1.534C1244.964,579.465,1244.931,579.466,1244.9,579.466Z" transform="translate(-1224.906 -535.737)" fill="#fd9b8e"/>
        </g>
      </g>
    </g>
    <g id="Group_555" data-name="Group 555" transform="translate(312.344 595.864)">
      <g id="Group_553" data-name="Group 553" transform="translate(1.313 1.302)">
        <path id="Path_4511" data-name="Path 4511" d="M754.017,1319.569c-46.5,63.292-100.32,70.385-139.848,64.968Z" transform="translate(-614.169 -1319.569)" fill="#fbbaad"/>
      </g>
      <g id="Group_554" data-name="Group 554">
        <path id="Path_4512" data-name="Path 4512" d="M633.58,1385.595a157.09,157.09,0,0,1-21.328-1.49,1.3,1.3,0,1,1,.36-2.58c55.015,7.542,101.653-14.144,138.606-64.444a1.321,1.321,0,0,1,1.834-.287,1.3,1.3,0,0,1,.288,1.82C720.637,1363.131,680.422,1385.595,633.58,1385.595Z" transform="translate(-611.119 -1316.545)" fill="#fd9b8e"/>
      </g>
    </g>
    <g id="Group_764" data-name="Group 764" transform="translate(381.331 141.178)">
      <g id="Group_763" data-name="Group 763">
        <path id="Path_4604" data-name="Path 4604" d="M774.292,266.305a2.917,2.917,0,1,1,2.941-2.917A2.932,2.932,0,0,1,774.292,266.305Zm0-4.774a1.858,1.858,0,1,0,1.874,1.858A1.868,1.868,0,0,0,774.292,261.531Z" transform="translate(-771.351 -260.472)" fill="#f5f5f5"/>
      </g>
    </g>
    <g id="Group_766" data-name="Group 766" transform="translate(390.247 148.639)">
      <g id="Group_765" data-name="Group 765">
        <path id="Path_4605" data-name="Path 4605" d="M794.114,281.872a2.036,2.036,0,1,1,2.054-2.035A2.046,2.046,0,0,1,794.114,281.872Zm0-3.334a1.3,1.3,0,1,0,1.31,1.3A1.305,1.305,0,0,0,794.114,278.539Z" transform="translate(-792.061 -277.801)" fill="#f5f5f5"/>
      </g>
    </g>
    <g id="Group_778" data-name="Group 778" transform="translate(502.108 464.916)">
      <g id="Group_774" data-name="Group 774">
        <g id="Group_772" data-name="Group 772" transform="translate(1.319 1.294)">
          <path id="Path_4607" data-name="Path 4607" d="M1115.2,1038.51c-3.974-24.957-26.2-26.112-43.887-20.027,0,0-25.152,7.518-13.115,37.354,4.228,10.47,16.914,14.515,28.146,12.752C1113.274,1064.379,1117.844,1055.065,1115.2,1038.51Z" transform="translate(-1054.936 -1015.405)" fill="#fbbaad"/>
        </g>
        <g id="Group_773" data-name="Group 773">
          <path id="Path_4608" data-name="Path 4608" d="M1079.094,1068.62c-12.461,0-20.954-6.82-23.859-14.011-4.132-10.242-4.457-19.082-.964-26.274,4.69-9.658,14.5-12.686,14.919-12.811,12.826-4.413,24.936-4.146,33.175.752,6.708,3.988,10.877,10.825,12.389,20.319,1.528,9.564.408,15.951-3.63,20.71-4.5,5.3-12.864,8.755-26.318,10.858A36.781,36.781,0,0,1,1079.094,1068.62Zm7.49-53.624A51.516,51.516,0,0,0,1070,1018c-.141.043-9.206,2.87-13.377,11.494-3.144,6.5-2.791,14.625,1.051,24.146,2.953,7.312,12.574,14.167,26.722,11.95,12.794-2,20.648-5.166,24.718-9.963,3.551-4.186,4.462-9.756,3.045-18.626h0c-1.385-8.7-5.135-14.92-11.146-18.493A28.118,28.118,0,0,0,1086.583,1015Z" transform="translate(-1051.873 -1012.399)" fill="#fd9b8e"/>
        </g>
      </g>
      <g id="Group_777" data-name="Group 777" transform="translate(19.645 7.87)">
        <g id="Group_775" data-name="Group 775" transform="translate(1.324 1.321)">
          <path id="Path_4609" data-name="Path 4609" d="M1101.234,1039.467a36.2,36.2,0,0,0,8.65,30.93,5.333,5.333,0,0,0,5.708,1.423,48.791,48.791,0,0,0,10.707-5.087c4.211-2.8,7.791-6.728,9.236-11.467a16.472,16.472,0,0,0-1.708-13.2,17.59,17.59,0,0,0-11.136-7.856c-5.8-1.267-11.705.39-17.291,1.32A5.056,5.056,0,0,0,1101.234,1039.467Z" transform="translate(-1100.577 -1033.747)" fill="#f4eeed"/>
        </g>
        <g id="Group_776" data-name="Group 776">
          <path id="Path_4610" data-name="Path 4610" d="M1112.085,1071.7a6.694,6.694,0,0,1-4.941-2.164,37.643,37.643,0,0,1-8.965-32.07v0a6.418,6.418,0,0,1,5.253-4.982c1.035-.172,2.082-.369,3.138-.568,4.759-.9,9.68-1.826,14.658-.738a19.017,19.017,0,0,1,11.989,8.461,17.878,17.878,0,0,1,1.843,14.266c-1.4,4.609-4.874,8.935-9.771,12.186a49.713,49.713,0,0,1-11,5.232A6.541,6.541,0,0,1,1112.085,1071.7Zm-11.3-33.716a34.97,34.97,0,0,0,8.335,29.788,4,4,0,0,0,4.266,1.065,47.177,47.177,0,0,0,10.418-4.943c4.386-2.911,7.476-6.73,8.7-10.752a15.211,15.211,0,0,0-1.572-12.139,16.307,16.307,0,0,0-10.284-7.251c-4.443-.972-9.092-.1-13.587.752-1.075.2-2.141.4-3.2.579A3.753,3.753,0,0,0,1100.788,1037.979Z" transform="translate(-1097.502 -1030.678)" fill="#f4eeed"/>
        </g>
      </g>
    </g>
    <g id="Group_801" data-name="Group 801" transform="translate(422.816 464.849)">
      <g id="Group_780" data-name="Group 780" transform="translate(1.901 11.473)">
        <g id="Group_779" data-name="Group 779">
          <path id="Path_4611" data-name="Path 4611" d="M1008.942,1280.982,884.223,1098.493c-9.858-13.838-11.933-38.934-11.933-38.934s-3.58-28.256,22.316-18.69c17.063,6.3,30.23,12.7,71.377,55.809L1080.5,1236.97Z" transform="translate(-872.122 -1038.892)" fill="#fbbaad"/>
        </g>
      </g>
      <g id="Group_783" data-name="Group 783">
        <g id="Group_781" data-name="Group 781" transform="translate(1.244 1.236)">
          <path id="Path_4612" data-name="Path 4612" d="M905.846,1112.428s-33.251-28.655-35.22-64.508c0,0-1.681-28.022,21.2-32.562a12.789,12.789,0,0,1,11.819,3.82l50.7,54.351Z" transform="translate(-870.598 -1015.116)" fill="#fbbaad"/>
        </g>
        <g id="Group_782" data-name="Group 782">
          <path id="Path_4613" data-name="Path 4613" d="M904.2,1112.033a1.25,1.25,0,0,1-.82-.3c-.337-.29-33.673-29.416-35.649-65.376-.017-.285-1.471-29.148,22.2-33.846a14.12,14.12,0,0,1,12.983,4.195l50.7,54.35a1.232,1.232,0,0,1-.069,1.752,1.258,1.258,0,0,1-1.767-.068l-50.7-54.35a11.584,11.584,0,0,0-10.655-3.445c-21.558,4.278-20.208,31-20.192,31.271,1.919,34.931,34.463,63.363,34.792,63.646a1.232,1.232,0,0,1,.124,1.749A1.249,1.249,0,0,1,904.2,1112.033Z" transform="translate(-867.708 -1012.244)" fill="#fd9b8e"/>
        </g>
      </g>
      <g id="Group_795" data-name="Group 795" transform="translate(21.958 176.081)">
        <g id="Group_792" data-name="Group 792" transform="translate(0 88.246)">
          <g id="Group_785" data-name="Group 785" transform="translate(0 1.113)">
            <g id="Group_784" data-name="Group 784">
              <path id="Path_4614" data-name="Path 4614" d="M1056.535,1796.217a154.99,154.99,0,0,0,25.772,20.236H1196c-14.912-49.251-42.626-109.327-90.493-119.3-42.451-6.979-55.846-5.122-110.274-53.162-50.76-32.779-93.912-6.059-69.512,18.62C959.165,1696.439,997.756,1738.307,1056.535,1796.217Z" transform="translate(-918.709 -1628.764)" fill="#fbbaad"/>
            </g>
          </g>
          <g id="Group_787" data-name="Group 787" transform="translate(10.233)">
            <g id="Group_786" data-name="Group 786">
              <path id="Path_4615" data-name="Path 4615" d="M1179.266,1776.562h-.028a1.258,1.258,0,0,1-1.235-1.28c.758-33.884-25.735-68.521-60.314-78.855a174.589,174.589,0,0,0-22-4.539c-8.556-1.383-17.4-2.815-25.82-5.748-16.29-5.677-30.081-16.595-43.419-27.153-5.475-4.335-11.137-8.817-16.881-12.862-35.96-25.322-59.017-16.368-65.227-13.02a1.269,1.269,0,0,1-1.713-.5,1.248,1.248,0,0,1,.507-1.7c9.544-5.144,21.087-6.093,34.3-2.823,13.849,3.427,25.911,10.593,33.592,16,5.8,4.085,11.491,8.589,16.994,12.946,13.173,10.428,26.795,21.212,42.681,26.747,8.206,2.86,16.942,4.272,25.389,5.639a176.394,176.394,0,0,1,22.322,4.614c35.611,10.641,62.893,46.355,62.112,81.307A1.259,1.259,0,0,1,1179.266,1776.562Z" transform="translate(-942.476 -1626.18)" fill="#fd9b8e"/>
            </g>
          </g>
          <g id="Group_789" data-name="Group 789" transform="translate(90.233 27.7)">
            <g id="Group_788" data-name="Group 788">
              <path id="Path_4616" data-name="Path 4616" d="M1163.579,1736.225a1.26,1.26,0,0,1-1.242-1.035c-3.046-17.092-15.076-27.082-33.288-42.2l-.31-.258a1.244,1.244,0,0,1-.158-1.763,1.27,1.27,0,0,1,1.78-.156l.31.257c18.636,15.475,30.948,25.7,34.152,43.689a1.253,1.253,0,0,1-1.024,1.451A1.312,1.312,0,0,1,1163.579,1736.225Z" transform="translate(-1128.288 -1690.516)" fill="#fd9b8e"/>
            </g>
          </g>
          <g id="Group_791" data-name="Group 791" transform="translate(7.558 26.139)" opacity="0.961" style="isolation: isolate">
            <g id="Group_790" data-name="Group 790">
              <path id="Path_4617" data-name="Path 4617" d="M971.886,1732.673a1.21,1.21,0,0,1-.175-.012,1.31,1.31,0,0,1-1.135-1.469c2.117-15.863-7.576-28.356-13.991-36.623-.637-.821-1.246-1.6-1.811-2.351a6.886,6.886,0,0,0-4.769-2.672,5.726,5.726,0,0,0-4.4,1.291l-7.152,6.214a1.328,1.328,0,0,1-1.863-.122,1.3,1.3,0,0,1,.123-1.847l7.152-6.215a8.345,8.345,0,0,1,6.412-1.925,9.538,9.538,0,0,1,6.606,3.7c.56.738,1.162,1.514,1.793,2.328,6.681,8.61,16.778,21.622,14.517,38.563A1.317,1.317,0,0,1,971.886,1732.673Z" transform="translate(-936.264 -1686.892)" fill="#fd9b8e"/>
            </g>
          </g>
        </g>
        <g id="Group_794" data-name="Group 794" transform="translate(96.889)">
          <g id="Group_793" data-name="Group 793">
            <path id="Path_4618" data-name="Path 4618" d="M1214.8,1578.554a1215.309,1215.309,0,0,0,71.253,119.71h332.995l-96.773-81.861c-17.308-13.195-26.755-33.048-31.955-54.073-6.513-26.321-26.107-77.6-30.729-88.945-14.244-35-60.906-6.432-60.906-6.432-49.062,3.993-235.125-46.694-254.937-45.722l6.251,41.72C1149.324,1492.857,1193.6,1556.688,1214.8,1578.554Z" transform="translate(-1143.747 -1421.217)" fill="#fbbaad"/>
          </g>
        </g>
      </g>
      <g id="Group_798" data-name="Group 798" transform="translate(24.928 5.906)">
        <g id="Group_796" data-name="Group 796" transform="translate(1.251 1.24)">
          <path id="Path_4619" data-name="Path 4619" d="M933.063,1031.164a42.541,42.541,0,0,0-8.168,7.388c-2.259,2.908-3.747,6.58-3.257,10.209.543,4.089,3.423,7.448,6.286,10.451a180.58,180.58,0,0,0,13.6,12.874c3.388,2.891,7.266,5.8,11.74,5.843,5.411.061,9.858-4.045,13.4-8.091Z" transform="translate(-921.544 -1031.164)" fill="#f4eeed"/>
        </g>
        <g id="Group_797" data-name="Group 797">
          <path id="Path_4620" data-name="Path 4620" d="M951.733,1077.529H951.6c-4.75-.046-8.835-2.979-12.542-6.142a182.613,182.613,0,0,1-13.7-12.963c-2.888-3.029-6.019-6.639-6.616-11.141-.491-3.632.754-7.585,3.506-11.128a43.457,43.457,0,0,1,8.4-7.616,1.258,1.258,0,0,1,1.753.232,1.233,1.233,0,0,1-.234,1.738,41.6,41.6,0,0,0-7.937,7.16c-1.355,1.745-3.549,5.272-3.007,9.286.5,3.77,3.336,7.016,5.955,9.764a180.148,180.148,0,0,0,13.511,12.786c3.118,2.66,6.792,5.5,10.937,5.542h.1c4.985,0,9.212-4.091,12.345-7.665a1.256,1.256,0,0,1,1.764-.122,1.232,1.232,0,0,1,.124,1.749C962.48,1072.983,957.723,1077.529,951.733,1077.529Z" transform="translate(-918.638 -1028.284)" fill="#f4eeed"/>
        </g>
      </g>
      <g id="Group_800" data-name="Group 800" transform="translate(161.341 136.747)">
        <g id="Group_799" data-name="Group 799">
          <path id="Path_4621" data-name="Path 4621" d="M1247.62,1358.329c13.894-15.86,25.293-21.65,46.085-19.523,10.208,1.051,24.522,4.271,36.717,2.127,10.374-1.823,21.466-9.931,38.249-10.964,16.669-1.024,32.043,5.435,48.563,6.112,11.967.486,24.084-3.62,35.947-2.266,23.375,2.673,37.575,24.81,46.864,45.383,7.7,17.075,11.53,31.972,21.23,57.155,3.265,8.473,3.274,14.159-1.909,22.05-4.823,7.361-14.471,10.27-23.322,11.259-43.9,4.913-84.29-22.24-128.291-21.442-21.756.4-44.15,7.622-64.9,2.153-26.4-6.962-41.882-32.067-53.526-55.757C1243.322,1382.393,1238.253,1369.024,1247.62,1358.329Z" transform="translate(-1242.445 -1329.859)" fill="#fbbaad"/>
        </g>
      </g>
    </g>
    <g id="Group_807" data-name="Group 807" transform="translate(115.409 693.461)">
      <g id="Group_806" data-name="Group 806">
        <path id="Path_4624" data-name="Path 4624" d="M153.875,1634.744l22.806-86.036a7.4,7.4,0,0,1,8.308-5.391L434.8,1581.929a7.393,7.393,0,0,1,6.312,7.257l.586,87.469a8.088,8.088,0,0,1-9.367,8.03L157.9,1640.872A4.942,4.942,0,0,1,153.875,1634.744Z" transform="translate(-153.711 -1543.228)" fill="#f1f0f8"/>
      </g>
    </g>
    <g id="Group_809" data-name="Group 809" transform="translate(252.825 718.361)">
      <g id="Group_808" data-name="Group 808">
        <path id="Path_4625" data-name="Path 4625" d="M514.636,1701.87a1.222,1.222,0,0,1-.231-.023,51.252,51.252,0,0,1-32.774-21.623,50.709,50.709,0,0,1,14-70.743,51.458,51.458,0,0,1,38.439-7.416,1.17,1.17,0,1,1-.459,2.3,49.1,49.1,0,0,0-36.676,7.071,48.38,48.38,0,0,0-13.348,67.487,48.91,48.91,0,0,0,31.275,20.633,1.17,1.17,0,0,1-.228,2.319Z" transform="translate(-472.879 -1601.06)" fill="#f0ebff"/>
      </g>
    </g>
    <g id="Group_811" data-name="Group 811" transform="translate(303.705 762.835)">
      <g id="Group_810" data-name="Group 810">
        <path id="Path_4626" data-name="Path 4626" d="M597.689,1717.513a6.578,6.578,0,1,1,6.633-6.577A6.613,6.613,0,0,1,597.689,1717.513Zm0-11.442a4.865,4.865,0,1,0,4.9,4.865A4.892,4.892,0,0,0,597.689,1706.071Z" transform="translate(-591.055 -1704.358)" fill="#f0ebff"/>
      </g>
    </g>
    <g id="Group_818" data-name="Group 818" transform="translate(-2067.534 -1665.309)">
      <path id="Path_4639" data-name="Path 4639" d="M154.72,1088.311c6-.554,12.031.263,17.991,1.148,5.346.793,11.2,1.928,14.567,6.152,2.738,3.432,3.171,8.247,2.269,12.544-2.329,11.093-12.573,19.193-23.514,22.156-13.613,3.687-49.29,4.781-54-13.187C107.408,1099.5,142.485,1089.441,154.72,1088.311Z" transform="translate(1979.041 931.075)" fill="#abe8e0"/>
      <path id="Path_4640" data-name="Path 4640" d="M200.163,1004.343a44.347,44.347,0,0,1,7.622,7.331c2.094,2.381,4.284,5.106,4.192,8.275a8.914,8.914,0,0,1-3.737,6.477c-5.247,4.085-12.9,3.831-18.926,1.012-7.493-3.507-23.885-16.536-19.188-26.368C174.734,991.428,194.255,1000.213,200.163,1004.343Z" transform="translate(1947.723 980.709)" fill="#abe8e0"/>
      <path id="Path_4641" data-name="Path 4641" d="M1663.865,1270.311c-6-.553-12.031.263-17.99,1.148-5.346.793-11.2,1.928-14.566,6.152-2.739,3.432-3.172,8.247-2.269,12.544,2.329,11.093,12.573,19.193,23.514,22.156,13.613,3.687,49.29,4.781,54-13.187C1711.177,1281.5,1676.1,1271.441,1663.865,1270.311Z" transform="translate(1270.721 832.259)" fill="#abe8e0"/>
      <path id="Path_4642" data-name="Path 4642" d="M1660.8,1186.343a44.347,44.347,0,0,0-7.622,7.331c-2.093,2.381-4.283,5.106-4.192,8.275a8.914,8.914,0,0,0,3.737,6.477c5.247,4.085,12.9,3.831,18.926,1.012,7.493-3.507,23.885-16.536,19.188-26.368C1686.23,1173.428,1666.708,1182.213,1660.8,1186.343Z" transform="translate(1259.661 881.893)" fill="#abe8e0"/>
      <path id="Path_4643" data-name="Path 4643" d="M734.3,76.306c.5,6,2.36,11.8,4.272,17.514,1.714,5.125,3.853,10.687,8.6,13.268,3.858,2.1,8.674,1.683,12.748.044,10.515-4.231,16.7-15.732,17.709-27.022,1.252-14.048-3.9-49.367-22.415-50.87C737.061,27.766,733.279,64.061,734.3,76.306Z" transform="translate(1686.109 1506.02)" fill="#abe8e0"/>
      <path id="Path_4644" data-name="Path 4644" d="M652.222,139.438a44.345,44.345,0,0,0,8.549,6.225c2.71,1.645,5.775,3.326,8.88,2.682a8.913,8.913,0,0,0,5.725-4.811c3.106-5.879,1.519-13.374-2.308-18.811-4.763-6.766-20.453-20.63-29.314-14.287C635.065,116.655,647.124,134.342,652.222,139.438Z" transform="translate(1729.702 1462.792)" fill="#abe8e0"/>
    </g>
  </g>
</svg>
