<svg height="38" width="38" xmlns="http://www.w3.org/2000/svg"><path d="M19 30c-2.042 0-3.956-.56-5.596-1.532a7.659 7.659 0 01-2.762.532c-4.696 0-6.322-3.153-7.756-5.936-.659-1.276-1.28-2.482-2.155-3.357L.023 19l.707-.707c.875-.875 1.496-2.081 2.155-3.357C4.319 12.153 5.945 9 10.642 9c.919 0 1.847.179 2.763.532A10.93 10.93 0 0119 8c2.041 0 3.955.559 5.595 1.532A7.668 7.668 0 0127.358 9c4.696 0 6.322 3.153 7.757 5.936.658 1.277 1.279 2.482 2.154 3.357l.708.707-.707.707c-.875.875-1.496 2.081-2.154 3.357C33.681 25.847 32.055 29 27.358 29a7.668 7.668 0 01-2.763-.532A10.94 10.94 0 0119 30zm0-18c-3.859 0-7 3.141-7 7 0 3.861 3.141 7 7 7 3.861 0 7-3.139 7-7 0-3.859-3.139-7-7-7z" fill="#948ff2"/><path d="M29 19c0 5.522-4.478 10-10 10-5.523 0-10-4.478-10-10 0-5.523 4.477-10 10-10 5.522 0 10 4.477 10 10zm-15.513-8.349c-.892-.407-1.844-.651-2.845-.651-6.084 0-6.204 6-9.204 9 3 3 3.12 9 9.204 9 1.003 0 1.957-.245 2.851-.654m11.015 0c.893.409 1.847.654 2.85.654 6.084 0 6.204-6 9.204-9-3-3-3.12-9-9.204-9-1.001 0-1.953.244-2.846.651M10.341 14l8.911 14.994m8.407-14.993H10.341m8.91 14.993l8.408-14.993" fill="none" opacity=".8" stroke="#231f20" stroke-miterlimit="10" stroke-width="2"/></svg>