<svg height="38" width="38" xmlns="http://www.w3.org/2000/svg"><path d="M19.384 24.26c-1.96-1.058-4.831-2.157-7.56-2.979C10.758 22.419 10 23.518 10 25.188c0 2.372 1.327 3.422 3.118 4.229 2.796-1.935 5.454-4.253 6.266-5.157z" fill="#f49314"/><path d="M22 37h-6l2.281-6.533C14.075 28.437 11 28.458 11 25.188c0-3.195 3.334-3.684 7.397-10.291C20.669 11.201 21 4.204 21 2V0m1.38 13.438l1.418-4.06-4.538-2.101a3 3 0 10-2.52 5.445l2.723 1.26S21 15.563 21 18.5c0 1.967-.875 3.65-3.249 6.025 4.249 2.225 5.274 3.037 5.274 4.645 0 1.43-.752 2.36-3.656 7.83" fill="none" opacity=".8" stroke="#231f20" stroke-miterlimit="10" stroke-width="2"/></svg>