<svg height="38" width="38" xmlns="http://www.w3.org/2000/svg"><path d="M18.599 16.957l-4.971-8.566C10.472 10.18 8 12.85 8 16c0 .303.008.608.023.923L16 19.312a9.012 9.012 0 012.599-2.355z" fill="#f49314"/><path d="M34 31h-3V11.535m0 15.339s.711.126 1 .126a5 5 0 005-5c0-1.125-.48-2.091-.998-2.997C32 12 28.417 7 22 7c-5.393 0-13 4-13 9 0 2.126.374 4.313 1.319 10.56L3 27l-1.526 4h10.712C13.842 31 15 30 15 28v-9s2.5-4 7-4c2.083 0 5 3 5 3l-2.664 2.79L27 24.188" fill="none" opacity=".8" stroke="#231f20" stroke-miterlimit="10" stroke-width="2"/></svg>