<svg height="38" width="38" xmlns="http://www.w3.org/2000/svg"><path d="M9 22l-5.525-6.906C1.292 16.85 0 19.241 0 22z" fill="#f49314"/><path d="M1.113 21h9.012C11.89 21 13 22.261 13 24c0 1.732-1.173 3-2.938 3H6c-2 0-5-1-5-5 0-5.313 5.438-9 12.438-9 3.563 0 6.284 1.269 8.143 3.762.955 1.283 2.868 3.848 3.821 5.13C27.025 24.07 28.75 25 31 25h6v-7m-24.146 7h8.862l-2.977-3.997L14 21m23 .005h-6.537A4 4 0 0027 15h-7.131" fill="none" opacity=".8" stroke="#231f20" stroke-miterlimit="10" stroke-width="2"/></svg>