<svg height="38" width="38" xmlns="http://www.w3.org/2000/svg"><path d="M10.28 4.146C5.965 4.824 4 8.043 4 11.25c0 .986.172 1.871.459 2.75h10.563a18.77 18.77 0 01-1.371-2.5z" fill="#f49314"/><path d="M17.578 21.744l1.658 4.608a4 4 0 007.526-2.707c-.429-1.196-1.596-4.44-2.511-6.981C22.17 10.889 17.147 5 12 5c-4.75 0-7 2.917-7 6.25 0 5 4.917 7.417 8 23.75h7m-3 0c-1-9.478-2.797-17.264-4.258-23.083C15.537 18.014 19 19 21.75 19c2.048 0 3.85-1.102 4.964-2.162l8.866-8.436" fill="none" opacity=".8" stroke="#231f20" stroke-miterlimit="10" stroke-width="2"/></svg>