<svg height="38" width="38" xmlns="http://www.w3.org/2000/svg"><path d="M12.825 24.611c1.928 1.826 4.319 4.192 5.477 5.724.485-.184.891-.308 1.176-.343 1.366-.168 3.078-.178 4.519-.14-.014-2.98-.01-5.57.01-6.87a146.309 146.309 0 00-9.973-.838c-.014.451-.026.914-.031 1.405-.407.362-.793.713-1.178 1.062z" fill="#f49314"/><path d="M0 15h13c3 0 2 3.25 2 9C6.197 31.812 2 37 2 37h2.063s12.25-7.625 15.292-8S27 29 27 29v8h5m6-24H23V7a3 3 0 00-6 0v3c0 2.836 1.043 3.903 4 5.306 1.469.696 2.25 1.525 2.25 2.694 0 1.252-.25 2.518-.25 5.875 0 0 3.253.322 6.313 1.008 1.034.231 1.749.867 1.749 2.055 0 1.563-1 10.063-1 10.063" fill="none" opacity=".8" stroke="#231f20" stroke-miterlimit="10" stroke-width="2"/></svg>