<svg height="38" width="38" xmlns="http://www.w3.org/2000/svg"><path d="M18.497 21.607l-3.648-1.376-4.018 9.429C13.274 31.064 15.98 32 19 32c.333 0 .662-.033.99-.067z" fill="#f49314"/><path d="M26.654 15.122l-7.918 7.645-9.819-3.704 2.847-9.553m20.355 4.858l3.107-3.069S32.01 7.36 31.409 6.725c-1.814-1.917-4.237-2.568-6.72-.217-2.482 2.349-1.965 4.805-.152 6.72.604.635 2.117 1.894 2.117 1.894M8.079 8.077C4.255 16.274 3 18 3 20c0 1.156.589 2.437 1.447 3.283C8.854 27.635 13.362 31 19 31c6.333 0 12-7.327 12-10.617 0-2.973-1.263-4.1-4.346-5.261L5.438 7.125" fill="none" opacity=".8" stroke="#231f20" stroke-miterlimit="10" stroke-width="2"/></svg>