<svg height="38" width="38" xmlns="http://www.w3.org/2000/svg"><path d="M11.904 14.745c-2.75.692-4.175 1.989-5.36 4.283-.334.648-.697 1.519-1.071 2.527 2.91 2.042 5.721 4.114 6.434 4.719 1.504-1.942 1.667-2.212 3.093-2.212h3l-6.096-9.317z" fill="#f49314"/><path d="M27 35.99L18.5 23c5.75 0 6.508-.368 6.935 2.625C25.639 27.06 27.25 37 27.25 37m-3.649-24.819c.188 1.31-.808 2.868-2.911 2.869-9.355.001-11.516 1.064-13.257 4.438C5.338 23.545 2 37 2 37h2.063s6.951-12 7.736-12S24 37 24 37h6M21.873.083l2.137 14.965C24.579 19.039 25.164 21 28 21h3a3.001 3.001 0 000-6c-2.564 0-6.99.049-6.99.049" fill="none" opacity=".8" stroke="#231f20" stroke-miterlimit="10" stroke-width="2"/></svg>