<svg height="38" width="38" xmlns="http://www.w3.org/2000/svg"><path d="M12.459 15.48c.691-1.081 3.365-4.845 5.474-7.255C16.542 6.771 15.148 6 13.248 6c-2.743 0-4.884.748-6.654 4.069 1.639 1.064 4.649 3.722 5.865 5.411z" fill="#f49314"/><path d="M8 31H1s1.438-7.464 5.57-18.438C8.45 7.57 10.625 7 13.248 7c3 0 4.562 2.313 7.752 7 2.517 3.697 11 17 14 17h3m-8.35-4.732S29.375 29 25.75 29C22.438 29 21 25.232 21 23.954c0-1.442.357-2.377.625-2.954-1 0-3.25.001-4.938-1.491s-2.903-4.287-4.313-5.696c0 0-4.676 6.355-8 17.188" fill="none" opacity=".8" stroke="#231f20" stroke-miterlimit="10" stroke-width="2"/></svg>