<svg height="38" width="38" xmlns="http://www.w3.org/2000/svg"><path d="M20.747 25.469L19.892 24H12v2.989c0 2.366 1.385 3.793 2.622 4.502.43.246 1.4.509 1.988.509 2.245-4.354 3.14-5.625 4.137-6.531z" fill="#f49314"/><path d="M24.063 31H16s-3-.802-3-4.011V13h3.667c1.741 0 2.973.701 3.961 2.401l7.843 13.482M17.679 18.208l3.78 6.497s5.025 2.474 5.613 2.796C28.273 28.161 29 29.426 29 31c0 1.978-1.307 4-4 4H13.937L16 31m5-19V5a4 4 0 00-8 0v11" fill="none" opacity=".8" stroke="#231f20" stroke-miterlimit="10" stroke-width="2"/></svg>