<svg height="38" width="38" xmlns="http://www.w3.org/2000/svg"><path d="M20.001 22.388C21 21.75 22 21.146 22 21.146V20H12v3c0 .341.01.673.023 1H18s1.003-.975 2.001-1.612z" fill="#f49314"/><path d="M17 24c0 4.063 2 13 2 13h-5m3-34.987S11 5.356 11 10c0 3.125 2 5 2 5v8c0 4.415 1.232 7.5 3.5 14m1.188-7.91c4.88 0 7.312-.965 7.312-2.527 0-2.965-4-4.813-4-4.813V15s2-2 2-5c0-4.645-6-7.987-6-7.987V0m0 7c-1.104 0-2 1.343-2 3s.896 3 2 3 2-1.343 2-3-.896-3-2-3z" fill="none" opacity=".8" stroke="#231f20" stroke-miterlimit="10" stroke-width="2"/></svg>