<svg height="38" width="38" xmlns="http://www.w3.org/2000/svg"><path d="M19.375 17.556c.132-.189.544-.798 1.273-1.704-.707-3.875 1.358-5.582 3.199-6.337C22.165 8.581 20.513 8 19 8c-2.058 0-4.1.847-5.857 2.227.437 3.595 3.253 6.449 6.232 7.329z" fill="#f49314"/><path d="M18 23h6s3 1.343 3 3-1.344 3-3 3H0m37-2c-9-8.5-18-10.583-18-10.583S17 18.5 17 22c0 4 2 7 2 7m18 1v-6.667C34.074 19.616 25 9 19 9 14.25 9 9 14.357 9 20.395c0 1.744.171 3.06.653 4.605H14" fill="none" opacity=".8" stroke="#231f20" stroke-miterlimit="10" stroke-width="2"/></svg>