<svg height="38" width="38" xmlns="http://www.w3.org/2000/svg"><path d="M22.311 26.255l-4.125-1.772a49.114 49.114 0 01-1.815 2.542c-.871 1.135-1.296 3.891-.145 5.684 1.151 1.792 3.878 2.62 6.084 1.762.953-.371 1.86-.737 2.688-1.08z" fill="#f49314"/><path d="M1 36s4.563 1 8.313 1C15.063 37 29 30.562 29 30.562V37h5m-8.969-22.242c-4.222 7.993-8.968 15.692-12.774 17.499C8.45 34.064 1 33.188 1 33.188V38m21.663-10.81s6.12-2.308 8.65-2.308c1.06 0 1.749.867 1.749 2.055 0 1.563-1 10.063-1 10.063m-3.844-23.678l2.22-4.345s-4.715-3-5.367-3.35c-1.965-1.057-4.084-.937-5.453 1.609-1.37 2.546-.303 4.38 1.662 5.437.652.35 1.533.897 3.752 2.085C28.486 16.609 29 17.808 29 21v17" fill="none" opacity=".8" stroke="#231f20" stroke-miterlimit="10" stroke-width="2"/></svg>