<svg height="38" width="38" xmlns="http://www.w3.org/2000/svg"><path d="M18 31.987c.564.008 1.127.013 1.688.013 2.422 0 4.428-.304 6.101-.8L22 24.052c-1.14.521-2.457.953-3.999 1.276v6.659z" fill="#ffb5cc"/><path d="M30.113 17.164C27.409 22.033 23.938 27 10.5 27H1v5m0-2s9.688 1 18.688 1C31.688 31 33 23.252 33 22c0-2.666-2.383-4.298-4.393-5.802l-2.403-1.796a2.999 2.999 0 113.593-4.805l4.805 3.592-1.423 2.092m-8.124 8.129L29.078 31H32" fill="none" opacity=".8" stroke="#231f20" stroke-miterlimit="10" stroke-width="2"/></svg>