<svg height="38" width="38" xmlns="http://www.w3.org/2000/svg"><path d="M14.156 5.125A4.034 4.034 0 0114 4c0-1.934 1.313-4 5-4s5 2.066 5 4c0 .391-.053.769-.156 1.125h-.03C22.357 4.412 20.728 4 19 4s-3.358.412-4.815 1.125zM31 16c-.358 0-.694.067-1 .172 0-3.367-3.059-5.693-3.291-5.813s-.479-.224-.742-.31c-1.125-.367-2.231.199-3.398.798-.779.4-1.637.84-2.568 1.041v26.046a8.189 8.189 0 003.088-1.027c1.236-.719 4.301-2.497 5.901-5.683A2.984 2.984 0 0031 32c1.654 0 3-1.346 3-3V19c0-1.654-1.346-3-3-3z" fill="#f4d240"/><path d="M29 26.933c0 5.102-4.274 7.867-6.414 9.109A7.162 7.162 0 0119 37a7.15 7.15 0 01-3.586-.96C13.274 34.799 9 32.033 9 26.933V15C9 9.476 13.476 5 19 5c5.523 0 10 4.476 10 10zM19 20v8m-8.406-6s1.8 1 2.901 1h2.567m5.876 0h2.567c1.102 0 2.901-1 2.901-1M15 30s1.668 1 4 1c2.327 0 4-1 4-1M9 18s-.896-1-2-1-2 .896-2 2v10a2 2 0 004 0zm24 1c0-1.104-.896-2-2-2s-2 1-2 1v11a2 2 0 004 0zM22.502 5.635C22.84 5.165 23 4.603 23 4c0-1.657-1.206-3-4-3s-4 1.343-4 3c0 .621.169 1.198.529 1.677M29 17c0-2.375-.969-5.226-3.343-6C24.124 10.5 22 13 19 13c-2.188 0-4.969-2.061-6.05-2.066M19 18v-2m-3 2c-1 0-3-1-4-1H9m20 0h-3c-1 0-3 1-4 1" fill="none" opacity=".8" stroke="#231f20" stroke-miterlimit="10" stroke-width="2"/></svg>