<svg height="38" width="38" xmlns="http://www.w3.org/2000/svg"><path d="M19.051 32.561L31.77 18.346c.149 1.123.23 2.334.23 3.654v14.732l-10.898-3.446c-.73-.23-1.411-.471-2.051-.725zM14 20v-.734c.003-7.352.003-8.677-2.71-11.39L9.794 6.38c.239 1.358.316 2.957.129 4.852-.163 1.657-.596 3.155-1.015 4.604C8.441 17.451 8 18.977 8 20.545c0 5.012 4.354 6.175 7.184 6.403C14.393 25.366 14 23.188 14 20z" fill="#f4abef"/><path d="M21.403 32.333C15.821 30.567 13 28.5 13 20c0-7.875.083-8.917-2.417-11.417L9 7c1.706 1.706 3.5 2 10.167 2C26.452 9 31 11.866 31 22v13.367l-9.597-3.034zM7.675 5.675L5 3c1.25 1.25 2.355 3.702 1.938 7.938C6.624 14.115 5 17.017 5 20.545 5 26.206 9.227 30 16.422 30m14.553-9.266l-10.201 11.4m5.129 1.622L31 28.059" fill="none" opacity=".8" stroke="#231f20" stroke-miterlimit="10" stroke-width="2"/></svg>