<svg height="38" width="38" xmlns="http://www.w3.org/2000/svg"><path d="M32 19c0 7.18-5.82 13-13 13S6 26.18 6 19 11.82 6 19 6s13 5.82 13 13zM19 9.5c-5.246 0-9.5 4.254-9.5 9.5 0 5.245 4.254 9.5 9.5 9.5 5.245 0 9.5-4.255 9.5-9.5 0-5.246-4.255-9.5-9.5-9.5zm0 4.5a5 5 0 000 10c2.759 0 5-2.241 5-5 0-2.761-2.241-5-5-5z" fill="#f49314"/><path d="M31 19c0 6.626-5.374 12-12 12-6.627 0-12-5.374-12-12 0-6.627 5.373-12 12-12 6.626 0 12 5.373 12 12zm-12-2a2 2 0 10.001 4.001A2 2 0 0019 17zm0 0V2m0 34V21m2-2h15M2 19h15m3.414-1.414L31.021 6.979M6.979 31.021l10.606-10.606m2.829-.001L31.02 31.02M6.979 6.979l10.606 10.607" fill="none" opacity=".8" stroke="#231f20" stroke-miterlimit="10" stroke-width="2"/></svg>