<svg height="38" width="38" xmlns="http://www.w3.org/2000/svg"><path d="M19 14.08c-6.073 0-11.224 3.896-13.126 9.319a12.262 12.262 0 002.438 2.064c3.057 1.98 5.753 2.466 9.688 2.528L20 28v-.008c3.936-.063 6.632-.548 9.689-2.527a12.292 12.292 0 002.437-2.065c-1.901-5.423-7.053-9.32-13.126-9.32z" fill="#9dd2d8"/><path d="M38 27c-9 0-8.451 4-19 4-10.548 0-10-4-19-4m25-7.25c0-5.321-2.631-9.302-6-13.75-3.368 4.448-6 8.429-6 13.75 0 3.812 2.067 7.25 6 7.25 3.932 0 6-3.438 6-7.25zm-9.042-2.917C13.246 13.998 7.996 13 2.107 13c1.684 5.141 2.801 9.069 6.748 11.625C11.929 26.616 14.542 27 19 27c0-4.708-.045-7.035-3.042-10.167zM19 27c4.458 0 7.071-.384 10.146-2.375 3.946-2.556 5.063-6.484 6.747-11.625-5.889 0-11.138.998-13.851 3.833C19.045 19.965 19 22.292 19 27zm-3.435-16C13.767 9.313 12.282 8.313 9 7v6.582m19.999 0V7c-3.282 1.313-4.768 2.313-6.565 4" fill="none" opacity=".8" stroke="#231f20" stroke-miterlimit="10" stroke-width="2"/></svg>