<svg height="38" width="38" xmlns="http://www.w3.org/2000/svg"><path d="M31 14c-.358 0-.694.067-1 .172V8h-1c-2.684 0-3.975-.93-5.34-1.915-.987-.711-2.077-1.487-3.66-1.859v31.686a6.59 6.59 0 003.226-1.469c.582-.484 1.122-.922 1.62-1.326 3.039-2.465 4.83-3.917 5.114-7.21A5.007 5.007 0 0034 21v-4c0-1.654-1.346-3-3-3z" fill="#f4abef"/><path d="M18 5c5.063 0 5.188 4 11 4v15.933C29 29 27 30 22.586 33.675 21.55 34.538 20.306 35 19 35c-1.307 0-2.547-.466-3.586-1.329C11 30 9 29 9 24.933V7.125s4.405-3.209 6.02-4.142S18.125 1 20.367 1c4.008 0 5.07 4 8.633 4h1M19 16v8m-7.529-6s1.613 1 2.599 1h1.993m5.875 0h1.993l2.599-1m-12.201 7.875S16.305 27 19 27c2.689 0 4.671-1.125 4.671-1.125M9 16s-.896-1-2-1-2 .896-2 2v4a4 4 0 004 4m20 0a4 4 0 004-4v-4c0-1.104-.896-2-2-2s-2 1-2 1m-11-1c-1 0-4-1-6-1-1 0-3 1-3 1m20 0s-2-1-3-1c-2 0-5 1-6 1m-7 17v6m12-6v6" fill="none" opacity=".8" stroke="#231f20" stroke-miterlimit="10" stroke-width="2"/></svg>