<svg height="38" width="38" xmlns="http://www.w3.org/2000/svg"><path d="M16 32c-.898 0-4 0-4-4s3-10 3-10l1.613 2.646L19 13s5 11 5 15-4 4-5 4z" fill="#f49314"/><path d="M21 16V5a2 2 0 014 0v14m-7 16h3c4.417 0 8-4.833 8-10 0-1-.886-2.75-1.539-4-.652-1.25-1.336-2-2.961-2h-6a2 2 0 000 4h5c-2.813 0-6.5 2-6.5 7m-4-12V7a2 2 0 00-4 0v21c0 4.917 2.625 7 6 7h1m5-19V3a2 2 0 00-4 0v13m0-3a2 2 0 00-4 0v6a2 2 0 004 0v-6z" fill="none" opacity=".8" stroke="#231f20" stroke-miterlimit="10" stroke-width="2"/></svg>