<svg height="38" width="38" xmlns="http://www.w3.org/2000/svg"><path d="M19 37.977l-.707-.707c-.896-.896-2.016-1.405-3.201-1.944C12.705 34.239 10 33.009 10 28.358V28h-.358c-4.65 0-5.881-2.705-6.967-5.092-.539-1.186-1.048-2.305-1.944-3.201L.023 19l.707-.707c.896-.896 1.405-2.016 1.944-3.201C3.761 12.705 4.991 10 9.642 10H10v-.358c0-4.65 2.705-5.881 5.092-6.967 1.185-.539 2.304-1.048 3.201-1.944L19 .023l.707.707c.896.896 2.016 1.405 3.201 1.944C25.295 3.761 28 4.991 28 9.642V10h.358c4.65 0 5.881 2.705 6.967 5.092.539 1.185 1.048 2.304 1.944 3.201l.708.707-.707.707c-.896.896-1.405 2.016-1.944 3.201C34.239 25.295 33.009 28 28.358 28H28v.358c0 4.65-2.705 5.881-5.092 6.967-1.186.539-2.305 1.048-3.201 1.944zM19 11c-4.419 0-8 3.581-8 8s3.581 8 8 8 8-3.581 8-8-3.581-8-8-8z" fill="#ef6c6c"/><path d="M30.314 19c0 6.25-5.064 11.314-11.314 11.314S7.685 25.25 7.685 19 12.75 7.685 19 7.685 30.314 12.75 30.314 19zM19 27l7-12H12zm-8 1.358c0 6.084 5 5.204 8 8.204 3-3 8-2.12 8-8.204V9.641c0-6.084-5-5.204-8-8.204-3 3-8 2.12-8 8.204zM9.642 11c-6.084 0-5.204 5-8.204 8 3 3 2.12 8 8.204 8h18.717c6.084 0 5.204-5 8.204-8-3-3-2.12-8-8.204-8H9.642z" fill="none" opacity=".8" stroke="#231f20" stroke-miterlimit="10" stroke-width="2"/></svg>