<svg height="38" width="38" xmlns="http://www.w3.org/2000/svg"><path d="M36 19a5.996 5.996 0 00-3.846-5.595c.693-2.086.233-4.472-1.427-6.133-1.661-1.661-4.046-2.121-6.133-1.427A5.996 5.996 0 0019 2a5.997 5.997 0 00-5.594 3.845c-2.086-.693-4.473-.234-6.134 1.427-1.66 1.661-2.12 4.046-1.427 6.133A5.995 5.995 0 002 19a5.999 5.999 0 003.845 5.595c-.693 2.086-.234 4.472 1.427 6.133 1.66 1.66 4.046 2.12 6.133 1.427A5.998 5.998 0 0019 36a5.996 5.996 0 005.595-3.846c2.087.693 4.473.233 6.133-1.427 1.661-1.661 2.12-4.047 1.427-6.133A5.996 5.996 0 0036 19z" fill="#d0e6a5"/><path d="M8.89 15.441S11.481 13.215 14 13c1.47-.126 3 .504 3 2.442 0 1.746-1.543 3.306-3 3.558 1.746 0 9 1.188 9 8 0 3.5-2.538 6.111-6.349 6-5.403-.157-6.468-4.601-10.078-5.786-1.669-.548-3.082.411-3.082.411m22.737-1.437s1.46 1.813 3.328 1.813c2.554 0 3.71-1.832 3.397-5.375C32.649 19.184 29.055 15 25.365 15c-4.259 0-3.691 4.594-7.635 4.78M14 7s4.375 4 9.313 4c3.313 0 4.375-3 4.375-3M22.5 6a.5.5 0 100 1 .5.5 0 000-1z" fill="none" stroke="#231f20" stroke-miterlimit="10" stroke-opacity=".8" stroke-width="2"/></svg>