<svg height="38" width="38" xmlns="http://www.w3.org/2000/svg"><path d="M36.732 23.181l.209.627-.494.438a21.122 21.122 0 01-3.842 2.608 21.142 21.142 0 01-.339 4.634l-.132.647-.647.132c-.156.031-2.194.439-4.632.338a21.234 21.234 0 01-2.61 3.843l-.438.494-.626-.209a21.22 21.22 0 01-4.18-2.022c-2.069 1.305-4.031 1.973-4.182 2.022l-.627.209-.438-.494a21.237 21.237 0 01-2.608-3.842c-2.44.1-4.478-.308-4.634-.339l-.647-.132-.132-.647a21.184 21.184 0 01-.337-4.632 21.234 21.234 0 01-3.843-2.61l-.494-.438.209-.626c.051-.151.718-2.112 2.024-4.18a21.172 21.172 0 01-2.024-4.183l-.209-.627.495-.438a21.222 21.222 0 013.843-2.608 21.131 21.131 0 01.337-4.634l.132-.647.647-.132c.156-.032 2.186-.43 4.632-.337a21.177 21.177 0 012.61-3.843l.438-.494.627.209c.151.049 2.112.717 4.18 2.023a21.142 21.142 0 014.182-2.023l.627-.209.438.495a21.122 21.122 0 012.608 3.842c2.442-.096 4.477.306 4.633.339l.647.132.132.647c.032.156.435 2.188.338 4.631a21.177 21.177 0 013.843 2.61l.494.438-.209.626a21.22 21.22 0 01-2.022 4.18c1.304 2.069 1.972 4.03 2.021 4.182zM19 10c-4.971 0-9 4.029-9 9s4.029 9 9 9 9-4.029 9-9-4.029-9-9-9z" fill="#ef7bef"/><path d="M13.807 21.998c-7.621 4.399.696 13.786.696 13.786s11.898-3.968 7.496-11.591m2.194-8.191c7.621-4.399-.695-13.786-.695-13.786S11.6 6.184 16.002 13.807M19 24.997c0 8.8 12.287 6.29 12.287 6.29S33.8 18.999 24.997 19M19 13.003c0-8.8-12.287-6.291-12.287-6.291S4.201 19.001 13.003 19m11.19 2.999c7.621 4.4 11.591-7.496 11.591-7.496s-9.385-8.32-13.785-.696m-8.192 2.194c-7.621-4.4-11.592 7.496-11.592 7.496s9.386 8.32 13.787.696m-.001 0c-4.4 7.62 7.496 11.591 7.496 11.591s8.32-9.385.696-13.785m-2.195-8.192c4.4-7.621-7.495-11.592-7.495-11.592s-8.321 9.386-.697 13.786m8.192 8.192c4.399 7.621 13.786-.696 13.786-.696S31.816 11.6 24.193 16.001m-8.191-2.194c-4.399-7.621-13.787.695-13.787.695S6.184 26.4 13.807 21.998m11.19-2.997c8.8 0 6.29-12.288 6.29-12.288S19 4.2 19 13.003M13.003 19c-8.8-.001-6.291 12.287-6.291 12.287S19.001 33.8 19 24.997M25 19a6 6 0 01-12 0 6 6 0 0112 0z" fill="none" opacity=".8" stroke="#231f20" stroke-miterlimit="10" stroke-width="2"/></svg>