<svg height="38" width="38" xmlns="http://www.w3.org/2000/svg"><path d="M31 16c-.359 0-.693.071-1 .176v-.752l-1.965-1.205C25.73 12.79 22.533 10.863 20 9.533v26.36c.764-.147 1.537-.455 2.373-.964l.418-.25c2.025-1.205 6.602-3.928 7.153-8.775A5.003 5.003 0 0034 21v-2c0-1.654-1.346-3-3-3z" fill="#79caf7"/><path d="M10.204 8.239A9.998 9.998 0 0119 3c5.522 0 10 4.477 10 10v11.933c0 5.241-5.226 7.974-7.146 9.143-.882.535-1.814.924-2.854.924s-1.97-.391-2.854-.927C14.225 32.906 9 30.174 9 24.933V13c0-.837.103-1.65.296-2.427M19 18v8m-7.529-6s1.613 1 2.599 1h1.993m5.875 0h1.993l2.599-1m-10.996 7.875S17.159 29 19 29c1.837 0 3.466-1.125 3.466-1.125M9 18s-.896-1-2-1-2 .896-2 2v2a4 4 0 004 4m20 0a4 4 0 004-4v-2c0-1.104-.896-2-2-2s-2 1-2 1m-13-2c-1 0-2-1-4-1-1 0-3 1-3 1m20 0s-2-1-3-1c-2 0-3 1-4 1m-7 17.386V38m8-4.614V38m6-22S17.879 9 16.25 9s-2.452 1.313-2.452 1.313M23 33.386S24.667 37 31.287 37H34m-5-12c0 3.866 1.134 8 5 8" fill="none" opacity=".8" stroke="#231f20" stroke-miterlimit="10" stroke-width="2"/></svg>