<svg height="38" width="38" xmlns="http://www.w3.org/2000/svg"><path d="M19 30c-1.654 0-3-1.346-3-3s1.346-3 3-3 3 1.346 3 3-1.346 3-3 3zm17-11c0 9.374-7.626 17-17 17v-2c.241 0 .476-.025.715-.036C23.239 33.604 26 30.618 26 27c0-3.859-3.141-7-7-7-4.962 0-9-4.038-9-9s4.038-9 9-9c9.374 0 17 7.626 17 17zm-16-8c0-.551-.449-1-1-1s-1 .449-1 1 .449 1 1 1 1-.449 1-1z" fill="#948ff2"/><path d="M35 19c0 8.837-7.163 16-16 16-8.836 0-16-7.163-16-16 0-8.836 7.164-16 16-16 8.837 0 16 7.164 16 16zM19 35a8 8 0 000-16 8 8 0 010-16m0 6a2 2 0 10.001 4.001A2 2 0 0019 9zm2 18a2 2 0 10-4.001.001A2 2 0 0021 27z" fill="none" opacity=".8" stroke="#231f20" stroke-miterlimit="10" stroke-width="2"/></svg>