<svg xmlns="http://www.w3.org/2000/svg" width="600" height="565" viewBox="0 0 600 565">
  <g id="Group_311" data-name="Group 311" transform="translate(-284 -222)">
    <rect id="Rectangle_56" data-name="Rectangle 56" width="600" height="565" transform="translate(284 222)" fill="none"/>
    <g id="features" transform="translate(338.007 260.042)">
      <rect id="Rectangle_55" data-name="Rectangle 55" width="115.735" height="105.87" transform="translate(366.213 272.153)" fill="rgba(25,135,84,0.78)"/>
      <path id="Path_433" data-name="Path 433" d="M860.984,2180.465c-62.792-97.93-223.151-119.555-326.4-65.567-46.662,24.362-80.616,63.628-90.218,116.684a29.022,29.022,0,0,0,28.593,34.163H681.966c-5.512,0-23.482-.573-35.75-7.559-7.12-4.038-12.325-10.24-12.1-19.713,0,0-31.865-8.611-38.946-13.854-9.014-6.679-8.115-18.487,3.732-19.081a15.038,15.038,0,0,1,2.063.019,43.136,43.136,0,0,1-6.043-5.953c-7.291-9.51-2.871-21.416,9.474-18.524,3.35.784,8.383,3.061,13.742,5.817-5.493-4.127-10.775-8.535-13.09-11.559-7.311-9.532-2.89-21.435,9.454-18.525,8.707,2.028,28.886,14.148,36.5,18.813-6.779-5.4-20.057-16.327-23.884-22.107-6.622-10.01-1.359-21.568,10.759-17.8,9.972,3.063,26.161,16.306,28.133,17.952.134.115.211.171.211.171l2.814-15.959c22.87,6.89,24.516,36.744,24.516,36.744h27.433v91.1H683.631s-.589.019-1.665.019h132.57C858.324,2265.744,884.62,2217.33,860.984,2180.465Zm-295.551,23.807a17.062,17.062,0,1,1,12.076-5A17.081,17.081,0,0,1,565.434,2204.272Z" transform="translate(-378.481 -1778.618)" fill="#dbdfe6"/>
      <path id="Path_434" data-name="Path 434" d="M1735.608,2035.1q1.145,10.844,2.292,21.685l-78.7,1.58c-.044-2.821.035-20.41-.01-23.231Z" transform="translate(-1414.663 -1735.205)" fill="#dbdfe6"/>
      <path id="Path_435" data-name="Path 435" d="M734.3,2282H568.176a14.313,14.313,0,0,0-14.162,12.232c-5.59,37.876-12.508,84.758-18.086,122.649a14.3,14.3,0,0,0,8.1,15.043,13.974,13.974,0,0,0,6.068,1.359H711.73a14.309,14.309,0,0,0,12.822-8c-7.12-4.038-12.325-10.24-12.1-19.713,0,0-31.865-8.611-38.946-13.854-9.014-6.679-8.115-18.487,3.732-19.081a15.039,15.039,0,0,1,2.063.019,43.14,43.14,0,0,1-6.043-5.953c-7.291-9.51-2.871-21.416,9.474-18.524,3.35.784,8.383,3.061,13.742,5.817-5.493-4.126-10.775-8.535-13.09-11.559-7.312-9.532-2.89-21.435,9.454-18.525,8.707,2.028,28.886,14.148,36.5,18.813-6.779-5.4-20.057-16.327-23.884-22.107-6.622-10.01-1.359-21.568,10.759-17.8,9.972,3.062,26.161,16.306,28.133,17.952l4.019-21.874A14.3,14.3,0,0,0,734.3,2282Zm-90.525,89.371a17.062,17.062,0,1,1,12.076-5A17.081,17.081,0,0,1,643.771,2371.371Z" transform="translate(-456.818 -1945.717)" fill="#4f91ff"/>
      <g id="Group_310" data-name="Group 310" transform="translate(-0.007 -0.042)">
        <path id="Path_436" data-name="Path 436" d="M236.279,281.622a63.9,63.9,0,0,0,16.529-.56l.687,17.425H242.05a1.444,1.444,0,0,0,0,2.887l78.727-.034a1.444,1.444,0,0,0,0-2.889H307.66V263.7c18.077-3.848,18.128-21.632,17.668-27.253.009-.14.012-.264.018-.395,12.872-2.106,20.9-6.927,23.825-14.352,4.536-11.5-4.67-25.2-7.247-28.709,2.766-4.5,14.428-25.043,9.148-43.5-2.743-9.58-9.627-16.972-20.462-21.959a41.448,41.448,0,0,0-17.772-4.084c5.011-10.961,5.474-23.18.719-33.059-6.485-13.467-22.757-20.938-36.481-17.724,4.7-7.594,3.228-18.241-2.85-24.723-6.9-7.354-19.125-10.283-30.434-7.286-8.1,2.146-15.945,7.111-22.9,14.443C221.9,30.8,203.306,6.756,178.313,1.191,152.7-4.5,124.063,10.089,114.369,33.3c-7.715-8.664-21.674-12.362-33.645-8.6-12.051,3.788-21.7,14.452-24.587,27.166C53.887,61.783,55.589,72.683,60.8,82.5c-15.286-7.484-35.33-5.132-47.935,6.28-14.3,12.94-17.115,35.557-6.3,50.418h0c28.406,39.01,144.6,33.038,192.711,28.357,2.962,9.755,10.521,20.826,11.5,21.458a123.935,123.935,0,0,0-7.135,52.076c.5,6.085,1.67,15.064,6.02,22.754A35.423,35.423,0,0,0,236.279,281.622ZM8.907,137.5c-9.978-13.706-7.332-34.6,5.9-46.572,12.863-11.643,35-13.047,49.34-3.127a1.445,1.445,0,0,0,2.015-2C59.122,75.47,56.494,63.339,58.95,52.514,61.61,40.783,70.5,30.95,81.586,27.46c11.723-3.684,25.505.42,32.056,9.552a1.446,1.446,0,0,0,2.536-.36c8.21-23.276,36.385-38.223,61.513-32.634,25.1,5.581,43.393,30.824,39.94,55.12a1.445,1.445,0,0,0,2.538,1.129c7.258-8.706,15.684-14.523,24.365-16.823,10.317-2.734,21.395-.134,27.585,6.47,6.438,6.862,6.707,18.873-.635,24.783a1.446,1.446,0,0,0,1.528,2.429c12.937-6.19,31.374.861,37.944,14.511,4.583,9.522,3.876,21.447-1.4,31.981-11.79,1.179-19.988,7.945-23.492,11.44-5.707-21-23.181-33.06-45.929-25.523-20.508,6.809-19.454,27.222-18.614,33.455-16.453-.358-26.528,5.9-22.991,21.759C152.367,169.2,36.387,175.238,8.907,137.5Zm211.462,73.025c4.541,1.136,8.209,5.158,10.449,9.254-4.662,2.234-9.028,3.242-13.49.956a12.145,12.145,0,0,0,3.04-10.21Zm-13.089,4.505c7.478,10.8,15.4,12.293,26.158,6.666a1.446,1.446,0,0,0,.631-1.907c-2.83-5.9-7.055-10.067-11.9-11.768a18.028,18.028,0,0,0-14.023,1.539A121.575,121.575,0,0,1,216,183.618c2.869-3.524,6.132-5.6,8.358-5.658a1.556,1.556,0,0,1,1.633.768c14.929,25.846,52.025,22.319,63.772,20.471-5.244,9.9-.3,27.343-.065,28.164a2.377,2.377,0,0,0,3.223,1.179,15.572,15.572,0,0,1,29.524,7.836h0a15.6,15.6,0,0,1-22.382,13.011,1.444,1.444,0,0,0-1.266,2.6,18.215,18.215,0,0,0,5.9,1.721c-.127,8.946.08-22.676.08,44.752l-48.393.022-.709-17.98a58.179,58.179,0,0,0,10.535-4.623,1.445,1.445,0,1,0-1.422-2.516c-7.708,4.359-15.755,6.647-28.214,5.378a32.53,32.53,0,0,1-24.4-16.328C205.2,250.09,205.356,229,207.281,215.027Z" transform="translate(0.007 0.042)"/>
        <path id="Path_437" data-name="Path 437" d="M1690.243,1491.043a1.446,1.446,0,0,0,.566-1.928c-3.012-5.757-8.106-10.906-14.212-11.79a18.751,18.751,0,0,0-14,3.758,1.444,1.444,0,0,0-.309,1.948C1670.228,1494.795,1678.117,1497.921,1690.243,1491.043Zm-2.682-1.828c-4.6,2.4-8.924,3.537-13.451,1.415a12.142,12.142,0,0,0,2.691-10.308C1681.373,1481.307,1685.172,1485.171,1687.561,1489.215Z" transform="translate(-1417.089 -1259.425)"/>
        <path id="Path_438" data-name="Path 438" d="M1725.94,1387.6c1.592-1.85,4.675-1.8,6.9-.794,5.21,2.358,8.843,9.541,15.725,10.243a1.444,1.444,0,0,0,.295-2.874c-5.627-.572-9.09-7.407-14.828-10-3.1-1.4-7.643-1.518-10.277,1.542a1.444,1.444,0,0,0,2.189,1.885Z" transform="translate(-1469.41 -1179.363)"/>
        <path id="Path_439" data-name="Path 439" d="M1464.48,1327.512a1.444,1.444,0,0,0-1.291-1.584c-5.623-.57-9.111-7.416-14.829-10-3.095-1.4-7.643-1.518-10.275,1.542a1.444,1.444,0,1,0,2.188,1.885c1.59-1.85,4.675-1.8,6.9-.794,5.375,2.429,8.663,9.524,15.727,10.243A1.444,1.444,0,0,0,1464.48,1327.512Z" transform="translate(-1225.842 -1121.175)"/>
        <path id="Path_440" data-name="Path 440" d="M2057.919,1584.667a1.451,1.451,0,0,0,.422-.062l5.305-1.612a1.445,1.445,0,0,0-.839-2.765l-5.306,1.621a1.444,1.444,0,0,0,.42,2.825Z" transform="translate(-1753.397 -1347.276)"/>
        <path id="Path_441" data-name="Path 441" d="M1526.208,1740.1a1.444,1.444,0,1,0-2.14-1.941,10.682,10.682,0,0,1-15.622.189,1.444,1.444,0,0,0-2.094,1.99A13.586,13.586,0,0,0,1526.208,1740.1Z" transform="translate(-1284.008 -1481.579)"/>
        <path id="Path_442" data-name="Path 442" d="M1589.077,2539.206h-34.746V2451h33.578a1.446,1.446,0,0,0,.995-2.492l-13.646-12.958a1.444,1.444,0,0,0-1.988,2.1l11.021,10.464h-57.534c-.685-6.056-4.716-30.448-25.412-36.684a1.446,1.446,0,0,0-1.839,1.134l-2.388,13.537c-4.732-3.8-18.105-14.122-26.919-16.829-13.412-4.172-19.781,8.8-12.39,19.976,1.932,2.917,6.134,7.055,10.773,11.2-5.292-2.962-15.9-8.716-21.848-10.11-14.6-3.433-20.294,12.147-8.106,23.895.489.475,1.416,1.326,1.621,1.512-12.919-4.849-16.408,2.934-16.654,2.981h0c-3.095,4.788-2.625,12.75,5.617,20.44-11.814,1.6-12.675,14.369-2.995,21.545,6.554,4.853,32.635,12.216,38.358,13.8.346,18.213,19.881,25.022,38.058,26.982a1.415,1.415,0,0,0,1.148.613c8.843.016-27.362,0,85.3,0a1.444,1.444,0,1,0,0-2.889Zm-121.616-25.774a1.443,1.443,0,0,0-1.067-1.429c-.315-.084-31.687-8.6-38.466-13.621-8.588-6.365-7.04-17.037,4.385-16.478,9.028,7.613,22.614,16.6,23.364,17.1a1.444,1.444,0,1,0,1.59-2.411c-7.089-4.691-22.649-15.525-28.365-21.822-7.709-8.562-4.43-20.043,7.062-17.351,8.9,2.085,31.318,15.6,39.025,20.5a1.444,1.444,0,1,0,1.547-2.439c-.8-.508-13.918-8.8-25.672-14.856-3.493-2.629-10.132-7.79-12.776-11.239-6.737-8.785-2.841-19.827,9.792-15.722,9.432,3.057,28.839,14.671,37.225,19.983a1.444,1.444,0,1,0,1.547-2.439c-.206-.131-1.247-.789-2.859-1.785h0c-12.322-9.815-20.918-17.752-23.581-21.772-5.9-8.9-1.645-18.971,9.127-15.622,8.171,2.505,21.309,12.42,27.9,17.895a1.448,1.448,0,0,0,2.292-.9l2.523-14.312c20.159,7.379,21.926,34.645,21.942,34.929a1.5,1.5,0,0,0,1.443,1.365h26V2539.2h-39.25C1492.486,2538.827,1466.984,2533.2,1467.461,2513.432Z" transform="translate(-1210.371 -2053.502)"/>
        <path id="Path_443" data-name="Path 443" d="M2533.781,463.3l-29.963-1.651a1.423,1.423,0,0,0-1.521,1.362,1.443,1.443,0,0,0,1.363,1.522l29.962,1.652h.079a1.444,1.444,0,1,0,.079-2.887Z" transform="translate(-2133.508 -393.604)"/>
        <path id="Path_444" data-name="Path 444" d="M2491.854,119.143a1.443,1.443,0,0,0-2.037-.137l-45.393,39.607a1.444,1.444,0,1,0,1.9,2.177l45.393-39.608A1.445,1.445,0,0,0,2491.854,119.143Z" transform="translate(-2083.745 -101.156)"/>
        <path id="Path_445" data-name="Path 445" d="M2382.779,181.692h.025a1.444,1.444,0,0,0,1.443-1.419c.155-9.305.7-18.733,1.633-28.023a1.444,1.444,0,1,0-2.874-.295c-.937,9.369-1.492,18.876-1.648,28.261a1.445,1.445,0,0,0,1.421,1.475Z" transform="translate(-2030.394 -128.448)"/>
        <path id="Path_446" data-name="Path 446" d="M1544.217,1475.522c.2.015.411.023.619.023a12.27,12.27,0,0,0,7-2.653,1.443,1.443,0,1,0-1.663-2.358c-2.191,1.542-4.063,2.23-5.748,2.1-1.64-.125-3.425-1.461-3.357-3.057.068-1.562,1.7-2.853,3.278-4.1a23.083,23.083,0,0,0,9.086-18.891,1.445,1.445,0,0,0-2.889.09,20.156,20.156,0,0,1-7.988,16.536c-1.894,1.5-4.249,3.36-4.373,6.243C1538.052,1472.8,1541.194,1475.291,1544.217,1475.522Z" transform="translate(-1311.485 -1232.194)"/>
        <path id="Path_447" data-name="Path 447" d="M841.78,392.467l-10.169-6.505a1.444,1.444,0,1,0-1.556,2.433l7.7,4.925a31.029,31.029,0,0,0-6.351,61.721,1.444,1.444,0,1,0,.352-2.867,28.143,28.143,0,0,1,5.914-55.967l-4.393,6.871a1.446,1.446,0,1,0,2.435,1.559l6.5-10.169a1.444,1.444,0,0,0-.438-2Z" transform="translate(-685.632 -328.879)"/>
        <path id="Path_448" data-name="Path 448" d="M1036.25,385.746a1.444,1.444,0,1,0-.352,2.867,27.976,27.976,0,0,1,18.755,10.611c15.058,19.276-.125,47.54-24.671,45.351l4.395-6.872a1.445,1.445,0,1,0-2.433-1.558l-6.505,10.169a1.442,1.442,0,0,0,.442,1.994c10.6,6.681,10.169,6.734,10.95,6.734a1.446,1.446,0,0,0,.78-2.662l-7.664-4.9c27.177,2.211,43.436-28.978,26.984-50.044A30.839,30.839,0,0,0,1036.25,385.746Z" transform="translate(-874.116 -328.88)"/>
        <path id="Path_449" data-name="Path 449" d="M282.7,1475.489l-19.349.262a1.443,1.443,0,0,0-1.424,1.463,1.474,1.474,0,0,0,1.463,1.425l13.559-.184c-29.119,15.554-48.579,48.34-47.792,81.393.18,7.584,1.385,13.948,3.665,19.276-10.4,16.163-14.367,40.4-7.014,62.577a76.1,76.1,0,0,0,36.625,43.111c-.262,1.371-.523,2.746-.786,4.115-.249,1.244-.458,2.545.46,3.733,1.052,1.4,3.521,2.373,6.028,2.812a31.589,31.589,0,0,0,5.205.364l3.2-21.684c-2.469,1.225-7.578-.075-10.487,1.054-2.292.915-2.3,2.669-3.049,6.623a73.221,73.221,0,0,1-34.451-41.038c-6.725-20.287-3.711-42.61,5.768-58.595,5.552,10.044,15.149,14.672,23.4,13.771,9-.98,16.932-9.77,15.243-18.773-1.847-9.851-14.022-14.994-23.62-11.957-6.19,1.959-10.965,6.3-14.536,11.04a51.581,51.581,0,0,1-2.747-16.5c-.775-32.606,18.8-64.941,47.88-79.624a51.132,51.132,0,0,0-2.676,12.26,1.443,1.443,0,1,0,2.875.258,48.276,48.276,0,0,1,3.91-15.159,1.446,1.446,0,0,0-1.344-2.026Zm-12.573,102.24c1.362,7.261-5.313,14.563-12.717,15.366s-16.493-3.832-21.284-13.706C249.922,1559.455,268.267,1567.813,270.129,1577.729Z" transform="translate(-189.315 -1258.027)"/>
      </g>
    </g>
  </g>
</svg>
