<svg xmlns="http://www.w3.org/2000/svg" viewBox="0 0 463.001 463.001"><path d="M388.909 272h-.331c7.057-9.252 13.254-21.671 13.009-36.607-.331-20.188-12.399-39.939-35.868-58.705 2.934-8.811 3.557-17.498 1.835-26.009-6.824-33.717-43.412-47.183-76.987-54.669a43.34 43.34 0 001.842-12.51c0-16.454-9.185-30.802-22.695-38.192C283.155 18.017 301.077 15 308.286 15c9.185 0 14.96 1.966 18.301 3.739 2.599 1.379 5.749 1.157 8.091-.623 4.361-3.315 3.799-10.016-1.037-12.589C328.261 2.663 320.085 0 308.286 0c-14.379 0-27.865 6.616-39 19.132-3.749 4.214-9.167 11.317-13.899 21.353a43.66 43.66 0 00-6.478-.485c-16.313 0-30.55 9.031-37.994 22.352-2.725-3.011-5.735-6.95-7.856-11.408a7.5 7.5 0 00-10.442-3.318c-22.422 12.578-38.793 29.335-48.66 49.806-8.438 17.507-9.998 33.636-10.027 43.015-.634.246-1.262.492-1.849.744-19.413 8.32-30.607 24.159-32.375 45.804-.706 8.652.271 16.547 1.314 21.965-15.449 5.536-26.193 16.119-30.067 29.988-3.058 10.948-1.48 22.826 3.939 33.053h-5.984a7.502 7.502 0 00-7.314 9.162l37.169 163.546c2.448 10.77 11.871 18.292 22.916 18.292h214.457c11.044 0 20.468-7.522 22.916-18.292l37.169-163.546a7.502 7.502 0 00-7.312-9.163zm-140-217c15.715 0 28.5 12.785 28.5 28.5s-12.785 28.5-28.5 28.5-28.5-12.785-28.5-28.5 12.786-28.5 28.5-28.5zM121.681 448a8.458 8.458 0 01-8.289-6.616L78.305 287h24.274l26.813 157.306c.218 1.28.525 2.51.898 3.694h-8.609zm26.807 0c-1.362 0-3.617-2.16-4.308-6.214L117.796 287h24.417l17.829 156.893c.163 1.43.401 2.802.708 4.107h-12.262zm28.163 0c-.522-.849-1.352-2.701-1.704-5.801L157.31 287h24.513l8.891 156.471c.091 1.608.231 3.117.417 4.529h-14.48zm44.758 0h-15.078c-.257-1.285-.51-3.059-.642-5.379L196.847 287h24.039l.027.002.038-.002h.458v161zm30.72-5.379c-.132 2.32-.385 4.095-.642 5.379h-15.078V287h24.562l-8.842 155.621zM281.168 448h-14.481a60.58 60.58 0 00.417-4.529L275.995 287h24.514l-17.637 155.199c-.352 3.1-1.181 4.952-1.704 5.801zm28.163 0h-12.263c.308-1.305.546-2.677.709-4.107L315.605 287h24.417l-26.384 154.786c-.69 4.054-2.945 6.214-4.307 6.214zm35.095-6.616a8.456 8.456 0 01-8.289 6.616h-8.61c.373-1.184.68-2.414.898-3.694L355.239 287h15.896l.019.001.023-.001h8.337l-35.088 154.384zM368.307 272h-115c16.863-8.811 38.706-21.158 59.289-35.598a7.5 7.5 0 10-8.615-12.279c-35.726 25.065-76.633 44.199-84.689 47.877H93.137c-7.453-8.047-10.489-19.156-7.735-29.018 3.118-11.165 13.188-18.983 28.355-22.017 14.246-2.849 51.915-10.78 93.934-22.862a7.5 7.5 0 00-4.146-14.416c-37.454 10.77-71.4 18.197-87.991 21.608-2.293-12.345-3.808-39.07 22.437-50.318 10.129-4.341 30.656-8.079 52.388-12.036l7.26-1.325a7.5 7.5 0 006.023-8.73 7.499 7.499 0 00-8.73-6.023l-7.24 1.322c-14.033 2.555-27.579 5.023-38.632 7.726 1.02-17.477 8.423-48.343 44.532-71.394 2.71 4.048 5.623 7.382 7.938 9.769 1.616 1.666 2.995 2.971 4.2 4.019a43.708 43.708 0 00-.321 5.197c0 23.986 19.514 43.5 43.5 43.5 14.095 0 26.641-6.744 34.595-17.169 14.792 3.146 27.032 6.785 36.917 11.036 1.875 2.837 1.618 4.876 1.099 6.505-1.863 5.837-13.482 21.888-80.971 44.791a7.5 7.5 0 104.821 14.204c24.19-8.209 43.814-16.407 58.327-24.366 18.367-10.073 28.872-19.909 32.114-30.069.239-.749.43-1.497.59-2.246 9.221 6.697 14.555 14.593 16.453 23.969 2.759 13.63-3.437 28.679-18.414 44.729a7.5 7.5 0 00.367 10.6 7.474 7.474 0 005.115 2.017 7.48 7.48 0 005.485-2.383c5.602-6.003 10.184-11.979 13.753-17.912 17.96 15.076 27.19 30.181 27.431 44.933.267 16.368-10.541 29.252-18.284 36.359z"/></svg>