<svg viewBox="-47 1 511 511.999" xmlns="http://www.w3.org/2000/svg"><path d="M396.676 46.254h-24.89l-6.915-33.527C363.348 5.352 356.777 0 349.25 0H67.863c-7.531 0-14.101 5.352-15.62 12.727l-6.919 33.527h-24.89C9.44 46.254.5 55.195.5 66.188v32.957c0 10.992 8.941 19.937 19.934 19.937h9.78l5.544 38.95a17.646 17.646 0 00-4.512 3.702 17.538 17.538 0 00-4.113 13.961l37.004 259.989c1.02 7.171 6.406 12.859 13.21 14.539l5.266 37.015C84.625 501.355 96.891 512 111.148 512h194.817c14.258 0 26.523-10.645 28.535-24.762l5.266-37.015c6.804-1.68 12.191-7.368 13.21-14.54l37.004-259.988a17.538 17.538 0 00-4.113-13.96 17.597 17.597 0 00-4.515-3.704l5.546-38.949h9.782c10.992 0 19.933-8.945 19.933-19.937V66.188c-.004-10.993-8.945-19.934-19.937-19.934zm-21.563 127.324L338.11 433.566a2.525 2.525 0 01-2.488 2.16h-71.848c-4.144 0-7.503 3.36-7.503 7.508s3.359 7.508 7.503 7.508h60.754l-4.894 34.383c-.965 6.762-6.84 11.863-13.672 11.863H111.148c-6.832 0-12.707-5.101-13.671-11.863l-4.891-34.383H228.84c4.148 0 7.508-3.36 7.508-7.508s-3.36-7.507-7.508-7.507H81.488a2.525 2.525 0 01-2.488-2.16l-37.004-259.99a2.49 2.49 0 012.36-2.851c.101-.004.199-.012.304-.02h327.79c.1.008.202.016.304.02.914.046 1.5.539 1.77.847a2.49 2.49 0 01.59 2.004zm-329.73-54.496H371.73l-5.21 36.613H50.594zm356.215-19.937a4.926 4.926 0 01-4.922 4.921H20.434a4.929 4.929 0 01-4.922-4.921V66.188a4.929 4.929 0 014.922-4.922h67.175a7.504 7.504 0 007.504-7.508 7.504 7.504 0 00-7.504-7.504H60.656l6.29-30.492a.944.944 0 01.917-.75H349.25c.441 0 .828.316.918.75l6.289 30.492H122.543a7.504 7.504 0 00-7.508 7.504 7.505 7.505 0 007.508 7.508h274.133a4.926 4.926 0 014.922 4.922zm0 0"/><path d="M265.023 241.422c-.05-.05-.105-.098-.16-.149-24.953-24.695-70.41-19.57-101.484 11.508-14.852 14.848-24.32 33.406-26.664 52.258-2.434 19.547 3.015 37.098 15.34 49.422 0 .004.004.004.007.008.02.02.04.039.06.054 10.398 10.364 24.495 15.844 40.374 15.844 2.934 0 5.934-.191 8.977-.566 18.851-2.344 37.41-11.817 52.261-26.664 31.153-31.157 36.235-76.77 11.325-101.68-.012-.016-.024-.023-.036-.035zm-113.41 65.469c1.934-15.551 9.883-30.996 22.38-43.496 14.972-14.973 33.718-22.864 50.48-22.864 7.703 0 14.98 1.676 21.285 5.09-12.606 7.488-32.18 22.219-38.133 44.05-5.18 18.981-33.281 40.009-48.703 49.759-6.281-8.63-8.875-19.957-7.309-32.54zm91.504 25.629c-12.5 12.5-27.945 20.445-43.496 22.378-10.984 1.368-21.016-.433-29.129-5.09 15.48-10.218 45.133-32.413 51.617-56.187 5.293-19.418 26.215-32.492 35.77-37.574 14.86 19.781 8.875 52.832-14.762 76.473zm0 0"/></svg>