<svg xmlns="http://www.w3.org/2000/svg" viewBox="0 0 501.656 501.656"><path d="M458.83 0h-368c-22.06 0-40 17.94-40 40v124.7L5.17 210.33a8.008 8.008 0 00-2.34 5.66v280h16V219.3l32-32V208c0 4.42 3.58 8 8 8h94.98c-3.55 13.78-16.1 24-30.97 24h-32c-4.42 0-8 3.58-8 8 0 26.9-21.1 48-48 48v16c5.55 0 10.9-.73 16-2v114c0 22.06 17.94 40 40 40h24v32h16v-32h128v16c0 2.12.84 4.16 2.34 5.66l16 16 11.3-11.32-13.64-13.65v-49.4l16-16V448h16V227.98c0-6.6 5.37-11.98 12-11.98 6.62 0 12 5.38 12 11.98V408h16v-68.02c0-6.6 5.37-11.98 12-11.98 6.62 0 12 5.38 12 11.98V408h16v-68.02c0-6.6 5.37-11.98 12-11.98 6.62 0 12 5.38 12 11.98V408h16l.03-68.03c0-6.6 5.38-11.98 11.98-11.98 6.6 0 12 5.37 12 11.98V496h16v-32.8c18.22-3.73 32-19.9 32-39.2V40c0-22.06-17.96-40-40-40zm24 424c0 10.42-6.7 19.22-16 22.53V339.98c0-15.43-12.55-27.98-28-27.98-7.83 0-14.9 3.26-20 8.48-5.07-5.22-12.16-8.48-20.02-8.48-7.82 0-14.9 3.26-19.97 8.46-5.1-5.2-12.17-8.46-20.02-8.46-4.3 0-8.32 1.06-11.97 2.8v-86.82c0-15.43-12.55-27.98-28.02-27.98-15.42 0-27.97 12.55-27.97 27.98v160.68l-29.67 29.68a7.998 7.998 0 00-2.33 5.66v24h-168c-13.23 0-24-10.77-24-24V303.62c17.1-9.68 29.05-26.97 31.53-47.62h24.47c26.47 0 48-21.53 48-48 0-4.42-3.6-8-8-8h-96V40c0-13.23 10.77-24 24-24h368c13.23 0 24 10.77 24 24v384z"/><path fill="#267DF4" d="M226.83 32h-120c-4.42 0-8 3.58-8 8v40c0 4.42 3.58 8 8 8h120c4.4 0 8-3.58 8-8V40c0-4.42-3.6-8-8-8zm-8 40h-104V48h104v24zm224-40h-120c-4.42 0-8 3.58-8 8v40c0 4.42 3.58 8 8 8h120c4.4 0 8-3.58 8-8V40c0-4.42-3.6-8-8-8zm-8 40h-104V48h104v24zm-208 200h-120c-4.42 0-8 3.58-8 8v40c0 4.42 3.58 8 8 8h120c4.4 0 8-3.58 8-8v-40c0-4.42-3.6-8-8-8zm-8 40h-104v-24h104v24z"/><path d="M266.83 32h16v152h-16zm-168 72h88v16h-88zm112 0h24v16h-24zm-112 32h88v16h-88zm112 0h24v16h-24zm-112 32h88v16h-88zm112 0h24v16h-24zm0 32h24v16h-24zm0 32h24v16h-24zm-112 112h88v16h-88zm112 0h24v16h-24zm-112 32h88v16h-88zm112 0h24v16h-24zm-112 32h88v16h-88zm112 0h24v16h-24zm104-304h88v16h-88zm112 0h24v16h-24zm-112 32h88v16h-88zm112 0h24v16h-24zm-112 32h88v16h-88zm112 0h24v16h-24zm-64 32h40v16h-40zm64 0h24v16h-24zm-64 32h40v16h-40zm64 0h24v16h-24zm-64 32h40v16h-40zm64 0h24v16h-24z"/></svg>