<svg xmlns="http://www.w3.org/2000/svg" viewBox="0 0 512.001 512.001"><path d="M503.45 324.28H8.55a8.53 8.53 0 00-8.533 8.533c0 98.801 80.379 179.188 179.188 179.188h153.59c98.801 0 179.188-80.387 179.188-179.188a8.525 8.525 0 00-8.533-8.533zM332.795 494.935h-153.59c-86.531 0-157.447-68.143-161.901-153.59h477.391c-4.453 85.447-75.369 153.59-161.9 153.59zm102.428-375.39c0-.623-.009-1.246-.068-2.193-1.314-14.147-11.041-25.769-23.883-30.129l9.659-9.659c16.75-16.408 18.431-42.655 3.771-61.188-15.7-19.079-43.995-21.793-63.066-6.101a45.088 45.088 0 00-3.183 2.893l-10.495 10.649c-4.403-12.774-16.05-22.433-30.402-23.764-18.9-1.032-34.899 13.473-35.914 32.262a34.16 34.16 0 00-.043 1.86v13.081a33.925 33.925 0 00-19.224-4.523c-18.243 1.698-32.279 17.373-31.972 35.547v11.605c-5.12-2.961-10.956-4.548-17.031-4.557-.614 0-1.237.017-2.184.068-18.252 1.698-32.288 17.373-31.981 35.548v126.541a8.53 8.53 0 008.533 8.533h145.057c18.823 0 34.131-15.308 34.122-34.114a33.87 33.87 0 00-4.582-17.065h11.528c18.328.503 34.003-13.738 35.718-32.314a33.92 33.92 0 00-4.667-19.096c7.662-.853 14.753-4.241 20.282-9.753 6.449-6.434 10.016-15.001 10.025-24.131zm-22.075 12.048a16.982 16.982 0 01-12.065 4.975h-25.624c-4.719 0-8.533 3.823-8.533 8.533s3.814 8.533 8.533 8.533l.939.026c9.403.503 16.639 8.558 16.161 17.62-.87 9.403-8.848 16.682-18.55 16.485h-41.213c-4.719 0-8.533 3.823-8.533 8.533s3.814 8.533 8.533 8.533c9.412 0 17.066 7.654 17.066 17.066s-7.654 17.066-17.066 17.066H196.271V120.799c-.162-9.446 7.091-17.526 16.161-18.38l.93-.026c9.395.008 17.031 7.654 17.04 17.04v.06c0 4.71 3.814 8.533 8.524 8.533h.009c4.71 0 8.524-3.814 8.533-8.524V78.135c-.162-9.446 7.091-17.526 16.161-18.38l.922-.026c9.403.017 17.04 7.662 17.049 17.057v.051c0 4.71 3.814 8.533 8.524 8.533h.009c4.71 0 8.524-3.814 8.533-8.524V34.174l.026-.947c.495-9.395 8.362-16.63 17.612-16.161 9.42.879 16.664 8.959 16.485 18.567v7.082a8.533 8.533 0 005.299 7.893 8.516 8.516 0 009.309-1.911l23.149-23.491a28.91 28.91 0 011.954-1.766c11.809-9.71 29.31-8.021 38.935 3.652 9.113 11.536 8.063 27.987-2.5 38.338l-22.441 22.441a8.534 8.534 0 00-1.852 9.301 8.537 8.537 0 007.884 5.265h7.534c9.318 0 17.236 7.185 18.072 16.161l.026.939c-.01 4.556-1.784 8.839-5.01 12.056z"/><path d="M130.52 292.626L369.433 53.713 381.5 65.78 142.587 304.693z"/><path d="M315.713 68.348h17.066v42.664h-17.066zm-51.197 42.664h17.066v51.197h-17.066zm-51.197 42.578h17.066v59.729h-17.066z"/><path d="M324.245 102.479h42.664v17.065h-42.664zm-51.196 51.111h51.197v17.065h-51.197zm-51.197 51.197h59.729v17.066h-59.729zM159.281 39.473c-.008-.017-.026-.034-.034-.051-12.04-18.03-36.512-22.928-54.533-10.888-.563.367-1.118.759-1.749 1.229l-3.072 2.338-2.952-2.125C81.326 15.411 56.777 16 41.913 31.427c-7.278 7.543-11.186 17.475-10.99 27.962.196 10.487 4.454 20.265 11.989 27.535a39.158 39.158 0 007.261 5.529l7.185 5.615v4.369c0 23.525 19.139 42.664 42.664 42.664s42.664-19.148 42.655-42.672V98.06l7.552-5.896c16.339-12.399 20.307-35.548 9.052-52.691zm-19.463 39.174l-10.922 8.533a8.537 8.537 0 00-3.277 6.724v8.533c0 14.113-11.485 25.598-25.598 25.598s-25.598-11.485-25.598-25.598v-8.533a8.51 8.51 0 00-3.277-6.724l-10.922-8.533a8.4 8.4 0 00-1.032-.691 21.969 21.969 0 01-4.42-3.311 22.053 22.053 0 01-6.784-15.564c-.111-5.922 2.099-11.536 6.212-15.803 4.343-4.505 10.154-6.775 15.973-6.775 5.546 0 11.101 2.056 15.402 6.212.29.273.597.538.93.776l8.533 6.144a8.526 8.526 0 0010.146-.128l8.994-6.766c4.949-3.311 10.879-4.471 16.716-3.319a22.12 22.12 0 0114.147 9.446c6.331 9.676 4.078 22.714-5.223 29.779zm47.903-70.114h17.066v17.065h-17.066zm51.197 273.049h17.065v17.065h-17.065zM460.787 51.24v17.066c9.412 0 17.066 7.654 17.066 17.065s-7.654 17.066-17.066 17.066v17.065c18.823 0 34.131-15.308 34.131-34.131S479.61 51.24 460.787 51.24zM17.066 128.077h17.065v17.066H17.066zM.017 93.946h17.065v17.066H.017zm332.778 179.137c-18.823 0-34.131 15.308-34.131 34.131h17.066c0-9.412 7.654-17.066 17.065-17.066 9.412 0 17.066 7.654 17.066 17.066h17.065c0-18.823-15.308-34.131-34.131-34.131zm-230.384-76.795h-1.075C97.53 181.586 84.159 170.69 68.28 170.69s-29.259 10.896-33.056 25.598h-1.075c-18.823 0-34.131 15.308-34.131 34.131s15.308 34.131 34.131 34.131h68.262c18.823 0 34.131-15.308 34.131-34.131s-15.308-34.131-34.131-34.131zm0 51.205H34.148c-9.412 0-17.066-7.654-17.066-17.065 0-9.412 7.654-17.066 17.066-17.066h8.533a8.536 8.536 0 008.533-8.533c0-9.412 7.654-17.065 17.066-17.065s17.066 7.654 17.066 17.065a8.536 8.536 0 008.533 8.533h8.533c9.412 0 17.066 7.654 17.066 17.066-.002 9.412-7.656 17.065-17.067 17.065z"/><path d="M85.345 247.485H51.214a8.536 8.536 0 00-8.533 8.533v34.131a8.53 8.53 0 008.533 8.533h34.131a8.53 8.53 0 008.533-8.533v-34.131a8.536 8.536 0 00-8.533-8.533zm-8.533 34.131H59.747v-17.065h17.066v17.065zm375.442-59.729c-14.113 0-25.598 11.485-25.598 25.598s11.485 25.598 25.598 25.598 25.598-11.485 25.598-25.598-11.485-25.598-25.598-25.598zm0 34.139c-4.71 0-8.533-3.831-8.533-8.533s3.823-8.533 8.533-8.533 8.533 3.823 8.533 8.533a8.536 8.536 0 01-8.533 8.533z"/><path d="M452.254 187.756c-32.928 0-59.729 26.793-59.729 59.729s26.801 59.729 59.729 59.729 59.729-26.793 59.729-59.729-26.801-59.729-59.729-59.729zm0 102.401c-23.525 0-42.664-19.147-42.664-42.664 0-23.525 19.139-42.664 42.664-42.664 23.525 0 42.664 19.139 42.664 42.664 0 23.525-19.139 42.664-42.664 42.664z"/></svg>