<svg enable-background="new 0 0 512 512" viewBox="0 0 512 512" xmlns="http://www.w3.org/2000/svg"><path d="m454.254 258.609-55.703-86.019c-4.317-6.667-11.637-10.648-19.58-10.648h-245.767c-7.931 0-15.244 3.971-19.563 10.621l-55.876 86.03c-5.71 8.79-4.828 20.396 2.145 28.222l178.662 200.58c4.422 4.964 10.77 7.812 17.418 7.812h.001c6.647 0 12.997-2.847 17.419-7.811l178.682-200.592c6.963-7.817 7.852-19.411 2.162-28.195zm-86.567-76.668-46.846 72.44-46.874-72.44zm-65.225 80.852h-92.944l46.472-71.819zm-64.449-80.85-46.745 72.241-46.729-72.241zm-111.965 8.235 46.97 72.615h-94.133zm-42.939 92.615h100.645l53.216 172.735zm172.881 166.543-51.309-166.543h102.618zm19.019 6.198 53.218-172.74h100.654zm64.211-192.741 46.927-72.565 46.989 72.565z"/><path d="m30.333 262.793h-20.333c-5.522 0-10 4.477-10 10s4.478 10 10 10h20.333c5.522 0 10-4.477 10-10s-4.478-10-10-10z"/><path d="m502 262.793h-20.333c-5.522 0-10 4.477-10 10s4.478 10 10 10h20.333c5.522 0 10-4.477 10-10s-4.478-10-10-10z"/><path d="m437.146 91.826c-3.906-3.905-10.236-3.905-14.143 0l-33.217 33.217c-3.905 3.905-3.905 10.237 0 14.142 1.954 1.953 4.513 2.929 7.072 2.929 2.56 0 5.118-.977 7.071-2.929l33.217-33.217c3.905-3.905 3.905-10.236 0-14.142z"/><path d="m122.646 124.865-33.216-33.218c-3.904-3.905-10.234-3.905-14.143 0-3.905 3.905-3.905 10.237 0 14.142l33.217 33.217c1.953 1.953 4.512 2.929 7.071 2.929s5.118-.977 7.071-2.929c3.905-3.904 3.905-10.237 0-14.141z"/><path d="m256.254 16.793c-5.522 0-10 4.477-10 10v65.168c0 5.523 4.477 10 10 10 5.522 0 10-4.477 10-10v-65.168c0-5.522-4.478-10-10-10z"/><path d="m263.319 118.72c-1.859-1.86-4.439-2.93-7.069-2.93s-5.21 1.07-7.07 2.93-2.93 4.44-2.93 7.07c0 2.64 1.069 5.21 2.93 7.07 1.86 1.87 4.44 2.93 7.07 2.93s5.21-1.06 7.069-2.93c1.87-1.86 2.931-4.44 2.931-7.07s-1.061-5.209-2.931-7.07z"/></svg>