<svg enable-background="new 0 0 512.002 512.002" height="512" viewBox="0 0 512.002 512.002" width="512" xmlns="http://www.w3.org/2000/svg"><path d="m480.586 343.025c60.543-84.291 29.242-209.915-59.339-257.598v-48.278c-.492-13.254-19.513-13.244-20 0v38.478c-9.611-3.989-19.64-7.163-30.002-9.441v-29.037c-.492-13.254-19.513-13.244-20 0v25.807c-31.976-3.367-64.872 2.167-93.999 15.699v-68.655c0-5.522-4.477-10-10-10h-237.132c-5.523 0-10 4.478-10 10v237.133c0 5.522 4.477 10 10 10h143.834c.896 10.211 2.658 20.241 5.228 30.001h-59.492c-13.254.492-13.244 19.513 0 20h66.04c13.217 33.578 36.41 62.79 67.034 83.322l-61.515 106.547c-1.787 3.094-1.787 6.906 0 10 1.786 3.094 5.087 5 8.66 5h269.342c3.573 0 6.874-1.906 8.66-5 1.787-3.094 1.787-6.906 0-10l-52.778-91.414c30.516-13.445 56.481-34.934 75.459-62.564zm-460.472-323.025h217.132v217.133h-217.132zm177.111 472.002 117.35-203.257 117.351 203.257zm197.837-103.851-71.826-124.406c-3.605-6.594-13.716-6.593-17.32 0l-63.129 109.342c-24.424-16.674-43.434-39.598-55.357-65.953h15.251c13.254-.492 13.244-19.513 0-20h-22.738c-2.905-9.709-4.889-19.75-5.903-30.001h73.207c5.523 0 10-4.478 10-10v-146.135c28.531-15.374 61.822-21.753 93.999-17.911v26.062c.492 13.254 19.513 13.244 20 0v-22.423c10.443 2.604 20.482 6.235 30.002 10.789v83.634c.492 13.254 19.513 13.244 20 0v-72.221c104.203 67.867 90.03 230.566-26.186 279.223z"/><path d="m128.68 337.136h-74c-13.254.492-13.244 19.513 0 20h74c13.254-.492 13.244-19.513 0-20z"/><path d="m54.688 307.134c13.254-.492 13.244-19.513 0-20h-.008c-13.254.493-13.236 19.514.008 20z"/></svg>