<svg height="512" viewBox="0 0 48 48" width="512" xmlns="http://www.w3.org/2000/svg"><path d="m36 7.19v-1.19h-4.19a8.81 8.81 0 0 0 -7.1 3.61 8.82 8.82 0 0 0 -8.52-6.61h-4.19v1.19a8.82 8.82 0 0 0 8.81 8.81h2.19v8h2v-4.72l15.76 3.94-16.76 6.71-17.41-5.87 13.7-4.06-.58-2-16.71 5v2l21 7.06 19-7.58v5.84l-19 7.61-21-7.34v10.12l21 7.36 21-8.58v-2.17l-21 8.61-19-6.64v-5.88l19 6.66 21-8.39v-9.46l-14.9-3.72a8.82 8.82 0 0 0 5.9-8.31zm-4.19.81h2.19a6.82 6.82 0 0 1 -6.76 6h-2.19a6.82 6.82 0 0 1 6.76-6zm-11 3a6.82 6.82 0 0 1 -6.76-6h2.14a6.82 6.82 0 0 1 6.81 6z"/></svg>