<svg viewBox="0 -28 512 511" xmlns="http://www.w3.org/2000/svg"><path d="M77 223.13v97.94h29.3c3.72 0 8.42 15.44 13 42.02 5.7 33.15 24.85 82.33 90.2 82.33l260.12.07c18.18 0 32.87-15 32.37-33.3-.5-17.63-15.4-31.47-33.06-31.47H361.3M191.34 312.7l114.26 92.7c13.96 11.18 34.35 8.92 45.52-5.05 11.18-13.96 8.92-34.35-5.05-45.52L209.5 235.76C179.25 208.1 104.34 213.23 77 216.18v9.05" fill="#ffd4b8"/><path d="M165.7 301.08a10.098 10.098 0 01-3.82-.77c-.6-.24-1.18-.55-1.73-.9-.54-.37-1.06-.8-1.52-1.25a10.076 10.076 0 01-2.93-7.07c0-2.64 1.07-5.2 2.93-7.07.46-.45.98-.87 1.52-1.24a10.098 10.098 0 013.6-1.49c1.3-.26 2.62-.26 3.9 0 .65.13 1.28.32 1.88.57s1.18.56 1.73.92c.54.37 1.06.8 1.52 1.25a10.09 10.09 0 012.92 7.08c0 .65-.06 1.3-.2 1.95-.12.64-.3 1.27-.56 1.87a9.87 9.87 0 01-2.17 3.25c-.46.46-.97.88-1.52 1.24-.54.35-1.12.66-1.72.9-.6.26-1.23.45-1.87.58-.65.13-1.3.2-1.96.2zm0 0"/><path d="M10 195.72h67v159.5H10zm0 0" fill="#5396a8"/><path d="M511.98 411.93c-.62-22.72-19.93-41.2-43.04-41.2h-101.8a42.198 42.198 0 00-14.65-23.6L216.15 228.3c-29.53-26.88-93.7-26-129.16-23.1v-9.48c0-5.52-4.48-10-10-10H10c-5.52 0-10 4.48-10 10v159.5c0 5.52 4.48 10 10 10h67c5.52 0 10-4.48 10-10v-24.15h14.56c1.5 3.9 4.33 13.13 7.88 33.72 10.05 58.44 45.6 90.63 100.05 90.63l260.1.07c11.56 0 22.35-4.55 30.4-12.83 8.04-8.27 12.3-19.2 11.98-30.74zM67 345.23H20v-139.5h47zm418.66 83.5c-4.25 4.36-9.95 6.77-16.04 6.77l-260.13-.07c-55.9 0-74.54-40.26-80.36-74.03-2.35-13.7-4.75-24.56-7.1-32.22-1.95-6.33-5.57-18.1-15.73-18.1H87v-85.8c28.94-2.46 91.1-4.68 115.76 17.85.05.05.1.1.17.16L339.5 362.34c.1.1.2.18.32.27 9.64 7.7 11.2 21.83 3.5 31.46-7.72 9.64-21.84 11.2-31.43 3.53l-114.27-92.66a9.991 9.991 0 00-14.06 1.47c-3.48 4.3-2.82 10.6 1.47 14.07l114.3 92.72c7.8 6.23 17.16 9.26 26.45 9.26 12.43 0 24.77-5.43 33.13-15.88a42.27 42.27 0 007.93-15.85h102.08c12.38 0 22.72 9.75 23.05 21.75.16 6.1-2.1 11.88-6.34 16.25zm0 0"/><path d="M317.27 96.25c21.1 0 38.26-19.23 38.26-42.88 0-23.64-17.15-42.87-38.26-42.87-21.1 0-38.26 19.23-38.26 42.88 0 23.64 17.16 42.87 38.27 42.87zm81.61 0c21.07 0 38.26-19.23 38.26-42.88 0-23.64-17.18-42.87-38.26-42.87-21.1 0-38.27 19.23-38.27 42.88 0 23.64 17.18 42.87 38.28 42.87zm56.35-11.91c-16.6-2.6-32.97 9-37.3 26.43-4.33 17.42 5.27 33.08 21.87 35.67 16.58 2.58 32.97-9.02 37.3-26.44 4.33-17.4-5.3-33.08-21.87-35.66zM298.5 110.78c-4.32-17.44-20.7-29.04-37.3-26.44-16.56 2.58-26.2 18.24-21.86 35.67 4.32 17.42 20.7 29.03 37.3 26.44 16.6-2.6 26.2-18.25 21.87-35.66zm0 0" fill="#fcd888"/><path d="M421.56 141.18c-4.94-30.5-31.46-53.9-63.34-53.9h-.29c-31.88 0-58.4 23.4-63.34 53.9-22.7 9.9-38.6 32.54-38.6 58.84 0 35.37 28.78 64.16 64.17 64.16h.28c14.05 0 27.05-4.55 37.62-12.24a63.694 63.694 0 0037.62 12.24h.28c35.4 0 64.17-28.8 64.17-64.16 0-26.3-15.9-48.94-38.6-58.84zm0 0" fill="#b06d5d"/><path d="M481.8 90.26c-5.68-8.56-14.57-14.18-25.03-15.8-4.64-.73-9.27-.62-13.72.23 2.63-6.54 4.1-13.74 4.1-21.33C447.14 24.23 425.48.5 398.87.5c-17.15 0-32.24 9.85-40.8 24.66C349.5 10.36 334.4.5 317.27.5 290.65.5 269 24.22 269 53.38c0 7.55 1.46 14.74 4.08 21.25-4.36-.8-8.88-.88-13.4-.17-10.47 1.63-19.37 7.24-25.06 15.8-6.1 9.17-7.86 20.6-4.98 32.15 4.06 16.37 16.53 28.72 31.4 32.88A73.995 73.995 0 00246 200.03c0 40.9 33.27 74.16 74.17 74.16h.3c13.36 0 26.23-3.54 37.6-10.3 11.38 6.76 24.25 10.3 37.63 10.3h.28c40.9 0 74.18-33.27 74.18-74.16 0-16.47-5.46-32.06-15-44.68 14.98-4.1 27.56-16.48 31.65-32.93 2.88-11.55 1.1-22.97-5-32.14zM398.9 20.5c15.58 0 28.26 14.75 28.26 32.88 0 18.12-12.68 32.87-28.26 32.87-2.73 0-5.37-.45-7.86-1.3-1.52-.74-3.07-1.44-4.63-2.08-9.35-5.38-15.8-16.58-15.8-29.5 0-18.12 12.7-32.87 28.28-32.87zm-81.6 0c15.57 0 28.25 14.75 28.25 32.88 0 12.92-6.44 24.12-15.78 29.5-1.56.63-3.1 1.33-4.6 2.07-2.5.85-5.15 1.3-7.88 1.3C301.7 86.25 289 71.5 289 53.38c0-18.13 12.7-32.88 28.27-32.88zm-68.24 97.1c-1.5-6.06-.7-11.83 2.24-16.26 2.58-3.9 6.55-6.36 11.47-7.12 1.06-.17 2.1-.25 3.16-.25 10.4 0 20.1 7.9 22.9 19.22 1.02 4.1 1 8.1-.07 11.6-.27.7-.53 1.4-.78 2.12-.4.88-.85 1.72-1.38 2.52-2.58 3.9-6.55 6.35-11.48 7.12-11.53 1.8-22.97-6.53-26.06-18.97zM396.1 254.17h-.55c-11.43-.03-22.35-3.6-31.6-10.33a9.995 9.995 0 00-11.76 0c-9.25 6.73-20.18 10.3-31.6 10.33h-.56c-29.8-.07-54.04-24.34-54.04-54.16 0-21.54 12.8-41.04 32.6-49.68 3.1-1.36 5.32-4.2 5.86-7.57.5-2.97 1.22-5.86 2.17-8.64.35-.86.67-1.73.96-2.6 5-12.47 14.54-22.62 26.37-28.54 1.22-.5 2.4-1.05 3.57-1.64 6.32-2.6 13.2-4.06 20.3-4.07h.48c7.1 0 13.97 1.45 20.27 4.06 1.17.6 2.36 1.14 3.58 1.63 15.23 7.62 26.66 22.24 29.5 39.77.55 3.36 2.76 6.2 5.87 7.57 19.8 8.65 32.6 28.14 32.6 49.68 0 29.82-24.23 54.1-54.05 54.16zm71.3-136.6c-3.1 12.45-14.53 20.77-26.06 18.97-4.93-.76-8.9-3.23-11.48-7.1-2.93-4.44-3.73-10.2-2.22-16.27 2.8-11.3 12.5-19.2 22.9-19.2 1.03 0 2.1.07 3.14.24 4.93.76 8.9 3.23 11.48 7.1 2.95 4.45 3.74 10.22 2.24 16.27zM320.75 234.18h-1.2C301.05 233.83 286 218.5 286 200c0-13.58 8.1-25.9 20.6-31.35 5.06-2.2 10.96.1 13.17 5.16 2.2 5.06-.1 10.96-5.17 13.17-5.22 2.28-8.6 7.4-8.6 13.02 0 7.64 6.2 13.98 13.84 14.15h.85c3.62-.05 6.32-1.47 7.95-2.66 4.47-3.24 10.72-2.25 13.97 2.2 3.25 4.48 2.27 10.73-2.2 13.98-4 2.9-10.62 6.4-19.55 6.5h-.12zm0 0"/></svg>