<svg xmlns="http://www.w3.org/2000/svg" viewBox="0 0 144.21 144.21"><defs><style>.cls-1{fill:rgba(232,198,22,.8)}</style></defs><circle class="cls-1" cx="72.11" cy="88.58" r="7.64"/><circle class="cls-1" cx="87.8" cy="72.11" r="6.27"/><circle class="cls-1" cx="85.04" cy="51.47" r="2.76"/><circle class="cls-1" cx="72.11" cy="60.03" r="4.43"/><path class="cls-1" d="M72.11 0a72.11 72.11 0 1072.11 72.11A72.11 72.11 0 0072.11 0zm22.08 91.11c-12.36 9.25-22.09 15-22.09 15s-9.72-5.72-22.09-15c-25.77-19.3-18.37-43.37-4.54-50.31 20-10 26.64 11.52 26.64 11.52s6.66-21.55 26.64-11.52c13.82 6.94 21.25 31.01-4.56 50.31z"/><circle class="cls-1" cx="98.59" cy="58.02" r="1.69"/><circle class="cls-1" cx="95.62" cy="46.22" r=".89"/></svg>