<svg xmlns="http://www.w3.org/2000/svg" viewBox="0 0 423.988 423.988"><path d="M118.13 285.888h-54c-5.5 0-10 4.5-10 10v37c0 5.5 4.5 10 10 10h54c5.5 0 10-4.5 10-10v-37c0-5.5-4.5-10-10-10zm-10 37h-34v-17h34v17zm211-37h-54c-5.5 0-10 4.5-10 10v37c0 5.5 4.5 10 10 10h54c5.5 0 10-4.5 10-10v-37c0-5.5-4.5-10-10-10zm-10 37h-34v-17h34v17zm-82.4-1h-69.6c-5.5 0-10 4.5-10 10s4.4 10 10 10h69.6c5.5 0 10-4.5 10-10s-4.5-10-10-10zm0-28h-69.6c-5.5 0-10 4.5-10 10s4.4 10 10 10h69.6c5.5 0 10-4.5 10-10s-4.5-10-10-10z"/><path d="M398.03 48.488l-88.7-47.3c-3-1.6-6.5-1.6-9.5.1l-86.5 47.3c-3.2 1.7-5.3 5.1-5.3 8.8v67c.1 15.2 2.8 30.3 8.1 44.6h-114.6c-13.3 0-25.4 8-30.6 20.3l-24.7 57.5-10 9.5c-9.7 8.4-15.3 20.7-15.2 33.6v101.2c-.2 18 14.2 32.7 32.2 32.9h19.2c18.1-.1 32.7-14.8 32.6-32.9v-12.2h173v12.1c.2 18.2 14.9 32.9 33.1 32.9h19c18.1-.1 32.8-14.7 32.9-32.9v-103.8c0-12.1-5-23.6-13.7-31.9l-7-7.4-4.6-10.1c40.5-24 65.3-67.6 65.2-114.7v-65.7c.3-3.8-1.7-7.2-4.9-8.9zm-308.7 148.7c2.1-5 6.9-8.2 12.2-8.3h123.8c2.9 5.2 6.1 10.2 9.6 15-16.8 6.5-29.1 21.2-32.5 39H69.83l19.5-45.7zm160.5 23.7c9.2 8.7 19.5 16.1 30.7 22h-57.5c3.8-12 14.3-20.6 26.8-22zm-164.7 170.1c.1 7-5.5 12.8-12.6 12.9h-19c-7.1 0-12.4-5.8-12.4-12.9v-14.3c3.9 1.6 8.2 2.3 12.4 2.2h31.6v12.1zm258 0c0 7.1-5.8 12.9-12.9 12.9h-19c-7.1 0-13-5.7-13.1-12.9v-12.1h32.1c4.4.1 8.8-.6 12.9-2.2v14.3zm0-103.9v59.4c0 7.1-5.8 12.4-12.9 12.4H53.53c-6.7.2-12.2-5.1-12.4-11.8v-57.3c-.1-7.1 3-13.8 8.3-18.5l.2-.2 8.9-8.2h270.4l6.1 6.3c.1.1.3.2.5.4 4.8 4.6 7.6 10.9 7.6 17.5zm40-164.1c.1 45.6-27.2 86.8-69.3 104.5l-9.5 4.1-8.1-3.5c-41.3-18-68.1-58.8-68.2-103.9v-61l76.3-41.9 78.8 42v59.7z"/><path d="M354.33 100.988c-3.5-4.3-9.8-4.9-14.1-1.4l-46.8 38.1-17-19.9c-3.6-4.2-9.9-4.7-14.1-1.1-4.2 3.6-4.7 9.9-1.1 14.1l23.3 27.3.3.3c.1.1.2.3.4.4.2.1.3.3.4.4.1.1.3.2.4.3.1.1.3.2.5.3.1.1.3.2.4.3.2.1.3.2.5.3.1.1.3.2.4.2.2.1.4.2.6.2.1.1.3.1.4.2.2.1.4.1.6.2.1 0 .3.1.4.1.2 0 .4.1.6.1.1 0 .3.1.4.1h2.2c.2 0 .5-.1.7-.1.1 0 .2 0 .3-.1.2 0 .4-.1.6-.1.1 0 .2-.1.3-.1.2 0 .3-.1.5-.2.1 0 .2-.1.4-.1.1-.1.3-.1.4-.2.1-.1.2-.1.4-.2s.3-.1.4-.2c.1-.1.2-.2.4-.2.1-.1.3-.2.4-.2s.2-.2.4-.3c.1-.1.2-.1.3-.2l54.4-44.2c4.3-3.5 4.9-9.8 1.4-14.1z"/></svg>