<svg xmlns="http://www.w3.org/2000/svg" viewBox="0 0 469.334 469.334"><path d="M467.073 366.761c-.313-.396-30.948-39.802-40.906-71.302-2.365-7.5-5.313-18.063-8.698-30.156-16.198-57.917-30.927-107.177-47.26-123.51-17.697-17.697-86.094-29.505-114.208-33.71V42.667C256 19.136 236.865 0 213.333 0H42.667C19.135 0 0 19.136 0 42.667v298.667C0 364.865 19.135 384 42.667 384h170.667c4.608 0 9.057-1.023 13.411-2.522 9.288 8.617 19.809 15.174 30.839 21.855 21.74 13.188 44.229 26.823 63.854 60.688a10.663 10.663 0 009.229 5.313c101.5 0 137.604-91.26 137.958-92.188 1.344-3.49.75-7.437-1.552-10.385zM293.479 240.636c-1.938 4.417-4.052 9.24-7.01 12.99-10.676-7.609-21.514-23.741-30.469-40.88v-15.658l33.802 13.527c1.656 5.792 4.458 15.167 7.271 22.479-1.292 2.292-2.406 4.833-3.594 7.542z" fill="#303c42"/><path d="M21.333 341.334V42.667c0-11.76 9.573-21.333 21.333-21.333h170.667c11.76 0 21.333 9.573 21.333 21.333v127.898c-13.313-19.535-35.758-42.634-56.104-46.773-10.208-2.125-19.229.448-26.104 7.333-25.688 25.688-10.979 69.344 9.427 98.927 16.333 23.677 28.448 51.656 30.167 69.625.281 2.99.406 5.823.542 8.615.664 14.243 1.563 29.073 18.513 54.375H42.667c-11.761 0-21.334-9.573-21.334-21.333z" fill="#0288d1"/><path d="M336.625 447.875c-21.698-34.719-47.25-50.208-67.979-62.781-14.542-8.813-27.094-16.427-36.021-28.698-17.563-24.156-18.073-35.156-18.719-49.094-.146-3.135-.302-6.313-.625-9.646-2.052-21.604-15.333-52.896-33.833-79.708-16.448-23.844-27.177-56.458-11.906-71.74 1.24-1.24 2.896-2.281 6.76-1.521 16.719 3.406 43.688 34.49 50.469 51.302 8.167 20.219 30.271 68.542 59.135 80.531a10.76 10.76 0 0010.01-.979c10.667-7.104 15.531-18.219 19.094-26.333 1.031-2.333 2.427-5.542 2.396-5.771a10.666 10.666 0 003.469-13.542c-3.25-6.49-8.25-23.854-9.906-30a10.679 10.679 0 00-6.344-7.135L256 174.111v-44.413c38.766 6 89.074 17.135 99.125 27.177 13.708 13.708 31.292 76.594 41.802 114.167 3.458 12.375 6.479 23.177 8.906 30.833 8.938 28.333 31.375 60.458 40.51 72.833-8.405 17.042-40.166 70.271-109.718 73.167z" fill="#ffe082"/><path d="M337.994 386.729c-25.333-20-43.438-28.907-76-60.667-29.48-28.753-46.324-106.108-100.586-148.456 2.639 13.417 9.525 28.068 18.034 40.404 18.5 26.813 31.781 58.104 33.833 79.708.323 3.333.479 6.51.625 9.646.646 13.938 1.156 24.938 18.719 49.094 8.927 12.271 21.479 19.885 36.021 28.698 20.729 12.573 46.281 28.063 67.979 62.781 20.121-.837 36.742-6.13 50.887-13.298-16.263-18.915-34.578-36.119-49.512-47.91z" opacity=".1"/><path d="M96 42.667a10.66 10.66 0 00-10.667 10.667v192A10.66 10.66 0 0096 256a10.66 10.66 0 0010.667-10.667v-192A10.66 10.66 0 0096 42.667zm-42.667 0a10.66 10.66 0 00-10.667 10.667V160c0 5.896 4.771 10.667 10.667 10.667S64 165.896 64 160V53.334a10.66 10.66 0 00-10.667-10.667z" fill="#303c42"/><path d="M277.333 133.365c-7.273-1.344-14.495-2.608-21.333-3.667v44.413l21.333 8.534v-49.28z" opacity=".1"/><linearGradient id="a" gradientUnits="userSpaceOnUse" x1="-68.816" y1="618.779" x2="-44.593" y2="607.483" gradientTransform="matrix(21.3333 0 0 -21.3333 1430.106 13315.228)"><stop offset="0" stop-color="#fff" stop-opacity=".2"/><stop offset="1" stop-color="#fff" stop-opacity="0"/></linearGradient><path d="M467.073 366.761c-.313-.396-30.948-39.802-40.906-71.302-2.365-7.5-5.313-18.063-8.698-30.156-16.198-57.917-30.927-107.177-47.26-123.51-17.697-17.697-86.094-29.505-114.208-33.71V42.667C256 19.136 236.865 0 213.333 0H42.667C19.135 0 0 19.136 0 42.667v298.667C0 364.865 19.135 384 42.667 384h170.667c4.608 0 9.057-1.023 13.411-2.522 9.288 8.617 19.809 15.174 30.839 21.855 21.74 13.188 44.229 26.823 63.854 60.688a10.663 10.663 0 009.229 5.313c101.5 0 137.604-91.26 137.958-92.188 1.344-3.49.75-7.437-1.552-10.385zM293.479 240.636c-1.938 4.417-4.052 9.24-7.01 12.99-10.676-7.609-21.514-23.741-30.469-40.88v-15.658l33.802 13.527c1.656 5.792 4.458 15.167 7.271 22.479-1.292 2.292-2.406 4.833-3.594 7.542z" fill="url(#a)"/></svg>