<svg xmlns="http://www.w3.org/2000/svg" viewBox="0 0 515.2 515.2"><path fill="#fff" d="M59.2 505.6l-48-43.2 48-43.2h375.2v86.4z"/><path d="M442.4 513.6H56.8L0 462.4l56.8-51.2h386.4v102.4h-.8zm-380-16h364v-70.4h-364l-39.2 35.2 39.2 35.2z" fill="#193651"/><path fill="#f15f50" d="M69.6 477.6l-12.8-15.2 12.8-15.2h364.8v30.4z"/><path d="M434.4 419.2v86.4h56.8c8.8 0 16-7.2 16-16v-54.4c0-8.8-7.2-16-16-16h-56.8z" fill="#44c4a1"/><path d="M491.2 513.6h-64.8V411.2h64.8c13.6 0 24 10.4 24 24v54.4c0 13.6-10.4 24-24 24zm-48.8-16h48.8c4.8 0 8-3.2 8-8v-54.4c0-4.8-3.2-8-8-8h-48.8v70.4z" fill="#193651"/><path d="M344.8 84h70.4V44.8c0-19.2-16-35.2-35.2-35.2-19.2 0-35.2 16-35.2 35.2V84z" fill="#fff"/><path d="M423.2 92h-86.4V44.8c0-24 19.2-43.2 43.2-43.2s43.2 19.2 43.2 43.2V92zm-70.4-16h54.4V44.8c0-15.2-12-27.2-27.2-27.2s-27.2 12-27.2 27.2V76z" fill="#193651"/><path d="M47.2 9.6H380c-19.2 0-35.2 16-35.2 35.2v324.8H11.2V44.8c0-19.2 16-35.2 36-35.2z" fill="#fff"/><path d="M352.8 377.6H3.2V44.8c0-24 19.2-43.2 43.2-43.2H380v16c-15.2 0-27.2 12-27.2 27.2v332.8zm-333.6-16h317.6V44.8c0-10.4 4-20 9.6-27.2H47.2c-15.2 0-28 12-28 27.2v316.8z" fill="#193651"/><path d="M43.2 337.6V44.8c0-1.6 1.6-3.2 4-3.2h265.6v296H43.2z" fill="#ffbf5d"/><circle cx="341.6" cy="296.8" r="92.8" fill="#fff"/><path d="M341.6 397.6c-55.2 0-100.8-45.6-100.8-100.8S286.4 196 341.6 196s100.8 45.6 100.8 100.8-44.8 100.8-100.8 100.8zm0-185.6c-46.4 0-84.8 38.4-84.8 84.8s38.4 84.8 84.8 84.8 84.8-38.4 84.8-84.8-37.6-84.8-84.8-84.8zm-136-120.8h16v16h-16zm-39.2 0h16v16h-16zm-40 0h16v16h-16zm-39.2 0h16v16h-16zm0 51.2h134.4v16H87.2zm0 44h134.4v16H87.2z" fill="#193651"/><path d="M87.2 229.6h134.4v16H87.2zm228 117.6l-31.2-52 14.4-8 20 34.4 68.8-68 11.2 11.2z" fill="#193651"/></svg>