<svg xmlns="http://www.w3.org/2000/svg" viewBox="0 0 512 512"><path d="M448 96h-64c-11.767-.035-21.298-9.566-21.333-21.333v-64L448 96z" fill="#aac4da"/><path d="M448 96v384c-.035 11.768-9.566 21.298-21.333 21.333H85.333C73.566 501.298 64.035 491.768 64 480V32c.035-11.767 9.566-21.298 21.333-21.333h277.333v64C362.702 86.434 372.233 95.965 384 96h64z" fill="#d9eef7"/><path d="M234.667 384h42.667c5.891 0 10.667 4.776 10.667 10.667v42.667c0 5.891-4.776 10.667-10.667 10.667h-42.667c-5.891 0-10.667-4.776-10.667-10.667v-42.667c0-5.891 4.776-10.667 10.667-10.667zm106.666 0H384c5.891 0 10.667 4.776 10.667 10.667v42.667c0 5.891-4.776 10.667-10.667 10.667h-42.667c-5.891 0-10.667-4.776-10.667-10.667v-42.667c.001-5.891 4.776-10.667 10.667-10.667z" fill="#aac4da"/><path d="M458.667 288v10.667H416V256h42.667v32z" fill="#f2f2f2"/><path d="M501.333 234.667V320c-.035 11.767-9.566 21.298-21.333 21.333h-85.333c-11.768-.035-21.298-9.566-21.333-21.333v-64h-224v42.667h-42.667V256H53.333v64H10.667V213.333H480c11.768.035 21.298 9.566 21.333 21.334zm-42.666 64V256H416v42.667h42.667z" fill="#ffe451"/><path d="M128 384h42.667c5.891 0 10.667 4.776 10.667 10.667v42.667c0 5.891-4.776 10.667-10.667 10.667H128c-5.891 0-10.667-4.776-10.667-10.667v-42.667c0-5.891 4.776-10.667 10.667-10.667z" fill="#aac4da"/><g fill="#4c5b66"><path d="M117.333 64H224v21.333H117.333V64zm0 42.667h21.333V128h-21.333v-21.333zm42.667 0h21.333V128H160v-21.333zM437.333 480c0 5.891-4.776 10.667-10.667 10.667H85.333c-5.891 0-10.667-4.776-10.667-10.667V362.667H53.333V480c0 17.673 14.327 32 32 32h341.333c17.673 0 32-14.327 32-32v-96h-21.333v96z"/><path d="M74.667 32c0-5.891 4.776-10.667 10.667-10.667H352v53.333c0 17.673 14.327 32 32 32h21.333V85.333H384c-5.891 0-10.667-4.776-10.667-10.667v-38.25l64 64v70.251h21.333V96a10.67 10.67 0 00-3.125-7.541L370.208 3.125A10.662 10.662 0 00362.667 0H85.333c-17.673 0-32 14.327-32 32v138.667h21.333V32zm170.666 256v85.333h-10.667c-11.782 0-21.333 9.551-21.333 21.333v42.667c0 11.782 9.551 21.333 21.333 21.333h42.667c11.782 0 21.333-9.551 21.333-21.333v-42.667c0-11.782-9.551-21.333-21.333-21.333h-10.667V288h-21.333zm32 149.333h-42.667v-42.667h42.667v42.667z"/><path d="M480 202.667H10.667C4.776 202.667 0 207.442 0 213.333V320c0 5.891 4.776 10.667 10.667 10.667h42.667C59.224 330.667 64 325.891 64 320v-53.333h32v32c0 5.891 4.776 10.667 10.667 10.667h42.667c5.891 0 10.667-4.776 10.667-10.667v-32h202.667V320c0 17.673 14.327 32 32 32H480c17.673 0 32-14.327 32-32v-85.333c0-17.673-14.327-32-32-32zM490.667 320c0 5.891-4.776 10.667-10.667 10.667h-85.333c-5.891 0-10.667-4.776-10.667-10.667v-64c0-5.891-4.776-10.667-10.667-10.667h-224c-5.891 0-10.667 4.776-10.667 10.667v32h-21.333v-32c0-5.891-4.776-10.667-10.667-10.667H53.333c-5.891 0-10.667 4.776-10.667 10.667v53.333H21.333V224H480c5.891 0 10.667 4.776 10.667 10.667V320z"/><path d="M458.667 245.333H416c-5.891 0-10.667 4.776-10.667 10.667v42.667c0 5.891 4.776 10.667 10.667 10.667h21.333V288h-10.667v-21.333H448V288h21.333v-32c0-5.891-4.775-10.667-10.666-10.667zm-96 149.334v-21.333h-21.333c-11.782 0-21.333 9.551-21.333 21.333v42.667c0 11.782 9.551 21.333 21.333 21.333H384c11.782 0 21.333-9.551 21.333-21.333V416H384v21.333h-42.667v-42.667h21.334zm-74.667-64h53.333V352H288v-21.333zm-149.333 10.666v32H128c-11.782 0-21.333 9.551-21.333 21.333v42.667c0 11.782 9.551 21.333 21.333 21.333h42.667c11.782 0 21.333-9.551 21.333-21.333v-42.667c0-11.782-9.551-21.333-21.333-21.333H160V352h64v-21.333h-74.667c-5.891 0-10.666 4.775-10.666 10.666zm32 96H128v-42.667h42.667v42.667z"/></g></svg>