<svg xmlns="http://www.w3.org/2000/svg" viewBox="0 0 480.197 480.197"><path d="M432.098 144.581h-26.936c25.346-48.102 6.898-107.644-41.205-132.989C325.795-8.517 278.986-1.44 248.474 29.053l-8.376 8.368-8.376-8.368C193.423-9.503 131.12-9.71 92.565 28.589c-30.782 30.578-37.903 77.708-17.53 116.015H48.098a8 8 0 000 16v-.024H85.61a99.784 99.784 0 006.8 7.616l128.704 128.552c10.497 10.453 27.471 10.453 37.968 0l128.704-128.552a99.784 99.784 0 006.8-7.616h37.512a8 8 0 000-15.999zM247.77 285.445c-4.242 4.225-11.102 4.225-15.344 0L107.41 160.581h68.688a8 8 0 007.2-4.384l15.352-30.688 25.904 77.6a8 8 0 007.584 5.464h.24a8 8 0 007.488-5.928l23.568-88.256 8.888 40a8 8 0 0014.216 3.064l16.232-21.6 10.168 20.344a8 8 0 007.2 4.416h52.688L247.77 285.445zm138.784-140.84h-61.512l-13.744-27.544a8 8 0 00-13.6-1.224l-13.6 18.064-12.224-54.952a8 8 0 00-7.648-6.256 8.111 8.111 0 00-7.896 5.928l-25.12 94.096-23.568-70.592a8 8 0 00-14.744-1.048l-21.784 43.528H93.642c-17.924-26.5-18.839-60.995-2.344-88.408 23.473-39.07 74.175-51.713 113.244-28.24a82.491 82.491 0 0115.868 12.4l14.032 14.008a8 8 0 0011.312 0l14.032-14.008c32.144-32.246 84.342-32.329 116.588-.185 27.968 27.879 32.238 71.677 10.18 104.433zM154.61 351.437l-34.512-19.704v-35.312c.187-17.464-13.82-31.773-31.284-31.96a31.638 31.638 0 00-8.716 1.128v-33.096c0-17.673-14.327-32-32-32s-32 14.327-32 32v66.2c0 51.19 25.611 98.985 68.232 127.336l27.768 18.496v27.672a8 8 0 0016 0v-31.952a8 8 0 00-3.56-6.648L93.21 412.733a136.977 136.977 0 01-61.112-114.04v-66.2c0-8.837 7.163-16 16-16s16 7.163 16 16v43.008a31.666 31.666 0 00-8 20.92v32a8 8 0 0016 0v-32c0-8.837 7.163-16 16-16s16 7.163 16 16v39.952a7.998 7.998 0 004 6.936l38.544 22a58.311 58.311 0 0129.456 50.64v56.248a8 8 0 0016 0v-56.248a74.23 74.23 0 00-37.488-64.512zm277.488-150.904c-17.657 0-31.978 14.302-32 31.96v33.096c-16.841-4.627-34.245 5.275-38.872 22.116a31.6 31.6 0 00-1.128 8.716v35.312l-34.512 19.704a74.231 74.231 0 00-37.488 64.512v56.248a8 8 0 0016 0v-56.248a58.337 58.337 0 0129.424-50.64l38.544-22a7.998 7.998 0 004-6.936v-39.952c0-8.837 7.163-16 16-16s16 7.163 16 16v32a8 8 0 0016 0v-32a31.666 31.666 0 00-8-20.92v-43.008c0-8.837 7.163-16 16-16s16 7.163 16 16v66.2a137.032 137.032 0 01-61.112 114.04l-31.328 20.864a8 8 0 00-3.56 6.648v31.952a8 8 0 0016 0v-27.68l27.768-18.496a152.992 152.992 0 0068.264-127.328v-66.2c-.022-17.658-14.342-31.96-32-31.96z"/></svg>