<svg xmlns="http://www.w3.org/2000/svg" viewBox="0 0 512 512"><path d="M367.239 177.252a10.152 10.152 0 00-1.49-3.6 9.57 9.57 0 00-1.24-1.52c-.46-.46-.979-.88-1.52-1.24a10.128 10.128 0 00-3.6-1.49 9.898 9.898 0 00-3.91 0c-.64.131-1.27.32-1.87.57a9.991 9.991 0 00-3.25 2.16c-.46.46-.88.97-1.239 1.52a9.87 9.87 0 00-.92 1.73 9.84 9.84 0 00-.76 3.82c0 .659.061 1.31.19 1.96.128.63.319 1.26.569 1.87.25.6.56 1.18.92 1.72a9.51 9.51 0 001.239 1.52c.46.46.98.88 1.52 1.25a10.122 10.122 0 003.6 1.49c.65.13 1.301.19 1.96.19 2.63 0 5.21-1.07 7.07-2.931a10.056 10.056 0 002.93-7.069c0-.65-.069-1.311-.199-1.95z"/><path d="M467.011 400.918h-22.525V244.173l14.459 15.85a10 10 0 0012.56 1.819l32.784-19.814a10.002 10.002 0 002.124-15.396L316.64 24.11a9.999 9.999 0 00-14.594 0L112.273 226.63a10.001 10.001 0 002.125 15.396l32.783 19.814a9.97 9.97 0 005.168 1.441 9.988 9.988 0 007.392-3.261l14.459-15.85v37.314H10c-5.523 0-10 4.478-10 10v155.525c0 5.522 4.477 10 10 10h83.696c5.523 0 10-4.478 10-10v-14.078h32.689c4.99 0 9.114-3.659 9.866-8.437l33.39 43.479c11.098 14.451 28.602 23.079 46.823 23.079h240.549c24.807 0 44.988-20.182 44.988-44.988v-.159c-.001-24.806-20.183-44.987-44.99-44.987zM83.696 422.933v14.078H20V301.486h63.697v121.447zm42.689-10h-22.689V301.486h22.689v111.447zM150.5 240.477l-15.19-9.181L309.343 45.573l174.035 185.724-15.19 9.181L316.731 74.455a10 10 0 00-14.776 0L176.812 211.634 150.5 240.477zm158.844 29.708c-18.636 0-36.055 7.234-49.066 20.117-9.549-5.741-20.504-8.816-31.914-8.816H194.2v-59.238l30.146-33.045h98.209c5.522 0 10-4.477 10-10 0-5.522-4.478-10-10-10h-79.964l66.753-73.172 115.143 126.217v178.669h-45.233v-60.823c0-38.548-31.362-69.909-69.91-69.909zm29.92 95.992l-.133-.17c-.459-.59-.935-1.17-1.427-1.739-.12-.139-.238-.279-.36-.417a43.337 43.337 0 00-1.739-1.857l-59.812-58.855c9.112-8.317 20.943-12.955 33.55-12.955 27.521 0 49.91 22.39 49.91 49.91v60.823h-12.431a41.97 41.97 0 001.061-9.362c0-9.286-3.022-18.102-8.619-25.378zm127.748 104.877h-240.55c-12.048 0-23.622-5.705-30.961-15.261l-49.118-63.959v-90.349h81.979c9.941 0 19.371 3.443 26.921 9.747.034.029.063.061.097.09a43.313 43.313 0 012.501 2.252l63.638 62.62c.077.077.142.161.217.239.407.419.803.846 1.171 1.291.265.321.503.657.747.99.153.208.316.409.462.621.287.423.548.858.803 1.297.076.13.159.256.232.387.267.482.508.974.736 1.472.043.095.091.187.134.282.226.512.426 1.033.611 1.559.032.091.066.18.097.271a21.823 21.823 0 01.545 1.912c.121.509.222 1.022.306 1.537.025.152.046.306.068.458.069.485.123.972.159 1.46.014.198.02.397.029.596.021.462.037.926.029 1.389-.004.199-.02.396-.029.594-.021.479-.044.957-.097 1.434-.006.056-.018.111-.025.167a21.61 21.61 0 01-1.352 5.378c-.014.036-.025.074-.04.11-.185.462-.401.913-.619 1.364-.081.168-.154.339-.24.505-.203.394-.433.777-.662 1.161-.126.21-.245.423-.379.63a21.92 21.92 0 01-.738 1.053c-.174.238-.344.478-.528.71-.144.181-.29.357-.438.532-.394.464-.797.922-1.232 1.357l-.067.068c-8.472 8.471-22.253 8.47-30.723 0l-41.6-41.601c-3.906-3.903-10.237-3.903-14.142 0a10.008 10.008 0 00-1.785 2.421c-1.983 3.774-1.389 8.549 1.784 11.722l41.6 41.601c.508.508 1.026 1 1.554 1.477.277.25.564.484.846.726.255.218.505.444.764.655.356.29.721.563 1.085.84.193.147.382.303.577.447.425.312.859.606 1.292.9.14.095.277.198.418.291.406.267.82.517 1.233.77.175.107.346.222.523.326.413.244.834.47 1.254.698.182.099.36.206.543.302.576.302 1.158.588 1.744.861l.088.044c15.436 7.152 34.382 4.367 47.12-8.371l.068-.068.14-.141H467.01c13.778 0 24.988 11.21 24.988 24.989v.16H492c0 13.777-11.21 24.987-24.988 24.987z"/><path d="M222.659 338.981a9.462 9.462 0 00-1.52-1.24 10.096 10.096 0 00-3.6-1.49c-3.24-.66-6.7.41-9.02 2.729a10.076 10.076 0 00-2.93 7.07c0 .65.07 1.31.2 1.96.12.63.32 1.26.57 1.87.25.6.56 1.18.92 1.72.36.55.78 1.061 1.24 1.521a10.033 10.033 0 009.02 2.74 10.096 10.096 0 003.6-1.489c.55-.37 1.06-.79 1.52-1.25.46-.46.88-.971 1.24-1.521.37-.54.67-1.12.92-1.72.25-.61.45-1.24.58-1.87.12-.65.19-1.31.19-1.96 0-2.63-1.07-5.21-2.93-7.07z"/></svg>