<svg xmlns="http://www.w3.org/2000/svg" viewBox="0 0 512 512"><path d="M256 352c-52.928 0-96-43.072-96-96s43.072-96 96-96V64.032c-11.68 0-23.328 1.088-34.88 3.264L191.424 16c-4.416-7.68-14.208-10.272-21.824-5.856l-83.2 48c-3.68 2.112-6.368 5.632-7.456 9.728s-.512 8.448 1.6 12.128l29.632 51.264C94.816 149.088 82.848 169.76 75.008 192H16c-8.832 0-16 7.168-16 16v96c0 8.864 7.168 16 16 16h59.008c7.84 22.272 19.808 42.944 35.168 60.736L80.544 432a16.044 16.044 0 00-1.6 12.128 15.866 15.866 0 007.456 9.728l83.2 48c7.616 4.448 17.408 1.824 21.856-5.856l29.664-51.296A185.282 185.282 0 00256 448v-96z" fill="#455a64"/><circle cx="256" cy="256" r="96" fill="#fafafa"/><path d="M256 8v496c136.96 0 248-111.04 248-248S392.96 8 256 8z" fill="#64b5f6"/><path d="M256 0c-6.08 0-11.808.352-17.888 1.056C230.08 2.016 224 8.832 224 16.96v478.08c0 8.096 6.048 14.912 14.08 15.872A146.38 146.38 0 00256 512c141.152 0 256-114.848 256-256S397.152 0 256 0zm0 474.112V352c26.24 0 52 2.656 77.44 6.656-16.096 43.712-42.464 83.232-77.44 115.456zM256 320V192c29.504 0 58.4-3.04 86.944-7.808C348.704 207.456 352 231.488 352 256s-3.296 48.544-9.088 71.808C314.4 323.072 285.472 320 256 320zm0-282.112c34.976 32.224 61.344 71.744 77.44 115.456C308 157.344 282.272 160 256 160V37.888zm118.432 140.32c27.296-6.304 53.984-14.944 80.032-25.664C470.688 183.552 480 218.688 480 256s-9.312 72.448-25.504 103.424c-26.08-10.72-52.736-19.328-80.064-25.632C380.576 308.576 384 282.528 384 256s-3.424-52.576-9.568-77.792zm62.848-53.28c-23.392 9.312-47.264 17.024-71.712 22.56-14.272-40.928-36.8-78.624-66.112-111.2 56.448 11.168 105.184 43.68 137.824 88.64zM299.456 475.68c29.312-32.576 51.84-70.272 66.112-111.2 24.448 5.536 48.32 13.248 71.712 22.56-32.64 44.992-81.376 77.504-137.824 88.64z" fill="#2196f3"/></svg>