<svg xmlns="http://www.w3.org/2000/svg" viewBox="0 0 512 512"><path d="M271 181v180c0 8.401-6.599 15-15 15s-15-6.599-15-15V181c0-8.401 6.599-15 15-15s15 6.599 15 15z" fill="#0d70b2"/><path d="M271 181v180c0 8.401-6.599 15-15 15V166c8.401 0 15 6.599 15 15z" fill="#095c92"/><path d="M226 91c-8.291 0-15-6.709-15-15V15c0-8.291 6.709-15 15-15s15 6.709 15 15v61c0 8.291-6.709 15-15 15z" fill="#c5c9f7"/><path d="M286 91c-8.291 0-15-6.709-15-15V15c0-8.291 6.709-15 15-15s15 6.709 15 15v61c0 8.291-6.709 15-15 15z" fill="#a8aff1"/><path d="M316 61H196c-8.401 0-15 6.599-15 15v45c0 41.4 33.6 75 75 75s75-33.6 75-75V76c0-8.401-6.599-15-15-15z" fill="#18a7fc"/><path d="M331 76v45c0 41.4-33.6 75-75 75V61h60c8.401 0 15 6.599 15 15z" fill="#1689fc"/><path d="M439.647 249.789c-5.859-5.859-5.859-15.352 0-21.211l42.422-42.437c5.859-5.859 15.352-5.859 21.211 0s5.859 15.352 0 21.211l-42.422 42.437c-5.859 5.86-15.351 5.86-21.211 0zm-42.436-42.436c-5.859-5.859-5.859-15.352 0-21.211l42.437-42.422c5.859-5.859 15.352-5.859 21.211 0s5.859 15.352 0 21.211l-42.437 42.422c-5.86 5.859-15.352 5.859-21.211 0z" fill="#a8aff1"/><path d="M293.031 368.969a14.948 14.948 0 01-10.605-4.395c-5.859-5.859-5.859-15.352 0-21.211l66.152-66.152c5.859-5.859 15.352-5.859 21.211 0s5.859 15.352 0 21.211l-66.152 66.152a14.952 14.952 0 01-10.606 4.395z" fill="#095c92"/><path d="M348.578 298.422c-29.373-29.373-29.268-76.817 0-106.055L376 164.931c5.61-5.61 15.571-5.64 21.211 0l84.858 84.858c5.832 5.832 5.88 15.331 0 21.211l-27.437 27.422c-29.237 29.268-76.681 29.372-106.054 0z" fill="#1689fc"/><path d="M93.578 207.353l-42.437-42.422c-5.859-5.859-5.859-15.352 0-21.211s15.352-5.859 21.211 0l42.437 42.422c5.859 5.859 5.859 15.352 0 21.211-5.859 5.859-15.351 5.859-21.211 0zm-42.436 42.436L8.72 207.353c-5.859-5.859-5.859-15.352 0-21.211s15.352-5.859 21.211 0l42.422 42.437c5.859 5.859 5.859 15.352 0 21.211-5.86 5.859-15.352 5.859-21.211-.001z" fill="#c5c9f7"/><path d="M208.363 364.574l-66.152-66.152c-5.859-5.859-5.859-15.352 0-21.211s15.352-5.859 21.211 0l66.152 66.152c5.859 5.859 5.859 15.352 0 21.211-5.859 5.86-15.351 5.86-21.211 0z" fill="#0d70b2"/><path d="M57.367 298.422L29.931 271a14.988 14.988 0 01-4.395-10.605 15.01 15.01 0 014.395-10.605l84.858-84.858a14.988 14.988 0 0110.605-4.395c3.984 0 7.793 1.582 10.605 4.395l27.422 27.437c29.268 29.238 29.373 76.682 0 106.055-29.372 29.37-76.816 29.266-106.054-.002z" fill="#18a7fc"/><path d="M361 391h-10.201c-17.098-36.301-54-60-94.799-60s-77.701 23.699-94.799 60H151c-32.999 0-60 27.001-60 60s27.001 61 60 61h210c32.999 0 60-28.001 60-61s-27.001-60-60-60z" fill="#fea832"/><path d="M421 451c0 32.999-27.001 61-60 61H256V331c40.8 0 77.701 23.699 94.799 60H361c32.999 0 60 27.001 60 60z" fill="#fe9923"/></svg>