<svg xmlns="http://www.w3.org/2000/svg" viewBox="0 0 409.6 409.6"><path d="M304.247 107.485c0 54.923-44.524 122.83-99.447 122.83s-99.447-67.907-99.447-122.83S149.877 8.037 204.8 8.037s99.447 44.524 99.447 99.448z" fill="#2d93ba"/><path d="M204.8 230.315c54.923 0 99.447-67.907 99.447-122.83S259.723 8.037 204.8 8.037v222.278z" fill="#1c75a1"/><path d="M408.808 357.985c-14.683-69.08-63.636-125.38-128.156-150.607-18.242 21.52-45.431 35.215-75.851 35.215-30.421 0-57.612-13.696-75.854-35.215C64.427 232.605 15.475 288.905.792 357.985c-4.774 22.457 12.659 43.577 35.616 43.577h336.783c22.959.001 40.391-21.12 35.617-43.577z" fill="#2d93ba"/><path d="M204.801 401.563h168.39c22.959 0 40.391-21.12 35.617-43.577-14.683-69.08-63.636-125.38-128.156-150.607-18.242 21.52-45.431 35.215-75.851 35.215v158.969z" fill="#1c75a1"/><path d="M303.987 100.261h18.847c6.256 0 11.328 5.072 11.328 11.328v49.454c0 8.375-6.79 15.165-15.165 15.165H212.832v-19.676h101.654v-36.594l-10.968.005" fill="#fcd462"/><g fill="#f6c358"><path d="M221.61 194.127h-16.85a9.144 9.144 0 01-9.144-9.143v-38.161a9.144 9.144 0 019.144-9.144h16.85a9.143 9.143 0 019.143 9.144v38.161c.001 5.049-4.093 9.143-9.143 9.143z"/><circle cx="204.8" cy="292.813" r="11.684"/><circle cx="204.8" cy="331.469" r="11.684"/><circle cx="204.8" cy="368.353" r="11.684"/></g></svg>