<svg xmlns="http://www.w3.org/2000/svg" viewBox="0 0 469.333 469.333"><path d="M448 320v-10.667c0-20.266-8.178-38.622-21.333-52.09V106.667C426.667 83.135 407.521 64 384 64a10.66 10.66 0 00-10.667-10.667h-42.667A10.66 10.66 0 00320 64h-21.333V42.667C298.667 19.135 279.521 0 256 0h-85.333C147.146 0 128 19.135 128 42.667V64h-21.333A10.66 10.66 0 0096 53.333H53.333A10.66 10.66 0 0042.666 64C19.146 64 0 83.135 0 106.667V320c0 23.531 19.146 42.667 42.667 42.667h234.667V448c0 11.76 9.563 21.333 21.333 21.333H448c11.771 0 21.333-9.573 21.333-21.333V341.333c0-11.76-9.562-21.333-21.333-21.333zm-341.333 21.333h-64c-11.771 0-21.333-9.573-21.333-21.333V106.667c0-11.76 9.563-21.333 21.333-21.333h64v255.999zM320 85.333h64c11.771 0 21.333 9.573 21.333 21.333v135.49c-9.737-4.661-20.505-7.49-32-7.49-20.901 0-39.766 8.688-53.333 22.577V85.333zm0 224C320 279.927 343.917 256 373.333 256s53.333 23.927 53.333 53.333V320H320v-10.667zM149.333 42.667c0-11.76 9.563-21.333 21.333-21.333H256c11.771 0 21.333 9.573 21.333 21.333V64h-128V42.667zm128 298.666H128v-256h170.667V320c-11.771 0-21.334 9.573-21.334 21.333zM448 448H298.667V341.333H448V448z"/><path d="M362.667 402.056V416c0 5.896 4.771 10.667 10.667 10.667S384 421.896 384 416v-13.944c6.259-3.724 10.667-10.262 10.667-18.056 0-11.76-9.563-21.333-21.333-21.333S352 372.24 352 384c0 7.794 4.408 14.332 10.667 18.056z"/></svg>