<svg viewBox="0 0 480 480" xmlns="http://www.w3.org/2000/svg"><path d="M472 240H352V80c0-.16-.072-.304-.088-.464a7.95 7.95 0 00-.336-1.832c-.08-.256-.128-.512-.232-.76-.336-.808-.768-1.576-1.368-2.256l-64-72c-.688-.768-1.52-1.328-2.408-1.768-.256-.128-.512-.216-.784-.32a7.797 7.797 0 00-2.296-.488C280.32.096 280.168 0 280 0H40C17.944 0 0 17.944 0 40v344c0 22.056 17.944 40 40 40h271.216c16.088 21.96 36.592 40.816 60.752 54.904A8 8 0 00376 480a8 8 0 004.032-1.096C441.696 442.936 480 376.24 480 304.856V248c0-4.424-3.584-8-8-8zM288 29.04l17.416 19.592L326.184 72H288zM40 408c-13.232 0-24-10.768-24-24V40c0-13.232 10.768-24 24-24h232v64c0 4.424 3.584 8 8 8h56v152h-56c-4.416 0-8 3.576-8 8v56.856c0 4.472.152 8.928.448 13.352 1.696 25.744 8.376 50.672 19.544 73.808.336.688.64 1.392.976 2.08 1.344 2.704 2.792 5.352 4.264 8 .752 1.36 1.472 2.736 2.256 4.072.352.608.648 1.232 1.008 1.832zm424-103.144c0 64.152-33.6 124.176-88 157.816-22.448-13.88-41.28-32.296-55.744-53.6a187.333 187.333 0 01-4.664-7.208 190.24 190.24 0 01-2.768-4.616c-1.216-2.104-2.344-4.24-3.472-6.384-.968-1.84-1.96-3.664-2.864-5.536-.784-1.616-1.464-3.264-2.2-4.904a189.503 189.503 0 01-5.752-14.376c-.392-1.112-.832-2.216-1.2-3.336-.832-2.536-1.56-5.104-2.288-7.68-.448-1.6-.912-3.192-1.32-4.8a166.886 166.886 0 01-1.648-7.184 206.147 206.147 0 01-1.144-5.88c-.384-2.16-.752-4.328-1.064-6.504-.352-2.504-.624-5.016-.872-7.544-.176-1.728-.384-3.456-.512-5.192-.296-4.32-.488-8.68-.488-13.072V256h176z" fill="#44aaac"/><path d="M426.344 314.344L368 372.688l-26.344-26.344-11.312 11.312 32 32c1.56 1.56 3.608 2.344 5.656 2.344s4.096-.784 5.656-2.344l64-64zM48 112h256v16H48zm0 40h256v16H48zm0 40h256v16H48zm0 40h192v16H48zm0 40h192v16H48zm0 40h192v16H48zm0 40h192v16H48zm256-80h16v16h-16zm32 0h16v16h-16zm32 0h16v16h-16zm32 0h16v16h-16zm32 0h16v16h-16z"/></svg>