<svg viewBox="0 0 470 470" xmlns="http://www.w3.org/2000/svg"><path d="M469.19 46.536a7.497 7.497 0 00-7.832-4.021l-40.045 6.173 6.173-40.045a7.5 7.5 0 00-12.716-6.446l-46.484 46.484a7.498 7.498 0 00-2.108 4.161l-7.358 47.733-26.609 26.609c-36.654-34.03-84.102-52.694-134.454-52.694-52.864 0-102.536 20.559-139.866 57.889C20.559 169.71 0 219.382 0 272.246s20.559 102.535 57.889 139.866C95.22 449.442 144.892 470 197.755 470s102.536-20.559 139.866-57.889c37.33-37.331 57.889-87.003 57.889-139.866 0-42.051-12.996-82.189-37.583-116.076a7.498 7.498 0 00-10.475-1.666 7.5 7.5 0 00-1.666 10.475c22.717 31.31 34.724 68.402 34.724 107.268C380.51 373.017 298.526 455 197.755 455S15 373.017 15 272.246 96.984 89.491 197.755 89.491c46.345 0 90.026 17.105 123.84 48.308l-34.284 34.284c-24.653-22.076-56.23-34.173-89.557-34.173-74.074 0-134.337 60.264-134.337 134.337s60.263 134.337 134.337 134.337S332.09 346.32 332.09 272.247c0-24.723-6.76-48.882-19.548-69.866a7.501 7.501 0 00-12.809 7.807c11.354 18.632 17.356 40.092 17.356 62.06 0 65.803-53.534 119.337-119.336 119.337-65.803 0-119.337-53.534-119.337-119.337s53.534-119.337 119.337-119.337c29.327 0 57.131 10.538 78.937 29.793l-34.365 34.365c-12.575-10.193-28.141-15.74-44.572-15.74-39.104 0-70.918 31.814-70.918 70.919s31.814 70.918 70.918 70.918c39.105 0 70.918-31.813 70.918-70.918a71.094 71.094 0 00-2.995-20.468 7.497 7.497 0 00-9.341-5.024 7.498 7.498 0 00-5.024 9.341 56.1 56.1 0 012.36 16.151c0 30.833-25.085 55.918-55.918 55.918s-55.918-25.085-55.918-55.918c0-30.834 25.085-55.919 55.918-55.919 12.416 0 24.2 4.021 33.886 11.426l-39.19 39.19a7.5 7.5 0 0010.606 10.607l134.539-134.539 31.828-31.828 47.733-7.359a7.498 7.498 0 004.161-2.108L467.8 55.234a7.503 7.503 0 001.39-8.698zm-88.563 11.017l28.542-28.541-3.866 25.079-28.542 28.542zm31.82 31.821l-25.078 3.866 28.542-28.542 25.077-3.866z"/></svg>