<svg viewBox="0 0 480 480" xmlns="http://www.w3.org/2000/svg"><path d="M328 96h16v16h-16zm0 32h16v16h-16zm-32 0h16v16h-16z"/><path d="M472 432h-24V296c0-13.232-10.768-24-24-24h-80v-40c0-13.232-10.768-24-24-24h-56c-4.408 0-8-3.584-8-8v-24h80c30.88 0 56-25.128 56-56s-25.12-56-56-56h-.44C331.568 28.048 301 0 264 0c-25.04 0-47.752 12.728-60.88 33.656A38.177 38.177 0 00192 32c-19.56 0-35.888 14.12-39.336 32.688A55.094 55.094 0 00144 64c-30.88 0-56 25.128-56 56s25.12 56 56 56h56v64c0 4.416-3.592 8-8 8h-32c0-13.232-10.768-24-24-24H24c-13.232 0-24 10.768-24 24v208c0 13.232 10.768 24 24 24h112c13.232 0 24-10.768 24-24V264h32c13.232 0 24-10.768 24-24v-64h24v24c0 13.232 10.768 24 24 24h56c4.408 0 8 3.584 8 8v40h-96c-13.232 0-24 10.768-24 24v136h-24c-4.416 0-8 3.576-8 8 0 22.056 17.944 40 40 40h224c22.056 0 40-17.944 40-40 0-4.424-3.584-8-8-8zm-328 24c0 4.416-3.592 8-8 8H24c-4.408 0-8-3.584-8-8v-16h128zm0-32H16V280h128zm0-160H16v-16c0-4.416 3.592-8 8-8h112c4.408 0 8 3.584 8 8zm0-104c-22.056 0-40-17.944-40-40s17.944-40 40-40c4.568 0 9.136.816 13.568 2.424a7.992 7.992 0 007.616-1.192 7.99 7.99 0 003.072-7.072l-.168-1.368c-.032-.272-.08-.536-.088-.792 0-13.232 10.768-24 24-24 3.68 0 7.376.944 10.976 2.816a8.005 8.005 0 0010.848-3.56C223.36 27.976 242.584 16 264 16c30.88 0 56 25.128 56 55.784-.016.192-.04.752-.04.944 0 2.36 1.04 4.592 2.84 6.112a7.955 7.955 0 006.504 1.776C331.728 80.2 333.92 80 336 80c22.056 0 40 17.944 40 40s-17.944 40-40 40zm80 136c0-4.416 3.592-8 8-8h192c4.408 0 8 3.584 8 8v136H224zm216 168H216c-10.432 0-19.328-6.688-22.632-16h269.264c-3.304 9.312-12.2 16-22.632 16z" fill="#44aaac"/><path d="M120 296H40c-4.416 0-8 3.576-8 8v32c0 4.424 3.584 8 8 8h80c4.416 0 8-3.576 8-8v-32c0-4.424-3.584-8-8-8zm-8 32H48v-16h64zm216-24h-80c-4.416 0-8 3.576-8 8v96c0 4.424 3.584 8 8 8h80c4.416 0 8-3.576 8-8v-96c0-4.424-3.584-8-8-8zm-8 96h-64v-80h64zM32 360h96v16H32zm320-56h64v16h-64zm0 32h64v16h-64zm0 32h64v16h-64zm0 32h64v16h-64zm-320-8h96v16H32z"/></svg>