<svg viewBox="0 0 480 480" xmlns="http://www.w3.org/2000/svg"><path d="M408 112c0-13.232-10.768-24-24-24H96c-13.232 0-24 10.768-24 24v64c0 6.168 2.408 11.744 6.24 16-3.84 4.256-6.24 9.832-6.24 16v64c0 6.168 2.408 11.744 6.24 16-3.84 4.256-6.24 9.832-6.24 16v64c0 13.232 10.768 24 24 24h288c13.232 0 24-10.768 24-24v-64c0-6.168-2.408-11.744-6.24-16 3.84-4.256 6.24-9.832 6.24-16v-64c0-6.168-2.408-11.744-6.24-16 3.84-4.256 6.24-9.832 6.24-16zm-16 256c0 4.408-3.584 8-8 8H96c-4.416 0-8-3.592-8-8v-64c0-4.408 3.584-8 8-8h288c4.416 0 8 3.592 8 8zm0-96c0 4.408-3.584 8-8 8H96c-4.416 0-8-3.592-8-8v-64c0-4.408 3.584-8 8-8h288c4.416 0 8 3.592 8 8zm0-96c0 4.408-3.584 8-8 8H96c-4.416 0-8-3.592-8-8v-64c0-4.408 3.584-8 8-8h288c4.416 0 8 3.592 8 8z" fill="#44aaac"/><path d="M104 152h16v16h-16zm32 0h16v16h-16zm-32-32h16v16h-16zm32 0h16v16h-16zm32 32h16v16h-16zm0-32h16v16h-16zm32 32h16v16h-16zm0-32h16v16h-16zm32 32h16v16h-16zm0-32h16v16h-16zm136 0h-72c-4.424 0-8 3.584-8 8v32c0 4.416 3.576 8 8 8h72c4.424 0 8-3.584 8-8v-32c0-4.416-3.576-8-8-8zm-8 32h-56v-16h56zm-256 96h16v16h-16zm32 0h16v16h-16zm-32-32h16v16h-16zm32 0h16v16h-16zm32 32h16v16h-16zm0-32h16v16h-16zm32 32h16v16h-16zm0-32h16v16h-16zm32 32h16v16h-16zm0-32h16v16h-16zm136 0h-72c-4.424 0-8 3.584-8 8v32c0 4.416 3.576 8 8 8h72c4.424 0 8-3.584 8-8v-32c0-4.416-3.576-8-8-8zm-8 32h-56v-16h56zm-256 96h16v16h-16zm32 0h16v16h-16zm-32-32h16v16h-16zm32 0h16v16h-16zm32 32h16v16h-16zm0-32h16v16h-16zm32 32h16v16h-16zm0-32h16v16h-16zm32 32h16v16h-16zm0-32h16v16h-16zm136 0h-72c-4.424 0-8 3.584-8 8v32c0 4.416 3.576 8 8 8h72c4.424 0 8-3.584 8-8v-32c0-4.416-3.576-8-8-8zm-8 32h-56v-16h56zm119.84-112.728l-15.984.576c.096 2.712.144 5.424.144 8.152 0 2.776-.056 5.536-.152 8.288l15.984.568c.112-2.936.168-5.888.168-8.856 0-2.92-.048-5.832-.16-8.728zm-26.544-101.328l-14.208 7.36a224.016 224.016 0 017 14.848l14.72-6.288a244.388 244.388 0 00-7.512-15.92zm-7.248 197.992a225.322 225.322 0 01-7.016 14.848l14.208 7.36a241.234 241.234 0 007.512-15.904zm16.6-63.28a221.699 221.699 0 01-2.384 16.232L476 283.792a239.966 239.966 0 002.552-17.4zm-5.952 32.256a223.012 223.012 0 01-4.752 15.704l15.128 5.2c1.888-5.48 3.6-11.152 5.096-16.84zm10.416-134.624l-15.144 5.184a223.079 223.079 0 014.744 15.72l15.488-4.056a242.861 242.861 0 00-5.088-16.848zm8.912 34.024l-15.736 2.904a221.91 221.91 0 012.384 16.24l15.904-1.72a241.259 241.259 0 00-2.552-17.424zM23.288 296.808L7.8 300.864a242.861 242.861 0 005.088 16.848l15.144-5.184a223.079 223.079 0 01-4.744-15.72zM4 196.2a240.83 240.83 0 00-2.552 17.408l15.904 1.736a221.699 221.699 0 012.384-16.232zm8.928-34.016a238.525 238.525 0 00-5.096 16.848l15.472 4.064c1.4-5.312 2.992-10.6 4.752-15.712zm3.224 69.528l-15.984-.568A232.305 232.305 0 000 240c0 2.92.048 5.832.16 8.728l15.984-.576A230.195 230.195 0 0116 240c0-2.776.056-5.536.152-8.288zm17.76 96.136l-14.72 6.288a244.388 244.388 0 007.512 15.92l14.208-7.36a224.016 224.016 0 01-7-14.848zM26.76 129.856a241.234 241.234 0 00-7.512 15.904l14.704 6.304a225.322 225.322 0 017.016-14.848zm-9.432 134.688l-15.904 1.728a237.306 237.306 0 002.552 17.416l15.736-2.904a221.91 221.91 0 01-2.384-16.24zM384 16v32.144C342.576 17.032 292.04 0 240 0 182.712 0 127.208 20.576 83.728 57.936l10.424 12.136C134.736 35.2 186.528 16 240 16c45.712 0 90.144 14.144 127.456 40H344v16h48c4.424 0 8-3.584 8-8V16zm1.848 393.928C345.264 444.8 293.472 464 240 464c-45.712 0-90.144-14.144-127.456-40H136v-16H88c-4.424 0-8 3.584-8 8v48h16v-32.144C137.424 462.968 187.96 480 240 480c57.288 0 112.792-20.576 156.272-57.936z"/></svg>