<svg viewBox="0 0 512 512" xmlns="http://www.w3.org/2000/svg"><path d="M482.145 2.182H29.855C13.392 2.182 0 15.575 0 32.037v154.178c0 4.193 3.397 7.59 7.59 7.59s7.59-3.397 7.59-7.59v-18.278h481.639v312.025c0 8.091-6.583 14.675-14.675 14.675H29.855c-8.091 0-14.675-6.583-14.675-14.675V223.999c0-4.193-3.397-7.59-7.59-7.59S0 219.806 0 223.999v255.964c0 16.463 13.392 29.855 29.855 29.855h452.29c16.463 0 29.855-13.392 29.855-29.855V32.037c0-16.462-13.392-29.855-29.855-29.855zm14.674 150.574H15.731v-49.464h481.088zm0-64.645H15.181V32.037c0-8.091 6.583-14.674 14.675-14.674h452.29c8.091 0 14.675 6.583 14.675 14.674v56.074z" fill="#44aaac"/><path d="M454.223 29.967c-12.439 0-22.559 10.12-22.559 22.559s10.12 22.559 22.559 22.559 22.559-10.12 22.559-22.559-10.12-22.559-22.559-22.559zm0 29.939c-4.068 0-7.379-3.31-7.379-7.379 0-4.068 3.31-7.379 7.379-7.379s7.379 3.31 7.379 7.379c0 4.068-3.311 7.379-7.379 7.379zm-61.132-29.939c-12.439 0-22.559 10.12-22.559 22.559s10.12 22.559 22.559 22.559 22.559-10.12 22.559-22.559-10.12-22.559-22.559-22.559zm0 29.939c-4.068 0-7.379-3.31-7.379-7.379 0-4.068 3.31-7.379 7.379-7.379s7.379 3.31 7.379 7.379c-.001 4.068-3.311 7.379-7.379 7.379zm-61.134-29.939c-12.439 0-22.559 10.12-22.559 22.559s10.12 22.559 22.559 22.559 22.559-10.12 22.559-22.559-10.12-22.559-22.559-22.559zm.001 29.939c-4.068 0-7.379-3.31-7.379-7.379 0-4.068 3.309-7.379 7.379-7.379s7.379 3.31 7.379 7.379c-.001 4.068-3.311 7.379-7.379 7.379zm-73.353-29.939H65.708c-12.439 0-22.559 10.12-22.559 22.559s10.12 22.559 22.559 22.559h192.897c12.439 0 22.559-10.12 22.559-22.559s-10.12-22.559-22.559-22.559zm0 29.939H65.708c-4.069 0-7.379-3.31-7.379-7.379 0-4.068 3.309-7.379 7.379-7.379h192.897c4.069 0 7.379 3.31 7.379 7.379 0 4.068-3.311 7.379-7.379 7.379zM188.84 264.987c-5.336 0-9.305 4.241-9.305 9.305 0 4.929 3.968 9.307 9.305 9.307 4.928 0 9.171-4.378 9.171-9.307 0-5.064-4.243-9.305-9.171-9.305zm62.405-.548c-3.421 0-5.473 4.106-13.685 4.106-9.444 0-13.413-4.653-13.413-12.592v-10.949c.001-7.936 3.969-12.59 13.276-12.59 8.074 0 10.537 3.831 13.549 3.831 4.241 0 6.979-5.336 6.979-8.622 0-5.337-9.031-10.674-21.896-10.674-20.666 0-29.562 12.317-29.562 28.055v10.949c0 16.012 9.031 28.057 29.697 28.057 12.865 0 22.583-5.748 22.583-11.224.001-3.42-2.737-8.347-7.528-8.347zm43.515-47.49c-16.288 0-29.697 13.002-29.697 27.782v11.221c0 14.78 13.685 28.057 29.697 28.057 15.875 0 29.697-13.413 29.697-28.057v-11.221c.001-15.192-13.821-27.782-29.697-27.782zm12.043 39.004c0 6.434-5.474 12.592-12.042 12.592-6.706 0-12.044-6.158-12.044-12.592v-11.221c0-6.158 5.339-12.318 12.044-12.318 6.568 0 12.042 6.158 12.042 12.318zm101.268-39.004c-7.936 0-15.875 4.378-20.666 13.685-2.873-8.074-9.307-13.685-17.105-13.685-9.033 0-15.055 5.063-18.066 10.402v-4.106c-.001-3.284-3.561-5.474-7.802-5.474-5.201 0-8.759 2.19-8.759 5.475v53.921c0 2.738 3.558 5.611 8.759 5.611 4.789 0 8.895-2.873 8.895-5.611v-32.435c0-8.074 5.339-12.318 10.676-12.318 5.748 0 11.222 4.653 11.222 12.318v32.572c0 3.832 4.653 5.474 8.759 5.474 4.378 0 8.896-1.643 8.896-5.474v-32.71c0-7.936 5.336-12.318 10.812-12.318 5.473 0 11.085 4.243 11.085 12.454v32.435c0 2.738 4.106 5.611 8.759 5.611 4.791 0 8.897-2.873 8.897-5.611V244.73c0-17.792-11.907-27.781-24.362-27.781zM188.84 419.083c-5.336 0-9.305 4.241-9.305 9.305 0 4.929 3.968 9.307 9.305 9.307 4.928 0 9.171-4.378 9.171-9.307 0-5.064-4.243-9.305-9.171-9.305zm54.742-48.038c-9.169 0-15.738 5.063-18.338 10.402v-4.106c0-3.285-3.56-5.475-7.801-5.475-5.201 0-8.759 2.19-8.759 5.475v53.921c0 2.738 3.558 5.611 8.759 5.611 4.789 0 8.895-2.873 8.895-5.611v-32.435c0-7.664 5.613-12.318 11.224-12.318 6.569 0 11.907 6.158 11.907 12.318v32.435c0 3.696 4.653 5.611 8.759 5.611 4.378 0 8.895-1.916 8.895-5.611v-32.435c-.002-15.191-10.949-27.782-23.541-27.782zm84.707 47.901c-4.106 0-7.8 5.201-16.833 5.201-9.579 0-16.012-5.201-16.012-13.139v-2.052h27.782c6.158 0 12.729-.547 12.729-12.18 0-15.193-13.139-25.73-28.194-25.73-16.696 0-29.972 12.59-29.972 27.372v11.632c0 16.833 13.687 28.057 33.12 28.057 14.644 0 24.086-6.706 24.086-11.359 0-2.739-2.599-7.802-6.706-7.802zm-32.846-24.223c0-6.569 5.748-10.675 11.907-10.675 6.568 0 12.044 4.379 12.044 10.812 0 3.011-1.095 3.694-3.97 3.694h-19.981zm81.56 27.233h-5.336c-5.748 0-7.664-1.916-7.664-7.253V384.73h16.149v.001c2.875 0 4.518-3.148 4.518-6.432 0-3.147-1.643-6.433-4.518-6.433h-16.148v-23.539c0-3.285-4.38-5.475-8.897-5.475-4.106 0-8.759 2.19-8.759 5.475v66.375c0 15.465 8.896 22.171 25.319 22.171h5.336c5.065 0 7.529-3.696 7.529-7.527 0-3.695-2.463-7.39-7.529-7.39zM133.629 207.911H64.903a7.589 7.589 0 00-7.59 7.59v68.726a7.59 7.59 0 007.59 7.59h68.726a7.589 7.589 0 007.59-7.59v-68.726a7.588 7.588 0 00-7.59-7.59zm-7.59 68.726H72.493v-53.546h53.546zm7.59 83.08H64.903a7.589 7.589 0 00-7.59 7.59v68.726a7.589 7.589 0 007.59 7.59h68.726a7.589 7.589 0 007.59-7.59v-68.726a7.588 7.588 0 00-7.59-7.59zm-7.59 68.726H72.493v-53.546h53.546z"/></svg>