<svg viewBox="0 0 470 470" xmlns="http://www.w3.org/2000/svg"><path d="M470 310.715V159.176a7.5 7.5 0 00-5.366-7.19l-70.113-20.802c5.427-13.275 8.81-26.451 8.81-38.684 0-51.004-41.495-92.5-92.5-92.5s-92.5 41.495-92.5 92.5c0 12.233 3.383 25.409 8.81 38.684l-67.979 20.169L9.633 106.985A7.5 7.5 0 000 114.176V417.5a7.5 7.5 0 005.367 7.19l151.549 44.967.113.033c.024.007.049.009.073.016.279.08.565.141.857.188a7.547 7.547 0 001.191.105c.348 0 .667-.028.982-.069.078-.01.155-.023.233-.036.292-.047.579-.109.859-.188.024-.007.049-.009.073-.016l.069-.021 146.427-43.445a7.464 7.464 0 006.078 0l146.496 43.465a7.496 7.496 0 006.62-1.18 7.503 7.503 0 003.014-6.01V310.775l-.001-.06zm-15-145.941V300.79l-136.669-40.55v-21.332c9.78-10.071 48.188-50.995 69.876-93.951zM310.831 15c42.733 0 77.5 34.766 77.5 77.5 0 12.181-4.075 25.748-10.412 39.485a7.491 7.491 0 00-.765 1.633c-18.072 38.149-53.029 77.25-66.325 91.396-13.288-14.131-48.213-53.178-66.292-91.314a7.5 7.5 0 00-.833-1.78c-6.314-13.712-10.373-27.254-10.373-39.421 0-42.733 34.767-77.499 77.5-77.499zm-7.5 223.907v21.332l-136.669 40.55V164.774l66.793-19.817c21.689 42.956 60.096 83.88 69.876 93.95zM15 275.886l51.818 15.375c.712.211 1.43.312 2.136.312a7.502 7.502 0 002.13-14.692L15 260.24V124.224l136.662 40.55V300.79l-51.817-15.375a7.498 7.498 0 00-9.323 5.057 7.498 7.498 0 005.057 9.323l56.084 16.641v136.016L15 411.902V275.886zm303.331 136.016v-54.297c0-4.142-3.357-7.5-7.5-7.5s-7.5 3.358-7.5 7.5v54.297l-136.669 40.549V316.436l136.669-40.55v51.719c0 4.142 3.357 7.5 7.5 7.5s7.5-3.358 7.5-7.5v-51.719L455 316.436v136.016z"/><path d="M310.831 145c28.948 0 52.5-23.551 52.5-52.5 0-28.948-23.552-52.5-52.5-52.5s-52.5 23.551-52.5 52.5c0 28.948 23.552 52.5 52.5 52.5zm0-90c20.678 0 37.5 16.822 37.5 37.5s-16.822 37.5-37.5 37.5-37.5-16.822-37.5-37.5 16.822-37.5 37.5-37.5z"/></svg>