<svg viewBox="0 0 480 480" xmlns="http://www.w3.org/2000/svg"><path d="M328 232h16v16h-16zm-32 0h16v16h-16zm-32 0h16v16h-16zm-32 0h16v16h-16zm-32 0h16v16h-16zm64-32h16v16h-16zm0-32h16v16h-16zm-32 32h16v16h-16zm-32 0h16v16h-16zm-32 32h16v16h-16zm-32 0h16v16h-16zm192 32h16v16h-16zm-32 0h16v16h-16zm-32 0h16v16h-16zm-32 0h16v16h-16zm-32 0h16v16h-16zm-32 0h16v16h-16zm-32 0h16v16h-16z"/><path d="M421.656 229.656L451.312 200H480v-16h-32c-2.12 0-4.16.84-5.656 2.344L412.688 216H375.2c-10.216-10.064-24.232-16.232-39.64-16-2-18.048-10.712-34.096-23.56-45.616v-31.08l45.656-45.656A7.947 7.947 0 00360 72V0h-16v68.688l-45.656 45.656A7.979 7.979 0 00296 120v23.52c-5.024-2.504-10.4-4.376-16-5.648V99.32l21.656-21.656A8.011 8.011 0 00304 72V0h-16v68.688l-21.656 21.656A7.979 7.979 0 00264 96v40c-5.48 0-10.816.712-16 1.888V0h-16v143.6c-5.792 2.88-11.176 6.496-16 10.84V96c0-2.12-.84-4.16-2.344-5.656L192 68.688V0h-16v72c0 2.12.84 4.16 2.344 5.656L200 99.312v69.64c-2.64-.568-5.304-.952-8-.952-2.744 0-5.408.344-8 .872V120c0-2.12-.84-4.16-2.344-5.656L136 68.688V0h-16v72c0 2.12.84 4.16 2.344 5.656L168 123.312v52.864c-7.816 5.912-13.48 14.52-15.336 24.52A54.162 54.162 0 00144 200c-10.496 0-20.288 2.952-28.696 8H59.312l-21.656-21.656A7.979 7.979 0 0032 184H0v16h28.688l21.656 21.656A7.979 7.979 0 0056 224h42.112a55.654 55.654 0 00-7.752 16H0v16h88c0 5.56.84 10.928 2.36 16H64c-2.12 0-4.16.84-5.656 2.344L28.688 304H0v16h32c2.12 0 4.16-.84 5.656-2.344L67.312 288h30.8c10.136 14.488 26.912 24 45.888 24h24v36.688l-45.656 45.656A7.979 7.979 0 00120 400v80h16v-76.688l45.656-45.656A7.979 7.979 0 00184 352v-40h16v60.688l-21.656 21.656A7.979 7.979 0 00176 400v80h16v-76.688l21.656-21.656A7.979 7.979 0 00216 376v-64h16v168h16V312h16v64c0 2.12.84 4.16 2.344 5.656L288 403.312V480h16v-80c0-2.12-.84-4.16-2.344-5.656L280 372.688V312h16v40c0 2.12.84 4.16 2.344 5.656L344 403.312V480h16v-80c0-2.12-.84-4.16-2.344-5.656L312 348.688V312h24c15.216 0 29.016-6.12 39.12-16h45.568l21.656 21.656A7.979 7.979 0 00448 320h32v-16h-28.688l-21.656-21.656A7.979 7.979 0 00424 280h-37.48a55.5 55.5 0 004.84-16H480v-16h-88.64a55.813 55.813 0 00-4.832-16H416c2.12 0 4.16-.84 5.656-2.344zM336 296H144c-22.056 0-40-17.944-40-40s17.944-40 40-40c4.568 0 9.136.816 13.568 2.424a7.975 7.975 0 007.616-1.192 7.976 7.976 0 003.072-7.064L168 208c0-13.232 10.768-24 24-24 3.688 0 7.384.944 10.968 2.808a8.014 8.014 0 006.176.504 8.032 8.032 0 004.68-4.056C223.36 163.976 242.584 152 264 152c30.88 0 56 25.12 56 55.784-.016.192-.04.752-.04.944a8.007 8.007 0 009.344 7.888c2.424-.416 4.616-.616 6.696-.616 22.056 0 40 17.944 40 40s-17.944 40-40 40z" fill="#44aaac"/></svg>