<svg viewBox="0 0 470 470" xmlns="http://www.w3.org/2000/svg"><path d="M235 148.009c40.806 0 74.004-33.198 74.004-74.005C309.004 33.198 275.806 0 235 0s-74.004 33.198-74.004 74.004c0 40.807 33.198 74.005 74.004 74.005zM235 15c32.535 0 59.004 26.469 59.004 59.004S267.535 133.009 235 133.009s-59.004-26.47-59.004-59.005S202.465 15 235 15zm0 163.009c59.812 0 108.922 46.69 112.793 105.539H174.46c-4.142 0-7.5 3.357-7.5 7.5s3.358 7.5 7.5 7.5h181.08a7.5 7.5 0 007.5-7.5c0-70.601-57.438-128.039-128.04-128.039s-128.04 57.438-128.04 128.039a7.5 7.5 0 007.5 7.5h30c4.142 0 7.5-3.357 7.5-7.5s-3.358-7.5-7.5-7.5h-22.254c3.872-58.849 52.983-105.539 112.794-105.539zm-94.592 199.703l-41.143-6.905-19.281-36.995a7.5 7.5 0 00-13.302 0l-19.281 36.995-41.143 6.905a7.5 7.5 0 00-4.111 12.65l29.227 29.77-6.147 41.263a7.499 7.499 0 0010.761 7.819l37.344-18.597 37.344 18.597a7.504 7.504 0 007.751-.647 7.499 7.499 0 003.01-7.173l-6.147-41.263 29.227-29.77a7.499 7.499 0 00-4.109-12.649zm-38.437 34.577a7.5 7.5 0 00-2.066 6.359l4.577 30.723-27.805-13.847a7.498 7.498 0 00-6.687 0l-27.806 13.847 4.577-30.723a7.496 7.496 0 00-2.066-6.359l-21.762-22.166 30.634-5.142a7.502 7.502 0 005.41-3.931l14.356-27.546 14.356 27.546a7.502 7.502 0 005.41 3.931l30.634 5.142zm200.104-34.577l-41.143-6.905-19.281-36.995a7.5 7.5 0 00-13.302 0l-19.281 36.995-41.143 6.905a7.5 7.5 0 00-4.111 12.65l29.227 29.77-6.146 41.263a7.499 7.499 0 0010.761 7.819L235 450.617l37.344 18.597a7.504 7.504 0 007.751-.647 7.499 7.499 0 003.01-7.173l-6.146-41.263 29.227-29.77a7.499 7.499 0 00-4.111-12.649zm-38.437 34.577a7.5 7.5 0 00-2.066 6.359l4.576 30.723-27.805-13.847a7.5 7.5 0 00-6.686 0l-27.805 13.847 4.576-30.723a7.496 7.496 0 00-2.066-6.359L184.6 390.123l30.634-5.142a7.502 7.502 0 005.41-3.931L235 353.505l14.356 27.546a7.502 7.502 0 005.41 3.931l30.634 5.142zm205.995-29.498a7.5 7.5 0 00-5.892-5.079l-41.143-6.905-19.281-36.995a7.5 7.5 0 00-13.302 0l-19.281 36.995-41.143 6.905a7.5 7.5 0 00-4.111 12.65l29.227 29.77-6.147 41.263a7.499 7.499 0 0010.761 7.819l37.344-18.597 37.344 18.597a7.504 7.504 0 007.751-.647 7.499 7.499 0 003.01-7.173l-6.147-41.263 29.227-29.77a7.493 7.493 0 001.783-7.57zm-44.328 29.498a7.5 7.5 0 00-2.066 6.359l4.577 30.723-27.806-13.847a7.5 7.5 0 00-6.686 0l-27.805 13.847 4.577-30.723a7.496 7.496 0 00-2.066-6.359l-21.762-22.166 30.634-5.142a7.502 7.502 0 005.41-3.931l14.356-27.546 14.356 27.546a7.502 7.502 0 005.41 3.931l30.634 5.142z"/><path d="M235 108.009c9.831 0 19.184-4.272 25.66-11.721a7.5 7.5 0 00-11.32-9.842c-3.625 4.171-8.853 6.563-14.34 6.563s-10.714-2.392-14.34-6.563a7.5 7.5 0 00-11.32 9.842c6.476 7.448 15.829 11.721 25.66 11.721z"/></svg>