<svg height="231.578" viewBox="0 0 557.759 231.578" width="557.759" xmlns="http://www.w3.org/2000/svg"><g fill="#979D85" transform="translate(-236.971 -1014.933)"><path d="m319.3 1098.912c.014.022.029.032.043.053l.041.009z"/><path d="m266.185 1047.921c15.931-.938 31.837-2.311 47.742-3.642 2.757-.23 5.455-1.139 8.782-1.865 12.059-.267 24.88.2 37.536-1.041 12.735-1.244 25.546 2.195 38.32-1.176 2.489 2.462 5.475 3.651 8.98 2.671l1.962-2.439-5.37-.8c6.339-2.043 6.4-2.053 9.923.53l-.057.087.142-.025-.075-.079 4.333 4.129c5.856.333 11.843.49 17.789 1.07 4.92.481 8.6-1.111 11.164-5.228l6.475-.449c.92 2.236 1.826 4.435 2.79 6.774h8.769l6.117 2.8c4.04-.435 7.885.227 11.756.459 7.354.44 14.862 3.342 21.982-1.455.961-.648 3.022.339 4.574.569-.011.336-.023.671-.034 1.007l-9.305 4.469c-4.538.067-9.508-4.933-13.484.6l-9.574-1.09c.3 2.731.5 4.546.7 6.345l-6.447-1.173-6.819 5.5-2.421-2.038v-6.517l-18.379-3.62q.528.864 1.058 1.728l-5.495 5.453-15.452-4.159c-1.271 2.494-3.81 2.712-7.186 2.226-2.934-.422-6.073.586-10.312 1.108l-2.253 2.859c-4.279.278-8 .556-11.724.713-.423.018-.875-.648-1.718-1.318l4.381-1.7c-4.994-5.691-12.021.677-16.872-3.31-11.992-.237-23.868.4-34.876 4.863-8.951-3.943-8.951-3.943-17.621-2.562a14.342 14.342 0 0 0 -14.325-1.968 7.475 7.475 0 0 1 -3.918.451c-5.243-1.025-10.139-.536-14.213 2.759l-6.147-1.653a27.086 27.086 0 0 1 -9.025 1.228 100.979 100.979 0 0 1 -13.751-1.918c-3.321-.7-6.121-.516-9.28 2.728.623 3.05 1.35 6.615 2.036 9.974 2.121.875 3.542 1.979 4.952 1.965 16.8-.169 33.594-.429 50.386-.878 2.557-.068 5.087-1.215 7.629-1.863 4.1.4 8.164-.009 12.225.025 11.506.1 23.081 1.266 34.494.345 12.772-1.031 25.122 1.207 38.08 2.252l4.744-2.115 32.023 2.9 5.928-2.516 2.188 2.453 10.575 2.309q-.072.283-.145.567l15.188-.9c.981-1.241 1.877-2.376 2.709-3.43l3.335 3.567 4.63-4.162 14.2 2.78c-1.9 4.955-6.259 2.729-9.234 3.526-3.356.9-7.262-.259-10.256-.474l-6.045 6.567c-.521-2.2-.831-3.5-1.161-4.9-2.6 0-4.827-.15-7.021.042-2.156.19-4.282.727-6.3 1.09l4.691 6.062-4.205 1.928c-9.243-7.815-16-8.436-26.559-2.184l-7.958-1.177c-2.995.8-5.278 2.2-7.14 1.776-7.576-1.742-14.925 1-22.3.636-8.418-.42-16.182 2.287-24.26 3.387-4.443.6-8.807 1.8-14.44 2.989l-3.131 8.1-.925-.194c-.425-2.664-.85-5.328-1.337-8.376a24.641 24.641 0 0 0 -3.739.83c-.526.213-.844.937-1.372 1.571.75 2.386 1.488 4.732 2.614 8.315l-10.609-5.194-7.935.9c1.544 3.5 1.508 3.919-.712 4.761l-4.545-3.057c-2.6.328-5.33 1.976-7.283-1.063l-5.569-1.093-5.112 5.015-.086.028.019.036.1-.075-2.055 4.574-6-1.856.009-.045-.074.024.058.053-7.771-2.4c-.683 1.4-1.3 2.653-2.389 4.883-.735-2.673-1.185-4.31-1.74-6.327-.924 1.092-1.483 1.76-2.051 2.421s-1.147 1.318-1.665 1.912c-4.326-1.023-4.326-1.023-8.1 1.535-.326 6.412 1.128 12.362 6.017 17.161 15.2 2.641 29.607-.665 48.6-4.39l38.749-4.96 1.082-3.137 6 2.194c5.049-.777 9.857-1.621 14.7-2.233 5.012-.632 10.326-.066 14.162-4.318l4.935 2.292c7.394-2.6 15.833.458 20.807-3.986 9.849-.359 18.061-1.235 26.2-.8 8.727.469 16.358-2.433 23.646-6.134l5.041 4.35 5.5-2.485 2.324 2.523 6.3-2.447 9.063.469 4.658-9.026-3.33-6.5c2.532-.2 4.354-.77 5.937-.377 4.073 1.012 7.715.315 11.664-.96 3.2-1.032 6.893-.557 10.369-.654 2.862-.079 5.727-.016 8.751-.016.645-4.789 1.187-8.814 1.721-12.782-5.508-3.382-11.087-3.565-16.543-4.3-5.248-.711-10.693.477-15.886-.725q.028-.912.056-1.824l16.408-.734c5.338 2.669 12.144 2.194 19.034 2.353 2.689-5.912-2.64-9.387-2.543-14.473-8.1-.339-14.974-5.227-23.049-3.732-1.633 2.87-3.267.622-4.943-.529q2.061-.135 4.124-.265c-7.975-3.888-16.646-5.235-25.247-6.826-.355-.066-.795.332-1.182.508-.785 1.294-1.56 2.573-2.217 3.654l-14.794-2.927c.233-1.607.471-3.255.842-5.82 5.364 0 10.45-.248 15.5.081a37.458 37.458 0 0 0 10.914-1.3c3.386-.76 7.309 1.067 11.025 1.478 1.486.163 3.046-.5 4.585-.64 4.156-.377 8.318-.682 12.478-1 1.506-.115 3.016-.183 4.3-.259 3.42-4.163 1.579-7.737-.113-11.618l-31.968-2.467-7.479 3.834-1.762-4.488-11.294-1.525-6.6 1.7-26.4-3.041-11.481 3.088-7.05-3.191c-5.812.52-11.532-.02-17.239.1-3.823.079-7.627 1.094-11.643 1.722-3.155-2.34-7.324-3.317-11.765-3.31-8.116.012-16.219 2.751-24.364.067-.765-.253-1.744.148-2.625.24-3.508.369-7.009.907-10.526 1.063-4.836.214-9.685.1-14.527.194-9.944.192-19.83.253-29.721 2.254-6.744 1.365-13.891 1.06-20.849.953-7.931-.122-15.836 2.315-23.782.231-.188-.049-.557.593-1.314 1.442.7 1.564 1.548 3.48 2.165 4.868 9.962 2.2 19.182 1.855 28.556 1.346 14.873-.808 29.767-1.307 44.663-1.647l-4.9 5.45-15.687 1-4.469-2.51c-7.565 2.687-14.772 6.413-22.473 1.114l-15.411 5.374-3.116-2.788c-12.009-3.541-23.349 1.974-35.639 2.317l-4.779 3.633c.6 2.6 1.2 5.23 1.934 8.451 8.837.004 17.029.399 25.169-.08zm158.955 20.171c2.413-2.321 3.3-1.335 4.582 2.126zm53.741-1.638c-2.235-2.151-.674-4.274-.664-6.2l4.313.593zm8.646-6.787 3.057-2.117 2.853 4.584c-1.592 2.159-3.261 1.424-5.91-2.467zm-170.786 45.271 3.106.275-1.858 5.644c-2.038-1.43-3.051-3.136-1.248-5.919zm2.453 9.457-1.159-.144v-3.263h2.221c-.414 1.33-.739 2.368-1.062 3.412zm11.543-2.087c-.76-2.406-.76-2.406 2.6-2.43zm30.964-5.558a41.252 41.252 0 0 0 -5.837 3c-1.506 1.083-2.6 2.745-3.869 4.15l-1.3-.527c.641-2.544 1.282-5.087 2.072-8.227l6.828.592 4.342-6.026c.086 2.801.898 5.72-2.237 7.038zm9.679 5.5-1.556-1.092 5.1-8.218c-.287-2.484-.552-4.772-.921-7.964 6.218 3.113 3.829 8.034 4.871 12.737zm10.259-8.486c.542-3.43 2.336-3.419 4.82-2.435zm11.826-1.146c-1.021-2.572-1.689-4.258-2.459-6.2l-6.135 1.467c1.2-3.3 4.11-2.484 6.528-3.485l4.5-4.137 1.379.623c-1.171 3.608-2.346 7.214-3.813 11.729zm15.887-5.126c.714 1.694 1.165 2.762 2.13 5.052-4.529-1.203-4.328-2.487-2.13-5.055zm16.126 8.039c-1.24-1.887-1.713-2.607-2.2-3.342l-6.451 3.094c.173-2.511.287-4.158.427-6.207l9.074-1.423c-.29 2.703-.486 4.517-.85 7.875zm5.652-16.067 1.053.434q-.567 1.365-1.133 2.728l-1.035-.426q.558-1.371 1.115-2.739zm7.437 13.709-1.895-4.217-6.838-.434c1.588-1.446 2.975-2.709 4.8-4.371h4.658c-.323-1.324-.552-2.261-1.015-4.155a70.525 70.525 0 0 1 6.214 3.437 36.236 36.236 0 0 1 3.865 3.49zm19.73-2.689c-3.124-2.479-2.26-4.152.709-6.191 1.058 1.541 1.845 2.687 3.02 4.4zm10.535-3.161q-.768-2.121-1.537-4.239c2.983 1.031 1.6 2.708 1.537 4.236zm.03.339q.963 1.813 1.925 3.629c-2.627-.48-2.464-1.991-1.925-3.632zm4.011-3.125-.228-1.929.962-.1.174 1.934zm4.882-.3 5.067-3.291 6.592 1.514 1.827-2.322 1.031.258q-.4 2.25-.8 4.5c-4.304.741-8.61 1.409-13.717-.659zm13.874.741 8.463.748c-3.169 1.574-6.048 1.507-8.463-.748zm40.371-44.278 2.083 1.225-.489.793-2.043-1.291zm-16.363.174c.72 3.305-.327 4.345-3.023 4.489-.37-2.511-.279-4.263 3.021-4.491zm-11.637 11.591c.371-.632 1.225-.98 2.228-1.717.973 2.761.527 4.05-2.6 4.5.139-1.254.01-2.163.372-2.783zm.564 30.6c-1.491-4.88-1.491-4.88.363-9.026 3.488 3.646 3.415 5.461-.362 9.026zm5.558-23.614-2.195-1.164.833-1.3 1.983 1.516zm-37.692-40.06 1.064.223q-.2.984-.391 1.969l-1.11-.224q.22-.984.438-1.968zm-3.346 7.1 3.733 6.245-1.028 1.03-6.565-1.8zm-26.729-9.51q.224.582.446 1.162l-2.933 1.15q-.246-.671-.493-1.341zm-14.385 5.55-1.035.836q-.988-1.831-1.979-3.663zm-63.214-6.941c14.179-.208 28.37.419 42.557.659 3.533.059 7.076.221 10.6.048 2.923-.144 5.164.732 6.781 3.149l-24.237.618c-3.443-1.684-8.781-.342-13.746 1.378-5.563 1.926-10.637 2.648-15.941-.506-2.327-1.383-5.006-2.174-8.323-3.569l-4.059 2.146 3.72 3.082-5.518.884c-.726-1.943-1.3-3.467-1.952-5.227l-6.712 2.081-2.274-4.379q9.548-.215 19.105-.36z"/><path d="m744.9 1225.794c-8.049-2.369-16.015-5.029-24.1-7.27-6.582-1.824-12.993-4.762-18.879-3.987-13.478-6.484-27.137-8.208-40.12-11.78l-4.314 3.978-9.447-3.715c-.072-2.76-2.531-3.115-5.061-3.4q-17.795-2.013-35.586-4.036c-5.706-.646-11.408-1.334-17.124-1.893-3.411-.334-6.843-.455-10.266-.671-6.525-.615-12.815-2.484-19.688-1-3.319.717-7.127-.039-10.547-.839-2.549-.6-5.776-1.035-6.859-4.992l7.661-1.72 1.919 3.391 7.273-7.677h12.306c4.2-7.347 5.247-7.816 8.987-4.038l-3.972 2.426c6.813.731 11.484-1.83 16.567-8.754-.572-2.588-1.189-5.375-1.879-8.5l-4.326-1.709-7.2 3.356-15.287-3.964a15.259 15.259 0 0 0 -4.064 11.757l3.9-2.646v3.18c-14.161 4.324-28.131 8.68-42.161 12.835-7.416 2.2-14.873 4.347-22.434 5.936-4.68.983-9.587.936-14.4 1.236-4.156.258-8.322.352-12.476.865-4.729-.325-9.608-2.483-13.167 1.043-12.86.832-25.214-1.487-36.738 3.755-10.894-2.209-20.968 2.139-31.588 3.139-7.041 4.468-15.043 3.937-25.25 3.924-6.441 2.864-15.536 2.983-24.639 3.044 6.607-2.463 12.953-5.239 20.327-5.692 5.981-.366 11.783-3.249 17.728-4.764 3.383-.862 6.916-1.113 10.343-1.821 7.78-1.607 15.564-3.211 23.283-5.076 2.08-.5 3.933-1.937 6.408-3.21 4.38 2.6 9.263 1.143 14.309.161 10.02-1.95 20.134-3.416 30.2-5.117 5.447-.921 11.032-1.434 16.263-3.067 2.894-.9 5.185-3.735 8.131-5.991l3.146 3.637c11.486-.4 23.236-1.658 35.3-5.388l5.882 1.527c.256-1.411.467-2.568.679-3.734 3.146.195 5.607 3.827 9.04 1-.113-2.107-.225-4.2-.39-7.286l5.55 2.666 9.86-5.013 6.875-.942-6.342-3.279-21.2 3.205-2.839-1.528c-1.62 3.438-3.05 6.471-4.375 9.281-5.1-1.636.186-5.479-2.637-7.871l-3.658 3.048-4.431-1.632-2.412 3.306-2.92-1.335-1.1 3.572c1.813-.834 2.915-1.34 4.015-1.842l-.568 3.174-16.649-3.635-5.939 2.684c-3.144-3.265-6.5-4.909-10.8-3.278l-1.6 4.459-12.973 6.1-4.42-2.984-7.924 4.348-4.793-2.469a21.6 21.6 0 0 1 -2.782 1.738 19.9 19.9 0 0 1 -3.135.809c.264-1.627.446-2.745.757-4.662l-7.62 2.817a43.583 43.583 0 0 0 -9.636.8 58.163 58.163 0 0 1 -5.737 1c-10.1.608-19.271 2.97-25 12.763l-7.772 1.062c2.776-3.054 4.493-4.943 6.442-7.089-4.724-2.076-5.055 3.293-8.064 3.246-5.809 1.006-11.468 2.572-17.187 3.87-4.072.924-8.258 2.228-12.338 2.057a34.724 34.724 0 0 0 -21.915 6.385c-2.116 1.459-4.445 2.607-6.468 3.778-2.335-4.038-5.42-2.907-8.282-2.372-2.8.523-5.542 1.333-8.346 1.8-4.947.828-9.921 1.492-14.884 2.224.044.332.087.664.131 1h-7.224l-3.228 3.466-10.105.98c-4.57-.568-9.179-.443-13.779-.6a117.632 117.632 0 0 1 -14.567-1.062c-2.338-.375-4.448-2.171-7.431-3.724 2.1-1.7 3.122-3.031 4.447-3.507 16.422-5.891 32.889-11.657 49.344-17.456a33.5 33.5 0 0 0 8.856-.784c5.353-1.434 10.615-3.223 15.868-5a34.608 34.608 0 0 0 4.706-2.355c2.526-1.316 5.1-2.559 7.552-4 2.739-1.608 5.373-3.394 8.052-5.105v.016l2.95 3.412 30.706-7.6 6.456-5.117c.555 1.334 1.116 2.682 1.886 4.53l6.49-3.193 3.209-6.75 3.835 2.644 2.223-2.493 8.783 2.034 4-3.808c.115.237.23.473.346.71l14.77-5.431 9.965 2.015 16.265-6.1 1.752-3.376 6.267.7 10.761-5.079 4.022.894c9.333-3.8 17.5-9.376 27.652-7.461l5.849 3.172 4.212-6.628-2.245-1.315c2.081-2.522 3.28-1.8 4.3.315 9.847-.115 21.542-6.323 21.222-11.735l-3.492-3.305c1.537-1.984 2.856-3.687 4.564-5.89l-3.917-5.6-3.691 3.153-1.687-2.926-1.307 2.67-13.381 3.477c2.323 2.106 3.866 3.5 5.961 5.4a49.823 49.823 0 0 1 -5.268 2.819c-9.675 3.76-19.314 7.638-29.023 11.29-10.011 3.766-20.186 6.042-30.44 8.464-1.5.354-2.914 1.042-4.4 1.475-2.318.675-4.641 1.361-7 1.872-7.558 1.637-15.4 1.644-22.714 4.845a84.781 84.781 0 0 1 -15.633 4.637c-9.634 2.137-19.353 3.9-28.757 5.757-1.125 2.986-1.954 5.185-2.822 7.49l-3.331-.652c.722-1.561 1.318-2.846 1.98-4.276-1.042-.4-1.72-.95-2.214-.817-15.545 4.189-31.75 6.092-46.436 13.325l-3.866 5.018-7.6-2.063-1.545 2.8c-8.512-.993-8.512-.993-13.877 2.455-3.267.466-5.409.59-7.453 1.1-3.866.966-7.617 2.489-11.523 3.164-4.308.745-7.455 2.483-8.266 6.836l-12.255-1.051-6.843 3.747.4.814 6.109-.476.318 1.331-6.273 4.258-3.089-2.574-11.9 4c.424 4.058.156 8 1.379 11.413 1.29 3.6 3.264 7.956 6.266 9.707a34.49 34.49 0 0 0 15.71 4.847c14.393.4 28.844 0 42.9-4a154.033 154.033 0 0 1 15.015-3.781c5.216-.931 10.546-1.225 15.83-1.766 2.651-.271 5.309-.471 7.964-.7a18.431 18.431 0 0 1 -3.436 2.372c-3.175 1.279-6.45 2.309-8.316 2.961-11.408-.095-20.625 1.716-27.749 9.989l-11.017-1.743q.111.567.223 1.135l-32.514 11.336c-.24 2.851-.483 5.744-.77 9.158h22.371q.129.54.257 1.081l9.209-4.767c2.486.3 4.992 1.205 7.226.756 5.144-1.034 10.155-2.723 15.22-4.148 1.245.575 2.6 1.716 3.689 1.5a58.394 58.394 0 0 0 7.917-2.63c7.66 3.8 8.053 2.606 12.1-1.521 5.4 2.844 10.177.347 15.053-1.728 2.4-1.023 4.923-2.466 7.391-2.467a38.185 38.185 0 0 0 9.621-1.6c5.388-1.366 11.106-1.428 17.181-2.092 5.861-2.559 12.241-4.906 19.6-1.49 5.626-1.924 11.4-3.923 17.2-5.864a35.117 35.117 0 0 1 5.126-1.4c12.422-2.156 24.915-3.969 36.7-8.806a15.1 15.1 0 0 1 5.143-.9c7.945-.268 15.9-.306 23.839-.63 10.205-.417 20.4-1.259 30.6-1.459 5.024-.1 10.062 1.112 15.106 1.232 6.724.16 13.7 2.116 20-2.273 4.816 3.6 10.256 4.138 15.916 4.118 3.505-.012 7.009.753 10.518.79 9.032.1 17.972 3.739 26.784.533 6.007 2.318 11.53 6.448 17.6 1.554 4.884 2.486 9.428 4.173 14.884 3.636 3.785-.372 7.755 1.134 12.553 1.957l14.419-.984 6.01 4.648 4.86-3.9 9.931 1.69c1.465 1.549 2.818 2.981 4.518 4.78l26 5.364 4.5 3.514 5.852-2.552 11.03 5.3 5.646-2.552c-.161-4.269-2.771-4.414-5.125-5.108zm-219.667-125.243c.1.272.2.544.305.815l-1.814.687c-.1-.281-.209-.561-.314-.841zm-18.414 16.794a7.564 7.564 0 0 1 1.321.854c.069.065-.371.936-.522.92a6.032 6.032 0 0 1 -1.509-.553zm-72.511 19.746-3.833 1.437c1.163-2.3 1.163-2.3 3.833-1.437zm-47.255 16.687-4.96 1.141c-.492-1.285-.995-2.6-1.982-5.175zm-23.483.876c1.971 1.86 2.637 3.237.67 5.271-2.357-1.55-1.475-3.101-.67-5.271zm-21.605 6.071v3.407l-1.544-2.855zm-32.552 70.884c3.105.442 3.129.453 3.234 3.408zm14.944-.889 2.4-4.132c.486 2.277.733 3.431 1.11 5.194zm42.7-13.281c-.069-.243-.137-.486-.206-.729l2.3-.963q.267.56.535 1.117zm11.4-1.621q-.134-.843-.269-1.687l4.34-.308.162 1.432zm159.412-29.651 3.542 4.085c-3.611.466-4.344-.567-3.545-4.085z"/><path d="m564.957 1159c.017-.021.032-.042.05-.062z"/><path d="m565.008 1158.939-.134.018.083.043z"/><path d="m752.338 1230.278c.143.982.318 2.19.533 3.67l11.95 2.3c2 3.507 5.674 2.947 9.163 3.314a37.385 37.385 0 0 1 8.7 2.1c3.882 1.4 7.615 3.217 11.411 4.856q.316-.662.632-1.323c-9.321-7.27-38.736-17.895-42.389-14.917z"/><path d="m305.864 1097.811-4.032 1.806c-.441 2.205-.814 4.07-1.186 5.933l7.93-2.635c-.884-1.665-1.769-3.33-2.712-5.104z"/><path d="m517.9 1094.8c4.965.331 4.965.331 5.787-3.872-2.924-.14-4.95.772-5.787 3.872z"/><path d="m684.114 1219.517.432 1.5 2.873-1.589q-.257-.5-.514-.995z"/><path d="m411.341 1044.332c1.3-2 1.991-3.058 2.662-4.091-1.49.277-3.23.347-2.662 4.091z"/><path d="m468.727 1168.573 2.217-.93-.468-1.071-2.193.972z"/><path d="m319.365 1098.821c.746-1.044 1.508-2.108 2.824-3.947-3.578.702-3.008 2.431-2.824 3.947z"/><path d="m319.3 1098.912.084.062c-.005-.051-.013-.1-.019-.153z"/><path d="m548.379 1170.172.5.955 7.819-1.555-.114-1.156-5.789-.957z"/></g></svg>