<svg xmlns="http://www.w3.org/2000/svg" width="221.183" height="220.136"><path d="M96.226 140.022a4.353 4.353 0 01-2.67-.914l-25.97-20.1a4.364 4.364 0 115.344-6.9l22.794 17.649 45.407-49.545a4.362 4.362 0 116.433 5.894l-48.119 52.501a4.348 4.348 0 01-3.219 1.415z" fill="#798e64" stroke="#798e64" stroke-width="2"/><path d="M110.592 220.136a14.761 14.761 0 01-14.776-12.071l-.155-.759a6.274 6.274 0 00-6.289-5.1 6.152 6.152 0 00-5.111 2.67l-.456.637a14.769 14.769 0 01-12.1 6.369 15.608 15.608 0 01-12.078-5.776 14.678 14.678 0 01-2.816-12.612l.17-.766a6.176 6.176 0 00-1.2-5.3 6.406 6.406 0 00-8.232-1.547l-.674.4a15.048 15.048 0 01-7.715 2.166 15.329 15.329 0 01-13.489-8.5 14.7 14.7 0 011.433-15.631l.465-.626a6.353 6.353 0 00-5.826-10.093l-.774.087a16.7 16.7 0 01-1.869.107 15.086 15.086 0 01-7.264-28.213l.683-.386a6.355 6.355 0 00-1.222-11.589l-.744-.233a15.079 15.079 0 013.086-29.39l.781-.074a6.354 6.354 0 003.6-11.083l-.582-.517a14.711 14.711 0 01-4.16-16.538 14.942 14.942 0 0113.951-9.888 15.633 15.633 0 014.982.833l.742.246a6.308 6.308 0 007.39-2.628 6.13 6.13 0 00.406-6.031l-.323-.709a14.692 14.692 0 01.912-14.287 15.521 15.521 0 0112.9-7.124 14.775 14.775 0 0110.095 4.04l.574.526a6.177 6.177 0 004.227 1.693 6.579 6.579 0 004.644-1.941 6.133 6.133 0 001.778-4.489l-.007-.783a14.882 14.882 0 014.232-10.712A15.53 15.53 0 0190.76 0a14.793 14.793 0 0113.7 9.081l.312.72a6.353 6.353 0 0011.652 0l.31-.711a14.792 14.792 0 0113.7-9.085 15.529 15.529 0 0110.976 4.511 14.881 14.881 0 014.234 10.714l-.007.779a6.143 6.143 0 001.776 4.491 6.585 6.585 0 004.646 1.941 6.171 6.171 0 004.223-1.69l.578-.53a14.782 14.782 0 0110.093-4.038 15.522 15.522 0 0112.9 7.124 14.688 14.688 0 01.907 14.281l-.327.715a6.128 6.128 0 00.41 6.027 6.31 6.31 0 007.39 2.628l.737-.246a15.67 15.67 0 014.986-.833 14.937 14.937 0 0113.949 9.886 14.712 14.712 0 01-4.157 16.541l-.582.515a6.354 6.354 0 003.6 11.085l.774.074a15.079 15.079 0 013.091 29.39l-.75.236a6.354 6.354 0 00-1.213 11.589l.681.384a15.087 15.087 0 01-7.264 28.213 16.675 16.675 0 01-1.869-.107l-.776-.087a6.352 6.352 0 00-5.826 10.091l.467.63a14.7 14.7 0 011.431 15.627 15.331 15.331 0 01-13.489 8.5 15.052 15.052 0 01-7.72-2.168l-.672-.4a6.406 6.406 0 00-8.232 1.547 6.178 6.178 0 00-1.2 5.3l.17.761a14.682 14.682 0 01-2.816 12.612 15.618 15.618 0 01-12.08 5.778 14.77 14.77 0 01-12.1-6.369l-.454-.637a6.152 6.152 0 00-5.113-2.67 6.274 6.274 0 00-6.286 5.093l-.157.77a14.76 14.76 0 01-14.771 12.073zm-21.219-26.655a14.981 14.981 0 0114.837 12.08l.155.759a6.354 6.354 0 0012.453 0l.157-.77a15.074 15.074 0 0127.05-5.745l.454.637a5.97 5.97 0 005 2.711 6.905 6.905 0 005.274-2.515 6 6 0 001.1-5.261l-.168-.761a14.94 14.94 0 012.91-12.656 15.308 15.308 0 0111.82-5.719 15.093 15.093 0 017.643 2.118l.674.4a6.333 6.333 0 008.987-2.744 5.971 5.971 0 00-.656-6.511l-.465-.63a15.078 15.078 0 0113.829-23.948l.777.087a6.22 6.22 0 006.873-4.733 6.086 6.086 0 00-3.025-7.109l-.681-.384a15.078 15.078 0 012.89-27.5l.75-.238a6.354 6.354 0 00-1.307-12.383l-.774-.074a15.078 15.078 0 01-8.548-26.3l.582-.517a6.023 6.023 0 001.78-6.912 6.328 6.328 0 00-5.789-4.253 7 7 0 00-2.216.382l-.737.246a15.139 15.139 0 01-17.5-6.182 14.975 14.975 0 01-1.01-14.37l.327-.715a5.939 5.939 0 00-.312-5.942 6.811 6.811 0 00-5.564-3.119 6.123 6.123 0 00-4.2 1.747l-.578.53a14.958 14.958 0 01-10.115 3.981 15.374 15.374 0 01-10.843-4.524 14.9 14.9 0 01-4.3-10.708l.007-.779a6.066 6.066 0 00-1.706-4.5 6.842 6.842 0 00-4.779-1.928 5.96 5.96 0 00-5.7 3.835l-.31.713a15.08 15.08 0 01-27.659 0l-.312-.722a5.961 5.961 0 00-5.688-3.83 6.847 6.847 0 00-4.781 1.928 6.054 6.054 0 00-1.7 4.5l.007.783a14.9 14.9 0 01-4.306 10.706 15.368 15.368 0 01-10.841 4.524 14.96 14.96 0 01-10.119-3.983l-.574-.526a6.121 6.121 0 00-4.2-1.749 6.816 6.816 0 00-5.562 3.119 5.944 5.944 0 00-.312 5.948l.325.709a15.1 15.1 0 01-13.646 21.355 15.305 15.305 0 01-4.86-.8l-.742-.246a6.971 6.971 0 00-2.212-.382 6.331 6.331 0 00-5.791 4.253 6.025 6.025 0 001.778 6.91l.585.517a15.079 15.079 0 01-8.544 26.3l-.781.074a6.355 6.355 0 00-1.3 12.385l.742.233a15.08 15.08 0 012.895 27.506l-.683.386a6.086 6.086 0 00-3.026 7.109 6.24 6.24 0 006.875 4.731l.774-.087a15.079 15.079 0 0113.829 23.95l-.462.626a5.975 5.975 0 00-.659 6.515 6.336 6.336 0 008.987 2.742l.676-.4a15.082 15.082 0 017.643-2.118 15.315 15.315 0 0111.82 5.719 14.937 14.937 0 012.91 12.654l-.17.766a6 6 0 001.1 5.259 6.894 6.894 0 005.274 2.515 5.97 5.97 0 005-2.711l.456-.637a14.851 14.851 0 0112.208-6.327z" fill="#798e64" opacity=".359"/></svg>