<svg xmlns="http://www.w3.org/2000/svg" width="221.709" height="169.533"><path d="M126.901 136.665a4.663 4.663 0 01-2.158-.536l-12.472-6.557-12.471 6.556a4.715 4.715 0 01-5.712-1.122 4.615 4.615 0 01-1.017-3.767l2.383-13.887-10.09-9.834a4.637 4.637 0 012.57-7.91l13.943-2.027 6.236-12.634a4.638 4.638 0 018.318 0l6.236 12.634 13.943 2.027a4.637 4.637 0 012.57 7.91l-10.09 9.834 2.383 13.887a4.641 4.641 0 01-4.571 5.426zm-14.63-12.357a2.458 2.458 0 011.15.284l13.074 6.873-2.5-14.558a2.474 2.474 0 01.711-2.187l10.577-10.31-14.616-2.124a2.468 2.468 0 01-1.861-1.352l-6.537-13.245-6.537 13.245a2.466 2.466 0 01-1.86 1.352l-14.618 2.124 10.578 10.31a2.476 2.476 0 01.711 2.189l-2.5 14.557 13.08-6.875a2.456 2.456 0 011.148-.284z" fill="#798e64" stroke="#798e64" stroke-width="2" opacity=".352"/><path d="M166.333 118.408c-13.839-17.214-11.925-35.672-3.552-63.71a2.472 2.472 0 00-3.359-2.972c-23.065 10.084-35.379 10.216-45.432.488-.049-.047-.106-.082-.159-.125a2.544 2.544 0 00-.2-.162 2.187 2.187 0 00-.205-.111c-.073-.04-.146-.082-.222-.114a2.423 2.423 0 00-.232-.073c-.074-.021-.146-.047-.222-.062a2.494 2.494 0 00-.253-.028c-.072-.006-.143-.017-.215-.017-.089 0-.175.012-.263.021-.069.007-.138.01-.208.023-.088.017-.173.046-.26.072-.065.021-.132.037-.2.063a2.471 2.471 0 00-.242.122c-.063.033-.127.063-.188.1s-.141.109-.21.166c-.051.042-.106.075-.154.122-10.053 9.729-22.367 9.6-45.433-.488a2.472 2.472 0 00-3.359 2.972c8.375 28.038 10.289 46.495-3.55 63.71a2.472 2.472 0 00-.412 2.352c6.54 19.035 15.5 45.1 54.3 47.768.054 0 .109.006.163.006h.011c.054 0 .109 0 .163-.006 38.806-2.663 47.764-28.732 54.3-47.768a2.472 2.472 0 00-.407-2.349zm-54.061 45.174c-34.624-2.446-42.7-23.824-49.359-43.157 13.355-17.42 12.265-36.338 5.032-62.154 20.879 8.37 33.782 8.057 44.327-.959 10.547 9.016 23.451 9.329 44.329.959-7.233 25.816-8.323 44.734 5.032 62.154-6.659 19.332-14.736 40.711-49.362 43.157z" fill="#798e64" stroke="#798e64" stroke-width="2"/><path d="M35.603 72.201a3.684 3.684 0 01-1.236-.215L2.443 60.599a3.676 3.676 0 112.469-6.926l31.925 11.385a3.679 3.679 0 01-1.236 7.143zM47.48 48.53a3.676 3.676 0 01-2.313-.818l-27.84-22.545a3.677 3.677 0 114.628-5.716l27.842 22.543a3.678 3.678 0 01-2.317 6.536zm16.538-20.474a3.679 3.679 0 01-3.249-1.945l-11.043-20.7a3.677 3.677 0 016.488-3.462l11.043 20.7a3.676 3.676 0 01-3.24 5.407zm122.087 44.145a3.678 3.678 0 01-1.235-7.143l31.928-11.384a3.677 3.677 0 112.471 6.926L187.34 71.985a3.684 3.684 0 01-1.235.216zm-11.877-23.672a3.678 3.678 0 01-2.317-6.536l27.842-22.543a3.678 3.678 0 014.63 5.716l-27.842 22.545a3.672 3.672 0 01-2.313.818zm-16.537-20.473a3.676 3.676 0 01-3.241-5.407l11.044-20.7a3.677 3.677 0 116.488 3.462l-11.044 20.7a3.678 3.678 0 01-3.247 1.945z" fill="#798e64" opacity=".353"/></svg>