<svg xmlns="http://www.w3.org/2000/svg" width="153.634" height="137.462"><path d="M127.625 96.657a4.665 4.665 0 01-2.154-.536l-8.991-4.727-8.991 4.727a4.713 4.713 0 01-5.7-1.121 4.613 4.613 0 01-1.017-3.758l1.718-10.012-7.275-7.09a4.629 4.629 0 012.568-7.9l10.052-1.461 4.495-9.108a4.628 4.628 0 018.3 0l4.5 9.11 10.053 1.461a4.629 4.629 0 012.566 7.895l-7.274 7.091 1.718 10.012a4.635 4.635 0 01-4.563 5.416zM116.48 85.782a2.624 2.624 0 011.226.3l9.067 4.768-1.732-10.1a2.643 2.643 0 01.757-2.333l7.338-7.149-10.14-1.474a2.638 2.638 0 01-1.984-1.443l-4.533-9.187-4.533 9.187a2.638 2.638 0 01-1.984 1.443l-10.14 1.473 7.338 7.151a2.646 2.646 0 01.757 2.333l-1.732 10.1 9.067-4.768a2.625 2.625 0 011.228-.301z" fill="#798e64" stroke="#798e64" opacity=".356"/><path d="M116.481 113.235a36.653 36.653 0 1136.653-36.653 36.694 36.694 0 01-36.653 36.653zm0-68.037a31.384 31.384 0 1031.384 31.384 31.419 31.419 0 00-31.384-31.384z" fill="#798e64" stroke="#798e64"/><path d="M139.689 107.536a2.635 2.635 0 00-2.635 2.635l.091 21.524-19.1-13.981c-.03-.022-.066-.036-.1-.057a2.7 2.7 0 00-.244-.144 2.233 2.233 0 00-.227-.107 2.4 2.4 0 00-.23-.08 2.7 2.7 0 00-.266-.067 2.777 2.777 0 00-.223-.03 2.493 2.493 0 00-.279-.017c-.075 0-.15.007-.225.013a2.737 2.737 0 00-.275.038 2.852 2.852 0 00-.221.055 2.414 2.414 0 00-.27.094c-.068.028-.133.061-.2.094a2.889 2.889 0 00-.261.154c-.03.02-.063.033-.094.054l-19 14.03v-21.539a2.635 2.635 0 00-5.27 0v21.539a5.2 5.2 0 008.293 4.2l17.538-12.84 17.534 12.838a5.207 5.207 0 008.3-4.2v-21.571a2.634 2.634 0 00-2.636-2.635zM75.862 93.509H10.115A9.626 9.626 0 01.5 83.894V10.117A9.626 9.626 0 0110.115.5h113.208a9.626 9.626 0 019.617 9.617v24.6a2.635 2.635 0 01-5.27 0v-24.6a4.351 4.351 0 00-4.347-4.347H10.115a4.35 4.35 0 00-4.346 4.347v73.777a4.35 4.35 0 004.346 4.346h65.747a2.635 2.635 0 010 5.269z" fill="#798e64" stroke="#798e64"/><path d="M91.712 29.478H28.007a2.635 2.635 0 110-5.269h63.705a2.635 2.635 0 110 5.269zM69.338 49.639H28.007a2.635 2.635 0 110-5.269h41.331a2.635 2.635 0 110 5.269zM58.405 68.166h-30.4a2.635 2.635 0 110-5.269h30.4a2.635 2.635 0 010 5.269z" fill="#798e64" stroke="#798e64" opacity=".364"/></svg>