<svg height="162.058" width="888.06" xmlns="http://www.w3.org/2000/svg"><path d="M179.07 161.428v-27.279h10.563v-2.961H165.42v2.961h10.563v27.279zm31.71-2.961v-10.9h13.293v-2.961H210.78v-10.457h15.813v-2.961h-18.9v30.24h18.9v-2.961zm33.453 2.961h3.213l2.541-7.329h13.419l2.541 7.329h3.213l-10.416-30.24h-4.1zm12.432-26.775l5.735 16.548h-11.426zm33.935 26.775v-23.352l10.753 23.352h1.995l10.773-23.352v23.331h2.94v-30.219h-2.877l-11.823 25.431-11.886-25.431h-2.835v30.24zm82.383.63c9.051 0 13.944-6.447 13.944-15.75s-4.893-15.75-13.944-15.75c-9.03 0-13.923 6.447-13.923 15.75s4.894 15.75 13.924 15.75zm0-2.961c-7.1-.042-10.71-5.229-10.647-12.789s3.549-12.81 10.647-12.789c7.1.042 10.668 5.229 10.668 12.789s-3.569 12.81-10.667 12.789zm35.932 2.331v-13.587h11.76v-3.066h-11.76v-10.5H423.2v-3.087h-17.372v30.24zm66.985 0v-27.279h10.563v-2.961h-24.208v2.961h10.563v27.279zm40.866.63c9.051 0 13.944-6.447 13.944-15.75s-4.893-15.75-13.944-15.75c-9.03 0-13.923 6.447-13.923 15.75s4.898 15.75 13.928 15.75zm0-2.961c-7.1-.042-10.71-5.229-10.647-12.789s3.549-12.81 10.647-12.789c7.1.042 10.668 5.229 10.668 12.789s-3.565 12.81-10.663 12.789zm35.934 2.331v-11.487h8.589a13.587 13.587 0 002.121-.168c4.7-.714 7.371-4.494 7.371-9.2 0-4.725-2.646-8.484-7.371-9.219a13.4 13.4 0 00-2.121-.168h-11.674v30.242zm0-27.279h8.505a10.268 10.268 0 011.869.168c3.108.672 4.536 3.444 4.536 6.258s-1.428 5.586-4.536 6.237a8.8 8.8 0 01-1.869.189H552.7zm77.954 27.279v-2.961H616.29v-27.279h-3.09v30.24zm16.17 0h3.213l2.541-7.329H666l2.538 7.329h3.213l-10.416-30.24h-4.1zm12.432-26.775l5.733 16.548h-11.424zm37.632 26.775l7.1-24.8 7.138 24.8h3.108l8.715-30.24h-3.234l-7.035 24.969-7.08-24.969-3.234.021-7.032 24.948-7.077-24.969h-3.213l8.736 30.24zm54.7-12.663l10.1-17.577h-3.57l-8.085 14.049-8.121-14.049h-3.57l10.143 17.577v12.663h3.108zm30.828 9.7v-10.9h13.293v-2.961h-13.288v-10.455h15.813v-2.961h-18.9v30.24h18.9v-2.961zm51.45-9.282c3.4-1.365 5.271-4.641 5.271-8.61 0-4.725-2.646-8.484-7.371-9.219a13.4 13.4 0 00-2.121-.168h-11.671v30.242h3.087v-11.487h9.66l5.565 11.487h3.549zm-12.81-15.036h8.505a10.268 10.268 0 011.869.168c3.108.672 4.536 3.444 4.536 6.258s-1.428 5.586-4.536 6.237a8.8 8.8 0 01-1.869.189h-8.505zm48.599 27.911c6.321 0 11.046-3.255 11.046-8.883 0-5.733-4.893-7.224-7.35-7.917l-5.922-1.743c-2.352-.672-5.376-1.7-5.376-4.767 0-3 3-5.25 7.056-5.229 4.221.042 7.581 2.541 8.19 6.468l3.234-.588c-.987-5.439-5.355-8.8-11.4-8.82-5.964-.021-10.332 3.192-10.332 8.3 0 4.053 2.751 6.153 6.447 7.245l7.665 2.289c2.1.63 4.641 1.785 4.641 4.893 0 3.57-3.3 5.8-7.77 5.8-4.515 0-8-2.352-9.009-6.279l-3.15.525c1.026 5.367 5.709 8.706 12.03 8.706z" fill="#fff" opacity=".603"/><path d="M202.116 87.696A48.5 48.5 0 01180 82.719a37.491 37.491 0 01-15.687-14.8q-5.8-9.828-5.8-24.066a47.756 47.756 0 013.535-19.031 39.171 39.171 0 019.639-13.734A40.489 40.489 0 01185.8 2.772 51.4 51.4 0 01202.747 0a50.508 50.508 0 0113.23 1.638 51.592 51.592 0 0111.34 4.536l.5 15.5h-1.257l-6.3-10.08a29.6 29.6 0 00-2.772-4.347 9.678 9.678 0 00-3.78-2.961 19.773 19.773 0 00-3.717-1.323 20.045 20.045 0 00-4.6-.441A23.807 23.807 0 00192.1 6.428q-5.986 3.9-9.577 12.913t-3.591 24.633q0 15.5 3.4 24.507t9.268 12.852a23.48 23.48 0 0013.162 3.843 29.007 29.007 0 006.426-.567 24.22 24.22 0 004.788-1.7 7.811 7.811 0 003.654-2.962 30.976 30.976 0 002.27-4.219l5.542-12.35h1.258l-.376 18.018a57.9 57.9 0 01-11.844 4.532 55.155 55.155 0 01-14.364 1.768zm30.114-2.268v-1.26l3.15-1.134a10.953 10.953 0 003.906-2.457 10.783 10.783 0 002.268-4.1L267.51 2.016h10.71l25.58 74.97a13.483 13.483 0 002.268 4.221 9.623 9.623 0 003.906 2.457l1.512.5v1.264h-32v-1.26l1.89-.63q2.646-1.008 3.213-2.835a7.438 7.438 0 00-.189-4.347l-5.922-18.144H250.5l-6.048 17.766a9.421 9.421 0 00-.567 4.41q.315 1.64 2.961 2.646l2.772 1.134v1.26zm19.152-29.736h26.334L264.99 16.506zm65.646 29.736v-1.26l4.158-1.26a5.1 5.1 0 003.276-2.457 8.866 8.866 0 001.008-4.347V15.498q-1.386-3.024-2.205-4.536a12.27 12.27 0 00-1.827-2.583q-1.008-1.071-2.772-2.709l-2.142-2.142v-1.26h22.3l41.832 57.078v-47.5a11.957 11.957 0 00-.819-4.536 4.492 4.492 0 00-3.339-2.646l-4.156-1.136v-1.26h18.018v1.26l-3.4 1.134a3.844 3.844 0 00-2.772 2.646 17.215 17.215 0 00-.5 4.41v74.088h-7.056L328.5 19.656v56.448a10.86 10.86 0 00.756 4.284 4.694 4.694 0 003.15 2.52l3.78 1.26v1.26zm113.652.378l-26.964-75.1a10.353 10.353 0 00-2.331-3.969 9.257 9.257 0 00-3.969-2.205l-3.024-1.004v-1.26h36.288v1.26l-3.906 1.134q-2.9.756-3.213 2.646a10.213 10.213 0 00.567 4.662l18.648 55.314 18.774-55.44a13.821 13.821 0 00.945-4.788q-.063-1.89-2.961-2.646l-3.276-.882v-1.26H473.9v1.26l-3.4 1.008a5.474 5.474 0 00-3.4 2.205 19.831 19.831 0 00-1.89 4.095L440 85.806zm29.736-.378v-1.26l3.15-1.134a10.953 10.953 0 003.906-2.457 10.783 10.783 0 002.268-4.1L495.7 2.016h10.71l25.578 74.97a13.483 13.483 0 002.268 4.221 9.623 9.623 0 003.906 2.457l1.512.5v1.264h-32v-1.26l1.89-.63q2.636-1.01 3.205-2.835a7.438 7.438 0 00-.189-4.347l-5.922-18.144h-27.972l-6.048 17.766a9.421 9.421 0 00-.567 4.41q.315 1.638 2.961 2.646l2.768 1.134v1.26zm19.152-29.736H505.9l-12.724-39.186zm91.6 32a61.1 61.1 0 01-14.112-1.7 44.338 44.338 0 01-11.97-4.473l.63-17.136h1.26l3.906 8.19a41.571 41.571 0 003.78 6.237 13.213 13.213 0 005.544 4.221 18.655 18.655 0 004.851 1.7 28.256 28.256 0 005.229.441q7.686 0 12.159-4.158a13.964 13.964 0 004.473-10.71q0-6.174-3.024-9.639t-9.7-6.741l-5.166-2.268q-10.836-4.788-16.947-11.025t-6.111-16.565a21.636 21.636 0 013.843-12.852 24.367 24.367 0 0110.71-8.316 41.089 41.089 0 0116.065-2.9 44.57 44.57 0 0112.663 1.764 36.486 36.486 0 0110.4 4.788l-.756 15.12h-1.26l-5.166-9.45a19.377 19.377 0 00-4.284-6.237 12.571 12.571 0 00-4.914-2.583 19.174 19.174 0 00-3.024-.693 26.96 26.96 0 00-3.528-.189 16.243 16.243 0 00-10.836 3.717 12.424 12.424 0 00-4.41 10.017q0 6.426 3.4 10.269a29.771 29.771 0 009.954 6.867l5.8 2.52q12.1 5.292 17.388 11.277t5.285 15.437a22.461 22.461 0 01-8.379 18.081q-8.379 6.993-23.751 6.993zm66.026-2.264v-1.26l2.646-1.008q2.646-1.008 3.339-2.457a9.348 9.348 0 00.693-3.969V10.962a9.08 9.08 0 00-.756-4.032 5.423 5.423 0 00-3.276-2.394l-2.646-1.008v-1.26h32.13v1.26l-2.268 1.008a5.869 5.869 0 00-3.276 2.457 8.338 8.338 0 00-.882 4.1v71.815h19.4q4.662 0 6.867-2.268a24.19 24.19 0 004.221-6.552l4.914-10.584h1.26l-1.13 21.924zm66.276 0v-1.26l3.15-1.134a10.953 10.953 0 003.906-2.457 10.782 10.782 0 002.268-4.1L738.75 2.016h10.71l25.578 74.97a13.482 13.482 0 002.268 4.221 9.624 9.624 0 003.906 2.457l1.512.5v1.264h-32v-1.26l1.89-.63q2.646-1.008 3.213-2.835a7.438 7.438 0 00-.189-4.347l-5.922-18.144H721.74l-6.048 17.766a9.421 9.421 0 00-.567 4.41q.315 1.638 2.961 2.646l2.772 1.134v1.26zm19.152-29.736h26.334L736.23 16.506zm80.262 30.114l-22.3-74.97a13.88 13.88 0 00-1.89-4.221 9.042 9.042 0 00-3.528-2.457l-1.512-.63v-1.26h33.39v1.26L804.4 4.536a7.687 7.687 0 00-3.906 2.772q-1.008 1.638-.126 4.536L814.1 64.26l14.868-43.974-2.9-8.946a26.013 26.013 0 00-1.638-4.032 5.591 5.591 0 00-2.52-2.268l-2.772-1.512v-1.26h31.626v1.26l-3.906 1.512q-2.52.882-2.835 2.583a9.022 9.022 0 00.567 4.347l16 53.55 15.12-52.542a13.737 13.737 0 00.63-5.292q-.252-2.268-3.15-3.276l-2.646-.882v-1.26h17.516v1.26l-3.276 1.26a6.024 6.024 0 00-3.528 2.772 22.628 22.628 0 00-1.764 4.662l-20.916 73.584h-8.694l-18.9-59.22-19.404 59.22z" fill="#fff"/><g fill="#ffc107"><circle cx="26" cy="39.429" r="26"/><ellipse cx="93.5" cy="63.929" rx="24.5" ry="22.5"/><ellipse cx="38.5" cy="115.429" rx="27.5" ry="29"/></g></svg>