<svg height="28.253" viewBox="0 0 171.138 28.253" width="171.138" xmlns="http://www.w3.org/2000/svg"><g fill="#fff" transform="translate(-250.747 -132.884)"><path d="m421.386 142.332a3.877 3.877 0 0 0 -.634-.72 4.981 4.981 0 0 0 -.851-.6 7.466 7.466 0 0 0 -2.033-.734 13.708 13.708 0 0 0 -2.283-.309c-.34-.021-.684-.017-1.025-.005-.408.014-.82.042-1.224.087a20.309 20.309 0 0 0 -2.12.34 17.866 17.866 0 0 0 -2.178.608 19.26 19.26 0 0 0 -1.781.746c-.66.318-1.278.676-1.9 1.032s-1.2.711-1.789 1.076a4.991 4.991 0 0 0 -.728.556 1.384 1.384 0 0 0 -.374.467.658.658 0 0 0 -.025.144c-.125 0-.251 0-.377 0-.375.009-.749.016-1.123.026l-1.979.051c.236-.091.474-.18.7-.282.353-.156.7-.326 1.036-.5.311-.157.611-.329.9-.506s.587-.368.863-.565c.3-.211.581-.427.848-.657.125-.108.244-.218.361-.33a2.707 2.707 0 0 0 .309-.327 2.365 2.365 0 0 0 .41-.793.468.468 0 0 0 0-.179.366.366 0 0 0 -.14-.2.9.9 0 0 0 -.442-.146 1.9 1.9 0 0 0 -.273-.011c-.106 0-.215.005-.32.015a2.216 2.216 0 0 0 -.328.067 1.946 1.946 0 0 0 -.235.074 5.819 5.819 0 0 0 -.561.251c-.31.158-.6.331-.889.51s-.564.37-.831.566-.532.416-.792.628c-.519.421-1.06.829-1.567 1.258-.224.19-.441.385-.667.574-.123.1-.249.2-.375.3s-.268.211-.4.319l-3.394.1-1.129.038c.169-.059.34-.116.507-.177a29.076 29.076 0 0 0 3.608-1.637c.565-.3 1.124-.6 1.654-.933a16.549 16.549 0 0 0 1.622-1.155 11.811 11.811 0 0 0 1.28-1.186 8.458 8.458 0 0 0 1.136-1.5 6.981 6.981 0 0 0 .393-.807 2.674 2.674 0 0 0 .193-.658 4.021 4.021 0 0 0 .038-.525 1.708 1.708 0 0 0 -.121-.532 1.305 1.305 0 0 0 -.19-.343 2.924 2.924 0 0 0 -.424-.48 4.282 4.282 0 0 0 -.875-.609 3.78 3.78 0 0 0 -.606-.258 5.871 5.871 0 0 0 -.778-.183 4.961 4.961 0 0 0 -1.277-.047c-.229.023-.454.071-.677.114a3.81 3.81 0 0 0 -.446.125 7.485 7.485 0 0 0 -1.077.478c-.289.15-.569.309-.842.474a16.45 16.45 0 0 0 -1.554 1.054c-.229.179-.449.363-.67.547s-.419.351-.607.538a13.476 13.476 0 0 0 -1.235 1.416 8.293 8.293 0 0 0 -.833 1.3c-.257.526-.449 1.07-.654 1.608-.175.463-.365.923-.545 1.385a11.509 11.509 0 0 0 -.469 1.322 4.088 4.088 0 0 0 -.1.779q-2.7.092-5.409.18l-1.327.044a17.741 17.741 0 0 0 2.523-1.126 11.554 11.554 0 0 0 2.4-1.642 7.24 7.24 0 0 0 .88-.95 2.43 2.43 0 0 0 .342-.563 1.56 1.56 0 0 0 .137-.51.774.774 0 0 0 -.014-.166.531.531 0 0 0 -.174-.271.91.91 0 0 0 -.18-.116 1.388 1.388 0 0 0 -.483-.126 1.931 1.931 0 0 0 -.323-.012 3.936 3.936 0 0 0 -.473.029 7.183 7.183 0 0 0 -1.54.39 9.2 9.2 0 0 0 -1.479.716 11.271 11.271 0 0 0 -1.119.746c-.385.293-.734.613-1.082.929s-.66.609-.981.919a22.524 22.524 0 0 0 -1.7 1.814l-.042.05q-2.7.092-5.394.179c.372-.176.736-.362 1.077-.566 1.334-.8 2.7-1.566 3.951-2.431a12.29 12.29 0 0 0 1.587-1.274 16.067 16.067 0 0 0 1.414-1.611 10.375 10.375 0 0 0 .992-1.516 9.533 9.533 0 0 0 .429-.947 2.78 2.78 0 0 0 .124-.4 3.237 3.237 0 0 0 .057-.536v-.016-.034a3.146 3.146 0 0 0 -.062-.859 3.394 3.394 0 0 0 -.431-1.005 3.766 3.766 0 0 0 -.733-.84 5.53 5.53 0 0 0 -.492-.38 3.734 3.734 0 0 0 -.623-.322 2.906 2.906 0 0 0 -.433-.149c-.166-.042-.335-.079-.505-.113a4.215 4.215 0 0 0 -.82-.053 3.906 3.906 0 0 0 -.612.063 7.3 7.3 0 0 0 -.875.184 7.431 7.431 0 0 0 -2.3 1.178 14.973 14.973 0 0 0 -1.553 1.307 17.12 17.12 0 0 0 -1.425 1.529 11.036 11.036 0 0 0 -1.1 1.539 13.379 13.379 0 0 0 -.849 1.795 17.734 17.734 0 0 0 -.95 3.106 10.1 10.1 0 0 0 -.17 1.722 6.048 6.048 0 0 0 .019.7c0 .02 0 .039.007.059q-2.752.081-5.507.156a9.32 9.32 0 0 0 1.775-.89c.539-.361 1.04-.745 1.525-1.142a9.349 9.349 0 0 0 1.587-1.536 3.892 3.892 0 0 0 .555-.964c.036-.1.064-.2.091-.294a1.382 1.382 0 0 0 .056-.226 1.693 1.693 0 0 0 0-.356c-.005-.017-.009-.035-.014-.052-.024-.055-.049-.11-.074-.164a1.363 1.363 0 0 0 -.163-.188.985.985 0 0 0 -.234-.149 1.37 1.37 0 0 0 -.252-.091 1.707 1.707 0 0 0 -.387-.058 2.422 2.422 0 0 0 -.451.021 3.155 3.155 0 0 0 -.489.111c-.051.015-.1.031-.151.05a5.331 5.331 0 0 0 -.644.3 7.18 7.18 0 0 0 -.972.662 10.808 10.808 0 0 0 -1.648 1.6c-.336.4-.645.82-.938 1.241l-.021.03-.037.054q-.367.534-.708 1.077c-.213.337-.422.676-.612 1.021q-3.684.09-7.37.152c.257-.09.514-.179.764-.278.667-.265 1.328-.543 1.951-.86a20.674 20.674 0 0 0 1.832-1.057 16.788 16.788 0 0 0 1.85-1.348 14.518 14.518 0 0 0 1.495-1.491 8.486 8.486 0 0 0 1.426-2.387 2.054 2.054 0 0 0 .108-.87 2.267 2.267 0 0 0 -.907-1.468 3.653 3.653 0 0 0 -.85-.546c-.207-.1-.414-.191-.634-.269a6.25 6.25 0 0 0 -.785-.214 5.8 5.8 0 0 0 -1.252-.094 7.415 7.415 0 0 0 -1.077.084 9.094 9.094 0 0 0 -1.287.268 11.8 11.8 0 0 0 -1.224.433 9.651 9.651 0 0 0 -3.494 2.4 14.6 14.6 0 0 0 -1.228 1.584 10.027 10.027 0 0 0 -.859 1.626 10.585 10.585 0 0 0 -.521 1.459c-.116.454-.191.914-.269 1.373a6.518 6.518 0 0 0 -.115 1.531c.005.065.034.13.046.2q-2.13.027-4.262.045.5-.373.962-.764a9.536 9.536 0 0 0 .882-.827 10.668 10.668 0 0 0 .846-1.041 9.392 9.392 0 0 0 .592-.954 6.769 6.769 0 0 0 .513-1.173 3.226 3.226 0 0 0 .118-.477 1.671 1.671 0 0 0 -.019-.6 1.7 1.7 0 0 0 -.106-.326.751.751 0 0 0 -.179-.232 1.32 1.32 0 0 0 -.435-.247 1.107 1.107 0 0 0 -.374-.068 1.463 1.463 0 0 0 -.4.037 1.119 1.119 0 0 0 -.168.044 2.3 2.3 0 0 0 -.739.44 4.65 4.65 0 0 0 -.833.98c-.208.309-.4.624-.575.942a18.055 18.055 0 0 0 -.964 1.961c-.174.426-.343.855-.479 1.288-.062.2-.12.4-.177.6-.041.143-.08.286-.118.43-.522 0-1.043.013-1.564.016-1.634.009-3.267.01-4.9.012s-3.268 0-4.9-.012c-.522 0-1.043-.013-1.564-.016-.039-.144-.077-.287-.118-.43-.058-.2-.115-.4-.178-.6-.136-.433-.3-.862-.478-1.288a18.055 18.055 0 0 0 -.964-1.961c-.177-.318-.367-.633-.575-.942a4.648 4.648 0 0 0 -.833-.98 2.3 2.3 0 0 0 -.739-.44 1.118 1.118 0 0 0 -.168-.044 1.466 1.466 0 0 0 -.4-.037 1.1 1.1 0 0 0 -.374.068 1.32 1.32 0 0 0 -.435.247.736.736 0 0 0 -.179.232 1.571 1.571 0 0 0 -.106.326 1.649 1.649 0 0 0 -.02.6 3.357 3.357 0 0 0 .118.477 6.924 6.924 0 0 0 .513 1.173 9.408 9.408 0 0 0 .593.954 10.673 10.673 0 0 0 .846 1.041 9.649 9.649 0 0 0 .881.827c.312.261.632.515.963.764q-2.131-.018-4.263-.045a1.584 1.584 0 0 0 .046-.2 6.518 6.518 0 0 0 -.114-1.531c-.078-.459-.154-.919-.27-1.373a10.453 10.453 0 0 0 -.52-1.459 10.027 10.027 0 0 0 -.859-1.626 14.733 14.733 0 0 0 -1.228-1.584 9.652 9.652 0 0 0 -3.494-2.4 11.879 11.879 0 0 0 -1.224-.433 9.094 9.094 0 0 0 -1.287-.268 7.415 7.415 0 0 0 -1.077-.084 5.814 5.814 0 0 0 -1.253.094 6.282 6.282 0 0 0 -.784.214c-.22.078-.427.173-.634.269a3.652 3.652 0 0 0 -.85.546 2.264 2.264 0 0 0 -.907 1.468 2.039 2.039 0 0 0 .108.87 8.034 8.034 0 0 0 .4.873 7.907 7.907 0 0 0 1.026 1.514 14.518 14.518 0 0 0 1.495 1.491 16.791 16.791 0 0 0 1.85 1.348 20.678 20.678 0 0 0 1.832 1.057c.623.317 1.283.6 1.95.86.251.1.508.188.764.278q-3.684-.066-7.369-.152c-.19-.345-.4-.684-.613-1.021q-.34-.543-.707-1.077l-.037-.054-.021-.03c-.293-.421-.6-.837-.938-1.241a10.806 10.806 0 0 0 -1.648-1.6 7.181 7.181 0 0 0 -.972-.662 5.334 5.334 0 0 0 -.644-.3c-.048-.019-.1-.035-.151-.05a3.141 3.141 0 0 0 -.49-.111 2.408 2.408 0 0 0 -.45-.021 1.707 1.707 0 0 0 -.387.058 1.37 1.37 0 0 0 -.252.091.965.965 0 0 0 -.234.149 1.443 1.443 0 0 0 -.164.188c-.025.054-.05.109-.074.164 0 .017-.008.035-.013.052a1.7 1.7 0 0 0 0 .356 1.49 1.49 0 0 0 .055.226c.028.1.056.2.092.294a3.893 3.893 0 0 0 .555.964 9.34 9.34 0 0 0 1.586 1.536c.486.4.986.781 1.526 1.142a9.309 9.309 0 0 0 1.774.89q-2.754-.072-5.507-.156c0-.02.006-.039.008-.059a6.282 6.282 0 0 0 .019-.7 10.3 10.3 0 0 0 -.17-1.722 17.653 17.653 0 0 0 -.951-3.106 13.253 13.253 0 0 0 -.849-1.795 10.945 10.945 0 0 0 -1.094-1.539 17.274 17.274 0 0 0 -1.425-1.529 15.079 15.079 0 0 0 -1.553-1.307 7.431 7.431 0 0 0 -2.3-1.178 7.337 7.337 0 0 0 -.875-.184 3.918 3.918 0 0 0 -.612-.063 4.215 4.215 0 0 0 -.82.053c-.17.034-.339.071-.505.113a2.917 2.917 0 0 0 -.434.149 3.724 3.724 0 0 0 -.622.322 5.257 5.257 0 0 0 -.492.38 3.74 3.74 0 0 0 -.733.84 3.394 3.394 0 0 0 -.431 1.005 3.146 3.146 0 0 0 -.062.859v.034.016a3.242 3.242 0 0 0 .058.536 2.78 2.78 0 0 0 .124.4 9.308 9.308 0 0 0 .429.947 10.375 10.375 0 0 0 .992 1.516 15.933 15.933 0 0 0 1.414 1.611 12.207 12.207 0 0 0 1.586 1.274c1.252.865 2.618 1.633 3.952 2.431.341.2.7.39 1.077.566q-2.7-.084-5.4-.179c-.013-.017-.028-.033-.041-.05a22.524 22.524 0 0 0 -1.7-1.814q-.481-.465-.981-.919c-.348-.316-.7-.636-1.083-.929a11.142 11.142 0 0 0 -1.118-.746 9.24 9.24 0 0 0 -1.479-.716 7.183 7.183 0 0 0 -1.54-.39 3.939 3.939 0 0 0 -.474-.029 1.939 1.939 0 0 0 -.323.012 1.389 1.389 0 0 0 -.482.126.881.881 0 0 0 -.18.116.531.531 0 0 0 -.174.271.667.667 0 0 0 -.014.166 1.535 1.535 0 0 0 .137.51 2.431 2.431 0 0 0 .342.563 7.241 7.241 0 0 0 .88.95 11.527 11.527 0 0 0 2.4 1.642 17.739 17.739 0 0 0 2.523 1.126l-1.327-.044q-2.7-.091-5.41-.18a4.006 4.006 0 0 0 -.1-.779 11.7 11.7 0 0 0 -.469-1.322c-.18-.462-.37-.922-.545-1.385-.2-.538-.4-1.082-.654-1.608a8.227 8.227 0 0 0 -.834-1.3 13.346 13.346 0 0 0 -1.234-1.416c-.188-.187-.4-.364-.608-.538s-.44-.368-.669-.547a16.45 16.45 0 0 0 -1.554-1.054c-.273-.165-.553-.324-.842-.474a7.533 7.533 0 0 0 -1.077-.478 3.864 3.864 0 0 0 -.446-.125c-.223-.043-.449-.091-.678-.114a4.961 4.961 0 0 0 -1.277.047 5.855 5.855 0 0 0 -.777.183 3.831 3.831 0 0 0 -.607.258 4.3 4.3 0 0 0 -.874.609 2.926 2.926 0 0 0 -.424.48 1.339 1.339 0 0 0 -.191.343 1.737 1.737 0 0 0 -.121.532 4.194 4.194 0 0 0 .039.525 2.673 2.673 0 0 0 .193.658 6.972 6.972 0 0 0 .393.807 8.457 8.457 0 0 0 1.136 1.5 11.814 11.814 0 0 0 1.28 1.186 16.55 16.55 0 0 0 1.622 1.155c.53.33 1.089.635 1.654.933a29.131 29.131 0 0 0 3.607 1.637c.168.061.339.118.508.177l-1.129-.038-3.395-.1c-.13-.108-.264-.214-.4-.319s-.252-.2-.376-.3c-.225-.189-.442-.384-.666-.574-.508-.429-1.049-.837-1.567-1.258-.26-.212-.518-.425-.793-.628s-.542-.387-.83-.566-.58-.352-.889-.51a5.816 5.816 0 0 0 -.561-.251 1.946 1.946 0 0 0 -.235-.074 2.215 2.215 0 0 0 -.328-.067c-.106-.01-.214-.015-.321-.015a1.912 1.912 0 0 0 -.273.011.9.9 0 0 0 -.441.146.366.366 0 0 0 -.14.2.45.45 0 0 0 0 .179 2.366 2.366 0 0 0 .41.793 2.7 2.7 0 0 0 .308.327c.117.112.237.222.362.33.267.23.552.446.847.657.277.2.568.383.864.565s.59.349.9.506c.341.172.683.342 1.036.5.229.1.467.191.7.282l-1.979-.051c-.374-.01-.749-.017-1.124-.026-.126 0-.251 0-.376 0a.658.658 0 0 0 -.025-.144 1.4 1.4 0 0 0 -.374-.467 5.045 5.045 0 0 0 -.728-.556c-.59-.365-1.183-.725-1.789-1.076s-1.237-.714-1.9-1.032c-.572-.275-1.168-.523-1.781-.746a17.866 17.866 0 0 0 -2.178-.608 20.283 20.283 0 0 0 -2.121-.34c-.4-.045-.816-.073-1.224-.087-.34-.012-.684-.016-1.024.005a13.733 13.733 0 0 0 -2.284.309 7.459 7.459 0 0 0 -2.032.734 4.979 4.979 0 0 0 -.851.6 3.8 3.8 0 0 0 -.634.72 3.019 3.019 0 0 0 -.5 1.647 3.135 3.135 0 0 0 .6 1.75 4.217 4.217 0 0 0 .541.669 6.739 6.739 0 0 0 .831.714 8.2 8.2 0 0 0 1.052.616 7.935 7.935 0 0 0 .875.386 16.224 16.224 0 0 0 4.241.856 22.074 22.074 0 0 0 2.344.075c.811-.026 1.608-.1 2.408-.2a11.632 11.632 0 0 0 1.984-.409 12.294 12.294 0 0 0 2.03-.81 9.507 9.507 0 0 0 1.609-1.054 3.512 3.512 0 0 0 .285-.257c.052-.052.1-.109.147-.163.353.018.707.029 1.061.042l1.267.044.382.014c-.272.1-.546.2-.812.308-.358.145-.7.315-1.031.488-.7.363-1.359.756-2.01 1.16a14.563 14.563 0 0 0 -1.794 1.273c-.134.113-.267.227-.393.345a1.3 1.3 0 0 0 -.266.309.328.328 0 0 0 -.01.313.487.487 0 0 0 .29.207 1.056 1.056 0 0 0 .475.014c.068-.011.141-.023.208-.039.1-.024.2-.05.29-.079.2-.061.4-.132.588-.207a15.069 15.069 0 0 0 2.079-.989c.659-.381 1.252-.814 1.861-1.236-.021.016-.044.03-.065.045.384-.263.764-.528 1.145-.794a4.965 4.965 0 0 0 .931-.755.453.453 0 0 0 .076-.112.2.2 0 0 0 .016-.113.254.254 0 0 0 -.04-.083l.507.019q2.541.087 5.083.169l.661.022c-.364.073-.727.147-1.092.217-.713.137-1.414.294-2.1.49-.8.231-1.6.486-2.368.778a18.686 18.686 0 0 0 -4.108 2.086 8.194 8.194 0 0 0 -1.62 1.454 4.408 4.408 0 0 0 -.525.762 4.54 4.54 0 0 0 -.4.929 3.359 3.359 0 0 0 -.132.936 2.454 2.454 0 0 0 .209.989 2.292 2.292 0 0 0 .339.539 2.7 2.7 0 0 0 .481.437 4.186 4.186 0 0 0 1.169.551 7.706 7.706 0 0 0 2.631.29 14.3 14.3 0 0 0 2.467-.356 13.982 13.982 0 0 0 2.524-.831 11.049 11.049 0 0 0 1.031-.522c.348-.205.7-.408 1.018-.637a12.557 12.557 0 0 0 1.567-1.36 18.867 18.867 0 0 0 1.389-1.56 10.052 10.052 0 0 0 1.026-1.569q.156-.3.288-.6a6.411 6.411 0 0 0 .374-1.093 8.18 8.18 0 0 0 .162-.938 6.206 6.206 0 0 0 .06-.8c0-.015 0-.031 0-.047l4.524.148a16.4 16.4 0 0 0 -2.033 1.139 10.253 10.253 0 0 0 -1.134.814c-.182.154-.351.313-.512.479a4.135 4.135 0 0 0 -.477.569 3.125 3.125 0 0 0 -.362.684 2.336 2.336 0 0 0 -.153.589 2.613 2.613 0 0 0 .006.7 1.633 1.633 0 0 0 .244.624 1.162 1.162 0 0 0 .631.54 1.826 1.826 0 0 0 .633.092 3.061 3.061 0 0 0 .517-.068 3.677 3.677 0 0 0 .489-.159c.121-.045.235-.1.348-.152a7.32 7.32 0 0 0 1.35-.844c.181-.138.352-.282.516-.43a5.88 5.88 0 0 0 .526-.562 8.161 8.161 0 0 0 .727-1.055c.426-.69.854-1.38 1.2-2.092a4.66 4.66 0 0 1 .28-.544c.037-.056.076-.11.111-.166.013-.021.02-.043.032-.064q3.771.125 7.542.241l-.039.019a12.973 12.973 0 0 0 -1.515.9c-.519.351-1.031.708-1.518 1.083s-.945.754-1.4 1.143a24.856 24.856 0 0 0 -2.809 2.779 15.789 15.789 0 0 0 -1.9 2.8 7.452 7.452 0 0 0 -.674 1.616 3.464 3.464 0 0 0 -.117.879 1.923 1.923 0 0 0 .04.37 1.513 1.513 0 0 0 .151.472 2.4 2.4 0 0 0 .348.5 4.032 4.032 0 0 0 .419.38 4.326 4.326 0 0 0 .927.537 4.654 4.654 0 0 0 1.109.326 5.607 5.607 0 0 0 1.275.068 9.026 9.026 0 0 0 1.2-.175 9.155 9.155 0 0 0 1.142-.342c.338-.122.675-.25.992-.4s.644-.323.952-.5l.042-.026a11.958 11.958 0 0 0 1.175-.787 13.181 13.181 0 0 0 1.006-.861 18.644 18.644 0 0 0 1.3-1.385 12.9 12.9 0 0 0 1.039-1.37 15.508 15.508 0 0 0 .938-1.662c.038-.079.075-.158.11-.237a7.65 7.65 0 0 0 .43-1.3 8.3 8.3 0 0 0 .227-1.653 5.147 5.147 0 0 0 -.2-1.718 4.121 4.121 0 0 0 -.316-.756 5.429 5.429 0 0 0 -.388-.593c2.292.062 4.584.126 6.877.177-.284.142-.568.283-.844.434-.415.227-.815.467-1.194.726a6.607 6.607 0 0 0 -1.107.962 5.068 5.068 0 0 0 -.483.6 3.762 3.762 0 0 0 -.34.665 3.434 3.434 0 0 0 -.233 1.32 2.134 2.134 0 0 0 .053.584 2.7 2.7 0 0 0 .142.408 1.553 1.553 0 0 0 .126.214 1.073 1.073 0 0 0 .16.217 1.342 1.342 0 0 0 .422.273 1.638 1.638 0 0 0 .762.1 2.479 2.479 0 0 0 1.189-.489 4.554 4.554 0 0 0 .853-.8 11.821 11.821 0 0 0 1.155-1.655 15.235 15.235 0 0 0 .948-1.8c.072-.164.14-.33.2-.5a3.975 3.975 0 0 0 .272-.826 2.023 2.023 0 0 1 .085-.38l.013-.023c2.54.051 5.081.1 7.622.122-.1.055-.209.106-.311.161-.609.328-1.242.629-1.852.957a24.1 24.1 0 0 0 -2.076 1.237 16.352 16.352 0 0 0 -1.633 1.294c-.521.457-1.011.932-1.489 1.413l-.08.081.047-.047-.069.069.022-.022-.038.039-.033.033.011-.011a12.719 12.719 0 0 0 -1.767 2.156 5.3 5.3 0 0 0 -.885 2.621 3.149 3.149 0 0 0 .143.958 3 3 0 0 0 .431.869 3.37 3.37 0 0 0 .835.823 5.123 5.123 0 0 0 .62.359 3.883 3.883 0 0 0 .468.208 5.171 5.171 0 0 0 1.235.306 5.475 5.475 0 0 0 .758.037 6.113 6.113 0 0 0 .754-.074 10.706 10.706 0 0 0 2.4-.73 16.1 16.1 0 0 0 2.155-1.147 9.208 9.208 0 0 0 1.631-1.265 11.792 11.792 0 0 0 1.371-1.56 14.182 14.182 0 0 0 .984-1.626l.033-.062c.134-.264.263-.528.38-.795.1-.219.183-.439.259-.663a4.982 4.982 0 0 0 .2-.793 7.11 7.11 0 0 0 .112-1.016 5.679 5.679 0 0 0 -.97-3.432c-.071-.12-.148-.239-.227-.357q3.276.02 6.551.018c-.28.216-.555.434-.806.669a10.486 10.486 0 0 0 -.845.856 6.463 6.463 0 0 0 -.788 1.1 4.826 4.826 0 0 0 -.457 1.143 3.071 3.071 0 0 0 -.09.622 3.264 3.264 0 0 0 .029.705.929.929 0 0 0 .309.56 1.767 1.767 0 0 0 .173.129 1 1 0 0 0 .4.128 1.38 1.38 0 0 0 .889-.212 6.63 6.63 0 0 0 1.13-.992 8.857 8.857 0 0 0 .963-1.167 9.441 9.441 0 0 0 .649-1.12c.067-.132.129-.264.187-.4a5.959 5.959 0 0 0 .313-.886 5.142 5.142 0 0 0 .125-.571 3.167 3.167 0 0 0 .023-.524c0-.015 0-.029-.005-.044 1.312-.006 2.625-.021 3.937-.032 1.312.011 2.624.026 3.936.032v.044a3.167 3.167 0 0 0 .023.524 5.151 5.151 0 0 0 .124.571 6.192 6.192 0 0 0 .313.886c.059.133.121.265.188.4a9.446 9.446 0 0 0 .649 1.12 8.771 8.771 0 0 0 .962 1.167 6.64 6.64 0 0 0 1.131.992 1.378 1.378 0 0 0 .889.212 1 1 0 0 0 .4-.128 1.893 1.893 0 0 0 .173-.129.934.934 0 0 0 .309-.56 3.264 3.264 0 0 0 .028-.705 3 3 0 0 0 -.089-.622 4.828 4.828 0 0 0 -.458-1.143 6.4 6.4 0 0 0 -.787-1.1 10.481 10.481 0 0 0 -.845-.856c-.251-.235-.527-.453-.806-.669q3.275.006 6.55-.018c-.078.118-.155.237-.226.357a5.679 5.679 0 0 0 -.97 3.432 6.973 6.973 0 0 0 .112 1.016 4.988 4.988 0 0 0 .2.793c.076.224.163.444.259.663.117.267.246.531.38.795l.032.062a14.186 14.186 0 0 0 .984 1.626 11.875 11.875 0 0 0 1.372 1.56 9.2 9.2 0 0 0 1.63 1.265 16.111 16.111 0 0 0 2.156 1.147 10.691 10.691 0 0 0 2.4.73 6.113 6.113 0 0 0 .754.074 5.475 5.475 0 0 0 .758-.037 5.183 5.183 0 0 0 1.235-.306 3.883 3.883 0 0 0 .468-.208 5.28 5.28 0 0 0 .62-.359 3.405 3.405 0 0 0 .835-.823 3 3 0 0 0 .431-.869 3.147 3.147 0 0 0 .143-.958 5.311 5.311 0 0 0 -.885-2.621 12.769 12.769 0 0 0 -1.767-2.156l.011.011-.033-.033-.038-.039.021.022-.068-.069c.016.015.031.031.047.047l-.08-.081c-.478-.481-.968-.956-1.489-1.413a16.352 16.352 0 0 0 -1.633-1.294c-.656-.443-1.357-.85-2.076-1.237-.61-.328-1.243-.629-1.852-.957-.1-.055-.208-.106-.311-.161 2.541-.026 5.082-.071 7.622-.122l.013.023a2.02 2.02 0 0 1 .084.38 4.037 4.037 0 0 0 .273.826c.064.166.132.332.2.5a15.087 15.087 0 0 0 .948 1.8 11.821 11.821 0 0 0 1.155 1.655 4.578 4.578 0 0 0 .852.8 2.488 2.488 0 0 0 1.189.489 1.64 1.64 0 0 0 .763-.1 1.353 1.353 0 0 0 .422-.273 1.072 1.072 0 0 0 .16-.217 1.559 1.559 0 0 0 .126-.214 2.823 2.823 0 0 0 .142-.408 2.135 2.135 0 0 0 .053-.584 3.433 3.433 0 0 0 -.233-1.32 3.831 3.831 0 0 0 -.34-.665 5.169 5.169 0 0 0 -.483-.6 6.606 6.606 0 0 0 -1.107-.962c-.379-.259-.779-.5-1.194-.726-.276-.151-.561-.292-.845-.434 2.293-.051 4.585-.115 6.878-.177a5.289 5.289 0 0 0 -.388.593 4.121 4.121 0 0 0 -.316.756 5.174 5.174 0 0 0 -.2 1.718 8.3 8.3 0 0 0 .228 1.653 7.653 7.653 0 0 0 .43 1.3c.035.079.071.158.109.237a15.517 15.517 0 0 0 .939 1.662 12.9 12.9 0 0 0 1.039 1.37 18.65 18.65 0 0 0 1.3 1.385 13.192 13.192 0 0 0 1.006.861 11.943 11.943 0 0 0 1.174.787l.043.026c.308.178.622.345.952.5s.654.278.992.4a9.152 9.152 0 0 0 1.142.342 9.026 9.026 0 0 0 1.2.175 5.607 5.607 0 0 0 1.275-.068 4.667 4.667 0 0 0 1.109-.326 4.375 4.375 0 0 0 .927-.537 4.135 4.135 0 0 0 .419-.38 2.43 2.43 0 0 0 .347-.5 1.489 1.489 0 0 0 .152-.472 2 2 0 0 0 .04-.37 3.464 3.464 0 0 0 -.117-.879 7.456 7.456 0 0 0 -.675-1.616 15.682 15.682 0 0 0 -1.9-2.8 24.849 24.849 0 0 0 -2.808-2.779c-.455-.389-.918-.771-1.4-1.143s-1-.732-1.517-1.083a12.97 12.97 0 0 0 -1.515-.9l-.039-.019q3.771-.111 7.541-.241c.012.021.019.043.033.064.035.056.074.11.111.166a4.826 4.826 0 0 1 .28.544c.349.712.777 1.4 1.2 2.092a8.254 8.254 0 0 0 .726 1.055 6.024 6.024 0 0 0 .527.562c.164.148.335.292.515.43a7.294 7.294 0 0 0 1.351.844c.113.054.227.107.348.152a3.68 3.68 0 0 0 .489.159 3.062 3.062 0 0 0 .517.068 1.83 1.83 0 0 0 .633-.092 1.162 1.162 0 0 0 .631-.54 1.649 1.649 0 0 0 .244-.624 2.653 2.653 0 0 0 .006-.7 2.336 2.336 0 0 0 -.153-.589 3.125 3.125 0 0 0 -.362-.684 4.135 4.135 0 0 0 -.477-.569c-.161-.166-.33-.325-.512-.479a10.256 10.256 0 0 0 -1.134-.814 16.48 16.48 0 0 0 -2.033-1.139l4.524-.148v.047a6.571 6.571 0 0 0 .06.8 7.97 7.97 0 0 0 .163.938 6.33 6.33 0 0 0 .374 1.093q.132.3.288.6a10.057 10.057 0 0 0 1.026 1.569 18.685 18.685 0 0 0 1.389 1.56 12.488 12.488 0 0 0 1.567 1.36c.317.229.67.432 1.018.637a10.933 10.933 0 0 0 1.031.522 13.971 13.971 0 0 0 2.523.831 14.326 14.326 0 0 0 2.467.356 7.7 7.7 0 0 0 2.631-.29 4.159 4.159 0 0 0 1.169-.551 2.675 2.675 0 0 0 .482-.437 2.327 2.327 0 0 0 .339-.539 2.471 2.471 0 0 0 .209-.989 3.4 3.4 0 0 0 -.132-.936 4.6 4.6 0 0 0 -.4-.929 4.357 4.357 0 0 0 -.526-.762 8.159 8.159 0 0 0 -1.619-1.454 18.672 18.672 0 0 0 -4.066-2.082c-.765-.292-1.563-.547-2.368-.778-.686-.2-1.388-.353-2.1-.49-.365-.07-.728-.144-1.092-.217l.661-.022q2.543-.085 5.083-.169l.507-.019a.254.254 0 0 0 -.04.083.2.2 0 0 0 .015.113.489.489 0 0 0 .077.112 4.959 4.959 0 0 0 .93.755q.572.4 1.146.794c-.022-.015-.044-.029-.066-.045.61.422 1.2.855 1.862 1.236a15.013 15.013 0 0 0 2.079.989c.192.075.387.146.588.207.1.029.192.055.29.079.067.016.14.028.208.039a1.052 1.052 0 0 0 .474-.014.489.489 0 0 0 .291-.207.331.331 0 0 0 -.01-.313 1.3 1.3 0 0 0 -.266-.309c-.126-.118-.259-.232-.393-.345a14.56 14.56 0 0 0 -1.794-1.273c-.651-.4-1.314-.8-2.01-1.16-.332-.173-.673-.343-1.032-.488-.266-.109-.539-.208-.811-.308l.381-.014 1.268-.044c.354-.013.708-.024 1.061-.042.05.054.1.111.147.163a3.522 3.522 0 0 0 .285.257 9.468 9.468 0 0 0 1.609 1.054 12.294 12.294 0 0 0 2.03.81 11.641 11.641 0 0 0 1.983.409c.8.1 1.6.17 2.409.2a22.074 22.074 0 0 0 2.344-.075 16.208 16.208 0 0 0 4.24-.856 7.773 7.773 0 0 0 .875-.386 8.212 8.212 0 0 0 1.053-.616 6.81 6.81 0 0 0 .831-.714 4.156 4.156 0 0 0 .54-.669 3.128 3.128 0 0 0 .6-1.75 3.019 3.019 0 0 0 -.499-1.651zm-153.531 3.557a19.091 19.091 0 0 1 -2.051.818 11.473 11.473 0 0 1 -1.173.312c-.382.076-.767.137-1.157.189-.674.07-1.349.115-2.031.138-.612.02-1.226 0-1.837-.032a20.067 20.067 0 0 1 -3.029-.468 8.543 8.543 0 0 1 -.821-.265c-.28-.108-.549-.224-.814-.35a7.3 7.3 0 0 1 -1.085-.726 4.884 4.884 0 0 1 -.7-.81 3.158 3.158 0 0 1 -.272-.664 2.605 2.605 0 0 1 -.03-.6 2.177 2.177 0 0 1 .118-.381 2.591 2.591 0 0 1 .281-.383 3.77 3.77 0 0 1 .457-.353 5.357 5.357 0 0 1 .782-.333 11.543 11.543 0 0 1 1.857-.372c.406-.039.811-.064 1.22-.068.34 0 .678.008 1.017.028.572.05 1.136.124 1.7.223.481.087.952.2 1.417.316a14.314 14.314 0 0 1 1.538.519c.477.195.937.406 1.387.631.56.3 1.089.623 1.606.96a12.33 12.33 0 0 1 1.32.945c.079.07.156.141.234.212a3.824 3.824 0 0 0 .378.363c-.103.049-.206.102-.312.151zm4.182 1.346a16.3 16.3 0 0 1 -1.344 1.028c-.42.286-.851.565-1.311.818a15.014 15.014 0 0 1 -1.4.671 9.471 9.471 0 0 1 -.993.331c.071-.063.147-.125.222-.186.151-.124.312-.239.472-.356l.008-.005.007-.005.009-.007h-.005l.037-.025.021-.015-.026.018c.613-.411 1.279-.78 1.937-1.152q1.016-.575 2.1-1.083l.472-.219zm1.786-2.753c-.229-.1-.452-.2-.673-.3-.28-.137-.561-.273-.829-.422-.285-.158-.562-.321-.831-.492s-.518-.336-.773-.508c-.234-.157-.461-.318-.674-.488a5.588 5.588 0 0 1 -.934-.981l-.048-.079c.059.005.115.012.173.022a3.174 3.174 0 0 1 .44.168c.382.193.746.406 1.1.628a9.962 9.962 0 0 1 .989.687l.076.062c.314.272.616.55.932.822q.521.444 1.053.882zm.1.081.014.011.013.011zm.152.124h.005zm5.016-1.295c-.556-.294-1.093-.607-1.625-.923s-1.034-.619-1.526-.947l-.088-.059.031.021a14.093 14.093 0 0 1 -2.4-2.074 9.5 9.5 0 0 1 -.7-.936 6.148 6.148 0 0 1 -.447-.837 3.118 3.118 0 0 1 -.184-.773 1.2 1.2 0 0 1 .023-.187 1.446 1.446 0 0 1 .083-.155 2.233 2.233 0 0 1 .213-.211 2.452 2.452 0 0 1 .969-.444c.133-.024.268-.042.4-.053a4.211 4.211 0 0 1 .476.043c.064.012.127.026.189.043.114.03.223.063.33.1a10.824 10.824 0 0 1 1.769.985 14.553 14.553 0 0 1 2.472 2.137 12 12 0 0 1 .913 1.234 9.7 9.7 0 0 1 .7 1.337c.28.664.551 1.332.772 2.008.1.3.181.6.254.91-.893-.375-1.78-.771-2.621-1.211zm3.651 4.153a9.575 9.575 0 0 1 -.636 1.76 13.7 13.7 0 0 1 -2.252 2.945c-.31.311-.63.616-.979.9a10.426 10.426 0 0 1 -1.175.85 11.386 11.386 0 0 1 -1.017.515c-.353.155-.72.292-1.1.419a15.819 15.819 0 0 1 -2.464.535 8.578 8.578 0 0 1 -1.2.049 6.992 6.992 0 0 1 -.876-.147 4.4 4.4 0 0 1 -.523-.2 2.754 2.754 0 0 1 -.269-.183 1.973 1.973 0 0 1 -.152-.184 2.067 2.067 0 0 1 -.134-.338 2.613 2.613 0 0 1 -.022-.631 3.72 3.72 0 0 1 .258-.812c.014-.034.03-.068.046-.1a5.559 5.559 0 0 1 .776-1.047 11.023 11.023 0 0 1 1.873-1.426 21 21 0 0 1 3.794-1.633c.564-.179 1.135-.351 1.722-.488.626-.146 1.263-.264 1.9-.377.579-.1 1.158-.2 1.734-.313.236-.045.471-.09.706-.137.001.015-.002.031-.007.047zm7.568-.136c-.131.279-.295.55-.453.823s-.333.566-.507.848a11.6 11.6 0 0 1 -1.107 1.585 6.561 6.561 0 0 1 -1.079.9 4.974 4.974 0 0 1 -.731.362 3.425 3.425 0 0 1 -.338.089c-.032 0-.063.007-.1.009l-.018-.023a2 2 0 0 1 -.181-.361 1.953 1.953 0 0 1 -.047-.443 2.527 2.527 0 0 1 .138-.532v.008l.016-.036a4.1 4.1 0 0 1 .46-.665 9.316 9.316 0 0 1 1.189-1.017c.459-.338.935-.665 1.421-.984a13.177 13.177 0 0 1 1.437-.786zm1.693-2.357c-.6-.215-1.163-.462-1.719-.725s-1.077-.549-1.592-.847a11.785 11.785 0 0 1 -1.48-1.037 7.318 7.318 0 0 1 -1.17-1.24c-.042-.066-.083-.132-.119-.2h.015a5.257 5.257 0 0 1 .7.1 8.065 8.065 0 0 1 1.282.467 10.452 10.452 0 0 1 1.963 1.247c.329.281.637.574.942.868s.633.612.936.925c.172.178.34.358.507.538zm7.563-.486-.021-.015-.033-.022.023.016c-.914-.626-1.779-1.283-2.632-1.951-.426-.334-.851-.668-1.252-1.019a12.8 12.8 0 0 1 -1.058-1.051 17.573 17.573 0 0 1 -1.185-1.53 9.983 9.983 0 0 1 -.86-1.558 3.773 3.773 0 0 1 -.141-.4 2.637 2.637 0 0 1 -.072-.406 2.851 2.851 0 0 1 .073-.712 3.553 3.553 0 0 1 .332-.626 3.413 3.413 0 0 1 .419-.423 2.94 2.94 0 0 1 .287-.177c.113-.043.226-.081.344-.114.051-.007.1-.013.155-.018.145 0 .289.018.433.036a5.091 5.091 0 0 1 .576.162 7.762 7.762 0 0 1 1.061.581 15.455 15.455 0 0 1 1.429 1.175 14.735 14.735 0 0 1 1.173 1.187 10.068 10.068 0 0 1 .953 1.278 11.677 11.677 0 0 1 .719 1.354 13.371 13.371 0 0 1 .645 1.879 11.515 11.515 0 0 1 .343 2c.012.47 0 .941 0 1.411l-.024-.013c-.578-.327-1.134-.669-1.674-1.028l-.024-.016zm-5.031 8.644.009-.009-.028.028zm8.147-2.254a7.318 7.318 0 0 1 -.241 1.151 8.373 8.373 0 0 1 -.477 1.178 12.136 12.136 0 0 1 -1.185 1.784c-.436.546-.9 1.075-1.4 1.593a15.064 15.064 0 0 1 -1.129 1.028 11.36 11.36 0 0 1 -1.286.9 12.608 12.608 0 0 1 -1.873.848 7.885 7.885 0 0 1 -1.147.257 6.273 6.273 0 0 1 -.7.015 5.242 5.242 0 0 1 -.567-.1 4.814 4.814 0 0 1 -.539-.208 3.428 3.428 0 0 1 -.419-.286 2.387 2.387 0 0 1 -.28-.32 1.811 1.811 0 0 1 -.082-.2 2.359 2.359 0 0 1 -.014-.511 4.085 4.085 0 0 1 .3-.979c.028-.065.059-.131.09-.2a13.5 13.5 0 0 1 1.2-1.876 20.719 20.719 0 0 1 1.573-1.8q.33-.327.676-.647c.884-.816 1.858-1.579 2.828-2.341a29.3 29.3 0 0 1 2.893-2.051c.248-.141.5-.274.751-.414.146-.081.291-.162.441-.237a5.817 5.817 0 0 1 .555 1.345 5.144 5.144 0 0 1 .1.994 9.319 9.319 0 0 1 -.065 1.081zm7.145-5.364a13.213 13.213 0 0 1 -1.6-.9c-.488-.33-.944-.685-1.388-1.046-.258-.218-.513-.438-.742-.673a6.381 6.381 0 0 1 -.6-.712 3.934 3.934 0 0 1 -.446-.879c-.017-.068-.035-.135-.047-.2s-.015-.123-.018-.185h.033q.109.011.219.03a3.833 3.833 0 0 1 .547.205 7.3 7.3 0 0 1 .644.384c.18.119.344.249.508.38.215.183.427.368.62.565.211.214.412.431.6.655.347.4.647.831.944 1.256.244.354.475.713.7 1.074l.032.053zm1.5 2.19c-.091.233-.18.466-.281.7-.077.171-.156.341-.234.512l-.022.048.009-.022a14.244 14.244 0 0 1 -.874 1.647 11.563 11.563 0 0 1 -1.121 1.525 4.765 4.765 0 0 1 -.654.57 2.555 2.555 0 0 1 -.255.133 2.278 2.278 0 0 1 -.131-.317 3.851 3.851 0 0 1 -.073-.939v-.038a4.233 4.233 0 0 1 .083-.485 3.454 3.454 0 0 1 .136-.422c.008-.018.018-.036.026-.055-.007.016-.015.031-.022.047l.033-.073.009-.019.009-.02v.007-.007a.45.45 0 0 1 -.023.05 4.549 4.549 0 0 1 .377-.6c.123-.164.257-.321.395-.477a12.571 12.571 0 0 1 2.067-1.641c.194-.122.4-.235.609-.34a1.341 1.341 0 0 1 -.061.22zm33.3-3.267a15.95 15.95 0 0 1 .736-1.571 10.015 10.015 0 0 1 .929-1.459 4.224 4.224 0 0 1 .6-.594l.127-.076a1.227 1.227 0 0 1 .031.208 3.881 3.881 0 0 1 -.242.872c-.009.026-.019.052-.029.078a7.536 7.536 0 0 1 -.6 1.205c-.243.395-.5.787-.784 1.166a12 12 0 0 1 -1.078 1.154c.089-.326.192-.654.31-.979zm-17.389-.171c-.287-.379-.541-.771-.783-1.166a7.536 7.536 0 0 1 -.6-1.205c-.011-.026-.02-.052-.03-.078a3.934 3.934 0 0 1 -.241-.872 1.136 1.136 0 0 1 .031-.208l.127.076a4.216 4.216 0 0 1 .6.594 9.936 9.936 0 0 1 .93 1.459 15.947 15.947 0 0 1 .735 1.571c.119.325.221.653.313.983a12.14 12.14 0 0 1 -1.082-1.15zm-8.844.378a29.354 29.354 0 0 1 -3.6-1.982 11.656 11.656 0 0 1 -1.949-1.7 9.5 9.5 0 0 1 -1.436-2.243 2.361 2.361 0 0 1 -.152-.581 1 1 0 0 1 .017-.155 1.724 1.724 0 0 1 .089-.155 3.145 3.145 0 0 1 .4-.408 3.4 3.4 0 0 1 .39-.233 6.192 6.192 0 0 1 .855-.294 5.65 5.65 0 0 1 .713-.075 7.8 7.8 0 0 1 1.093.074 10.345 10.345 0 0 1 1.528.428 9.88 9.88 0 0 1 1.576.839 8.4 8.4 0 0 1 1.358 1.193 12.686 12.686 0 0 1 .865 1.17 9.552 9.552 0 0 1 .755 1.366 9.759 9.759 0 0 1 .474 1.468 8.418 8.418 0 0 1 .19 1.371c.013.415 0 .831-.012 1.245-.362-.162-.738-.309-1.109-.459-.694-.271-1.379-.553-2.045-.865zm4.731 7.145a5.547 5.547 0 0 1 -.241 1.037 9.488 9.488 0 0 1 -.468 1.1 14.548 14.548 0 0 1 -.859 1.421 11.188 11.188 0 0 1 -1.03 1.259 10.289 10.289 0 0 1 -.987.872 13.368 13.368 0 0 1 -1.206.813c-.376.215-.757.425-1.163.608s-.844.362-1.289.517a8 8 0 0 1 -1.148.273c-.161.011-.318.015-.478.011-.169-.021-.331-.049-.5-.085a4.944 4.944 0 0 1 -.6-.226 4.122 4.122 0 0 1 -.487-.325 3.054 3.054 0 0 1 -.362-.424 3.123 3.123 0 0 1 -.243-.593 3.363 3.363 0 0 1 -.036-.826 3.674 3.674 0 0 1 .157-.647c.049-.135.1-.269.161-.4.037-.083.075-.166.115-.248a8.594 8.594 0 0 1 .742-1.132 11.918 11.918 0 0 1 .866-.975c.682-.675 1.41-1.327 2.169-1.956.395-.326.8-.65 1.232-.95.374-.258.758-.5 1.155-.742.854-.492 1.753-.938 2.657-1.379.364-.178.734-.348 1.105-.52.09.181.178.361.254.544a7.985 7.985 0 0 1 .4 1.2 5.478 5.478 0 0 1 .108.826 6.346 6.346 0 0 1 -.024.951zm7.378-2.761a10.28 10.28 0 0 1 -1.5 2.808 5.037 5.037 0 0 1 -.574.638l-.012-.026a2.877 2.877 0 0 1 -.129-.713 3.031 3.031 0 0 1 .05-.464 2.744 2.744 0 0 1 .113-.4c.023-.057.046-.114.071-.171a3.061 3.061 0 0 1 .22-.42c.118-.185.248-.365.385-.543a10.087 10.087 0 0 1 .921-.97c.224-.207.451-.411.69-.609a7.534 7.534 0 0 1 -.238.874zm12.077-.261a10.091 10.091 0 0 1 .921.97c.137.178.267.358.385.543a2.95 2.95 0 0 1 .219.42q.037.086.072.171a2.876 2.876 0 0 1 .113.4 2.912 2.912 0 0 1 .049.464 2.786 2.786 0 0 1 -.129.713l-.011.026a5.035 5.035 0 0 1 -.574-.638 10.283 10.283 0 0 1 -1.5-2.808 7.529 7.529 0 0 1 -.238-.87c.242.202.469.406.693.613zm11.422 1.4c.4.239.781.484 1.155.742.434.3.837.624 1.231.95.76.629 1.488 1.281 2.169 1.956a11.738 11.738 0 0 1 .866.975 8.5 8.5 0 0 1 .743 1.132c.04.082.078.165.115.248.058.133.112.267.161.4a3.766 3.766 0 0 1 .157.647 3.411 3.411 0 0 1 -.036.826 3.121 3.121 0 0 1 -.243.593 3 3 0 0 1 -.363.424 3.965 3.965 0 0 1 -.487.325 4.88 4.88 0 0 1 -.6.226c-.163.036-.325.064-.494.085-.16 0-.317 0-.478-.011a8.044 8.044 0 0 1 -1.149-.273c-.444-.155-.871-.327-1.289-.517s-.786-.393-1.162-.608a13.38 13.38 0 0 1 -1.207-.813 10.409 10.409 0 0 1 -.987-.872 11.285 11.285 0 0 1 -1.029-1.259 14.754 14.754 0 0 1 -.86-1.421 9.664 9.664 0 0 1 -.467-1.1 5.631 5.631 0 0 1 -.242-1.037 6.625 6.625 0 0 1 -.026-.945 5.608 5.608 0 0 1 .109-.826 7.989 7.989 0 0 1 .4-1.2c.076-.183.164-.363.254-.544.37.172.741.342 1.105.52.901.446 1.799.892 2.652 1.384zm-1.808-4.652c-.371.15-.747.3-1.109.459-.016-.414-.025-.83-.012-1.245a8.42 8.42 0 0 1 .189-1.371 10 10 0 0 1 .474-1.468 9.662 9.662 0 0 1 .756-1.366 12.5 12.5 0 0 1 .865-1.17 8.407 8.407 0 0 1 1.358-1.193 9.881 9.881 0 0 1 1.576-.839 10.346 10.346 0 0 1 1.528-.428 7.794 7.794 0 0 1 1.092-.074 5.645 5.645 0 0 1 .714.075 6.193 6.193 0 0 1 .855.294 3.306 3.306 0 0 1 .389.233 3.091 3.091 0 0 1 .4.408 1.716 1.716 0 0 1 .089.155 1.15 1.15 0 0 1 .017.155 2.363 2.363 0 0 1 -.152.581 9.533 9.533 0 0 1 -1.436 2.243 11.735 11.735 0 0 1 -1.949 1.7 29.293 29.293 0 0 1 -3.6 1.982c-.667.314-1.352.596-2.044.876zm11.718 3.948c.139.156.273.313.4.477a4.661 4.661 0 0 1 .378.6c-.009-.016-.016-.033-.024-.05v.007-.007l.01.02.009.019.033.073c-.007-.016-.015-.031-.022-.047.008.019.017.037.025.055a3.455 3.455 0 0 1 .137.422 4.24 4.24 0 0 1 .083.485v.038a3.9 3.9 0 0 1 -.073.939 2.278 2.278 0 0 1 -.131.317 2.554 2.554 0 0 1 -.255-.133 4.707 4.707 0 0 1 -.654-.57 11.473 11.473 0 0 1 -1.121-1.525 14.252 14.252 0 0 1 -.875-1.647l.01.022-.022-.048c-.078-.171-.157-.341-.234-.512-.1-.231-.191-.464-.281-.7a1.341 1.341 0 0 1 -.066-.219q.316.157.609.34a12.52 12.52 0 0 1 2.064 1.651zm-1.112-3.941.032-.053c.224-.361.455-.72.7-1.074.3-.425.6-.851.944-1.256.191-.224.392-.441.6-.655.193-.2.4-.382.62-.565.164-.131.328-.261.507-.38a7.463 7.463 0 0 1 .645-.384 3.832 3.832 0 0 1 .547-.205q.109-.019.219-.03h.033a1.66 1.66 0 0 1 -.019.185 2.086 2.086 0 0 1 -.047.2 3.93 3.93 0 0 1 -.445.879 6.488 6.488 0 0 1 -.6.712c-.229.235-.484.455-.743.673-.443.361-.9.716-1.387 1.046a13.225 13.225 0 0 1 -1.606.9zm15.3 7.615.019.019-.028-.028zm-3.477-2.96c.97.762 1.944 1.525 2.828 2.341q.345.319.676.647a20.713 20.713 0 0 1 1.573 1.8 13.6 13.6 0 0 1 1.2 1.876c.031.065.061.131.09.2a4.131 4.131 0 0 1 .3.979 2.359 2.359 0 0 1 -.014.511 2.013 2.013 0 0 1 -.082.2 2.385 2.385 0 0 1 -.28.32 3.5 3.5 0 0 1 -.419.286 4.755 4.755 0 0 1 -.54.208 5.224 5.224 0 0 1 -.566.1 6.291 6.291 0 0 1 -.7-.015 7.873 7.873 0 0 1 -1.146-.257 12.607 12.607 0 0 1 -1.873-.848 11.374 11.374 0 0 1 -1.287-.9 15.253 15.253 0 0 1 -1.128-1.028c-.5-.518-.965-1.047-1.4-1.593a12.138 12.138 0 0 1 -1.186-1.784 8.368 8.368 0 0 1 -.476-1.178 7.1 7.1 0 0 1 -.241-1.151 9.1 9.1 0 0 1 -.071-1.069 5.218 5.218 0 0 1 .1-.994 5.9 5.9 0 0 1 .555-1.345c.151.075.295.156.442.237.249.14.5.273.751.414a29.543 29.543 0 0 1 2.888 2.042zm-1.568-5.675c-.541.359-1.1.7-1.674 1.028l-.024.013c0-.47-.012-.941 0-1.411a11.515 11.515 0 0 1 .343-2 13.371 13.371 0 0 1 .645-1.879 11.681 11.681 0 0 1 .719-1.354 10.068 10.068 0 0 1 .953-1.278 14.574 14.574 0 0 1 1.173-1.187 15.327 15.327 0 0 1 1.429-1.175 7.691 7.691 0 0 1 1.06-.581 5.166 5.166 0 0 1 .577-.162c.143-.018.288-.031.432-.036q.079.007.156.018c.118.033.231.071.343.114a2.843 2.843 0 0 1 .288.177 3.482 3.482 0 0 1 .419.423 3.555 3.555 0 0 1 .332.626 2.9 2.9 0 0 1 .073.712 2.641 2.641 0 0 1 -.072.406c-.038.136-.089.27-.141.4a9.989 9.989 0 0 1 -.866 1.566 17.559 17.559 0 0 1 -1.184 1.53 12.669 12.669 0 0 1 -1.059 1.051c-.4.351-.826.685-1.251 1.019-.853.668-1.719 1.325-2.632 1.951l.023-.016-.033.022-.022.015.011-.007zm7.577.477-.27.1c.167-.18.336-.36.508-.538.3-.313.619-.619.935-.925s.614-.587.942-.868a10.492 10.492 0 0 1 1.964-1.247 8.031 8.031 0 0 1 1.282-.467 5.257 5.257 0 0 1 .7-.1h.015c-.036.068-.078.134-.119.2a7.36 7.36 0 0 1 -1.17 1.24 11.785 11.785 0 0 1 -1.48 1.037c-.516.3-1.045.58-1.592.847s-1.125.505-1.721.72zm3.029 2.921c.486.319.962.646 1.421.984a9.319 9.319 0 0 1 1.189 1.017 4.1 4.1 0 0 1 .46.665l.016.036v-.008a2.588 2.588 0 0 1 .138.532 2.01 2.01 0 0 1 -.047.443 2.065 2.065 0 0 1 -.181.361l-.018.023c-.032 0-.063-.005-.1-.009a3.424 3.424 0 0 1 -.338-.089 4.986 4.986 0 0 1 -.732-.362 6.6 6.6 0 0 1 -1.078-.9 11.515 11.515 0 0 1 -1.107-1.585c-.174-.282-.344-.564-.507-.848s-.322-.544-.453-.823c-.034-.074-.068-.148-.1-.222a13.265 13.265 0 0 1 1.431.784zm7.509-4.272c.221-.676.492-1.344.771-2.008a9.71 9.71 0 0 1 .7-1.337 12.005 12.005 0 0 1 .913-1.234 14.516 14.516 0 0 1 2.472-2.137 10.783 10.783 0 0 1 1.769-.985c.107-.037.216-.07.33-.1.062-.017.124-.031.188-.043a4.25 4.25 0 0 1 .477-.043c.136.011.271.029.4.053a2.456 2.456 0 0 1 .968.444 2.136 2.136 0 0 1 .214.211 1.446 1.446 0 0 1 .083.155 1.193 1.193 0 0 1 .023.187 3.075 3.075 0 0 1 -.185.773 6.035 6.035 0 0 1 -.446.837 9.351 9.351 0 0 1 -.7.936 14.053 14.053 0 0 1 -2.4 2.074l.032-.021-.088.059c-.493.328-1.007.639-1.526.947s-1.069.629-1.625.923c-.841.444-1.729.84-2.629 1.219.071-.306.154-.609.253-.911zm3.052 4.623c.587.137 1.158.309 1.722.488a21 21 0 0 1 3.794 1.633 11.023 11.023 0 0 1 1.873 1.426 5.559 5.559 0 0 1 .776 1.047c.016.034.031.068.046.1a3.718 3.718 0 0 1 .258.812 2.613 2.613 0 0 1 -.022.631 2.158 2.158 0 0 1 -.134.338 1.986 1.986 0 0 1 -.153.184 2.626 2.626 0 0 1 -.268.183 4.4 4.4 0 0 1 -.523.2 7.054 7.054 0 0 1 -.876.147 8.6 8.6 0 0 1 -1.2-.049 15.819 15.819 0 0 1 -2.464-.535c-.374-.127-.741-.264-1.094-.419a11.244 11.244 0 0 1 -1.017-.515 10.534 10.534 0 0 1 -1.18-.837c-.348-.289-.668-.594-.978-.9a13.664 13.664 0 0 1 -2.252-2.945 9.573 9.573 0 0 1 -.636-1.76c-.005-.016-.008-.032-.013-.048.235.047.47.092.705.137.576.11 1.156.209 1.735.313.631.104 1.269.222 1.895.368zm4.342-3.637h.005zm.125-.1.013-.011.014-.011zm.124-.1q.534-.438 1.054-.882c.316-.272.618-.55.932-.822l.076-.062a9.853 9.853 0 0 1 .989-.687c.354-.222.718-.435 1.1-.628a3.126 3.126 0 0 1 .44-.168c.058-.01.114-.017.173-.022l-.048.079a5.588 5.588 0 0 1 -.934.981c-.214.17-.44.331-.674.488-.255.172-.511.341-.773.508s-.547.334-.831.492-.55.285-.829.422c-.222.1-.444.206-.674.3zm2.049 2.785q1.082.507 2.1 1.083c.657.372 1.324.741 1.937 1.152l-.027-.018.022.015.037.025h-.006l.01.007.007.005.008.005c.161.117.321.232.473.356.075.061.15.123.222.186a9.393 9.393 0 0 1 -.993-.331 15.011 15.011 0 0 1 -1.4-.671c-.461-.253-.892-.532-1.312-.818a16.451 16.451 0 0 1 -1.343-1.028l-.212-.187c.156.062.315.136.471.209zm18.888-3.236a3.157 3.157 0 0 1 -.272.664 4.882 4.882 0 0 1 -.7.81 7.3 7.3 0 0 1 -1.085.726c-.265.126-.534.242-.815.35a8.433 8.433 0 0 1 -.82.265 20.066 20.066 0 0 1 -3.029.468c-.612.036-1.225.052-1.838.032-.681-.023-1.356-.068-2.031-.138-.39-.052-.774-.113-1.157-.189a11.453 11.453 0 0 1 -1.172-.312 19.108 19.108 0 0 1 -2.052-.818c-.106-.049-.208-.1-.31-.155a3.821 3.821 0 0 0 .378-.363c.077-.071.155-.142.234-.212a12.422 12.422 0 0 1 1.319-.945c.518-.337 1.047-.661 1.607-.96.45-.225.91-.436 1.387-.631a14.3 14.3 0 0 1 1.537-.519c.466-.121.937-.229 1.418-.316.56-.1 1.124-.173 1.7-.223.339-.02.676-.032 1.016-.028.41 0 .815.029 1.221.068a11.51 11.51 0 0 1 1.856.372 5.324 5.324 0 0 1 .783.333 3.771 3.771 0 0 1 .457.353 2.515 2.515 0 0 1 .28.383 2.1 2.1 0 0 1 .119.381 2.6 2.6 0 0 1 -.037.594z"/><path d="m348.793 154.735-.009-.017z"/><path d="m366.6 144.189-.015.014z"/><path d="m323.85 154.715-.01.017z"/><path d="m306.048 144.2-.016-.014z"/></g></svg>