<svg height="682.66669" viewBox="0 0 682.66669 682.66669" width="682.66669" xmlns="http://www.w3.org/2000/svg" xmlns:xlink="http://www.w3.org/1999/xlink"><clipPath id="a"><path d="m0 512h512v-512h-512z"/></clipPath><g style="fill:none;stroke:#000;stroke-width:15;stroke-linecap:round;stroke-linejoin:round;stroke-miterlimit:10" transform="matrix(1.3333333 0 0 -1.3333333 0 682.66667)"><path d="m0 0v-29.594" transform="translate(406.9722 456.2607)"/><g clip-path="url(#a)"><path d="m0 0h95.146c2.762 0 5-2.238 5-5v-38.239c0-2.761-2.238-5-5-5h-95.146" transform="translate(318.9629 504.5)"/><path d="m0 0v-130.844c0-11.726-9.506-21.232-21.232-21.232h-98.349" transform="translate(476.6558 159.5762)"/><path d="m0 0h98.481c39.361 0 71.269-31.908 71.269-71.269v-40.003c0-2.01-.605-3.974-1.736-5.635l-18.252-26.817c-6.05-8.886-5.954-20.592.238-29.38l17.922-25.434c1.189-1.689 1.828-3.703 1.828-5.769v-30.097" transform="translate(306.9058 426.667)"/><path d="m0 0v-29.594" transform="translate(105.0273 456.2607)"/><path d="m0 0h33.543" transform="translate(159.4937 456.2607)"/><path d="m0 0h-95.146c-2.762 0-5-2.238-5-5v-38.239c0-2.761 2.238-5 5-5h28.917" transform="translate(193.0366 504.5)"/><path d="m0 0h-98.482c-39.36 0-71.268-31.908-71.268-71.269v-40.003c0-2.01.604-3.974 1.735-5.635l18.253-26.817c6.049-8.886 5.954-20.592-.238-29.38l-17.922-25.434c-1.19-1.689-1.828-3.703-1.828-5.769v-193.628c0-11.726 9.505-21.232 21.231-21.232h98.35" transform="translate(205.0942 426.667)"/><path d="m0 0h441.296" transform="translate(35.3594 68.0898)"/><path d="m0 0h-435.481" transform="translate(475.6235 367.5283)"/><path d="m0 0h-441.311" transform="translate(476.6562 337.1426)"/><path d="m0 0h235.614" transform="translate(241.0415 98.4756)"/><path d="m0 0h172.918" transform="translate(35.3457 98.4756)"/><path d="m0 0v-29.594" transform="translate(306.8257 456.2607)"/><path d="m0 0v29.594" transform="translate(205.1743 426.667)"/><path d="m318.963 456.261h-125.926v48.239h125.926z"/><path d="m0 0h-198.555c-11.726 0-21.232 9.506-21.232 21.232v193.628c0 2.066.639 4.08 1.829 5.769l17.932 25.449c6.187 8.78 6.288 20.475.253 29.36l-18.284 26.917c-1.127 1.661-1.73 3.622-1.73 5.627v39.916c0 39.361 31.908 71.269 71.269 71.269h98.481c39.361 0 71.269-31.908 71.269-71.269v-40.003c0-2.01-.605-3.974-1.736-5.635l-18.252-26.817c-6.05-8.886-5.955-20.592.237-29.381l17.922-25.433c1.19-1.689 1.829-3.703 1.829-5.769v-193.628c0-11.726-9.506-21.232-21.232-21.232z" transform="translate(355.2773 7.5)"/><path d="m0 0v.001c-6.573 4.146-8.539 12.836-4.392 19.408l43.298 68.62c1.262 2-.175 4.608-2.541 4.608h-36.044c-3.756 0-7.446 1.342-10.128 3.972-4.5 4.412-5.47 11.05-2.759 16.43l32.067 63.649c3.497 6.941 11.958 9.732 18.898 6.236 6.94-3.497 9.731-11.957 6.235-18.898l-19.594-38.891c-1.007-1.998.445-4.356 2.683-4.356h39.204c4.35 0 8.588-1.812 11.323-5.195 3.862-4.775 4.156-11.353.98-16.385l-59.821-94.807c-4.147-6.573-12.837-8.538-19.409-4.392z" transform="translate(222.335 125.4297)"/></g></g></svg>