<svg height="682.66669" viewBox="0 0 682.66669 682.66669" width="682.66669" xmlns="http://www.w3.org/2000/svg" xmlns:xlink="http://www.w3.org/1999/xlink"><clipPath id="a"><path d="m0 512h512v-512h-512z"/></clipPath><g style="clip-path:url(#a);fill:none;stroke:#000;stroke-width:20;stroke-linecap:round;stroke-linejoin:round;stroke-miterlimit:10" transform="matrix(1.3333333 0 0 -1.3333333 0 682.66667)"><path d="m0 0h-199.308c-5.529 0-10.011 4.482-10.011 10.012v43.988c0 5.529 4.482 10.012 10.011 10.012h199.308c5.529 0 10.012-4.483 10.012-10.012v-43.988c0-5.53-4.483-10.012-10.012-10.012z" transform="translate(288.3193 437.9883)"/><path d="m0 0v182.272c0 29.158-21.416 53.889-50.273 58.057-23.462 3.389-40.874 23.496-40.874 47.202h-175.037c0-23.706-17.411-43.813-40.874-47.202-28.858-4.168-50.273-28.899-50.273-58.057v-275.038c0-26.338 21.352-47.691 47.691-47.691h144.309 117.64c26.339 0 47.691 21.353 47.691 47.691v21.876" transform="translate(367.3311 150.457)"/><path d="m0 0h350.08" transform="translate(13.626 79.5674)"/><path d="m0 0h-130.04" transform="translate(143.6655 309.3936)"/><path d="m0 0h-130.04" transform="translate(363.7056 309.3936)"/><path d="m0 0c-12.108 12.108-12.108 31.74 0 43.849l27.503 27.503c12.108 12.108 31.74 12.108 43.848 0 12.108-12.109 12.108-31.741 0-43.849l-27.503-27.503c-12.108-12.108-31.74-12.108-43.848 0z" transform="translate(421.5679 19.0986)"/><path d="m0 0c-12.108 12.108-12.108 31.739 0 43.848l27.503 27.503c12.108 12.108 31.74 12.108 43.848 0 12.108-12.109 12.108-31.74 0-43.848l-27.503-27.503c-12.108-12.108-31.74-12.108-43.848 0z" transform="translate(421.5679 180.0801)"/><path d="m0 0c12.108 12.108 31.74 12.108 43.848 0l27.503-27.503c12.108-12.108 12.108-31.739 0-43.848-12.108-12.108-31.74-12.108-43.848 0l-27.503 27.503c-12.108 12.109-12.108 31.74 0 43.848z" transform="translate(311.3833 161.4229)"/><path d="m0 0v-55.562" transform="translate(122.8662 495.8369)"/><path d="m0 0v-55.562" transform="translate(166.7324 495.8369)"/><path d="m0 0v-55.562" transform="translate(210.5991 495.8369)"/><path d="m0 0v-55.562" transform="translate(254.4653 495.8369)"/><path d="m0 0c-17.792-17.792-42.84-23.411-63.9-16.452-6.959 21.059-1.34 46.108 16.452 63.9 17.792 17.791 42.84 23.41 63.9 16.452 6.959-21.06 1.34-46.108-16.452-63.9z" transform="translate(255.4619 170.7568)"/><path d="m0 0 34.052 34.052" transform="translate(191.5615 154.3047)"/><path d="m0 0c21.06 6.958 46.108 1.339 63.9-16.452 17.792-17.792 23.411-42.841 16.452-63.901-21.06-6.959-46.108-1.339-63.9 16.453-17.792 17.792-23.411 42.839-16.452 63.9z" transform="translate(105.4175 234.6572)"/><path d="m0 0-34.051 34.052" transform="translate(185.7695 154.3047)"/></g></svg>