<svg enable-background="new 0 0 512 512" height="512" viewBox="0 0 512 512" width="512" xmlns="http://www.w3.org/2000/svg"><path d="m390.53 316.01-.53.49-87.77 88.99-40.76-43.57 86.01-91.92z" fill="#faa71a"/><path d="m174.24 270 86.01 91.92-40.76 43.57-89.72-87.97z" fill="#faa71a"/><path d="m443.41 372.53c23.649 25.27 23.649 66.64 0 91.92-23.65 25.28-62.36 25.28-86.01 0l-55.17-58.96 87.77-88.99.53-.49z" fill="#ffd400"/><path d="m219.49 405.49-55.17 58.96c-23.66 25.28-62.36 25.28-86.01 0-23.66-25.28-23.66-66.65 0-91.92l51.46-55.011z" fill="#ffd400"/><g fill="#fb2b3a"><path d="m455 160c13.81 0 25 11.19 25 25s-11.19 25-25 25-25-11.19-25-25 11.19-25 25-25z"/><path d="m125 40c8.28 0 15 6.72 15 15s-6.72 15-15 15-15-6.72-15-15 6.72-15 15-15z"/><path d="m70 220c11.05 0 20 8.95 20 20s-8.95 20-20 20-20-8.95-20-20 8.95-20 20-20z"/></g><path d="m281.67 90.13c65.12-36.9 128.43-11.55 168.33-12.72-60.74 26.75-52.75 97.39-107.66 128.57-24.09 14.08-50.42 16.54-71.14 9.02 12.83-24.94-1.05-60.05-31.14-78.18 7.33-18.27 21.8-35.39 41.61-46.69z" fill="#19ab5c"/><path d="m240.06 136.82c30.09 18.13 43.97 53.24 31.14 78.18v.01c-13.66 25.45-49.89 31.82-81.34 13.44-43.9-24.94-37.51-81.41-86.07-102.8 31.9.95 82.51-19.33 134.57 10.18.57.33 1.14.66 1.7.99z" fill="#07cc66"/><path d="m470 110c5.52 0 10 4.48 10 10s-4.48 10-10 10-10-4.48-10-10 4.48-10 10-10z"/><path d="m460 280c5.52 0 10 4.48 10 10s-4.48 10-10 10-10-4.48-10-10 4.48-10 10-10z"/><path d="m400 230c5.52 0 10 4.48 10 10s-4.48 10-10 10-10-4.48-10-10 4.48-10 10-10z"/><path d="m280 260c5.52 0 10 4.48 10 10s-4.48 10-10 10-10-4.48-10-10 4.48-10 10-10z"/><path d="m200 50c5.52 0 10 4.48 10 10s-4.48 10-10 10-10-4.48-10-10 4.48-10 10-10z"/><path d="m130 250c5.52 0 10 4.48 10 10s-4.48 10-10 10-10-4.48-10-10 4.48-10 10-10z"/><path d="m50 150c5.52 0 10 4.48 10 10s-4.48 10-10 10-10-4.48-10-10 4.48-10 10-10z"/><path d="m295.646 229.124c-9.695 0-19.129-1.556-27.858-4.724-5.191-1.884-7.872-7.62-5.988-12.812 1.885-5.191 7.619-7.874 12.813-5.988 18.758 6.808 42.19 3.722 62.682-8.253.036-.021.072-.042.108-.063 23.528-13.361 34.396-35.161 45.899-58.241 9.489-19.038 19.206-38.529 36.209-53.812-2.721-.342-5.478-.704-8.267-1.069-35.731-4.682-80.204-10.513-124.644 14.668-16.879 9.629-30.452 24.805-37.227 41.635-1.452 3.73-5.079 6.375-9.323 6.375-5.523 0-10-4.477-10-10 0-1.351.274-2.675.791-3.897 8.555-21.217 24.84-39.5 45.874-51.499 50.286-28.494 98.438-22.183 137.129-17.112 13.83 1.813 25.774 3.374 35.863 3.083 4.776-.127 8.994 3.126 10.048 7.793s-1.346 9.426-5.725 11.354c-28.473 12.539-40.303 36.274-52.829 61.403-12.327 24.731-25.076 50.306-53.868 66.679-16.358 9.55-34.433 14.48-51.687 14.48z"/><path d="m121.312 493.41c-19.09 0-36.955-7.858-50.304-22.128-27.249-29.115-27.248-76.481.003-105.587l95.929-102.528c1.891-2.021 4.534-3.167 7.301-3.167s5.411 1.146 7.301 3.168l86.01 91.92c3.598 3.844 3.598 9.819.001 13.664l-95.931 102.53c-13.355 14.27-31.222 22.128-50.31 22.128zm52.928-208.774-88.627 94.726c-20.198 21.573-20.198 56.677-.001 78.256 9.528 10.185 22.206 15.793 35.7 15.793s26.175-5.608 35.707-15.793l89.537-95.696z"/><path d="m400.405 493.41c-19.092 0-36.958-7.858-50.308-22.128l-95.931-102.53c-3.597-3.845-3.596-9.82.001-13.664l86.011-91.92c1.891-2.021 4.534-3.168 7.302-3.168s5.411 1.146 7.302 3.168l95.931 102.53c27.236 29.103 27.237 76.468 0 105.584-13.35 14.27-31.216 22.128-50.308 22.128zm-125.241-131.489 89.538 95.697c9.527 10.184 22.207 15.792 35.703 15.792s26.176-5.608 35.702-15.792c20.188-21.58 20.188-56.685.002-78.255l-88.629-94.728z"/><path d="m302.23 415.49c-2.536 0-5.074-.959-7.022-2.88-3.932-3.879-3.976-10.21-.098-14.143l87.77-88.99c3.879-3.932 10.211-3.975 14.143-.098 3.932 3.879 3.976 10.21.098 14.143l-87.77 88.99c-1.957 1.984-4.538 2.978-7.121 2.978z"/><path d="m219.49 415.49c-2.526 0-5.054-.951-7-2.859l-89.72-87.971c-3.944-3.867-4.006-10.198-.139-14.142 3.866-3.944 10.198-4.006 14.141-.14l89.72 87.971c3.944 3.867 4.006 10.198.139 14.142-1.959 1.997-4.549 2.999-7.141 2.999z"/><path d="m227.091 248.998c-.003 0-.003 0-.006 0-14.301-.001-28.897-4.109-42.218-11.883-23.544-13.398-33.871-34.119-43.859-54.159-9.847-19.757-19.148-38.419-41.249-48.154-4.379-1.929-6.778-6.689-5.723-11.356s5.27-7.94 10.052-7.791c.646.019 1.297.028 1.96.028 7.532 0 16.704-1.202 26.414-2.474 12.439-1.629 26.539-3.476 41.572-3.476 25.951 0 48.605 5.691 69.257 17.397.669.387 1.26.729 1.841 1.071.03.018.06.035.089.053 34.343 20.693 49.998 61.464 35.016 91.037-.071.151-.146.301-.226.448-9.833 18.321-29.617 29.259-52.92 29.259zm-94.566-115.627c12.189 12.187 19.581 27.016 26.382 40.663 9.057 18.172 17.612 35.336 35.892 45.721.036.02.071.041.106.061 10.276 6.005 21.404 9.18 32.181 9.181h.005c15.71 0 28.836-6.906 35.175-18.49.014-.027.027-.055.041-.082 10.324-20.068-2.208-49.832-27.367-65.015-.524-.308-1.057-.617-1.589-.925-17.731-10.051-36.604-14.752-59.317-14.752-13.729 0-27.141 1.757-38.974 3.307-.849.111-1.694.222-2.535.331z"/><path d="m299.997 170.002c-1.216 0-2.453-.223-3.653-.695-5.141-2.02-7.671-7.824-5.651-12.964 9.954-25.337 28.402-44.845 53.351-56.415 18.711-8.678 34.602-9.858 35.269-9.904 5.523-.378 10.284 3.778 10.665 9.288.379 5.5-3.764 10.268-9.259 10.662-.261.021-13.521 1.123-28.909 8.402-20.141 9.527-34.44 24.762-42.501 45.281-1.549 3.939-5.321 6.345-9.312 6.345z"/><path d="m229.999 210.003c-4.187 0-8.088-2.65-9.485-6.841-9.746-29.238-40.31-33.073-41.606-33.222-5.468-.628-9.425-5.56-8.822-11.031.602-5.472 5.486-9.436 10.962-8.854 1.813.19 44.563 5.152 58.44 46.783 1.747 5.239-1.085 10.902-6.325 12.649-1.05.349-2.116.516-3.164.516z"/><path d="m70 270c-16.542 0-30-13.458-30-30s13.458-30 30-30 30 13.458 30 30-13.458 30-30 30zm0-40c-5.514 0-10 4.486-10 10s4.486 10 10 10 10-4.486 10-10-4.486-10-10-10z"/><path d="m125 80c-13.785 0-25-11.215-25-25s11.215-25 25-25 25 11.215 25 25-11.215 25-25 25zm0-30c-2.757 0-5 2.243-5 5s2.243 5 5 5 5-2.243 5-5-2.243-5-5-5z"/><path d="m455 220c-19.299 0-35-15.701-35-35s15.701-35 35-35 35 15.701 35 35-15.701 35-35 35zm0-50c-8.271 0-15 6.729-15 15s6.729 15 15 15 15-6.729 15-15-6.729-15-15-15z"/></svg>