<svg enable-background="new 0 0 512 512" height="512" viewBox="0 0 512 512" width="512" xmlns="http://www.w3.org/2000/svg"><path d="m105.317 38.599h120.933v75.487h-120.933z" fill="#ffd271"/><path d="m175.46 38.6h30v75.49h-30z" fill="#ffc55e"/><path d="m255.42 504.5h-198.554c-11.726 0-21.232-9.506-21.232-21.232v-39.358l10-154.271c0-2.065.639-4.08 1.828-5.769l17.933-25.449c6.187-8.78 6.288-20.475.252-29.36l-18.283-26.917c-1.127-1.66-1.73-3.62-1.73-5.627v-39.915c0-4.112-9.652-8.142-8.983-12.063 5.731-33.616 35.003-59.205 70.252-59.205h98.481c39.361 0 71.269 31.908 71.269 71.269v40.003c0 2.01-.605 3.974-1.736 5.635l-18.253 26.816c-6.049 8.887-5.954 20.593.238 29.381l17.922 25.433c1.19 1.688 1.828 3.703 1.828 5.769v193.629c0 11.725-9.505 21.231-21.232 21.231z" fill="#95c7f9"/><path d="m256.66 229.055c-6.049 8.883-5.949 20.59.24 29.383l17.926 25.437c1.192 1.682 1.823 3.695 1.823 5.768v154.267l-231.013-10-10-20.39v-123.876c0-2.073.631-4.086 1.823-5.779l17.936-25.447c6.189-8.773 6.289-20.47.25-29.353l-18.287-26.919c-1.122-1.662-1.723-3.625-1.723-5.628v-21.658l10-18.261c0-4.136.351 1.818 1.032-2.128l228.95-10c.681 3.946 1.032 7.992 1.032 12.128v40.009c0 2.003-.601 3.966-1.733 5.628z" fill="#ffd271"/><path d="m35.637 413.524h241.013v30.386h-241.013z" fill="#867cc1"/><path d="m251.55 156.6v18.26h-215.92v-18.26c0-4.13.35-8.19 1.03-12.13h213.86c.68 3.94 1.03 8 1.03 12.13z" fill="#867cc1"/><path d="m296.968 38.599h90.294v75.487h-90.294z" fill="#95c7f9"/><path d="m377.26 38.6h30v75.49h-30z" fill="#4ca3f6"/><path d="m455.714 503.5-28.458 1h-170.097c-11.726 0-21.232-9.506-21.232-21.232v-193.629c0-2.065.639-4.08 1.828-5.769l17.933-25.449c6.187-8.78 6.288-20.475.253-29.36l-18.283-26.917c-1.127-1.66-1.73-3.62-1.73-5.627v-39.915c0-39.361 31.908-71.269 71.269-71.269h71.608l26.874 1c39.361 0 70.269 30.908 70.269 70.269v40.003c0 2.01-.605 3.974-1.736 5.635l-18.253 26.816c-6.049 8.887-5.954 20.593.238 29.381l17.922 25.433c1.19 1.688 1.828 3.703 1.828 5.769v193.629c-.001 11.726-8.507 20.232-20.233 20.232z" fill="#867cc1"/><path d="m446.96 229.06c-6.05 8.88-5.96 20.59.24 29.38l17.92 25.43c1.19 1.69 1.83 3.7 1.83 5.77l10 154.27v39.36c0 11.72-9.51 21.23-21.24 21.23h-30c11.73 0 21.24-9.51 21.24-21.23v-39.36l10-154.27c0-2.07-.64-4.08-1.83-5.77l-17.92-25.43c-6.2-8.79-6.29-20.5-.24-29.38l18.25-26.82c1.13-1.66 1.74-3.62 1.74-5.63v-21.742-18.268c0-4.132-10.352-8.182-11.027-12.122-5.755-33.587-35.015-59.148-70.243-59.148h30c35.271 0 64.56 25.625 70.264 59.272.661 3.901-8.994 7.909-8.994 11.998v18.26 21.75c0 2.01-.61 3.97-1.74 5.63z" fill="#6e63b7"/><path d="m455.953 229.055c-6.049 8.883-5.949 20.59.24 29.383l17.926 25.437c1.192 1.682 1.823 3.695 1.823 5.768v144.267h-29.168-69.974l-140.87 10v-154.266c0-2.073.631-4.086 1.823-5.779l17.936-25.447c6.189-8.773 6.289-20.47.25-29.353l-18.287-26.919c-1.122-1.662-1.722-3.625-1.722-5.628v-39.918c0-4.136.35-8.182 1.031-12.128h138.799l70.16 10 28.991-9c.681 3.946 1.032 6.992 1.032 11.128v40.009c0 2.003-.601 3.966-1.733 5.628z" fill="#95c7f9"/><path d="m456.95 229.06c-6.05 8.88-5.94 20.59.24 29.38l17.93 25.44c1.19 1.68 1.82 3.69 1.82 5.76v123.884l-10 12.394 10 17.992h-30l10-14.233-10-16.157v-123.88c0-2.07-.63-4.08-1.82-5.76l-17.93-25.44c-6.18-8.79-6.29-20.5-.24-29.38l18.26-26.82c1.13-1.67 1.73-3.63 1.73-5.63v-21.75l10-18.26c0-4.14-10.35-8.18-11.03-12.13h30c.68 3.95-8.97 7.99-8.97 12.13l10 18.26v21.75c0 2-.6 3.96-1.73 5.63z" fill="#4ca3f6"/><path d="m235.93 413.524h221.013v30.386h-221.013z" fill="#f2fbff"/><path d="m446.94 413.52h30v30.39h-30z" fill="#dff6fd"/><path d="m456.95 156.6v18.26h-211.96v-18.26c0-4.13.35-8.19 1.03-12.13h209.9c.68 3.94 1.03 8 1.03 12.13z" fill="#f2fbff"/><path d="m476.95 156.6v18.26h-30v-18.26c0-4.13-.35-8.19-1.03-12.13h30c.68 3.94 1.03 8 1.03 12.13z" fill="#dff6fd"/><path d="m135.78 413.52h140.87v30.39h-140.87z" fill="#00f2a6"/><path d="m145.78 483.27c0 11.72-.49 21.23 11.23 21.23h-30c-11.72 0-21.23-9.51-21.23-21.23v-39.36l10-154.27c0-2.07.64-4.08 1.83-5.77l17.93-25.45c6.19-8.78 6.29-20.47.25-29.36l-18.28-26.92c-1.13-1.66-1.73-3.62-1.73-5.62v-39.92c0-4.14-9.65-8.19-8.97-12.13 1.93-11.25 6.49-21.6 13.03-30.38 12.7-17.06 32.84-28.24 55.62-28.74h30c-22.78.5-32.508 21.172-45.208 38.232-6.54 8.78-12.542 21.77-14.472 33.02-.68 3.94-20.001-4.142-20.001-.002v39.92c0 2 .6 3.96 1.73 5.62l18.28 26.92c6.04 8.89 5.94 20.58-.25 29.36l-17.93 25.45c-1.19 1.69-1.83 3.7-1.83 5.77l10 154.27z" fill="#4ca3f6"/><path d="m155.78 413.52-20 30.39h-30v-30.39z" fill="#6e63b7"/><path d="m155.54 258.42-17.93 25.45c-1.19 1.69-1.83 3.7-1.83 5.77v123.88h-30v-123.88c0-2.07.64-4.08 1.83-5.77l17.93-25.45c6.19-8.78 6.29-20.47.25-29.36l-18.28-26.92c-1.13-1.66-1.73-3.62-1.73-5.62v-21.66h30v21.66c0 2 .6 3.96 1.73 5.62l18.28 26.92c6.04 8.89 5.94 20.58-.25 29.36z" fill="#ffc55e"/><path d="m136.81 144.47c-.68 3.94 8.97 7.99 8.97 12.13l-10 18.26h-30v-18.26c0-4.14.35-8.19 1.03-12.13z" fill="#6e63b7"/><path d="m170.685 55.739h-72.505c-2.762 0-5-2.239-5-5v-38.239c0-2.761 2.238-5 5-5h65.15z" fill="#867cc1"/><path d="m205.464 38.599h91.651v75.487h-91.651z" fill="#f2fbff"/><path d="m277.12 38.6h30v75.49h-30z" fill="#dff6fd"/><path d="m355.567 503.5-29.403 1h-169.152c-11.726 0-21.232-9.506-21.232-21.232v-39.58l10-154.049c0-2.065.639-4.08 1.828-5.769l17.933-25.449c6.187-8.78 6.288-20.475.253-29.36l-18.283-26.917c-1.128-1.66-1.73-3.62-1.73-5.627v-39.915c0-4.186-9.639-8.287-8.947-12.274 5.817-33.511 35.041-58.994 70.216-58.994h73.987l24.495 1c39.361 0 70.269 30.908 70.269 70.269v40.003c0 2.01-.605 3.974-1.736 5.635l-18.253 26.816c-6.049 8.887-5.954 20.593.238 29.381l17.922 25.433c1.19 1.688 1.828 3.703 1.828 5.769v193.629c-.001 11.725-8.507 20.231-20.233 20.231z" fill="#aee4a4"/><path d="m346.81 229.06c-6.05 8.88-5.95 20.59.24 29.38l17.92 25.43c1.19 1.69 1.83 3.7 1.83 5.77l10 154.27v39.36c0 11.72-9.51 21.23-21.23 21.23h-30c11.72 0 21.23-9.51 21.23-21.23v-39.36l10-154.27c0-2.07-.64-4.08-1.83-5.77l-17.92-25.43c-6.19-8.79-6.29-20.5-.24-29.38l18.25-26.82c1.13-1.66 1.74-3.62 1.74-5.63v-40.01c0-4.021-10.333-7.965-10.973-11.805-5.625-33.742-34.958-59.465-70.297-59.465h30c35.221 0 64.476 25.551 70.24 59.128.677 3.946-8.97 8.003-8.97 12.142v40.01c0 2.01-.61 3.97-1.74 5.63z" fill="#8bd5a7"/><path d="m355.807 229.055c-6.049 8.883-5.949 20.59.24 29.383l17.926 25.437c1.192 1.682 1.823 3.695 1.823 5.768v153.267l-28.996-9h-201.017l-10-20.39v-123.876c0-2.073.631-4.086 1.823-5.779l17.936-25.447c6.189-8.773 6.289-20.47.25-29.353l-18.287-26.919c-1.122-1.662-1.723-3.625-1.723-5.628v-21.658l10-8.261c0-4.136.351-8.182 1.032-12.128h218.95c.681 3.946 1.031 7.992 1.031 12.128l9 8.261v21.748c0 2.003-.601 3.966-1.732 5.628z" fill="#f2fbff"/><path d="m222.625 386.57c-6.573-4.147-8.539-12.837-4.392-19.409l43.298-68.62c1.262-2.001-.175-4.608-2.541-4.608h-36.044c-3.756 0-7.447-1.343-10.129-3.973-4.5-4.412-5.469-11.05-2.759-16.43l32.068-63.65c3.497-6.94 11.957-9.732 18.897-6.235s9.732 11.957 6.235 18.897l-19.594 38.892c-1.007 1.998.446 4.356 2.683 4.356h39.204c4.351 0 8.588 1.812 11.324 5.195 3.862 4.776 4.155 11.352.98 16.385l-59.821 94.807c-4.147 6.574-12.837 8.54-19.409 4.393z" fill="#ffd271"/><path d="m356.8 156.6v18.26h-221.02v-18.26c0-4.13.35-8.19 1.03-12.13h218.96c.68 3.94 1.03 8 1.03 12.13z" fill="#ffd271"/><path d="m356.81 229.06c-6.05 8.88-5.95 20.59.24 29.38l17.92 25.44c1.2 1.68 1.83 3.69 1.83 5.76v123.88l-10 20.39h-10l-10-20.39v-123.88c0-2.07-.63-4.08-1.83-5.76l-17.92-25.44c-6.19-8.79-6.29-20.5-.24-29.38l18.25-26.82c1.14-1.67 1.74-3.63 1.74-5.63v-22.331l10-17.679c0-4.14-.35-7.18-1.04-11.13h10c.69 3.95 1.04 6.99 1.04 11.13l10 18.26v21.75c0 2-.6 3.96-1.74 5.63z" fill="#dff6fd"/><path d="m376.8 156.6v18.26h-30v-18.26c0-4.13-.35-8.19-1.03-12.13h30c.68 3.94 1.03 8 1.03 12.13z" fill="#ffc55e"/><path d="m135.783 413.524h221.013v30.386h-221.013z" fill="#ffd271"/><path d="m346.8 413.52h30v30.39h-30z" fill="#ffc55e"/><path d="m193.327 7.5 10 28.011-10 20.229h-29.997v-48.24z" fill="#6e63b7"/><path d="m395.051 55.739h-75.801l-10-24.119 10-24.12h75.801c2.312 0 4.348 2.239 4.348 5v38.239c0 2.761-2.036 5-4.348 5z" fill="#aee4a4"/><path d="m289.25 55.739h-95.923v-48.239h95.923l10 24.119z" fill="#ffd271"/><path d="m289.25 7.5h30v48.24h-30z" fill="#ffc55e"/><path d="m419.4 12.5v38.24c0 2.76-2.24 5-5 5h-30c2.76 0 5-2.24 5-5v-38.24c0-2.76-2.24-5-5-5h30c2.76 0 5 2.24 5 5z" fill="#8bd5a7"/><path d="m455.714 512c15.843 0 28.732-12.89 28.732-28.732v-130.844c0-4.142-3.358-7.5-7.5-7.5s-7.5 3.358-7.5 7.5v53.601h-85.147v-116.385c0-3.632-1.106-7.12-3.198-10.089l-17.922-25.434c-4.367-6.197-4.435-14.572-.168-20.841l18.252-26.815c1.986-2.918 3.036-6.325 3.036-9.855v-14.248h85.147v14.248c0 .507-.15.995-.436 1.415l-18.252 26.815c-7.763 11.404-7.64 26.644.307 37.922l17.921 25.433c.301.427.46.928.46 1.449v30.098c0 4.143 3.358 7.5 7.5 7.5s7.5-3.357 7.5-7.5v-30.098c0-3.631-1.105-7.119-3.197-10.089l-17.922-25.434c-4.367-6.198-4.436-14.573-.169-20.841l18.252-26.815c1.986-2.918 3.036-6.325 3.036-9.855l-1.07-52.881c-3.382-34.143-35.894-61.574-68.614-65.351v-15.153c6.724-.194 12.137-5.712 12.137-12.482v-38.239c0-6.893-5.607-12.5-12.5-12.5h-316.219c-6.893 0-12.5 5.607-12.5 12.5v38.239c0 6.77 5.413 12.287 12.137 12.482v15.152c-32.796 3.786-60.554 28.727-67.765 60.95-4.098 18.309-1.918 38.653-1.918 57.282 0 3.53 1.05 6.938 3.036 9.855l18.253 26.816c4.266 6.268 4.198 14.644-.169 20.841l-17.924 25.435c-2.091 2.969-3.197 6.457-3.197 10.088v193.628c.001 15.842 12.89 28.732 28.732 28.732zm10.626-375.028h-84.518c-4.634-18-15.498-33.516-30.133-44.139h53.988c28.314 0 52.364 18.554 60.663 44.139zm-97.041 30.385h-226.019l.186-15.386h225.646zm-325.979-15.385h85.108l-.147 15.386h-85.148zm103.065-15c8.299-25.584 32.35-44.139 60.664-44.139h98.481c28.314 0 52.365 18.554 60.664 44.139zm153.23-73.733v14.594h-86.651v-14.594zm19.638 0h80.509v14.594h-85.147v-14.594zm92.646-15h-85.146v-33.239h85.146zm-100.146 0h-110.927v-33.239h110.926v33.239zm-211.073-33.239h85.146v33.239h-26.043c-4.142 0-7.5 3.357-7.5 7.5s3.358 7.5 7.5 7.5h33.543 4.638v14.594h-85.147v-14.594h14.28c4.142 0 7.5-3.357 7.5-7.5s-3.358-7.5-7.5-7.5h-26.417zm6.222 77.833h53.988c-14.635 10.623-25.499 26.138-30.133 44.139h-84.519c8.3-25.585 32.35-44.139 60.664-44.139zm-63.31 195.358 17.922-25.434c7.946-11.277 8.07-26.517.308-37.921l-18.253-26.816c-.285-.418-.436-.907-.436-1.414v-14.248h85.147v14.16c0 3.523 1.046 6.926 3.026 9.841l18.283 26.917c4.255 6.266 4.184 14.635-.179 20.826l-17.932 25.449c-2.092 2.968-3.198 6.457-3.198 10.089v116.385h-85.147v-116.385c0-.522.159-1.023.459-1.449zm-.459 132.833h85.147v15.386h-85.147zm0 62.244v-31.858h85.147v31.857c0 4.971 1.27 9.65 3.501 13.732h-74.916c-7.571.001-13.732-6.159-13.732-13.731zm312.434 13.732h-198.555c-7.572 0-13.732-6.16-13.732-13.732v-31.858h226.019v31.857c0 7.573-6.16 13.733-13.732 13.733zm100.147 0h-74.915c2.231-4.082 3.501-8.762 3.501-13.732v-31.858h85.147v31.857c-.002 7.573-6.162 13.733-13.733 13.733zm13.731-75.976v15.386h-85.147v-15.386zm-100.146-224.419c0 .507-.15.996-.436 1.415l-18.252 26.815c-7.763 11.404-7.64 26.644.307 37.922l17.922 25.434c.3.427.459.927.459 1.448v116.385h-127.968c-4.142 0-7.5 3.357-7.5 7.5s3.358 7.5 7.5 7.5h127.968v15.386h-226.019v-15.386h65.273c4.142 0 7.5-3.357 7.5-7.5s-3.358-7.5-7.5-7.5h-65.273v-116.384c0-.521.159-1.022.459-1.448l17.933-25.449c7.938-11.266 8.069-26.494.326-37.894l-18.283-26.917c-.284-.418-.435-.907-.435-1.413v-14.16h226.019zm100.146-29.248h-85.147l-.147-15.386h85.107z"/><path d="m222.946 301.434h27.892l-38.947 61.726c-6.347 10.059-3.327 23.406 6.732 29.754h.001c3.565 2.25 7.542 3.322 11.476 3.322 7.164 0 14.181-3.561 18.278-10.055l59.821-94.807c4.931-7.814 4.333-17.902-1.49-25.103-4.101-5.071-10.353-7.98-17.156-7.98h-31.905l16.311-32.373c5.351-10.622 1.063-23.617-9.559-28.97-10.624-5.35-23.619-1.063-28.97 9.559l-32.068 63.65c-4.243 8.422-2.553 18.533 4.206 25.159 4.021 3.945 9.483 6.118 15.378 6.118zm-6.19-24.528 32.068-63.65c1.154-2.29 3.475-3.613 5.879-3.613.993 0 2 .226 2.945.701 3.236 1.631 4.542 5.59 2.913 8.825l-19.595 38.893c-1.652 3.281-1.489 7.107.438 10.234 1.926 3.128 5.27 4.995 8.943 4.995h39.204c2.218 0 4.271.901 5.492 2.411 1.783 2.205 1.971 5.285.469 7.667l-59.821 94.808c-1.933 3.063-5.999 3.982-9.064 2.051l-.001-.001c-1.484-.937-2.515-2.395-2.902-4.107-.388-1.712-.085-3.473.852-4.957l43.298-68.619c2.042-3.235 2.163-7.327.315-10.678s-5.372-5.433-9.199-5.433h-36.044c-1.915 0-3.693-.666-4.878-1.828-2.078-2.038-2.605-5.131-1.312-7.699z"/></svg>