<svg enable-background="new 0 0 520 520" height="512" viewBox="0 0 520 520" width="512" xmlns="http://www.w3.org/2000/svg"><path d="m354.777 263.168c-3.951-4.225-10.657-4.22-14.604 0l-79.316 84.767-79.315-84.767c-3.952-4.225-10.657-4.22-14.604 0l-95.933 102.526c-27.239 29.109-27.239 76.475 0 105.585 27.633 29.533 72.986 29.526 100.613 0l89.239-95.372 89.24 95.372c27.634 29.533 72.986 29.526 100.613 0 27.238-29.11 27.238-76.476 0-105.584zm-197.762 194.447c-19.717 21.071-51.688 21.071-71.406 0-20.188-21.576-20.188-56.681 0-78.256l44.473-47.53 75.428 73.958zm62.163-66.435-75.428-73.958 30.49-32.586 72.315 77.285zm128.298-106.544 29.165 31.169-74.221 75.249-27.259-29.133zm88.631 172.979c-19.717 21.071-51.688 21.071-71.406 0l-48.605-51.946 74.22-75.249 45.792 48.939c20.187 21.576 20.187 56.68-.001 78.256z"/><path d="m99.755 134.805c44.04 19.4 37.885 75.44 85.11 102.306 13.416 7.829 28.116 11.885 42.249 11.885 20.534 0 37.865-8.473 48.395-22.272 23.911 5.892 50.134.583 71.825-12.077 58.317-33.168 50.375-103.279 106.697-128.089 4.379-1.929 6.777-6.688 5.723-11.355s-5.223-7.916-10.049-7.792c-38.721 1.132-104.397-24.84-172.981 14.032-17.688 10.078-32.001 24.622-41.207 41.617-52.446-25.277-102.839-6.548-131.436-7.402-4.751-.144-8.995 3.125-10.049 7.792s1.344 9.426 5.723 11.355zm186.849-35.973c44.429-25.18 88.896-19.353 124.624-14.671 2.793.366 5.557.728 8.281 1.07-17.003 15.284-26.72 34.775-36.209 53.813-12.288 24.654-22.487 44.64-46.006 58.306-17.067 9.974-36.18 13.773-52.937 10.831 6.411-25.734-6.202-55.901-31.646-74.882 7.411-14.037 19.212-26.103 33.893-34.467zm-151.561 34.21c28.269-3.702 63.449-8.313 98.363 11.475 26.298 14.983 39.533 45.114 28.939 65.842-4.449 8.235-12.052 14.068-21.994 16.869-14.048 3.957-30.614 1.254-45.451-7.416-33.063-19.287-34.414-58.481-62.382-86.439.838-.11 1.68-.221 2.525-.331z"/><path d="m299.997 170.002c3.991 0 7.763-2.406 9.311-6.346 8.061-20.519 22.36-35.753 42.501-45.281 15.388-7.279 28.648-8.381 28.909-8.402 5.495-.395 9.638-5.162 9.259-10.662-.381-5.51-5.142-9.667-10.665-9.288-.667.046-16.558 1.227-35.269 9.904-24.948 11.57-43.396 31.078-53.351 56.415-2.578 6.563 2.279 13.663 9.305 13.66z"/><path d="m178.907 169.94c1.296.149 31.86 3.984 41.606 33.222 1.747 5.24 7.409 8.071 12.649 6.325 5.24-1.747 8.071-7.41 6.325-12.649-13.876-41.63-56.627-46.592-58.44-46.783-5.476-.582-10.36 3.382-10.962 8.854-.603 5.471 3.353 10.403 8.822 11.031z"/><path d="m100 240c0-16.542-13.458-30-30-30s-30 13.458-30 30 13.458 30 30 30 30-13.458 30-30zm-40 0c0-5.514 4.486-10 10-10s10 4.486 10 10-4.486 10-10 10-10-4.486-10-10z"/><path d="m125 80c13.785 0 25-11.215 25-25s-11.215-25-25-25-25 11.215-25 25 11.215 25 25 25zm0-30c2.757 0 5 2.243 5 5s-2.243 5-5 5-5-2.243-5-5 2.243-5 5-5z"/><path d="m455 150c-19.299 0-35 15.701-35 35s15.701 35 35 35 35-15.701 35-35-15.701-35-35-35zm0 50c-8.271 0-15-6.729-15-15s6.729-15 15-15 15 6.729 15 15-6.729 15-15 15z"/><circle cx="460" cy="290" r="10"/><circle cx="400" cy="240" r="10"/><circle cx="280" cy="270" r="10"/><circle cx="130" cy="260" r="10"/><circle cx="50" cy="160" r="10"/><circle cx="200" cy="60" r="10"/><circle cx="470" cy="120" r="10"/></svg>