<svg height="192" viewBox="0 0 256 256" width="192" xmlns="http://www.w3.org/2000/svg"><path d="M0 0h256v256H0z" fill="none"/><path d="M64 216a8 8 0 01-8-8v-42.695a28 28 0 110-50.61V72a8 8 0 018-8h46.695a28 28 0 1150.61 0h46.694a8 8 0 018 8l.001 42.695a28 28 0 100 50.61V208a8 8 0 01-8 8z" opacity=".2"/><path d="M64 216a8 8 0 01-8-8v-42.695a28 28 0 110-50.61V72a8 8 0 018-8h46.695a28 28 0 1150.61 0h46.694a8 8 0 018 8l.001 42.695a28 28 0 100 50.61V208a8 8 0 01-8 8z" fill="none" stroke="#333" stroke-linecap="round" stroke-linejoin="round" stroke-width="12"/></svg>