<svg height="192" viewBox="0 0 256 256" width="192" xmlns="http://www.w3.org/2000/svg"><path d="M0 0h256v256H0z" fill="none"/><circle cx="104" cy="144" fill="none" r="32" stroke="#000" stroke-linecap="round" stroke-linejoin="round" stroke-width="12"/><path d="M72 144a32 32 0 1132 32h88V80H64v64z" opacity=".2"/><g fill="none" stroke="#000" stroke-linecap="round" stroke-linejoin="round" stroke-width="12"><path d="M53.39 207.999a56.023 56.023 0 01101.22 0L216 208a8 8 0 008-8V56a8 8 0 00-8-8H40a8 8 0 00-8 8v144a8 8 0 008 8z"/><path d="M176 176h16V80H64v16"/></g></svg>