<svg viewBox="0 0 464.585 464.585" xmlns="http://www.w3.org/2000/svg"><path d="M464.585 393.312L377.122 78.297 301.73 99.229l8.329 29.998h-83.857V87.446h-78.243v30.92h-42.373V50.207H0v364.17h324.355V180.715l64.838 233.528zM162.959 102.446h48.243v37.147h-48.243zm0 99.364h48.243v170.575h-48.243zm0-15v-8.608h48.243v8.608zm0-23.608v-8.609h48.243v8.609zM90.586 370.189H15V94.199h75.586zm0-304.982v13.992H15V65.207zM15 399.378v-14.189h75.586v14.189zm132.959 0h-42.373V133.366h42.373zm15 0v-11.993h48.243v11.993zm146.396 0h-83.153V144.226h83.153zm90.279-3.6l-52.742-189.961 46.485-12.907 52.742 189.961zm-56.755-204.414l-4.133-14.884 46.485-12.907 4.133 14.884zm23.802-94.602l14.537 52.358-46.485 12.907-14.537-52.358z"/><path d="M243.621 160.457h48.315v15h-48.315zm0 26.353h48.315v15h-48.315zm0 26.354h48.315v15h-48.315zm0 152.633h48.315v15h-48.315zm-124.349-93.523h15v25.255h-15zm0 39.531h15v57.099h-15zm0-121.886h15V258h-15zm0-39.532h15v26.354h-15z"/></svg>