<svg xmlns="http://www.w3.org/2000/svg" xmlns:xlink="http://www.w3.org/1999/xlink" width="1802" height="675" viewBox="0 0 1802 675">
  <defs>
    <clipPath id="clip-path">
      <rect id="Rectangle_86" data-name="Rectangle 86" width="1802" height="675" transform="translate(0.1)" fill="none"/>
    </clipPath>
    <clipPath id="clip-path-2">
      <rect id="Rectangle_87" data-name="Rectangle 87" width="1590" height="675" transform="translate(1395 675) rotate(180)" fill="none"/>
    </clipPath>
  </defs>
  <g id="Group_498" data-name="Group 498" transform="translate(301)">
    <g id="Background" transform="translate(-301.1)">
      <g id="Group_486" data-name="Group 486">
        <g id="Group_485" data-name="Group 485" clip-path="url(#clip-path)">
          <path id="Path_847" data-name="Path 847" d="M0,0H704.693V1881.479H0Z" transform="translate(-39.639 689.846) rotate(-90)" fill="#3e45eb"/>
        </g>
      </g>
    </g>
    <g id="Graphic_Element" data-name="Graphic Element">
      <g id="Group_497" data-name="Group 497">
        <g id="Group_496" data-name="Group 496" clip-path="url(#clip-path-2)">
          <ellipse id="Ellipse_44" data-name="Ellipse 44" cx="17.872" cy="17.952" rx="17.872" ry="17.952" transform="translate(686.084 67.405)" fill="#f2f2f2" stroke="#101914" stroke-miterlimit="10" stroke-width="4" opacity="0.723"/>
          <ellipse id="Ellipse_45" data-name="Ellipse 45" cx="19.169" cy="19.255" rx="19.169" ry="19.255" transform="translate(-131.01 548.309)" fill="#fff3aa" stroke="#000" stroke-miterlimit="10" stroke-width="4"/>
          <ellipse id="Ellipse_46" data-name="Ellipse 46" cx="15.182" cy="15.25" rx="15.182" ry="15.25" transform="translate(617.93 41.15)" fill="none" stroke="#000" stroke-miterlimit="10" stroke-width="4"/>
          <g id="Group_487" data-name="Group 487" transform="translate(1286.372 571.155)">
            <ellipse id="Ellipse_47" data-name="Ellipse 47" cx="22.295" cy="22.196" rx="22.295" ry="22.196" transform="translate(0 26.878) rotate(-37.068)" fill="none" stroke="#000" stroke-miterlimit="10" stroke-width="4"/>
            <path id="Path_793" data-name="Path 793" d="M1104.745,615.738a22.246,22.246,0,0,0,31.168,4.282l-26.748-35.43A22.246,22.246,0,0,0,1104.745,615.738Z" transform="translate(-1091.37 -571.155)" fill="#fff" stroke="#000" stroke-miterlimit="10" stroke-width="4"/>
          </g>
          <g id="Group_492" data-name="Group 492" transform="translate(1248.83 -92.325)">
            <g id="Group_488" data-name="Group 488" transform="translate(0 1.801)">
              <path id="Path_794" data-name="Path 794" d="M1074.545-87.822c0,8.482-4.519,12.8-8.505,16.6-3.667,3.5-6.833,6.523-6.833,12.686s3.166,9.186,6.833,12.687c3.986,3.806,8.505,8.121,8.505,16.6s-4.519,12.8-8.505,16.6c-3.667,3.5-6.833,6.522-6.833,12.684s3.166,9.185,6.833,12.685c3.986,3.806,8.505,8.12,8.505,16.6s-4.519,12.8-8.505,16.6c-3.667,3.5-6.833,6.522-6.833,12.684s3.166,9.184,6.833,12.684c3.986,3.806,8.505,8.12,8.505,16.6s-4.519,12.794-8.506,16.6c-3.666,3.5-6.832,6.521-6.832,12.682a2.69,2.69,0,1,1-5.38,0c0-8.481,4.519-12.794,8.506-16.6,3.666-3.5,6.832-6.521,6.832-12.682s-3.166-9.184-6.832-12.684c-3.987-3.806-8.506-8.12-8.506-16.6s4.519-12.8,8.506-16.6c3.666-3.5,6.832-6.523,6.832-12.684s-3.166-9.185-6.832-12.685c-3.987-3.806-8.506-8.121-8.506-16.6s4.519-12.8,8.506-16.6c3.666-3.5,6.832-6.522,6.832-12.684s-3.166-9.186-6.832-12.686c-3.987-3.807-8.506-8.122-8.506-16.6s4.519-12.8,8.506-16.6c3.666-3.5,6.832-6.524,6.832-12.687a2.7,2.7,0,0,1,2.69-2.7A2.7,2.7,0,0,1,1074.545-87.822Z" transform="translate(-1053.827 90.524)" fill="#f9b7c5"/>
            </g>
            <g id="Group_489" data-name="Group 489" transform="translate(18.406 1.801)">
              <path id="Path_795" data-name="Path 795" d="M1092.951-87.822c0,8.482-4.519,12.8-8.506,16.6-3.666,3.5-6.832,6.523-6.832,12.686s3.166,9.186,6.832,12.687c3.987,3.806,8.506,8.121,8.506,16.6s-4.519,12.8-8.506,16.6c-3.666,3.5-6.832,6.522-6.832,12.684s3.166,9.185,6.832,12.685c3.987,3.806,8.506,8.12,8.506,16.6s-4.519,12.8-8.506,16.6c-3.666,3.5-6.832,6.522-6.832,12.684s3.166,9.184,6.832,12.684c3.987,3.806,8.506,8.12,8.506,16.6s-4.519,12.794-8.506,16.6c-3.666,3.5-6.832,6.521-6.832,12.682a2.69,2.69,0,1,1-5.38,0c0-8.481,4.518-12.794,8.505-16.6,3.666-3.5,6.832-6.521,6.832-12.682s-3.166-9.184-6.832-12.684c-3.987-3.806-8.505-8.12-8.505-16.6s4.518-12.8,8.505-16.6c3.666-3.5,6.832-6.523,6.832-12.684s-3.166-9.185-6.832-12.685c-3.987-3.806-8.505-8.121-8.505-16.6s4.518-12.8,8.505-16.6c3.666-3.5,6.832-6.522,6.832-12.684s-3.166-9.186-6.832-12.686c-3.987-3.807-8.505-8.122-8.505-16.6s4.518-12.8,8.505-16.6c3.666-3.5,6.832-6.524,6.832-12.687a2.7,2.7,0,0,1,2.69-2.7A2.7,2.7,0,0,1,1092.951-87.822Z" transform="translate(-1072.233 90.524)" fill="#f9b7c5"/>
            </g>
            <g id="Group_490" data-name="Group 490" transform="translate(37.662)">
              <path id="Path_796" data-name="Path 796" d="M1112.208-89.623c0,8.482-4.519,12.8-8.506,16.6-3.666,3.5-6.832,6.524-6.832,12.687s3.166,9.186,6.832,12.686c3.987,3.807,8.506,8.122,8.506,16.6s-4.519,12.8-8.506,16.6c-3.666,3.5-6.832,6.523-6.832,12.685s3.166,9.184,6.832,12.684c3.987,3.807,8.506,8.121,8.506,16.6s-4.519,12.8-8.506,16.6c-3.666,3.5-6.832,6.522-6.832,12.684S1100.036,66,1103.7,69.5c3.987,3.807,8.506,8.121,8.506,16.6s-4.519,12.793-8.506,16.6c-3.666,3.5-6.832,6.522-6.832,12.682a2.691,2.691,0,1,1-5.381,0c0-8.48,4.519-12.794,8.507-16.6,3.665-3.5,6.831-6.522,6.831-12.682s-3.166-9.184-6.832-12.684c-3.987-3.806-8.506-8.12-8.506-16.6s4.519-12.795,8.506-16.6c3.666-3.5,6.832-6.522,6.832-12.684s-3.166-9.184-6.832-12.684c-3.987-3.807-8.506-8.121-8.506-16.6s4.519-12.8,8.506-16.6c3.666-3.5,6.832-6.522,6.832-12.684s-3.166-9.186-6.832-12.687c-3.987-3.807-8.506-8.121-8.506-16.6s4.519-12.8,8.506-16.6c3.666-3.5,6.832-6.523,6.832-12.686a2.7,2.7,0,0,1,2.691-2.7A2.7,2.7,0,0,1,1112.208-89.623Z" transform="translate(-1091.489 92.325)" fill="#f9b7c5"/>
            </g>
            <g id="Group_491" data-name="Group 491" transform="translate(56.068)">
              <path id="Path_797" data-name="Path 797" d="M1130.613-89.623c0,8.482-4.519,12.8-8.505,16.6-3.667,3.5-6.833,6.524-6.833,12.687s3.166,9.186,6.832,12.686c3.987,3.807,8.506,8.122,8.506,16.6s-4.519,12.8-8.506,16.6c-3.666,3.5-6.832,6.523-6.832,12.685s3.166,9.184,6.832,12.684c3.987,3.807,8.506,8.121,8.506,16.6s-4.519,12.8-8.506,16.6c-3.666,3.5-6.832,6.522-6.832,12.684s3.166,9.184,6.832,12.683c3.987,3.807,8.506,8.121,8.506,16.6s-4.519,12.793-8.506,16.6c-3.666,3.5-6.832,6.522-6.832,12.682a2.69,2.69,0,1,1-5.38,0c0-8.48,4.519-12.794,8.506-16.6,3.666-3.5,6.832-6.522,6.832-12.682s-3.166-9.184-6.832-12.684c-3.987-3.806-8.506-8.12-8.506-16.6s4.519-12.795,8.506-16.6c3.666-3.5,6.832-6.522,6.832-12.684s-3.166-9.184-6.832-12.684c-3.987-3.807-8.506-8.121-8.506-16.6s4.519-12.8,8.506-16.6c3.666-3.5,6.832-6.522,6.832-12.684s-3.166-9.186-6.833-12.687c-3.986-3.807-8.505-8.121-8.505-16.6s4.519-12.8,8.505-16.6c3.667-3.5,6.833-6.523,6.833-12.686a2.7,2.7,0,0,1,2.69-2.7A2.7,2.7,0,0,1,1130.613-89.623Z" transform="translate(-1109.895 92.325)" fill="#f9b7c5"/>
            </g>
          </g>
          <ellipse id="Ellipse_48" data-name="Ellipse 48" cx="142.506" cy="143.142" rx="142.506" ry="143.142" transform="translate(-92.758 -158.003)" fill="#fff3aa"/>
          <ellipse id="Ellipse_49" data-name="Ellipse 49" cx="142.506" cy="143.142" rx="142.506" ry="143.142" transform="translate(-114.812 -125.626)" fill="none" stroke="#000" stroke-linecap="square" stroke-linejoin="round" stroke-width="4"/>
          <path id="Path_798" data-name="Path 798" d="M735.554,555.544,795.308,715.98,635.585,776,575.831,615.564Z" transform="translate(43.761 35.152)" fill="#87a0ff"/>
          <path id="Path_799" data-name="Path 799" d="M753.339,521.229l59.754,160.436L653.37,741.686,593.616,581.249Z" transform="translate(46.067 42.211)" fill="none" stroke="#fff" stroke-linecap="square" stroke-linejoin="round" stroke-width="4"/>
          <g id="Group_493" data-name="Group 493" transform="translate(139.164 586.359)">
            <path id="Path_800" data-name="Path 800" d="M268.579,618.453a24.357,24.357,0,0,1,3.53-22.571,24.178,24.178,0,0,1,42.233,6.671,9.869,9.869,0,1,0,18.644-6.478,43.974,43.974,0,0,0-30.211-28.223,43.863,43.863,0,0,0-40.715,9.839,44.279,44.279,0,0,0-12.124,47.241,9.869,9.869,0,1,0,18.644-6.479Z" transform="translate(-247.513 -566.359)" fill="#9ef3e5" stroke="#000" stroke-miterlimit="10" stroke-width="4"/>
          </g>
          <g id="Group_494" data-name="Group 494" transform="translate(958.729 30.921)" opacity="0.723">
            <path id="Path_801" data-name="Path 801" d="M919.853,76.947a24.178,24.178,0,0,1-40.32,1.842,24.515,24.515,0,0,1-4.624-13.073,24.237,24.237,0,0,1,3.418-13.789A9.875,9.875,0,1,0,861.41,41.734a44.224,44.224,0,0,0,15.078,60.552A43.836,43.836,0,0,0,936.771,87.14a9.876,9.876,0,1,0-16.918-10.193Z" transform="translate(-855.146 -36.921)" fill="#f2f2f2" stroke="#101914" stroke-miterlimit="10" stroke-width="4"/>
          </g>
          <g id="Group_495" data-name="Group 495" transform="translate(602.717 533.369)">
            <path id="Path_802" data-name="Path 802" d="M613.471,534.285a2.161,2.161,0,1,0-1.253,2.8A2.16,2.16,0,0,0,613.471,534.285Z" transform="translate(-576.399 -493.556)" fill="rgba(255,255,255,0.45)"/>
            <path id="Path_803" data-name="Path 803" d="M630,578.071a2.162,2.162,0,1,0-1.253,2.8A2.16,2.16,0,0,0,630,578.071Z" transform="translate(-579.801 -502.565)" fill="rgba(255,255,255,0.45)"/>
            <path id="Path_804" data-name="Path 804" d="M621.737,556.178a2.162,2.162,0,1,0-1.253,2.8A2.16,2.16,0,0,0,621.737,556.178Z" transform="translate(-578.1 -498.06)" fill="rgba(255,255,255,0.45)"/>
            <path id="Path_805" data-name="Path 805" d="M642.305,547.926a2.161,2.161,0,1,0-1.253,2.8A2.159,2.159,0,0,0,642.305,547.926Z" transform="translate(-582.332 -496.363)" fill="rgba(255,255,255,0.45)"/>
            <path id="Path_806" data-name="Path 806" d="M634.039,526.033a2.161,2.161,0,1,0-1.253,2.8A2.159,2.159,0,0,0,634.039,526.033Z" transform="translate(-580.631 -491.859)" fill="rgba(255,255,255,0.45)"/>
            <path id="Path_807" data-name="Path 807" d="M658.837,591.712a2.161,2.161,0,1,0-1.253,2.8A2.159,2.159,0,0,0,658.837,591.712Z" transform="translate(-585.733 -505.371)" fill="rgba(255,255,255,0.45)"/>
            <path id="Path_808" data-name="Path 808" d="M650.571,569.819a2.161,2.161,0,1,0-1.253,2.8A2.159,2.159,0,0,0,650.571,569.819Z" transform="translate(-584.032 -500.867)" fill="rgba(255,255,255,0.45)"/>
            <path id="Path_809" data-name="Path 809" d="M572.059,550.061a2.161,2.161,0,1,0-1.253,2.8A2.16,2.16,0,0,0,572.059,550.061Z" transform="translate(-567.88 -496.802)" fill="rgba(255,255,255,0.45)"/>
            <path id="Path_810" data-name="Path 810" d="M600.893,563.7a2.161,2.161,0,1,0-1.253,2.8A2.159,2.159,0,0,0,600.893,563.7Z" transform="translate(-573.812 -499.608)" fill="rgba(255,255,255,0.45)"/>
            <path id="Path_811" data-name="Path 811" d="M592.628,541.808a2.161,2.161,0,1,0-1.253,2.8A2.159,2.159,0,0,0,592.628,541.808Z" transform="translate(-572.111 -495.104)" fill="rgba(255,255,255,0.45)"/>
            <path id="Path_812" data-name="Path 812" d="M687.671,605.352a2.161,2.161,0,1,0-1.253,2.8A2.159,2.159,0,0,0,687.671,605.352Z" transform="translate(-591.665 -508.177)" fill="rgba(255,255,255,0.45)"/>
            <path id="Path_813" data-name="Path 813" d="M671.139,561.566a2.161,2.161,0,1,0-1.253,2.8A2.159,2.159,0,0,0,671.139,561.566Z" transform="translate(-588.264 -499.169)" fill="rgba(255,255,255,0.45)"/>
            <path id="Path_814" data-name="Path 814" d="M679.405,583.459a2.161,2.161,0,1,0-1.253,2.8A2.159,2.159,0,0,0,679.405,583.459Z" transform="translate(-589.964 -503.673)" fill="rgba(255,255,255,0.45)"/>
            <path id="Path_815" data-name="Path 815" d="M662.873,539.673a2.161,2.161,0,1,0-1.253,2.8A2.16,2.16,0,0,0,662.873,539.673Z" transform="translate(-586.563 -494.665)" fill="rgba(255,255,255,0.45)"/>
            <path id="Path_816" data-name="Path 816" d="M654.608,517.78a2.161,2.161,0,1,0-1.254,2.8A2.161,2.161,0,0,0,654.608,517.78Z" transform="translate(-584.863 -490.161)" fill="rgba(255,255,255,0.45)"/>
            <path id="Path_817" data-name="Path 817" d="M708.24,597.1a2.162,2.162,0,1,0-1.254,2.8A2.16,2.16,0,0,0,708.24,597.1Z" transform="translate(-595.896 -506.479)" fill="rgba(255,255,255,0.45)"/>
            <path id="Path_818" data-name="Path 818" d="M699.974,575.206a2.162,2.162,0,1,0-1.254,2.8A2.161,2.161,0,0,0,699.974,575.206Z" transform="translate(-594.196 -501.975)" fill="rgba(255,255,255,0.45)"/>
            <path id="Path_819" data-name="Path 819" d="M691.708,553.313a2.162,2.162,0,1,0-1.254,2.8A2.161,2.161,0,0,0,691.708,553.313Z" transform="translate(-592.495 -497.471)" fill="rgba(255,255,255,0.45)"/>
            <path id="Path_820" data-name="Path 820" d="M716.506,618.992a2.161,2.161,0,1,0-1.254,2.8A2.161,2.161,0,0,0,716.506,618.992Z" transform="translate(-597.597 -510.983)" fill="rgba(255,255,255,0.45)"/>
            <path id="Path_821" data-name="Path 821" d="M675.176,509.527a2.161,2.161,0,1,0-1.254,2.8A2.16,2.16,0,0,0,675.176,509.527Z" transform="translate(-589.094 -488.463)" fill="rgba(255,255,255,0.45)"/>
            <path id="Path_822" data-name="Path 822" d="M683.442,531.42a2.162,2.162,0,1,0-1.254,2.8A2.161,2.161,0,0,0,683.442,531.42Z" transform="translate(-590.795 -492.967)" fill="rgba(255,255,255,0.45)"/>
            <path id="Path_823" data-name="Path 823" d="M695.744,501.275a2.161,2.161,0,1,0-1.254,2.8A2.16,2.16,0,0,0,695.744,501.275Z" transform="translate(-593.325 -486.765)" fill="rgba(255,255,255,0.45)"/>
            <path id="Path_824" data-name="Path 824" d="M728.808,588.847a2.161,2.161,0,1,0-1.254,2.8A2.16,2.16,0,0,0,728.808,588.847Z" transform="translate(-600.128 -504.781)" fill="rgba(255,255,255,0.45)"/>
            <path id="Path_825" data-name="Path 825" d="M745.34,632.633a2.161,2.161,0,1,0-1.254,2.8A2.161,2.161,0,0,0,745.34,632.633Z" transform="translate(-603.529 -513.789)" fill="rgba(255,255,255,0.45)"/>
            <path id="Path_826" data-name="Path 826" d="M720.542,566.954a2.161,2.161,0,1,0-1.254,2.8A2.16,2.16,0,0,0,720.542,566.954Z" transform="translate(-598.427 -500.277)" fill="rgba(255,255,255,0.45)"/>
            <path id="Path_827" data-name="Path 827" d="M712.276,545.061a2.161,2.161,0,1,0-1.254,2.8A2.16,2.16,0,0,0,712.276,545.061Z" transform="translate(-596.727 -495.773)" fill="rgba(255,255,255,0.45)"/>
            <path id="Path_828" data-name="Path 828" d="M704.01,523.168a2.161,2.161,0,1,0-1.254,2.8A2.16,2.16,0,0,0,704.01,523.168Z" transform="translate(-595.026 -491.269)" fill="rgba(255,255,255,0.45)"/>
            <path id="Path_829" data-name="Path 829" d="M737.074,610.74a2.161,2.161,0,1,0-1.254,2.8A2.161,2.161,0,0,0,737.074,610.74Z" transform="translate(-601.828 -509.285)" fill="rgba(255,255,255,0.45)"/>
            <path id="Path_830" data-name="Path 830" d="M716.312,493.022a2.161,2.161,0,1,0-1.253,2.8A2.16,2.16,0,0,0,716.312,493.022Z" transform="translate(-597.557 -485.067)" fill="rgba(255,255,255,0.45)"/>
            <path id="Path_831" data-name="Path 831" d="M757.642,602.487a2.162,2.162,0,1,0-1.254,2.8A2.16,2.16,0,0,0,757.642,602.487Z" transform="translate(-606.06 -507.588)" fill="rgba(255,255,255,0.45)"/>
            <path id="Path_832" data-name="Path 832" d="M724.578,514.915a2.162,2.162,0,1,0-1.253,2.8A2.16,2.16,0,0,0,724.578,514.915Z" transform="translate(-599.258 -489.571)" fill="rgba(255,255,255,0.45)"/>
            <path id="Path_833" data-name="Path 833" d="M741.11,558.7a2.162,2.162,0,1,0-1.254,2.8A2.16,2.16,0,0,0,741.11,558.7Z" transform="translate(-602.659 -498.58)" fill="rgba(255,255,255,0.45)"/>
            <path id="Path_834" data-name="Path 834" d="M732.844,536.808a2.162,2.162,0,1,0-1.253,2.8A2.16,2.16,0,0,0,732.844,536.808Z" transform="translate(-600.958 -494.075)" fill="rgba(255,255,255,0.45)"/>
            <path id="Path_835" data-name="Path 835" d="M749.376,580.594a2.162,2.162,0,1,0-1.254,2.8A2.16,2.16,0,0,0,749.376,580.594Z" transform="translate(-604.359 -503.084)" fill="rgba(255,255,255,0.45)"/>
            <path id="Path_836" data-name="Path 836" d="M774.174,646.273a2.162,2.162,0,1,0-1.254,2.8A2.16,2.16,0,0,0,774.174,646.273Z" transform="translate(-609.461 -516.596)" fill="rgba(255,255,255,0.45)"/>
            <path id="Path_837" data-name="Path 837" d="M765.908,624.38a2.161,2.161,0,1,0-1.254,2.8A2.16,2.16,0,0,0,765.908,624.38Z" transform="translate(-607.76 -512.092)" fill="rgba(255,255,255,0.45)"/>
            <path id="Path_838" data-name="Path 838" d="M741.107,508.2a2.162,2.162,0,1,0,1.254-2.8A2.159,2.159,0,0,0,741.107,508.2Z" transform="translate(-603.489 -487.873)" fill="rgba(255,255,255,0.45)"/>
            <path id="Path_839" data-name="Path 839" d="M732.842,486.309a2.161,2.161,0,1,0,1.253-2.8A2.158,2.158,0,0,0,732.842,486.309Z" transform="translate(-601.789 -483.369)" fill="rgba(255,255,255,0.45)"/>
            <path id="Path_840" data-name="Path 840" d="M790.7,639.56a2.161,2.161,0,1,0,1.254-2.8A2.16,2.16,0,0,0,790.7,639.56Z" transform="translate(-613.693 -514.898)" fill="rgba(255,255,255,0.45)"/>
            <path id="Path_841" data-name="Path 841" d="M765.9,573.881a2.161,2.161,0,1,0,1.254-2.8A2.16,2.16,0,0,0,765.9,573.881Z" transform="translate(-608.591 -501.386)" fill="rgba(255,255,255,0.45)"/>
            <path id="Path_842" data-name="Path 842" d="M774.171,595.774a2.161,2.161,0,1,0,1.254-2.8A2.16,2.16,0,0,0,774.171,595.774Z" transform="translate(-610.291 -505.89)" fill="rgba(255,255,255,0.45)"/>
            <path id="Path_843" data-name="Path 843" d="M782.437,617.667a2.161,2.161,0,1,0,1.254-2.8A2.16,2.16,0,0,0,782.437,617.667Z" transform="translate(-611.992 -510.394)" fill="rgba(255,255,255,0.45)"/>
            <path id="Path_844" data-name="Path 844" d="M749.373,530.095a2.161,2.161,0,1,0,1.254-2.8A2.159,2.159,0,0,0,749.373,530.095Z" transform="translate(-605.19 -492.378)" fill="rgba(255,255,255,0.45)"/>
            <path id="Path_845" data-name="Path 845" d="M798.969,661.453a2.161,2.161,0,1,0,1.254-2.8A2.156,2.156,0,0,0,798.969,661.453Z" transform="translate(-615.393 -519.402)" fill="rgba(255,255,255,0.45)"/>
            <path id="Path_846" data-name="Path 846" d="M757.639,551.988a2.161,2.161,0,1,0,1.254-2.8A2.159,2.159,0,0,0,757.639,551.988Z" transform="translate(-606.89 -496.882)" fill="rgba(255,255,255,0.45)"/>
          </g>
        </g>
      </g>
    </g>
  </g>
</svg>
