<svg height="54" viewBox="0 0 512.001 512.001" width="54" xmlns="http://www.w3.org/2000/svg"><g fill="#fff"><path d="M478.109 140.7H361.616V41.468c0-17.143-13.947-31.089-31.089-31.089H194.604c-17.143 0-31.089 13.947-31.089 31.089V140.7H47.023c-18.687 0-33.891 15.204-33.891 33.891v29.824c0 15.672 10.695 28.889 25.168 32.747l6.676 80.518C17.893 335.661 0 366.431 0 401.306c0 55.315 45.001 100.316 100.316 100.316 44.455 0 82.241-29.068 95.367-69.193h219.822a58.843 58.843 0 0039.829-15.477 58.85 58.85 0 0018.929-38.31l12.519-141.466c14.499-3.841 25.219-17.071 25.219-32.761v-29.824C512 155.902 496.798 140.7 478.109 140.7zM185.206 41.468c0-5.183 4.217-9.399 9.399-9.399h135.923c5.183 0 9.399 4.216 9.399 9.399V140.7H185.206zm-84.89 438.464c-43.355 0-78.626-35.271-78.626-78.626s35.271-78.626 78.626-78.626 78.626 35.271 78.626 78.626-35.271 78.626-78.626 78.626zm352.342-103.203c-1.717 19.389-17.688 34.01-37.153 34.01h-215.32c.291-3.106.447-6.251.447-9.433 0-4.559-.312-9.047-.904-13.448 3.667-1.85 6.124-5.704 5.963-10.078l-3.959-107.342c-.221-5.985-5.266-10.668-11.238-10.438-5.985.221-10.658 5.252-10.438 11.238l2.692 72.968a101.145 101.145 0 00-25.657-25.557l-3.068-48.495c-.378-5.978-5.544-10.515-11.508-10.139-5.978.378-10.516 5.531-10.139 11.508l2.247 35.511a99.58 99.58 0 00-25.491-5.652l-2.825-31.512c-.535-5.966-5.801-10.37-11.77-9.833-5.966.535-10.368 5.804-9.833 11.77l2.692 30.013a99.546 99.546 0 00-21.532 5.265l-5.702-68.782H464.91zm37.652-172.315c0 6.727-5.473 12.201-12.201 12.201H47.023c-6.727 0-12.201-5.473-12.201-12.201V174.59c0-6.727 5.473-12.201 12.201-12.201h116.493v19.34c0 5.99 4.855 10.845 10.845 10.845s10.845-4.855 10.845-10.845v-19.34H478.11c6.727 0 12.201 5.473 12.201 12.201v29.824z"/><path d="M418.139 388.996a10.7 10.7 0 001.039.049c5.527 0 10.251-4.206 10.783-9.82l10.202-107.361c.566-5.963-3.808-11.255-9.77-11.822-5.957-.569-11.256 3.808-11.822 9.77l-10.202 107.361c-.567 5.964 3.808 11.257 9.77 11.823zm-44.58.02c.253.017.504.026.754.026 5.65 0 10.415-4.38 10.808-10.102l7.369-107.357c.41-5.976-4.102-11.152-10.077-11.563-5.977-.408-11.152 4.102-11.563 10.077l-7.369 107.357c-.409 5.975 4.102 11.152 10.078 11.562zM333.52 281.879c.153.005.305.009.456.009 5.783 0 10.587-4.565 10.828-10.397l.009-.205c.247-5.984-4.404-11.036-10.388-11.284-5.964-.226-11.036 4.403-11.284 10.388l-.009.205c-.247 5.986 4.404 11.037 10.388 11.284zm-4.538 107.148c.156.007.311.01.466.01 5.778 0 10.581-4.559 10.828-10.387l2.921-69.12c.253-5.984-4.393-11.04-10.378-11.294-5.999-.243-11.04 4.393-11.294 10.378l-2.921 69.12c-.253 5.984 4.394 11.04 10.378 11.293zm-44.576.005l.176.001c5.908 0 10.746-4.744 10.84-10.673l1.705-107.349c.095-5.989-4.682-10.921-10.671-11.015-5.972-.129-10.921 4.682-11.015 10.671l-1.705 107.349c-.097 5.988 4.681 10.92 10.67 11.016zm-44.693-.002h.116c5.989-.063 10.794-4.969 10.731-10.958l-1.128-107.346c-.063-5.951-4.905-10.731-10.843-10.731h-.116c-5.989.063-10.794 4.969-10.731 10.958l1.128 107.346c.063 5.95 4.906 10.731 10.843 10.731zm-100.141 1.431H111.16V362.05c0-5.99-4.855-10.845-10.845-10.845S89.47 356.06 89.47 362.05v28.412H61.059c-5.99 0-10.845 4.855-10.845 10.845s4.855 10.845 10.845 10.845h28.412v28.412c0 5.99 4.855 10.845 10.845 10.845s10.845-4.855 10.845-10.845v-28.412h28.412c5.99 0 10.845-4.855 10.845-10.845s-4.856-10.846-10.846-10.846z"/></g></svg>