<svg viewBox="0 0 512 512" xmlns="http://www.w3.org/2000/svg"><path d="M511.95 160.445c-.007-.075-.023-.148-.032-.222a10.03 10.03 0 00-.114-.746c-.032-.162-.078-.318-.118-.477-.04-.155-.073-.311-.12-.466a10.441 10.441 0 00-.26-.727c-.025-.064-.044-.129-.071-.193a10.3 10.3 0 00-.462-.965l-52.911-98.096a26.127 26.127 0 005.775-4.885c4.547-5.155 7.051-11.984 7.051-19.228 0-13.741-9.885-28.344-28.204-28.344H320.828c-8.454 0-15.966 3.238-21.151 9.119-4.547 5.155-7.051 11.983-7.051 19.227 0 9.6 4.83 19.614 13.984 24.782l-61.867 96.845c-.049.077-.087.157-.133.234a10.08 10.08 0 00-.311.545c-.062.119-.117.24-.173.36a9.925 9.925 0 00-.234.527c-.056.141-.105.282-.155.425-.056.162-.112.323-.16.489-.048.165-.088.33-.127.496-.035.148-.07.295-.099.445-.036.188-.061.376-.086.564-.018.134-.037.268-.049.403-.018.206-.025.412-.031.618-.002.093-.014.183-.014.276v82.504a57.604 57.604 0 00-13.476 9.937 43.22 43.22 0 00-10.238-1.219c-17.805 0-33.354 10.967-39.914 26.642-12.013-3.593-24.874-1.771-35.69 5.491-12.119 8.136-19.038 21.385-19.42 36.183h-8.775L67.19 182.399c-1.748-5.002-5.45-8.957-10.423-11.137a20.58 20.58 0 00-16.377-.043l-28.12 12.167a20.49 20.49 0 00-11.023 11.647c-1.88 5.083-1.63 10.518.704 15.305l54.991 112.723c-2.38 1.828-3.921 4.694-3.921 7.928 0 53.836 18.456 99.159 53.371 131.071 30.931 28.271 72.486 43.841 117.007 43.845h.016c11.724 0 23.238-1.09 34.411-3.197H502c5.523 0 10-4.477 10-10V161.509a9.983 9.983 0 00-.05-1.064zM320.828 26.095h121.656c7.612 0 8.204 6.388 8.204 8.345 0 1.958-.592 8.346-8.204 8.346H320.828c-7.611 0-8.202-6.388-8.202-8.345 0-1.958.591-8.346 8.202-8.346zm1.226 46.101l44.695 79.255h-95.325zM155 301.41c7.775-5.22 17.633-5.076 25.727.374a10.002 10.002 0 0015.559-7.578c.868-12.075 11.046-21.534 23.172-21.534 3.234 0 6.362.651 9.298 1.935a9.997 9.997 0 0011.858-2.969c7.23-9.167 18.062-14.424 29.718-14.424 17.611 0 32.744 11.949 36.8 29.057a10.001 10.001 0 0016.246 5.279 23.223 23.223 0 0115.125-5.6c12.811 0 23.233 10.423 23.233 23.234 0 4.181-1.128 8.253-3.224 11.806H144.439c.342-8.176 4.032-15.197 10.561-19.58zM20.071 201.86a.392.392 0 01.143-.119l28.119-12.167a.467.467 0 01.169-.032l45.967 131.446H78.187zm235.621 280.897c-.548.055-1.079.163-1.598.302a165.641 165.641 0 01-30.676 2.844h-.015v.001c-70.12-.006-145.418-45.443-150.145-144.916h35.227l.075.003.07-.003h26.635l.045.002.039-.002h238.283c-2.108 43.642-18.129 80.243-46.653 106.302-19.657 17.957-44.266 30.094-71.287 35.467zm118.177-.049h-61.651c10.133-5.853 19.606-12.757 28.248-20.653 13.718-12.533 24.884-27.141 33.402-43.509v64.162zm0-198.345c-7.831-11.125-20.76-18.415-35.366-18.415a43.238 43.238 0 00-16.41 3.236c-9.587-19.32-29.365-31.971-51.762-31.971-2.415 0-4.803.164-7.161.455V171.45h110.699zM339.707 62.786h97.714v-.001l47.824 88.665-95.535.001zm152.294 419.921h-98.132v-30.588h98.132zm0-50.589h-98.132V414.47h98.132zm0-37.647h-98.132v-130.75h98.132zm0-150.75h-98.132v-17.648h98.132zm0-37.648h-98.132V171.45l98.132-.001z"/><path d="M167.574 429.082l-.265-.183c-4.546-3.136-10.773-1.995-13.91 2.552-3.136 4.546-1.994 10.773 2.552 13.91l.321.221a9.95 9.95 0 005.643 1.751 9.99 9.99 0 008.259-4.35c3.119-4.556 1.955-10.78-2.6-13.901zm-22.533-19.207c-9.071-9.537-20.537-24.39-23.649-40.993-1.018-5.429-6.245-8.999-11.671-7.987-5.429 1.017-9.004 6.243-7.987 11.671 4.013 21.41 17.884 39.601 28.815 51.093a9.972 9.972 0 007.247 3.108 9.97 9.97 0 006.891-2.754c4.001-3.806 4.16-10.136.354-14.138z"/></svg>