<svg viewBox="0 0 512.003 512.003" xmlns="http://www.w3.org/2000/svg"><path d="M511.857 93.15a8.128 8.128 0 00-.006-.883 7.995 7.995 0 00-.356-.911 9.368 9.368 0 00-2.449-3.833 8.41 8.41 0 00-1.345-.907 8.186 8.186 0 00-1.338-.7 8.543 8.543 0 00-1.791-.361 8.115 8.115 0 00-1.104-.223c-.091 0-.166.049-.256.051-.096.002-.181-.04-.278-.035l-298.27 18.622c-1.124-26.087-17.978-48.878-42.592-57.594a38.636 38.636 0 017.136-15.752A43.04 43.04 0 01204.8 17.066c4.713 0 8.533-3.82 8.533-8.533S209.514 0 204.801 0c-21.908 0-38.375 6.725-48.942 19.983a55.792 55.792 0 00-10.527 22.913c-1.503-.106-3.002-.23-4.532-.23-31.589.055-58.42 23.135-63.194 54.362a46.175 46.175 0 00-30.673-11.695c-20.99.058-39.381 14.064-45.019 34.282a8.362 8.362 0 00-1.915 5.168v285.942C.001 466.567 49.764 512 110.935 512a8.096 8.096 0 001.502-.303 7.347 7.347 0 004.494-.097l389.121-123.65c.13-.041.216-.143.343-.19a8.15 8.15 0 001.579-.877 6.934 6.934 0 003.598-4.935c.18-.568.298-1.153.352-1.746.006-.135.078-.249.078-.386V93.867c-.001-.255-.123-.469-.145-.717zM98.352 86.564a46.824 46.824 0 0142.45-26.831c.912 0 1.804.085 2.703.137a90.199 90.199 0 001.78 18.838 8.534 8.534 0 0016.634-3.816v-.001a73.926 73.926 0 01-1.231-10.675c23.385 11.042 33.39 38.951 22.348 62.336s-38.951 33.39-62.336 22.348-33.391-38.951-22.348-62.336zm4.049 408.028c-47.775-3.883-85.333-40.017-85.333-83.867V180.2a113.469 113.469 0 0085.333 49.875zm7.368-281.316c-48.973-.602-90.236-38.693-92.483-84.59.107-.755.211-1.52.387-2.344 2.82-13.924 15.056-23.935 29.263-23.942a29.952 29.952 0 0128.329 20.417 8.381 8.381 0 005.292 5.242c11.767 33.28 48.285 50.719 81.564 38.952a63.917 63.917 0 0040.961-45.841l233.895-14.603-192.154 62.642c-.122.04-.202.137-.321.182a8.22 8.22 0 00-1.557.882 6.842 6.842 0 00-3.581 4.93 8.16 8.16 0 00-.357 1.771c-.005.124-.071.228-.071.353v44.542c0 4.713-3.82 8.533-8.533 8.533s-8.533-3.82-8.533-8.533V188.5a8.533 8.533 0 00-17.066 0v212.567c0 4.713-3.82 8.533-8.533 8.533s-8.533-3.82-8.533-8.533V199.592a16.265 16.265 0 01-.421-2.65c-.039-.119-.134-.198-.178-.315a8.224 8.224 0 00-.866-1.535 4.9 4.9 0 00-2.051-2.22 4.976 4.976 0 00-2.769-1.359 8.196 8.196 0 00-1.917-.387c-.116-.005-.213-.067-.331-.067-.444.052-.882.14-1.312.265-.448.016-.895.07-1.334.16zm9.699 150.434v-33.256l51.2-16.706v33.256zm51.2 1.238v33.274l-51.2 16.685v-33.253zm-51.2-52.438v-84.456l51.2-16.706v84.456zm375.467 61.064L119.468 492.885v-60.021l55.293-18.019c7.586 11.902 23.384 15.402 35.286 7.816a25.557 25.557 0 0011.821-21.595v-1.57l273.067-89.066zm0-81.105l-273.067 89.068v-33.24l273.067-89.066zm0-51.2l-273.067 89.068v-33.24l273.067-89.066zm0-51.2l-273.067 89.068v-33.243a25.3 25.3 0 008.533 1.573c14.132-.015 25.585-11.468 25.6-25.6v-38.344l238.933-77.896v84.442z"/></svg>