<svg viewBox="0 0 479.791 479.791" xmlns="http://www.w3.org/2000/svg"><path d="M201.977.614a24.327 24.327 0 00-22.84 14.856L1.913 444.062c-5.338 13.006.878 27.877 13.884 33.215a25.457 25.457 0 009.396 1.905 25.6 25.6 0 009.872-1.984l429.84-177.2a23.92 23.92 0 0014.872-22.976C472.495 126.952 352.081 7.142 201.977.614zm-43.32 106.248c22.973 14.245 30.048 44.416 15.803 67.389-11.06 17.836-32.259 26.635-52.699 21.875zM58.313 349.598l5.088-.232a8 8 0 007.512-9.344l-2.528-14.784 5.864-14.192 4.928-.84c18.946-3.258 36.946 9.46 40.203 28.406l.005.026 3.104 18.088c3.25 18.956-9.482 36.958-28.439 40.208h-.001l-12.992 2.224-5.072-29.6a8 8 0 00-10.2-6.304l-15.016 4.552zm144.8 41.024c-12.307-24.047-2.789-53.518 21.259-65.824 24.047-12.306 53.518-2.789 65.824 21.259a48.909 48.909 0 013.053 7.406zm105.064-43.312c-11.672-33.943-48.65-51.998-82.593-40.327-33.943 11.672-51.998 48.65-40.327 82.593a64.976 64.976 0 002.96 7.181l-159.2 65.648c-4.783 1.972-10.26-.306-12.232-5.089a9.371 9.371 0 010-7.143l26.136-63.2 18.832-5.776 4.888 28.52a8 8 0 009.234 6.537l.006-.001 20.872-3.576c27.661-4.747 46.239-31.018 41.496-58.68l-3.096-18.088c-4.42-25.784-27.693-44-53.784-42.096l34.216-82.784c34.571 9.508 70.304-10.809 79.812-45.38 7.885-28.668-4.714-59.029-30.58-73.692l8.736-21.144c122.169 16.819 218.162 112.985 234.76 235.184zm150.632-62.112l-35.2 14.496c-19.037-125.976-117.815-224.916-243.76-244.16l14.064-33.952a7.904 7.904 0 017.2-4.984h.272c141.79 6.174 255.528 119.354 262.4 261.112a7.889 7.889 0 01-4.976 7.488z"/><path d="M283.889 152.398h-18.352c-28.057.031-50.793 22.767-50.824 50.824v21.176a8 8 0 008 8h26.936l-4.872 39.008a8 8 0 007.936 8.992h42a8 8 0 007.936-8.992l-4.872-39.008h28.936a8 8 0 008-8v-21.176c-.031-28.057-22.767-50.794-50.824-50.824zm34.824 64h-30a8 8 0 00-7.936 8.992l4.872 39.008h-23.872l4.872-39.008a8 8 0 00-7.936-8.992h-28v-13.176c.022-19.224 15.6-34.802 34.824-34.824h18.352c19.224.022 34.802 15.6 34.824 34.824zm-128 32h16v16h-16zm168-8h16v16h-16zm-144-136h16v16h-16zm112 184h16v16h-16zm-176 16h16v16h-16zm-16-72h16v16h-16z"/></svg>