<svg viewBox="0 0 60 60" xmlns="http://www.w3.org/2000/svg"><path d="M21.021 28.977C18.75 26.412 15.722 25 12.493 25s-6.257 1.412-8.527 3.977c-4.612 5.211-4.612 13.688 0 18.899l8.527 9.633 8.527-9.633c4.613-5.211 4.613-13.688.001-18.899zM19.523 46.55l-7.029 7.941-7.03-7.941c-3.966-4.479-3.966-11.768 0-16.247C7.349 28.173 9.846 27 12.493 27s5.145 1.173 7.029 3.303c3.966 4.479 3.966 11.767.001 16.247zm29.224-22.043l6.464-7.286c3.478-3.92 3.478-10.296 0-14.216C53.491 1.067 51.195 0 48.746 0c-2.448 0-4.744 1.067-6.464 3.005-3.478 3.92-3.478 10.296 0 14.216zM43.778 4.333C45.113 2.828 46.877 2 48.746 2c1.87 0 3.634.828 4.969 2.333 2.828 3.187 2.828 8.373 0 11.56l-4.968 5.601-4.969-5.601c-2.828-3.187-2.828-8.373 0-11.56z"/><path d="M52.604 54.517a1 1 0 00-1.195.756 3.47 3.47 0 01-.663 1.392 1 1 0 101.572 1.236 5.51 5.51 0 001.042-2.188 1 1 0 00-.756-1.196zM31.995 31a3.517 3.517 0 01-1.252-.23 1.004 1.004 0 00-1.291.578 1.002 1.002 0 00.578 1.291c.626.238 1.285.36 1.963.361h.357a1 1 0 100-2zm-2.374-6.324a1 1 0 00.528-.151 3.451 3.451 0 011.454-.503 1.001 1.001 0 00-.219-1.989 5.423 5.423 0 00-2.294.794 1 1 0 00.531 1.849zM18.064 58h-2a1 1 0 100 2h2a1 1 0 100-2zm17.929-18c-.086 0-.171.002-.256.006a1 1 0 00.04 1.999l.042-.001L37.778 42a1 1 0 100-2zm-.5-16h2a1 1 0 100-2h-2a1 1 0 100 2zm12.285 16a1 1 0 100 2h2a1 1 0 100-2zm3.573-8a1 1 0 00-1-1h-2a1 1 0 100 2h2a1 1 0 001-1zm-9.573 10h2a1 1 0 100-2h-2a1 1 0 100 2zm1.715-18a1 1 0 100-2h-2a1 1 0 100 2zm-7.142 7a1 1 0 100 2h2a1 1 0 100-2zm9 1a1 1 0 00-1-1h-2a1 1 0 100 2h2a1 1 0 001-1zm14.075 3.632a1 1 0 10-1.975.317 3.502 3.502 0 01-.1 1.54 1 1 0 101.92.562 5.51 5.51 0 00.155-2.419zM42.064 58h-2a1 1 0 100 2h2a1 1 0 100-2zm-6 0h-2a1 1 0 100 2h2a1 1 0 100-2zm11.001-8a1 1 0 00-1-1h-2a1 1 0 100 2h2a1 1 0 001-1zm-6 0a1 1 0 00-1-1h-2a1 1 0 100 2h2a1 1 0 001-1zm6.928 8h-1.93a1 1 0 100 2l1.971-.001.029-1v1c.553 0 .965-.447.965-1 0-.552-.482-.999-1.035-.999zm3.538-5.281a1 1 0 00.785-1.618 5.543 5.543 0 00-1.879-1.528 1 1 0 10-.891 1.791c.463.229.877.566 1.197.974.198.25.491.381.788.381zm3.814-12.99c-.429.18-.883.271-1.352.271h-.215a1 1 0 100 2h.215a5.46 5.46 0 002.125-.427 1 1 0 10-.773-1.844zm-27.316-9.874c.524-.173.81-.738.638-1.263a3.494 3.494 0 01-.146-1.537 1 1 0 00-.867-1.117.995.995 0 00-1.117.867 5.504 5.504 0 00.229 2.412 1.001 1.001 0 001.263.638zM24.064 58h-2a1 1 0 100 2h2a1 1 0 100-2zm10.058-7.406a1 1 0 00.417-1.909 3.538 3.538 0 01-1.228-.936 1 1 0 10-1.531 1.287 5.538 5.538 0 001.927 1.467c.135.061.276.091.415.091zm22.624-18.856a5.438 5.438 0 00-2.317-.722 1 1 0 10-.156 1.994 3.443 3.443 0 011.47.458 1 1 0 101.003-1.73zM30.064 58h-2a1 1 0 100 2h2a1 1 0 100-2zm2.491-13.161c.099-.514.307-.989.619-1.413a1 1 0 00-1.611-1.185 5.48 5.48 0 00-.973 2.222 1.001 1.001 0 001.965.376z" fill="#e7272d"/><path d="M48.993 15c3.032 0 5.5-2.468 5.5-5.5S52.025 4 48.993 4s-5.5 2.468-5.5 5.5 2.468 5.5 5.5 5.5zm0-9c1.93 0 3.5 1.57 3.5 3.5s-1.57 3.5-3.5 3.5-3.5-1.57-3.5-3.5 1.571-3.5 3.5-3.5zm-36.5 25c-3.309 0-6 2.691-6 6s2.691 6 6 6 6-2.691 6-6-2.691-6-6-6zm0 10c-2.206 0-4-1.794-4-4s1.794-4 4-4 4 1.794 4 4-1.794 4-4 4z"/></svg>