<svg viewBox="0 0 33 33" xmlns="http://www.w3.org/2000/svg"><path d="M29.3 15.817a3.704 3.704 0 01-3.2-1.843c-.642 1.102-1.836 1.843-3.2 1.843s-2.559-.742-3.2-1.843a3.699 3.699 0 01-6.399 0 3.703 3.703 0 01-6.402 0 3.702 3.702 0 01-3.2 1.843A3.703 3.703 0 010 12.119V7.195c0-.062.012-.124.034-.182L2.397.958A.5.5 0 012.863.64h27.273a.5.5 0 01.466.318l2.363 6.055c.023.058.035.12.035.182v4.924a3.703 3.703 0 01-3.7 3.698zm-3.199-4.198a.5.5 0 01.5.5c0 1.488 1.211 2.698 2.7 2.698s2.7-1.21 2.7-2.698v-4.83L29.796 1.64H3.205L1 7.289v4.83a2.702 2.702 0 002.699 2.698c1.489 0 2.7-1.21 2.7-2.698a.5.5 0 011 0 2.702 2.702 0 005.402 0 .5.5 0 011 0 2.702 2.702 0 002.7 2.698 2.702 2.702 0 002.699-2.698.5.5 0 011 0c0 1.488 1.211 2.698 2.7 2.698s2.7-1.21 2.7-2.698a.501.501 0 01.501-.5zm2.289 20.742H4.611a2.176 2.176 0 01-2.174-2.174V19.651a.5.5 0 011 0v10.536c0 .647.526 1.174 1.174 1.174H28.39c.648 0 1.175-.526 1.175-1.174V19.651a.5.5 0 011 0v10.536a2.178 2.178 0 01-2.175 2.174z"/><path d="M14.433 32.16H7.194a.5.5 0 01-.5-.5V19.306a.5.5 0 01.5-.5h7.238a.5.5 0 01.5.5V31.66a.499.499 0 01-.499.5zm-6.739-1h6.238V19.806H7.694zm18.111-4.78h-8.566a.5.5 0 01-.5-.5v-6.573a.5.5 0 01.5-.5h8.566a.5.5 0 01.5.5v6.573a.5.5 0 01-.5.5zm-8.067-1h7.566v-5.573h-7.566z" fill="#e7272d"/></svg>